G04 #@! TF.GenerationSoftware,KiCad,Pcbnew,8.0.8*
G04 #@! TF.CreationDate,2025-03-23T17:19:21+09:00*
G04 #@! TF.ProjectId,mainBorad,6d61696e-426f-4726-9164-2e6b69636164,rev?*
G04 #@! TF.SameCoordinates,Original*
G04 #@! TF.FileFunction,Legend,Bot*
G04 #@! TF.FilePolarity,Positive*
%FSLAX46Y46*%
G04 Gerber Fmt 4.6, Leading zero omitted, Abs format (unit mm)*
G04 Created by KiCad (PCBNEW 8.0.8) date 2025-03-23 17:19:21*
%MOMM*%
%LPD*%
G01*
G04 APERTURE LIST*
G04 Aperture macros list*
%AMRoundRect*
0 Rectangle with rounded corners*
0 $1 Rounding radius*
0 $2 $3 $4 $5 $6 $7 $8 $9 X,Y pos of 4 corners*
0 Add a 4 corners polygon primitive as box body*
4,1,4,$2,$3,$4,$5,$6,$7,$8,$9,$2,$3,0*
0 Add four circle primitives for the rounded corners*
1,1,$1+$1,$2,$3*
1,1,$1+$1,$4,$5*
1,1,$1+$1,$6,$7*
1,1,$1+$1,$8,$9*
0 Add four rect primitives between the rounded corners*
20,1,$1+$1,$2,$3,$4,$5,0*
20,1,$1+$1,$4,$5,$6,$7,0*
20,1,$1+$1,$6,$7,$8,$9,0*
20,1,$1+$1,$8,$9,$2,$3,0*%
G04 Aperture macros list end*
%ADD10C,0.120000*%
%ADD11C,0.200000*%
%ADD12C,0.100000*%
%ADD13C,1.600000*%
%ADD14O,1.600000X1.600000*%
%ADD15C,2.450000*%
%ADD16C,2.300000*%
%ADD17R,1.600000X2.400000*%
%ADD18O,1.600000X2.400000*%
%ADD19R,1.217000X1.217000*%
%ADD20C,1.217000*%
%ADD21R,1.800000X1.800000*%
%ADD22O,1.800000X1.800000*%
%ADD23C,1.800000*%
%ADD24C,4.455000*%
%ADD25R,1.100000X1.800000*%
%ADD26RoundRect,0.275000X-0.275000X-0.625000X0.275000X-0.625000X0.275000X0.625000X-0.275000X0.625000X0*%
%ADD27R,1.200000X1.200000*%
%ADD28C,1.200000*%
%ADD29R,1.600000X1.600000*%
%ADD30R,2.400000X1.600000*%
%ADD31O,2.400000X1.600000*%
%ADD32R,1.700000X1.700000*%
%ADD33O,1.700000X1.700000*%
%ADD34R,1.800000X1.100000*%
%ADD35RoundRect,0.275000X-0.625000X0.275000X-0.625000X-0.275000X0.625000X-0.275000X0.625000X0.275000X0*%
%ADD36C,1.635000*%
%ADD37R,2.200000X2.200000*%
%ADD38O,2.200000X2.200000*%
%ADD39RoundRect,0.275000X0.625000X-0.275000X0.625000X0.275000X-0.625000X0.275000X-0.625000X-0.275000X0*%
%ADD40RoundRect,0.275000X0.275000X0.625000X-0.275000X0.625000X-0.275000X-0.625000X0.275000X-0.625000X0*%
%ADD41RoundRect,0.250000X-0.600000X-0.725000X0.600000X-0.725000X0.600000X0.725000X-0.600000X0.725000X0*%
%ADD42O,1.700000X1.950000*%
%ADD43R,2.250000X2.250000*%
%ADD44C,2.250000*%
%ADD45R,1.500000X1.500000*%
%ADD46C,1.500000*%
%ADD47C,4.350000*%
%ADD48C,2.400000*%
%ADD49R,1.305000X1.305000*%
%ADD50C,1.305000*%
%ADD51C,1.575000*%
%ADD52C,3.500000*%
%ADD53R,2.000000X1.905000*%
%ADD54O,2.000000X1.905000*%
%ADD55R,3.500000X3.500000*%
%ADD56RoundRect,0.750000X-1.000000X0.750000X-1.000000X-0.750000X1.000000X-0.750000X1.000000X0.750000X0*%
%ADD57RoundRect,0.875000X-0.875000X0.875000X-0.875000X-0.875000X0.875000X-0.875000X0.875000X0.875000X0*%
%ADD58R,2.000000X2.000000*%
%ADD59C,2.000000*%
%ADD60RoundRect,0.250000X0.350000X0.450000X-0.350000X0.450000X-0.350000X-0.450000X0.350000X-0.450000X0*%
%ADD61RoundRect,0.250000X0.450000X-0.350000X0.450000X0.350000X-0.450000X0.350000X-0.450000X-0.350000X0*%
%ADD62R,1.150000X0.600000*%
%ADD63RoundRect,0.250000X0.475000X-0.337500X0.475000X0.337500X-0.475000X0.337500X-0.475000X-0.337500X0*%
%ADD64RoundRect,0.250000X-0.350000X-0.450000X0.350000X-0.450000X0.350000X0.450000X-0.350000X0.450000X0*%
%ADD65R,0.950000X1.000000*%
%ADD66RoundRect,0.175000X-0.175000X0.825000X-0.175000X-0.825000X0.175000X-0.825000X0.175000X0.825000X0*%
%ADD67R,0.650000X1.551000*%
G04 APERTURE END LIST*
D10*
X107357936Y-39270000D02*
X107812064Y-39270000D01*
X107357936Y-40740000D02*
X107812064Y-40740000D01*
X88165000Y-70257936D02*
X88165000Y-70712064D01*
X89635000Y-70257936D02*
X89635000Y-70712064D01*
D11*
X117130000Y-39715000D02*
X117880000Y-39715000D01*
X117130000Y-42715000D02*
X117130000Y-39715000D01*
X117880000Y-39715000D02*
X117880000Y-42715000D01*
X117880000Y-42715000D02*
X117130000Y-42715000D01*
X118230000Y-39715000D02*
X119380000Y-39715000D01*
D10*
X81180000Y-64508748D02*
X81180000Y-65031252D01*
X82650000Y-64508748D02*
X82650000Y-65031252D01*
X85682064Y-69750000D02*
X85227936Y-69750000D01*
X85682064Y-71220000D02*
X85227936Y-71220000D01*
D12*
X110945000Y-43255000D02*
X111595000Y-43255000D01*
X110945000Y-44405000D02*
X110945000Y-43255000D01*
X113195000Y-43255000D02*
X113845000Y-43255000D01*
D11*
X113195000Y-46105000D02*
X113195000Y-46105000D01*
X113395000Y-46105000D02*
X113395000Y-46105000D01*
D12*
X113845000Y-43255000D02*
X113845000Y-44405000D01*
D11*
X113195000Y-46105000D02*
G75*
G02*
X113395000Y-46105000I100000J0D01*
G01*
X113395000Y-46105000D02*
G75*
G02*
X113195000Y-46105000I-100000J0D01*
G01*
D10*
X75225000Y-65210000D02*
X75225000Y-63610000D01*
X76135000Y-65210000D02*
X75235000Y-65210000D01*
X78445000Y-65210000D02*
X77535000Y-65210000D01*
X78445000Y-65210000D02*
X78445000Y-63060000D01*
X75275000Y-63110000D02*
X74945000Y-63350000D01*
X74945000Y-62870000D01*
X75275000Y-63110000D01*
G36*
X75275000Y-63110000D02*
G01*
X74945000Y-63350000D01*
X74945000Y-62870000D01*
X75275000Y-63110000D01*
G37*
D11*
X83780000Y-62628500D02*
X83780000Y-61077500D01*
X83916000Y-62978500D02*
X88804000Y-62978500D01*
X83916000Y-66176500D02*
X83916000Y-62978500D01*
X88804000Y-62978500D02*
X88804000Y-66176500D01*
X88804000Y-66176500D02*
X83916000Y-66176500D01*
D10*
X112511064Y-38508000D02*
X112056936Y-38508000D01*
X112511064Y-39978000D02*
X112056936Y-39978000D01*
%LPC*%
D13*
X69330000Y-116165000D03*
D14*
X69330000Y-118705000D03*
D15*
X152770000Y-32805000D03*
X152220000Y-27305000D03*
X157720000Y-27305000D03*
D16*
X157170000Y-32805000D03*
D13*
X168275000Y-120650000D03*
D14*
X165735000Y-120650000D03*
D13*
X77470000Y-123375000D03*
D14*
X77470000Y-125915000D03*
D13*
X53340000Y-138430000D03*
D14*
X55880000Y-138430000D03*
D17*
X217790000Y-122555000D03*
D18*
X215250000Y-122555000D03*
X212710000Y-122555000D03*
X210170000Y-122555000D03*
X207630000Y-122555000D03*
X205090000Y-122555000D03*
X202550000Y-122555000D03*
X200010000Y-122555000D03*
X200010000Y-130175000D03*
X202550000Y-130175000D03*
X205090000Y-130175000D03*
X207630000Y-130175000D03*
X210170000Y-130175000D03*
X212710000Y-130175000D03*
X215250000Y-130175000D03*
X217790000Y-130175000D03*
D19*
X34925000Y-139065000D03*
D20*
X34925000Y-136525000D03*
X34925000Y-133985000D03*
D15*
X165650000Y-32805000D03*
X165100000Y-27305000D03*
X170600000Y-27305000D03*
D16*
X170050000Y-32805000D03*
D21*
X176530000Y-82550000D03*
D22*
X173990000Y-82550000D03*
D19*
X34145000Y-116205000D03*
D20*
X34145000Y-113665000D03*
X34145000Y-111125000D03*
D13*
X165960000Y-123825000D03*
D14*
X168500000Y-123825000D03*
D13*
X167230000Y-59055000D03*
D14*
X169770000Y-59055000D03*
D13*
X92075000Y-116840000D03*
D14*
X92075000Y-119380000D03*
D23*
X153685000Y-67865000D03*
X153685000Y-65365000D03*
X153685000Y-62865000D03*
D24*
X146685000Y-69765000D03*
X146685000Y-60965000D03*
D13*
X162560000Y-46130000D03*
D14*
X162560000Y-43590000D03*
D13*
X106680000Y-133985000D03*
D14*
X109220000Y-133985000D03*
D25*
X165735000Y-83585000D03*
D26*
X167005000Y-81515000D03*
X168275000Y-83585000D03*
D13*
X182245000Y-82550000D03*
D14*
X179705000Y-82550000D03*
D27*
X112935000Y-138430000D03*
D28*
X114935000Y-138430000D03*
D13*
X139065000Y-116840000D03*
X139065000Y-121840000D03*
X85725000Y-128905000D03*
D14*
X83185000Y-128905000D03*
D13*
X66900000Y-133350000D03*
D14*
X69440000Y-133350000D03*
D13*
X37320000Y-127000000D03*
X32320000Y-127000000D03*
D29*
X179295000Y-135160000D03*
D13*
X179295000Y-137160000D03*
X198345000Y-118745000D03*
D14*
X198345000Y-116205000D03*
D27*
X178975000Y-71120000D03*
D28*
X180975000Y-71120000D03*
D30*
X41275000Y-119380000D03*
D31*
X41275000Y-121920000D03*
X41275000Y-124460000D03*
X41275000Y-127000000D03*
X48895000Y-127000000D03*
X48895000Y-124460000D03*
X48895000Y-121920000D03*
X48895000Y-119380000D03*
D13*
X53565000Y-133350000D03*
D14*
X56105000Y-133350000D03*
D13*
X217790000Y-118745000D03*
D14*
X217790000Y-116205000D03*
D13*
X160245000Y-55880000D03*
D14*
X162785000Y-55880000D03*
D13*
X214615000Y-118745000D03*
D14*
X214615000Y-116205000D03*
D13*
X135255000Y-76530000D03*
X135255000Y-71530000D03*
X186055000Y-82550000D03*
D14*
X188595000Y-82550000D03*
D32*
X68580000Y-109855000D03*
X192405000Y-63000000D03*
D33*
X194945000Y-63000000D03*
D34*
X84055000Y-123190000D03*
D35*
X86125000Y-124460000D03*
X84055000Y-125730000D03*
D13*
X105410000Y-116205000D03*
X110410000Y-116205000D03*
D19*
X188185000Y-114300000D03*
D20*
X185645000Y-114300000D03*
X183105000Y-114300000D03*
D13*
X47625000Y-133350000D03*
D14*
X45085000Y-133350000D03*
D13*
X199375000Y-135890000D03*
D14*
X199375000Y-133350000D03*
D34*
X114535000Y-121285000D03*
D35*
X116605000Y-122555000D03*
X114535000Y-123825000D03*
D36*
X34925000Y-96000000D03*
X37465000Y-96000000D03*
X40005000Y-96000000D03*
X32385000Y-96000000D03*
X42545000Y-96000000D03*
D13*
X123432600Y-116285000D03*
X123432600Y-121285000D03*
X135255000Y-60325000D03*
D14*
X135255000Y-57785000D03*
D29*
X47030000Y-53975000D03*
D13*
X49530000Y-53975000D03*
D37*
X49312200Y-60325000D03*
D38*
X44232200Y-60325000D03*
D13*
X140560000Y-129460000D03*
D14*
X143100000Y-129460000D03*
D13*
X69810000Y-46990000D03*
X64810000Y-46990000D03*
X49570000Y-68580000D03*
X54570000Y-68580000D03*
D30*
X176530000Y-38005000D03*
D31*
X176530000Y-40545000D03*
X176530000Y-43085000D03*
X176530000Y-45625000D03*
X176530000Y-48165000D03*
X176530000Y-50705000D03*
X176530000Y-53245000D03*
X184150000Y-53245000D03*
X184150000Y-50705000D03*
X184150000Y-48165000D03*
X184150000Y-45625000D03*
X184150000Y-43085000D03*
X184150000Y-40545000D03*
X184150000Y-38005000D03*
D13*
X85725000Y-116840000D03*
D14*
X85725000Y-119380000D03*
D30*
X128157600Y-123190000D03*
D31*
X128157600Y-125730000D03*
X128157600Y-128270000D03*
X135777600Y-128270000D03*
X135777600Y-125730000D03*
X135777600Y-123190000D03*
D13*
X142240000Y-125730000D03*
D14*
X139700000Y-125730000D03*
D34*
X169145000Y-50165000D03*
D35*
X171215000Y-51435000D03*
X169145000Y-52705000D03*
D13*
X184215000Y-123825000D03*
X189215000Y-123825000D03*
X174360000Y-129540000D03*
D14*
X174360000Y-132080000D03*
D21*
X162150000Y-123825000D03*
D22*
X159610000Y-123825000D03*
D13*
X213545000Y-68580000D03*
D14*
X211005000Y-68580000D03*
D13*
X135890000Y-132715000D03*
D14*
X133350000Y-132715000D03*
D13*
X46765000Y-106680000D03*
D14*
X44225000Y-106680000D03*
D34*
X122205000Y-139065000D03*
D39*
X120135000Y-137795000D03*
X122205000Y-136525000D03*
D34*
X61995000Y-140335000D03*
D39*
X59925000Y-139065000D03*
X61995000Y-137795000D03*
D27*
X120015000Y-144780000D03*
D28*
X122015000Y-144780000D03*
D25*
X91440000Y-129775000D03*
D40*
X90170000Y-131845000D03*
X88900000Y-129775000D03*
D32*
X219000000Y-44540000D03*
D33*
X219000000Y-42000000D03*
D27*
X141510000Y-110490000D03*
D28*
X143510000Y-110490000D03*
D13*
X169545000Y-78105000D03*
D14*
X169545000Y-75565000D03*
D21*
X188595000Y-51340000D03*
D22*
X188595000Y-48800000D03*
D13*
X90805000Y-137795000D03*
D14*
X88265000Y-137795000D03*
D13*
X158115000Y-83105000D03*
X158115000Y-78105000D03*
D41*
X64930000Y-80645000D03*
D42*
X67430000Y-80645000D03*
X69930000Y-80645000D03*
X72430000Y-80645000D03*
X74930000Y-80645000D03*
D15*
X139700000Y-32805000D03*
X139150000Y-27305000D03*
X144650000Y-27305000D03*
D16*
X144100000Y-32805000D03*
D32*
X36830000Y-37465000D03*
D33*
X39370000Y-37465000D03*
D13*
X65520000Y-118665000D03*
X65520000Y-113665000D03*
D27*
X149130000Y-132635000D03*
D28*
X151130000Y-132635000D03*
D29*
X56047000Y-80518000D03*
D13*
X58547000Y-80518000D03*
X152400000Y-51210000D03*
D14*
X152400000Y-48670000D03*
D13*
X218425000Y-135890000D03*
D14*
X218425000Y-133350000D03*
D32*
X49530000Y-37465000D03*
D33*
X46990000Y-37465000D03*
D13*
X135665000Y-136525000D03*
D14*
X133125000Y-136525000D03*
D29*
X197470000Y-109895000D03*
D13*
X197470000Y-112395000D03*
X114300000Y-133985000D03*
D14*
X111760000Y-133985000D03*
D13*
X155575000Y-51210000D03*
D14*
X155575000Y-48670000D03*
D30*
X95210000Y-128920000D03*
D31*
X95210000Y-131460000D03*
X95210000Y-134000000D03*
X102830000Y-134000000D03*
X102830000Y-131460000D03*
X102830000Y-128920000D03*
D13*
X173990000Y-120650000D03*
D14*
X171450000Y-120650000D03*
D29*
X179295000Y-120690000D03*
D13*
X179295000Y-123190000D03*
X60325000Y-133350000D03*
D14*
X62865000Y-133350000D03*
D19*
X34925000Y-45720000D03*
D20*
X40025000Y-48310000D03*
D34*
X55455000Y-123190000D03*
D39*
X53385000Y-121920000D03*
X55455000Y-120650000D03*
D21*
X188595000Y-45625000D03*
D22*
X188595000Y-43085000D03*
D30*
X36180000Y-79385000D03*
D31*
X36180000Y-81925000D03*
X36180000Y-84465000D03*
X36180000Y-87005000D03*
X43800000Y-87005000D03*
X43800000Y-84465000D03*
X43800000Y-81925000D03*
X43800000Y-79385000D03*
D13*
X182655000Y-59055000D03*
D14*
X180115000Y-59055000D03*
D32*
X60960000Y-73025000D03*
D33*
X63500000Y-73025000D03*
X66040000Y-73025000D03*
D21*
X158975000Y-128905000D03*
D22*
X156435000Y-128905000D03*
D13*
X175895000Y-65405000D03*
D14*
X173355000Y-65405000D03*
D43*
X104380000Y-34290000D03*
D44*
X111880000Y-34290000D03*
X119380000Y-34290000D03*
X106880000Y-36790000D03*
X116880000Y-36790000D03*
X106880000Y-24390000D03*
X116880000Y-24390000D03*
D29*
X194295000Y-133350000D03*
D13*
X194295000Y-135850000D03*
D27*
X142145000Y-137795000D03*
D28*
X144145000Y-137795000D03*
D29*
X203820000Y-116245000D03*
D13*
X203820000Y-118745000D03*
D25*
X173355000Y-58820000D03*
D26*
X174625000Y-56750000D03*
X175895000Y-58820000D03*
D13*
X97155000Y-137795000D03*
D14*
X99695000Y-137795000D03*
D34*
X108185000Y-109855000D03*
D35*
X110255000Y-111125000D03*
X108185000Y-112395000D03*
D27*
X148495000Y-110490000D03*
D28*
X150495000Y-110490000D03*
D36*
X62865000Y-30225000D03*
X65405000Y-30225000D03*
X67945000Y-30225000D03*
X67945000Y-25145000D03*
X62865000Y-25145000D03*
D34*
X67825000Y-124420000D03*
D39*
X65755000Y-123150000D03*
X67825000Y-121880000D03*
D13*
X149225000Y-118030000D03*
D14*
X151765000Y-118030000D03*
D13*
X207645000Y-83820000D03*
D14*
X205105000Y-83820000D03*
D21*
X188595000Y-57055000D03*
D22*
X188595000Y-54515000D03*
D13*
X188595000Y-38005000D03*
D14*
X188595000Y-40545000D03*
D32*
X142235000Y-40005000D03*
D33*
X139695000Y-40005000D03*
X137155000Y-40005000D03*
X134615000Y-40005000D03*
X132075000Y-40005000D03*
D13*
X162150000Y-120650000D03*
D14*
X159610000Y-120650000D03*
D25*
X193040000Y-77235000D03*
D26*
X194310000Y-75165000D03*
X195580000Y-77235000D03*
D13*
X75565000Y-109855000D03*
D14*
X73025000Y-109855000D03*
D45*
X67310000Y-99550000D03*
D46*
X67310000Y-97050000D03*
X67310000Y-94550000D03*
X67310000Y-92050000D03*
D47*
X56310000Y-101600000D03*
X56310000Y-90000000D03*
D45*
X114946700Y-98635000D03*
D46*
X114946700Y-100635000D03*
X114946700Y-90635000D03*
X114946700Y-96635000D03*
X114946700Y-94635000D03*
X114946700Y-92635000D03*
D24*
X103946700Y-101435000D03*
X103946700Y-89835000D03*
D13*
X208055000Y-68580000D03*
D14*
X205515000Y-68580000D03*
D48*
X210185000Y-30945000D03*
X193885000Y-30945000D03*
X210185000Y-24645000D03*
X193885000Y-24645000D03*
X210185000Y-37245000D03*
X193885000Y-37245000D03*
D13*
X49911000Y-79121000D03*
D14*
X47371000Y-79121000D03*
D32*
X36825000Y-41910000D03*
D33*
X39365000Y-41910000D03*
D13*
X160020000Y-59690000D03*
D14*
X162560000Y-59690000D03*
D13*
X82550000Y-116840000D03*
D14*
X82550000Y-119380000D03*
D32*
X175485000Y-113030000D03*
D33*
X172945000Y-113030000D03*
D27*
X178975000Y-76835000D03*
D28*
X180975000Y-76835000D03*
D45*
X212090000Y-99380000D03*
D46*
X212090000Y-96880000D03*
X212090000Y-94380000D03*
X212090000Y-91880000D03*
D47*
X201090000Y-101430000D03*
X201090000Y-89830000D03*
D34*
X91725000Y-125730000D03*
D39*
X89655000Y-124460000D03*
X91725000Y-123190000D03*
D13*
X161810000Y-78105000D03*
D14*
X161810000Y-75565000D03*
D13*
X173355000Y-78105000D03*
D14*
X173355000Y-75565000D03*
D13*
X202550000Y-135890000D03*
D14*
X202550000Y-133350000D03*
D45*
X186851700Y-99412500D03*
D46*
X186851700Y-96912500D03*
X186851700Y-94412500D03*
X186851700Y-91912500D03*
D47*
X175851700Y-101462500D03*
X175851700Y-89862500D03*
D27*
X74835000Y-115570000D03*
D28*
X76835000Y-115570000D03*
D32*
X77470000Y-51060000D03*
D33*
X80010000Y-51060000D03*
X82550000Y-51060000D03*
D29*
X57190000Y-53975000D03*
D13*
X59690000Y-53975000D03*
X161515000Y-69215000D03*
D14*
X164055000Y-69215000D03*
D13*
X211440000Y-118745000D03*
D14*
X211440000Y-116205000D03*
D13*
X213345000Y-109220000D03*
X218345000Y-109220000D03*
D32*
X97790000Y-80665000D03*
D33*
X100330000Y-80665000D03*
X102870000Y-80665000D03*
X105410000Y-80665000D03*
X107950000Y-80665000D03*
X110490000Y-80665000D03*
X113030000Y-80665000D03*
X115570000Y-80665000D03*
D13*
X169545000Y-65405000D03*
D14*
X167005000Y-65405000D03*
D13*
X132080000Y-60325000D03*
D14*
X132080000Y-57785000D03*
D27*
X135890000Y-140970000D03*
D28*
X137890000Y-140970000D03*
D13*
X71120000Y-53975000D03*
D14*
X63500000Y-53975000D03*
D49*
X61595000Y-41275000D03*
D50*
X64135000Y-41275000D03*
X66675000Y-41275000D03*
D13*
X215250000Y-135890000D03*
D14*
X215250000Y-133350000D03*
D30*
X41550000Y-110520000D03*
D31*
X41550000Y-113060000D03*
X41550000Y-115600000D03*
X49170000Y-115600000D03*
X49170000Y-113060000D03*
X49170000Y-110520000D03*
D13*
X36050000Y-122555000D03*
D14*
X33510000Y-122555000D03*
D27*
X80550000Y-136525000D03*
D28*
X82550000Y-136525000D03*
D13*
X128270000Y-140335000D03*
D14*
X130810000Y-140335000D03*
D13*
X113665000Y-116205000D03*
X118665000Y-116205000D03*
X212075000Y-135890000D03*
D14*
X212075000Y-133350000D03*
D13*
X194930000Y-118745000D03*
D14*
X194930000Y-116205000D03*
D13*
X208265000Y-118745000D03*
D14*
X208265000Y-116205000D03*
D13*
X130175000Y-136525000D03*
D14*
X127635000Y-136525000D03*
D13*
X77470000Y-129540000D03*
D14*
X77470000Y-132080000D03*
D34*
X108185000Y-121285000D03*
D35*
X110255000Y-122555000D03*
X108185000Y-123825000D03*
D13*
X36050000Y-106045000D03*
D14*
X33510000Y-106045000D03*
D21*
X149225000Y-121840000D03*
D22*
X151765000Y-121840000D03*
D34*
X101835000Y-109855000D03*
D35*
X103905000Y-111125000D03*
X101835000Y-112395000D03*
D29*
X199430000Y-76200000D03*
D13*
X201930000Y-76200000D03*
X163420000Y-136525000D03*
D14*
X165960000Y-136525000D03*
D32*
X49530000Y-41910000D03*
D33*
X46990000Y-41910000D03*
D19*
X86360000Y-109710000D03*
D20*
X83820000Y-109710000D03*
X81280000Y-109710000D03*
D34*
X122320000Y-131445000D03*
D39*
X120250000Y-130175000D03*
X122320000Y-128905000D03*
D13*
X59055000Y-107315000D03*
D14*
X56515000Y-107315000D03*
D25*
X186690000Y-77235000D03*
D26*
X187960000Y-75165000D03*
X189230000Y-77235000D03*
D30*
X128157600Y-114300000D03*
D31*
X128157600Y-116840000D03*
X128157600Y-119380000D03*
X135777600Y-119380000D03*
X135777600Y-116840000D03*
X135777600Y-114300000D03*
D13*
X49610000Y-74295000D03*
X54610000Y-74295000D03*
X60365000Y-128270000D03*
X65365000Y-128270000D03*
D34*
X162795000Y-50165000D03*
D35*
X164865000Y-51435000D03*
X162795000Y-52705000D03*
D29*
X193635000Y-69380000D03*
D13*
X195635000Y-69380000D03*
D51*
X100965000Y-46670000D03*
X94465000Y-46670000D03*
X100965000Y-42170000D03*
X94465000Y-42170000D03*
D13*
X160245000Y-136525000D03*
D14*
X157705000Y-136525000D03*
D13*
X134227600Y-110490000D03*
D14*
X136767600Y-110490000D03*
D13*
X128270000Y-110490000D03*
D14*
X130810000Y-110490000D03*
D13*
X208900000Y-135890000D03*
D14*
X208900000Y-133350000D03*
D45*
X91278300Y-99522500D03*
D46*
X91278300Y-97022500D03*
X91278300Y-94522500D03*
X91278300Y-92022500D03*
D47*
X80278300Y-101572500D03*
X80278300Y-89972500D03*
D21*
X166370000Y-40415000D03*
D22*
X166370000Y-37875000D03*
D13*
X192390000Y-123825000D03*
D14*
X194930000Y-123825000D03*
D25*
X167005000Y-70885000D03*
D26*
X168275000Y-68815000D03*
X169545000Y-70885000D03*
D13*
X173355000Y-69215000D03*
D14*
X175895000Y-69215000D03*
D34*
X61360000Y-123190000D03*
D39*
X59290000Y-121920000D03*
X61360000Y-120650000D03*
D13*
X108585000Y-138430000D03*
D14*
X106045000Y-138430000D03*
D13*
X207855000Y-109220000D03*
D14*
X210395000Y-109220000D03*
D13*
X162745000Y-140335000D03*
X157745000Y-140335000D03*
X142875000Y-116840000D03*
X142875000Y-121840000D03*
D52*
X30035000Y-71120000D03*
D53*
X46695000Y-73660000D03*
D54*
X46695000Y-71120000D03*
X46695000Y-68580000D03*
D13*
X184135000Y-127000000D03*
X189135000Y-127000000D03*
D27*
X121825000Y-111125000D03*
D28*
X123825000Y-111125000D03*
D13*
X45085000Y-137160000D03*
D14*
X47625000Y-137160000D03*
D13*
X173990000Y-123825000D03*
D14*
X171450000Y-123825000D03*
D13*
X102155000Y-116205000D03*
X97155000Y-116205000D03*
X157295000Y-132080000D03*
X162295000Y-132080000D03*
X161290000Y-65405000D03*
D14*
X163830000Y-65405000D03*
D45*
X138915000Y-99495000D03*
D46*
X138915000Y-96995000D03*
X138915000Y-94495000D03*
X138915000Y-91995000D03*
D47*
X127915000Y-101545000D03*
X127915000Y-89945000D03*
D13*
X53340000Y-128270000D03*
D14*
X55880000Y-128270000D03*
D13*
X162560000Y-40415000D03*
D14*
X162560000Y-37875000D03*
D13*
X151130000Y-138350000D03*
D14*
X148590000Y-138350000D03*
D13*
X106680000Y-129540000D03*
D14*
X109220000Y-129540000D03*
D43*
X80885000Y-34290000D03*
D44*
X88385000Y-34290000D03*
X95885000Y-34290000D03*
X83385000Y-36790000D03*
X93385000Y-36790000D03*
X83385000Y-24390000D03*
X93385000Y-24390000D03*
D13*
X165735000Y-78105000D03*
D14*
X165735000Y-75565000D03*
D19*
X45710000Y-45695000D03*
D20*
X50810000Y-48285000D03*
D55*
X42545000Y-32035000D03*
D56*
X42545000Y-26035000D03*
D57*
X37845000Y-29035000D03*
D34*
X101200000Y-121285000D03*
D35*
X103270000Y-122555000D03*
X101200000Y-123825000D03*
D13*
X97155000Y-109220000D03*
D14*
X97155000Y-111760000D03*
D13*
X56555000Y-46990000D03*
X61555000Y-46990000D03*
D21*
X171040000Y-136525000D03*
D22*
X168500000Y-136525000D03*
D13*
X88900000Y-116840000D03*
D14*
X88900000Y-119380000D03*
D32*
X81915000Y-80645000D03*
D33*
X84455000Y-80645000D03*
X86995000Y-80645000D03*
X89535000Y-80645000D03*
D13*
X192390000Y-127000000D03*
D14*
X194930000Y-127000000D03*
D13*
X211045000Y-83820000D03*
D14*
X213585000Y-83820000D03*
D45*
X216000000Y-61550000D03*
D46*
X216000000Y-59050000D03*
X216000000Y-56550000D03*
X216000000Y-54050000D03*
D47*
X205000000Y-63600000D03*
X205000000Y-52000000D03*
D13*
X47752000Y-82550000D03*
D14*
X50292000Y-82550000D03*
D21*
X166370000Y-46130000D03*
D22*
X166370000Y-43590000D03*
D25*
X180565000Y-129775000D03*
D40*
X179295000Y-131845000D03*
X178025000Y-129775000D03*
D45*
X162883300Y-99440000D03*
D46*
X162883300Y-96940000D03*
X162883300Y-94440000D03*
X162883300Y-91940000D03*
D47*
X151883300Y-101490000D03*
X151883300Y-89890000D03*
D30*
X151115000Y-38110000D03*
D31*
X151115000Y-40650000D03*
X151115000Y-43190000D03*
X151115000Y-45730000D03*
X158735000Y-45730000D03*
X158735000Y-43190000D03*
X158735000Y-40650000D03*
X158735000Y-38110000D03*
D13*
X132080000Y-74070000D03*
D14*
X132080000Y-71530000D03*
D34*
X55530000Y-116840000D03*
D39*
X53460000Y-115570000D03*
X55530000Y-114300000D03*
D15*
X178350000Y-32805000D03*
X177800000Y-27305000D03*
X183300000Y-27305000D03*
D16*
X182750000Y-32805000D03*
D17*
X205750000Y-80025000D03*
D18*
X208290000Y-80025000D03*
X210830000Y-80025000D03*
X213370000Y-80025000D03*
X213370000Y-72405000D03*
X210830000Y-72405000D03*
X208290000Y-72405000D03*
X205750000Y-72405000D03*
D34*
X168960000Y-129540000D03*
D35*
X171030000Y-130810000D03*
X168960000Y-132080000D03*
D13*
X130175000Y-132715000D03*
D14*
X127635000Y-132715000D03*
D25*
X186690000Y-70885000D03*
D26*
X187960000Y-68815000D03*
X189230000Y-70885000D03*
D32*
X158975000Y-113030000D03*
D33*
X161515000Y-113030000D03*
X164055000Y-113030000D03*
D13*
X188370000Y-63500000D03*
D14*
X185830000Y-63500000D03*
D13*
X162375000Y-128905000D03*
D14*
X164915000Y-128905000D03*
D13*
X140560000Y-132715000D03*
D14*
X143100000Y-132715000D03*
D13*
X172085000Y-37465000D03*
X172085000Y-42465000D03*
D29*
X77470000Y-74950000D03*
D14*
X80010000Y-74950000D03*
X82550000Y-74950000D03*
X85090000Y-74950000D03*
X87630000Y-74950000D03*
X90170000Y-74950000D03*
X92710000Y-74950000D03*
X95250000Y-74950000D03*
X97790000Y-74950000D03*
X100330000Y-74950000D03*
X102870000Y-74950000D03*
X105410000Y-74950000D03*
X107950000Y-74950000D03*
X110490000Y-74950000D03*
X113030000Y-74950000D03*
X115570000Y-74950000D03*
X118110000Y-74950000D03*
X120650000Y-74950000D03*
X123190000Y-74950000D03*
X125730000Y-74950000D03*
X125730000Y-57150000D03*
X123190000Y-57150000D03*
X120650000Y-57150000D03*
X118110000Y-57150000D03*
X115570000Y-57150000D03*
X113030000Y-57150000D03*
X110490000Y-57150000D03*
X107950000Y-57150000D03*
X105410000Y-57150000D03*
X102870000Y-57150000D03*
X100330000Y-57150000D03*
X97790000Y-57150000D03*
X95250000Y-57150000D03*
X92710000Y-57150000D03*
X90170000Y-57150000D03*
X87630000Y-57150000D03*
X85090000Y-57150000D03*
X82550000Y-57150000D03*
X80010000Y-57150000D03*
X77470000Y-57150000D03*
D34*
X114060000Y-109855000D03*
D35*
X116130000Y-111125000D03*
X114060000Y-112395000D03*
D13*
X112395000Y-129540000D03*
D14*
X114935000Y-129540000D03*
D13*
X202550000Y-109220000D03*
D14*
X205090000Y-109220000D03*
D34*
X149460000Y-125015000D03*
D35*
X151530000Y-126285000D03*
X149460000Y-127555000D03*
D25*
X179705000Y-66440000D03*
D26*
X180975000Y-64370000D03*
X182245000Y-66440000D03*
D21*
X60325000Y-116840000D03*
D22*
X60325000Y-114300000D03*
D32*
X88900000Y-51040000D03*
D33*
X91440000Y-51040000D03*
X93980000Y-51040000D03*
X96520000Y-51040000D03*
X99060000Y-51040000D03*
X101600000Y-51040000D03*
D27*
X67215000Y-139065000D03*
D28*
X69215000Y-139065000D03*
D13*
X85725000Y-132080000D03*
D14*
X83185000Y-132080000D03*
D58*
X33827300Y-56515000D03*
D59*
X38827300Y-56515000D03*
D13*
X186280000Y-135030000D03*
D14*
X186280000Y-132490000D03*
D60*
X108585000Y-40005000D03*
X106585000Y-40005000D03*
D61*
X88900000Y-71485000D03*
X88900000Y-69485000D03*
D62*
X118805000Y-40265000D03*
X118805000Y-41215000D03*
X118805000Y-42165000D03*
X116205000Y-42165000D03*
X116205000Y-40265000D03*
D63*
X81915000Y-65807500D03*
X81915000Y-63732500D03*
D64*
X84455000Y-70485000D03*
X86455000Y-70485000D03*
D65*
X113345000Y-45205000D03*
X111445000Y-45205000D03*
X112395000Y-42805000D03*
D66*
X75885000Y-62435000D03*
X77785000Y-62435000D03*
X76835000Y-65835000D03*
D67*
X84455000Y-61852500D03*
X85725000Y-61852500D03*
X86995000Y-61852500D03*
X88265000Y-61852500D03*
X88265000Y-67302500D03*
X86995000Y-67302500D03*
X85725000Y-67302500D03*
X84455000Y-67302500D03*
D64*
X111284000Y-39243000D03*
X113284000Y-39243000D03*
%LPD*%
M02*
