G04 #@! TF.GenerationSoftware,KiCad,Pcbnew,8.0.8*
G04 #@! TF.CreationDate,2025-03-23T17:19:21+09:00*
G04 #@! TF.ProjectId,mainBorad,6d61696e-426f-4726-9164-2e6b69636164,rev?*
G04 #@! TF.SameCoordinates,Original*
G04 #@! TF.FileFunction,Profile,NP*
%FSLAX46Y46*%
G04 Gerber Fmt 4.6, Leading zero omitted, Abs format (unit mm)*
G04 Created by KiCad (PCBNEW 8.0.8) date 2025-03-23 17:19:21*
%MOMM*%
%LPD*%
G01*
G04 APERTURE LIST*
G04 #@! TA.AperFunction,Profile*
%ADD10C,0.050000*%
G04 #@! TD*
G04 APERTURE END LIST*
D10*
X30600000Y-82000000D02*
G75*
G02*
X27400000Y-82000000I-1600000J0D01*
G01*
X27400000Y-82000000D02*
G75*
G02*
X30600000Y-82000000I1600000J0D01*
G01*
X221600000Y-146000000D02*
G75*
G02*
X218400000Y-146000000I-1600000J0D01*
G01*
X218400000Y-146000000D02*
G75*
G02*
X221600000Y-146000000I1600000J0D01*
G01*
X221600000Y-24000000D02*
G75*
G02*
X218400000Y-24000000I-1600000J0D01*
G01*
X218400000Y-24000000D02*
G75*
G02*
X221600000Y-24000000I1600000J0D01*
G01*
X129600000Y-24000000D02*
G75*
G02*
X126400000Y-24000000I-1600000J0D01*
G01*
X126400000Y-24000000D02*
G75*
G02*
X129600000Y-24000000I1600000J0D01*
G01*
X24000000Y-20270000D02*
X224000000Y-20270000D01*
X224000000Y-150585000D01*
X24000000Y-150585000D01*
X24000000Y-20270000D01*
X129600000Y-146000000D02*
G75*
G02*
X126400000Y-146000000I-1600000J0D01*
G01*
X126400000Y-146000000D02*
G75*
G02*
X129600000Y-146000000I1600000J0D01*
G01*
X30600000Y-24000000D02*
G75*
G02*
X27400000Y-24000000I-1600000J0D01*
G01*
X27400000Y-24000000D02*
G75*
G02*
X30600000Y-24000000I1600000J0D01*
G01*
X221600000Y-82000000D02*
G75*
G02*
X218400000Y-82000000I-1600000J0D01*
G01*
X218400000Y-82000000D02*
G75*
G02*
X221600000Y-82000000I1600000J0D01*
G01*
X129600000Y-82000000D02*
G75*
G02*
X126400000Y-82000000I-1600000J0D01*
G01*
X126400000Y-82000000D02*
G75*
G02*
X129600000Y-82000000I1600000J0D01*
G01*
X30600000Y-146000000D02*
G75*
G02*
X27400000Y-146000000I-1600000J0D01*
G01*
X27400000Y-146000000D02*
G75*
G02*
X30600000Y-146000000I1600000J0D01*
G01*
M02*
