%TF.GenerationSoftware,KiCad,Pcbnew,8.0.8*%
%TF.CreationDate,2025-03-23T17:19:28+09:00*%
%TF.ProjectId,mainBorad,6d61696e-426f-4726-9164-2e6b69636164,rev?*%
%TF.SameCoordinates,Original*%
%TF.FileFunction,Drillmap*%
%TF.FilePolarity,Positive*%
%FSLAX45Y45*%
G04 Gerber Fmt 4.5, Leading zero omitted, Abs format (unit mm)*
G04 Created by KiCad (PCBNEW 8.0.8) date 2025-03-23 17:19:28*
%MOMM*%
%LPD*%
G01*
G04 APERTURE LIST*
%ADD10C,0.050000*%
%ADD11C,0.200000*%
%ADD12C,0.350000*%
G04 APERTURE END LIST*
D10*
X3060000Y-8200000D02*
G75*
G02*
X2740000Y-8200000I-160000J0D01*
G01*
X2740000Y-8200000D02*
G75*
G02*
X3060000Y-8200000I160000J0D01*
G01*
X22160000Y-14600000D02*
G75*
G02*
X21840000Y-14600000I-160000J0D01*
G01*
X21840000Y-14600000D02*
G75*
G02*
X22160000Y-14600000I160000J0D01*
G01*
X22160000Y-2400000D02*
G75*
G02*
X21840000Y-2400000I-160000J0D01*
G01*
X21840000Y-2400000D02*
G75*
G02*
X22160000Y-2400000I160000J0D01*
G01*
X12960000Y-2400000D02*
G75*
G02*
X12640000Y-2400000I-160000J0D01*
G01*
X12640000Y-2400000D02*
G75*
G02*
X12960000Y-2400000I160000J0D01*
G01*
X2400000Y-2027000D02*
X22400000Y-2027000D01*
X22400000Y-15058500D01*
X2400000Y-15058500D01*
X2400000Y-2027000D01*
X12960000Y-14600000D02*
G75*
G02*
X12640000Y-14600000I-160000J0D01*
G01*
X12640000Y-14600000D02*
G75*
G02*
X12960000Y-14600000I160000J0D01*
G01*
X3060000Y-2400000D02*
G75*
G02*
X2740000Y-2400000I-160000J0D01*
G01*
X2740000Y-2400000D02*
G75*
G02*
X3060000Y-2400000I160000J0D01*
G01*
X22160000Y-8200000D02*
G75*
G02*
X21840000Y-8200000I-160000J0D01*
G01*
X21840000Y-8200000D02*
G75*
G02*
X22160000Y-8200000I160000J0D01*
G01*
X12960000Y-8200000D02*
G75*
G02*
X12640000Y-8200000I-160000J0D01*
G01*
X12640000Y-8200000D02*
G75*
G02*
X12960000Y-8200000I160000J0D01*
G01*
X3060000Y-14600000D02*
G75*
G02*
X2740000Y-14600000I-160000J0D01*
G01*
X2740000Y-14600000D02*
G75*
G02*
X3060000Y-14600000I160000J0D01*
G01*
D11*
D12*
X2828500Y-6937000D02*
X3178500Y-7287000D01*
X3178500Y-6937000D02*
X2828500Y-7287000D01*
D11*
X2658277Y-15372484D02*
X2658277Y-15172484D01*
X2658277Y-15172484D02*
X2705896Y-15172484D01*
X2705896Y-15172484D02*
X2734467Y-15182008D01*
X2734467Y-15182008D02*
X2753515Y-15201055D01*
X2753515Y-15201055D02*
X2763039Y-15220103D01*
X2763039Y-15220103D02*
X2772563Y-15258198D01*
X2772563Y-15258198D02*
X2772563Y-15286769D01*
X2772563Y-15286769D02*
X2763039Y-15324865D01*
X2763039Y-15324865D02*
X2753515Y-15343912D01*
X2753515Y-15343912D02*
X2734467Y-15362960D01*
X2734467Y-15362960D02*
X2705896Y-15372484D01*
X2705896Y-15372484D02*
X2658277Y-15372484D01*
X2858277Y-15372484D02*
X2858277Y-15239150D01*
X2858277Y-15277246D02*
X2867801Y-15258198D01*
X2867801Y-15258198D02*
X2877324Y-15248674D01*
X2877324Y-15248674D02*
X2896372Y-15239150D01*
X2896372Y-15239150D02*
X2915420Y-15239150D01*
X2982086Y-15372484D02*
X2982086Y-15239150D01*
X2982086Y-15172484D02*
X2972562Y-15182008D01*
X2972562Y-15182008D02*
X2982086Y-15191531D01*
X2982086Y-15191531D02*
X2991610Y-15182008D01*
X2991610Y-15182008D02*
X2982086Y-15172484D01*
X2982086Y-15172484D02*
X2982086Y-15191531D01*
X3105896Y-15372484D02*
X3086848Y-15362960D01*
X3086848Y-15362960D02*
X3077324Y-15343912D01*
X3077324Y-15343912D02*
X3077324Y-15172484D01*
X3210658Y-15372484D02*
X3191610Y-15362960D01*
X3191610Y-15362960D02*
X3182086Y-15343912D01*
X3182086Y-15343912D02*
X3182086Y-15172484D01*
X3439229Y-15372484D02*
X3439229Y-15172484D01*
X3439229Y-15172484D02*
X3505896Y-15315341D01*
X3505896Y-15315341D02*
X3572562Y-15172484D01*
X3572562Y-15172484D02*
X3572562Y-15372484D01*
X3753515Y-15372484D02*
X3753515Y-15267722D01*
X3753515Y-15267722D02*
X3743991Y-15248674D01*
X3743991Y-15248674D02*
X3724943Y-15239150D01*
X3724943Y-15239150D02*
X3686848Y-15239150D01*
X3686848Y-15239150D02*
X3667801Y-15248674D01*
X3753515Y-15362960D02*
X3734467Y-15372484D01*
X3734467Y-15372484D02*
X3686848Y-15372484D01*
X3686848Y-15372484D02*
X3667801Y-15362960D01*
X3667801Y-15362960D02*
X3658277Y-15343912D01*
X3658277Y-15343912D02*
X3658277Y-15324865D01*
X3658277Y-15324865D02*
X3667801Y-15305817D01*
X3667801Y-15305817D02*
X3686848Y-15296293D01*
X3686848Y-15296293D02*
X3734467Y-15296293D01*
X3734467Y-15296293D02*
X3753515Y-15286769D01*
X3848753Y-15239150D02*
X3848753Y-15439150D01*
X3848753Y-15248674D02*
X3867801Y-15239150D01*
X3867801Y-15239150D02*
X3905896Y-15239150D01*
X3905896Y-15239150D02*
X3924943Y-15248674D01*
X3924943Y-15248674D02*
X3934467Y-15258198D01*
X3934467Y-15258198D02*
X3943991Y-15277246D01*
X3943991Y-15277246D02*
X3943991Y-15334388D01*
X3943991Y-15334388D02*
X3934467Y-15353436D01*
X3934467Y-15353436D02*
X3924943Y-15362960D01*
X3924943Y-15362960D02*
X3905896Y-15372484D01*
X3905896Y-15372484D02*
X3867801Y-15372484D01*
X3867801Y-15372484D02*
X3848753Y-15362960D01*
X4029705Y-15353436D02*
X4039229Y-15362960D01*
X4039229Y-15362960D02*
X4029705Y-15372484D01*
X4029705Y-15372484D02*
X4020182Y-15362960D01*
X4020182Y-15362960D02*
X4029705Y-15353436D01*
X4029705Y-15353436D02*
X4029705Y-15372484D01*
X4029705Y-15248674D02*
X4039229Y-15258198D01*
X4039229Y-15258198D02*
X4029705Y-15267722D01*
X4029705Y-15267722D02*
X4020182Y-15258198D01*
X4020182Y-15258198D02*
X4029705Y-15248674D01*
X4029705Y-15248674D02*
X4029705Y-15267722D01*
X2197500Y-15601000D02*
X2397500Y-15801000D01*
X2397500Y-15601000D02*
X2197500Y-15801000D01*
X2639229Y-15592484D02*
X2763039Y-15592484D01*
X2763039Y-15592484D02*
X2696372Y-15668674D01*
X2696372Y-15668674D02*
X2724944Y-15668674D01*
X2724944Y-15668674D02*
X2743991Y-15678198D01*
X2743991Y-15678198D02*
X2753515Y-15687722D01*
X2753515Y-15687722D02*
X2763039Y-15706769D01*
X2763039Y-15706769D02*
X2763039Y-15754388D01*
X2763039Y-15754388D02*
X2753515Y-15773436D01*
X2753515Y-15773436D02*
X2743991Y-15782960D01*
X2743991Y-15782960D02*
X2724944Y-15792484D01*
X2724944Y-15792484D02*
X2667801Y-15792484D01*
X2667801Y-15792484D02*
X2648753Y-15782960D01*
X2648753Y-15782960D02*
X2639229Y-15773436D01*
X2848753Y-15773436D02*
X2858277Y-15782960D01*
X2858277Y-15782960D02*
X2848753Y-15792484D01*
X2848753Y-15792484D02*
X2839229Y-15782960D01*
X2839229Y-15782960D02*
X2848753Y-15773436D01*
X2848753Y-15773436D02*
X2848753Y-15792484D01*
X3039229Y-15592484D02*
X2943991Y-15592484D01*
X2943991Y-15592484D02*
X2934467Y-15687722D01*
X2934467Y-15687722D02*
X2943991Y-15678198D01*
X2943991Y-15678198D02*
X2963039Y-15668674D01*
X2963039Y-15668674D02*
X3010658Y-15668674D01*
X3010658Y-15668674D02*
X3029705Y-15678198D01*
X3029705Y-15678198D02*
X3039229Y-15687722D01*
X3039229Y-15687722D02*
X3048753Y-15706769D01*
X3048753Y-15706769D02*
X3048753Y-15754388D01*
X3048753Y-15754388D02*
X3039229Y-15773436D01*
X3039229Y-15773436D02*
X3029705Y-15782960D01*
X3029705Y-15782960D02*
X3010658Y-15792484D01*
X3010658Y-15792484D02*
X2963039Y-15792484D01*
X2963039Y-15792484D02*
X2943991Y-15782960D01*
X2943991Y-15782960D02*
X2934467Y-15773436D01*
X3172562Y-15592484D02*
X3191610Y-15592484D01*
X3191610Y-15592484D02*
X3210658Y-15602008D01*
X3210658Y-15602008D02*
X3220182Y-15611531D01*
X3220182Y-15611531D02*
X3229705Y-15630579D01*
X3229705Y-15630579D02*
X3239229Y-15668674D01*
X3239229Y-15668674D02*
X3239229Y-15716293D01*
X3239229Y-15716293D02*
X3229705Y-15754388D01*
X3229705Y-15754388D02*
X3220182Y-15773436D01*
X3220182Y-15773436D02*
X3210658Y-15782960D01*
X3210658Y-15782960D02*
X3191610Y-15792484D01*
X3191610Y-15792484D02*
X3172562Y-15792484D01*
X3172562Y-15792484D02*
X3153515Y-15782960D01*
X3153515Y-15782960D02*
X3143991Y-15773436D01*
X3143991Y-15773436D02*
X3134467Y-15754388D01*
X3134467Y-15754388D02*
X3124943Y-15716293D01*
X3124943Y-15716293D02*
X3124943Y-15668674D01*
X3124943Y-15668674D02*
X3134467Y-15630579D01*
X3134467Y-15630579D02*
X3143991Y-15611531D01*
X3143991Y-15611531D02*
X3153515Y-15602008D01*
X3153515Y-15602008D02*
X3172562Y-15592484D01*
X3363039Y-15592484D02*
X3382086Y-15592484D01*
X3382086Y-15592484D02*
X3401134Y-15602008D01*
X3401134Y-15602008D02*
X3410658Y-15611531D01*
X3410658Y-15611531D02*
X3420182Y-15630579D01*
X3420182Y-15630579D02*
X3429705Y-15668674D01*
X3429705Y-15668674D02*
X3429705Y-15716293D01*
X3429705Y-15716293D02*
X3420182Y-15754388D01*
X3420182Y-15754388D02*
X3410658Y-15773436D01*
X3410658Y-15773436D02*
X3401134Y-15782960D01*
X3401134Y-15782960D02*
X3382086Y-15792484D01*
X3382086Y-15792484D02*
X3363039Y-15792484D01*
X3363039Y-15792484D02*
X3343991Y-15782960D01*
X3343991Y-15782960D02*
X3334467Y-15773436D01*
X3334467Y-15773436D02*
X3324943Y-15754388D01*
X3324943Y-15754388D02*
X3315420Y-15716293D01*
X3315420Y-15716293D02*
X3315420Y-15668674D01*
X3315420Y-15668674D02*
X3324943Y-15630579D01*
X3324943Y-15630579D02*
X3334467Y-15611531D01*
X3334467Y-15611531D02*
X3343991Y-15602008D01*
X3343991Y-15602008D02*
X3363039Y-15592484D01*
X3515420Y-15792484D02*
X3515420Y-15659150D01*
X3515420Y-15678198D02*
X3524943Y-15668674D01*
X3524943Y-15668674D02*
X3543991Y-15659150D01*
X3543991Y-15659150D02*
X3572563Y-15659150D01*
X3572563Y-15659150D02*
X3591610Y-15668674D01*
X3591610Y-15668674D02*
X3601134Y-15687722D01*
X3601134Y-15687722D02*
X3601134Y-15792484D01*
X3601134Y-15687722D02*
X3610658Y-15668674D01*
X3610658Y-15668674D02*
X3629705Y-15659150D01*
X3629705Y-15659150D02*
X3658277Y-15659150D01*
X3658277Y-15659150D02*
X3677324Y-15668674D01*
X3677324Y-15668674D02*
X3686848Y-15687722D01*
X3686848Y-15687722D02*
X3686848Y-15792484D01*
X3782086Y-15792484D02*
X3782086Y-15659150D01*
X3782086Y-15678198D02*
X3791610Y-15668674D01*
X3791610Y-15668674D02*
X3810658Y-15659150D01*
X3810658Y-15659150D02*
X3839229Y-15659150D01*
X3839229Y-15659150D02*
X3858277Y-15668674D01*
X3858277Y-15668674D02*
X3867801Y-15687722D01*
X3867801Y-15687722D02*
X3867801Y-15792484D01*
X3867801Y-15687722D02*
X3877324Y-15668674D01*
X3877324Y-15668674D02*
X3896372Y-15659150D01*
X3896372Y-15659150D02*
X3924943Y-15659150D01*
X3924943Y-15659150D02*
X3943991Y-15668674D01*
X3943991Y-15668674D02*
X3953515Y-15687722D01*
X3953515Y-15687722D02*
X3953515Y-15792484D01*
X4343991Y-15582960D02*
X4172563Y-15840103D01*
X4601134Y-15592484D02*
X4620182Y-15592484D01*
X4620182Y-15592484D02*
X4639229Y-15602008D01*
X4639229Y-15602008D02*
X4648753Y-15611531D01*
X4648753Y-15611531D02*
X4658277Y-15630579D01*
X4658277Y-15630579D02*
X4667801Y-15668674D01*
X4667801Y-15668674D02*
X4667801Y-15716293D01*
X4667801Y-15716293D02*
X4658277Y-15754388D01*
X4658277Y-15754388D02*
X4648753Y-15773436D01*
X4648753Y-15773436D02*
X4639229Y-15782960D01*
X4639229Y-15782960D02*
X4620182Y-15792484D01*
X4620182Y-15792484D02*
X4601134Y-15792484D01*
X4601134Y-15792484D02*
X4582087Y-15782960D01*
X4582087Y-15782960D02*
X4572563Y-15773436D01*
X4572563Y-15773436D02*
X4563039Y-15754388D01*
X4563039Y-15754388D02*
X4553515Y-15716293D01*
X4553515Y-15716293D02*
X4553515Y-15668674D01*
X4553515Y-15668674D02*
X4563039Y-15630579D01*
X4563039Y-15630579D02*
X4572563Y-15611531D01*
X4572563Y-15611531D02*
X4582087Y-15602008D01*
X4582087Y-15602008D02*
X4601134Y-15592484D01*
X4753515Y-15773436D02*
X4763039Y-15782960D01*
X4763039Y-15782960D02*
X4753515Y-15792484D01*
X4753515Y-15792484D02*
X4743991Y-15782960D01*
X4743991Y-15782960D02*
X4753515Y-15773436D01*
X4753515Y-15773436D02*
X4753515Y-15792484D01*
X4953515Y-15792484D02*
X4839229Y-15792484D01*
X4896372Y-15792484D02*
X4896372Y-15592484D01*
X4896372Y-15592484D02*
X4877325Y-15621055D01*
X4877325Y-15621055D02*
X4858277Y-15640103D01*
X4858277Y-15640103D02*
X4839229Y-15649627D01*
X5020182Y-15592484D02*
X5143991Y-15592484D01*
X5143991Y-15592484D02*
X5077325Y-15668674D01*
X5077325Y-15668674D02*
X5105896Y-15668674D01*
X5105896Y-15668674D02*
X5124944Y-15678198D01*
X5124944Y-15678198D02*
X5134468Y-15687722D01*
X5134468Y-15687722D02*
X5143991Y-15706769D01*
X5143991Y-15706769D02*
X5143991Y-15754388D01*
X5143991Y-15754388D02*
X5134468Y-15773436D01*
X5134468Y-15773436D02*
X5124944Y-15782960D01*
X5124944Y-15782960D02*
X5105896Y-15792484D01*
X5105896Y-15792484D02*
X5048753Y-15792484D01*
X5048753Y-15792484D02*
X5029706Y-15782960D01*
X5029706Y-15782960D02*
X5020182Y-15773436D01*
X5210658Y-15592484D02*
X5343991Y-15592484D01*
X5343991Y-15592484D02*
X5258277Y-15792484D01*
X5448753Y-15678198D02*
X5429706Y-15668674D01*
X5429706Y-15668674D02*
X5420182Y-15659150D01*
X5420182Y-15659150D02*
X5410658Y-15640103D01*
X5410658Y-15640103D02*
X5410658Y-15630579D01*
X5410658Y-15630579D02*
X5420182Y-15611531D01*
X5420182Y-15611531D02*
X5429706Y-15602008D01*
X5429706Y-15602008D02*
X5448753Y-15592484D01*
X5448753Y-15592484D02*
X5486849Y-15592484D01*
X5486849Y-15592484D02*
X5505896Y-15602008D01*
X5505896Y-15602008D02*
X5515420Y-15611531D01*
X5515420Y-15611531D02*
X5524944Y-15630579D01*
X5524944Y-15630579D02*
X5524944Y-15640103D01*
X5524944Y-15640103D02*
X5515420Y-15659150D01*
X5515420Y-15659150D02*
X5505896Y-15668674D01*
X5505896Y-15668674D02*
X5486849Y-15678198D01*
X5486849Y-15678198D02*
X5448753Y-15678198D01*
X5448753Y-15678198D02*
X5429706Y-15687722D01*
X5429706Y-15687722D02*
X5420182Y-15697246D01*
X5420182Y-15697246D02*
X5410658Y-15716293D01*
X5410658Y-15716293D02*
X5410658Y-15754388D01*
X5410658Y-15754388D02*
X5420182Y-15773436D01*
X5420182Y-15773436D02*
X5429706Y-15782960D01*
X5429706Y-15782960D02*
X5448753Y-15792484D01*
X5448753Y-15792484D02*
X5486849Y-15792484D01*
X5486849Y-15792484D02*
X5505896Y-15782960D01*
X5505896Y-15782960D02*
X5515420Y-15773436D01*
X5515420Y-15773436D02*
X5524944Y-15754388D01*
X5524944Y-15754388D02*
X5524944Y-15716293D01*
X5524944Y-15716293D02*
X5515420Y-15697246D01*
X5515420Y-15697246D02*
X5505896Y-15687722D01*
X5505896Y-15687722D02*
X5486849Y-15678198D01*
X5601134Y-15592484D02*
X5601134Y-15630579D01*
X5677325Y-15592484D02*
X5677325Y-15630579D01*
X5972563Y-15868674D02*
X5963039Y-15859150D01*
X5963039Y-15859150D02*
X5943991Y-15830579D01*
X5943991Y-15830579D02*
X5934468Y-15811531D01*
X5934468Y-15811531D02*
X5924944Y-15782960D01*
X5924944Y-15782960D02*
X5915420Y-15735341D01*
X5915420Y-15735341D02*
X5915420Y-15697246D01*
X5915420Y-15697246D02*
X5924944Y-15649627D01*
X5924944Y-15649627D02*
X5934468Y-15621055D01*
X5934468Y-15621055D02*
X5943991Y-15602008D01*
X5943991Y-15602008D02*
X5963039Y-15573436D01*
X5963039Y-15573436D02*
X5972563Y-15563912D01*
X6153515Y-15792484D02*
X6039229Y-15792484D01*
X6096372Y-15792484D02*
X6096372Y-15592484D01*
X6096372Y-15592484D02*
X6077325Y-15621055D01*
X6077325Y-15621055D02*
X6058277Y-15640103D01*
X6058277Y-15640103D02*
X6039229Y-15649627D01*
X6391610Y-15792484D02*
X6391610Y-15592484D01*
X6477325Y-15792484D02*
X6477325Y-15687722D01*
X6477325Y-15687722D02*
X6467801Y-15668674D01*
X6467801Y-15668674D02*
X6448753Y-15659150D01*
X6448753Y-15659150D02*
X6420182Y-15659150D01*
X6420182Y-15659150D02*
X6401134Y-15668674D01*
X6401134Y-15668674D02*
X6391610Y-15678198D01*
X6601134Y-15792484D02*
X6582087Y-15782960D01*
X6582087Y-15782960D02*
X6572563Y-15773436D01*
X6572563Y-15773436D02*
X6563039Y-15754388D01*
X6563039Y-15754388D02*
X6563039Y-15697246D01*
X6563039Y-15697246D02*
X6572563Y-15678198D01*
X6572563Y-15678198D02*
X6582087Y-15668674D01*
X6582087Y-15668674D02*
X6601134Y-15659150D01*
X6601134Y-15659150D02*
X6629706Y-15659150D01*
X6629706Y-15659150D02*
X6648753Y-15668674D01*
X6648753Y-15668674D02*
X6658277Y-15678198D01*
X6658277Y-15678198D02*
X6667801Y-15697246D01*
X6667801Y-15697246D02*
X6667801Y-15754388D01*
X6667801Y-15754388D02*
X6658277Y-15773436D01*
X6658277Y-15773436D02*
X6648753Y-15782960D01*
X6648753Y-15782960D02*
X6629706Y-15792484D01*
X6629706Y-15792484D02*
X6601134Y-15792484D01*
X6782087Y-15792484D02*
X6763039Y-15782960D01*
X6763039Y-15782960D02*
X6753515Y-15763912D01*
X6753515Y-15763912D02*
X6753515Y-15592484D01*
X6934468Y-15782960D02*
X6915420Y-15792484D01*
X6915420Y-15792484D02*
X6877325Y-15792484D01*
X6877325Y-15792484D02*
X6858277Y-15782960D01*
X6858277Y-15782960D02*
X6848753Y-15763912D01*
X6848753Y-15763912D02*
X6848753Y-15687722D01*
X6848753Y-15687722D02*
X6858277Y-15668674D01*
X6858277Y-15668674D02*
X6877325Y-15659150D01*
X6877325Y-15659150D02*
X6915420Y-15659150D01*
X6915420Y-15659150D02*
X6934468Y-15668674D01*
X6934468Y-15668674D02*
X6943991Y-15687722D01*
X6943991Y-15687722D02*
X6943991Y-15706769D01*
X6943991Y-15706769D02*
X6848753Y-15725817D01*
X7010658Y-15868674D02*
X7020182Y-15859150D01*
X7020182Y-15859150D02*
X7039230Y-15830579D01*
X7039230Y-15830579D02*
X7048753Y-15811531D01*
X7048753Y-15811531D02*
X7058277Y-15782960D01*
X7058277Y-15782960D02*
X7067801Y-15735341D01*
X7067801Y-15735341D02*
X7067801Y-15697246D01*
X7067801Y-15697246D02*
X7058277Y-15649627D01*
X7058277Y-15649627D02*
X7048753Y-15621055D01*
X7048753Y-15621055D02*
X7039230Y-15602008D01*
X7039230Y-15602008D02*
X7020182Y-15573436D01*
X7020182Y-15573436D02*
X7010658Y-15563912D01*
X7372563Y-15868674D02*
X7363039Y-15859150D01*
X7363039Y-15859150D02*
X7343991Y-15830579D01*
X7343991Y-15830579D02*
X7334468Y-15811531D01*
X7334468Y-15811531D02*
X7324944Y-15782960D01*
X7324944Y-15782960D02*
X7315420Y-15735341D01*
X7315420Y-15735341D02*
X7315420Y-15697246D01*
X7315420Y-15697246D02*
X7324944Y-15649627D01*
X7324944Y-15649627D02*
X7334468Y-15621055D01*
X7334468Y-15621055D02*
X7343991Y-15602008D01*
X7343991Y-15602008D02*
X7363039Y-15573436D01*
X7363039Y-15573436D02*
X7372563Y-15563912D01*
X7448753Y-15659150D02*
X7448753Y-15792484D01*
X7448753Y-15678198D02*
X7458277Y-15668674D01*
X7458277Y-15668674D02*
X7477325Y-15659150D01*
X7477325Y-15659150D02*
X7505896Y-15659150D01*
X7505896Y-15659150D02*
X7524944Y-15668674D01*
X7524944Y-15668674D02*
X7534468Y-15687722D01*
X7534468Y-15687722D02*
X7534468Y-15792484D01*
X7658277Y-15792484D02*
X7639230Y-15782960D01*
X7639230Y-15782960D02*
X7629706Y-15773436D01*
X7629706Y-15773436D02*
X7620182Y-15754388D01*
X7620182Y-15754388D02*
X7620182Y-15697246D01*
X7620182Y-15697246D02*
X7629706Y-15678198D01*
X7629706Y-15678198D02*
X7639230Y-15668674D01*
X7639230Y-15668674D02*
X7658277Y-15659150D01*
X7658277Y-15659150D02*
X7686849Y-15659150D01*
X7686849Y-15659150D02*
X7705896Y-15668674D01*
X7705896Y-15668674D02*
X7715420Y-15678198D01*
X7715420Y-15678198D02*
X7724944Y-15697246D01*
X7724944Y-15697246D02*
X7724944Y-15754388D01*
X7724944Y-15754388D02*
X7715420Y-15773436D01*
X7715420Y-15773436D02*
X7705896Y-15782960D01*
X7705896Y-15782960D02*
X7686849Y-15792484D01*
X7686849Y-15792484D02*
X7658277Y-15792484D01*
X7782087Y-15659150D02*
X7858277Y-15659150D01*
X7810658Y-15592484D02*
X7810658Y-15763912D01*
X7810658Y-15763912D02*
X7820182Y-15782960D01*
X7820182Y-15782960D02*
X7839230Y-15792484D01*
X7839230Y-15792484D02*
X7858277Y-15792484D01*
X8077325Y-15659150D02*
X8077325Y-15859150D01*
X8077325Y-15668674D02*
X8096372Y-15659150D01*
X8096372Y-15659150D02*
X8134468Y-15659150D01*
X8134468Y-15659150D02*
X8153515Y-15668674D01*
X8153515Y-15668674D02*
X8163039Y-15678198D01*
X8163039Y-15678198D02*
X8172563Y-15697246D01*
X8172563Y-15697246D02*
X8172563Y-15754388D01*
X8172563Y-15754388D02*
X8163039Y-15773436D01*
X8163039Y-15773436D02*
X8153515Y-15782960D01*
X8153515Y-15782960D02*
X8134468Y-15792484D01*
X8134468Y-15792484D02*
X8096372Y-15792484D01*
X8096372Y-15792484D02*
X8077325Y-15782960D01*
X8286849Y-15792484D02*
X8267801Y-15782960D01*
X8267801Y-15782960D02*
X8258277Y-15763912D01*
X8258277Y-15763912D02*
X8258277Y-15592484D01*
X8448754Y-15792484D02*
X8448754Y-15687722D01*
X8448754Y-15687722D02*
X8439230Y-15668674D01*
X8439230Y-15668674D02*
X8420182Y-15659150D01*
X8420182Y-15659150D02*
X8382087Y-15659150D01*
X8382087Y-15659150D02*
X8363039Y-15668674D01*
X8448754Y-15782960D02*
X8429706Y-15792484D01*
X8429706Y-15792484D02*
X8382087Y-15792484D01*
X8382087Y-15792484D02*
X8363039Y-15782960D01*
X8363039Y-15782960D02*
X8353515Y-15763912D01*
X8353515Y-15763912D02*
X8353515Y-15744865D01*
X8353515Y-15744865D02*
X8363039Y-15725817D01*
X8363039Y-15725817D02*
X8382087Y-15716293D01*
X8382087Y-15716293D02*
X8429706Y-15716293D01*
X8429706Y-15716293D02*
X8448754Y-15706769D01*
X8515420Y-15659150D02*
X8591611Y-15659150D01*
X8543992Y-15592484D02*
X8543992Y-15763912D01*
X8543992Y-15763912D02*
X8553515Y-15782960D01*
X8553515Y-15782960D02*
X8572563Y-15792484D01*
X8572563Y-15792484D02*
X8591611Y-15792484D01*
X8734468Y-15782960D02*
X8715420Y-15792484D01*
X8715420Y-15792484D02*
X8677325Y-15792484D01*
X8677325Y-15792484D02*
X8658277Y-15782960D01*
X8658277Y-15782960D02*
X8648754Y-15763912D01*
X8648754Y-15763912D02*
X8648754Y-15687722D01*
X8648754Y-15687722D02*
X8658277Y-15668674D01*
X8658277Y-15668674D02*
X8677325Y-15659150D01*
X8677325Y-15659150D02*
X8715420Y-15659150D01*
X8715420Y-15659150D02*
X8734468Y-15668674D01*
X8734468Y-15668674D02*
X8743992Y-15687722D01*
X8743992Y-15687722D02*
X8743992Y-15706769D01*
X8743992Y-15706769D02*
X8648754Y-15725817D01*
X8915420Y-15792484D02*
X8915420Y-15592484D01*
X8915420Y-15782960D02*
X8896373Y-15792484D01*
X8896373Y-15792484D02*
X8858277Y-15792484D01*
X8858277Y-15792484D02*
X8839230Y-15782960D01*
X8839230Y-15782960D02*
X8829706Y-15773436D01*
X8829706Y-15773436D02*
X8820182Y-15754388D01*
X8820182Y-15754388D02*
X8820182Y-15697246D01*
X8820182Y-15697246D02*
X8829706Y-15678198D01*
X8829706Y-15678198D02*
X8839230Y-15668674D01*
X8839230Y-15668674D02*
X8858277Y-15659150D01*
X8858277Y-15659150D02*
X8896373Y-15659150D01*
X8896373Y-15659150D02*
X8915420Y-15668674D01*
X8991611Y-15868674D02*
X9001135Y-15859150D01*
X9001135Y-15859150D02*
X9020182Y-15830579D01*
X9020182Y-15830579D02*
X9029706Y-15811531D01*
X9029706Y-15811531D02*
X9039230Y-15782960D01*
X9039230Y-15782960D02*
X9048754Y-15735341D01*
X9048754Y-15735341D02*
X9048754Y-15697246D01*
X9048754Y-15697246D02*
X9039230Y-15649627D01*
X9039230Y-15649627D02*
X9029706Y-15621055D01*
X9029706Y-15621055D02*
X9020182Y-15602008D01*
X9020182Y-15602008D02*
X9001135Y-15573436D01*
X9001135Y-15573436D02*
X8991611Y-15563912D01*
M02*
