%TF.GenerationSoftware,KiCad,Pcbnew,9.0.3*%
%TF.CreationDate,2026-06-06T11:21:32+09:00*%
%TF.ProjectId,USBPD12VModule,55534250-4431-4325-964d-6f64756c652e,rev?*%
%TF.SameCoordinates,Original*%
%TF.FileFunction,Legend,Bot*%
%TF.FilePolarity,Positive*%
%FSLAX46Y46*%
G04 Gerber Fmt 4.6, Leading zero omitted, Abs format (unit mm)*
G04 Created by KiCad (PCBNEW 9.0.3) date 2026-06-06 11:21:32*
%MOMM*%
%LPD*%
G01*
G04 APERTURE LIST*
%ADD10C,0.200000*%
G04 APERTURE END LIST*
D10*
X114691219Y-58027673D02*
X115500742Y-58027673D01*
X115500742Y-58027673D02*
X115595980Y-58075292D01*
X115595980Y-58075292D02*
X115643600Y-58122911D01*
X115643600Y-58122911D02*
X115691219Y-58218149D01*
X115691219Y-58218149D02*
X115691219Y-58408625D01*
X115691219Y-58408625D02*
X115643600Y-58503863D01*
X115643600Y-58503863D02*
X115595980Y-58551482D01*
X115595980Y-58551482D02*
X115500742Y-58599101D01*
X115500742Y-58599101D02*
X114691219Y-58599101D01*
X115643600Y-59027673D02*
X115691219Y-59170530D01*
X115691219Y-59170530D02*
X115691219Y-59408625D01*
X115691219Y-59408625D02*
X115643600Y-59503863D01*
X115643600Y-59503863D02*
X115595980Y-59551482D01*
X115595980Y-59551482D02*
X115500742Y-59599101D01*
X115500742Y-59599101D02*
X115405504Y-59599101D01*
X115405504Y-59599101D02*
X115310266Y-59551482D01*
X115310266Y-59551482D02*
X115262647Y-59503863D01*
X115262647Y-59503863D02*
X115215028Y-59408625D01*
X115215028Y-59408625D02*
X115167409Y-59218149D01*
X115167409Y-59218149D02*
X115119790Y-59122911D01*
X115119790Y-59122911D02*
X115072171Y-59075292D01*
X115072171Y-59075292D02*
X114976933Y-59027673D01*
X114976933Y-59027673D02*
X114881695Y-59027673D01*
X114881695Y-59027673D02*
X114786457Y-59075292D01*
X114786457Y-59075292D02*
X114738838Y-59122911D01*
X114738838Y-59122911D02*
X114691219Y-59218149D01*
X114691219Y-59218149D02*
X114691219Y-59456244D01*
X114691219Y-59456244D02*
X114738838Y-59599101D01*
X115167409Y-60361006D02*
X115215028Y-60503863D01*
X115215028Y-60503863D02*
X115262647Y-60551482D01*
X115262647Y-60551482D02*
X115357885Y-60599101D01*
X115357885Y-60599101D02*
X115500742Y-60599101D01*
X115500742Y-60599101D02*
X115595980Y-60551482D01*
X115595980Y-60551482D02*
X115643600Y-60503863D01*
X115643600Y-60503863D02*
X115691219Y-60408625D01*
X115691219Y-60408625D02*
X115691219Y-60027673D01*
X115691219Y-60027673D02*
X114691219Y-60027673D01*
X114691219Y-60027673D02*
X114691219Y-60361006D01*
X114691219Y-60361006D02*
X114738838Y-60456244D01*
X114738838Y-60456244D02*
X114786457Y-60503863D01*
X114786457Y-60503863D02*
X114881695Y-60551482D01*
X114881695Y-60551482D02*
X114976933Y-60551482D01*
X114976933Y-60551482D02*
X115072171Y-60503863D01*
X115072171Y-60503863D02*
X115119790Y-60456244D01*
X115119790Y-60456244D02*
X115167409Y-60361006D01*
X115167409Y-60361006D02*
X115167409Y-60027673D01*
X115691219Y-61789578D02*
X114691219Y-61789578D01*
X114691219Y-61789578D02*
X114691219Y-62170530D01*
X114691219Y-62170530D02*
X114738838Y-62265768D01*
X114738838Y-62265768D02*
X114786457Y-62313387D01*
X114786457Y-62313387D02*
X114881695Y-62361006D01*
X114881695Y-62361006D02*
X115024552Y-62361006D01*
X115024552Y-62361006D02*
X115119790Y-62313387D01*
X115119790Y-62313387D02*
X115167409Y-62265768D01*
X115167409Y-62265768D02*
X115215028Y-62170530D01*
X115215028Y-62170530D02*
X115215028Y-61789578D01*
X115691219Y-62789578D02*
X114691219Y-62789578D01*
X114691219Y-62789578D02*
X114691219Y-63027673D01*
X114691219Y-63027673D02*
X114738838Y-63170530D01*
X114738838Y-63170530D02*
X114834076Y-63265768D01*
X114834076Y-63265768D02*
X114929314Y-63313387D01*
X114929314Y-63313387D02*
X115119790Y-63361006D01*
X115119790Y-63361006D02*
X115262647Y-63361006D01*
X115262647Y-63361006D02*
X115453123Y-63313387D01*
X115453123Y-63313387D02*
X115548361Y-63265768D01*
X115548361Y-63265768D02*
X115643600Y-63170530D01*
X115643600Y-63170530D02*
X115691219Y-63027673D01*
X115691219Y-63027673D02*
X115691219Y-62789578D01*
X115691219Y-64551483D02*
X114691219Y-64551483D01*
X114691219Y-64551483D02*
X115405504Y-64884816D01*
X115405504Y-64884816D02*
X114691219Y-65218149D01*
X114691219Y-65218149D02*
X115691219Y-65218149D01*
X115691219Y-65837197D02*
X115643600Y-65741959D01*
X115643600Y-65741959D02*
X115595980Y-65694340D01*
X115595980Y-65694340D02*
X115500742Y-65646721D01*
X115500742Y-65646721D02*
X115215028Y-65646721D01*
X115215028Y-65646721D02*
X115119790Y-65694340D01*
X115119790Y-65694340D02*
X115072171Y-65741959D01*
X115072171Y-65741959D02*
X115024552Y-65837197D01*
X115024552Y-65837197D02*
X115024552Y-65980054D01*
X115024552Y-65980054D02*
X115072171Y-66075292D01*
X115072171Y-66075292D02*
X115119790Y-66122911D01*
X115119790Y-66122911D02*
X115215028Y-66170530D01*
X115215028Y-66170530D02*
X115500742Y-66170530D01*
X115500742Y-66170530D02*
X115595980Y-66122911D01*
X115595980Y-66122911D02*
X115643600Y-66075292D01*
X115643600Y-66075292D02*
X115691219Y-65980054D01*
X115691219Y-65980054D02*
X115691219Y-65837197D01*
X115691219Y-67027673D02*
X114691219Y-67027673D01*
X115643600Y-67027673D02*
X115691219Y-66932435D01*
X115691219Y-66932435D02*
X115691219Y-66741959D01*
X115691219Y-66741959D02*
X115643600Y-66646721D01*
X115643600Y-66646721D02*
X115595980Y-66599102D01*
X115595980Y-66599102D02*
X115500742Y-66551483D01*
X115500742Y-66551483D02*
X115215028Y-66551483D01*
X115215028Y-66551483D02*
X115119790Y-66599102D01*
X115119790Y-66599102D02*
X115072171Y-66646721D01*
X115072171Y-66646721D02*
X115024552Y-66741959D01*
X115024552Y-66741959D02*
X115024552Y-66932435D01*
X115024552Y-66932435D02*
X115072171Y-67027673D01*
X115024552Y-67932435D02*
X115691219Y-67932435D01*
X115024552Y-67503864D02*
X115548361Y-67503864D01*
X115548361Y-67503864D02*
X115643600Y-67551483D01*
X115643600Y-67551483D02*
X115691219Y-67646721D01*
X115691219Y-67646721D02*
X115691219Y-67789578D01*
X115691219Y-67789578D02*
X115643600Y-67884816D01*
X115643600Y-67884816D02*
X115595980Y-67932435D01*
X115691219Y-68551483D02*
X115643600Y-68456245D01*
X115643600Y-68456245D02*
X115548361Y-68408626D01*
X115548361Y-68408626D02*
X114691219Y-68408626D01*
X115643600Y-69313388D02*
X115691219Y-69218150D01*
X115691219Y-69218150D02*
X115691219Y-69027674D01*
X115691219Y-69027674D02*
X115643600Y-68932436D01*
X115643600Y-68932436D02*
X115548361Y-68884817D01*
X115548361Y-68884817D02*
X115167409Y-68884817D01*
X115167409Y-68884817D02*
X115072171Y-68932436D01*
X115072171Y-68932436D02*
X115024552Y-69027674D01*
X115024552Y-69027674D02*
X115024552Y-69218150D01*
X115024552Y-69218150D02*
X115072171Y-69313388D01*
X115072171Y-69313388D02*
X115167409Y-69361007D01*
X115167409Y-69361007D02*
X115262647Y-69361007D01*
X115262647Y-69361007D02*
X115357885Y-68884817D01*
X114786457Y-70503865D02*
X114738838Y-70551484D01*
X114738838Y-70551484D02*
X114691219Y-70646722D01*
X114691219Y-70646722D02*
X114691219Y-70884817D01*
X114691219Y-70884817D02*
X114738838Y-70980055D01*
X114738838Y-70980055D02*
X114786457Y-71027674D01*
X114786457Y-71027674D02*
X114881695Y-71075293D01*
X114881695Y-71075293D02*
X114976933Y-71075293D01*
X114976933Y-71075293D02*
X115119790Y-71027674D01*
X115119790Y-71027674D02*
X115691219Y-70456246D01*
X115691219Y-70456246D02*
X115691219Y-71075293D01*
X114691219Y-71694341D02*
X114691219Y-71789579D01*
X114691219Y-71789579D02*
X114738838Y-71884817D01*
X114738838Y-71884817D02*
X114786457Y-71932436D01*
X114786457Y-71932436D02*
X114881695Y-71980055D01*
X114881695Y-71980055D02*
X115072171Y-72027674D01*
X115072171Y-72027674D02*
X115310266Y-72027674D01*
X115310266Y-72027674D02*
X115500742Y-71980055D01*
X115500742Y-71980055D02*
X115595980Y-71932436D01*
X115595980Y-71932436D02*
X115643600Y-71884817D01*
X115643600Y-71884817D02*
X115691219Y-71789579D01*
X115691219Y-71789579D02*
X115691219Y-71694341D01*
X115691219Y-71694341D02*
X115643600Y-71599103D01*
X115643600Y-71599103D02*
X115595980Y-71551484D01*
X115595980Y-71551484D02*
X115500742Y-71503865D01*
X115500742Y-71503865D02*
X115310266Y-71456246D01*
X115310266Y-71456246D02*
X115072171Y-71456246D01*
X115072171Y-71456246D02*
X114881695Y-71503865D01*
X114881695Y-71503865D02*
X114786457Y-71551484D01*
X114786457Y-71551484D02*
X114738838Y-71599103D01*
X114738838Y-71599103D02*
X114691219Y-71694341D01*
X114786457Y-72408627D02*
X114738838Y-72456246D01*
X114738838Y-72456246D02*
X114691219Y-72551484D01*
X114691219Y-72551484D02*
X114691219Y-72789579D01*
X114691219Y-72789579D02*
X114738838Y-72884817D01*
X114738838Y-72884817D02*
X114786457Y-72932436D01*
X114786457Y-72932436D02*
X114881695Y-72980055D01*
X114881695Y-72980055D02*
X114976933Y-72980055D01*
X114976933Y-72980055D02*
X115119790Y-72932436D01*
X115119790Y-72932436D02*
X115691219Y-72361008D01*
X115691219Y-72361008D02*
X115691219Y-72980055D01*
X114691219Y-73837198D02*
X114691219Y-73646722D01*
X114691219Y-73646722D02*
X114738838Y-73551484D01*
X114738838Y-73551484D02*
X114786457Y-73503865D01*
X114786457Y-73503865D02*
X114929314Y-73408627D01*
X114929314Y-73408627D02*
X115119790Y-73361008D01*
X115119790Y-73361008D02*
X115500742Y-73361008D01*
X115500742Y-73361008D02*
X115595980Y-73408627D01*
X115595980Y-73408627D02*
X115643600Y-73456246D01*
X115643600Y-73456246D02*
X115691219Y-73551484D01*
X115691219Y-73551484D02*
X115691219Y-73741960D01*
X115691219Y-73741960D02*
X115643600Y-73837198D01*
X115643600Y-73837198D02*
X115595980Y-73884817D01*
X115595980Y-73884817D02*
X115500742Y-73932436D01*
X115500742Y-73932436D02*
X115262647Y-73932436D01*
X115262647Y-73932436D02*
X115167409Y-73884817D01*
X115167409Y-73884817D02*
X115119790Y-73837198D01*
X115119790Y-73837198D02*
X115072171Y-73741960D01*
X115072171Y-73741960D02*
X115072171Y-73551484D01*
X115072171Y-73551484D02*
X115119790Y-73456246D01*
X115119790Y-73456246D02*
X115167409Y-73408627D01*
X115167409Y-73408627D02*
X115262647Y-73361008D01*
X114643600Y-75075293D02*
X115929314Y-74218151D01*
X114691219Y-75837198D02*
X114691219Y-75646722D01*
X114691219Y-75646722D02*
X114738838Y-75551484D01*
X114738838Y-75551484D02*
X114786457Y-75503865D01*
X114786457Y-75503865D02*
X114929314Y-75408627D01*
X114929314Y-75408627D02*
X115119790Y-75361008D01*
X115119790Y-75361008D02*
X115500742Y-75361008D01*
X115500742Y-75361008D02*
X115595980Y-75408627D01*
X115595980Y-75408627D02*
X115643600Y-75456246D01*
X115643600Y-75456246D02*
X115691219Y-75551484D01*
X115691219Y-75551484D02*
X115691219Y-75741960D01*
X115691219Y-75741960D02*
X115643600Y-75837198D01*
X115643600Y-75837198D02*
X115595980Y-75884817D01*
X115595980Y-75884817D02*
X115500742Y-75932436D01*
X115500742Y-75932436D02*
X115262647Y-75932436D01*
X115262647Y-75932436D02*
X115167409Y-75884817D01*
X115167409Y-75884817D02*
X115119790Y-75837198D01*
X115119790Y-75837198D02*
X115072171Y-75741960D01*
X115072171Y-75741960D02*
X115072171Y-75551484D01*
X115072171Y-75551484D02*
X115119790Y-75456246D01*
X115119790Y-75456246D02*
X115167409Y-75408627D01*
X115167409Y-75408627D02*
X115262647Y-75361008D01*
X114643600Y-77075293D02*
X115929314Y-76218151D01*
X114691219Y-77837198D02*
X114691219Y-77646722D01*
X114691219Y-77646722D02*
X114738838Y-77551484D01*
X114738838Y-77551484D02*
X114786457Y-77503865D01*
X114786457Y-77503865D02*
X114929314Y-77408627D01*
X114929314Y-77408627D02*
X115119790Y-77361008D01*
X115119790Y-77361008D02*
X115500742Y-77361008D01*
X115500742Y-77361008D02*
X115595980Y-77408627D01*
X115595980Y-77408627D02*
X115643600Y-77456246D01*
X115643600Y-77456246D02*
X115691219Y-77551484D01*
X115691219Y-77551484D02*
X115691219Y-77741960D01*
X115691219Y-77741960D02*
X115643600Y-77837198D01*
X115643600Y-77837198D02*
X115595980Y-77884817D01*
X115595980Y-77884817D02*
X115500742Y-77932436D01*
X115500742Y-77932436D02*
X115262647Y-77932436D01*
X115262647Y-77932436D02*
X115167409Y-77884817D01*
X115167409Y-77884817D02*
X115119790Y-77837198D01*
X115119790Y-77837198D02*
X115072171Y-77741960D01*
X115072171Y-77741960D02*
X115072171Y-77551484D01*
X115072171Y-77551484D02*
X115119790Y-77456246D01*
X115119790Y-77456246D02*
X115167409Y-77408627D01*
X115167409Y-77408627D02*
X115262647Y-77361008D01*
M02*
