%TF.GenerationSoftware,KiCad,Pcbnew,9.0.3*%
%TF.CreationDate,2026-06-06T11:21:32+09:00*%
%TF.ProjectId,USBPD12VModule,55534250-4431-4325-964d-6f64756c652e,rev?*%
%TF.SameCoordinates,Original*%
%TF.FileFunction,Copper,L1,Top*%
%TF.FilePolarity,Positive*%
%FSLAX46Y46*%
G04 Gerber Fmt 4.6, Leading zero omitted, Abs format (unit mm)*
G04 Created by KiCad (PCBNEW 9.0.3) date 2026-06-06 11:21:32*
%MOMM*%
%LPD*%
G01*
G04 APERTURE LIST*
G04 Aperture macros list*
%AMRoundRect*
0 Rectangle with rounded corners*
0 $1 Rounding radius*
0 $2 $3 $4 $5 $6 $7 $8 $9 X,Y pos of 4 corners*
0 Add a 4 corners polygon primitive as box body*
4,1,4,$2,$3,$4,$5,$6,$7,$8,$9,$2,$3,0*
0 Add four circle primitives for the rounded corners*
1,1,$1+$1,$2,$3*
1,1,$1+$1,$4,$5*
1,1,$1+$1,$6,$7*
1,1,$1+$1,$8,$9*
0 Add four rect primitives between the rounded corners*
20,1,$1+$1,$2,$3,$4,$5,0*
20,1,$1+$1,$4,$5,$6,$7,0*
20,1,$1+$1,$6,$7,$8,$9,0*
20,1,$1+$1,$8,$9,$2,$3,0*%
%AMFreePoly0*
4,1,6,1.000000,0.000000,0.500000,-0.750000,-0.500000,-0.750000,-0.500000,0.750000,0.500000,0.750000,1.000000,0.000000,1.000000,0.000000,$1*%
%AMFreePoly1*
4,1,7,0.700000,0.000000,1.200000,-0.750000,-1.200000,-0.750000,-0.700000,0.000000,-1.200000,0.750000,1.200000,0.750000,0.700000,0.000000,0.700000,0.000000,$1*%
G04 Aperture macros list end*
%TA.AperFunction,SMDPad,CuDef*%
%ADD10FreePoly0,0.000000*%
%TD*%
%TA.AperFunction,SMDPad,CuDef*%
%ADD11FreePoly1,0.000000*%
%TD*%
%TA.AperFunction,SMDPad,CuDef*%
%ADD12FreePoly0,180.000000*%
%TD*%
%TA.AperFunction,SMDPad,CuDef*%
%ADD13FreePoly1,180.000000*%
%TD*%
%TA.AperFunction,SMDPad,CuDef*%
%ADD14FreePoly0,90.000000*%
%TD*%
%TA.AperFunction,SMDPad,CuDef*%
%ADD15FreePoly1,90.000000*%
%TD*%
%TA.AperFunction,SMDPad,CuDef*%
%ADD16FreePoly0,270.000000*%
%TD*%
%TA.AperFunction,SMDPad,CuDef*%
%ADD17RoundRect,0.250000X0.350000X0.450000X-0.350000X0.450000X-0.350000X-0.450000X0.350000X-0.450000X0*%
%TD*%
%TA.AperFunction,SMDPad,CuDef*%
%ADD18RoundRect,0.250000X1.000000X0.650000X-1.000000X0.650000X-1.000000X-0.650000X1.000000X-0.650000X0*%
%TD*%
%TA.AperFunction,SMDPad,CuDef*%
%ADD19RoundRect,0.250000X-0.450000X0.325000X-0.450000X-0.325000X0.450000X-0.325000X0.450000X0.325000X0*%
%TD*%
%TA.AperFunction,ComponentPad*%
%ADD20R,1.700000X1.700000*%
%TD*%
%TA.AperFunction,ComponentPad*%
%ADD21C,1.700000*%
%TD*%
%TA.AperFunction,SMDPad,CuDef*%
%ADD22RoundRect,0.150000X0.687500X0.150000X-0.687500X0.150000X-0.687500X-0.150000X0.687500X-0.150000X0*%
%TD*%
%TA.AperFunction,HeatsinkPad*%
%ADD23C,0.810000*%
%TD*%
%TA.AperFunction,HeatsinkPad*%
%ADD24R,2.100000X3.300000*%
%TD*%
%TA.AperFunction,SMDPad,CuDef*%
%ADD25RoundRect,0.250000X0.475000X-0.337500X0.475000X0.337500X-0.475000X0.337500X-0.475000X-0.337500X0*%
%TD*%
%TA.AperFunction,SMDPad,CuDef*%
%ADD26RoundRect,0.250000X-0.450000X0.350000X-0.450000X-0.350000X0.450000X-0.350000X0.450000X0.350000X0*%
%TD*%
%TA.AperFunction,SMDPad,CuDef*%
%ADD27RoundRect,0.150000X-0.150000X-0.425000X0.150000X-0.425000X0.150000X0.425000X-0.150000X0.425000X0*%
%TD*%
%TA.AperFunction,SMDPad,CuDef*%
%ADD28RoundRect,0.075000X-0.075000X-0.500000X0.075000X-0.500000X0.075000X0.500000X-0.075000X0.500000X0*%
%TD*%
%TA.AperFunction,HeatsinkPad*%
%ADD29O,1.000000X2.100000*%
%TD*%
%TA.AperFunction,HeatsinkPad*%
%ADD30O,1.000000X1.800000*%
%TD*%
%TA.AperFunction,SMDPad,CuDef*%
%ADD31RoundRect,0.249999X-0.450001X-1.425001X0.450001X-1.425001X0.450001X1.425001X-0.450001X1.425001X0*%
%TD*%
%TA.AperFunction,SMDPad,CuDef*%
%ADD32RoundRect,0.250000X-0.337500X-0.475000X0.337500X-0.475000X0.337500X0.475000X-0.337500X0.475000X0*%
%TD*%
%TA.AperFunction,SMDPad,CuDef*%
%ADD33R,0.700000X1.525000*%
%TD*%
%TA.AperFunction,ViaPad*%
%ADD34C,0.600000*%
%TD*%
%TA.AperFunction,Conductor*%
%ADD35C,1.000000*%
%TD*%
%TA.AperFunction,Conductor*%
%ADD36C,0.200000*%
%TD*%
%TA.AperFunction,Conductor*%
%ADD37C,0.500000*%
%TD*%
G04 APERTURE END LIST*
D10*
%TO.P,JP1,1,A*%
%TO.N,Vdd*%
X104204000Y-74676000D03*
D11*
%TO.P,JP1,2,C*%
%TO.N,Net-(JP1-C)*%
X106204000Y-74676000D03*
D12*
%TO.P,JP1,3,B*%
%TO.N,GND*%
X108204000Y-74676000D03*
%TD*%
%TO.P,JP3,1,A*%
%TO.N,Vdd*%
X116046000Y-74676000D03*
D13*
%TO.P,JP3,2,C*%
%TO.N,Net-(JP3-C)*%
X114046000Y-74676000D03*
D10*
%TO.P,JP3,3,B*%
%TO.N,GND*%
X112046000Y-74676000D03*
%TD*%
D14*
%TO.P,JP2,1,A*%
%TO.N,Vdd*%
X114427000Y-71596000D03*
D15*
%TO.P,JP2,2,C*%
%TO.N,Net-(JP2-C)*%
X114427000Y-69596000D03*
D16*
%TO.P,JP2,3,B*%
%TO.N,GND*%
X114427000Y-67596000D03*
%TD*%
D17*
%TO.P,R3,1*%
%TO.N,Net-(IC1-S1)*%
X100552000Y-62484000D03*
%TO.P,R3,2*%
%TO.N,Net-(IC1-G1)*%
X98552000Y-62484000D03*
%TD*%
D18*
%TO.P,D1,1,A1*%
%TO.N,VBus*%
X99409000Y-74930000D03*
%TO.P,D1,2,A2*%
%TO.N,GND*%
X95409000Y-74930000D03*
%TD*%
D19*
%TO.P,LED1,1,K*%
%TO.N,GND*%
X114935000Y-58411000D03*
%TO.P,LED1,2,A*%
%TO.N,Net-(LED1-A)*%
X114935000Y-60461000D03*
%TD*%
D20*
%TO.P,J4,1,Pin_1*%
%TO.N,GND*%
X115570000Y-80391000D03*
D21*
%TO.P,J4,2,Pin_2*%
X115570000Y-82931000D03*
%TD*%
D17*
%TO.P,R1,1*%
%TO.N,Net-(IC1-G1)*%
X100679000Y-60071000D03*
%TO.P,R1,2*%
%TO.N,~Enable*%
X98679000Y-60071000D03*
%TD*%
%TO.P,R9,1*%
%TO.N,Net-(U1-VBUS)*%
X99822000Y-70866000D03*
%TO.P,R9,2*%
%TO.N,VBus*%
X97822000Y-70866000D03*
%TD*%
D20*
%TO.P,J2,1,Pin_1*%
%TO.N,PG*%
X95885000Y-54864000D03*
D21*
%TO.P,J2,2,Pin_2*%
%TO.N,~Enable*%
X98425000Y-54864000D03*
%TO.P,J2,3,Pin_3*%
%TO.N,VBus*%
X100965000Y-54864000D03*
%TD*%
D22*
%TO.P,U1,1,VDD*%
%TO.N,Vdd*%
X108682500Y-71088000D03*
%TO.P,U1,2,CFG2*%
%TO.N,Net-(JP2-C)*%
X108682500Y-70088000D03*
%TO.P,U1,3,CFG3*%
%TO.N,Net-(JP3-C)*%
X108682500Y-69088000D03*
%TO.P,U1,4,DP*%
%TO.N,Net-(U1-DP)*%
X108682500Y-68088000D03*
%TO.P,U1,5,DM*%
%TO.N,Net-(U1-DM)*%
X108682500Y-67088000D03*
%TO.P,U1,6,CC2*%
%TO.N,Con_CC1*%
X103407500Y-67088000D03*
%TO.P,U1,7,CC1*%
%TO.N,Con_CC2*%
X103407500Y-68088000D03*
%TO.P,U1,8,VBUS*%
%TO.N,Net-(U1-VBUS)*%
X103407500Y-69088000D03*
%TO.P,U1,9,CFG1*%
%TO.N,Net-(JP1-C)*%
X103407500Y-70088000D03*
%TO.P,U1,10,PG*%
%TO.N,PG*%
X103407500Y-71088000D03*
D23*
%TO.P,U1,11,GND*%
%TO.N,GND*%
X106045000Y-69723000D03*
D24*
X106045000Y-69088000D03*
D23*
X106045000Y-68453000D03*
%TD*%
D25*
%TO.P,C7,1*%
%TO.N,Vdd*%
X111252000Y-70887500D03*
%TO.P,C7,2*%
%TO.N,GND*%
X111252000Y-68812500D03*
%TD*%
D26*
%TO.P,R4,1*%
%TO.N,Net-(LED1-A)*%
X114935000Y-62373000D03*
%TO.P,R4,2*%
%TO.N,12V*%
X114935000Y-64373000D03*
%TD*%
D17*
%TO.P,R2,1*%
%TO.N,Net-(C1-Pad2)*%
X112506000Y-60325000D03*
%TO.P,R2,2*%
%TO.N,Net-(IC1-G1)*%
X110506000Y-60325000D03*
%TD*%
D27*
%TO.P,J1,A1,GND*%
%TO.N,GND*%
X103206000Y-78613000D03*
%TO.P,J1,A4,VBUS*%
%TO.N,VBus*%
X104006000Y-78613000D03*
D28*
%TO.P,J1,A5,CC1*%
%TO.N,Con_CC1*%
X105156000Y-78613000D03*
%TO.P,J1,A6,D+*%
%TO.N,Net-(U1-DP)*%
X106156000Y-78613000D03*
%TO.P,J1,A7,D-*%
%TO.N,Net-(U1-DM)*%
X106656000Y-78613000D03*
%TO.P,J1,A8,SBU1*%
%TO.N,unconnected-(J1-SBU1-PadA8)*%
X107656000Y-78613000D03*
D27*
%TO.P,J1,A9,VBUS*%
%TO.N,VBus*%
X108806000Y-78613000D03*
%TO.P,J1,A12,GND*%
%TO.N,GND*%
X109606000Y-78613000D03*
%TO.P,J1,B1,GND*%
X109606000Y-78613000D03*
%TO.P,J1,B4,VBUS*%
%TO.N,VBus*%
X108806000Y-78613000D03*
D28*
%TO.P,J1,B5,CC2*%
%TO.N,Con_CC2*%
X108156000Y-78613000D03*
%TO.P,J1,B6,D+*%
%TO.N,Net-(U1-DP)*%
X107156000Y-78613000D03*
%TO.P,J1,B7,D-*%
%TO.N,Net-(U1-DM)*%
X105656000Y-78613000D03*
%TO.P,J1,B8,SBU2*%
%TO.N,unconnected-(J1-SBU2-PadB8)*%
X104656000Y-78613000D03*
D27*
%TO.P,J1,B9,VBUS*%
%TO.N,VBus*%
X104006000Y-78613000D03*
%TO.P,J1,B12,GND*%
%TO.N,GND*%
X103206000Y-78613000D03*
D29*
%TO.P,J1,S1,SHIELD*%
X102086000Y-79188000D03*
D30*
X102086000Y-83368000D03*
D29*
X110726000Y-79188000D03*
D30*
X110726000Y-83368000D03*
%TD*%
D20*
%TO.P,J5,1,Pin_1*%
%TO.N,GND*%
X95885000Y-80391000D03*
D21*
%TO.P,J5,2,Pin_2*%
X95885000Y-82931000D03*
%TD*%
D31*
%TO.P,R8,1*%
%TO.N,VBus*%
X95121000Y-66548000D03*
%TO.P,R8,2*%
%TO.N,Vdd*%
X101221000Y-66548000D03*
%TD*%
D20*
%TO.P,J3,1,Pin_1*%
%TO.N,12V*%
X107950000Y-54864000D03*
D21*
%TO.P,J3,2,Pin_2*%
X110490000Y-54864000D03*
%TO.P,J3,3,Pin_3*%
%TO.N,GND*%
X113030000Y-54864000D03*
%TO.P,J3,4,Pin_4*%
X115570000Y-54864000D03*
%TD*%
D32*
%TO.P,C1,1*%
%TO.N,12V*%
X110595500Y-62738000D03*
%TO.P,C1,2*%
%TO.N,Net-(C1-Pad2)*%
X112670500Y-62738000D03*
%TD*%
D33*
%TO.P,IC1,1,S2*%
%TO.N,Net-(IC1-S1)*%
X108204000Y-58502000D03*
%TO.P,IC1,2,G2*%
%TO.N,Net-(IC1-G1)*%
X106934000Y-58502000D03*
%TO.P,IC1,3,S1*%
%TO.N,Net-(IC1-S1)*%
X105664000Y-58502000D03*
%TO.P,IC1,4,G1*%
%TO.N,Net-(IC1-G1)*%
X104394000Y-58502000D03*
%TO.P,IC1,5,D1_1*%
%TO.N,VBus*%
X104394000Y-63926000D03*
%TO.P,IC1,6,D1_2*%
X105664000Y-63926000D03*
%TO.P,IC1,7,D2_1*%
%TO.N,12V*%
X106934000Y-63926000D03*
%TO.P,IC1,8,D2_2*%
X108204000Y-63926000D03*
%TD*%
D34*
%TO.N,12V*%
X110998000Y-64389000D03*
%TO.N,Vdd*%
X99346100Y-69181600D03*
X103093400Y-72315400D03*
%TO.N,GND*%
X108077000Y-72898000D03*
X108966000Y-72898000D03*
X112776000Y-67691000D03*
X112776000Y-68707000D03*
%TO.N,VBus*%
X103703550Y-77296450D03*
X97155000Y-57404000D03*
X108727000Y-77073100D03*
X102235000Y-63500000D03*
%TO.N,Net-(U1-DP)*%
X107820700Y-75980600D03*
X110612100Y-66741400D03*
%TO.N,Con_CC1*%
X102630900Y-65500100D03*
X96614400Y-67863600D03*
X101033400Y-80586400D03*
X97409000Y-76962000D03*
%TO.N,Net-(U1-DM)*%
X108300000Y-65737900D03*
X101656500Y-71275600D03*
%TO.N,Con_CC2*%
X100920300Y-68930300D03*
X109601000Y-72020300D03*
%TO.N,PG*%
X103515500Y-65417200D03*
%TD*%
D35*
%TO.N,12V*%
X106934000Y-63926000D02*
X108204000Y-63926000D01*
X110998000Y-63140500D02*
X110998000Y-64389000D01*
X114919000Y-64389000D02*
X114935000Y-64373000D01*
D36*
X108204000Y-63926000D02*
X108204000Y-63881000D01*
D35*
X110595500Y-62738000D02*
X110998000Y-63140500D01*
X109452500Y-63881000D02*
X110595500Y-62738000D01*
X110998000Y-64389000D02*
X114919000Y-64389000D01*
X108204000Y-63881000D02*
X109452500Y-63881000D01*
D36*
%TO.N,Net-(C1-Pad2)*%
X112670500Y-62738000D02*
X112506000Y-62573500D01*
X112506000Y-62573500D02*
X112506000Y-60325000D01*
%TO.N,Vdd*%
X104204000Y-74433100D02*
X104204000Y-74272900D01*
X104140000Y-74612000D02*
X104140000Y-72517000D01*
X101221000Y-67306700D02*
X101221000Y-66548000D01*
X99346100Y-69181600D02*
X101221000Y-67306700D01*
X104140000Y-72517000D02*
X105569000Y-71088000D01*
X104002450Y-74474450D02*
X103093400Y-73565400D01*
X105569000Y-71088000D02*
X108682500Y-71088000D01*
X111252000Y-70887500D02*
X111960500Y-71596000D01*
X116046000Y-73215000D02*
X116046000Y-74676000D01*
X104204000Y-74474400D02*
X104204000Y-74433100D01*
X114427000Y-71596000D02*
X116046000Y-73215000D01*
X104204000Y-74676000D02*
X104204000Y-74474400D01*
X108883000Y-70887500D02*
X108682500Y-71088000D01*
X111960500Y-71596000D02*
X114427000Y-71596000D01*
X103093400Y-73565400D02*
X103093400Y-72315400D01*
X111252000Y-70887500D02*
X108883000Y-70887500D01*
X104204000Y-74676000D02*
X104140000Y-74612000D01*
D35*
%TO.N,VBus*%
X105664000Y-63926000D02*
X102661000Y-63926000D01*
X97822000Y-66707000D02*
X97790000Y-66675000D01*
D36*
X108806000Y-78613000D02*
X108806000Y-77152100D01*
D35*
X95248000Y-66675000D02*
X95121000Y-66548000D01*
X97822000Y-70866000D02*
X97822000Y-71844000D01*
X97790000Y-65024000D02*
X96393000Y-63627000D01*
X103703550Y-77296450D02*
X102296450Y-77296450D01*
X102296450Y-77296450D02*
X99930000Y-74930000D01*
D37*
X104006000Y-77598900D02*
X104006000Y-78613000D01*
X103703550Y-77296450D02*
X104006000Y-77598900D01*
D35*
X97822000Y-70866000D02*
X97822000Y-66707000D01*
X102661000Y-63926000D02*
X102235000Y-63500000D01*
X99409000Y-73431000D02*
X99409000Y-74930000D01*
D36*
X108806000Y-77152100D02*
X108727000Y-77073100D01*
D35*
X96393000Y-58166000D02*
X97155000Y-57404000D01*
X96393000Y-63627000D02*
X96393000Y-58166000D01*
X97790000Y-66675000D02*
X95248000Y-66675000D01*
X97790000Y-66675000D02*
X97790000Y-65024000D01*
D37*
X99930000Y-74930000D02*
X99409000Y-74930000D01*
D35*
X97822000Y-71844000D02*
X99409000Y-73431000D01*
D36*
%TO.N,Net-(IC1-G1)*%
X100679000Y-60357000D02*
X100679000Y-60071000D01*
X100679000Y-60071000D02*
X102248000Y-58502000D01*
X108881400Y-56938400D02*
X108458000Y-56515000D01*
X109747200Y-59566200D02*
X110506000Y-60325000D01*
X108458000Y-56515000D02*
X104775000Y-56515000D01*
X104394000Y-56896000D02*
X104394000Y-58502000D01*
X106934000Y-59309000D02*
X106934000Y-58502000D01*
X102248000Y-58502000D02*
X104394000Y-58502000D01*
X108881400Y-59566200D02*
X108881400Y-56938400D01*
X108881400Y-59566200D02*
X109747200Y-59566200D01*
X104775000Y-56515000D02*
X104394000Y-56896000D01*
X107191200Y-59566200D02*
X106934000Y-59309000D01*
X108881400Y-59566200D02*
X107191200Y-59566200D01*
X98552000Y-62484000D02*
X100679000Y-60357000D01*
X104394000Y-58933200D02*
X104394000Y-58502000D01*
%TO.N,Net-(IC1-S1)*%
X108204000Y-57277000D02*
X108204000Y-58502000D01*
X105664000Y-58502000D02*
X105664000Y-57277000D01*
X105664000Y-58933200D02*
X105664000Y-59566200D01*
X105918000Y-57023000D02*
X107950000Y-57023000D01*
X105664000Y-57277000D02*
X105918000Y-57023000D01*
X105664000Y-59566200D02*
X102746300Y-62483900D01*
X100552000Y-62483900D02*
X100552000Y-62484000D01*
X107950000Y-57023000D02*
X108204000Y-57277000D01*
X105664000Y-58933200D02*
X105664000Y-58502000D01*
X102746300Y-62483900D02*
X100552000Y-62483900D01*
%TO.N,Net-(U1-DP)*%
X106156000Y-79295800D02*
X106357200Y-79497000D01*
X106894800Y-79497000D02*
X107156000Y-79235800D01*
X107156000Y-79235800D02*
X107156000Y-78613000D01*
X107542700Y-67446200D02*
X107542700Y-65624700D01*
X108184500Y-68088000D02*
X107542700Y-67446200D01*
X106357200Y-79497000D02*
X106894800Y-79497000D01*
X108034000Y-65133400D02*
X109004100Y-65133400D01*
X108682500Y-68088000D02*
X108184500Y-68088000D01*
X107820700Y-75980600D02*
X107156000Y-76645300D01*
X107542700Y-65624700D02*
X108034000Y-65133400D01*
X107156000Y-76645300D02*
X107156000Y-78613000D01*
X109004100Y-65133400D02*
X110612100Y-66741400D01*
X106156000Y-78613000D02*
X106156000Y-79295800D01*
%TO.N,Con_CC1*%
X96614400Y-72614400D02*
X96614400Y-67863600D01*
X105156000Y-78613000D02*
X105156000Y-79341900D01*
X102630900Y-65500100D02*
X102630900Y-66311400D01*
X97409000Y-73409000D02*
X96614400Y-72614400D01*
X105156000Y-79341900D02*
X103911500Y-80586400D01*
X102630900Y-66311400D02*
X103407500Y-67088000D01*
X97409000Y-76962000D02*
X97409000Y-73409000D01*
X103911500Y-80586400D02*
X101033400Y-80586400D01*
%TO.N,Net-(U1-DM)*%
X101656600Y-74426500D02*
X101656600Y-71275600D01*
X108682500Y-66120400D02*
X108682500Y-67088000D01*
X108300000Y-65737900D02*
X108682500Y-66120400D01*
X103843200Y-76189300D02*
X103419400Y-76189300D01*
X105656000Y-78613000D02*
X105656000Y-78002100D01*
X105929100Y-77729000D02*
X106435600Y-77729000D01*
X106656000Y-77949400D02*
X106656000Y-78613000D01*
X103419400Y-76189300D02*
X101656600Y-74426500D01*
X106435600Y-77729000D02*
X106656000Y-77949400D01*
X101656600Y-71275600D02*
X101656500Y-71275600D01*
X105656000Y-78002100D02*
X105929100Y-77729000D01*
X105656000Y-78002100D02*
X103843200Y-76189300D01*
%TO.N,Con_CC2*%
X108106500Y-77303700D02*
X108156000Y-77353200D01*
X108106500Y-76706000D02*
X108106500Y-77303700D01*
X102267700Y-68525600D02*
X101325000Y-68525600D01*
X103407500Y-68088000D02*
X102705300Y-68088000D01*
X108156000Y-77353200D02*
X108156000Y-78613000D01*
X109601000Y-75211500D02*
X108106500Y-76706000D01*
X109601000Y-72020300D02*
X109601000Y-75211500D01*
X102705300Y-68088000D02*
X102267700Y-68525600D01*
X101325000Y-68525600D02*
X100920300Y-68930300D01*
%TO.N,PG*%
X103942400Y-71088000D02*
X104620300Y-70410100D01*
X104620300Y-66522000D02*
X103515500Y-65417200D01*
X104620300Y-70410100D02*
X104620300Y-66522000D01*
X103407500Y-71088000D02*
X103942400Y-71088000D01*
%TO.N,~Enable*%
X98679000Y-54991000D02*
X98552000Y-54864000D01*
X98679000Y-60071000D02*
X98679000Y-54991000D01*
%TO.N,Net-(U1-VBUS)*%
X101613500Y-69088000D02*
X103407500Y-69088000D01*
X99822000Y-70866000D02*
X99835500Y-70866000D01*
X99835500Y-70866000D02*
X101613500Y-69088000D01*
%TO.N,Net-(JP1-C)*%
X106204000Y-74676000D02*
X106204000Y-75727700D01*
X106204000Y-75727700D02*
X103548800Y-75727700D01*
X102259300Y-70696600D02*
X102867900Y-70088000D01*
X102259300Y-74438200D02*
X102259300Y-70696600D01*
X102867900Y-70088000D02*
X103407500Y-70088000D01*
X103548800Y-75727700D02*
X102259300Y-74438200D01*
%TO.N,Net-(JP2-C)*%
X108895800Y-69874700D02*
X113096600Y-69874700D01*
X113096600Y-69874700D02*
X113375300Y-69596000D01*
X108682500Y-70088000D02*
X108895800Y-69874700D01*
X114427000Y-69596000D02*
X113375300Y-69596000D01*
%TO.N,Net-(JP3-C)*%
X116877700Y-75549700D02*
X116699700Y-75727700D01*
X116699700Y-75727700D02*
X116677300Y-75727700D01*
X108682500Y-69088000D02*
X109292700Y-69088000D01*
X113474500Y-75247500D02*
X114046000Y-74676000D01*
X116677300Y-75727700D02*
X116205000Y-76200000D01*
X116078000Y-65659000D02*
X116877700Y-66458700D01*
X116205000Y-76200000D02*
X114427000Y-76200000D01*
X116877700Y-66458700D02*
X116877700Y-75549700D01*
X112721700Y-65659000D02*
X116078000Y-65659000D01*
X114427000Y-76200000D02*
X113474500Y-75247500D01*
X109292700Y-69088000D02*
X112721700Y-65659000D01*
%TO.N,Net-(LED1-A)*%
X114935000Y-62373000D02*
X114935000Y-60461000D01*
%TD*%
%TA.AperFunction,Conductor*%
%TO.N,GND*%
G36*
X117442539Y-53045185D02*
G01*
X117488294Y-53097989D01*
X117499500Y-53149500D01*
X117499500Y-65931902D01*
X117479815Y-65998941D01*
X117427011Y-66044696D01*
X117357853Y-66054640D01*
X117294297Y-66025615D01*
X117287819Y-66019583D01*
X116565590Y-65297355D01*
X116565588Y-65297352D01*
X116446717Y-65178481D01*
X116446709Y-65178475D01*
X116348929Y-65122022D01*
X116348924Y-65122020D01*
X116338689Y-65116111D01*
X116309785Y-65099423D01*
X116194665Y-65068576D01*
X116190462Y-65067120D01*
X116165488Y-65049324D01*
X116139302Y-65033363D01*
X116137297Y-65029236D01*
X116133561Y-65026574D01*
X116122172Y-64998099D01*
X116108773Y-64970516D01*
X116109154Y-64965552D01*
X116107614Y-64961701D01*
X116110664Y-64945900D01*
X116113349Y-64910952D01*
X116124999Y-64875797D01*
X116135500Y-64773009D01*
X116135499Y-63972992D01*
X116129966Y-63918831D01*
X116124999Y-63870203D01*
X116124998Y-63870200D01*
X116103629Y-63805713D01*
X116069814Y-63703666D01*
X115977712Y-63554344D01*
X115884049Y-63460681D01*
X115850564Y-63399358D01*
X115855548Y-63329666D01*
X115884049Y-63285319D01*
X115916034Y-63253334D01*
X115977712Y-63191656D01*
X116069814Y-63042334D01*
X116124999Y-62875797D01*
X116135500Y-62773009D01*
X116135499Y-61972992D01*
X116124999Y-61870203D01*
X116069814Y-61703666D01*
X115977712Y-61554344D01*
X115915549Y-61492181D01*
X115882064Y-61430858D01*
X115887048Y-61361166D01*
X115915549Y-61316819D01*
X115938367Y-61294001D01*
X115977712Y-61254656D01*
X116069814Y-61105334D01*
X116124999Y-60938797D01*
X116135500Y-60836009D01*
X116135499Y-60085992D01*
X116132530Y-60056932D01*
X116124999Y-59983203D01*
X116124998Y-59983200D01*
X116122837Y-59976680D01*
X116069814Y-59816666D01*
X115977712Y-59667344D01*
X115853656Y-59543288D01*
X115850342Y-59541243D01*
X115848546Y-59539248D01*
X115847989Y-59538807D01*
X115848064Y-59538711D01*
X115803618Y-59489297D01*
X115792397Y-59420334D01*
X115820240Y-59356252D01*
X115850348Y-59330165D01*
X115853342Y-59328318D01*
X115977315Y-59204345D01*
X116069356Y-59055124D01*
X116069358Y-59055119D01*
X116124505Y-58888697D01*
X116124506Y-58888690D01*
X116134999Y-58785986D01*
X116135000Y-58785973D01*
X116135000Y-58661000D01*
X113735001Y-58661000D01*
X113735001Y-58785986D01*
X113745494Y-58888697D01*
X113800641Y-59055119D01*
X113800643Y-59055124D01*
X113892684Y-59204345D01*
X114016655Y-59328316D01*
X114016659Y-59328319D01*
X114019656Y-59330168D01*
X114021279Y-59331972D01*
X114022323Y-59332798D01*
X114022181Y-59332976D01*
X114066381Y-59382116D01*
X114077602Y-59451079D01*
X114049759Y-59515161D01*
X114019661Y-59541241D01*
X114016349Y-59543283D01*
X114016343Y-59543288D01*
X113892289Y-59667342D01*
X113892288Y-59667344D01*
X113849831Y-59736179D01*
X113825063Y-59776334D01*
X113773115Y-59823058D01*
X113704152Y-59834281D01*
X113640070Y-59806437D01*
X113601214Y-59748369D01*
X113596166Y-59723838D01*
X113595999Y-59722203D01*
X113595998Y-59722200D01*
X113577820Y-59667342D01*
X113540814Y-59555666D01*
X113448712Y-59406344D01*
X113324656Y-59282288D01*
X113175334Y-59190186D01*
X113008797Y-59135001D01*
X113008795Y-59135000D01*
X112906010Y-59124500D01*
X112105998Y-59124500D01*
X112105980Y-59124501D01*
X112003203Y-59135000D01*
X112003200Y-59135001D01*
X111836668Y-59190185D01*
X111836663Y-59190187D01*
X111687342Y-59282289D01*
X111593681Y-59375951D01*
X111532358Y-59409436D01*
X111462666Y-59404452D01*
X111418319Y-59375951D01*
X111324657Y-59282289D01*
X111324656Y-59282288D01*
X111175334Y-59190186D01*
X111008797Y-59135001D01*
X111008795Y-59135000D01*
X110906016Y-59124500D01*
X110906009Y-59124500D01*
X110206098Y-59124500D01*
X110140464Y-59105705D01*
X110128438Y-59098202D01*
X110115916Y-59085680D01*
X110016509Y-59028288D01*
X109978985Y-59006623D01*
X109978984Y-59006622D01*
X109978983Y-59006622D01*
X109923081Y-58991643D01*
X109826257Y-58965699D01*
X109668143Y-58965699D01*
X109660547Y-58965699D01*
X109660531Y-58965700D01*
X109605900Y-58965700D01*
X109538861Y-58946015D01*
X109493106Y-58893211D01*
X109481900Y-58841700D01*
X109481900Y-58036013D01*
X113735000Y-58036013D01*
X113735000Y-58161000D01*
X114685000Y-58161000D01*
X115185000Y-58161000D01*
X116134999Y-58161000D01*
X116134999Y-58036028D01*
X116134998Y-58036013D01*
X116124505Y-57933302D01*
X116069358Y-57766880D01*
X116069356Y-57766875D01*
X115977315Y-57617654D01*
X115853345Y-57493684D01*
X115704124Y-57401643D01*
X115704119Y-57401641D01*
X115537697Y-57346494D01*
X115537690Y-57346493D01*
X115434986Y-57336000D01*
X115185000Y-57336000D01*
X115185000Y-58161000D01*
X114685000Y-58161000D01*
X114685000Y-57336000D01*
X114435029Y-57336000D01*
X114435012Y-57336001D01*
X114332302Y-57346494D01*
X114165880Y-57401641D01*
X114165875Y-57401643D01*
X114016654Y-57493684D01*
X113892684Y-57617654D01*
X113800643Y-57766875D01*
X113800641Y-57766880D01*
X113745494Y-57933302D01*
X113745493Y-57933309D01*
X113735000Y-58036013D01*
X109481900Y-58036013D01*
X109481900Y-57027459D01*
X109481901Y-57027446D01*
X109481901Y-56859345D01*
X109481901Y-56859343D01*
X109440977Y-56706615D01*
X109381443Y-56603500D01*
X109361920Y-56569684D01*
X109250116Y-56457880D01*
X109250113Y-56457878D01*
X109090734Y-56298499D01*
X109057249Y-56237176D01*
X109062233Y-56167484D01*
X109104103Y-56111553D01*
X109157546Y-56071546D01*
X109243796Y-55956331D01*
X109292810Y-55824916D01*
X109334681Y-55768984D01*
X109400145Y-55744566D01*
X109468418Y-55759417D01*
X109496673Y-55780569D01*
X109610213Y-55894109D01*
X109782179Y-56019048D01*
X109782181Y-56019049D01*
X109782184Y-56019051D01*
X109971588Y-56115557D01*
X110173757Y-56181246D01*
X110383713Y-56214500D01*
X110383714Y-56214500D01*
X110596286Y-56214500D01*
X110596287Y-56214500D01*
X110806243Y-56181246D01*
X111008412Y-56115557D01*
X111197816Y-56019051D01*
X111284138Y-55956335D01*
X111369786Y-55894109D01*
X111369788Y-55894106D01*
X111369792Y-55894104D01*
X111520104Y-55743792D01*
X111520106Y-55743788D01*
X111520109Y-55743786D01*
X111605890Y-55625717D01*
X111645051Y-55571816D01*
X111649793Y-55562508D01*
X111697763Y-55511711D01*
X111765583Y-55494911D01*
X111831719Y-55517445D01*
X111870763Y-55562500D01*
X111875373Y-55571547D01*
X111914728Y-55625716D01*
X112547037Y-54993408D01*
X112564075Y-55056993D01*
X112629901Y-55171007D01*
X112722993Y-55264099D01*
X112837007Y-55329925D01*
X112900590Y-55346962D01*
X112268282Y-55979269D01*
X112268282Y-55979270D01*
X112322449Y-56018624D01*
X112511782Y-56115095D01*
X112713870Y-56180757D01*
X112923754Y-56214000D01*
X113136246Y-56214000D01*
X113346127Y-56180757D01*
X113346130Y-56180757D01*
X113548217Y-56115095D01*
X113737554Y-56018622D01*
X113791716Y-55979270D01*
X113791717Y-55979270D01*
X113159408Y-55346962D01*
X113222993Y-55329925D01*
X113337007Y-55264099D01*
X113430099Y-55171007D01*
X113495925Y-55056993D01*
X113512962Y-54993408D01*
X114145270Y-55625717D01*
X114145270Y-55625716D01*
X114184622Y-55571554D01*
X114189514Y-55561954D01*
X114237488Y-55511157D01*
X114305308Y-55494361D01*
X114371444Y-55516897D01*
X114410486Y-55561954D01*
X114415375Y-55571550D01*
X114454728Y-55625716D01*
X115087037Y-54993408D01*
X115104075Y-55056993D01*
X115169901Y-55171007D01*
X115262993Y-55264099D01*
X115377007Y-55329925D01*
X115440590Y-55346962D01*
X114808282Y-55979269D01*
X114808282Y-55979270D01*
X114862449Y-56018624D01*
X115051782Y-56115095D01*
X115253870Y-56180757D01*
X115463754Y-56214000D01*
X115676246Y-56214000D01*
X115886127Y-56180757D01*
X115886130Y-56180757D01*
X116088217Y-56115095D01*
X116277554Y-56018622D01*
X116331716Y-55979270D01*
X116331717Y-55979270D01*
X115699408Y-55346962D01*
X115762993Y-55329925D01*
X115877007Y-55264099D01*
X115970099Y-55171007D01*
X116035925Y-55056993D01*
X116052962Y-54993409D01*
X116685270Y-55625717D01*
X116685270Y-55625716D01*
X116724622Y-55571554D01*
X116821095Y-55382217D01*
X116886757Y-55180130D01*
X116886757Y-55180127D01*
X116920000Y-54970246D01*
X116920000Y-54757753D01*
X116886757Y-54547872D01*
X116886757Y-54547869D01*
X116821095Y-54345782D01*
X116724624Y-54156449D01*
X116685270Y-54102282D01*
X116685269Y-54102282D01*
X116052962Y-54734590D01*
X116035925Y-54671007D01*
X115970099Y-54556993D01*
X115877007Y-54463901D01*
X115762993Y-54398075D01*
X115699409Y-54381037D01*
X116331716Y-53748728D01*
X116277550Y-53709375D01*
X116088217Y-53612904D01*
X115886129Y-53547242D01*
X115676246Y-53514000D01*
X115463754Y-53514000D01*
X115253872Y-53547242D01*
X115253869Y-53547242D01*
X115051782Y-53612904D01*
X114862439Y-53709380D01*
X114808282Y-53748727D01*
X114808282Y-53748728D01*
X115440591Y-54381037D01*
X115377007Y-54398075D01*
X115262993Y-54463901D01*
X115169901Y-54556993D01*
X115104075Y-54671007D01*
X115087037Y-54734591D01*
X114454728Y-54102282D01*
X114454727Y-54102282D01*
X114415380Y-54156440D01*
X114410483Y-54166051D01*
X114362506Y-54216845D01*
X114294684Y-54233638D01*
X114228550Y-54211098D01*
X114189516Y-54166048D01*
X114184626Y-54156452D01*
X114145270Y-54102282D01*
X114145269Y-54102282D01*
X113512962Y-54734590D01*
X113495925Y-54671007D01*
X113430099Y-54556993D01*
X113337007Y-54463901D01*
X113222993Y-54398075D01*
X113159409Y-54381037D01*
X113791716Y-53748728D01*
X113737550Y-53709375D01*
X113548217Y-53612904D01*
X113346129Y-53547242D01*
X113136246Y-53514000D01*
X112923754Y-53514000D01*
X112713872Y-53547242D01*
X112713869Y-53547242D01*
X112511782Y-53612904D01*
X112322439Y-53709380D01*
X112268282Y-53748727D01*
X112268282Y-53748728D01*
X112900591Y-54381037D01*
X112837007Y-54398075D01*
X112722993Y-54463901D01*
X112629901Y-54556993D01*
X112564075Y-54671007D01*
X112547037Y-54734591D01*
X111914728Y-54102282D01*
X111914727Y-54102282D01*
X111875380Y-54156440D01*
X111875376Y-54156446D01*
X111870760Y-54165505D01*
X111822781Y-54216297D01*
X111754959Y-54233087D01*
X111688826Y-54210543D01*
X111649794Y-54165493D01*
X111645051Y-54156184D01*
X111645049Y-54156181D01*
X111645048Y-54156179D01*
X111520109Y-53984213D01*
X111369786Y-53833890D01*
X111197820Y-53708951D01*
X111008414Y-53612444D01*
X111008413Y-53612443D01*
X111008412Y-53612443D01*
X110806243Y-53546754D01*
X110806241Y-53546753D01*
X110806240Y-53546753D01*
X110644957Y-53521208D01*
X110596287Y-53513500D01*
X110383713Y-53513500D01*
X110335042Y-53521208D01*
X110173760Y-53546753D01*
X109971585Y-53612444D01*
X109782179Y-53708951D01*
X109610215Y-53833889D01*
X109496673Y-53947431D01*
X109435350Y-53980915D01*
X109365658Y-53975931D01*
X109309725Y-53934059D01*
X109292810Y-53903082D01*
X109243797Y-53771671D01*
X109243793Y-53771664D01*
X109157547Y-53656455D01*
X109157544Y-53656452D01*
X109042335Y-53570206D01*
X109042328Y-53570202D01*
X108907482Y-53519908D01*
X108907483Y-53519908D01*
X108847883Y-53513501D01*
X108847881Y-53513500D01*
X108847873Y-53513500D01*
X108847864Y-53513500D01*
X107052129Y-53513500D01*
X107052123Y-53513501D01*
X106992516Y-53519908D01*
X106857671Y-53570202D01*
X106857664Y-53570206D01*
X106742455Y-53656452D01*
X106742452Y-53656455D01*
X106656206Y-53771664D01*
X106656202Y-53771671D01*
X106605908Y-53906517D01*
X106599501Y-53966116D01*
X106599500Y-53966135D01*
X106599500Y-55761870D01*
X106599501Y-55761887D01*
X106601153Y-55777244D01*
X106588748Y-55846004D01*
X106541138Y-55897141D01*
X106477864Y-55914500D01*
X104695940Y-55914500D01*
X104655019Y-55925464D01*
X104655019Y-55925465D01*
X104617751Y-55935451D01*
X104543214Y-55955423D01*
X104543209Y-55955426D01*
X104406290Y-56034475D01*
X104406282Y-56034481D01*
X103913481Y-56527282D01*
X103913480Y-56527284D01*
X103869477Y-56603500D01*
X103834423Y-56664215D01*
X103793499Y-56816943D01*
X103793499Y-56816945D01*
X103793499Y-56985046D01*
X103793500Y-56985059D01*
X103793500Y-57239749D01*
X103773815Y-57306788D01*
X103743812Y-57339015D01*
X103686457Y-57381951D01*
X103686451Y-57381957D01*
X103600206Y-57497164D01*
X103600202Y-57497171D01*
X103549908Y-57632017D01*
X103543501Y-57691616D01*
X103543500Y-57691635D01*
X103543500Y-57777500D01*
X103523815Y-57844539D01*
X103471011Y-57890294D01*
X103419500Y-57901500D01*
X102327057Y-57901500D01*
X102168943Y-57901500D01*
X102016215Y-57942423D01*
X102016214Y-57942423D01*
X102016212Y-57942424D01*
X102016209Y-57942425D01*
X101966096Y-57971359D01*
X101966095Y-57971360D01*
X101922689Y-57996420D01*
X101879285Y-58021479D01*
X101879282Y-58021481D01*
X101767478Y-58133286D01*
X101066582Y-58834181D01*
X101005259Y-58867666D01*
X100978901Y-58870500D01*
X100278998Y-58870500D01*
X100278980Y-58870501D01*
X100176203Y-58881000D01*
X100176200Y-58881001D01*
X100009668Y-58936185D01*
X100009663Y-58936187D01*
X99860342Y-59028289D01*
X99766681Y-59121951D01*
X99705358Y-59155436D01*
X99635666Y-59150452D01*
X99591319Y-59121951D01*
X99497657Y-59028289D01*
X99497656Y-59028288D01*
X99348334Y-58936186D01*
X99348332Y-58936185D01*
X99342187Y-58932395D01*
X99343290Y-58930605D01*
X99298649Y-58891290D01*
X99279500Y-58825091D01*
X99279500Y-55970758D01*
X99299185Y-55903719D01*
X99315819Y-55883077D01*
X99377413Y-55821483D01*
X99455104Y-55743792D01*
X99455106Y-55743788D01*
X99455109Y-55743786D01*
X99580048Y-55571820D01*
X99580047Y-55571820D01*
X99580051Y-55571816D01*
X99584514Y-55563054D01*
X99632488Y-55512259D01*
X99700308Y-55495463D01*
X99766444Y-55517999D01*
X99805486Y-55563056D01*
X99809951Y-55571820D01*
X99934890Y-55743786D01*
X100085213Y-55894109D01*
X100257179Y-56019048D01*
X100257181Y-56019049D01*
X100257184Y-56019051D01*
X100446588Y-56115557D01*
X100648757Y-56181246D01*
X100858713Y-56214500D01*
X100858714Y-56214500D01*
X101071286Y-56214500D01*
X101071287Y-56214500D01*
X101281243Y-56181246D01*
X101483412Y-56115557D01*
X101672816Y-56019051D01*
X101759138Y-55956335D01*
X101844786Y-55894109D01*
X101844788Y-55894106D01*
X101844792Y-55894104D01*
X101995104Y-55743792D01*
X101995106Y-55743788D01*
X101995109Y-55743786D01*
X102120048Y-55571820D01*
X102120047Y-55571820D01*
X102120051Y-55571816D01*
X102216557Y-55382412D01*
X102282246Y-55180243D01*
X102315500Y-54970287D01*
X102315500Y-54757713D01*
X102282246Y-54547757D01*
X102216557Y-54345588D01*
X102120051Y-54156184D01*
X102120049Y-54156181D01*
X102120048Y-54156179D01*
X101995109Y-53984213D01*
X101844786Y-53833890D01*
X101672820Y-53708951D01*
X101483414Y-53612444D01*
X101483413Y-53612443D01*
X101483412Y-53612443D01*
X101281243Y-53546754D01*
X101281241Y-53546753D01*
X101281240Y-53546753D01*
X101119957Y-53521208D01*
X101071287Y-53513500D01*
X100858713Y-53513500D01*
X100810042Y-53521208D01*
X100648760Y-53546753D01*
X100446585Y-53612444D01*
X100257179Y-53708951D01*
X100085213Y-53833890D01*
X99934890Y-53984213D01*
X99809949Y-54156182D01*
X99805484Y-54164946D01*
X99757509Y-54215742D01*
X99689688Y-54232536D01*
X99623553Y-54209998D01*
X99584516Y-54164946D01*
X99580050Y-54156182D01*
X99455109Y-53984213D01*
X99304786Y-53833890D01*
X99132820Y-53708951D01*
X98943414Y-53612444D01*
X98943413Y-53612443D01*
X98943412Y-53612443D01*
X98741243Y-53546754D01*
X98741241Y-53546753D01*
X98741240Y-53546753D01*
X98579957Y-53521208D01*
X98531287Y-53513500D01*
X98318713Y-53513500D01*
X98270042Y-53521208D01*
X98108760Y-53546753D01*
X97906585Y-53612444D01*
X97717179Y-53708951D01*
X97545215Y-53833889D01*
X97431673Y-53947431D01*
X97370350Y-53980915D01*
X97300658Y-53975931D01*
X97244725Y-53934059D01*
X97227810Y-53903082D01*
X97178797Y-53771671D01*
X97178793Y-53771664D01*
X97092547Y-53656455D01*
X97092544Y-53656452D01*
X96977335Y-53570206D01*
X96977328Y-53570202D01*
X96842482Y-53519908D01*
X96842483Y-53519908D01*
X96782883Y-53513501D01*
X96782881Y-53513500D01*
X96782873Y-53513500D01*
X96782864Y-53513500D01*
X94987129Y-53513500D01*
X94987123Y-53513501D01*
X94927516Y-53519908D01*
X94792671Y-53570202D01*
X94792664Y-53570206D01*
X94677455Y-53656452D01*
X94677452Y-53656455D01*
X94591206Y-53771664D01*
X94591202Y-53771671D01*
X94540908Y-53906517D01*
X94534501Y-53966116D01*
X94534500Y-53966135D01*
X94534500Y-55761870D01*
X94534501Y-55761876D01*
X94540908Y-55821483D01*
X94591202Y-55956328D01*
X94591206Y-55956335D01*
X94677452Y-56071544D01*
X94677455Y-56071547D01*
X94792664Y-56157793D01*
X94792671Y-56157797D01*
X94927517Y-56208091D01*
X94927516Y-56208091D01*
X94934444Y-56208835D01*
X94987127Y-56214500D01*
X96782872Y-56214499D01*
X96842483Y-56208091D01*
X96977331Y-56157796D01*
X97092546Y-56071546D01*
X97178796Y-55956331D01*
X97227811Y-55824914D01*
X97269682Y-55768983D01*
X97326652Y-55747734D01*
X97335145Y-55744566D01*
X97335146Y-55744566D01*
X97348578Y-55747488D01*
X97403418Y-55759417D01*
X97431673Y-55780569D01*
X97545213Y-55894109D01*
X97717179Y-56019048D01*
X97717181Y-56019049D01*
X97717184Y-56019051D01*
X97806256Y-56064435D01*
X97906587Y-56115557D01*
X97906593Y-56115559D01*
X97962640Y-56133769D01*
X97992817Y-56143574D01*
X98050493Y-56183010D01*
X98077692Y-56247369D01*
X98078500Y-56261505D01*
X98078500Y-56613215D01*
X98058815Y-56680254D01*
X98006011Y-56726009D01*
X97936853Y-56735953D01*
X97873297Y-56706928D01*
X97866819Y-56700896D01*
X97792786Y-56626863D01*
X97792782Y-56626860D01*
X97628914Y-56517369D01*
X97628909Y-56517367D01*
X97446836Y-56441949D01*
X97446828Y-56441947D01*
X97253543Y-56403500D01*
X97253540Y-56403500D01*
X97056460Y-56403500D01*
X97056455Y-56403500D01*
X96988909Y-56416935D01*
X96988871Y-56416944D01*
X96863164Y-56441949D01*
X96828047Y-56456494D01*
X96828043Y-56456496D01*
X96681088Y-56517367D01*
X96517214Y-56626863D01*
X96517213Y-56626864D01*
X95904330Y-57239749D01*
X95755220Y-57388859D01*
X95755218Y-57388861D01*
X95685538Y-57458540D01*
X95615859Y-57528219D01*
X95506371Y-57692079D01*
X95506364Y-57692092D01*
X95453936Y-57818668D01*
X95453936Y-57818669D01*
X95430948Y-57874165D01*
X95430948Y-57874167D01*
X95430282Y-57877514D01*
X95392500Y-58067454D01*
X95392500Y-58067459D01*
X95392500Y-63725541D01*
X95392500Y-63725543D01*
X95392499Y-63725543D01*
X95405686Y-63791830D01*
X95408447Y-63805712D01*
X95427020Y-63899086D01*
X95427021Y-63899089D01*
X95427020Y-63899089D01*
X95430948Y-63918831D01*
X95430949Y-63918837D01*
X95506364Y-64100907D01*
X95506371Y-64100920D01*
X95558950Y-64179609D01*
X95579828Y-64246286D01*
X95561344Y-64313667D01*
X95509365Y-64360357D01*
X95455848Y-64372500D01*
X94620982Y-64372500D01*
X94518203Y-64383000D01*
X94518202Y-64383001D01*
X94435669Y-64410349D01*
X94351667Y-64438185D01*
X94351662Y-64438187D01*
X94202342Y-64530289D01*
X94078289Y-64654342D01*
X93986187Y-64803662D01*
X93986185Y-64803667D01*
X93962285Y-64875793D01*
X93931001Y-64970202D01*
X93931001Y-64970203D01*
X93931000Y-64970203D01*
X93920500Y-65072982D01*
X93920500Y-68023017D01*
X93931000Y-68125796D01*
X93986185Y-68292332D01*
X93986187Y-68292337D01*
X94004670Y-68322302D01*
X94078288Y-68441656D01*
X94202344Y-68565712D01*
X94351665Y-68657814D01*
X94518202Y-68712999D01*
X94620990Y-68723500D01*
X94620995Y-68723500D01*
X95621005Y-68723500D01*
X95621010Y-68723500D01*
X95723798Y-68712999D01*
X95850898Y-68670881D01*
X95920724Y-68668480D01*
X95980766Y-68704212D01*
X96011959Y-68766732D01*
X96013900Y-68788588D01*
X96013900Y-72527730D01*
X96013899Y-72527748D01*
X96013899Y-72693454D01*
X96013898Y-72693454D01*
X96013899Y-72693457D01*
X96054823Y-72846185D01*
X96081197Y-72891865D01*
X96133879Y-72983114D01*
X96133881Y-72983117D01*
X96252749Y-73101985D01*
X96252755Y-73101990D01*
X96469084Y-73318319D01*
X96502569Y-73379642D01*
X96497585Y-73449334D01*
X96455713Y-73505267D01*
X96390249Y-73529684D01*
X96381403Y-73530000D01*
X95659000Y-73530000D01*
X95659000Y-76329999D01*
X96458972Y-76329999D01*
X96458986Y-76329998D01*
X96561695Y-76319506D01*
X96622144Y-76299475D01*
X96691973Y-76297073D01*
X96752015Y-76332804D01*
X96783208Y-76395325D01*
X96775648Y-76464784D01*
X96764251Y-76486072D01*
X96699609Y-76582814D01*
X96699602Y-76582827D01*
X96639264Y-76728498D01*
X96639261Y-76728510D01*
X96608500Y-76883153D01*
X96608500Y-77040846D01*
X96639261Y-77195489D01*
X96639264Y-77195501D01*
X96699602Y-77341172D01*
X96699609Y-77341185D01*
X96787210Y-77472288D01*
X96787213Y-77472292D01*
X96898707Y-77583786D01*
X96898711Y-77583789D01*
X97029814Y-77671390D01*
X97029827Y-77671397D01*
X97143676Y-77718554D01*
X97175503Y-77731737D01*
X97291810Y-77754872D01*
X97330153Y-77762499D01*
X97330156Y-77762500D01*
X97330158Y-77762500D01*
X97487844Y-77762500D01*
X97487845Y-77762499D01*
X97642497Y-77731737D01*
X97788179Y-77671394D01*
X97919289Y-77583789D01*
X98030789Y-77472289D01*
X98118394Y-77341179D01*
X98178737Y-77195497D01*
X98209500Y-77040842D01*
X98209500Y-76883158D01*
X98209500Y-76883155D01*
X98209499Y-76883153D01*
X98184918Y-76759576D01*
X98178737Y-76728503D01*
X98158864Y-76680524D01*
X98118397Y-76582827D01*
X98118390Y-76582814D01*
X98054200Y-76486747D01*
X98033322Y-76420069D01*
X98051807Y-76352689D01*
X98103785Y-76305999D01*
X98172755Y-76294823D01*
X98196293Y-76300147D01*
X98256203Y-76319999D01*
X98358991Y-76330500D01*
X99864216Y-76330499D01*
X99931255Y-76350184D01*
X99951897Y-76366818D01*
X101359750Y-77774671D01*
X101393235Y-77835994D01*
X101388251Y-77905686D01*
X101359752Y-77950032D01*
X101309248Y-78000537D01*
X101199814Y-78164315D01*
X101199807Y-78164328D01*
X101124430Y-78346306D01*
X101124427Y-78346318D01*
X101086000Y-78539504D01*
X101086000Y-78938000D01*
X101786000Y-78938000D01*
X101786000Y-79438000D01*
X101086000Y-79438000D01*
X101086000Y-79661900D01*
X101066315Y-79728939D01*
X101013511Y-79774694D01*
X100962000Y-79785900D01*
X100954555Y-79785900D01*
X100799910Y-79816661D01*
X100799898Y-79816664D01*
X100654227Y-79877002D01*
X100654214Y-79877009D01*
X100523111Y-79964610D01*
X100523107Y-79964613D01*
X100411613Y-80076107D01*
X100411610Y-80076111D01*
X100324009Y-80207214D01*
X100324002Y-80207227D01*
X100263664Y-80352898D01*
X100263661Y-80352910D01*
X100232900Y-80507553D01*
X100232900Y-80665246D01*
X100263661Y-80819889D01*
X100263664Y-80819901D01*
X100324002Y-80965572D01*
X100324009Y-80965585D01*
X100411610Y-81096688D01*
X100411613Y-81096692D01*
X100523107Y-81208186D01*
X100523111Y-81208189D01*
X100654214Y-81295790D01*
X100654227Y-81295797D01*
X100781156Y-81348372D01*
X100799903Y-81356137D01*
X100954553Y-81386899D01*
X100954556Y-81386900D01*
X100954558Y-81386900D01*
X101112244Y-81386900D01*
X101112245Y-81386899D01*
X101266897Y-81356137D01*
X101412579Y-81295794D01*
X101423006Y-81288827D01*
X101544275Y-81207798D01*
X101610953Y-81186920D01*
X101613166Y-81186900D01*
X103824831Y-81186900D01*
X103824847Y-81186901D01*
X103832443Y-81186901D01*
X103990554Y-81186901D01*
X103990557Y-81186901D01*
X104143285Y-81145977D01*
X104193404Y-81117039D01*
X104280216Y-81066920D01*
X104392020Y-80955116D01*
X104392020Y-80955114D01*
X104402228Y-80944907D01*
X104402229Y-80944904D01*
X105591369Y-79755767D01*
X105599313Y-79751429D01*
X105604738Y-79744182D01*
X105629500Y-79734945D01*
X105652692Y-79722282D01*
X105661720Y-79722927D01*
X105670202Y-79719764D01*
X105696023Y-79725380D01*
X105722384Y-79727266D01*
X105731436Y-79733084D01*
X105738475Y-79734615D01*
X105766727Y-79755764D01*
X105766730Y-79755766D01*
X105787284Y-79776320D01*
X105787285Y-79776320D01*
X105988484Y-79977520D01*
X105988486Y-79977521D01*
X105988490Y-79977524D01*
X106125409Y-80056573D01*
X106125412Y-80056575D01*
X106125416Y-80056577D01*
X106278143Y-80097501D01*
X106278145Y-80097501D01*
X106443854Y-80097501D01*
X106443870Y-80097500D01*
X106808131Y-80097500D01*
X106808147Y-80097501D01*
X106815743Y-80097501D01*
X106973854Y-80097501D01*
X106973857Y-80097501D01*
X107126585Y-80056577D01*
X107126587Y-80056575D01*
X107126589Y-80056575D01*
X107126590Y-80056574D01*
X107178119Y-80026824D01*
X107178120Y-80026823D01*
X107263516Y-79977520D01*
X107375320Y-79865716D01*
X107375320Y-79865715D01*
X107392753Y-79848282D01*
X107392762Y-79848272D01*
X107516219Y-79724818D01*
X107577542Y-79691333D01*
X107603899Y-79688500D01*
X107768713Y-79688500D01*
X107768720Y-79688500D01*
X107881236Y-79673687D01*
X107881236Y-79673686D01*
X107889295Y-79672626D01*
X107889698Y-79675689D01*
X107922302Y-79675689D01*
X107922705Y-79672626D01*
X107930763Y-79673686D01*
X107930764Y-79673687D01*
X108043280Y-79688500D01*
X108043287Y-79688500D01*
X108268713Y-79688500D01*
X108268720Y-79688500D01*
X108381236Y-79673687D01*
X108395086Y-79667949D01*
X108458945Y-79659597D01*
X108468177Y-79660829D01*
X108553431Y-79685598D01*
X108590306Y-79688500D01*
X108675541Y-79688500D01*
X108683702Y-79689589D01*
X108708408Y-79700570D01*
X108734340Y-79708185D01*
X108739852Y-79714547D01*
X108747549Y-79717968D01*
X108762396Y-79740564D01*
X108780095Y-79760989D01*
X108785262Y-79775363D01*
X108785918Y-79776360D01*
X108785926Y-79777209D01*
X108787073Y-79780398D01*
X108805263Y-79848282D01*
X108815632Y-79886978D01*
X108883495Y-80004520D01*
X108883497Y-80004522D01*
X108883498Y-80004524D01*
X108979476Y-80100502D01*
X108979477Y-80100503D01*
X108979479Y-80100504D01*
X109097021Y-80168367D01*
X109097022Y-80168367D01*
X109097025Y-80168369D01*
X109228133Y-80203500D01*
X109228135Y-80203500D01*
X109363865Y-80203500D01*
X109363867Y-80203500D01*
X109494975Y-80168369D01*
X109612524Y-80100502D01*
X109612528Y-80100497D01*
X109618970Y-80095555D01*
X109620497Y-80097545D01*
X109670753Y-80070092D01*
X109740446Y-80075063D01*
X109796387Y-80116924D01*
X109811695Y-80143800D01*
X109839809Y-80211675D01*
X109839814Y-80211684D01*
X109949248Y-80375462D01*
X109949251Y-80375466D01*
X110088533Y-80514748D01*
X110088537Y-80514751D01*
X110252315Y-80624185D01*
X110252328Y-80624192D01*
X110434308Y-80699569D01*
X110476000Y-80707862D01*
X110476000Y-79904988D01*
X110485940Y-79922205D01*
X110541795Y-79978060D01*
X110610204Y-80017556D01*
X110686504Y-80038000D01*
X110765496Y-80038000D01*
X110841796Y-80017556D01*
X110910205Y-79978060D01*
X110966060Y-79922205D01*
X110976000Y-79904988D01*
X110976000Y-80707862D01*
X111017690Y-80699569D01*
X111017692Y-80699569D01*
X111199671Y-80624192D01*
X111199684Y-80624185D01*
X111363462Y-80514751D01*
X111363466Y-80514748D01*
X111376258Y-80501957D01*
X111502748Y-80375466D01*
X111502751Y-80375462D01*
X111612185Y-80211684D01*
X111612192Y-80211671D01*
X111687569Y-80029693D01*
X111687572Y-80029681D01*
X111725999Y-79836495D01*
X111726000Y-79836492D01*
X111726000Y-79493155D01*
X114220000Y-79493155D01*
X114220000Y-80141000D01*
X115136988Y-80141000D01*
X115104075Y-80198007D01*
X115070000Y-80325174D01*
X115070000Y-80456826D01*
X115104075Y-80583993D01*
X115136988Y-80641000D01*
X114220000Y-80641000D01*
X114220000Y-81288844D01*
X114226401Y-81348372D01*
X114226403Y-81348379D01*
X114276645Y-81483086D01*
X114276649Y-81483093D01*
X114362809Y-81598187D01*
X114362812Y-81598190D01*
X114477906Y-81684350D01*
X114477913Y-81684354D01*
X114612620Y-81734596D01*
X114612619Y-81734596D01*
X114695444Y-81743501D01*
X114695116Y-81746550D01*
X114712014Y-81745642D01*
X114771196Y-81778642D01*
X115440591Y-82448037D01*
X115377007Y-82465075D01*
X115262993Y-82530901D01*
X115169901Y-82623993D01*
X115104075Y-82738007D01*
X115087037Y-82801591D01*
X114454728Y-82169282D01*
X114454727Y-82169282D01*
X114415380Y-82223439D01*
X114318904Y-82412782D01*
X114253242Y-82614869D01*
X114253242Y-82614872D01*
X114220000Y-82824753D01*
X114220000Y-83037246D01*
X114253242Y-83247127D01*
X114253242Y-83247130D01*
X114318904Y-83449217D01*
X114415375Y-83638550D01*
X114454728Y-83692716D01*
X115087037Y-83060408D01*
X115104075Y-83123993D01*
X115169901Y-83238007D01*
X115262993Y-83331099D01*
X115377007Y-83396925D01*
X115440590Y-83413962D01*
X114808282Y-84046269D01*
X114808282Y-84046270D01*
X114862449Y-84085624D01*
X115051782Y-84182095D01*
X115253870Y-84247757D01*
X115463754Y-84281000D01*
X115676246Y-84281000D01*
X115886127Y-84247757D01*
X115886130Y-84247757D01*
X116088217Y-84182095D01*
X116277554Y-84085622D01*
X116331716Y-84046270D01*
X116331717Y-84046270D01*
X115699408Y-83413962D01*
X115762993Y-83396925D01*
X115877007Y-83331099D01*
X115970099Y-83238007D01*
X116035925Y-83123993D01*
X116052962Y-83060409D01*
X116685270Y-83692717D01*
X116685270Y-83692716D01*
X116724622Y-83638554D01*
X116821095Y-83449217D01*
X116886757Y-83247130D01*
X116886757Y-83247127D01*
X116920000Y-83037246D01*
X116920000Y-82824753D01*
X116886757Y-82614872D01*
X116886757Y-82614869D01*
X116821095Y-82412782D01*
X116724624Y-82223449D01*
X116685270Y-82169282D01*
X116685269Y-82169282D01*
X116052962Y-82801590D01*
X116035925Y-82738007D01*
X115970099Y-82623993D01*
X115877007Y-82530901D01*
X115762993Y-82465075D01*
X115699409Y-82448037D01*
X116368802Y-81778642D01*
X116430125Y-81745157D01*
X116444833Y-81746078D01*
X116444556Y-81743501D01*
X116527375Y-81734598D01*
X116662086Y-81684354D01*
X116662093Y-81684350D01*
X116777187Y-81598190D01*
X116777190Y-81598187D01*
X116863350Y-81483093D01*
X116863354Y-81483086D01*
X116913596Y-81348379D01*
X116913598Y-81348372D01*
X116919999Y-81288844D01*
X116920000Y-81288827D01*
X116920000Y-80641000D01*
X116003012Y-80641000D01*
X116035925Y-80583993D01*
X116070000Y-80456826D01*
X116070000Y-80325174D01*
X116035925Y-80198007D01*
X116003012Y-80141000D01*
X116920000Y-80141000D01*
X116920000Y-79493172D01*
X116919999Y-79493155D01*
X116913598Y-79433627D01*
X116913596Y-79433620D01*
X116863354Y-79298913D01*
X116863350Y-79298906D01*
X116777190Y-79183812D01*
X116777187Y-79183809D01*
X116662093Y-79097649D01*
X116662086Y-79097645D01*
X116527379Y-79047403D01*
X116527372Y-79047401D01*
X116467844Y-79041000D01*
X115820000Y-79041000D01*
X115820000Y-79957988D01*
X115762993Y-79925075D01*
X115635826Y-79891000D01*
X115504174Y-79891000D01*
X115377007Y-79925075D01*
X115320000Y-79957988D01*
X115320000Y-79041000D01*
X114672155Y-79041000D01*
X114612627Y-79047401D01*
X114612620Y-79047403D01*
X114477913Y-79097645D01*
X114477906Y-79097649D01*
X114362812Y-79183809D01*
X114362809Y-79183812D01*
X114276649Y-79298906D01*
X114276645Y-79298913D01*
X114226403Y-79433620D01*
X114226401Y-79433627D01*
X114220000Y-79493155D01*
X111726000Y-79493155D01*
X111726000Y-79438000D01*
X111026000Y-79438000D01*
X111026000Y-78938000D01*
X111726000Y-78938000D01*
X111726000Y-78539508D01*
X111725999Y-78539504D01*
X111687572Y-78346318D01*
X111687569Y-78346306D01*
X111612192Y-78164328D01*
X111612185Y-78164315D01*
X111502751Y-78000537D01*
X111502748Y-78000533D01*
X111363466Y-77861251D01*
X111363462Y-77861248D01*
X111199684Y-77751814D01*
X111199671Y-77751807D01*
X111017691Y-77676429D01*
X111017683Y-77676427D01*
X110976000Y-77668135D01*
X110976000Y-78471011D01*
X110966060Y-78453795D01*
X110910205Y-78397940D01*
X110841796Y-78358444D01*
X110765496Y-78338000D01*
X110686504Y-78338000D01*
X110610204Y-78358444D01*
X110541795Y-78397940D01*
X110485940Y-78453795D01*
X110476000Y-78471011D01*
X110476000Y-77668136D01*
X110475999Y-77668135D01*
X110434316Y-77676427D01*
X110434308Y-77676429D01*
X110319483Y-77723991D01*
X110250013Y-77731460D01*
X110187534Y-77700184D01*
X110184348Y-77697110D01*
X110157556Y-77670317D01*
X110157552Y-77670314D01*
X110016196Y-77586717D01*
X110016193Y-77586716D01*
X109858494Y-77540900D01*
X109858497Y-77540900D01*
X109856000Y-77540703D01*
X109856000Y-79219612D01*
X109836315Y-79286651D01*
X109783511Y-79332406D01*
X109714353Y-79342350D01*
X109650797Y-79313325D01*
X109644319Y-79307293D01*
X109627086Y-79290060D01*
X109593601Y-79228737D01*
X109595690Y-79167784D01*
X109603598Y-79140569D01*
X109606500Y-79103694D01*
X109606500Y-78122306D01*
X109603598Y-78085431D01*
X109557744Y-77927602D01*
X109474081Y-77786135D01*
X109474079Y-77786133D01*
X109474076Y-77786129D01*
X109442819Y-77754872D01*
X109428115Y-77727944D01*
X109411523Y-77702126D01*
X109410631Y-77695925D01*
X109409334Y-77693549D01*
X109406500Y-77667191D01*
X109406500Y-77534632D01*
X109426185Y-77467593D01*
X109427339Y-77465829D01*
X109436394Y-77452279D01*
X109496737Y-77306597D01*
X109527500Y-77151942D01*
X109527500Y-76994258D01*
X109527500Y-76994255D01*
X109527499Y-76994253D01*
X109496737Y-76839603D01*
X109480540Y-76800499D01*
X109436397Y-76693927D01*
X109436390Y-76693914D01*
X109348789Y-76562811D01*
X109348786Y-76562807D01*
X109311537Y-76525558D01*
X109278052Y-76464235D01*
X109283036Y-76394543D01*
X109311535Y-76350198D01*
X109959506Y-75702228D01*
X109959511Y-75702224D01*
X109969714Y-75692020D01*
X109969716Y-75692020D01*
X110081520Y-75580216D01*
X110142079Y-75475324D01*
X110160577Y-75443285D01*
X110201500Y-75290557D01*
X110201500Y-75132443D01*
X110201500Y-72600065D01*
X110221185Y-72533026D01*
X110222398Y-72531174D01*
X110310390Y-72399485D01*
X110310390Y-72399484D01*
X110310394Y-72399479D01*
X110370737Y-72253797D01*
X110401500Y-72099142D01*
X110401500Y-72062922D01*
X110421185Y-71995883D01*
X110473989Y-71950128D01*
X110543147Y-71940184D01*
X110564496Y-71945214D01*
X110624203Y-71964999D01*
X110726991Y-71975500D01*
X111439401Y-71975499D01*
X111461104Y-71981871D01*
X111483650Y-71983663D01*
X111497265Y-71992489D01*
X111506440Y-71995183D01*
X111514492Y-72000821D01*
X111521156Y-72005892D01*
X111591784Y-72076520D01*
X111676891Y-72125656D01*
X111728715Y-72155577D01*
X111881442Y-72196500D01*
X111881443Y-72196500D01*
X113092206Y-72196500D01*
X113159245Y-72216185D01*
X113205000Y-72268989D01*
X113211182Y-72285563D01*
X113217180Y-72305989D01*
X113217182Y-72305994D01*
X113294967Y-72427030D01*
X113294969Y-72427032D01*
X113403706Y-72521254D01*
X113417926Y-72527748D01*
X113534580Y-72581023D01*
X113534583Y-72581023D01*
X113534584Y-72581024D01*
X113677000Y-72601500D01*
X114531903Y-72601500D01*
X114598942Y-72621185D01*
X114619584Y-72637819D01*
X115190583Y-73208819D01*
X115224068Y-73270142D01*
X115219084Y-73339834D01*
X115177212Y-73395767D01*
X115111748Y-73420184D01*
X115102902Y-73420500D01*
X112845978Y-73420500D01*
X112765669Y-73426923D01*
X112765656Y-73426926D01*
X112628310Y-73469773D01*
X112628308Y-73469775D01*
X112508595Y-73549584D01*
X112416211Y-73659894D01*
X112358651Y-73791754D01*
X112340570Y-73934490D01*
X112363438Y-74076545D01*
X112363439Y-74076548D01*
X112425399Y-74206401D01*
X112692609Y-74607216D01*
X112713417Y-74673915D01*
X112694862Y-74741276D01*
X112692609Y-74744782D01*
X112425399Y-75145598D01*
X112386182Y-75216005D01*
X112386179Y-75216012D01*
X112345645Y-75354058D01*
X112345645Y-75354060D01*
X112345645Y-75497940D01*
X112369803Y-75580215D01*
X112386182Y-75635994D01*
X112463967Y-75757030D01*
X112463969Y-75757032D01*
X112572706Y-75851254D01*
X112592238Y-75860174D01*
X112703580Y-75911023D01*
X112703583Y-75911023D01*
X112703584Y-75911024D01*
X112846000Y-75931500D01*
X113257903Y-75931500D01*
X113324942Y-75951185D01*
X113345584Y-75967819D01*
X113942139Y-76564374D01*
X113942149Y-76564385D01*
X113946479Y-76568715D01*
X113946480Y-76568716D01*
X114058284Y-76680520D01*
X114058286Y-76680521D01*
X114058290Y-76680524D01*
X114195209Y-76759573D01*
X114195216Y-76759577D01*
X114290309Y-76785057D01*
X114347942Y-76800500D01*
X114347943Y-76800500D01*
X116118331Y-76800500D01*
X116118347Y-76800501D01*
X116125943Y-76800501D01*
X116284054Y-76800501D01*
X116284057Y-76800501D01*
X116436785Y-76759577D01*
X116505360Y-76719985D01*
X116573716Y-76680520D01*
X116685520Y-76568716D01*
X116685520Y-76568714D01*
X116695724Y-76558511D01*
X116695728Y-76558506D01*
X117003886Y-76250347D01*
X117009637Y-76244952D01*
X117018880Y-76236818D01*
X117068416Y-76208220D01*
X117180220Y-76096416D01*
X117180221Y-76096413D01*
X117236206Y-76040428D01*
X117236211Y-76040424D01*
X117246414Y-76030220D01*
X117246416Y-76030220D01*
X117287819Y-75988817D01*
X117349142Y-75955332D01*
X117418834Y-75960316D01*
X117474767Y-76002188D01*
X117499184Y-76067652D01*
X117499500Y-76076498D01*
X117499500Y-86375500D01*
X117479815Y-86442539D01*
X117427011Y-86488294D01*
X117375500Y-86499500D01*
X93624500Y-86499500D01*
X93557461Y-86479815D01*
X93511706Y-86427011D01*
X93500500Y-86375500D01*
X93500500Y-79493155D01*
X94535000Y-79493155D01*
X94535000Y-80141000D01*
X95451988Y-80141000D01*
X95419075Y-80198007D01*
X95385000Y-80325174D01*
X95385000Y-80456826D01*
X95419075Y-80583993D01*
X95451988Y-80641000D01*
X94535000Y-80641000D01*
X94535000Y-81288844D01*
X94541401Y-81348372D01*
X94541403Y-81348379D01*
X94591645Y-81483086D01*
X94591649Y-81483093D01*
X94677809Y-81598187D01*
X94677812Y-81598190D01*
X94792906Y-81684350D01*
X94792913Y-81684354D01*
X94927620Y-81734596D01*
X94927619Y-81734596D01*
X95010444Y-81743501D01*
X95010116Y-81746550D01*
X95027014Y-81745642D01*
X95086196Y-81778642D01*
X95755591Y-82448037D01*
X95692007Y-82465075D01*
X95577993Y-82530901D01*
X95484901Y-82623993D01*
X95419075Y-82738007D01*
X95402037Y-82801591D01*
X94769728Y-82169282D01*
X94769727Y-82169282D01*
X94730380Y-82223439D01*
X94633904Y-82412782D01*
X94568242Y-82614869D01*
X94568242Y-82614872D01*
X94535000Y-82824753D01*
X94535000Y-83037246D01*
X94568242Y-83247127D01*
X94568242Y-83247130D01*
X94633904Y-83449217D01*
X94730375Y-83638550D01*
X94769728Y-83692716D01*
X95402037Y-83060408D01*
X95419075Y-83123993D01*
X95484901Y-83238007D01*
X95577993Y-83331099D01*
X95692007Y-83396925D01*
X95755590Y-83413962D01*
X95123282Y-84046269D01*
X95123282Y-84046270D01*
X95177449Y-84085624D01*
X95366782Y-84182095D01*
X95568870Y-84247757D01*
X95778754Y-84281000D01*
X95991246Y-84281000D01*
X96201127Y-84247757D01*
X96201130Y-84247757D01*
X96403217Y-84182095D01*
X96592554Y-84085622D01*
X96646716Y-84046270D01*
X96646717Y-84046270D01*
X96014408Y-83413962D01*
X96077993Y-83396925D01*
X96192007Y-83331099D01*
X96285099Y-83238007D01*
X96350925Y-83123993D01*
X96367962Y-83060409D01*
X97000270Y-83692717D01*
X97000270Y-83692716D01*
X97039622Y-83638554D01*
X97104950Y-83510343D01*
X97136095Y-83449217D01*
X97201757Y-83247130D01*
X97201757Y-83247127D01*
X97235000Y-83037246D01*
X97235000Y-82869504D01*
X101086000Y-82869504D01*
X101086000Y-83118000D01*
X101786000Y-83118000D01*
X101786000Y-83618000D01*
X101086000Y-83618000D01*
X101086000Y-83866495D01*
X101124427Y-84059681D01*
X101124430Y-84059693D01*
X101199807Y-84241671D01*
X101199814Y-84241684D01*
X101309248Y-84405462D01*
X101309251Y-84405466D01*
X101448533Y-84544748D01*
X101448537Y-84544751D01*
X101612315Y-84654185D01*
X101612328Y-84654192D01*
X101794308Y-84729569D01*
X101836000Y-84737862D01*
X101836000Y-83934988D01*
X101845940Y-83952205D01*
X101901795Y-84008060D01*
X101970204Y-84047556D01*
X102046504Y-84068000D01*
X102125496Y-84068000D01*
X102201796Y-84047556D01*
X102270205Y-84008060D01*
X102326060Y-83952205D01*
X102336000Y-83934988D01*
X102336000Y-84737862D01*
X102377690Y-84729569D01*
X102377692Y-84729569D01*
X102559671Y-84654192D01*
X102559684Y-84654185D01*
X102723462Y-84544751D01*
X102723466Y-84544748D01*
X102862748Y-84405466D01*
X102862751Y-84405462D01*
X102972185Y-84241684D01*
X102972192Y-84241671D01*
X103047569Y-84059693D01*
X103047572Y-84059681D01*
X103085999Y-83866495D01*
X103086000Y-83866492D01*
X103086000Y-83618000D01*
X102386000Y-83618000D01*
X102386000Y-83118000D01*
X103086000Y-83118000D01*
X103086000Y-82869508D01*
X103085999Y-82869504D01*
X109726000Y-82869504D01*
X109726000Y-83118000D01*
X110426000Y-83118000D01*
X110426000Y-83618000D01*
X109726000Y-83618000D01*
X109726000Y-83866495D01*
X109764427Y-84059681D01*
X109764430Y-84059693D01*
X109839807Y-84241671D01*
X109839814Y-84241684D01*
X109949248Y-84405462D01*
X109949251Y-84405466D01*
X110088533Y-84544748D01*
X110088537Y-84544751D01*
X110252315Y-84654185D01*
X110252328Y-84654192D01*
X110434308Y-84729569D01*
X110476000Y-84737862D01*
X110476000Y-83934988D01*
X110485940Y-83952205D01*
X110541795Y-84008060D01*
X110610204Y-84047556D01*
X110686504Y-84068000D01*
X110765496Y-84068000D01*
X110841796Y-84047556D01*
X110910205Y-84008060D01*
X110966060Y-83952205D01*
X110976000Y-83934988D01*
X110976000Y-84737862D01*
X111017690Y-84729569D01*
X111017692Y-84729569D01*
X111199671Y-84654192D01*
X111199684Y-84654185D01*
X111363462Y-84544751D01*
X111363466Y-84544748D01*
X111502748Y-84405466D01*
X111502751Y-84405462D01*
X111612185Y-84241684D01*
X111612192Y-84241671D01*
X111687569Y-84059693D01*
X111687572Y-84059681D01*
X111704453Y-83974820D01*
X111725999Y-83866495D01*
X111726000Y-83866492D01*
X111726000Y-83618000D01*
X111026000Y-83618000D01*
X111026000Y-83118000D01*
X111726000Y-83118000D01*
X111726000Y-82869510D01*
X111720940Y-82844071D01*
X111720940Y-82844068D01*
X111687572Y-82676318D01*
X111687569Y-82676306D01*
X111612192Y-82494328D01*
X111612185Y-82494315D01*
X111502751Y-82330537D01*
X111502748Y-82330533D01*
X111363466Y-82191251D01*
X111363462Y-82191248D01*
X111199684Y-82081814D01*
X111199671Y-82081807D01*
X111017691Y-82006429D01*
X111017683Y-82006427D01*
X110976000Y-81998135D01*
X110976000Y-82801011D01*
X110966060Y-82783795D01*
X110910205Y-82727940D01*
X110841796Y-82688444D01*
X110765496Y-82668000D01*
X110686504Y-82668000D01*
X110610204Y-82688444D01*
X110541795Y-82727940D01*
X110485940Y-82783795D01*
X110476000Y-82801011D01*
X110476000Y-81998136D01*
X110475999Y-81998135D01*
X110434316Y-82006427D01*
X110434308Y-82006429D01*
X110252328Y-82081807D01*
X110252315Y-82081814D01*
X110088537Y-82191248D01*
X110088533Y-82191251D01*
X109949251Y-82330533D01*
X109949248Y-82330537D01*
X109839814Y-82494315D01*
X109839807Y-82494328D01*
X109764430Y-82676306D01*
X109764427Y-82676318D01*
X109726000Y-82869504D01*
X103085999Y-82869504D01*
X103047572Y-82676318D01*
X103047569Y-82676306D01*
X102972192Y-82494328D01*
X102972185Y-82494315D01*
X102862751Y-82330537D01*
X102862748Y-82330533D01*
X102723466Y-82191251D01*
X102723462Y-82191248D01*
X102559684Y-82081814D01*
X102559671Y-82081807D01*
X102377691Y-82006429D01*
X102377683Y-82006427D01*
X102336000Y-81998135D01*
X102336000Y-82801011D01*
X102326060Y-82783795D01*
X102270205Y-82727940D01*
X102201796Y-82688444D01*
X102125496Y-82668000D01*
X102046504Y-82668000D01*
X101970204Y-82688444D01*
X101901795Y-82727940D01*
X101845940Y-82783795D01*
X101836000Y-82801011D01*
X101836000Y-81998136D01*
X101835999Y-81998135D01*
X101794316Y-82006427D01*
X101794308Y-82006429D01*
X101612328Y-82081807D01*
X101612315Y-82081814D01*
X101448537Y-82191248D01*
X101448533Y-82191251D01*
X101309251Y-82330533D01*
X101309248Y-82330537D01*
X101199814Y-82494315D01*
X101199807Y-82494328D01*
X101124430Y-82676306D01*
X101124427Y-82676318D01*
X101086000Y-82869504D01*
X97235000Y-82869504D01*
X97235000Y-82824753D01*
X97201757Y-82614872D01*
X97201757Y-82614869D01*
X97136095Y-82412782D01*
X97039624Y-82223449D01*
X97000270Y-82169282D01*
X97000269Y-82169282D01*
X96367962Y-82801590D01*
X96350925Y-82738007D01*
X96285099Y-82623993D01*
X96192007Y-82530901D01*
X96077993Y-82465075D01*
X96014409Y-82448037D01*
X96683802Y-81778642D01*
X96745125Y-81745157D01*
X96759833Y-81746078D01*
X96759556Y-81743501D01*
X96842375Y-81734598D01*
X96977086Y-81684354D01*
X96977093Y-81684350D01*
X97092187Y-81598190D01*
X97092190Y-81598187D01*
X97178350Y-81483093D01*
X97178354Y-81483086D01*
X97228596Y-81348379D01*
X97228598Y-81348372D01*
X97234999Y-81288844D01*
X97235000Y-81288827D01*
X97235000Y-80641000D01*
X96318012Y-80641000D01*
X96350925Y-80583993D01*
X96385000Y-80456826D01*
X96385000Y-80325174D01*
X96350925Y-80198007D01*
X96318012Y-80141000D01*
X97235000Y-80141000D01*
X97235000Y-79493172D01*
X97234999Y-79493155D01*
X97228598Y-79433627D01*
X97228596Y-79433620D01*
X97178354Y-79298913D01*
X97178350Y-79298906D01*
X97092190Y-79183812D01*
X97092187Y-79183809D01*
X96977093Y-79097649D01*
X96977086Y-79097645D01*
X96842379Y-79047403D01*
X96842372Y-79047401D01*
X96782844Y-79041000D01*
X96135000Y-79041000D01*
X96135000Y-79957988D01*
X96077993Y-79925075D01*
X95950826Y-79891000D01*
X95819174Y-79891000D01*
X95692007Y-79925075D01*
X95635000Y-79957988D01*
X95635000Y-79041000D01*
X94987155Y-79041000D01*
X94927627Y-79047401D01*
X94927620Y-79047403D01*
X94792913Y-79097645D01*
X94792906Y-79097649D01*
X94677812Y-79183809D01*
X94677809Y-79183812D01*
X94591649Y-79298906D01*
X94591645Y-79298913D01*
X94541403Y-79433620D01*
X94541401Y-79433627D01*
X94535000Y-79493155D01*
X93500500Y-79493155D01*
X93500500Y-75972968D01*
X93520185Y-75905929D01*
X93572989Y-75860174D01*
X93642147Y-75850230D01*
X93705703Y-75879255D01*
X93730039Y-75907871D01*
X93816684Y-76048345D01*
X93940654Y-76172315D01*
X94089875Y-76264356D01*
X94089880Y-76264358D01*
X94256302Y-76319505D01*
X94256309Y-76319506D01*
X94359019Y-76329999D01*
X95158999Y-76329999D01*
X95159000Y-76329998D01*
X95159000Y-73530000D01*
X94359028Y-73530000D01*
X94359012Y-73530001D01*
X94256302Y-73540494D01*
X94089880Y-73595641D01*
X94089875Y-73595643D01*
X93940654Y-73687684D01*
X93816683Y-73811655D01*
X93816680Y-73811659D01*
X93730038Y-73952128D01*
X93678090Y-73998853D01*
X93609128Y-74010074D01*
X93545046Y-73982231D01*
X93506190Y-73924162D01*
X93500500Y-73887031D01*
X93500500Y-53149500D01*
X93520185Y-53082461D01*
X93572989Y-53036706D01*
X93624500Y-53025500D01*
X117375500Y-53025500D01*
X117442539Y-53045185D01*
G37*
%TD.AperFunction*%
%TA.AperFunction,Conductor*%
G36*
X103148539Y-78382685D02*
G01*
X103194294Y-78435489D01*
X103205500Y-78487000D01*
X103205500Y-79103701D01*
X103208401Y-79140563D01*
X103208402Y-79140568D01*
X103216309Y-79167784D01*
X103216109Y-79237653D01*
X103184916Y-79290057D01*
X103167684Y-79307290D01*
X103106362Y-79340776D01*
X103036670Y-79335794D01*
X102980735Y-79293924D01*
X102956316Y-79228461D01*
X102956000Y-79219611D01*
X102956000Y-78863000D01*
X102400000Y-78863000D01*
X102386000Y-78858889D01*
X102386000Y-78598504D01*
X102365556Y-78522204D01*
X102326060Y-78453795D01*
X102294899Y-78422634D01*
X102295685Y-78419961D01*
X102348489Y-78374206D01*
X102400000Y-78363000D01*
X103081500Y-78363000D01*
X103148539Y-78382685D01*
G37*
%TD.AperFunction*%
%TA.AperFunction,Conductor*%
G36*
X107541231Y-71708185D02*
G01*
X107561874Y-71724820D01*
X107593129Y-71756076D01*
X107593133Y-71756079D01*
X107593135Y-71756081D01*
X107734602Y-71839744D01*
X107776224Y-71851836D01*
X107892426Y-71885597D01*
X107892429Y-71885597D01*
X107892431Y-71885598D01*
X107929306Y-71888500D01*
X108676500Y-71888500D01*
X108743539Y-71908185D01*
X108789294Y-71960989D01*
X108800500Y-72012500D01*
X108800500Y-72099146D01*
X108831261Y-72253789D01*
X108831264Y-72253801D01*
X108891602Y-72399472D01*
X108891609Y-72399485D01*
X108979602Y-72531174D01*
X109000480Y-72597851D01*
X109000500Y-72600065D01*
X109000500Y-74911402D01*
X108980815Y-74978441D01*
X108964181Y-74999083D01*
X108555402Y-75407861D01*
X108494079Y-75441346D01*
X108424387Y-75436362D01*
X108380040Y-75407861D01*
X108330992Y-75358813D01*
X108330988Y-75358810D01*
X108199885Y-75271209D01*
X108199872Y-75271202D01*
X108054201Y-75210864D01*
X108054189Y-75210861D01*
X107893568Y-75178911D01*
X107893952Y-75176978D01*
X107837582Y-75154199D01*
X107811375Y-75125760D01*
X107702712Y-74962765D01*
X107557389Y-74744782D01*
X107536582Y-74678084D01*
X107555137Y-74610723D01*
X107557390Y-74607217D01*
X107557391Y-74607216D01*
X107824601Y-74206401D01*
X107863819Y-74135992D01*
X107904355Y-73997940D01*
X107904355Y-73854060D01*
X107863819Y-73716008D01*
X107786171Y-73595186D01*
X107786032Y-73594969D01*
X107786028Y-73594965D01*
X107677299Y-73500750D01*
X107677297Y-73500748D01*
X107677294Y-73500746D01*
X107677290Y-73500744D01*
X107546419Y-73440976D01*
X107546414Y-73440975D01*
X107404000Y-73420500D01*
X105004000Y-73420500D01*
X105003978Y-73420500D01*
X104923669Y-73426923D01*
X104923658Y-73426925D01*
X104901427Y-73433861D01*
X104831567Y-73435034D01*
X104772163Y-73398251D01*
X104742076Y-73335192D01*
X104740500Y-73315487D01*
X104740500Y-72817097D01*
X104760185Y-72750058D01*
X104776819Y-72729416D01*
X105781416Y-71724819D01*
X105842739Y-71691334D01*
X105869097Y-71688500D01*
X107474192Y-71688500D01*
X107541231Y-71708185D01*
G37*
%TD.AperFunction*%
%TA.AperFunction,Conductor*%
G36*
X115844942Y-66279185D02*
G01*
X115865584Y-66295819D01*
X116240881Y-66671116D01*
X116274366Y-66732439D01*
X116277200Y-66758797D01*
X116277200Y-72297602D01*
X116257515Y-72364641D01*
X116204711Y-72410396D01*
X116135553Y-72420340D01*
X116071997Y-72391315D01*
X116065519Y-72385283D01*
X115718819Y-72038583D01*
X115685334Y-71977260D01*
X115682500Y-71950902D01*
X115682500Y-71096015D01*
X115682499Y-71095984D01*
X115678493Y-71032482D01*
X115678493Y-71032478D01*
X115665659Y-70985891D01*
X115662469Y-70935318D01*
X115682500Y-70796000D01*
X115682500Y-68396000D01*
X115682499Y-68395997D01*
X115682499Y-68395978D01*
X115676076Y-68315669D01*
X115676075Y-68315666D01*
X115676075Y-68315662D01*
X115656709Y-68253584D01*
X115633226Y-68178310D01*
X115633224Y-68178308D01*
X115553415Y-68058595D01*
X115443110Y-67966214D01*
X115443107Y-67966212D01*
X115443105Y-67966211D01*
X115311245Y-67908651D01*
X115168509Y-67890570D01*
X115026454Y-67913438D01*
X115026451Y-67913439D01*
X114896598Y-67975399D01*
X114495783Y-68242609D01*
X114429084Y-68263417D01*
X114361723Y-68244862D01*
X114358217Y-68242609D01*
X113957401Y-67975399D01*
X113886994Y-67936182D01*
X113886987Y-67936179D01*
X113748942Y-67895645D01*
X113748940Y-67895645D01*
X113605060Y-67895645D01*
X113605059Y-67895645D01*
X113506846Y-67924483D01*
X113484684Y-67930991D01*
X113467005Y-67936182D01*
X113345969Y-68013967D01*
X113345965Y-68013971D01*
X113251750Y-68122700D01*
X113251744Y-68122709D01*
X113191976Y-68253580D01*
X113191975Y-68253585D01*
X113171500Y-68395999D01*
X113171500Y-68948674D01*
X113168118Y-68960189D01*
X113169260Y-68972137D01*
X113158456Y-68993094D01*
X113151815Y-69015713D01*
X113141945Y-69025123D01*
X113137246Y-69034241D01*
X113109504Y-69056059D01*
X113100435Y-69061295D01*
X113093395Y-69065360D01*
X113054183Y-69087999D01*
X113006585Y-69115479D01*
X113006582Y-69115481D01*
X112894780Y-69227284D01*
X112894776Y-69227288D01*
X112884178Y-69237885D01*
X112875704Y-69242511D01*
X112875882Y-69242777D01*
X112875879Y-69242779D01*
X112875701Y-69242512D01*
X112856965Y-69252742D01*
X112822859Y-69271366D01*
X112822853Y-69271366D01*
X112822853Y-69271367D01*
X112822851Y-69271366D01*
X112796501Y-69274200D01*
X112601000Y-69274200D01*
X112533961Y-69254515D01*
X112488206Y-69201711D01*
X112477000Y-69150200D01*
X112477000Y-69062500D01*
X111376000Y-69062500D01*
X111308961Y-69042815D01*
X111263206Y-68990011D01*
X111252000Y-68938500D01*
X111252000Y-68686500D01*
X111271685Y-68619461D01*
X111324489Y-68573706D01*
X111376000Y-68562500D01*
X112476999Y-68562500D01*
X112476999Y-68425028D01*
X112476998Y-68425013D01*
X112466505Y-68322302D01*
X112411358Y-68155880D01*
X112411356Y-68155875D01*
X112319315Y-68006654D01*
X112195345Y-67882684D01*
X112046124Y-67790643D01*
X112046119Y-67790641D01*
X111879697Y-67735494D01*
X111879690Y-67735493D01*
X111789746Y-67726304D01*
X111725054Y-67699907D01*
X111684903Y-67642727D01*
X111682040Y-67572916D01*
X111714665Y-67515269D01*
X112934116Y-66295819D01*
X112995439Y-66262334D01*
X113021797Y-66259500D01*
X115777903Y-66259500D01*
X115844942Y-66279185D01*
G37*
%TD.AperFunction*%
%TA.AperFunction,Conductor*%
G36*
X106342321Y-65132539D02*
G01*
X106459031Y-65176069D01*
X106465497Y-65178481D01*
X106476517Y-65182591D01*
X106536127Y-65189000D01*
X106886080Y-65188999D01*
X106953118Y-65208683D01*
X106998873Y-65261487D01*
X107008817Y-65330646D01*
X106993467Y-65374998D01*
X106983123Y-65392913D01*
X106980544Y-65402539D01*
X106942199Y-65545643D01*
X106942199Y-65545645D01*
X106942199Y-65713746D01*
X106942200Y-65713759D01*
X106942200Y-67359530D01*
X106942199Y-67359548D01*
X106942199Y-67525254D01*
X106942198Y-67525254D01*
X106942199Y-67525257D01*
X106983123Y-67677985D01*
X106989192Y-67688497D01*
X106989193Y-67688500D01*
X106989194Y-67688500D01*
X107062177Y-67814912D01*
X107062181Y-67814917D01*
X107181049Y-67933785D01*
X107181055Y-67933790D01*
X107308181Y-68060916D01*
X107341666Y-68122239D01*
X107344500Y-68148597D01*
X107344500Y-68303701D01*
X107347401Y-68340567D01*
X107347402Y-68340573D01*
X107393253Y-68498393D01*
X107408918Y-68524881D01*
X107426098Y-68592606D01*
X107408918Y-68651119D01*
X107393253Y-68677606D01*
X107347402Y-68835426D01*
X107347401Y-68835432D01*
X107344500Y-68872298D01*
X107344500Y-69303701D01*
X107347401Y-69340567D01*
X107347402Y-69340573D01*
X107393253Y-69498393D01*
X107408918Y-69524881D01*
X107426098Y-69592606D01*
X107408918Y-69651119D01*
X107393253Y-69677606D01*
X107347402Y-69835426D01*
X107347401Y-69835432D01*
X107344500Y-69872298D01*
X107344500Y-70303701D01*
X107347401Y-70340568D01*
X107347520Y-70341215D01*
X107347481Y-70341580D01*
X107347899Y-70346886D01*
X107346914Y-70346963D01*
X107340204Y-70410701D01*
X107296483Y-70465201D01*
X107230237Y-70487411D01*
X107225539Y-70487500D01*
X106507309Y-70487500D01*
X106440270Y-70467815D01*
X106419628Y-70451181D01*
X105912625Y-69944178D01*
X105994277Y-69978000D01*
X106095723Y-69978000D01*
X106189446Y-69939179D01*
X106261179Y-69867446D01*
X106300000Y-69773723D01*
X106300000Y-69722999D01*
X106398553Y-69722999D01*
X106398553Y-69723001D01*
X106839081Y-70163529D01*
X106839082Y-70163528D01*
X106847000Y-70151678D01*
X106847003Y-70151673D01*
X106915219Y-69986983D01*
X106915222Y-69986973D01*
X106950000Y-69812137D01*
X106950000Y-69633862D01*
X106915222Y-69459026D01*
X106915219Y-69459016D01*
X106847002Y-69294324D01*
X106839081Y-69282469D01*
X106398553Y-69722999D01*
X106300000Y-69722999D01*
X106300000Y-69672277D01*
X106261179Y-69578554D01*
X106189446Y-69506821D01*
X106095723Y-69468000D01*
X105994277Y-69468000D01*
X105900554Y-69506821D01*
X105828821Y-69578554D01*
X105790000Y-69672277D01*
X105790000Y-69773723D01*
X105823821Y-69855375D01*
X105727765Y-69759319D01*
X105257119Y-69288672D01*
X105223634Y-69227349D01*
X105220800Y-69200991D01*
X105220800Y-69088000D01*
X105763553Y-69088000D01*
X106045000Y-69369446D01*
X106045001Y-69369446D01*
X106326446Y-69088001D01*
X106326446Y-69087999D01*
X106045001Y-68806553D01*
X106045000Y-68806553D01*
X105763553Y-69088000D01*
X105220800Y-69088000D01*
X105220800Y-68975008D01*
X105240485Y-68907969D01*
X105257119Y-68887327D01*
X105691446Y-68453000D01*
X105691446Y-68452999D01*
X105640724Y-68402277D01*
X105790000Y-68402277D01*
X105790000Y-68503723D01*
X105828821Y-68597446D01*
X105900554Y-68669179D01*
X105994277Y-68708000D01*
X106095723Y-68708000D01*
X106189446Y-68669179D01*
X106261179Y-68597446D01*
X106300000Y-68503723D01*
X106300000Y-68452999D01*
X106398553Y-68452999D01*
X106398553Y-68453001D01*
X106839081Y-68893529D01*
X106839082Y-68893528D01*
X106847000Y-68881678D01*
X106847003Y-68881673D01*
X106915219Y-68716983D01*
X106915222Y-68716973D01*
X106950000Y-68542137D01*
X106950000Y-68363862D01*
X106915222Y-68189026D01*
X106915219Y-68189016D01*
X106847002Y-68024324D01*
X106839081Y-68012469D01*
X106398553Y-68452999D01*
X106300000Y-68452999D01*
X106300000Y-68402277D01*
X106261179Y-68308554D01*
X106189446Y-68236821D01*
X106095723Y-68198000D01*
X105994277Y-68198000D01*
X105900554Y-68236821D01*
X105828821Y-68308554D01*
X105790000Y-68402277D01*
X105640724Y-68402277D01*
X105257119Y-68018672D01*
X105242415Y-67991744D01*
X105225823Y-67965926D01*
X105224931Y-67959725D01*
X105223634Y-67957349D01*
X105220800Y-67930991D01*
X105220800Y-67658916D01*
X105604470Y-67658916D01*
X105604470Y-67658917D01*
X106045000Y-68099446D01*
X106045001Y-68099446D01*
X106485528Y-67658917D01*
X106473675Y-67650997D01*
X106308983Y-67582780D01*
X106308973Y-67582777D01*
X106134137Y-67548000D01*
X105955863Y-67548000D01*
X105781026Y-67582777D01*
X105781016Y-67582780D01*
X105616324Y-67650997D01*
X105616318Y-67651000D01*
X105604470Y-67658916D01*
X105220800Y-67658916D01*
X105220800Y-66442943D01*
X105220799Y-66442940D01*
X105213357Y-66415165D01*
X105203839Y-66379643D01*
X105179877Y-66290215D01*
X105142341Y-66225201D01*
X105100820Y-66153284D01*
X104989016Y-66041480D01*
X104989015Y-66041479D01*
X104984685Y-66037149D01*
X104984674Y-66037139D01*
X104350074Y-65402539D01*
X104341014Y-65385947D01*
X104327886Y-65372345D01*
X104317467Y-65342825D01*
X104316589Y-65341216D01*
X104316140Y-65339063D01*
X104315770Y-65337204D01*
X104321990Y-65267612D01*
X104364847Y-65212430D01*
X104430734Y-65189178D01*
X104437385Y-65188999D01*
X104791871Y-65188999D01*
X104791872Y-65188999D01*
X104851483Y-65182591D01*
X104985669Y-65132542D01*
X105055358Y-65127559D01*
X105072321Y-65132539D01*
X105206517Y-65182591D01*
X105266127Y-65189000D01*
X106061872Y-65188999D01*
X106121483Y-65182591D01*
X106255669Y-65132542D01*
X106325358Y-65127559D01*
X106342321Y-65132539D01*
G37*
%TD.AperFunction*%
%TD*%
M02*
