M48
; DRILL file {KiCad 9.0.3} date 2026-06-06T11:21:35+0900
; FORMAT={-:-/ absolute / metric / decimal}
; #@! TF.CreationDate,2026-06-06T11:21:35+09:00
; #@! TF.GenerationSoftware,Kicad,Pcbnew,9.0.3
; #@! TF.FileFunction,Plated,1,2,PTH
FMAT,2
METRIC
; #@! TA.AperFunction,Plated,PTH,ViaDrill
T1C0.300
; #@! TA.AperFunction,Plated,PTH,ComponentDrill
T2C0.510
; #@! TA.AperFunction,Plated,PTH,ComponentDrill
T3C0.600
; #@! TA.AperFunction,Plated,PTH,ComponentDrill
T4C1.000
%
G90
G05
T1
X96.614Y-67.864
X97.155Y-57.404
X97.409Y-76.962
X99.346Y-69.182
X100.92Y-68.93
X101.033Y-80.586
X101.656Y-71.276
X102.235Y-63.5
X102.631Y-65.5
X103.093Y-72.315
X103.515Y-65.417
X103.704Y-77.296
X107.821Y-75.981
X108.077Y-72.898
X108.3Y-65.738
X108.727Y-77.073
X108.966Y-72.898
X109.601Y-72.02
X110.612Y-66.741
X110.998Y-64.389
X112.776Y-67.691
X112.776Y-68.707
T2
X106.045Y-68.453
X106.045Y-69.723
T4
X95.885Y-54.864
X95.885Y-80.391
X95.885Y-82.931
X98.425Y-54.864
X100.965Y-54.864
X107.95Y-54.864
X110.49Y-54.864
X113.03Y-54.864
X115.57Y-54.864
X115.57Y-80.391
X115.57Y-82.931
T3
X102.086Y-78.638G85X102.086Y-79.738
G05
X102.086Y-82.968G85X102.086Y-83.768
G05
X110.726Y-78.638G85X110.726Y-79.738
G05
X110.726Y-82.968G85X110.726Y-83.768
G05
M30
