%TF.GenerationSoftware,KiCad,Pcbnew,9.0.3*%
%TF.CreationDate,2026-06-06T11:21:32+09:00*%
%TF.ProjectId,USBPD12VModule,55534250-4431-4325-964d-6f64756c652e,rev?*%
%TF.SameCoordinates,Original*%
%TF.FileFunction,Copper,L2,Bot*%
%TF.FilePolarity,Positive*%
%FSLAX46Y46*%
G04 Gerber Fmt 4.6, Leading zero omitted, Abs format (unit mm)*
G04 Created by KiCad (PCBNEW 9.0.3) date 2026-06-06 11:21:32*
%MOMM*%
%LPD*%
G01*
G04 APERTURE LIST*
%TA.AperFunction,ComponentPad*%
%ADD10R,1.700000X1.700000*%
%TD*%
%TA.AperFunction,ComponentPad*%
%ADD11C,1.700000*%
%TD*%
%TA.AperFunction,HeatsinkPad*%
%ADD12C,0.810000*%
%TD*%
%TA.AperFunction,HeatsinkPad*%
%ADD13R,0.810000X2.080000*%
%TD*%
%TA.AperFunction,HeatsinkPad*%
%ADD14O,1.000000X2.100000*%
%TD*%
%TA.AperFunction,HeatsinkPad*%
%ADD15O,1.000000X1.800000*%
%TD*%
%TA.AperFunction,ViaPad*%
%ADD16C,0.600000*%
%TD*%
%TA.AperFunction,Conductor*%
%ADD17C,1.000000*%
%TD*%
%TA.AperFunction,Conductor*%
%ADD18C,0.200000*%
%TD*%
%TA.AperFunction,Conductor*%
%ADD19C,0.500000*%
%TD*%
G04 APERTURE END LIST*
D10*
%TO.P,J4,1,Pin_1*%
%TO.N,GND*%
X115570000Y-80391000D03*
D11*
%TO.P,J4,2,Pin_2*%
X115570000Y-82931000D03*
%TD*%
D10*
%TO.P,J2,1,Pin_1*%
%TO.N,PG*%
X95885000Y-54864000D03*
D11*
%TO.P,J2,2,Pin_2*%
%TO.N,~Enable*%
X98425000Y-54864000D03*
%TO.P,J2,3,Pin_3*%
%TO.N,VBus*%
X100965000Y-54864000D03*
%TD*%
D12*
%TO.P,U1,11,GND*%
%TO.N,GND*%
X106045000Y-69723000D03*
D13*
X106045000Y-69088000D03*
D12*
X106045000Y-68453000D03*
%TD*%
D14*
%TO.P,J1,S1,SHIELD*%
%TO.N,GND*%
X102086000Y-79188000D03*
D15*
X102086000Y-83368000D03*
D14*
X110726000Y-79188000D03*
D15*
X110726000Y-83368000D03*
%TD*%
D10*
%TO.P,J5,1,Pin_1*%
%TO.N,GND*%
X95885000Y-80391000D03*
D11*
%TO.P,J5,2,Pin_2*%
X95885000Y-82931000D03*
%TD*%
D10*
%TO.P,J3,1,Pin_1*%
%TO.N,12V*%
X107950000Y-54864000D03*
D11*
%TO.P,J3,2,Pin_2*%
X110490000Y-54864000D03*
%TO.P,J3,3,Pin_3*%
%TO.N,GND*%
X113030000Y-54864000D03*
%TO.P,J3,4,Pin_4*%
X115570000Y-54864000D03*
%TD*%
D16*
%TO.N,12V*%
X110998000Y-64389000D03*
%TO.N,Vdd*%
X99346100Y-69181600D03*
X103093400Y-72315400D03*
%TO.N,GND*%
X108077000Y-72898000D03*
X108966000Y-72898000D03*
X112776000Y-67691000D03*
X112776000Y-68707000D03*
%TO.N,VBus*%
X103703550Y-77296450D03*
X97155000Y-57404000D03*
X108727000Y-77073100D03*
X102235000Y-63500000D03*
%TO.N,Net-(U1-DP)*%
X107820700Y-75980600D03*
X110612100Y-66741400D03*
%TO.N,Con_CC1*%
X102630900Y-65500100D03*
X96614400Y-67863600D03*
X101033400Y-80586400D03*
X97409000Y-76962000D03*
%TO.N,Net-(U1-DM)*%
X108300000Y-65737900D03*
X101656500Y-71275600D03*
%TO.N,Con_CC2*%
X100920300Y-68930300D03*
X109601000Y-72020300D03*
%TO.N,PG*%
X103515500Y-65417200D03*
%TD*%
D17*
%TO.N,12V*%
X110490000Y-54864000D02*
X107950000Y-54864000D01*
X110998000Y-64389000D02*
X110998000Y-55372000D01*
X110998000Y-55372000D02*
X110490000Y-54864000D01*
D18*
%TO.N,Vdd*%
X99346100Y-69866900D02*
X99346100Y-69181600D01*
X103093400Y-72315400D02*
X101794600Y-72315400D01*
X101794600Y-72315400D02*
X99346100Y-69866900D01*
D17*
%TO.N,VBus*%
X102235000Y-63500000D02*
X102235000Y-57277000D01*
X97155000Y-57404000D02*
X97282000Y-57277000D01*
X97282000Y-57277000D02*
X102235000Y-57277000D01*
D19*
X103926900Y-77073100D02*
X108727000Y-77073100D01*
D18*
X103703550Y-77296450D02*
X103926900Y-77073100D01*
D17*
X102235000Y-56007000D02*
X101092000Y-54864000D01*
X102235000Y-57277000D02*
X102235000Y-56007000D01*
D18*
%TO.N,Net-(U1-DP)*%
X110612100Y-73189200D02*
X107820700Y-75980600D01*
X110612100Y-66741400D02*
X110612100Y-73189200D01*
%TO.N,Con_CC1*%
X101033400Y-80586400D02*
X97409000Y-76962000D01*
X100267400Y-67863600D02*
X102630900Y-65500100D01*
X96614400Y-67863600D02*
X100267400Y-67863600D01*
%TO.N,Net-(U1-DM)*%
X101656500Y-71275600D02*
X100292200Y-69911300D01*
X107839900Y-66198000D02*
X108300000Y-65737900D01*
X100292200Y-68642200D02*
X102736400Y-66198000D01*
X100292200Y-69911300D02*
X100292200Y-68642200D01*
X102736400Y-66198000D02*
X107839900Y-66198000D01*
%TO.N,Con_CC2*%
X104010300Y-72020300D02*
X100920300Y-68930300D01*
X109601000Y-72020300D02*
X104010300Y-72020300D01*
%TO.N,PG*%
X96012000Y-63442700D02*
X96012000Y-54864000D01*
X102993900Y-64895600D02*
X97464900Y-64895600D01*
X97464900Y-64895600D02*
X96012000Y-63442700D01*
X103515500Y-65417200D02*
X102993900Y-64895600D01*
%TD*%
%TA.AperFunction,Conductor*%
%TO.N,GND*%
G36*
X117442539Y-53045185D02*
G01*
X117488294Y-53097989D01*
X117499500Y-53149500D01*
X117499500Y-86375500D01*
X117479815Y-86442539D01*
X117427011Y-86488294D01*
X117375500Y-86499500D01*
X93624500Y-86499500D01*
X93557461Y-86479815D01*
X93511706Y-86427011D01*
X93500500Y-86375500D01*
X93500500Y-79493155D01*
X94535000Y-79493155D01*
X94535000Y-80141000D01*
X95451988Y-80141000D01*
X95419075Y-80198007D01*
X95385000Y-80325174D01*
X95385000Y-80456826D01*
X95419075Y-80583993D01*
X95451988Y-80641000D01*
X94535000Y-80641000D01*
X94535000Y-81288844D01*
X94541401Y-81348372D01*
X94541403Y-81348379D01*
X94591645Y-81483086D01*
X94591649Y-81483093D01*
X94677809Y-81598187D01*
X94677812Y-81598190D01*
X94792906Y-81684350D01*
X94792913Y-81684354D01*
X94927620Y-81734596D01*
X94927619Y-81734596D01*
X95010444Y-81743501D01*
X95010116Y-81746550D01*
X95027014Y-81745642D01*
X95086196Y-81778642D01*
X95755591Y-82448037D01*
X95692007Y-82465075D01*
X95577993Y-82530901D01*
X95484901Y-82623993D01*
X95419075Y-82738007D01*
X95402037Y-82801591D01*
X94769728Y-82169282D01*
X94769727Y-82169282D01*
X94730380Y-82223439D01*
X94633904Y-82412782D01*
X94568242Y-82614869D01*
X94568242Y-82614872D01*
X94535000Y-82824753D01*
X94535000Y-83037246D01*
X94568242Y-83247127D01*
X94568242Y-83247130D01*
X94633904Y-83449217D01*
X94730375Y-83638550D01*
X94769728Y-83692716D01*
X95402037Y-83060408D01*
X95419075Y-83123993D01*
X95484901Y-83238007D01*
X95577993Y-83331099D01*
X95692007Y-83396925D01*
X95755590Y-83413962D01*
X95123282Y-84046269D01*
X95123282Y-84046270D01*
X95177449Y-84085624D01*
X95366782Y-84182095D01*
X95568870Y-84247757D01*
X95778754Y-84281000D01*
X95991246Y-84281000D01*
X96201127Y-84247757D01*
X96201130Y-84247757D01*
X96403217Y-84182095D01*
X96592554Y-84085622D01*
X96646716Y-84046270D01*
X96646717Y-84046270D01*
X96014408Y-83413962D01*
X96077993Y-83396925D01*
X96192007Y-83331099D01*
X96285099Y-83238007D01*
X96350925Y-83123993D01*
X96367962Y-83060409D01*
X97000270Y-83692717D01*
X97000270Y-83692716D01*
X97039622Y-83638554D01*
X97104950Y-83510343D01*
X97136095Y-83449217D01*
X97201757Y-83247130D01*
X97201757Y-83247127D01*
X97235000Y-83037246D01*
X97235000Y-82869504D01*
X101086000Y-82869504D01*
X101086000Y-83118000D01*
X101786000Y-83118000D01*
X101786000Y-83618000D01*
X101086000Y-83618000D01*
X101086000Y-83866495D01*
X101124427Y-84059681D01*
X101124430Y-84059693D01*
X101199807Y-84241671D01*
X101199814Y-84241684D01*
X101309248Y-84405462D01*
X101309251Y-84405466D01*
X101448533Y-84544748D01*
X101448537Y-84544751D01*
X101612315Y-84654185D01*
X101612328Y-84654192D01*
X101794308Y-84729569D01*
X101836000Y-84737862D01*
X101836000Y-83934988D01*
X101845940Y-83952205D01*
X101901795Y-84008060D01*
X101970204Y-84047556D01*
X102046504Y-84068000D01*
X102125496Y-84068000D01*
X102201796Y-84047556D01*
X102270205Y-84008060D01*
X102326060Y-83952205D01*
X102336000Y-83934988D01*
X102336000Y-84737862D01*
X102377690Y-84729569D01*
X102377692Y-84729569D01*
X102559671Y-84654192D01*
X102559684Y-84654185D01*
X102723462Y-84544751D01*
X102723466Y-84544748D01*
X102862748Y-84405466D01*
X102862751Y-84405462D01*
X102972185Y-84241684D01*
X102972192Y-84241671D01*
X103047569Y-84059693D01*
X103047572Y-84059681D01*
X103085999Y-83866495D01*
X103086000Y-83866492D01*
X103086000Y-83618000D01*
X102386000Y-83618000D01*
X102386000Y-83118000D01*
X103086000Y-83118000D01*
X103086000Y-82869508D01*
X103085999Y-82869504D01*
X109726000Y-82869504D01*
X109726000Y-83118000D01*
X110426000Y-83118000D01*
X110426000Y-83618000D01*
X109726000Y-83618000D01*
X109726000Y-83866495D01*
X109764427Y-84059681D01*
X109764430Y-84059693D01*
X109839807Y-84241671D01*
X109839814Y-84241684D01*
X109949248Y-84405462D01*
X109949251Y-84405466D01*
X110088533Y-84544748D01*
X110088537Y-84544751D01*
X110252315Y-84654185D01*
X110252328Y-84654192D01*
X110434308Y-84729569D01*
X110476000Y-84737862D01*
X110476000Y-83934988D01*
X110485940Y-83952205D01*
X110541795Y-84008060D01*
X110610204Y-84047556D01*
X110686504Y-84068000D01*
X110765496Y-84068000D01*
X110841796Y-84047556D01*
X110910205Y-84008060D01*
X110966060Y-83952205D01*
X110976000Y-83934988D01*
X110976000Y-84737862D01*
X111017690Y-84729569D01*
X111017692Y-84729569D01*
X111199671Y-84654192D01*
X111199684Y-84654185D01*
X111363462Y-84544751D01*
X111363466Y-84544748D01*
X111502748Y-84405466D01*
X111502751Y-84405462D01*
X111612185Y-84241684D01*
X111612192Y-84241671D01*
X111687569Y-84059693D01*
X111687572Y-84059681D01*
X111704453Y-83974820D01*
X111725999Y-83866495D01*
X111726000Y-83866492D01*
X111726000Y-83618000D01*
X111026000Y-83618000D01*
X111026000Y-83118000D01*
X111726000Y-83118000D01*
X111726000Y-82869510D01*
X111720940Y-82844071D01*
X111720940Y-82844068D01*
X111687572Y-82676318D01*
X111687569Y-82676306D01*
X111612192Y-82494328D01*
X111612185Y-82494315D01*
X111502751Y-82330537D01*
X111502748Y-82330533D01*
X111363466Y-82191251D01*
X111363462Y-82191248D01*
X111199684Y-82081814D01*
X111199671Y-82081807D01*
X111017691Y-82006429D01*
X111017683Y-82006427D01*
X110976000Y-81998135D01*
X110976000Y-82801011D01*
X110966060Y-82783795D01*
X110910205Y-82727940D01*
X110841796Y-82688444D01*
X110765496Y-82668000D01*
X110686504Y-82668000D01*
X110610204Y-82688444D01*
X110541795Y-82727940D01*
X110485940Y-82783795D01*
X110476000Y-82801011D01*
X110476000Y-81998136D01*
X110475999Y-81998135D01*
X110434316Y-82006427D01*
X110434308Y-82006429D01*
X110252328Y-82081807D01*
X110252315Y-82081814D01*
X110088537Y-82191248D01*
X110088533Y-82191251D01*
X109949251Y-82330533D01*
X109949248Y-82330537D01*
X109839814Y-82494315D01*
X109839807Y-82494328D01*
X109764430Y-82676306D01*
X109764427Y-82676318D01*
X109726000Y-82869504D01*
X103085999Y-82869504D01*
X103047572Y-82676318D01*
X103047569Y-82676306D01*
X102972192Y-82494328D01*
X102972185Y-82494315D01*
X102862751Y-82330537D01*
X102862748Y-82330533D01*
X102723466Y-82191251D01*
X102723462Y-82191248D01*
X102559684Y-82081814D01*
X102559671Y-82081807D01*
X102377691Y-82006429D01*
X102377683Y-82006427D01*
X102336000Y-81998135D01*
X102336000Y-82801011D01*
X102326060Y-82783795D01*
X102270205Y-82727940D01*
X102201796Y-82688444D01*
X102125496Y-82668000D01*
X102046504Y-82668000D01*
X101970204Y-82688444D01*
X101901795Y-82727940D01*
X101845940Y-82783795D01*
X101836000Y-82801011D01*
X101836000Y-81998136D01*
X101835999Y-81998135D01*
X101794316Y-82006427D01*
X101794308Y-82006429D01*
X101612328Y-82081807D01*
X101612315Y-82081814D01*
X101448537Y-82191248D01*
X101448533Y-82191251D01*
X101309251Y-82330533D01*
X101309248Y-82330537D01*
X101199814Y-82494315D01*
X101199807Y-82494328D01*
X101124430Y-82676306D01*
X101124427Y-82676318D01*
X101086000Y-82869504D01*
X97235000Y-82869504D01*
X97235000Y-82824753D01*
X97201757Y-82614872D01*
X97201757Y-82614869D01*
X97136095Y-82412782D01*
X97039624Y-82223449D01*
X97000270Y-82169282D01*
X97000269Y-82169282D01*
X96367962Y-82801590D01*
X96350925Y-82738007D01*
X96285099Y-82623993D01*
X96192007Y-82530901D01*
X96077993Y-82465075D01*
X96014409Y-82448037D01*
X96683802Y-81778642D01*
X96745125Y-81745157D01*
X96759833Y-81746078D01*
X96759556Y-81743501D01*
X96842375Y-81734598D01*
X96977086Y-81684354D01*
X96977093Y-81684350D01*
X97092187Y-81598190D01*
X97092190Y-81598187D01*
X97178350Y-81483093D01*
X97178354Y-81483086D01*
X97228596Y-81348379D01*
X97228598Y-81348372D01*
X97234999Y-81288844D01*
X97235000Y-81288827D01*
X97235000Y-80641000D01*
X96318012Y-80641000D01*
X96350925Y-80583993D01*
X96385000Y-80456826D01*
X96385000Y-80325174D01*
X96350925Y-80198007D01*
X96318012Y-80141000D01*
X97235000Y-80141000D01*
X97235000Y-79493172D01*
X97234999Y-79493155D01*
X97228598Y-79433627D01*
X97228596Y-79433620D01*
X97178354Y-79298913D01*
X97178350Y-79298906D01*
X97092190Y-79183812D01*
X97092187Y-79183809D01*
X96977093Y-79097649D01*
X96977086Y-79097645D01*
X96842379Y-79047403D01*
X96842372Y-79047401D01*
X96782844Y-79041000D01*
X96135000Y-79041000D01*
X96135000Y-79957988D01*
X96077993Y-79925075D01*
X95950826Y-79891000D01*
X95819174Y-79891000D01*
X95692007Y-79925075D01*
X95635000Y-79957988D01*
X95635000Y-79041000D01*
X94987155Y-79041000D01*
X94927627Y-79047401D01*
X94927620Y-79047403D01*
X94792913Y-79097645D01*
X94792906Y-79097649D01*
X94677812Y-79183809D01*
X94677809Y-79183812D01*
X94591649Y-79298906D01*
X94591645Y-79298913D01*
X94541403Y-79433620D01*
X94541401Y-79433627D01*
X94535000Y-79493155D01*
X93500500Y-79493155D01*
X93500500Y-76883153D01*
X96608500Y-76883153D01*
X96608500Y-77040846D01*
X96639261Y-77195489D01*
X96639264Y-77195501D01*
X96699602Y-77341172D01*
X96699609Y-77341185D01*
X96787210Y-77472288D01*
X96787213Y-77472292D01*
X96898707Y-77583786D01*
X96898711Y-77583789D01*
X97029814Y-77671390D01*
X97029827Y-77671397D01*
X97086543Y-77694889D01*
X97175503Y-77731737D01*
X97240147Y-77744595D01*
X97330849Y-77762638D01*
X97392760Y-77795023D01*
X97394339Y-77796574D01*
X100198825Y-80601060D01*
X100232310Y-80662383D01*
X100232761Y-80664549D01*
X100263661Y-80819891D01*
X100263664Y-80819901D01*
X100324002Y-80965572D01*
X100324009Y-80965585D01*
X100411610Y-81096688D01*
X100411613Y-81096692D01*
X100523107Y-81208186D01*
X100523111Y-81208189D01*
X100654214Y-81295790D01*
X100654227Y-81295797D01*
X100781156Y-81348372D01*
X100799903Y-81356137D01*
X100954553Y-81386899D01*
X100954556Y-81386900D01*
X100954558Y-81386900D01*
X101112244Y-81386900D01*
X101112245Y-81386899D01*
X101266897Y-81356137D01*
X101412579Y-81295794D01*
X101543689Y-81208189D01*
X101655189Y-81096689D01*
X101742794Y-80965579D01*
X101803137Y-80819897D01*
X101814703Y-80761749D01*
X101836000Y-80721036D01*
X101836000Y-79904988D01*
X101845940Y-79922205D01*
X101901795Y-79978060D01*
X101970204Y-80017556D01*
X102046504Y-80038000D01*
X102125496Y-80038000D01*
X102201796Y-80017556D01*
X102270205Y-79978060D01*
X102326060Y-79922205D01*
X102336000Y-79904988D01*
X102336000Y-80707862D01*
X102377690Y-80699569D01*
X102377692Y-80699569D01*
X102559671Y-80624192D01*
X102559684Y-80624185D01*
X102723462Y-80514751D01*
X102723466Y-80514748D01*
X102862748Y-80375466D01*
X102862751Y-80375462D01*
X102972185Y-80211684D01*
X102972189Y-80211677D01*
X103000303Y-80143802D01*
X103044144Y-80089398D01*
X103110437Y-80067332D01*
X103178137Y-80084610D01*
X103192729Y-80095946D01*
X103193030Y-80095555D01*
X103199479Y-80100504D01*
X103317021Y-80168367D01*
X103317022Y-80168367D01*
X103317025Y-80168369D01*
X103448133Y-80203500D01*
X103448135Y-80203500D01*
X103583865Y-80203500D01*
X103583867Y-80203500D01*
X103714975Y-80168369D01*
X103832524Y-80100502D01*
X103928502Y-80004524D01*
X103996369Y-79886975D01*
X104031500Y-79755867D01*
X104031500Y-79620133D01*
X108780500Y-79620133D01*
X108780500Y-79755867D01*
X108796791Y-79816663D01*
X108815632Y-79886978D01*
X108883495Y-80004520D01*
X108883497Y-80004522D01*
X108883498Y-80004524D01*
X108979476Y-80100502D01*
X108979477Y-80100503D01*
X108979479Y-80100504D01*
X109097021Y-80168367D01*
X109097022Y-80168367D01*
X109097025Y-80168369D01*
X109228133Y-80203500D01*
X109228135Y-80203500D01*
X109363865Y-80203500D01*
X109363867Y-80203500D01*
X109494975Y-80168369D01*
X109612524Y-80100502D01*
X109612528Y-80100497D01*
X109618970Y-80095555D01*
X109620497Y-80097545D01*
X109670753Y-80070092D01*
X109740446Y-80075063D01*
X109796387Y-80116924D01*
X109811695Y-80143800D01*
X109839809Y-80211675D01*
X109839814Y-80211684D01*
X109949248Y-80375462D01*
X109949251Y-80375466D01*
X110088533Y-80514748D01*
X110088537Y-80514751D01*
X110252315Y-80624185D01*
X110252328Y-80624192D01*
X110434308Y-80699569D01*
X110476000Y-80707862D01*
X110476000Y-79904988D01*
X110485940Y-79922205D01*
X110541795Y-79978060D01*
X110610204Y-80017556D01*
X110686504Y-80038000D01*
X110765496Y-80038000D01*
X110841796Y-80017556D01*
X110910205Y-79978060D01*
X110966060Y-79922205D01*
X110976000Y-79904988D01*
X110976000Y-80707862D01*
X111017690Y-80699569D01*
X111017692Y-80699569D01*
X111199671Y-80624192D01*
X111199684Y-80624185D01*
X111363462Y-80514751D01*
X111363466Y-80514748D01*
X111376258Y-80501957D01*
X111502748Y-80375466D01*
X111502751Y-80375462D01*
X111612185Y-80211684D01*
X111612192Y-80211671D01*
X111687569Y-80029693D01*
X111687572Y-80029681D01*
X111725999Y-79836495D01*
X111726000Y-79836492D01*
X111726000Y-79493155D01*
X114220000Y-79493155D01*
X114220000Y-80141000D01*
X115136988Y-80141000D01*
X115104075Y-80198007D01*
X115070000Y-80325174D01*
X115070000Y-80456826D01*
X115104075Y-80583993D01*
X115136988Y-80641000D01*
X114220000Y-80641000D01*
X114220000Y-81288844D01*
X114226401Y-81348372D01*
X114226403Y-81348379D01*
X114276645Y-81483086D01*
X114276649Y-81483093D01*
X114362809Y-81598187D01*
X114362812Y-81598190D01*
X114477906Y-81684350D01*
X114477913Y-81684354D01*
X114612620Y-81734596D01*
X114612619Y-81734596D01*
X114695444Y-81743501D01*
X114695116Y-81746550D01*
X114712014Y-81745642D01*
X114771196Y-81778642D01*
X115440591Y-82448037D01*
X115377007Y-82465075D01*
X115262993Y-82530901D01*
X115169901Y-82623993D01*
X115104075Y-82738007D01*
X115087037Y-82801591D01*
X114454728Y-82169282D01*
X114454727Y-82169282D01*
X114415380Y-82223439D01*
X114318904Y-82412782D01*
X114253242Y-82614869D01*
X114253242Y-82614872D01*
X114220000Y-82824753D01*
X114220000Y-83037246D01*
X114253242Y-83247127D01*
X114253242Y-83247130D01*
X114318904Y-83449217D01*
X114415375Y-83638550D01*
X114454728Y-83692716D01*
X115087037Y-83060408D01*
X115104075Y-83123993D01*
X115169901Y-83238007D01*
X115262993Y-83331099D01*
X115377007Y-83396925D01*
X115440590Y-83413962D01*
X114808282Y-84046269D01*
X114808282Y-84046270D01*
X114862449Y-84085624D01*
X115051782Y-84182095D01*
X115253870Y-84247757D01*
X115463754Y-84281000D01*
X115676246Y-84281000D01*
X115886127Y-84247757D01*
X115886130Y-84247757D01*
X116088217Y-84182095D01*
X116277554Y-84085622D01*
X116331716Y-84046270D01*
X116331717Y-84046270D01*
X115699408Y-83413962D01*
X115762993Y-83396925D01*
X115877007Y-83331099D01*
X115970099Y-83238007D01*
X116035925Y-83123993D01*
X116052962Y-83060409D01*
X116685270Y-83692717D01*
X116685270Y-83692716D01*
X116724622Y-83638554D01*
X116821095Y-83449217D01*
X116886757Y-83247130D01*
X116886757Y-83247127D01*
X116920000Y-83037246D01*
X116920000Y-82824753D01*
X116886757Y-82614872D01*
X116886757Y-82614869D01*
X116821095Y-82412782D01*
X116724624Y-82223449D01*
X116685270Y-82169282D01*
X116685269Y-82169282D01*
X116052962Y-82801590D01*
X116035925Y-82738007D01*
X115970099Y-82623993D01*
X115877007Y-82530901D01*
X115762993Y-82465075D01*
X115699409Y-82448037D01*
X116368802Y-81778642D01*
X116430125Y-81745157D01*
X116444833Y-81746078D01*
X116444556Y-81743501D01*
X116527375Y-81734598D01*
X116662086Y-81684354D01*
X116662093Y-81684350D01*
X116777187Y-81598190D01*
X116777190Y-81598187D01*
X116863350Y-81483093D01*
X116863354Y-81483086D01*
X116913596Y-81348379D01*
X116913598Y-81348372D01*
X116919999Y-81288844D01*
X116920000Y-81288827D01*
X116920000Y-80641000D01*
X116003012Y-80641000D01*
X116035925Y-80583993D01*
X116070000Y-80456826D01*
X116070000Y-80325174D01*
X116035925Y-80198007D01*
X116003012Y-80141000D01*
X116920000Y-80141000D01*
X116920000Y-79493172D01*
X116919999Y-79493155D01*
X116913598Y-79433627D01*
X116913596Y-79433620D01*
X116863354Y-79298913D01*
X116863350Y-79298906D01*
X116777190Y-79183812D01*
X116777187Y-79183809D01*
X116662093Y-79097649D01*
X116662086Y-79097645D01*
X116527379Y-79047403D01*
X116527372Y-79047401D01*
X116467844Y-79041000D01*
X115820000Y-79041000D01*
X115820000Y-79957988D01*
X115762993Y-79925075D01*
X115635826Y-79891000D01*
X115504174Y-79891000D01*
X115377007Y-79925075D01*
X115320000Y-79957988D01*
X115320000Y-79041000D01*
X114672155Y-79041000D01*
X114612627Y-79047401D01*
X114612620Y-79047403D01*
X114477913Y-79097645D01*
X114477906Y-79097649D01*
X114362812Y-79183809D01*
X114362809Y-79183812D01*
X114276649Y-79298906D01*
X114276645Y-79298913D01*
X114226403Y-79433620D01*
X114226401Y-79433627D01*
X114220000Y-79493155D01*
X111726000Y-79493155D01*
X111726000Y-79438000D01*
X111026000Y-79438000D01*
X111026000Y-78938000D01*
X111726000Y-78938000D01*
X111726000Y-78539508D01*
X111725999Y-78539504D01*
X111687572Y-78346318D01*
X111687569Y-78346306D01*
X111612192Y-78164328D01*
X111612185Y-78164315D01*
X111502751Y-78000537D01*
X111502748Y-78000533D01*
X111363466Y-77861251D01*
X111363462Y-77861248D01*
X111199684Y-77751814D01*
X111199671Y-77751807D01*
X111017691Y-77676429D01*
X111017683Y-77676427D01*
X110976000Y-77668135D01*
X110976000Y-78471011D01*
X110966060Y-78453795D01*
X110910205Y-78397940D01*
X110841796Y-78358444D01*
X110765496Y-78338000D01*
X110686504Y-78338000D01*
X110610204Y-78358444D01*
X110541795Y-78397940D01*
X110485940Y-78453795D01*
X110476000Y-78471011D01*
X110476000Y-77668136D01*
X110475999Y-77668135D01*
X110434316Y-77676427D01*
X110434308Y-77676429D01*
X110252328Y-77751807D01*
X110252315Y-77751814D01*
X110088537Y-77861248D01*
X110088533Y-77861251D01*
X109949251Y-78000533D01*
X109949248Y-78000537D01*
X109839814Y-78164315D01*
X109839807Y-78164328D01*
X109764430Y-78346306D01*
X109764427Y-78346318D01*
X109726000Y-78539504D01*
X109726000Y-78938000D01*
X110426000Y-78938000D01*
X110426000Y-79438000D01*
X109818501Y-79438000D01*
X109751462Y-79418315D01*
X109711115Y-79376002D01*
X109708502Y-79371476D01*
X109612524Y-79275498D01*
X109612522Y-79275497D01*
X109612520Y-79275495D01*
X109494978Y-79207632D01*
X109494979Y-79207632D01*
X109479484Y-79203480D01*
X109363867Y-79172500D01*
X109228133Y-79172500D01*
X109112515Y-79203480D01*
X109097021Y-79207632D01*
X108979479Y-79275495D01*
X108979473Y-79275500D01*
X108883500Y-79371473D01*
X108883495Y-79371479D01*
X108815632Y-79489021D01*
X108815631Y-79489025D01*
X108780500Y-79620133D01*
X104031500Y-79620133D01*
X103996369Y-79489025D01*
X103958951Y-79424216D01*
X103928504Y-79371479D01*
X103928499Y-79371473D01*
X103832526Y-79275500D01*
X103832520Y-79275495D01*
X103714978Y-79207632D01*
X103714979Y-79207632D01*
X103699484Y-79203480D01*
X103583867Y-79172500D01*
X103448133Y-79172500D01*
X103332515Y-79203480D01*
X103317021Y-79207632D01*
X103199479Y-79275495D01*
X103199473Y-79275500D01*
X103103500Y-79371473D01*
X103103498Y-79371476D01*
X103100884Y-79376002D01*
X103050318Y-79424216D01*
X102993499Y-79438000D01*
X102386000Y-79438000D01*
X102386000Y-78938000D01*
X103086000Y-78938000D01*
X103086000Y-78539508D01*
X103085999Y-78539504D01*
X103047572Y-78346318D01*
X103047569Y-78346306D01*
X102972192Y-78164328D01*
X102972185Y-78164315D01*
X102862751Y-78000537D01*
X102862748Y-78000533D01*
X102723466Y-77861251D01*
X102723462Y-77861248D01*
X102559684Y-77751814D01*
X102559671Y-77751807D01*
X102377691Y-77676429D01*
X102377683Y-77676427D01*
X102336000Y-77668135D01*
X102336000Y-78471011D01*
X102326060Y-78453795D01*
X102270205Y-78397940D01*
X102201796Y-78358444D01*
X102125496Y-78338000D01*
X102046504Y-78338000D01*
X101970204Y-78358444D01*
X101901795Y-78397940D01*
X101845940Y-78453795D01*
X101836000Y-78471011D01*
X101836000Y-77668136D01*
X101835999Y-77668135D01*
X101794316Y-77676427D01*
X101794308Y-77676429D01*
X101612328Y-77751807D01*
X101612315Y-77751814D01*
X101448537Y-77861248D01*
X101448533Y-77861251D01*
X101309251Y-78000533D01*
X101309248Y-78000537D01*
X101199814Y-78164315D01*
X101199807Y-78164328D01*
X101124430Y-78346306D01*
X101124427Y-78346318D01*
X101086000Y-78539504D01*
X101086000Y-78938000D01*
X101786000Y-78938000D01*
X101786000Y-79438000D01*
X101086000Y-79438000D01*
X101086000Y-79490402D01*
X101066315Y-79557441D01*
X101013511Y-79603196D01*
X100944353Y-79613140D01*
X100880797Y-79584115D01*
X100874319Y-79578083D01*
X98243573Y-76947337D01*
X98210088Y-76886014D01*
X98209637Y-76883847D01*
X98178738Y-76728510D01*
X98178737Y-76728503D01*
X98156435Y-76674661D01*
X98118397Y-76582827D01*
X98118390Y-76582814D01*
X98030789Y-76451711D01*
X98030786Y-76451707D01*
X97919292Y-76340213D01*
X97919288Y-76340210D01*
X97788185Y-76252609D01*
X97788172Y-76252602D01*
X97642501Y-76192264D01*
X97642489Y-76192261D01*
X97487845Y-76161500D01*
X97487842Y-76161500D01*
X97330158Y-76161500D01*
X97330155Y-76161500D01*
X97175510Y-76192261D01*
X97175498Y-76192264D01*
X97029827Y-76252602D01*
X97029814Y-76252609D01*
X96898711Y-76340210D01*
X96898707Y-76340213D01*
X96787213Y-76451707D01*
X96787210Y-76451711D01*
X96699609Y-76582814D01*
X96699602Y-76582827D01*
X96639264Y-76728498D01*
X96639261Y-76728510D01*
X96608500Y-76883153D01*
X93500500Y-76883153D01*
X93500500Y-53966135D01*
X94534500Y-53966135D01*
X94534500Y-55761870D01*
X94534501Y-55761876D01*
X94540908Y-55821483D01*
X94591202Y-55956328D01*
X94591206Y-55956335D01*
X94677452Y-56071544D01*
X94677455Y-56071547D01*
X94792664Y-56157793D01*
X94792671Y-56157797D01*
X94837618Y-56174561D01*
X94927517Y-56208091D01*
X94987127Y-56214500D01*
X95287500Y-56214499D01*
X95354539Y-56234183D01*
X95400294Y-56286987D01*
X95411500Y-56338499D01*
X95411500Y-63356030D01*
X95411499Y-63356048D01*
X95411499Y-63521754D01*
X95411498Y-63521754D01*
X95452423Y-63674485D01*
X95455380Y-63679606D01*
X95455383Y-63679612D01*
X95531477Y-63811412D01*
X95531481Y-63811417D01*
X95650349Y-63930285D01*
X95650355Y-63930290D01*
X96980039Y-65259974D01*
X96980049Y-65259985D01*
X96984379Y-65264315D01*
X96984380Y-65264316D01*
X97096184Y-65376120D01*
X97173992Y-65421042D01*
X97173993Y-65421043D01*
X97233109Y-65455174D01*
X97233110Y-65455175D01*
X97233112Y-65455175D01*
X97233115Y-65455177D01*
X97385843Y-65496101D01*
X97385846Y-65496101D01*
X97551553Y-65496101D01*
X97551569Y-65496100D01*
X101486302Y-65496100D01*
X101553341Y-65515785D01*
X101599096Y-65568589D01*
X101609040Y-65637747D01*
X101580015Y-65701303D01*
X101573983Y-65707781D01*
X100054984Y-67226781D01*
X99993661Y-67260266D01*
X99967303Y-67263100D01*
X97194166Y-67263100D01*
X97127127Y-67243415D01*
X97125275Y-67242202D01*
X96993585Y-67154209D01*
X96993572Y-67154202D01*
X96847901Y-67093864D01*
X96847889Y-67093861D01*
X96693245Y-67063100D01*
X96693242Y-67063100D01*
X96535558Y-67063100D01*
X96535555Y-67063100D01*
X96380910Y-67093861D01*
X96380898Y-67093864D01*
X96235227Y-67154202D01*
X96235214Y-67154209D01*
X96104111Y-67241810D01*
X96104107Y-67241813D01*
X95992613Y-67353307D01*
X95992610Y-67353311D01*
X95905009Y-67484414D01*
X95905002Y-67484427D01*
X95844664Y-67630098D01*
X95844661Y-67630110D01*
X95813900Y-67784753D01*
X95813900Y-67942446D01*
X95844661Y-68097089D01*
X95844664Y-68097101D01*
X95905002Y-68242772D01*
X95905009Y-68242785D01*
X95992610Y-68373888D01*
X95992613Y-68373892D01*
X96104107Y-68485386D01*
X96104111Y-68485389D01*
X96235214Y-68572990D01*
X96235227Y-68572997D01*
X96314294Y-68605747D01*
X96380903Y-68633337D01*
X96535553Y-68664099D01*
X96535556Y-68664100D01*
X96535558Y-68664100D01*
X96693244Y-68664100D01*
X96693245Y-68664099D01*
X96847897Y-68633337D01*
X96993579Y-68572994D01*
X97048063Y-68536589D01*
X97125275Y-68484998D01*
X97191953Y-68464120D01*
X97194166Y-68464100D01*
X98632188Y-68464100D01*
X98699227Y-68483785D01*
X98744982Y-68536589D01*
X98754926Y-68605747D01*
X98728043Y-68666762D01*
X98724313Y-68671306D01*
X98636709Y-68802414D01*
X98636702Y-68802427D01*
X98576364Y-68948098D01*
X98576361Y-68948110D01*
X98545600Y-69102753D01*
X98545600Y-69260446D01*
X98576361Y-69415089D01*
X98576364Y-69415101D01*
X98636702Y-69560772D01*
X98636709Y-69560785D01*
X98724702Y-69692474D01*
X98730352Y-69710520D01*
X98740577Y-69726430D01*
X98745028Y-69757389D01*
X98745580Y-69759151D01*
X98745600Y-69761365D01*
X98745600Y-69780230D01*
X98745599Y-69780248D01*
X98745599Y-69945954D01*
X98745598Y-69945954D01*
X98786524Y-70098689D01*
X98786525Y-70098690D01*
X98812156Y-70143083D01*
X98812157Y-70143084D01*
X98823961Y-70163529D01*
X98865579Y-70235614D01*
X98865581Y-70235617D01*
X98984449Y-70354485D01*
X98984455Y-70354490D01*
X101309739Y-72679774D01*
X101309749Y-72679785D01*
X101314079Y-72684115D01*
X101314080Y-72684116D01*
X101425884Y-72795920D01*
X101468977Y-72820799D01*
X101512695Y-72846039D01*
X101512697Y-72846041D01*
X101550751Y-72868011D01*
X101562815Y-72874977D01*
X101715543Y-72915901D01*
X101715546Y-72915901D01*
X101881253Y-72915901D01*
X101881269Y-72915900D01*
X102513634Y-72915900D01*
X102580673Y-72935585D01*
X102582525Y-72936798D01*
X102714214Y-73024790D01*
X102714227Y-73024797D01*
X102859898Y-73085135D01*
X102859903Y-73085137D01*
X102985591Y-73110138D01*
X103014553Y-73115899D01*
X103014556Y-73115900D01*
X103014558Y-73115900D01*
X103172244Y-73115900D01*
X103172245Y-73115899D01*
X103326897Y-73085137D01*
X103472579Y-73024794D01*
X103603689Y-72937189D01*
X103715189Y-72825689D01*
X103802794Y-72694579D01*
X103802798Y-72694567D01*
X103805664Y-72689208D01*
X103807206Y-72690032D01*
X103814726Y-72680699D01*
X103823241Y-72662288D01*
X103836202Y-72654045D01*
X103845838Y-72642087D01*
X103865081Y-72635680D01*
X103882199Y-72624795D01*
X103902313Y-72623285D01*
X103912131Y-72620017D01*
X103917157Y-72619939D01*
X103928223Y-72619991D01*
X103931243Y-72620801D01*
X104089357Y-72620801D01*
X104089361Y-72620800D01*
X109021234Y-72620800D01*
X109088273Y-72640485D01*
X109090125Y-72641698D01*
X109221814Y-72729690D01*
X109221827Y-72729697D01*
X109364635Y-72788849D01*
X109367503Y-72790037D01*
X109522153Y-72820799D01*
X109522156Y-72820800D01*
X109522158Y-72820800D01*
X109679844Y-72820800D01*
X109679845Y-72820799D01*
X109725831Y-72811652D01*
X109840472Y-72788849D01*
X109840908Y-72791041D01*
X109900742Y-72790482D01*
X109959871Y-72827705D01*
X109989489Y-72890986D01*
X109980192Y-72960235D01*
X109954602Y-72997461D01*
X107806039Y-75146025D01*
X107744716Y-75179510D01*
X107742550Y-75179961D01*
X107587208Y-75210861D01*
X107587198Y-75210864D01*
X107441527Y-75271202D01*
X107441514Y-75271209D01*
X107310411Y-75358810D01*
X107310407Y-75358813D01*
X107198913Y-75470307D01*
X107198910Y-75470311D01*
X107111309Y-75601414D01*
X107111302Y-75601427D01*
X107050964Y-75747098D01*
X107050961Y-75747110D01*
X107020200Y-75901753D01*
X107020200Y-75901758D01*
X107020200Y-76059442D01*
X107020200Y-76059444D01*
X107020199Y-76059444D01*
X107043068Y-76174408D01*
X107036841Y-76244000D01*
X106993978Y-76299177D01*
X106928088Y-76322422D01*
X106921451Y-76322600D01*
X103852980Y-76322600D01*
X103707992Y-76351440D01*
X103707982Y-76351443D01*
X103571411Y-76408012D01*
X103571398Y-76408019D01*
X103448487Y-76490146D01*
X103388252Y-76550380D01*
X103348027Y-76577257D01*
X103324370Y-76587056D01*
X103324368Y-76587057D01*
X103193265Y-76674657D01*
X103193257Y-76674663D01*
X103081763Y-76786157D01*
X103081760Y-76786161D01*
X102994159Y-76917264D01*
X102994152Y-76917277D01*
X102933814Y-77062948D01*
X102933811Y-77062960D01*
X102903050Y-77217603D01*
X102903050Y-77375296D01*
X102933811Y-77529939D01*
X102933814Y-77529951D01*
X102994152Y-77675622D01*
X102994159Y-77675635D01*
X103081760Y-77806738D01*
X103081763Y-77806742D01*
X103193257Y-77918236D01*
X103193261Y-77918239D01*
X103324364Y-78005840D01*
X103324377Y-78005847D01*
X103470048Y-78066185D01*
X103470053Y-78066187D01*
X103624703Y-78096949D01*
X103624706Y-78096950D01*
X103624708Y-78096950D01*
X103782394Y-78096950D01*
X103782395Y-78096949D01*
X103937047Y-78066187D01*
X104082729Y-78005844D01*
X104213839Y-77918239D01*
X104272160Y-77859917D01*
X104333481Y-77826434D01*
X104359840Y-77823600D01*
X108422396Y-77823600D01*
X108469844Y-77833037D01*
X108493503Y-77842837D01*
X108493508Y-77842838D01*
X108493511Y-77842839D01*
X108648153Y-77873599D01*
X108648156Y-77873600D01*
X108648158Y-77873600D01*
X108805844Y-77873600D01*
X108805845Y-77873599D01*
X108960497Y-77842837D01*
X109106179Y-77782494D01*
X109237289Y-77694889D01*
X109348789Y-77583389D01*
X109436394Y-77452279D01*
X109496737Y-77306597D01*
X109527500Y-77151942D01*
X109527500Y-76994258D01*
X109527500Y-76994255D01*
X109527499Y-76994253D01*
X109505969Y-76886014D01*
X109496737Y-76839603D01*
X109474599Y-76786157D01*
X109436397Y-76693927D01*
X109436390Y-76693914D01*
X109348789Y-76562811D01*
X109348786Y-76562807D01*
X109237292Y-76451313D01*
X109237288Y-76451310D01*
X109106185Y-76363709D01*
X109106172Y-76363702D01*
X108960501Y-76303364D01*
X108960489Y-76303361D01*
X108805845Y-76272600D01*
X108805842Y-76272600D01*
X108729895Y-76272600D01*
X108709680Y-76266664D01*
X108688643Y-76265537D01*
X108676828Y-76257017D01*
X108662856Y-76252915D01*
X108649061Y-76236995D01*
X108631970Y-76224671D01*
X108626636Y-76211115D01*
X108617101Y-76200111D01*
X108614102Y-76179258D01*
X108606389Y-76159653D01*
X108607717Y-76134851D01*
X108607157Y-76130953D01*
X108608277Y-76124409D01*
X108621200Y-76059442D01*
X108621200Y-76059438D01*
X108621337Y-76058750D01*
X108653722Y-75996839D01*
X108655215Y-75995319D01*
X111092620Y-73557916D01*
X111171677Y-73420984D01*
X111212601Y-73268257D01*
X111212601Y-73110142D01*
X111212601Y-73102547D01*
X111212600Y-73102529D01*
X111212600Y-67321165D01*
X111232285Y-67254126D01*
X111233498Y-67252274D01*
X111239418Y-67243415D01*
X111321494Y-67120579D01*
X111381837Y-66974897D01*
X111412600Y-66820242D01*
X111412600Y-66662558D01*
X111412600Y-66662555D01*
X111412599Y-66662553D01*
X111394681Y-66572474D01*
X111381837Y-66507903D01*
X111381726Y-66507635D01*
X111321497Y-66362227D01*
X111321490Y-66362214D01*
X111233889Y-66231111D01*
X111233886Y-66231107D01*
X111122392Y-66119613D01*
X111122388Y-66119610D01*
X110991285Y-66032009D01*
X110991272Y-66032002D01*
X110845601Y-65971664D01*
X110845589Y-65971661D01*
X110690945Y-65940900D01*
X110690942Y-65940900D01*
X110533258Y-65940900D01*
X110533255Y-65940900D01*
X110378610Y-65971661D01*
X110378598Y-65971664D01*
X110232927Y-66032002D01*
X110232914Y-66032009D01*
X110101811Y-66119610D01*
X110101807Y-66119613D01*
X109990313Y-66231107D01*
X109990310Y-66231111D01*
X109902709Y-66362214D01*
X109902702Y-66362227D01*
X109842364Y-66507898D01*
X109842361Y-66507910D01*
X109811600Y-66662553D01*
X109811600Y-66820246D01*
X109842361Y-66974889D01*
X109842364Y-66974901D01*
X109902702Y-67120572D01*
X109902709Y-67120585D01*
X109973668Y-67226781D01*
X109984782Y-67243415D01*
X109990702Y-67252274D01*
X110011580Y-67318951D01*
X110011600Y-67321165D01*
X110011600Y-71138342D01*
X109991915Y-71205381D01*
X109939111Y-71251136D01*
X109869953Y-71261080D01*
X109840152Y-71252905D01*
X109834500Y-71250564D01*
X109834498Y-71250563D01*
X109834497Y-71250563D01*
X109834494Y-71250562D01*
X109834489Y-71250561D01*
X109679845Y-71219800D01*
X109679842Y-71219800D01*
X109522158Y-71219800D01*
X109522155Y-71219800D01*
X109367510Y-71250561D01*
X109367498Y-71250564D01*
X109221827Y-71310902D01*
X109221814Y-71310909D01*
X109090125Y-71398902D01*
X109023447Y-71419780D01*
X109021234Y-71419800D01*
X104310397Y-71419800D01*
X104243358Y-71400115D01*
X104222716Y-71383481D01*
X103356316Y-70517081D01*
X105604469Y-70517081D01*
X105616324Y-70525002D01*
X105781016Y-70593219D01*
X105781026Y-70593222D01*
X105955862Y-70628000D01*
X106134137Y-70628000D01*
X106308973Y-70593222D01*
X106308983Y-70593219D01*
X106473673Y-70525003D01*
X106473678Y-70525000D01*
X106485528Y-70517082D01*
X106485529Y-70517081D01*
X106045001Y-70076553D01*
X106045000Y-70076553D01*
X105604469Y-70517081D01*
X103356316Y-70517081D01*
X102651372Y-69812137D01*
X105139999Y-69812137D01*
X105174777Y-69986973D01*
X105174780Y-69986983D01*
X105242997Y-70151675D01*
X105250917Y-70163528D01*
X105691446Y-69723000D01*
X105691446Y-69722999D01*
X105640724Y-69672277D01*
X105790000Y-69672277D01*
X105790000Y-69773723D01*
X105828821Y-69867446D01*
X105900554Y-69939179D01*
X105994277Y-69978000D01*
X106095723Y-69978000D01*
X106189446Y-69939179D01*
X106261179Y-69867446D01*
X106300000Y-69773723D01*
X106300000Y-69722999D01*
X106398553Y-69722999D01*
X106398553Y-69723001D01*
X106839081Y-70163529D01*
X106839082Y-70163528D01*
X106847000Y-70151678D01*
X106847003Y-70151673D01*
X106915219Y-69986983D01*
X106915222Y-69986973D01*
X106950000Y-69812137D01*
X106950000Y-69633862D01*
X106915222Y-69459026D01*
X106915219Y-69459016D01*
X106847002Y-69294324D01*
X106839081Y-69282469D01*
X106398553Y-69722999D01*
X106300000Y-69722999D01*
X106300000Y-69672277D01*
X106261179Y-69578554D01*
X106189446Y-69506821D01*
X106095723Y-69468000D01*
X105994277Y-69468000D01*
X105900554Y-69506821D01*
X105828821Y-69578554D01*
X105790000Y-69672277D01*
X105640724Y-69672277D01*
X105250917Y-69282470D01*
X105250916Y-69282470D01*
X105243000Y-69294318D01*
X105242997Y-69294324D01*
X105174780Y-69459016D01*
X105174777Y-69459026D01*
X105140000Y-69633862D01*
X105140000Y-69812137D01*
X105139999Y-69812137D01*
X102651372Y-69812137D01*
X101927235Y-69088000D01*
X105763553Y-69088000D01*
X106045000Y-69369446D01*
X106045001Y-69369446D01*
X106326446Y-69088001D01*
X106326446Y-69087999D01*
X106045001Y-68806553D01*
X106045000Y-68806553D01*
X105763553Y-69088000D01*
X101927235Y-69088000D01*
X101754874Y-68915639D01*
X101721389Y-68854316D01*
X101720938Y-68852149D01*
X101690038Y-68696810D01*
X101690037Y-68696803D01*
X101652321Y-68605747D01*
X101629697Y-68551127D01*
X101629690Y-68551114D01*
X101623692Y-68542137D01*
X105139999Y-68542137D01*
X105174777Y-68716973D01*
X105174780Y-68716983D01*
X105242997Y-68881675D01*
X105250917Y-68893528D01*
X105691446Y-68453000D01*
X105691446Y-68452999D01*
X105640724Y-68402277D01*
X105790000Y-68402277D01*
X105790000Y-68503723D01*
X105828821Y-68597446D01*
X105900554Y-68669179D01*
X105994277Y-68708000D01*
X106095723Y-68708000D01*
X106189446Y-68669179D01*
X106261179Y-68597446D01*
X106300000Y-68503723D01*
X106300000Y-68452999D01*
X106398553Y-68452999D01*
X106398553Y-68453001D01*
X106839081Y-68893529D01*
X106839082Y-68893528D01*
X106847000Y-68881678D01*
X106847003Y-68881673D01*
X106915219Y-68716983D01*
X106915222Y-68716973D01*
X106950000Y-68542137D01*
X106950000Y-68363862D01*
X106915222Y-68189026D01*
X106915219Y-68189016D01*
X106847002Y-68024324D01*
X106839081Y-68012469D01*
X106398553Y-68452999D01*
X106300000Y-68452999D01*
X106300000Y-68402277D01*
X106261179Y-68308554D01*
X106189446Y-68236821D01*
X106095723Y-68198000D01*
X105994277Y-68198000D01*
X105900554Y-68236821D01*
X105828821Y-68308554D01*
X105790000Y-68402277D01*
X105640724Y-68402277D01*
X105250917Y-68012470D01*
X105250916Y-68012470D01*
X105243000Y-68024318D01*
X105242997Y-68024324D01*
X105174780Y-68189016D01*
X105174777Y-68189026D01*
X105140000Y-68363862D01*
X105140000Y-68542137D01*
X105139999Y-68542137D01*
X101623692Y-68542137D01*
X101549347Y-68430873D01*
X101549345Y-68430871D01*
X101542089Y-68420011D01*
X101535506Y-68413428D01*
X101531079Y-68407848D01*
X101520520Y-68381799D01*
X101507052Y-68357135D01*
X101507572Y-68349858D01*
X101504831Y-68343096D01*
X101510031Y-68315473D01*
X101512036Y-68287443D01*
X101516664Y-68280241D01*
X101517758Y-68274433D01*
X101526002Y-68265711D01*
X101540534Y-68243099D01*
X102124718Y-67658916D01*
X105604470Y-67658916D01*
X105604470Y-67658917D01*
X106045000Y-68099446D01*
X106045001Y-68099446D01*
X106485528Y-67658917D01*
X106473675Y-67650997D01*
X106308983Y-67582780D01*
X106308973Y-67582777D01*
X106134137Y-67548000D01*
X105955863Y-67548000D01*
X105781026Y-67582777D01*
X105781016Y-67582780D01*
X105616324Y-67650997D01*
X105616318Y-67651000D01*
X105604470Y-67658916D01*
X102124718Y-67658916D01*
X102948817Y-66834819D01*
X103010140Y-66801334D01*
X103036498Y-66798500D01*
X107753231Y-66798500D01*
X107753247Y-66798501D01*
X107760843Y-66798501D01*
X107918954Y-66798501D01*
X107918957Y-66798501D01*
X108071685Y-66757577D01*
X108121804Y-66728639D01*
X108208616Y-66678520D01*
X108314663Y-66572472D01*
X108375984Y-66538988D01*
X108378152Y-66538537D01*
X108378841Y-66538400D01*
X108378842Y-66538400D01*
X108533497Y-66507637D01*
X108679179Y-66447294D01*
X108810289Y-66359689D01*
X108921789Y-66248189D01*
X109009394Y-66117079D01*
X109069737Y-65971397D01*
X109100500Y-65816742D01*
X109100500Y-65659058D01*
X109100500Y-65659055D01*
X109100499Y-65659053D01*
X109088035Y-65596391D01*
X109069737Y-65504403D01*
X109049346Y-65455174D01*
X109009397Y-65358727D01*
X109009390Y-65358714D01*
X108921789Y-65227611D01*
X108921786Y-65227607D01*
X108810292Y-65116113D01*
X108810288Y-65116110D01*
X108679185Y-65028509D01*
X108679172Y-65028502D01*
X108533501Y-64968164D01*
X108533489Y-64968161D01*
X108378845Y-64937400D01*
X108378842Y-64937400D01*
X108221158Y-64937400D01*
X108221155Y-64937400D01*
X108066510Y-64968161D01*
X108066498Y-64968164D01*
X107920827Y-65028502D01*
X107920814Y-65028509D01*
X107789711Y-65116110D01*
X107789707Y-65116113D01*
X107678213Y-65227607D01*
X107678210Y-65227611D01*
X107590609Y-65358714D01*
X107590602Y-65358727D01*
X107530263Y-65504401D01*
X107528718Y-65509497D01*
X107490420Y-65567935D01*
X107426607Y-65596391D01*
X107410058Y-65597500D01*
X104440000Y-65597500D01*
X104372961Y-65577815D01*
X104327206Y-65525011D01*
X104316000Y-65473500D01*
X104316000Y-65338355D01*
X104315999Y-65338353D01*
X104285237Y-65183703D01*
X104257240Y-65116111D01*
X104224897Y-65038027D01*
X104224890Y-65038014D01*
X104137289Y-64906911D01*
X104137286Y-64906907D01*
X104025792Y-64795413D01*
X104025788Y-64795410D01*
X103894685Y-64707809D01*
X103894672Y-64707802D01*
X103749001Y-64647464D01*
X103748991Y-64647461D01*
X103593651Y-64616562D01*
X103531741Y-64584177D01*
X103530162Y-64582626D01*
X103362617Y-64415081D01*
X103362616Y-64415080D01*
X103348807Y-64407107D01*
X103285181Y-64370373D01*
X103285177Y-64370371D01*
X103275804Y-64364960D01*
X103225685Y-64336023D01*
X103094125Y-64300771D01*
X103089014Y-64298909D01*
X103065086Y-64281281D01*
X103039704Y-64265809D01*
X103037261Y-64260781D01*
X103032762Y-64257466D01*
X103022162Y-64229696D01*
X103009176Y-64202962D01*
X103009839Y-64197412D01*
X103007846Y-64192190D01*
X103013942Y-64163096D01*
X103017471Y-64133587D01*
X103021799Y-64125604D01*
X103022176Y-64123806D01*
X103023506Y-64122454D01*
X103028354Y-64113514D01*
X103121632Y-63973914D01*
X103197051Y-63791835D01*
X103235500Y-63598541D01*
X103235500Y-57178459D01*
X103235500Y-55908459D01*
X103235500Y-55908456D01*
X103197052Y-55715170D01*
X103197051Y-55715169D01*
X103197051Y-55715165D01*
X103160001Y-55625717D01*
X103121635Y-55533092D01*
X103121628Y-55533079D01*
X103012139Y-55369218D01*
X103012136Y-55369214D01*
X102869686Y-55226764D01*
X102869655Y-55226735D01*
X102327967Y-54685047D01*
X102294482Y-54623724D01*
X102293181Y-54616804D01*
X102282246Y-54547757D01*
X102216557Y-54345588D01*
X102216555Y-54345585D01*
X102216555Y-54345583D01*
X102181544Y-54276871D01*
X102120051Y-54156184D01*
X101995104Y-53984208D01*
X101977031Y-53966135D01*
X106599500Y-53966135D01*
X106599500Y-55761870D01*
X106599501Y-55761876D01*
X106605908Y-55821483D01*
X106656202Y-55956328D01*
X106656206Y-55956335D01*
X106742452Y-56071544D01*
X106742455Y-56071547D01*
X106857664Y-56157793D01*
X106857671Y-56157797D01*
X106992517Y-56208091D01*
X106992516Y-56208091D01*
X106999444Y-56208835D01*
X107052127Y-56214500D01*
X108847872Y-56214499D01*
X108907483Y-56208091D01*
X109042331Y-56157796D01*
X109157546Y-56071546D01*
X109243796Y-55956331D01*
X109247960Y-55945165D01*
X109261228Y-55927441D01*
X109270428Y-55907297D01*
X109281758Y-55900015D01*
X109289829Y-55889234D01*
X109310577Y-55881495D01*
X109329206Y-55869523D01*
X109351121Y-55866371D01*
X109355293Y-55864816D01*
X109364141Y-55864500D01*
X109529800Y-55864500D01*
X109596839Y-55884185D01*
X109609365Y-55893493D01*
X109782179Y-56019048D01*
X109782181Y-56019049D01*
X109782184Y-56019051D01*
X109929796Y-56094262D01*
X109980591Y-56142236D01*
X109997500Y-56204747D01*
X109997500Y-64487541D01*
X109997500Y-64487543D01*
X109997499Y-64487543D01*
X110035947Y-64680829D01*
X110035950Y-64680839D01*
X110111364Y-64862907D01*
X110111371Y-64862920D01*
X110220860Y-65026781D01*
X110220863Y-65026785D01*
X110360214Y-65166136D01*
X110360218Y-65166139D01*
X110524079Y-65275628D01*
X110524092Y-65275635D01*
X110675509Y-65338353D01*
X110706165Y-65351051D01*
X110706169Y-65351051D01*
X110706170Y-65351052D01*
X110899456Y-65389500D01*
X110899459Y-65389500D01*
X111096543Y-65389500D01*
X111226582Y-65363632D01*
X111289835Y-65351051D01*
X111471914Y-65275632D01*
X111635782Y-65166139D01*
X111775139Y-65026782D01*
X111884632Y-64862914D01*
X111960051Y-64680835D01*
X111998500Y-64487541D01*
X111998500Y-56026626D01*
X112018185Y-55959587D01*
X112070989Y-55913832D01*
X112140147Y-55903888D01*
X112195386Y-55926308D01*
X112322445Y-56018622D01*
X112511782Y-56115095D01*
X112713870Y-56180757D01*
X112923754Y-56214000D01*
X113136246Y-56214000D01*
X113346127Y-56180757D01*
X113346130Y-56180757D01*
X113548217Y-56115095D01*
X113737554Y-56018622D01*
X113791716Y-55979270D01*
X113791717Y-55979270D01*
X113159408Y-55346962D01*
X113222993Y-55329925D01*
X113337007Y-55264099D01*
X113430099Y-55171007D01*
X113495925Y-55056993D01*
X113512962Y-54993408D01*
X114145270Y-55625717D01*
X114145270Y-55625716D01*
X114184622Y-55571554D01*
X114189514Y-55561954D01*
X114237488Y-55511157D01*
X114305308Y-55494361D01*
X114371444Y-55516897D01*
X114410486Y-55561954D01*
X114415375Y-55571550D01*
X114454728Y-55625716D01*
X115087037Y-54993408D01*
X115104075Y-55056993D01*
X115169901Y-55171007D01*
X115262993Y-55264099D01*
X115377007Y-55329925D01*
X115440590Y-55346962D01*
X114808282Y-55979269D01*
X114808282Y-55979270D01*
X114862449Y-56018624D01*
X115051782Y-56115095D01*
X115253870Y-56180757D01*
X115463754Y-56214000D01*
X115676246Y-56214000D01*
X115886127Y-56180757D01*
X115886130Y-56180757D01*
X116088217Y-56115095D01*
X116277554Y-56018622D01*
X116331716Y-55979270D01*
X116331717Y-55979270D01*
X115699408Y-55346962D01*
X115762993Y-55329925D01*
X115877007Y-55264099D01*
X115970099Y-55171007D01*
X116035925Y-55056993D01*
X116052962Y-54993409D01*
X116685270Y-55625717D01*
X116685270Y-55625716D01*
X116724622Y-55571554D01*
X116821095Y-55382217D01*
X116886757Y-55180130D01*
X116886757Y-55180127D01*
X116920000Y-54970246D01*
X116920000Y-54757753D01*
X116886757Y-54547872D01*
X116886757Y-54547869D01*
X116821095Y-54345782D01*
X116724624Y-54156449D01*
X116685270Y-54102282D01*
X116685269Y-54102282D01*
X116052962Y-54734590D01*
X116035925Y-54671007D01*
X115970099Y-54556993D01*
X115877007Y-54463901D01*
X115762993Y-54398075D01*
X115699409Y-54381037D01*
X116331716Y-53748728D01*
X116277550Y-53709375D01*
X116088217Y-53612904D01*
X115886129Y-53547242D01*
X115676246Y-53514000D01*
X115463754Y-53514000D01*
X115253872Y-53547242D01*
X115253869Y-53547242D01*
X115051782Y-53612904D01*
X114862439Y-53709380D01*
X114808282Y-53748727D01*
X114808282Y-53748728D01*
X115440591Y-54381037D01*
X115377007Y-54398075D01*
X115262993Y-54463901D01*
X115169901Y-54556993D01*
X115104075Y-54671007D01*
X115087037Y-54734591D01*
X114454728Y-54102282D01*
X114454727Y-54102282D01*
X114415380Y-54156440D01*
X114410483Y-54166051D01*
X114362506Y-54216845D01*
X114294684Y-54233638D01*
X114228550Y-54211098D01*
X114189516Y-54166048D01*
X114184626Y-54156452D01*
X114145270Y-54102282D01*
X114145269Y-54102282D01*
X113512962Y-54734590D01*
X113495925Y-54671007D01*
X113430099Y-54556993D01*
X113337007Y-54463901D01*
X113222993Y-54398075D01*
X113159409Y-54381037D01*
X113791716Y-53748728D01*
X113737550Y-53709375D01*
X113548217Y-53612904D01*
X113346129Y-53547242D01*
X113136246Y-53514000D01*
X112923754Y-53514000D01*
X112713872Y-53547242D01*
X112713869Y-53547242D01*
X112511782Y-53612904D01*
X112322439Y-53709380D01*
X112268282Y-53748727D01*
X112268282Y-53748728D01*
X112900591Y-54381037D01*
X112837007Y-54398075D01*
X112722993Y-54463901D01*
X112629901Y-54556993D01*
X112564075Y-54671007D01*
X112547037Y-54734591D01*
X111914728Y-54102282D01*
X111914727Y-54102282D01*
X111875380Y-54156440D01*
X111875376Y-54156446D01*
X111870760Y-54165505D01*
X111822781Y-54216297D01*
X111754959Y-54233087D01*
X111688826Y-54210543D01*
X111649794Y-54165493D01*
X111645051Y-54156184D01*
X111645049Y-54156181D01*
X111645048Y-54156179D01*
X111520109Y-53984213D01*
X111369786Y-53833890D01*
X111197820Y-53708951D01*
X111008414Y-53612444D01*
X111008413Y-53612443D01*
X111008412Y-53612443D01*
X110806243Y-53546754D01*
X110806241Y-53546753D01*
X110806240Y-53546753D01*
X110644957Y-53521208D01*
X110596287Y-53513500D01*
X110383713Y-53513500D01*
X110335042Y-53521208D01*
X110173760Y-53546753D01*
X109971585Y-53612444D01*
X109782179Y-53708951D01*
X109606266Y-53836759D01*
X109605635Y-53835891D01*
X109586612Y-53844417D01*
X109564735Y-53858477D01*
X109550758Y-53860486D01*
X109546581Y-53862359D01*
X109529800Y-53863500D01*
X109364141Y-53863500D01*
X109297102Y-53843815D01*
X109251347Y-53791011D01*
X109247969Y-53782859D01*
X109243796Y-53771669D01*
X109243793Y-53771665D01*
X109243793Y-53771664D01*
X109157547Y-53656455D01*
X109157544Y-53656452D01*
X109042335Y-53570206D01*
X109042328Y-53570202D01*
X108907482Y-53519908D01*
X108907483Y-53519908D01*
X108847883Y-53513501D01*
X108847881Y-53513500D01*
X108847873Y-53513500D01*
X108847864Y-53513500D01*
X107052129Y-53513500D01*
X107052123Y-53513501D01*
X106992516Y-53519908D01*
X106857671Y-53570202D01*
X106857664Y-53570206D01*
X106742455Y-53656452D01*
X106742452Y-53656455D01*
X106656206Y-53771664D01*
X106656202Y-53771671D01*
X106605908Y-53906517D01*
X106599501Y-53966116D01*
X106599500Y-53966135D01*
X101977031Y-53966135D01*
X101844792Y-53833896D01*
X101844786Y-53833890D01*
X101672820Y-53708951D01*
X101483414Y-53612444D01*
X101483413Y-53612443D01*
X101483412Y-53612443D01*
X101281243Y-53546754D01*
X101281241Y-53546753D01*
X101281240Y-53546753D01*
X101119957Y-53521208D01*
X101071287Y-53513500D01*
X100858713Y-53513500D01*
X100810042Y-53521208D01*
X100648760Y-53546753D01*
X100446585Y-53612444D01*
X100257179Y-53708951D01*
X100085213Y-53833890D01*
X99934890Y-53984213D01*
X99809949Y-54156182D01*
X99805484Y-54164946D01*
X99757509Y-54215742D01*
X99689688Y-54232536D01*
X99623553Y-54209998D01*
X99584516Y-54164946D01*
X99580050Y-54156182D01*
X99455109Y-53984213D01*
X99304786Y-53833890D01*
X99132820Y-53708951D01*
X98943414Y-53612444D01*
X98943413Y-53612443D01*
X98943412Y-53612443D01*
X98741243Y-53546754D01*
X98741241Y-53546753D01*
X98741240Y-53546753D01*
X98579957Y-53521208D01*
X98531287Y-53513500D01*
X98318713Y-53513500D01*
X98270042Y-53521208D01*
X98108760Y-53546753D01*
X97906585Y-53612444D01*
X97717179Y-53708951D01*
X97545215Y-53833889D01*
X97431673Y-53947431D01*
X97370350Y-53980915D01*
X97300658Y-53975931D01*
X97244725Y-53934059D01*
X97227810Y-53903082D01*
X97178797Y-53771671D01*
X97178793Y-53771664D01*
X97092547Y-53656455D01*
X97092544Y-53656452D01*
X96977335Y-53570206D01*
X96977328Y-53570202D01*
X96842482Y-53519908D01*
X96842483Y-53519908D01*
X96782883Y-53513501D01*
X96782881Y-53513500D01*
X96782873Y-53513500D01*
X96782864Y-53513500D01*
X94987129Y-53513500D01*
X94987123Y-53513501D01*
X94927516Y-53519908D01*
X94792671Y-53570202D01*
X94792664Y-53570206D01*
X94677455Y-53656452D01*
X94677452Y-53656455D01*
X94591206Y-53771664D01*
X94591202Y-53771671D01*
X94540908Y-53906517D01*
X94534501Y-53966116D01*
X94534500Y-53966135D01*
X93500500Y-53966135D01*
X93500500Y-53149500D01*
X93520185Y-53082461D01*
X93572989Y-53036706D01*
X93624500Y-53025500D01*
X117375500Y-53025500D01*
X117442539Y-53045185D01*
G37*
%TD.AperFunction*%
%TD*%
M02*
