M48
; DRILL file {KiCad 8.0.8} date 2025-04-29T10:44:15+0900
; FORMAT={-:-/ absolute / metric / decimal}
; #@! TF.CreationDate,2025-04-29T10:44:15+09:00
; #@! TF.GenerationSoftware,Kicad,Pcbnew,8.0.8
; #@! TF.FileFunction,Plated,1,2,PTH
FMAT,2
METRIC
; #@! TA.AperFunction,Plated,PTH,ViaDrill
T1C0.300
; #@! TA.AperFunction,Plated,PTH,ComponentDrill
T2C0.600
; #@! TA.AperFunction,Plated,PTH,ComponentDrill
T3C0.710
; #@! TA.AperFunction,Plated,PTH,ComponentDrill
T4C0.750
; #@! TA.AperFunction,Plated,PTH,ComponentDrill
T5C0.800
; #@! TA.AperFunction,Plated,PTH,ComponentDrill
T6C0.870
; #@! TA.AperFunction,Plated,PTH,ComponentDrill
T7C0.900
; #@! TA.AperFunction,Plated,PTH,ComponentDrill
T8C0.950
; #@! TA.AperFunction,Plated,PTH,ComponentDrill
T9C1.000
; #@! TA.AperFunction,Plated,PTH,ComponentDrill
T10C1.050
; #@! TA.AperFunction,Plated,PTH,ComponentDrill
T11C1.090
; #@! TA.AperFunction,Plated,PTH,ComponentDrill
T12C1.100
; #@! TA.AperFunction,Plated,PTH,ComponentDrill
T13C1.200
; #@! TA.AperFunction,Plated,PTH,ComponentDrill
T14C1.500
; #@! TA.AperFunction,Plated,PTH,ComponentDrill
T15C1.530
; #@! TA.AperFunction,Plated,PTH,ComponentDrill
T16C1.600
; #@! TA.AperFunction,Plated,PTH,ComponentDrill
T17C1.640
; #@! TA.AperFunction,Plated,PTH,ComponentDrill
T18C2.900
; #@! TA.AperFunction,Plated,PTH,ComponentDrill
T19C2.970
%
G90
G05
T1
X80.645Y-53.34
X83.82Y-53.975
X85.725Y-71.755
X86.995Y-44.069
X87.63Y-53.975
X87.63Y-59.055
X89.535Y-136.525
X91.44Y-53.34
X92.71Y-55.245
X92.71Y-82.55
X93.98Y-53.34
X93.98Y-72.39
X96.52Y-82.55
X97.155Y-65.807
X98.425Y-72.39
X101.854Y-53.213
X104.691Y-61.511
X105.41Y-58.674
X105.664Y-61.511
X106.68Y-53.34
X106.934Y-77.47
X107.439Y-60.836
X108.716Y-62.113
X109.347Y-38.481
X110.236Y-41.529
X111.727Y-47.719
X113.284Y-41.656
X113.862Y-47.296
X115.319Y-46.246
X115.456Y-66.818
X115.559Y-47.534
X117.348Y-98.679
X117.475Y-131.445
X117.547Y-38.697
X117.729Y-47.117
X118.11Y-59.055
X118.745Y-53.848
X119.238Y-106.68
X119.507Y-76.962
X119.761Y-54.229
X120.65Y-72.009
X125.73Y-59.055
X126.365Y-108.585
X127.635Y-142.875
X129.54Y-54.102
X131.452Y-52.712
X134.34Y-66.806
X135.649Y-49.137
X136.751Y-60.382
X137.085Y-52.109
X137.679Y-126.463
X138.036Y-52.25
X139.065Y-42.418
X140.843Y-48.514
X141.859Y-47.498
X144.78Y-38.1
X145.288Y-47.498
X146.177Y-48.514
X170.141Y-103.017
X175.26Y-142.875
X179.07Y-60.325
X179.07Y-62.23
X184.135Y-133.942
X186.69Y-41.656
X203.2Y-125.73
X207.01Y-125.73
X214.108Y-95.808
X214.108Y-104.707
T2
X67.215Y-139.065
X69.215Y-139.065
X74.835Y-115.57
X76.835Y-115.57
X80.55Y-136.525
X82.55Y-136.525
X112.935Y-138.43
X114.935Y-138.43
X120.015Y-144.78
X121.825Y-111.125
X122.015Y-144.78
X123.825Y-111.125
X135.89Y-140.97
X137.89Y-140.97
X141.51Y-110.49
X142.145Y-137.795
X143.51Y-110.49
X144.145Y-137.795
X148.495Y-110.49
X149.13Y-132.635
X150.495Y-110.49
X151.13Y-132.635
X178.975Y-71.12
X178.975Y-76.835
X180.975Y-71.12
X180.975Y-76.835
T3
X34.145Y-111.125
X34.145Y-113.665
X34.145Y-116.205
X34.925Y-45.72
X34.925Y-133.985
X34.925Y-136.525
X34.925Y-139.065
X40.025Y-48.31
X45.71Y-45.695
X50.81Y-48.285
X81.28Y-109.71
X83.82Y-109.71
X86.36Y-109.71
X183.105Y-114.3
X185.645Y-114.3
X188.185Y-114.3
T4
X53.785Y-121.92
X53.86Y-115.57
X55.055Y-120.65
X55.055Y-123.19
X55.13Y-114.3
X55.13Y-116.84
X59.69Y-121.92
X60.325Y-139.065
X60.96Y-120.65
X60.96Y-123.19
X61.595Y-137.795
X61.595Y-140.335
X66.155Y-123.15
X67.425Y-121.88
X67.425Y-124.42
X84.455Y-123.19
X84.455Y-125.73
X85.725Y-124.46
X88.9Y-130.175
X90.055Y-124.46
X90.17Y-131.445
X91.325Y-123.19
X91.325Y-125.73
X91.44Y-130.175
X101.6Y-121.285
X101.6Y-123.825
X102.235Y-109.855
X102.235Y-112.395
X102.87Y-122.555
X103.505Y-111.125
X108.585Y-109.855
X108.585Y-112.395
X108.585Y-121.285
X108.585Y-123.825
X109.855Y-111.125
X109.855Y-122.555
X114.46Y-109.855
X114.46Y-112.395
X114.935Y-121.285
X114.935Y-123.825
X115.73Y-111.125
X116.205Y-122.555
X120.535Y-137.795
X120.65Y-130.175
X121.805Y-136.525
X121.805Y-139.065
X121.92Y-128.905
X121.92Y-131.445
X149.86Y-125.015
X149.86Y-127.555
X151.13Y-126.285
X163.195Y-50.165
X163.195Y-52.705
X164.465Y-51.435
X165.735Y-83.185
X167.005Y-70.485
X167.005Y-81.915
X168.275Y-69.215
X168.275Y-83.185
X169.36Y-129.54
X169.36Y-132.08
X169.545Y-50.165
X169.545Y-52.705
X169.545Y-70.485
X170.63Y-130.81
X170.815Y-51.435
X173.355Y-58.42
X174.625Y-57.15
X175.895Y-58.42
X178.025Y-130.175
X179.295Y-131.445
X179.705Y-66.04
X180.565Y-130.175
X180.975Y-64.77
X182.245Y-66.04
X186.69Y-70.485
X186.69Y-76.835
X187.96Y-69.215
X187.96Y-75.565
X189.23Y-70.485
X189.23Y-76.835
X193.04Y-76.835
X194.31Y-75.565
X195.58Y-76.835
T5
X32.32Y-127.0
X33.51Y-106.045
X33.51Y-122.555
X36.05Y-106.045
X36.05Y-122.555
X36.18Y-79.385
X36.18Y-81.925
X36.18Y-84.465
X36.18Y-87.005
X37.32Y-127.0
X41.275Y-119.38
X41.275Y-121.92
X41.275Y-124.46
X41.275Y-127.0
X41.55Y-110.52
X41.55Y-113.06
X41.55Y-115.6
X43.8Y-79.385
X43.8Y-81.925
X43.8Y-84.465
X43.8Y-87.005
X44.225Y-106.68
X45.085Y-133.35
X45.085Y-137.16
X46.765Y-106.68
X47.03Y-53.975
X47.371Y-79.121
X47.625Y-133.35
X47.625Y-137.16
X47.752Y-82.55
X48.895Y-119.38
X48.895Y-121.92
X48.895Y-124.46
X48.895Y-127.0
X49.17Y-110.52
X49.17Y-113.06
X49.17Y-115.6
X49.53Y-53.975
X49.57Y-68.58
X49.61Y-74.295
X49.911Y-79.121
X50.292Y-82.55
X53.34Y-128.27
X53.34Y-138.43
X53.565Y-133.35
X54.57Y-68.58
X54.61Y-74.295
X55.88Y-128.27
X55.88Y-138.43
X56.047Y-80.518
X56.105Y-133.35
X56.515Y-107.315
X56.555Y-46.99
X57.19Y-53.975
X58.547Y-80.518
X59.055Y-107.315
X59.69Y-53.975
X60.325Y-133.35
X60.365Y-128.27
X61.555Y-46.99
X62.865Y-133.35
X63.5Y-53.975
X64.81Y-46.99
X65.365Y-128.27
X65.52Y-113.665
X65.52Y-118.665
X66.9Y-133.35
X69.33Y-116.165
X69.33Y-118.705
X69.44Y-133.35
X69.81Y-46.99
X71.12Y-53.975
X73.025Y-109.855
X75.565Y-109.855
X77.47Y-57.15
X77.47Y-74.95
X77.47Y-123.375
X77.47Y-125.915
X77.47Y-129.54
X77.47Y-132.08
X80.01Y-57.15
X80.01Y-74.95
X82.55Y-57.15
X82.55Y-74.95
X82.55Y-116.84
X82.55Y-119.38
X83.185Y-128.905
X83.185Y-132.08
X85.09Y-57.15
X85.09Y-74.95
X85.725Y-116.84
X85.725Y-119.38
X85.725Y-128.905
X85.725Y-132.08
X87.63Y-57.15
X87.63Y-74.95
X88.265Y-137.795
X88.9Y-116.84
X88.9Y-119.38
X90.17Y-57.15
X90.17Y-74.95
X90.805Y-137.795
X92.075Y-116.84
X92.075Y-119.38
X92.71Y-57.15
X92.71Y-74.95
X95.21Y-128.92
X95.21Y-131.46
X95.21Y-134.0
X95.25Y-57.15
X95.25Y-74.95
X97.155Y-109.22
X97.155Y-111.76
X97.155Y-116.205
X97.155Y-137.795
X97.79Y-57.15
X97.79Y-74.95
X99.695Y-137.795
X100.33Y-57.15
X100.33Y-74.95
X102.155Y-116.205
X102.83Y-128.92
X102.83Y-131.46
X102.83Y-134.0
X102.87Y-57.15
X102.87Y-74.95
X105.41Y-57.15
X105.41Y-74.95
X105.41Y-116.205
X106.045Y-138.43
X106.68Y-129.54
X106.68Y-133.985
X107.95Y-57.15
X107.95Y-74.95
X108.585Y-138.43
X109.22Y-129.54
X109.22Y-133.985
X110.41Y-116.205
X110.49Y-57.15
X110.49Y-74.95
X111.76Y-133.985
X112.395Y-129.54
X113.03Y-57.15
X113.03Y-74.95
X113.665Y-116.205
X114.3Y-133.985
X114.935Y-129.54
X115.57Y-57.15
X115.57Y-74.95
X118.11Y-57.15
X118.11Y-74.95
X118.665Y-116.205
X120.65Y-57.15
X120.65Y-74.95
X123.19Y-57.15
X123.19Y-74.95
X123.433Y-116.285
X123.433Y-121.285
X125.73Y-57.15
X125.73Y-74.95
X127.635Y-132.715
X127.635Y-136.525
X128.158Y-114.3
X128.158Y-116.84
X128.158Y-119.38
X128.158Y-123.19
X128.158Y-125.73
X128.158Y-128.27
X128.27Y-110.49
X128.27Y-140.335
X130.175Y-132.715
X130.175Y-136.525
X130.81Y-110.49
X130.81Y-140.335
X132.08Y-57.785
X132.08Y-60.325
X132.08Y-71.53
X132.08Y-74.07
X133.125Y-136.525
X133.35Y-132.715
X134.228Y-110.49
X135.255Y-57.785
X135.255Y-60.325
X135.255Y-71.53
X135.255Y-76.53
X135.665Y-136.525
X135.778Y-114.3
X135.778Y-116.84
X135.778Y-119.38
X135.778Y-123.19
X135.778Y-125.73
X135.778Y-128.27
X135.89Y-132.715
X136.768Y-110.49
X139.065Y-116.84
X139.065Y-121.84
X139.7Y-125.73
X140.56Y-129.46
X140.56Y-132.715
X142.24Y-125.73
X142.875Y-116.84
X142.875Y-121.84
X143.1Y-129.46
X143.1Y-132.715
X148.59Y-138.35
X149.225Y-118.03
X151.115Y-38.11
X151.115Y-40.65
X151.115Y-43.19
X151.115Y-45.73
X151.13Y-138.35
X151.765Y-118.03
X152.4Y-48.67
X152.4Y-51.21
X155.575Y-48.67
X155.575Y-51.21
X157.295Y-132.08
X157.705Y-136.525
X157.745Y-140.335
X158.115Y-78.105
X158.115Y-83.105
X158.735Y-38.11
X158.735Y-40.65
X158.735Y-43.19
X158.735Y-45.73
X159.61Y-120.65
X160.02Y-59.69
X160.245Y-55.88
X160.245Y-136.525
X161.29Y-65.405
X161.515Y-69.215
X161.81Y-75.565
X161.81Y-78.105
X162.15Y-120.65
X162.295Y-132.08
X162.375Y-128.905
X162.56Y-37.875
X162.56Y-40.415
X162.56Y-43.59
X162.56Y-46.13
X162.56Y-59.69
X162.745Y-140.335
X162.785Y-55.88
X163.42Y-136.525
X163.83Y-65.405
X164.055Y-69.215
X164.915Y-128.905
X165.735Y-75.565
X165.735Y-78.105
X165.735Y-120.65
X165.96Y-123.825
X165.96Y-136.525
X167.005Y-65.405
X167.23Y-59.055
X168.275Y-120.65
X168.5Y-123.825
X169.545Y-65.405
X169.545Y-75.565
X169.545Y-78.105
X169.77Y-59.055
X171.45Y-120.65
X171.45Y-123.825
X172.085Y-37.465
X172.085Y-42.465
X173.355Y-65.405
X173.355Y-69.215
X173.355Y-75.565
X173.355Y-78.105
X173.99Y-120.65
X173.99Y-123.825
X174.36Y-129.54
X174.36Y-132.08
X175.895Y-65.405
X175.895Y-69.215
X176.53Y-38.005
X176.53Y-40.545
X176.53Y-43.085
X176.53Y-45.625
X176.53Y-48.165
X176.53Y-50.705
X176.53Y-53.245
X179.295Y-120.69
X179.295Y-123.19
X179.295Y-135.16
X179.295Y-137.16
X179.705Y-82.55
X180.115Y-59.055
X182.245Y-82.55
X182.655Y-59.055
X184.135Y-127.0
X184.15Y-38.005
X184.15Y-40.545
X184.15Y-43.085
X184.15Y-45.625
X184.15Y-48.165
X184.15Y-50.705
X184.15Y-53.245
X184.215Y-123.825
X185.83Y-63.5
X186.055Y-82.55
X188.37Y-63.5
X188.595Y-38.005
X188.595Y-40.545
X188.595Y-82.55
X189.135Y-127.0
X189.215Y-123.825
X192.39Y-123.825
X192.39Y-127.0
X193.635Y-69.38
X194.93Y-116.205
X194.93Y-118.745
X194.93Y-123.825
X194.93Y-127.0
X195.635Y-69.38
X196.596Y-133.731
X198.345Y-116.205
X198.345Y-118.745
X199.136Y-133.731
X199.43Y-76.2
X200.01Y-122.555
X200.01Y-130.175
X201.93Y-76.2
X202.55Y-109.22
X202.55Y-122.555
X202.55Y-130.175
X202.55Y-133.35
X202.55Y-135.89
X203.82Y-116.245
X203.82Y-118.745
X205.09Y-109.22
X205.09Y-122.555
X205.09Y-130.175
X205.105Y-83.82
X205.515Y-68.58
X205.75Y-72.405
X205.75Y-80.025
X207.63Y-122.555
X207.63Y-130.175
X207.645Y-83.82
X207.855Y-109.22
X208.055Y-68.58
X208.265Y-116.205
X208.265Y-118.745
X208.29Y-72.405
X208.29Y-80.025
X208.9Y-133.35
X208.9Y-135.89
X210.17Y-122.555
X210.17Y-130.175
X210.395Y-109.22
X210.83Y-72.405
X210.83Y-80.025
X211.005Y-68.58
X211.045Y-83.82
X211.44Y-116.205
X211.44Y-118.745
X212.075Y-133.35
X212.075Y-135.89
X212.71Y-122.555
X212.71Y-130.175
X213.345Y-109.22
X213.37Y-72.405
X213.37Y-80.025
X213.545Y-68.58
X213.585Y-83.82
X214.615Y-116.205
X214.615Y-118.745
X215.25Y-122.555
X215.25Y-130.175
X215.25Y-133.35
X215.25Y-135.89
X217.79Y-116.205
X217.79Y-118.745
X217.79Y-122.555
X217.79Y-130.175
X217.805Y-90.297
X217.805Y-92.837
X217.805Y-96.585
X217.805Y-99.085
X217.805Y-102.587
X217.805Y-105.127
X218.345Y-109.22
X218.425Y-133.35
X218.425Y-135.89
T6
X61.595Y-41.275
X64.135Y-41.275
X66.675Y-41.275
T7
X60.325Y-114.3
X60.325Y-116.84
X149.225Y-121.84
X151.765Y-121.84
X156.435Y-128.905
X158.975Y-128.905
X159.61Y-123.825
X162.15Y-123.825
X166.37Y-37.875
X166.37Y-40.415
X166.37Y-43.59
X166.37Y-46.13
X168.5Y-136.525
X171.04Y-136.525
X173.99Y-82.55
X176.53Y-82.55
X188.595Y-43.085
X188.595Y-45.625
X188.595Y-48.8
X188.595Y-51.34
X188.595Y-54.515
X188.595Y-57.055
T8
X64.93Y-80.645
X67.43Y-80.645
X69.93Y-80.645
X72.43Y-80.645
X74.93Y-80.645
T9
X33.827Y-56.515
X36.825Y-41.91
X36.83Y-37.465
X38.827Y-56.515
X39.365Y-41.91
X39.37Y-37.465
X46.99Y-37.465
X46.99Y-41.91
X49.53Y-37.465
X49.53Y-41.91
X60.96Y-73.025
X63.5Y-73.025
X66.04Y-73.025
X67.31Y-92.05
X67.31Y-94.55
X67.31Y-97.05
X67.31Y-99.55
X68.58Y-109.855
X77.47Y-51.06
X80.01Y-51.06
X81.915Y-80.645
X82.55Y-51.06
X84.455Y-80.645
X86.995Y-80.645
X88.9Y-51.04
X89.535Y-80.645
X91.278Y-92.022
X91.278Y-94.522
X91.278Y-97.022
X91.278Y-99.522
X91.44Y-51.04
X93.98Y-51.04
X96.52Y-51.04
X97.79Y-80.665
X99.06Y-51.04
X100.33Y-80.665
X101.6Y-51.04
X102.87Y-80.665
X105.41Y-80.665
X107.95Y-80.665
X110.49Y-80.665
X113.03Y-80.665
X114.947Y-90.635
X114.947Y-92.635
X114.947Y-94.635
X114.947Y-96.635
X114.947Y-98.635
X114.947Y-100.635
X115.57Y-80.665
X132.075Y-40.005
X134.615Y-40.005
X137.155Y-40.005
X138.915Y-91.995
X138.915Y-94.495
X138.915Y-96.995
X138.915Y-99.495
X139.695Y-40.005
X142.235Y-40.005
X158.975Y-113.03
X161.515Y-113.03
X162.883Y-91.94
X162.883Y-94.44
X162.883Y-96.94
X162.883Y-99.44
X164.055Y-113.03
X172.945Y-113.03
X175.485Y-113.03
X186.852Y-91.912
X186.852Y-94.412
X186.852Y-96.912
X186.852Y-99.412
X192.405Y-63.0
X194.945Y-63.0
X212.09Y-91.88
X212.09Y-94.38
X212.09Y-96.88
X212.09Y-99.38
X216.0Y-54.05
X216.0Y-56.55
X216.0Y-59.05
X216.0Y-61.55
X219.0Y-42.0
X219.0Y-44.54
T10
X94.465Y-42.17
X94.465Y-46.67
X100.965Y-42.17
X100.965Y-46.67
T11
X32.385Y-96.0
X34.925Y-96.0
X37.465Y-96.0
X40.005Y-96.0
X42.545Y-96.0
X62.865Y-25.145
X62.865Y-30.225
X65.405Y-30.225
X67.945Y-25.145
X67.945Y-30.225
T12
X44.232Y-60.325
X46.695Y-68.58
X46.695Y-71.12
X46.695Y-73.66
X49.312Y-60.325
T13
X153.685Y-62.865
X153.685Y-65.365
X153.685Y-67.865
T14
X80.885Y-34.29
X83.385Y-24.39
X83.385Y-36.79
X88.385Y-34.29
X93.385Y-24.39
X93.385Y-36.79
X95.885Y-34.29
X104.38Y-34.29
X106.88Y-24.39
X106.88Y-36.79
X111.88Y-34.29
X116.88Y-24.39
X116.88Y-36.79
X119.38Y-34.29
T15
X144.1Y-32.805
X157.17Y-32.805
X170.05Y-32.805
X182.75Y-32.805
T16
X193.885Y-24.645
X193.885Y-30.945
X193.885Y-37.245
X210.185Y-24.645
X210.185Y-30.945
X210.185Y-37.245
T17
X139.15Y-27.305
X139.7Y-32.805
X144.65Y-27.305
X152.22Y-27.305
X152.77Y-32.805
X157.72Y-27.305
X165.1Y-27.305
X165.65Y-32.805
X170.6Y-27.305
X177.8Y-27.305
X178.35Y-32.805
X183.3Y-27.305
T18
X56.31Y-90.0
X56.31Y-101.6
X80.278Y-89.972
X80.278Y-101.572
X127.915Y-89.945
X127.915Y-101.545
X151.883Y-89.89
X151.883Y-101.49
X175.852Y-89.862
X175.852Y-101.462
X201.09Y-89.83
X201.09Y-101.43
X205.0Y-52.0
X205.0Y-63.6
T19
X103.947Y-89.835
X103.947Y-101.435
X146.685Y-60.965
X146.685Y-69.765
T9
X37.845Y-28.035G85X37.845Y-30.035
G05
X43.545Y-26.035G85X41.545Y-26.035
G05
X43.545Y-32.035G85X41.545Y-32.035
G05
M30
