%TF.GenerationSoftware,KiCad,Pcbnew,8.0.8*%
%TF.CreationDate,2025-03-25T20:46:00+09:00*%
%TF.ProjectId,mainBorad,6d61696e-426f-4726-9164-2e6b69636164,rev?*%
%TF.SameCoordinates,Original*%
%TF.FileFunction,Paste,Top*%
%TF.FilePolarity,Positive*%
%FSLAX46Y46*%
G04 Gerber Fmt 4.6, Leading zero omitted, Abs format (unit mm)*
G04 Created by KiCad (PCBNEW 8.0.8) date 2025-03-25 20:46:00*
%MOMM*%
%LPD*%
G01*
G04 APERTURE LIST*
G04 Aperture macros list*
%AMRoundRect*
0 Rectangle with rounded corners*
0 $1 Rounding radius*
0 $2 $3 $4 $5 $6 $7 $8 $9 X,Y pos of 4 corners*
0 Add a 4 corners polygon primitive as box body*
4,1,4,$2,$3,$4,$5,$6,$7,$8,$9,$2,$3,0*
0 Add four circle primitives for the rounded corners*
1,1,$1+$1,$2,$3*
1,1,$1+$1,$4,$5*
1,1,$1+$1,$6,$7*
1,1,$1+$1,$8,$9*
0 Add four rect primitives between the rounded corners*
20,1,$1+$1,$2,$3,$4,$5,0*
20,1,$1+$1,$4,$5,$6,$7,0*
20,1,$1+$1,$6,$7,$8,$9,0*
20,1,$1+$1,$8,$9,$2,$3,0*%
G04 Aperture macros list end*
%ADD10RoundRect,0.250000X-0.350000X-0.450000X0.350000X-0.450000X0.350000X0.450000X-0.350000X0.450000X0*%
%ADD11RoundRect,0.250000X-0.475000X0.337500X-0.475000X-0.337500X0.475000X-0.337500X0.475000X0.337500X0*%
%ADD12R,1.650000X0.700000*%
%ADD13R,0.450000X1.475000*%
%ADD14RoundRect,0.150000X0.150000X-0.825000X0.150000X0.825000X-0.150000X0.825000X-0.150000X-0.825000X0*%
%ADD15RoundRect,0.225000X-0.225000X-0.375000X0.225000X-0.375000X0.225000X0.375000X-0.225000X0.375000X0*%
G04 APERTURE END LIST*
D10*
%TO.C,DgR4*%
X83360000Y-41275000D03*
X85360000Y-41275000D03*
%TD*%
D11*
%TO.C,DgC6*%
X130175000Y-64770000D03*
X130175000Y-66845000D03*
%TD*%
D12*
%TO.C,DgIC4*%
X78570000Y-44075000D03*
X78570000Y-45345000D03*
X78570000Y-46615000D03*
X85070000Y-46615000D03*
X85070000Y-45345000D03*
X85070000Y-44075000D03*
%TD*%
D13*
%TO.C,DgIC3*%
X111920000Y-50143000D03*
X112570000Y-50143000D03*
X113220000Y-50143000D03*
X113870000Y-50143000D03*
X114520000Y-50143000D03*
X115170000Y-50143000D03*
X115820000Y-50143000D03*
X116470000Y-50143000D03*
X117120000Y-50143000D03*
X117770000Y-50143000D03*
X117770000Y-44267000D03*
X117120000Y-44267000D03*
X116470000Y-44267000D03*
X115820000Y-44267000D03*
X115170000Y-44267000D03*
X114520000Y-44267000D03*
X113870000Y-44267000D03*
X113220000Y-44267000D03*
X112570000Y-44267000D03*
X111920000Y-44267000D03*
%TD*%
D11*
%TO.C,DgC1*%
X88900000Y-44047500D03*
X88900000Y-46122500D03*
%TD*%
D14*
%TO.C,DgIC5*%
X132715000Y-68515000D03*
X133985000Y-68515000D03*
X135255000Y-68515000D03*
X136525000Y-68515000D03*
X136525000Y-63565000D03*
X135255000Y-63565000D03*
X133985000Y-63565000D03*
X132715000Y-63565000D03*
%TD*%
D10*
%TO.C,DgR3*%
X78645000Y-41275000D03*
X80645000Y-41275000D03*
%TD*%
D11*
%TO.C,DgC4*%
X109765000Y-45765000D03*
X109765000Y-47840000D03*
%TD*%
%TO.C,DgC3*%
X131770000Y-46422000D03*
X131770000Y-48497000D03*
%TD*%
D15*
%TO.C,DgD1*%
X87885000Y-41275000D03*
X91185000Y-41275000D03*
%TD*%
D13*
%TO.C,DgIC2*%
X133600000Y-50563000D03*
X134250000Y-50563000D03*
X134900000Y-50563000D03*
X135550000Y-50563000D03*
X136200000Y-50563000D03*
X136850000Y-50563000D03*
X137500000Y-50563000D03*
X138150000Y-50563000D03*
X138800000Y-50563000D03*
X139450000Y-50563000D03*
X139450000Y-44687000D03*
X138800000Y-44687000D03*
X138150000Y-44687000D03*
X137500000Y-44687000D03*
X136850000Y-44687000D03*
X136200000Y-44687000D03*
X135550000Y-44687000D03*
X134900000Y-44687000D03*
X134250000Y-44687000D03*
X133600000Y-44687000D03*
%TD*%
M02*
