%TF.GenerationSoftware,KiCad,Pcbnew,8.0.8*%
%TF.CreationDate,2025-04-29T10:44:01+09:00*%
%TF.ProjectId,mainBorad_R1,6d61696e-426f-4726-9164-5f52312e6b69,rev?*%
%TF.SameCoordinates,Original*%
%TF.FileFunction,Soldermask,Top*%
%TF.FilePolarity,Negative*%
%FSLAX46Y46*%
G04 Gerber Fmt 4.6, Leading zero omitted, Abs format (unit mm)*
G04 Created by KiCad (PCBNEW 8.0.8) date 2025-04-29 10:44:01*
%MOMM*%
%LPD*%
G01*
G04 APERTURE LIST*
G04 Aperture macros list*
%AMRoundRect*
0 Rectangle with rounded corners*
0 $1 Rounding radius*
0 $2 $3 $4 $5 $6 $7 $8 $9 X,Y pos of 4 corners*
0 Add a 4 corners polygon primitive as box body*
4,1,4,$2,$3,$4,$5,$6,$7,$8,$9,$2,$3,0*
0 Add four circle primitives for the rounded corners*
1,1,$1+$1,$2,$3*
1,1,$1+$1,$4,$5*
1,1,$1+$1,$6,$7*
1,1,$1+$1,$8,$9*
0 Add four rect primitives between the rounded corners*
20,1,$1+$1,$2,$3,$4,$5,0*
20,1,$1+$1,$4,$5,$6,$7,0*
20,1,$1+$1,$6,$7,$8,$9,0*
20,1,$1+$1,$8,$9,$2,$3,0*%
G04 Aperture macros list end*
%ADD10R,1.305000X1.305000*%
%ADD11C,1.305000*%
%ADD12C,2.450000*%
%ADD13C,2.300000*%
%ADD14C,1.600000*%
%ADD15O,1.600000X1.600000*%
%ADD16R,1.600000X1.600000*%
%ADD17R,1.600000X2.400000*%
%ADD18O,1.600000X2.400000*%
%ADD19R,1.217000X1.217000*%
%ADD20C,1.217000*%
%ADD21R,1.800000X1.800000*%
%ADD22O,1.800000X1.800000*%
%ADD23C,1.800000*%
%ADD24C,4.455000*%
%ADD25R,1.100000X1.800000*%
%ADD26RoundRect,0.275000X-0.275000X-0.625000X0.275000X-0.625000X0.275000X0.625000X-0.275000X0.625000X0*%
%ADD27R,1.200000X1.200000*%
%ADD28C,1.200000*%
%ADD29R,2.400000X1.600000*%
%ADD30O,2.400000X1.600000*%
%ADD31R,1.700000X1.700000*%
%ADD32O,1.700000X1.700000*%
%ADD33R,1.800000X1.100000*%
%ADD34RoundRect,0.275000X-0.625000X0.275000X-0.625000X-0.275000X0.625000X-0.275000X0.625000X0.275000X0*%
%ADD35C,1.635000*%
%ADD36RoundRect,0.250000X-0.350000X-0.450000X0.350000X-0.450000X0.350000X0.450000X-0.350000X0.450000X0*%
%ADD37R,2.200000X2.200000*%
%ADD38O,2.200000X2.200000*%
%ADD39RoundRect,0.250000X-0.475000X0.337500X-0.475000X-0.337500X0.475000X-0.337500X0.475000X0.337500X0*%
%ADD40RoundRect,0.275000X0.625000X-0.275000X0.625000X0.275000X-0.625000X0.275000X-0.625000X-0.275000X0*%
%ADD41RoundRect,0.275000X0.275000X0.625000X-0.275000X0.625000X-0.275000X-0.625000X0.275000X-0.625000X0*%
%ADD42R,1.650000X0.700000*%
%ADD43RoundRect,0.250000X-0.600000X-0.725000X0.600000X-0.725000X0.600000X0.725000X-0.600000X0.725000X0*%
%ADD44O,1.700000X1.950000*%
%ADD45R,0.450000X1.475000*%
%ADD46R,2.250000X2.250000*%
%ADD47C,2.250000*%
%ADD48R,1.500000X1.500000*%
%ADD49C,1.500000*%
%ADD50C,4.350000*%
%ADD51C,2.400000*%
%ADD52RoundRect,0.150000X0.150000X-0.825000X0.150000X0.825000X-0.150000X0.825000X-0.150000X-0.825000X0*%
%ADD53C,1.575000*%
%ADD54C,3.500000*%
%ADD55R,2.000000X1.905000*%
%ADD56O,2.000000X1.905000*%
%ADD57R,3.500000X3.500000*%
%ADD58RoundRect,0.750000X-1.000000X0.750000X-1.000000X-0.750000X1.000000X-0.750000X1.000000X0.750000X0*%
%ADD59RoundRect,0.875000X-0.875000X0.875000X-0.875000X-0.875000X0.875000X-0.875000X0.875000X0.875000X0*%
%ADD60RoundRect,0.225000X-0.225000X-0.375000X0.225000X-0.375000X0.225000X0.375000X-0.225000X0.375000X0*%
%ADD61R,2.000000X2.000000*%
%ADD62C,2.000000*%
G04 APERTURE END LIST*
D10*
%TO.C,PwIC1*%
X61595000Y-41275000D03*
D11*
X64135000Y-41275000D03*
X66675000Y-41275000D03*
%TD*%
D12*
%TO.C,DgJ13*%
X152770000Y-32805000D03*
X152220000Y-27305000D03*
X157720000Y-27305000D03*
D13*
X157170000Y-32805000D03*
%TD*%
D12*
%TO.C,DgJ12*%
X178350000Y-32805000D03*
X177800000Y-27305000D03*
X183300000Y-27305000D03*
D13*
X182750000Y-32805000D03*
%TD*%
D12*
%TO.C,DgJ11*%
X165650000Y-32805000D03*
X165100000Y-27305000D03*
X170600000Y-27305000D03*
D13*
X170050000Y-32805000D03*
%TD*%
D12*
%TO.C,DgJ9*%
X139700000Y-32805000D03*
X139150000Y-27305000D03*
X144650000Y-27305000D03*
D13*
X144100000Y-32805000D03*
%TD*%
D14*
%TO.C,R105*%
X69330000Y-116165000D03*
D15*
X69330000Y-118705000D03*
%TD*%
D14*
%TO.C,R26*%
X168275000Y-120650000D03*
D15*
X165735000Y-120650000D03*
%TD*%
D14*
%TO.C,R70*%
X77470000Y-123375000D03*
D15*
X77470000Y-125915000D03*
%TD*%
D14*
%TO.C,R45*%
X53340000Y-138430000D03*
D15*
X55880000Y-138430000D03*
%TD*%
D16*
%TO.C,C8*%
X217805000Y-96584900D03*
D14*
X217805000Y-99084900D03*
%TD*%
D17*
%TO.C,U1*%
X217790000Y-122555000D03*
D18*
X215250000Y-122555000D03*
X212710000Y-122555000D03*
X210170000Y-122555000D03*
X207630000Y-122555000D03*
X205090000Y-122555000D03*
X202550000Y-122555000D03*
X200010000Y-122555000D03*
X200010000Y-130175000D03*
X202550000Y-130175000D03*
X205090000Y-130175000D03*
X207630000Y-130175000D03*
X210170000Y-130175000D03*
X212710000Y-130175000D03*
X215250000Y-130175000D03*
X217790000Y-130175000D03*
%TD*%
D19*
%TO.C,TM4*%
X34925000Y-139065000D03*
D20*
X34925000Y-136525000D03*
X34925000Y-133985000D03*
%TD*%
D21*
%TO.C,D37*%
X176530000Y-82550000D03*
D22*
X173990000Y-82550000D03*
%TD*%
D19*
%TO.C,TM5*%
X34145000Y-116205000D03*
D20*
X34145000Y-113665000D03*
X34145000Y-111125000D03*
%TD*%
D14*
%TO.C,R22*%
X165960000Y-123825000D03*
D15*
X168500000Y-123825000D03*
%TD*%
D14*
%TO.C,R140*%
X167230000Y-59055000D03*
D15*
X169770000Y-59055000D03*
%TD*%
D14*
%TO.C,R73*%
X92075000Y-116840000D03*
D15*
X92075000Y-119380000D03*
%TD*%
D23*
%TO.C,VR1*%
X153685000Y-67865000D03*
X153685000Y-65365000D03*
X153685000Y-62865000D03*
D24*
X146685000Y-69765000D03*
X146685000Y-60965000D03*
%TD*%
D14*
%TO.C,R93*%
X162560000Y-46130000D03*
D15*
X162560000Y-43590000D03*
%TD*%
D14*
%TO.C,R109*%
X106680000Y-133985000D03*
D15*
X109220000Y-133985000D03*
%TD*%
D25*
%TO.C,Q38*%
X165735000Y-83585000D03*
D26*
X167005000Y-81515000D03*
X168275000Y-83585000D03*
%TD*%
D14*
%TO.C,R152*%
X182245000Y-82550000D03*
D15*
X179705000Y-82550000D03*
%TD*%
D27*
%TO.C,C23*%
X112935000Y-138430000D03*
D28*
X114935000Y-138430000D03*
%TD*%
D14*
%TO.C,C25*%
X139065000Y-116840000D03*
X139065000Y-121840000D03*
%TD*%
%TO.C,R64*%
X85725000Y-128905000D03*
D15*
X83185000Y-128905000D03*
%TD*%
D14*
%TO.C,R35*%
X66900000Y-133350000D03*
D15*
X69440000Y-133350000D03*
%TD*%
D14*
%TO.C,C34*%
X37320000Y-127000000D03*
X32320000Y-127000000D03*
%TD*%
D16*
%TO.C,C20*%
X179295000Y-135160000D03*
D14*
X179295000Y-137160000D03*
%TD*%
%TO.C,R13*%
X198345000Y-118745000D03*
D15*
X198345000Y-116205000D03*
%TD*%
D27*
%TO.C,C72*%
X178975000Y-71120000D03*
D28*
X180975000Y-71120000D03*
%TD*%
D29*
%TO.C,U2*%
X41275000Y-119380000D03*
D30*
X41275000Y-121920000D03*
X41275000Y-124460000D03*
X41275000Y-127000000D03*
X48895000Y-127000000D03*
X48895000Y-124460000D03*
X48895000Y-121920000D03*
X48895000Y-119380000D03*
%TD*%
D14*
%TO.C,R36*%
X53565000Y-133350000D03*
D15*
X56105000Y-133350000D03*
%TD*%
D14*
%TO.C,R14*%
X217790000Y-118745000D03*
D15*
X217790000Y-116205000D03*
%TD*%
D14*
%TO.C,R91*%
X160245000Y-55880000D03*
D15*
X162785000Y-55880000D03*
%TD*%
D14*
%TO.C,R10*%
X214615000Y-118745000D03*
D15*
X214615000Y-116205000D03*
%TD*%
D14*
%TO.C,DgC2*%
X135255000Y-76530000D03*
X135255000Y-71530000D03*
%TD*%
%TO.C,R138*%
X186055000Y-82550000D03*
D15*
X188595000Y-82550000D03*
%TD*%
D31*
%TO.C,J13*%
X68580000Y-109855000D03*
%TD*%
%TO.C,J8*%
X192405000Y-63000000D03*
D32*
X194945000Y-63000000D03*
%TD*%
D33*
%TO.C,Q10*%
X84055000Y-123190000D03*
D34*
X86125000Y-124460000D03*
X84055000Y-125730000D03*
%TD*%
D14*
%TO.C,C19*%
X105410000Y-116205000D03*
X110410000Y-116205000D03*
%TD*%
D19*
%TO.C,TM1*%
X188185000Y-114300000D03*
D20*
X185645000Y-114300000D03*
X183105000Y-114300000D03*
%TD*%
D14*
%TO.C,R103*%
X47625000Y-133350000D03*
D15*
X45085000Y-133350000D03*
%TD*%
D14*
%TO.C,R8*%
X196596000Y-133731000D03*
D15*
X199136000Y-133731000D03*
%TD*%
D33*
%TO.C,Q23*%
X114535000Y-121285000D03*
D34*
X116605000Y-122555000D03*
X114535000Y-123825000D03*
%TD*%
D35*
%TO.C,SW1*%
X34925000Y-96000000D03*
X37465000Y-96000000D03*
X40005000Y-96000000D03*
X32385000Y-96000000D03*
X42545000Y-96000000D03*
%TD*%
D14*
%TO.C,C26*%
X123432600Y-116285000D03*
X123432600Y-121285000D03*
%TD*%
%TO.C,DgR6*%
X135255000Y-60325000D03*
D15*
X135255000Y-57785000D03*
%TD*%
D36*
%TO.C,DgR4*%
X83360000Y-41275000D03*
X85360000Y-41275000D03*
%TD*%
D16*
%TO.C,PwC6*%
X47030000Y-53975000D03*
D14*
X49530000Y-53975000D03*
%TD*%
D37*
%TO.C,PwD1*%
X49312200Y-60325000D03*
D38*
X44232200Y-60325000D03*
%TD*%
D14*
%TO.C,R114*%
X140560000Y-129460000D03*
D15*
X143100000Y-129460000D03*
%TD*%
D14*
%TO.C,PwC3*%
X69810000Y-46990000D03*
X64810000Y-46990000D03*
%TD*%
%TO.C,PwC9*%
X49570000Y-68580000D03*
X54570000Y-68580000D03*
%TD*%
D29*
%TO.C,IC12*%
X176530000Y-38005000D03*
D30*
X176530000Y-40545000D03*
X176530000Y-43085000D03*
X176530000Y-45625000D03*
X176530000Y-48165000D03*
X176530000Y-50705000D03*
X176530000Y-53245000D03*
X184150000Y-53245000D03*
X184150000Y-50705000D03*
X184150000Y-48165000D03*
X184150000Y-45625000D03*
X184150000Y-43085000D03*
X184150000Y-40545000D03*
X184150000Y-38005000D03*
%TD*%
D14*
%TO.C,R63*%
X85725000Y-116840000D03*
D15*
X85725000Y-119380000D03*
%TD*%
D29*
%TO.C,Q21*%
X128157600Y-123190000D03*
D30*
X128157600Y-125730000D03*
X128157600Y-128270000D03*
X135777600Y-128270000D03*
X135777600Y-125730000D03*
X135777600Y-123190000D03*
%TD*%
D14*
%TO.C,R111*%
X142240000Y-125730000D03*
D15*
X139700000Y-125730000D03*
%TD*%
D39*
%TO.C,DgC6*%
X130175000Y-64770000D03*
X130175000Y-66845000D03*
%TD*%
D33*
%TO.C,Q30*%
X169145000Y-50165000D03*
D34*
X171215000Y-51435000D03*
X169145000Y-52705000D03*
%TD*%
D14*
%TO.C,C1*%
X184215000Y-123825000D03*
X189215000Y-123825000D03*
%TD*%
%TO.C,R25*%
X174360000Y-129540000D03*
D15*
X174360000Y-132080000D03*
%TD*%
D21*
%TO.C,D2*%
X162150000Y-123825000D03*
D22*
X159610000Y-123825000D03*
%TD*%
D14*
%TO.C,R16*%
X213545000Y-68580000D03*
D15*
X211005000Y-68580000D03*
%TD*%
D14*
%TO.C,R66*%
X135890000Y-132715000D03*
D15*
X133350000Y-132715000D03*
%TD*%
D14*
%TO.C,R100*%
X46765000Y-106680000D03*
D15*
X44225000Y-106680000D03*
%TD*%
D33*
%TO.C,Q18*%
X122205000Y-139065000D03*
D40*
X120135000Y-137795000D03*
X122205000Y-136525000D03*
%TD*%
D33*
%TO.C,Q8*%
X61995000Y-140335000D03*
D40*
X59925000Y-139065000D03*
X61995000Y-137795000D03*
%TD*%
D27*
%TO.C,C15*%
X120015000Y-144780000D03*
D28*
X122015000Y-144780000D03*
%TD*%
D25*
%TO.C,Q9*%
X91440000Y-129775000D03*
D41*
X90170000Y-131845000D03*
X88900000Y-129775000D03*
%TD*%
D31*
%TO.C,J12*%
X219000000Y-44540000D03*
D32*
X219000000Y-42000000D03*
%TD*%
D27*
%TO.C,C30*%
X141510000Y-110490000D03*
D28*
X143510000Y-110490000D03*
%TD*%
D42*
%TO.C,DgIC4*%
X78570000Y-44075000D03*
X78570000Y-45345000D03*
X78570000Y-46615000D03*
X85070000Y-46615000D03*
X85070000Y-45345000D03*
X85070000Y-44075000D03*
%TD*%
D14*
%TO.C,R150*%
X169545000Y-78105000D03*
D15*
X169545000Y-75565000D03*
%TD*%
D21*
%TO.C,D28*%
X188595000Y-51340000D03*
D22*
X188595000Y-48800000D03*
%TD*%
D14*
%TO.C,R98*%
X90805000Y-137795000D03*
D15*
X88265000Y-137795000D03*
%TD*%
D14*
%TO.C,C54*%
X158115000Y-83105000D03*
X158115000Y-78105000D03*
%TD*%
D43*
%TO.C,J14*%
X64930000Y-80645000D03*
D44*
X67430000Y-80645000D03*
X69930000Y-80645000D03*
X72430000Y-80645000D03*
X74930000Y-80645000D03*
%TD*%
D31*
%TO.C,PwJ2*%
X36830000Y-37465000D03*
D32*
X39370000Y-37465000D03*
%TD*%
D14*
%TO.C,C33*%
X65520000Y-118665000D03*
X65520000Y-113665000D03*
%TD*%
D27*
%TO.C,C14*%
X149130000Y-132635000D03*
D28*
X151130000Y-132635000D03*
%TD*%
D16*
%TO.C,C7*%
X56047000Y-80518000D03*
D14*
X58547000Y-80518000D03*
%TD*%
%TO.C,R92*%
X152400000Y-51210000D03*
D15*
X152400000Y-48670000D03*
%TD*%
D14*
%TO.C,R6*%
X218425000Y-135890000D03*
D15*
X218425000Y-133350000D03*
%TD*%
D31*
%TO.C,PwJ3*%
X49530000Y-37465000D03*
D32*
X46990000Y-37465000D03*
%TD*%
D14*
%TO.C,R31*%
X217805000Y-102587000D03*
D15*
X217805000Y-105127000D03*
%TD*%
D14*
%TO.C,R99*%
X135665000Y-136525000D03*
D15*
X133125000Y-136525000D03*
%TD*%
D45*
%TO.C,DgIC3*%
X111920000Y-50143000D03*
X112570000Y-50143000D03*
X113220000Y-50143000D03*
X113870000Y-50143000D03*
X114520000Y-50143000D03*
X115170000Y-50143000D03*
X115820000Y-50143000D03*
X116470000Y-50143000D03*
X117120000Y-50143000D03*
X117770000Y-50143000D03*
X117770000Y-44267000D03*
X117120000Y-44267000D03*
X116470000Y-44267000D03*
X115820000Y-44267000D03*
X115170000Y-44267000D03*
X114520000Y-44267000D03*
X113870000Y-44267000D03*
X113220000Y-44267000D03*
X112570000Y-44267000D03*
X111920000Y-44267000D03*
%TD*%
D14*
%TO.C,R113*%
X114300000Y-133985000D03*
D15*
X111760000Y-133985000D03*
%TD*%
D14*
%TO.C,R59*%
X155575000Y-51210000D03*
D15*
X155575000Y-48670000D03*
%TD*%
D29*
%TO.C,Q12*%
X95210000Y-128920000D03*
D30*
X95210000Y-131460000D03*
X95210000Y-134000000D03*
X102830000Y-134000000D03*
X102830000Y-131460000D03*
X102830000Y-128920000D03*
%TD*%
D14*
%TO.C,R28*%
X173990000Y-120650000D03*
D15*
X171450000Y-120650000D03*
%TD*%
D16*
%TO.C,C3*%
X179295000Y-120690000D03*
D14*
X179295000Y-123190000D03*
%TD*%
%TO.C,R34*%
X60325000Y-133350000D03*
D15*
X62865000Y-133350000D03*
%TD*%
D19*
%TO.C,PwF1*%
X34925000Y-45720000D03*
D20*
X40025000Y-48310000D03*
%TD*%
D33*
%TO.C,Q24*%
X55455000Y-123190000D03*
D40*
X53385000Y-121920000D03*
X55455000Y-120650000D03*
%TD*%
D21*
%TO.C,D26*%
X188595000Y-45625000D03*
D22*
X188595000Y-43085000D03*
%TD*%
D29*
%TO.C,U5*%
X36180000Y-79385000D03*
D30*
X36180000Y-81925000D03*
X36180000Y-84465000D03*
X36180000Y-87005000D03*
X43800000Y-87005000D03*
X43800000Y-84465000D03*
X43800000Y-81925000D03*
X43800000Y-79385000D03*
%TD*%
D14*
%TO.C,R139*%
X182655000Y-59055000D03*
D15*
X180115000Y-59055000D03*
%TD*%
D31*
%TO.C,AnPw1*%
X60960000Y-73025000D03*
D32*
X63500000Y-73025000D03*
X66040000Y-73025000D03*
%TD*%
D21*
%TO.C,D1*%
X158975000Y-128905000D03*
D22*
X156435000Y-128905000D03*
%TD*%
D14*
%TO.C,R142*%
X175895000Y-65405000D03*
D15*
X173355000Y-65405000D03*
%TD*%
D46*
%TO.C,DgJ1*%
X104380000Y-34290000D03*
D47*
X111880000Y-34290000D03*
X119380000Y-34290000D03*
X106880000Y-36790000D03*
X116880000Y-36790000D03*
X106880000Y-24390000D03*
X116880000Y-24390000D03*
%TD*%
D27*
%TO.C,C29*%
X142145000Y-137795000D03*
D28*
X144145000Y-137795000D03*
%TD*%
D16*
%TO.C,C4*%
X203820000Y-116245000D03*
D14*
X203820000Y-118745000D03*
%TD*%
D25*
%TO.C,Q35*%
X173355000Y-58820000D03*
D26*
X174625000Y-56750000D03*
X175895000Y-58820000D03*
%TD*%
D14*
%TO.C,R69*%
X97155000Y-137795000D03*
D15*
X99695000Y-137795000D03*
%TD*%
D33*
%TO.C,Q14*%
X108185000Y-109855000D03*
D34*
X110255000Y-111125000D03*
X108185000Y-112395000D03*
%TD*%
D27*
%TO.C,C13*%
X148495000Y-110490000D03*
D28*
X150495000Y-110490000D03*
%TD*%
D35*
%TO.C,PwS1*%
X62865000Y-30225000D03*
X65405000Y-30225000D03*
X67945000Y-30225000D03*
X67945000Y-25145000D03*
X62865000Y-25145000D03*
%TD*%
D33*
%TO.C,Q28*%
X67825000Y-124420000D03*
D40*
X65755000Y-123150000D03*
X67825000Y-121880000D03*
%TD*%
D14*
%TO.C,R46*%
X149225000Y-118030000D03*
D15*
X151765000Y-118030000D03*
%TD*%
D14*
%TO.C,R17*%
X207645000Y-83820000D03*
D15*
X205105000Y-83820000D03*
%TD*%
D21*
%TO.C,D29*%
X188595000Y-57055000D03*
D22*
X188595000Y-54515000D03*
%TD*%
D14*
%TO.C,R117*%
X188595000Y-38005000D03*
D15*
X188595000Y-40545000D03*
%TD*%
D31*
%TO.C,DgJ16*%
X142235000Y-40005000D03*
D32*
X139695000Y-40005000D03*
X137155000Y-40005000D03*
X134615000Y-40005000D03*
X132075000Y-40005000D03*
%TD*%
D14*
%TO.C,R61*%
X162150000Y-120650000D03*
D15*
X159610000Y-120650000D03*
%TD*%
D25*
%TO.C,Q39*%
X193040000Y-77235000D03*
D26*
X194310000Y-75165000D03*
X195580000Y-77235000D03*
%TD*%
D14*
%TO.C,R62*%
X75565000Y-109855000D03*
D15*
X73025000Y-109855000D03*
%TD*%
D48*
%TO.C,VR2*%
X67310000Y-99550000D03*
D49*
X67310000Y-97050000D03*
X67310000Y-94550000D03*
X67310000Y-92050000D03*
D50*
X56310000Y-101600000D03*
X56310000Y-90000000D03*
%TD*%
D48*
%TO.C,VR4*%
X114946700Y-98635000D03*
D49*
X114946700Y-100635000D03*
X114946700Y-90635000D03*
X114946700Y-96635000D03*
X114946700Y-94635000D03*
X114946700Y-92635000D03*
D24*
X103946700Y-101435000D03*
X103946700Y-89835000D03*
%TD*%
D14*
%TO.C,R24*%
X208055000Y-68580000D03*
D15*
X205515000Y-68580000D03*
%TD*%
D39*
%TO.C,DgC1*%
X88900000Y-44047500D03*
X88900000Y-46122500D03*
%TD*%
D51*
%TO.C,J6*%
X210185000Y-30945000D03*
X193885000Y-30945000D03*
X210185000Y-24645000D03*
X193885000Y-24645000D03*
X210185000Y-37245000D03*
X193885000Y-37245000D03*
%TD*%
D14*
%TO.C,R18*%
X49911000Y-79121000D03*
D15*
X47371000Y-79121000D03*
%TD*%
D31*
%TO.C,PwJ4*%
X36825000Y-41910000D03*
D32*
X39365000Y-41910000D03*
%TD*%
D14*
%TO.C,R141*%
X160020000Y-59690000D03*
D15*
X162560000Y-59690000D03*
%TD*%
D14*
%TO.C,R71*%
X82550000Y-116840000D03*
D15*
X82550000Y-119380000D03*
%TD*%
D31*
%TO.C,J3*%
X175485000Y-113030000D03*
D32*
X172945000Y-113030000D03*
%TD*%
D27*
%TO.C,C55*%
X178975000Y-76835000D03*
D28*
X180975000Y-76835000D03*
%TD*%
D52*
%TO.C,DgIC5*%
X132715000Y-68515000D03*
X133985000Y-68515000D03*
X135255000Y-68515000D03*
X136525000Y-68515000D03*
X136525000Y-63565000D03*
X135255000Y-63565000D03*
X133985000Y-63565000D03*
X132715000Y-63565000D03*
%TD*%
D48*
%TO.C,VR8*%
X212090000Y-99380000D03*
D49*
X212090000Y-96880000D03*
X212090000Y-94380000D03*
X212090000Y-91880000D03*
D50*
X201090000Y-101430000D03*
X201090000Y-89830000D03*
%TD*%
D33*
%TO.C,Q11*%
X91725000Y-125730000D03*
D40*
X89655000Y-124460000D03*
X91725000Y-123190000D03*
%TD*%
D14*
%TO.C,R148*%
X161810000Y-78105000D03*
D15*
X161810000Y-75565000D03*
%TD*%
D14*
%TO.C,R151*%
X173355000Y-78105000D03*
D15*
X173355000Y-75565000D03*
%TD*%
D14*
%TO.C,R7*%
X202550000Y-135890000D03*
D15*
X202550000Y-133350000D03*
%TD*%
D48*
%TO.C,VR7*%
X186851700Y-99412500D03*
D49*
X186851700Y-96912500D03*
X186851700Y-94412500D03*
X186851700Y-91912500D03*
D50*
X175851700Y-101462500D03*
X175851700Y-89862500D03*
%TD*%
D27*
%TO.C,C17*%
X74835000Y-115570000D03*
D28*
X76835000Y-115570000D03*
%TD*%
D31*
%TO.C,DgPw1*%
X77470000Y-51060000D03*
D32*
X80010000Y-51060000D03*
X82550000Y-51060000D03*
%TD*%
D16*
%TO.C,PwC5*%
X57190000Y-53975000D03*
D14*
X59690000Y-53975000D03*
%TD*%
%TO.C,R144*%
X161515000Y-69215000D03*
D15*
X164055000Y-69215000D03*
%TD*%
D14*
%TO.C,R9*%
X211440000Y-118745000D03*
D15*
X211440000Y-116205000D03*
%TD*%
D14*
%TO.C,C5*%
X213345000Y-109220000D03*
X218345000Y-109220000D03*
%TD*%
D31*
%TO.C,DgJ2*%
X97790000Y-80665000D03*
D32*
X100330000Y-80665000D03*
X102870000Y-80665000D03*
X105410000Y-80665000D03*
X107950000Y-80665000D03*
X110490000Y-80665000D03*
X113030000Y-80665000D03*
X115570000Y-80665000D03*
%TD*%
D14*
%TO.C,R143*%
X169545000Y-65405000D03*
D15*
X167005000Y-65405000D03*
%TD*%
D14*
%TO.C,DgR7*%
X132080000Y-60325000D03*
D15*
X132080000Y-57785000D03*
%TD*%
D27*
%TO.C,C22*%
X135890000Y-140970000D03*
D28*
X137890000Y-140970000D03*
%TD*%
D14*
%TO.C,PwL1*%
X71120000Y-53975000D03*
D15*
X63500000Y-53975000D03*
%TD*%
D14*
%TO.C,R1*%
X215250000Y-135890000D03*
D15*
X215250000Y-133350000D03*
%TD*%
D29*
%TO.C,Q26*%
X41550000Y-110520000D03*
D30*
X41550000Y-113060000D03*
X41550000Y-115600000D03*
X49170000Y-115600000D03*
X49170000Y-113060000D03*
X49170000Y-110520000D03*
%TD*%
D14*
%TO.C,R104*%
X36050000Y-122555000D03*
D15*
X33510000Y-122555000D03*
%TD*%
D27*
%TO.C,C16*%
X80550000Y-136525000D03*
D28*
X82550000Y-136525000D03*
%TD*%
D14*
%TO.C,R94*%
X128270000Y-140335000D03*
D15*
X130810000Y-140335000D03*
%TD*%
D14*
%TO.C,C24*%
X113665000Y-116205000D03*
X118665000Y-116205000D03*
%TD*%
%TO.C,R5*%
X212075000Y-135890000D03*
D15*
X212075000Y-133350000D03*
%TD*%
D14*
%TO.C,R12*%
X194930000Y-118745000D03*
D15*
X194930000Y-116205000D03*
%TD*%
D14*
%TO.C,R11*%
X208265000Y-118745000D03*
D15*
X208265000Y-116205000D03*
%TD*%
D14*
%TO.C,R67*%
X130175000Y-136525000D03*
D15*
X127635000Y-136525000D03*
%TD*%
D14*
%TO.C,R68*%
X77470000Y-129540000D03*
D15*
X77470000Y-132080000D03*
%TD*%
D33*
%TO.C,Q17*%
X108185000Y-121285000D03*
D34*
X110255000Y-122555000D03*
X108185000Y-123825000D03*
%TD*%
D14*
%TO.C,R106*%
X36050000Y-106045000D03*
D15*
X33510000Y-106045000D03*
%TD*%
D21*
%TO.C,D24*%
X149225000Y-121840000D03*
D22*
X151765000Y-121840000D03*
%TD*%
D33*
%TO.C,Q13*%
X101835000Y-109855000D03*
D34*
X103905000Y-111125000D03*
X101835000Y-112395000D03*
%TD*%
D16*
%TO.C,C6*%
X199430000Y-76200000D03*
D14*
X201930000Y-76200000D03*
%TD*%
%TO.C,R30*%
X163420000Y-136525000D03*
D15*
X165960000Y-136525000D03*
%TD*%
D31*
%TO.C,PwJ5*%
X49530000Y-41910000D03*
D32*
X46990000Y-41910000D03*
%TD*%
D19*
%TO.C,TM3*%
X86360000Y-109710000D03*
D20*
X83820000Y-109710000D03*
X81280000Y-109710000D03*
%TD*%
D33*
%TO.C,Q20*%
X122320000Y-131445000D03*
D40*
X120250000Y-130175000D03*
X122320000Y-128905000D03*
%TD*%
D14*
%TO.C,R118*%
X59055000Y-107315000D03*
D15*
X56515000Y-107315000D03*
%TD*%
D25*
%TO.C,Q41*%
X186690000Y-77235000D03*
D26*
X187960000Y-75165000D03*
X189230000Y-77235000D03*
%TD*%
D29*
%TO.C,Q22*%
X128157600Y-114300000D03*
D30*
X128157600Y-116840000D03*
X128157600Y-119380000D03*
X135777600Y-119380000D03*
X135777600Y-116840000D03*
X135777600Y-114300000D03*
%TD*%
D14*
%TO.C,PwC4*%
X49610000Y-74295000D03*
X54610000Y-74295000D03*
%TD*%
%TO.C,C10*%
X60365000Y-128270000D03*
X65365000Y-128270000D03*
%TD*%
D36*
%TO.C,DgR3*%
X78645000Y-41275000D03*
X80645000Y-41275000D03*
%TD*%
D33*
%TO.C,Q29*%
X162795000Y-50165000D03*
D34*
X164865000Y-51435000D03*
X162795000Y-52705000D03*
%TD*%
D16*
%TO.C,C62*%
X193635000Y-69380000D03*
D14*
X195635000Y-69380000D03*
%TD*%
D53*
%TO.C,DgS1*%
X100965000Y-46670000D03*
X94465000Y-46670000D03*
X100965000Y-42170000D03*
X94465000Y-42170000D03*
%TD*%
D14*
%TO.C,R29*%
X160245000Y-136525000D03*
D15*
X157705000Y-136525000D03*
%TD*%
D14*
%TO.C,R115*%
X134227600Y-110490000D03*
D15*
X136767600Y-110490000D03*
%TD*%
D14*
%TO.C,R32*%
X217805000Y-90297000D03*
D15*
X217805000Y-92837000D03*
%TD*%
D14*
%TO.C,R95*%
X128270000Y-110490000D03*
D15*
X130810000Y-110490000D03*
%TD*%
D14*
%TO.C,R4*%
X208900000Y-135890000D03*
D15*
X208900000Y-133350000D03*
%TD*%
D48*
%TO.C,VR3*%
X91278300Y-99522500D03*
D49*
X91278300Y-97022500D03*
X91278300Y-94522500D03*
X91278300Y-92022500D03*
D50*
X80278300Y-101572500D03*
X80278300Y-89972500D03*
%TD*%
D21*
%TO.C,D31*%
X166370000Y-40415000D03*
D22*
X166370000Y-37875000D03*
%TD*%
D14*
%TO.C,R2*%
X192390000Y-123825000D03*
D15*
X194930000Y-123825000D03*
%TD*%
D25*
%TO.C,Q37*%
X167005000Y-70885000D03*
D26*
X168275000Y-68815000D03*
X169545000Y-70885000D03*
%TD*%
D14*
%TO.C,R145*%
X173355000Y-69215000D03*
D15*
X175895000Y-69215000D03*
%TD*%
D33*
%TO.C,Q25*%
X61360000Y-123190000D03*
D40*
X59290000Y-121920000D03*
X61360000Y-120650000D03*
%TD*%
D14*
%TO.C,R97*%
X108585000Y-138430000D03*
D15*
X106045000Y-138430000D03*
%TD*%
D14*
%TO.C,R15*%
X207855000Y-109220000D03*
D15*
X210395000Y-109220000D03*
%TD*%
D14*
%TO.C,C21*%
X162745000Y-140335000D03*
X157745000Y-140335000D03*
%TD*%
%TO.C,C27*%
X142875000Y-116840000D03*
X142875000Y-121840000D03*
%TD*%
D54*
%TO.C,PwIC2*%
X30035000Y-71120000D03*
D55*
X46695000Y-73660000D03*
D56*
X46695000Y-71120000D03*
X46695000Y-68580000D03*
%TD*%
D14*
%TO.C,C2*%
X184135000Y-127000000D03*
X189135000Y-127000000D03*
%TD*%
D27*
%TO.C,C28*%
X121825000Y-111125000D03*
D28*
X123825000Y-111125000D03*
%TD*%
D14*
%TO.C,R102*%
X45085000Y-137160000D03*
D15*
X47625000Y-137160000D03*
%TD*%
D14*
%TO.C,R27*%
X173990000Y-123825000D03*
D15*
X171450000Y-123825000D03*
%TD*%
D14*
%TO.C,C18*%
X102155000Y-116205000D03*
X97155000Y-116205000D03*
%TD*%
%TO.C,C12*%
X157295000Y-132080000D03*
X162295000Y-132080000D03*
%TD*%
%TO.C,R146*%
X161290000Y-65405000D03*
D15*
X163830000Y-65405000D03*
%TD*%
D48*
%TO.C,VR5*%
X138915000Y-99495000D03*
D49*
X138915000Y-96995000D03*
X138915000Y-94495000D03*
X138915000Y-91995000D03*
D50*
X127915000Y-101545000D03*
X127915000Y-89945000D03*
%TD*%
D14*
%TO.C,R101*%
X53340000Y-128270000D03*
D15*
X55880000Y-128270000D03*
%TD*%
D14*
%TO.C,R107*%
X162560000Y-40415000D03*
D15*
X162560000Y-37875000D03*
%TD*%
D39*
%TO.C,DgC4*%
X109765000Y-45765000D03*
X109765000Y-47840000D03*
%TD*%
D14*
%TO.C,R96*%
X151130000Y-138350000D03*
D15*
X148590000Y-138350000D03*
%TD*%
D14*
%TO.C,R108*%
X106680000Y-129540000D03*
D15*
X109220000Y-129540000D03*
%TD*%
D46*
%TO.C,DgJ8*%
X80885000Y-34290000D03*
D47*
X88385000Y-34290000D03*
X95885000Y-34290000D03*
X83385000Y-36790000D03*
X93385000Y-36790000D03*
X83385000Y-24390000D03*
X93385000Y-24390000D03*
%TD*%
D14*
%TO.C,R149*%
X165735000Y-78105000D03*
D15*
X165735000Y-75565000D03*
%TD*%
D19*
%TO.C,PwF2*%
X45710000Y-45695000D03*
D20*
X50810000Y-48285000D03*
%TD*%
D57*
%TO.C,PwJ1*%
X42545000Y-32035000D03*
D58*
X42545000Y-26035000D03*
D59*
X37845000Y-29035000D03*
%TD*%
D33*
%TO.C,Q15*%
X101200000Y-121285000D03*
D34*
X103270000Y-122555000D03*
X101200000Y-123825000D03*
%TD*%
D14*
%TO.C,R47*%
X97155000Y-109220000D03*
D15*
X97155000Y-111760000D03*
%TD*%
D14*
%TO.C,PwC1*%
X56555000Y-46990000D03*
X61555000Y-46990000D03*
%TD*%
D21*
%TO.C,D3*%
X171040000Y-136525000D03*
D22*
X168500000Y-136525000D03*
%TD*%
D14*
%TO.C,R72*%
X88900000Y-116840000D03*
D15*
X88900000Y-119380000D03*
%TD*%
D31*
%TO.C,DgJ3*%
X81915000Y-80645000D03*
D32*
X84455000Y-80645000D03*
X86995000Y-80645000D03*
X89535000Y-80645000D03*
%TD*%
D14*
%TO.C,R3*%
X192390000Y-127000000D03*
D15*
X194930000Y-127000000D03*
%TD*%
D14*
%TO.C,R20*%
X211045000Y-83820000D03*
D15*
X213585000Y-83820000D03*
%TD*%
D48*
%TO.C,VR9*%
X216000000Y-61550000D03*
D49*
X216000000Y-59050000D03*
X216000000Y-56550000D03*
X216000000Y-54050000D03*
D50*
X205000000Y-63600000D03*
X205000000Y-52000000D03*
%TD*%
D14*
%TO.C,R19*%
X47752000Y-82550000D03*
D15*
X50292000Y-82550000D03*
%TD*%
D21*
%TO.C,D32*%
X166370000Y-46130000D03*
D22*
X166370000Y-43590000D03*
%TD*%
D25*
%TO.C,Q2*%
X180565000Y-129775000D03*
D41*
X179295000Y-131845000D03*
X178025000Y-129775000D03*
%TD*%
D48*
%TO.C,VR6*%
X162883300Y-99440000D03*
D49*
X162883300Y-96940000D03*
X162883300Y-94440000D03*
X162883300Y-91940000D03*
D50*
X151883300Y-101490000D03*
X151883300Y-89890000D03*
%TD*%
D29*
%TO.C,U3*%
X151115000Y-38110000D03*
D30*
X151115000Y-40650000D03*
X151115000Y-43190000D03*
X151115000Y-45730000D03*
X158735000Y-45730000D03*
X158735000Y-43190000D03*
X158735000Y-40650000D03*
X158735000Y-38110000D03*
%TD*%
D14*
%TO.C,DgR5*%
X132080000Y-74070000D03*
D15*
X132080000Y-71530000D03*
%TD*%
D33*
%TO.C,Q27*%
X55530000Y-116840000D03*
D40*
X53460000Y-115570000D03*
X55530000Y-114300000D03*
%TD*%
D17*
%TO.C,U4*%
X205750000Y-80025000D03*
D18*
X208290000Y-80025000D03*
X210830000Y-80025000D03*
X213370000Y-80025000D03*
X213370000Y-72405000D03*
X210830000Y-72405000D03*
X208290000Y-72405000D03*
X205750000Y-72405000D03*
%TD*%
D33*
%TO.C,Q1*%
X168960000Y-129540000D03*
D34*
X171030000Y-130810000D03*
X168960000Y-132080000D03*
%TD*%
D14*
%TO.C,R110*%
X130175000Y-132715000D03*
D15*
X127635000Y-132715000D03*
%TD*%
D25*
%TO.C,Q40*%
X186690000Y-70885000D03*
D26*
X187960000Y-68815000D03*
X189230000Y-70885000D03*
%TD*%
D31*
%TO.C,J7*%
X158975000Y-113030000D03*
D32*
X161515000Y-113030000D03*
X164055000Y-113030000D03*
%TD*%
D14*
%TO.C,R147*%
X188370000Y-63500000D03*
D15*
X185830000Y-63500000D03*
%TD*%
D14*
%TO.C,R21*%
X162375000Y-128905000D03*
D15*
X164915000Y-128905000D03*
%TD*%
D14*
%TO.C,R116*%
X140560000Y-132715000D03*
D15*
X143100000Y-132715000D03*
%TD*%
D39*
%TO.C,DgC3*%
X131770000Y-46422000D03*
X131770000Y-48497000D03*
%TD*%
D14*
%TO.C,C35*%
X172085000Y-37465000D03*
X172085000Y-42465000D03*
%TD*%
D16*
%TO.C,DgU1*%
X77470000Y-74950000D03*
D15*
X80010000Y-74950000D03*
X82550000Y-74950000D03*
X85090000Y-74950000D03*
X87630000Y-74950000D03*
X90170000Y-74950000D03*
X92710000Y-74950000D03*
X95250000Y-74950000D03*
X97790000Y-74950000D03*
X100330000Y-74950000D03*
X102870000Y-74950000D03*
X105410000Y-74950000D03*
X107950000Y-74950000D03*
X110490000Y-74950000D03*
X113030000Y-74950000D03*
X115570000Y-74950000D03*
X118110000Y-74950000D03*
X120650000Y-74950000D03*
X123190000Y-74950000D03*
X125730000Y-74950000D03*
X125730000Y-57150000D03*
X123190000Y-57150000D03*
X120650000Y-57150000D03*
X118110000Y-57150000D03*
X115570000Y-57150000D03*
X113030000Y-57150000D03*
X110490000Y-57150000D03*
X107950000Y-57150000D03*
X105410000Y-57150000D03*
X102870000Y-57150000D03*
X100330000Y-57150000D03*
X97790000Y-57150000D03*
X95250000Y-57150000D03*
X92710000Y-57150000D03*
X90170000Y-57150000D03*
X87630000Y-57150000D03*
X85090000Y-57150000D03*
X82550000Y-57150000D03*
X80010000Y-57150000D03*
X77470000Y-57150000D03*
%TD*%
D33*
%TO.C,Q16*%
X114060000Y-109855000D03*
D34*
X116130000Y-111125000D03*
X114060000Y-112395000D03*
%TD*%
D60*
%TO.C,DgD1*%
X87885000Y-41275000D03*
X91185000Y-41275000D03*
%TD*%
D14*
%TO.C,R112*%
X112395000Y-129540000D03*
D15*
X114935000Y-129540000D03*
%TD*%
D14*
%TO.C,R23*%
X202550000Y-109220000D03*
D15*
X205090000Y-109220000D03*
%TD*%
D33*
%TO.C,Q19*%
X149460000Y-125015000D03*
D34*
X151530000Y-126285000D03*
X149460000Y-127555000D03*
%TD*%
D45*
%TO.C,DgIC2*%
X133600000Y-50563000D03*
X134250000Y-50563000D03*
X134900000Y-50563000D03*
X135550000Y-50563000D03*
X136200000Y-50563000D03*
X136850000Y-50563000D03*
X137500000Y-50563000D03*
X138150000Y-50563000D03*
X138800000Y-50563000D03*
X139450000Y-50563000D03*
X139450000Y-44687000D03*
X138800000Y-44687000D03*
X138150000Y-44687000D03*
X137500000Y-44687000D03*
X136850000Y-44687000D03*
X136200000Y-44687000D03*
X135550000Y-44687000D03*
X134900000Y-44687000D03*
X134250000Y-44687000D03*
X133600000Y-44687000D03*
%TD*%
D25*
%TO.C,Q36*%
X179705000Y-66440000D03*
D26*
X180975000Y-64370000D03*
X182245000Y-66440000D03*
%TD*%
D21*
%TO.C,D25*%
X60325000Y-116840000D03*
D22*
X60325000Y-114300000D03*
%TD*%
D31*
%TO.C,DgJ5*%
X88900000Y-51040000D03*
D32*
X91440000Y-51040000D03*
X93980000Y-51040000D03*
X96520000Y-51040000D03*
X99060000Y-51040000D03*
X101600000Y-51040000D03*
%TD*%
D27*
%TO.C,C11*%
X67215000Y-139065000D03*
D28*
X69215000Y-139065000D03*
%TD*%
D14*
%TO.C,R65*%
X85725000Y-132080000D03*
D15*
X83185000Y-132080000D03*
%TD*%
D61*
%TO.C,PwC2*%
X33827300Y-56515000D03*
D62*
X38827300Y-56515000D03*
%TD*%
M02*
