%TF.GenerationSoftware,KiCad,Pcbnew,8.0.8*%
%TF.CreationDate,2025-04-29T10:44:01+09:00*%
%TF.ProjectId,mainBorad_R1,6d61696e-426f-4726-9164-5f52312e6b69,rev?*%
%TF.SameCoordinates,Original*%
%TF.FileFunction,Legend,Bot*%
%TF.FilePolarity,Positive*%
%FSLAX46Y46*%
G04 Gerber Fmt 4.6, Leading zero omitted, Abs format (unit mm)*
G04 Created by KiCad (PCBNEW 8.0.8) date 2025-04-29 10:44:01*
%MOMM*%
%LPD*%
G01*
G04 APERTURE LIST*
G04 Aperture macros list*
%AMRoundRect*
0 Rectangle with rounded corners*
0 $1 Rounding radius*
0 $2 $3 $4 $5 $6 $7 $8 $9 X,Y pos of 4 corners*
0 Add a 4 corners polygon primitive as box body*
4,1,4,$2,$3,$4,$5,$6,$7,$8,$9,$2,$3,0*
0 Add four circle primitives for the rounded corners*
1,1,$1+$1,$2,$3*
1,1,$1+$1,$4,$5*
1,1,$1+$1,$6,$7*
1,1,$1+$1,$8,$9*
0 Add four rect primitives between the rounded corners*
20,1,$1+$1,$2,$3,$4,$5,0*
20,1,$1+$1,$4,$5,$6,$7,0*
20,1,$1+$1,$6,$7,$8,$9,0*
20,1,$1+$1,$8,$9,$2,$3,0*%
G04 Aperture macros list end*
%ADD10C,0.254000*%
%ADD11C,0.150000*%
%ADD12C,0.200000*%
%ADD13C,0.100000*%
%ADD14C,0.120000*%
%ADD15R,0.950000X1.000000*%
%ADD16R,1.305000X1.305000*%
%ADD17C,1.305000*%
%ADD18R,1.150000X0.600000*%
%ADD19C,2.450000*%
%ADD20C,2.300000*%
%ADD21C,1.600000*%
%ADD22O,1.600000X1.600000*%
%ADD23R,1.600000X1.600000*%
%ADD24R,1.600000X2.400000*%
%ADD25O,1.600000X2.400000*%
%ADD26R,1.217000X1.217000*%
%ADD27C,1.217000*%
%ADD28R,1.800000X1.800000*%
%ADD29O,1.800000X1.800000*%
%ADD30C,1.800000*%
%ADD31C,4.455000*%
%ADD32R,1.100000X1.800000*%
%ADD33RoundRect,0.275000X-0.275000X-0.625000X0.275000X-0.625000X0.275000X0.625000X-0.275000X0.625000X0*%
%ADD34R,1.200000X1.200000*%
%ADD35C,1.200000*%
%ADD36R,2.400000X1.600000*%
%ADD37O,2.400000X1.600000*%
%ADD38R,1.700000X1.700000*%
%ADD39O,1.700000X1.700000*%
%ADD40R,1.800000X1.100000*%
%ADD41RoundRect,0.275000X-0.625000X0.275000X-0.625000X-0.275000X0.625000X-0.275000X0.625000X0.275000X0*%
%ADD42C,1.635000*%
%ADD43R,2.200000X2.200000*%
%ADD44O,2.200000X2.200000*%
%ADD45RoundRect,0.275000X0.625000X-0.275000X0.625000X0.275000X-0.625000X0.275000X-0.625000X-0.275000X0*%
%ADD46RoundRect,0.275000X0.275000X0.625000X-0.275000X0.625000X-0.275000X-0.625000X0.275000X-0.625000X0*%
%ADD47RoundRect,0.250000X-0.600000X-0.725000X0.600000X-0.725000X0.600000X0.725000X-0.600000X0.725000X0*%
%ADD48O,1.700000X1.950000*%
%ADD49R,2.250000X2.250000*%
%ADD50C,2.250000*%
%ADD51R,1.500000X1.500000*%
%ADD52C,1.500000*%
%ADD53C,4.350000*%
%ADD54C,2.400000*%
%ADD55C,1.575000*%
%ADD56C,3.500000*%
%ADD57R,2.000000X1.905000*%
%ADD58O,2.000000X1.905000*%
%ADD59R,3.500000X3.500000*%
%ADD60RoundRect,0.750000X-1.000000X0.750000X-1.000000X-0.750000X1.000000X-0.750000X1.000000X0.750000X0*%
%ADD61RoundRect,0.875000X-0.875000X0.875000X-0.875000X-0.875000X0.875000X-0.875000X0.875000X0.875000X0*%
%ADD62R,2.000000X2.000000*%
%ADD63C,2.000000*%
%ADD64RoundRect,0.250000X0.350000X0.450000X-0.350000X0.450000X-0.350000X-0.450000X0.350000X-0.450000X0*%
%ADD65RoundRect,0.250000X0.450000X-0.350000X0.450000X0.350000X-0.450000X0.350000X-0.450000X-0.350000X0*%
%ADD66RoundRect,0.250000X0.475000X-0.337500X0.475000X0.337500X-0.475000X0.337500X-0.475000X-0.337500X0*%
%ADD67RoundRect,0.250000X-0.350000X-0.450000X0.350000X-0.450000X0.350000X0.450000X-0.350000X0.450000X0*%
%ADD68RoundRect,0.175000X-0.175000X0.825000X-0.175000X-0.825000X0.175000X-0.825000X0.175000X0.825000X0*%
%ADD69R,0.650000X1.551000*%
G04 APERTURE END LIST*
D10*
X112515952Y-44950270D02*
X112636904Y-44889794D01*
X112636904Y-44889794D02*
X112757857Y-44768842D01*
X112757857Y-44768842D02*
X112939285Y-44587413D01*
X112939285Y-44587413D02*
X113060238Y-44526937D01*
X113060238Y-44526937D02*
X113181190Y-44526937D01*
X113120714Y-44829318D02*
X113241666Y-44768842D01*
X113241666Y-44768842D02*
X113362619Y-44647889D01*
X113362619Y-44647889D02*
X113423095Y-44405984D01*
X113423095Y-44405984D02*
X113423095Y-43982651D01*
X113423095Y-43982651D02*
X113362619Y-43740746D01*
X113362619Y-43740746D02*
X113241666Y-43619794D01*
X113241666Y-43619794D02*
X113120714Y-43559318D01*
X113120714Y-43559318D02*
X112878809Y-43559318D01*
X112878809Y-43559318D02*
X112757857Y-43619794D01*
X112757857Y-43619794D02*
X112636904Y-43740746D01*
X112636904Y-43740746D02*
X112576428Y-43982651D01*
X112576428Y-43982651D02*
X112576428Y-44405984D01*
X112576428Y-44405984D02*
X112636904Y-44647889D01*
X112636904Y-44647889D02*
X112757857Y-44768842D01*
X112757857Y-44768842D02*
X112878809Y-44829318D01*
X112878809Y-44829318D02*
X113120714Y-44829318D01*
X111487857Y-43982651D02*
X111487857Y-44829318D01*
X111790238Y-43498842D02*
X112092619Y-44405984D01*
X112092619Y-44405984D02*
X111306428Y-44405984D01*
X118744762Y-41789318D02*
X118744762Y-40519318D01*
X117414285Y-41668365D02*
X117474761Y-41728842D01*
X117474761Y-41728842D02*
X117656190Y-41789318D01*
X117656190Y-41789318D02*
X117777142Y-41789318D01*
X117777142Y-41789318D02*
X117958571Y-41728842D01*
X117958571Y-41728842D02*
X118079523Y-41607889D01*
X118079523Y-41607889D02*
X118140000Y-41486937D01*
X118140000Y-41486937D02*
X118200476Y-41245032D01*
X118200476Y-41245032D02*
X118200476Y-41063603D01*
X118200476Y-41063603D02*
X118140000Y-40821699D01*
X118140000Y-40821699D02*
X118079523Y-40700746D01*
X118079523Y-40700746D02*
X117958571Y-40579794D01*
X117958571Y-40579794D02*
X117777142Y-40519318D01*
X117777142Y-40519318D02*
X117656190Y-40519318D01*
X117656190Y-40519318D02*
X117474761Y-40579794D01*
X117474761Y-40579794D02*
X117414285Y-40640270D01*
X116990952Y-40519318D02*
X116204761Y-40519318D01*
X116204761Y-40519318D02*
X116628095Y-41003127D01*
X116628095Y-41003127D02*
X116446666Y-41003127D01*
X116446666Y-41003127D02*
X116325714Y-41063603D01*
X116325714Y-41063603D02*
X116265238Y-41124080D01*
X116265238Y-41124080D02*
X116204761Y-41245032D01*
X116204761Y-41245032D02*
X116204761Y-41547413D01*
X116204761Y-41547413D02*
X116265238Y-41668365D01*
X116265238Y-41668365D02*
X116325714Y-41728842D01*
X116325714Y-41728842D02*
X116446666Y-41789318D01*
X116446666Y-41789318D02*
X116809523Y-41789318D01*
X116809523Y-41789318D02*
X116930476Y-41728842D01*
X116930476Y-41728842D02*
X116990952Y-41668365D01*
D11*
X109005475Y-42364819D02*
X109005475Y-41364819D01*
X109005475Y-41364819D02*
X108767380Y-41364819D01*
X108767380Y-41364819D02*
X108624523Y-41412438D01*
X108624523Y-41412438D02*
X108529285Y-41507676D01*
X108529285Y-41507676D02*
X108481666Y-41602914D01*
X108481666Y-41602914D02*
X108434047Y-41793390D01*
X108434047Y-41793390D02*
X108434047Y-41936247D01*
X108434047Y-41936247D02*
X108481666Y-42126723D01*
X108481666Y-42126723D02*
X108529285Y-42221961D01*
X108529285Y-42221961D02*
X108624523Y-42317200D01*
X108624523Y-42317200D02*
X108767380Y-42364819D01*
X108767380Y-42364819D02*
X109005475Y-42364819D01*
X107576904Y-41698152D02*
X107576904Y-42507676D01*
X107576904Y-42507676D02*
X107624523Y-42602914D01*
X107624523Y-42602914D02*
X107672142Y-42650533D01*
X107672142Y-42650533D02*
X107767380Y-42698152D01*
X107767380Y-42698152D02*
X107910237Y-42698152D01*
X107910237Y-42698152D02*
X108005475Y-42650533D01*
X107576904Y-42317200D02*
X107672142Y-42364819D01*
X107672142Y-42364819D02*
X107862618Y-42364819D01*
X107862618Y-42364819D02*
X107957856Y-42317200D01*
X107957856Y-42317200D02*
X108005475Y-42269580D01*
X108005475Y-42269580D02*
X108053094Y-42174342D01*
X108053094Y-42174342D02*
X108053094Y-41888628D01*
X108053094Y-41888628D02*
X108005475Y-41793390D01*
X108005475Y-41793390D02*
X107957856Y-41745771D01*
X107957856Y-41745771D02*
X107862618Y-41698152D01*
X107862618Y-41698152D02*
X107672142Y-41698152D01*
X107672142Y-41698152D02*
X107576904Y-41745771D01*
X106529285Y-42364819D02*
X106862618Y-41888628D01*
X107100713Y-42364819D02*
X107100713Y-41364819D01*
X107100713Y-41364819D02*
X106719761Y-41364819D01*
X106719761Y-41364819D02*
X106624523Y-41412438D01*
X106624523Y-41412438D02*
X106576904Y-41460057D01*
X106576904Y-41460057D02*
X106529285Y-41555295D01*
X106529285Y-41555295D02*
X106529285Y-41698152D01*
X106529285Y-41698152D02*
X106576904Y-41793390D01*
X106576904Y-41793390D02*
X106624523Y-41841009D01*
X106624523Y-41841009D02*
X106719761Y-41888628D01*
X106719761Y-41888628D02*
X107100713Y-41888628D01*
X105957856Y-41793390D02*
X106053094Y-41745771D01*
X106053094Y-41745771D02*
X106100713Y-41698152D01*
X106100713Y-41698152D02*
X106148332Y-41602914D01*
X106148332Y-41602914D02*
X106148332Y-41555295D01*
X106148332Y-41555295D02*
X106100713Y-41460057D01*
X106100713Y-41460057D02*
X106053094Y-41412438D01*
X106053094Y-41412438D02*
X105957856Y-41364819D01*
X105957856Y-41364819D02*
X105767380Y-41364819D01*
X105767380Y-41364819D02*
X105672142Y-41412438D01*
X105672142Y-41412438D02*
X105624523Y-41460057D01*
X105624523Y-41460057D02*
X105576904Y-41555295D01*
X105576904Y-41555295D02*
X105576904Y-41602914D01*
X105576904Y-41602914D02*
X105624523Y-41698152D01*
X105624523Y-41698152D02*
X105672142Y-41745771D01*
X105672142Y-41745771D02*
X105767380Y-41793390D01*
X105767380Y-41793390D02*
X105957856Y-41793390D01*
X105957856Y-41793390D02*
X106053094Y-41841009D01*
X106053094Y-41841009D02*
X106100713Y-41888628D01*
X106100713Y-41888628D02*
X106148332Y-41983866D01*
X106148332Y-41983866D02*
X106148332Y-42174342D01*
X106148332Y-42174342D02*
X106100713Y-42269580D01*
X106100713Y-42269580D02*
X106053094Y-42317200D01*
X106053094Y-42317200D02*
X105957856Y-42364819D01*
X105957856Y-42364819D02*
X105767380Y-42364819D01*
X105767380Y-42364819D02*
X105672142Y-42317200D01*
X105672142Y-42317200D02*
X105624523Y-42269580D01*
X105624523Y-42269580D02*
X105576904Y-42174342D01*
X105576904Y-42174342D02*
X105576904Y-41983866D01*
X105576904Y-41983866D02*
X105624523Y-41888628D01*
X105624523Y-41888628D02*
X105672142Y-41841009D01*
X105672142Y-41841009D02*
X105767380Y-41793390D01*
X91004819Y-68794524D02*
X90004819Y-68794524D01*
X90004819Y-68794524D02*
X90004819Y-69032619D01*
X90004819Y-69032619D02*
X90052438Y-69175476D01*
X90052438Y-69175476D02*
X90147676Y-69270714D01*
X90147676Y-69270714D02*
X90242914Y-69318333D01*
X90242914Y-69318333D02*
X90433390Y-69365952D01*
X90433390Y-69365952D02*
X90576247Y-69365952D01*
X90576247Y-69365952D02*
X90766723Y-69318333D01*
X90766723Y-69318333D02*
X90861961Y-69270714D01*
X90861961Y-69270714D02*
X90957200Y-69175476D01*
X90957200Y-69175476D02*
X91004819Y-69032619D01*
X91004819Y-69032619D02*
X91004819Y-68794524D01*
X90338152Y-70223095D02*
X91147676Y-70223095D01*
X91147676Y-70223095D02*
X91242914Y-70175476D01*
X91242914Y-70175476D02*
X91290533Y-70127857D01*
X91290533Y-70127857D02*
X91338152Y-70032619D01*
X91338152Y-70032619D02*
X91338152Y-69889762D01*
X91338152Y-69889762D02*
X91290533Y-69794524D01*
X90957200Y-70223095D02*
X91004819Y-70127857D01*
X91004819Y-70127857D02*
X91004819Y-69937381D01*
X91004819Y-69937381D02*
X90957200Y-69842143D01*
X90957200Y-69842143D02*
X90909580Y-69794524D01*
X90909580Y-69794524D02*
X90814342Y-69746905D01*
X90814342Y-69746905D02*
X90528628Y-69746905D01*
X90528628Y-69746905D02*
X90433390Y-69794524D01*
X90433390Y-69794524D02*
X90385771Y-69842143D01*
X90385771Y-69842143D02*
X90338152Y-69937381D01*
X90338152Y-69937381D02*
X90338152Y-70127857D01*
X90338152Y-70127857D02*
X90385771Y-70223095D01*
X91004819Y-71270714D02*
X90528628Y-70937381D01*
X91004819Y-70699286D02*
X90004819Y-70699286D01*
X90004819Y-70699286D02*
X90004819Y-71080238D01*
X90004819Y-71080238D02*
X90052438Y-71175476D01*
X90052438Y-71175476D02*
X90100057Y-71223095D01*
X90100057Y-71223095D02*
X90195295Y-71270714D01*
X90195295Y-71270714D02*
X90338152Y-71270714D01*
X90338152Y-71270714D02*
X90433390Y-71223095D01*
X90433390Y-71223095D02*
X90481009Y-71175476D01*
X90481009Y-71175476D02*
X90528628Y-71080238D01*
X90528628Y-71080238D02*
X90528628Y-70699286D01*
X91004819Y-72223095D02*
X91004819Y-71651667D01*
X91004819Y-71937381D02*
X90004819Y-71937381D01*
X90004819Y-71937381D02*
X90147676Y-71842143D01*
X90147676Y-71842143D02*
X90242914Y-71746905D01*
X90242914Y-71746905D02*
X90290533Y-71651667D01*
X80464819Y-63079524D02*
X79464819Y-63079524D01*
X79464819Y-63079524D02*
X79464819Y-63317619D01*
X79464819Y-63317619D02*
X79512438Y-63460476D01*
X79512438Y-63460476D02*
X79607676Y-63555714D01*
X79607676Y-63555714D02*
X79702914Y-63603333D01*
X79702914Y-63603333D02*
X79893390Y-63650952D01*
X79893390Y-63650952D02*
X80036247Y-63650952D01*
X80036247Y-63650952D02*
X80226723Y-63603333D01*
X80226723Y-63603333D02*
X80321961Y-63555714D01*
X80321961Y-63555714D02*
X80417200Y-63460476D01*
X80417200Y-63460476D02*
X80464819Y-63317619D01*
X80464819Y-63317619D02*
X80464819Y-63079524D01*
X79798152Y-64508095D02*
X80607676Y-64508095D01*
X80607676Y-64508095D02*
X80702914Y-64460476D01*
X80702914Y-64460476D02*
X80750533Y-64412857D01*
X80750533Y-64412857D02*
X80798152Y-64317619D01*
X80798152Y-64317619D02*
X80798152Y-64174762D01*
X80798152Y-64174762D02*
X80750533Y-64079524D01*
X80417200Y-64508095D02*
X80464819Y-64412857D01*
X80464819Y-64412857D02*
X80464819Y-64222381D01*
X80464819Y-64222381D02*
X80417200Y-64127143D01*
X80417200Y-64127143D02*
X80369580Y-64079524D01*
X80369580Y-64079524D02*
X80274342Y-64031905D01*
X80274342Y-64031905D02*
X79988628Y-64031905D01*
X79988628Y-64031905D02*
X79893390Y-64079524D01*
X79893390Y-64079524D02*
X79845771Y-64127143D01*
X79845771Y-64127143D02*
X79798152Y-64222381D01*
X79798152Y-64222381D02*
X79798152Y-64412857D01*
X79798152Y-64412857D02*
X79845771Y-64508095D01*
X80369580Y-65555714D02*
X80417200Y-65508095D01*
X80417200Y-65508095D02*
X80464819Y-65365238D01*
X80464819Y-65365238D02*
X80464819Y-65270000D01*
X80464819Y-65270000D02*
X80417200Y-65127143D01*
X80417200Y-65127143D02*
X80321961Y-65031905D01*
X80321961Y-65031905D02*
X80226723Y-64984286D01*
X80226723Y-64984286D02*
X80036247Y-64936667D01*
X80036247Y-64936667D02*
X79893390Y-64936667D01*
X79893390Y-64936667D02*
X79702914Y-64984286D01*
X79702914Y-64984286D02*
X79607676Y-65031905D01*
X79607676Y-65031905D02*
X79512438Y-65127143D01*
X79512438Y-65127143D02*
X79464819Y-65270000D01*
X79464819Y-65270000D02*
X79464819Y-65365238D01*
X79464819Y-65365238D02*
X79512438Y-65508095D01*
X79512438Y-65508095D02*
X79560057Y-65555714D01*
X79464819Y-66460476D02*
X79464819Y-65984286D01*
X79464819Y-65984286D02*
X79941009Y-65936667D01*
X79941009Y-65936667D02*
X79893390Y-65984286D01*
X79893390Y-65984286D02*
X79845771Y-66079524D01*
X79845771Y-66079524D02*
X79845771Y-66317619D01*
X79845771Y-66317619D02*
X79893390Y-66412857D01*
X79893390Y-66412857D02*
X79941009Y-66460476D01*
X79941009Y-66460476D02*
X80036247Y-66508095D01*
X80036247Y-66508095D02*
X80274342Y-66508095D01*
X80274342Y-66508095D02*
X80369580Y-66460476D01*
X80369580Y-66460476D02*
X80417200Y-66412857D01*
X80417200Y-66412857D02*
X80464819Y-66317619D01*
X80464819Y-66317619D02*
X80464819Y-66079524D01*
X80464819Y-66079524D02*
X80417200Y-65984286D01*
X80417200Y-65984286D02*
X80369580Y-65936667D01*
X82970475Y-70939819D02*
X82970475Y-69939819D01*
X82970475Y-69939819D02*
X82732380Y-69939819D01*
X82732380Y-69939819D02*
X82589523Y-69987438D01*
X82589523Y-69987438D02*
X82494285Y-70082676D01*
X82494285Y-70082676D02*
X82446666Y-70177914D01*
X82446666Y-70177914D02*
X82399047Y-70368390D01*
X82399047Y-70368390D02*
X82399047Y-70511247D01*
X82399047Y-70511247D02*
X82446666Y-70701723D01*
X82446666Y-70701723D02*
X82494285Y-70796961D01*
X82494285Y-70796961D02*
X82589523Y-70892200D01*
X82589523Y-70892200D02*
X82732380Y-70939819D01*
X82732380Y-70939819D02*
X82970475Y-70939819D01*
X81541904Y-70273152D02*
X81541904Y-71082676D01*
X81541904Y-71082676D02*
X81589523Y-71177914D01*
X81589523Y-71177914D02*
X81637142Y-71225533D01*
X81637142Y-71225533D02*
X81732380Y-71273152D01*
X81732380Y-71273152D02*
X81875237Y-71273152D01*
X81875237Y-71273152D02*
X81970475Y-71225533D01*
X81541904Y-70892200D02*
X81637142Y-70939819D01*
X81637142Y-70939819D02*
X81827618Y-70939819D01*
X81827618Y-70939819D02*
X81922856Y-70892200D01*
X81922856Y-70892200D02*
X81970475Y-70844580D01*
X81970475Y-70844580D02*
X82018094Y-70749342D01*
X82018094Y-70749342D02*
X82018094Y-70463628D01*
X82018094Y-70463628D02*
X81970475Y-70368390D01*
X81970475Y-70368390D02*
X81922856Y-70320771D01*
X81922856Y-70320771D02*
X81827618Y-70273152D01*
X81827618Y-70273152D02*
X81637142Y-70273152D01*
X81637142Y-70273152D02*
X81541904Y-70320771D01*
X80494285Y-70939819D02*
X80827618Y-70463628D01*
X81065713Y-70939819D02*
X81065713Y-69939819D01*
X81065713Y-69939819D02*
X80684761Y-69939819D01*
X80684761Y-69939819D02*
X80589523Y-69987438D01*
X80589523Y-69987438D02*
X80541904Y-70035057D01*
X80541904Y-70035057D02*
X80494285Y-70130295D01*
X80494285Y-70130295D02*
X80494285Y-70273152D01*
X80494285Y-70273152D02*
X80541904Y-70368390D01*
X80541904Y-70368390D02*
X80589523Y-70416009D01*
X80589523Y-70416009D02*
X80684761Y-70463628D01*
X80684761Y-70463628D02*
X81065713Y-70463628D01*
X80113332Y-70035057D02*
X80065713Y-69987438D01*
X80065713Y-69987438D02*
X79970475Y-69939819D01*
X79970475Y-69939819D02*
X79732380Y-69939819D01*
X79732380Y-69939819D02*
X79637142Y-69987438D01*
X79637142Y-69987438D02*
X79589523Y-70035057D01*
X79589523Y-70035057D02*
X79541904Y-70130295D01*
X79541904Y-70130295D02*
X79541904Y-70225533D01*
X79541904Y-70225533D02*
X79589523Y-70368390D01*
X79589523Y-70368390D02*
X80160951Y-70939819D01*
X80160951Y-70939819D02*
X79541904Y-70939819D01*
X74114819Y-62420714D02*
X73114819Y-62420714D01*
X73114819Y-62420714D02*
X73114819Y-62658809D01*
X73114819Y-62658809D02*
X73162438Y-62801666D01*
X73162438Y-62801666D02*
X73257676Y-62896904D01*
X73257676Y-62896904D02*
X73352914Y-62944523D01*
X73352914Y-62944523D02*
X73543390Y-62992142D01*
X73543390Y-62992142D02*
X73686247Y-62992142D01*
X73686247Y-62992142D02*
X73876723Y-62944523D01*
X73876723Y-62944523D02*
X73971961Y-62896904D01*
X73971961Y-62896904D02*
X74067200Y-62801666D01*
X74067200Y-62801666D02*
X74114819Y-62658809D01*
X74114819Y-62658809D02*
X74114819Y-62420714D01*
X73448152Y-63849285D02*
X74257676Y-63849285D01*
X74257676Y-63849285D02*
X74352914Y-63801666D01*
X74352914Y-63801666D02*
X74400533Y-63754047D01*
X74400533Y-63754047D02*
X74448152Y-63658809D01*
X74448152Y-63658809D02*
X74448152Y-63515952D01*
X74448152Y-63515952D02*
X74400533Y-63420714D01*
X74067200Y-63849285D02*
X74114819Y-63754047D01*
X74114819Y-63754047D02*
X74114819Y-63563571D01*
X74114819Y-63563571D02*
X74067200Y-63468333D01*
X74067200Y-63468333D02*
X74019580Y-63420714D01*
X74019580Y-63420714D02*
X73924342Y-63373095D01*
X73924342Y-63373095D02*
X73638628Y-63373095D01*
X73638628Y-63373095D02*
X73543390Y-63420714D01*
X73543390Y-63420714D02*
X73495771Y-63468333D01*
X73495771Y-63468333D02*
X73448152Y-63563571D01*
X73448152Y-63563571D02*
X73448152Y-63754047D01*
X73448152Y-63754047D02*
X73495771Y-63849285D01*
X73114819Y-64325476D02*
X73924342Y-64325476D01*
X73924342Y-64325476D02*
X74019580Y-64373095D01*
X74019580Y-64373095D02*
X74067200Y-64420714D01*
X74067200Y-64420714D02*
X74114819Y-64515952D01*
X74114819Y-64515952D02*
X74114819Y-64706428D01*
X74114819Y-64706428D02*
X74067200Y-64801666D01*
X74067200Y-64801666D02*
X74019580Y-64849285D01*
X74019580Y-64849285D02*
X73924342Y-64896904D01*
X73924342Y-64896904D02*
X73114819Y-64896904D01*
X73210057Y-65325476D02*
X73162438Y-65373095D01*
X73162438Y-65373095D02*
X73114819Y-65468333D01*
X73114819Y-65468333D02*
X73114819Y-65706428D01*
X73114819Y-65706428D02*
X73162438Y-65801666D01*
X73162438Y-65801666D02*
X73210057Y-65849285D01*
X73210057Y-65849285D02*
X73305295Y-65896904D01*
X73305295Y-65896904D02*
X73400533Y-65896904D01*
X73400533Y-65896904D02*
X73543390Y-65849285D01*
X73543390Y-65849285D02*
X74114819Y-65277857D01*
X74114819Y-65277857D02*
X74114819Y-65896904D01*
D10*
X90744318Y-62128213D02*
X89474318Y-62128213D01*
X89474318Y-62128213D02*
X89474318Y-62430594D01*
X89474318Y-62430594D02*
X89534794Y-62612023D01*
X89534794Y-62612023D02*
X89655746Y-62732975D01*
X89655746Y-62732975D02*
X89776699Y-62793452D01*
X89776699Y-62793452D02*
X90018603Y-62853928D01*
X90018603Y-62853928D02*
X90200032Y-62853928D01*
X90200032Y-62853928D02*
X90441937Y-62793452D01*
X90441937Y-62793452D02*
X90562889Y-62732975D01*
X90562889Y-62732975D02*
X90683842Y-62612023D01*
X90683842Y-62612023D02*
X90744318Y-62430594D01*
X90744318Y-62430594D02*
X90744318Y-62128213D01*
X89897651Y-63942499D02*
X90925746Y-63942499D01*
X90925746Y-63942499D02*
X91046699Y-63882023D01*
X91046699Y-63882023D02*
X91107175Y-63821547D01*
X91107175Y-63821547D02*
X91167651Y-63700594D01*
X91167651Y-63700594D02*
X91167651Y-63519166D01*
X91167651Y-63519166D02*
X91107175Y-63398213D01*
X90683842Y-63942499D02*
X90744318Y-63821547D01*
X90744318Y-63821547D02*
X90744318Y-63579642D01*
X90744318Y-63579642D02*
X90683842Y-63458690D01*
X90683842Y-63458690D02*
X90623365Y-63398213D01*
X90623365Y-63398213D02*
X90502413Y-63337737D01*
X90502413Y-63337737D02*
X90139556Y-63337737D01*
X90139556Y-63337737D02*
X90018603Y-63398213D01*
X90018603Y-63398213D02*
X89958127Y-63458690D01*
X89958127Y-63458690D02*
X89897651Y-63579642D01*
X89897651Y-63579642D02*
X89897651Y-63821547D01*
X89897651Y-63821547D02*
X89958127Y-63942499D01*
X90744318Y-64547261D02*
X89474318Y-64547261D01*
X90623365Y-65877738D02*
X90683842Y-65817262D01*
X90683842Y-65817262D02*
X90744318Y-65635833D01*
X90744318Y-65635833D02*
X90744318Y-65514881D01*
X90744318Y-65514881D02*
X90683842Y-65333452D01*
X90683842Y-65333452D02*
X90562889Y-65212500D01*
X90562889Y-65212500D02*
X90441937Y-65152023D01*
X90441937Y-65152023D02*
X90200032Y-65091547D01*
X90200032Y-65091547D02*
X90018603Y-65091547D01*
X90018603Y-65091547D02*
X89776699Y-65152023D01*
X89776699Y-65152023D02*
X89655746Y-65212500D01*
X89655746Y-65212500D02*
X89534794Y-65333452D01*
X89534794Y-65333452D02*
X89474318Y-65514881D01*
X89474318Y-65514881D02*
X89474318Y-65635833D01*
X89474318Y-65635833D02*
X89534794Y-65817262D01*
X89534794Y-65817262D02*
X89595270Y-65877738D01*
X90744318Y-67087262D02*
X90744318Y-66361547D01*
X90744318Y-66724404D02*
X89474318Y-66724404D01*
X89474318Y-66724404D02*
X89655746Y-66603452D01*
X89655746Y-66603452D02*
X89776699Y-66482500D01*
X89776699Y-66482500D02*
X89837175Y-66361547D01*
D11*
X114879475Y-37792819D02*
X114879475Y-36792819D01*
X114879475Y-36792819D02*
X114641380Y-36792819D01*
X114641380Y-36792819D02*
X114498523Y-36840438D01*
X114498523Y-36840438D02*
X114403285Y-36935676D01*
X114403285Y-36935676D02*
X114355666Y-37030914D01*
X114355666Y-37030914D02*
X114308047Y-37221390D01*
X114308047Y-37221390D02*
X114308047Y-37364247D01*
X114308047Y-37364247D02*
X114355666Y-37554723D01*
X114355666Y-37554723D02*
X114403285Y-37649961D01*
X114403285Y-37649961D02*
X114498523Y-37745200D01*
X114498523Y-37745200D02*
X114641380Y-37792819D01*
X114641380Y-37792819D02*
X114879475Y-37792819D01*
X113450904Y-37126152D02*
X113450904Y-37935676D01*
X113450904Y-37935676D02*
X113498523Y-38030914D01*
X113498523Y-38030914D02*
X113546142Y-38078533D01*
X113546142Y-38078533D02*
X113641380Y-38126152D01*
X113641380Y-38126152D02*
X113784237Y-38126152D01*
X113784237Y-38126152D02*
X113879475Y-38078533D01*
X113450904Y-37745200D02*
X113546142Y-37792819D01*
X113546142Y-37792819D02*
X113736618Y-37792819D01*
X113736618Y-37792819D02*
X113831856Y-37745200D01*
X113831856Y-37745200D02*
X113879475Y-37697580D01*
X113879475Y-37697580D02*
X113927094Y-37602342D01*
X113927094Y-37602342D02*
X113927094Y-37316628D01*
X113927094Y-37316628D02*
X113879475Y-37221390D01*
X113879475Y-37221390D02*
X113831856Y-37173771D01*
X113831856Y-37173771D02*
X113736618Y-37126152D01*
X113736618Y-37126152D02*
X113546142Y-37126152D01*
X113546142Y-37126152D02*
X113450904Y-37173771D01*
X112403285Y-37792819D02*
X112736618Y-37316628D01*
X112974713Y-37792819D02*
X112974713Y-36792819D01*
X112974713Y-36792819D02*
X112593761Y-36792819D01*
X112593761Y-36792819D02*
X112498523Y-36840438D01*
X112498523Y-36840438D02*
X112450904Y-36888057D01*
X112450904Y-36888057D02*
X112403285Y-36983295D01*
X112403285Y-36983295D02*
X112403285Y-37126152D01*
X112403285Y-37126152D02*
X112450904Y-37221390D01*
X112450904Y-37221390D02*
X112498523Y-37269009D01*
X112498523Y-37269009D02*
X112593761Y-37316628D01*
X112593761Y-37316628D02*
X112974713Y-37316628D01*
X111927094Y-37792819D02*
X111736618Y-37792819D01*
X111736618Y-37792819D02*
X111641380Y-37745200D01*
X111641380Y-37745200D02*
X111593761Y-37697580D01*
X111593761Y-37697580D02*
X111498523Y-37554723D01*
X111498523Y-37554723D02*
X111450904Y-37364247D01*
X111450904Y-37364247D02*
X111450904Y-36983295D01*
X111450904Y-36983295D02*
X111498523Y-36888057D01*
X111498523Y-36888057D02*
X111546142Y-36840438D01*
X111546142Y-36840438D02*
X111641380Y-36792819D01*
X111641380Y-36792819D02*
X111831856Y-36792819D01*
X111831856Y-36792819D02*
X111927094Y-36840438D01*
X111927094Y-36840438D02*
X111974713Y-36888057D01*
X111974713Y-36888057D02*
X112022332Y-36983295D01*
X112022332Y-36983295D02*
X112022332Y-37221390D01*
X112022332Y-37221390D02*
X111974713Y-37316628D01*
X111974713Y-37316628D02*
X111927094Y-37364247D01*
X111927094Y-37364247D02*
X111831856Y-37411866D01*
X111831856Y-37411866D02*
X111641380Y-37411866D01*
X111641380Y-37411866D02*
X111546142Y-37364247D01*
X111546142Y-37364247D02*
X111498523Y-37316628D01*
X111498523Y-37316628D02*
X111450904Y-37221390D01*
D12*
%TO.C,Q4*%
X113395000Y-46105000D02*
X113395000Y-46105000D01*
X113195000Y-46105000D02*
X113195000Y-46105000D01*
D13*
X113845000Y-43255000D02*
X113845000Y-44405000D01*
X113195000Y-43255000D02*
X113845000Y-43255000D01*
X110945000Y-43255000D02*
X111595000Y-43255000D01*
X110945000Y-44405000D02*
X110945000Y-43255000D01*
D12*
X113395000Y-46105000D02*
G75*
G02*
X113195000Y-46105000I-100000J0D01*
G01*
X113195000Y-46105000D02*
G75*
G02*
X113395000Y-46105000I100000J0D01*
G01*
%TO.C,IC3*%
X117130000Y-39715000D02*
X117880000Y-39715000D01*
X117130000Y-42715000D02*
X117130000Y-39715000D01*
X117880000Y-42715000D02*
X117130000Y-42715000D01*
X117880000Y-39715000D02*
X117880000Y-42715000D01*
X118230000Y-39715000D02*
X119380000Y-39715000D01*
D14*
%TO.C,DgR8*%
X107357936Y-39270000D02*
X107812064Y-39270000D01*
X107357936Y-40740000D02*
X107812064Y-40740000D01*
%TO.C,DgR1*%
X88165000Y-70257936D02*
X88165000Y-70712064D01*
X89635000Y-70257936D02*
X89635000Y-70712064D01*
%TO.C,DgC5*%
X81180000Y-64508748D02*
X81180000Y-65031252D01*
X82650000Y-64508748D02*
X82650000Y-65031252D01*
%TO.C,DgR2*%
X85682064Y-69750000D02*
X85227936Y-69750000D01*
X85682064Y-71220000D02*
X85227936Y-71220000D01*
%TO.C,DgU2*%
X75225000Y-65210000D02*
X75225000Y-63610000D01*
X76135000Y-65210000D02*
X75235000Y-65210000D01*
X78445000Y-65210000D02*
X77535000Y-65210000D01*
X78445000Y-65210000D02*
X78445000Y-63060000D01*
X75275000Y-63110000D02*
X74945000Y-63350000D01*
X74945000Y-62870000D01*
X75275000Y-63110000D01*
G36*
X75275000Y-63110000D02*
G01*
X74945000Y-63350000D01*
X74945000Y-62870000D01*
X75275000Y-63110000D01*
G37*
D12*
%TO.C,DgIC1*%
X83780000Y-62628500D02*
X83780000Y-61077500D01*
X83916000Y-62978500D02*
X88804000Y-62978500D01*
X83916000Y-66176500D02*
X83916000Y-62978500D01*
X88804000Y-62978500D02*
X88804000Y-66176500D01*
X88804000Y-66176500D02*
X83916000Y-66176500D01*
D14*
%TO.C,DgR9*%
X112511064Y-38508000D02*
X112056936Y-38508000D01*
X112511064Y-39978000D02*
X112056936Y-39978000D01*
%TD*%
%LPC*%
D15*
%TO.C,Q4*%
X113345000Y-45205000D03*
X111445000Y-45205000D03*
X112395000Y-42805000D03*
%TD*%
D16*
%TO.C,PwIC1*%
X61595000Y-41275000D03*
D17*
X64135000Y-41275000D03*
X66675000Y-41275000D03*
%TD*%
D18*
%TO.C,IC3*%
X118805000Y-40265000D03*
X118805000Y-41215000D03*
X118805000Y-42165000D03*
X116205000Y-42165000D03*
X116205000Y-40265000D03*
%TD*%
D19*
%TO.C,DgJ13*%
X152770000Y-32805000D03*
X152220000Y-27305000D03*
X157720000Y-27305000D03*
D20*
X157170000Y-32805000D03*
%TD*%
D19*
%TO.C,DgJ12*%
X178350000Y-32805000D03*
X177800000Y-27305000D03*
X183300000Y-27305000D03*
D20*
X182750000Y-32805000D03*
%TD*%
D19*
%TO.C,DgJ11*%
X165650000Y-32805000D03*
X165100000Y-27305000D03*
X170600000Y-27305000D03*
D20*
X170050000Y-32805000D03*
%TD*%
D19*
%TO.C,DgJ9*%
X139700000Y-32805000D03*
X139150000Y-27305000D03*
X144650000Y-27305000D03*
D20*
X144100000Y-32805000D03*
%TD*%
D21*
%TO.C,R105*%
X69330000Y-116165000D03*
D22*
X69330000Y-118705000D03*
%TD*%
D21*
%TO.C,R26*%
X168275000Y-120650000D03*
D22*
X165735000Y-120650000D03*
%TD*%
D21*
%TO.C,R70*%
X77470000Y-123375000D03*
D22*
X77470000Y-125915000D03*
%TD*%
D21*
%TO.C,R45*%
X53340000Y-138430000D03*
D22*
X55880000Y-138430000D03*
%TD*%
D23*
%TO.C,C8*%
X217805000Y-96584900D03*
D21*
X217805000Y-99084900D03*
%TD*%
D24*
%TO.C,U1*%
X217790000Y-122555000D03*
D25*
X215250000Y-122555000D03*
X212710000Y-122555000D03*
X210170000Y-122555000D03*
X207630000Y-122555000D03*
X205090000Y-122555000D03*
X202550000Y-122555000D03*
X200010000Y-122555000D03*
X200010000Y-130175000D03*
X202550000Y-130175000D03*
X205090000Y-130175000D03*
X207630000Y-130175000D03*
X210170000Y-130175000D03*
X212710000Y-130175000D03*
X215250000Y-130175000D03*
X217790000Y-130175000D03*
%TD*%
D26*
%TO.C,TM4*%
X34925000Y-139065000D03*
D27*
X34925000Y-136525000D03*
X34925000Y-133985000D03*
%TD*%
D28*
%TO.C,D37*%
X176530000Y-82550000D03*
D29*
X173990000Y-82550000D03*
%TD*%
D26*
%TO.C,TM5*%
X34145000Y-116205000D03*
D27*
X34145000Y-113665000D03*
X34145000Y-111125000D03*
%TD*%
D21*
%TO.C,R22*%
X165960000Y-123825000D03*
D22*
X168500000Y-123825000D03*
%TD*%
D21*
%TO.C,R140*%
X167230000Y-59055000D03*
D22*
X169770000Y-59055000D03*
%TD*%
D21*
%TO.C,R73*%
X92075000Y-116840000D03*
D22*
X92075000Y-119380000D03*
%TD*%
D30*
%TO.C,VR1*%
X153685000Y-67865000D03*
X153685000Y-65365000D03*
X153685000Y-62865000D03*
D31*
X146685000Y-69765000D03*
X146685000Y-60965000D03*
%TD*%
D21*
%TO.C,R93*%
X162560000Y-46130000D03*
D22*
X162560000Y-43590000D03*
%TD*%
D21*
%TO.C,R109*%
X106680000Y-133985000D03*
D22*
X109220000Y-133985000D03*
%TD*%
D32*
%TO.C,Q38*%
X165735000Y-83585000D03*
D33*
X167005000Y-81515000D03*
X168275000Y-83585000D03*
%TD*%
D21*
%TO.C,R152*%
X182245000Y-82550000D03*
D22*
X179705000Y-82550000D03*
%TD*%
D34*
%TO.C,C23*%
X112935000Y-138430000D03*
D35*
X114935000Y-138430000D03*
%TD*%
D21*
%TO.C,C25*%
X139065000Y-116840000D03*
X139065000Y-121840000D03*
%TD*%
%TO.C,R64*%
X85725000Y-128905000D03*
D22*
X83185000Y-128905000D03*
%TD*%
D21*
%TO.C,R35*%
X66900000Y-133350000D03*
D22*
X69440000Y-133350000D03*
%TD*%
D21*
%TO.C,C34*%
X37320000Y-127000000D03*
X32320000Y-127000000D03*
%TD*%
D23*
%TO.C,C20*%
X179295000Y-135160000D03*
D21*
X179295000Y-137160000D03*
%TD*%
%TO.C,R13*%
X198345000Y-118745000D03*
D22*
X198345000Y-116205000D03*
%TD*%
D34*
%TO.C,C72*%
X178975000Y-71120000D03*
D35*
X180975000Y-71120000D03*
%TD*%
D36*
%TO.C,U2*%
X41275000Y-119380000D03*
D37*
X41275000Y-121920000D03*
X41275000Y-124460000D03*
X41275000Y-127000000D03*
X48895000Y-127000000D03*
X48895000Y-124460000D03*
X48895000Y-121920000D03*
X48895000Y-119380000D03*
%TD*%
D21*
%TO.C,R36*%
X53565000Y-133350000D03*
D22*
X56105000Y-133350000D03*
%TD*%
D21*
%TO.C,R14*%
X217790000Y-118745000D03*
D22*
X217790000Y-116205000D03*
%TD*%
D21*
%TO.C,R91*%
X160245000Y-55880000D03*
D22*
X162785000Y-55880000D03*
%TD*%
D21*
%TO.C,R10*%
X214615000Y-118745000D03*
D22*
X214615000Y-116205000D03*
%TD*%
D21*
%TO.C,DgC2*%
X135255000Y-76530000D03*
X135255000Y-71530000D03*
%TD*%
%TO.C,R138*%
X186055000Y-82550000D03*
D22*
X188595000Y-82550000D03*
%TD*%
D38*
%TO.C,J13*%
X68580000Y-109855000D03*
%TD*%
%TO.C,J8*%
X192405000Y-63000000D03*
D39*
X194945000Y-63000000D03*
%TD*%
D40*
%TO.C,Q10*%
X84055000Y-123190000D03*
D41*
X86125000Y-124460000D03*
X84055000Y-125730000D03*
%TD*%
D21*
%TO.C,C19*%
X105410000Y-116205000D03*
X110410000Y-116205000D03*
%TD*%
D26*
%TO.C,TM1*%
X188185000Y-114300000D03*
D27*
X185645000Y-114300000D03*
X183105000Y-114300000D03*
%TD*%
D21*
%TO.C,R103*%
X47625000Y-133350000D03*
D22*
X45085000Y-133350000D03*
%TD*%
D21*
%TO.C,R8*%
X196596000Y-133731000D03*
D22*
X199136000Y-133731000D03*
%TD*%
D40*
%TO.C,Q23*%
X114535000Y-121285000D03*
D41*
X116605000Y-122555000D03*
X114535000Y-123825000D03*
%TD*%
D42*
%TO.C,SW1*%
X34925000Y-96000000D03*
X37465000Y-96000000D03*
X40005000Y-96000000D03*
X32385000Y-96000000D03*
X42545000Y-96000000D03*
%TD*%
D21*
%TO.C,C26*%
X123432600Y-116285000D03*
X123432600Y-121285000D03*
%TD*%
%TO.C,DgR6*%
X135255000Y-60325000D03*
D22*
X135255000Y-57785000D03*
%TD*%
D23*
%TO.C,PwC6*%
X47030000Y-53975000D03*
D21*
X49530000Y-53975000D03*
%TD*%
D43*
%TO.C,PwD1*%
X49312200Y-60325000D03*
D44*
X44232200Y-60325000D03*
%TD*%
D21*
%TO.C,R114*%
X140560000Y-129460000D03*
D22*
X143100000Y-129460000D03*
%TD*%
D21*
%TO.C,PwC3*%
X69810000Y-46990000D03*
X64810000Y-46990000D03*
%TD*%
%TO.C,PwC9*%
X49570000Y-68580000D03*
X54570000Y-68580000D03*
%TD*%
D36*
%TO.C,IC12*%
X176530000Y-38005000D03*
D37*
X176530000Y-40545000D03*
X176530000Y-43085000D03*
X176530000Y-45625000D03*
X176530000Y-48165000D03*
X176530000Y-50705000D03*
X176530000Y-53245000D03*
X184150000Y-53245000D03*
X184150000Y-50705000D03*
X184150000Y-48165000D03*
X184150000Y-45625000D03*
X184150000Y-43085000D03*
X184150000Y-40545000D03*
X184150000Y-38005000D03*
%TD*%
D21*
%TO.C,R63*%
X85725000Y-116840000D03*
D22*
X85725000Y-119380000D03*
%TD*%
D36*
%TO.C,Q21*%
X128157600Y-123190000D03*
D37*
X128157600Y-125730000D03*
X128157600Y-128270000D03*
X135777600Y-128270000D03*
X135777600Y-125730000D03*
X135777600Y-123190000D03*
%TD*%
D21*
%TO.C,R111*%
X142240000Y-125730000D03*
D22*
X139700000Y-125730000D03*
%TD*%
D40*
%TO.C,Q30*%
X169145000Y-50165000D03*
D41*
X171215000Y-51435000D03*
X169145000Y-52705000D03*
%TD*%
D21*
%TO.C,C1*%
X184215000Y-123825000D03*
X189215000Y-123825000D03*
%TD*%
%TO.C,R25*%
X174360000Y-129540000D03*
D22*
X174360000Y-132080000D03*
%TD*%
D28*
%TO.C,D2*%
X162150000Y-123825000D03*
D29*
X159610000Y-123825000D03*
%TD*%
D21*
%TO.C,R16*%
X213545000Y-68580000D03*
D22*
X211005000Y-68580000D03*
%TD*%
D21*
%TO.C,R66*%
X135890000Y-132715000D03*
D22*
X133350000Y-132715000D03*
%TD*%
D21*
%TO.C,R100*%
X46765000Y-106680000D03*
D22*
X44225000Y-106680000D03*
%TD*%
D40*
%TO.C,Q18*%
X122205000Y-139065000D03*
D45*
X120135000Y-137795000D03*
X122205000Y-136525000D03*
%TD*%
D40*
%TO.C,Q8*%
X61995000Y-140335000D03*
D45*
X59925000Y-139065000D03*
X61995000Y-137795000D03*
%TD*%
D34*
%TO.C,C15*%
X120015000Y-144780000D03*
D35*
X122015000Y-144780000D03*
%TD*%
D32*
%TO.C,Q9*%
X91440000Y-129775000D03*
D46*
X90170000Y-131845000D03*
X88900000Y-129775000D03*
%TD*%
D38*
%TO.C,J12*%
X219000000Y-44540000D03*
D39*
X219000000Y-42000000D03*
%TD*%
D34*
%TO.C,C30*%
X141510000Y-110490000D03*
D35*
X143510000Y-110490000D03*
%TD*%
D21*
%TO.C,R150*%
X169545000Y-78105000D03*
D22*
X169545000Y-75565000D03*
%TD*%
D28*
%TO.C,D28*%
X188595000Y-51340000D03*
D29*
X188595000Y-48800000D03*
%TD*%
D21*
%TO.C,R98*%
X90805000Y-137795000D03*
D22*
X88265000Y-137795000D03*
%TD*%
D21*
%TO.C,C54*%
X158115000Y-83105000D03*
X158115000Y-78105000D03*
%TD*%
D47*
%TO.C,J14*%
X64930000Y-80645000D03*
D48*
X67430000Y-80645000D03*
X69930000Y-80645000D03*
X72430000Y-80645000D03*
X74930000Y-80645000D03*
%TD*%
D38*
%TO.C,PwJ2*%
X36830000Y-37465000D03*
D39*
X39370000Y-37465000D03*
%TD*%
D21*
%TO.C,C33*%
X65520000Y-118665000D03*
X65520000Y-113665000D03*
%TD*%
D34*
%TO.C,C14*%
X149130000Y-132635000D03*
D35*
X151130000Y-132635000D03*
%TD*%
D23*
%TO.C,C7*%
X56047000Y-80518000D03*
D21*
X58547000Y-80518000D03*
%TD*%
%TO.C,R92*%
X152400000Y-51210000D03*
D22*
X152400000Y-48670000D03*
%TD*%
D21*
%TO.C,R6*%
X218425000Y-135890000D03*
D22*
X218425000Y-133350000D03*
%TD*%
D38*
%TO.C,PwJ3*%
X49530000Y-37465000D03*
D39*
X46990000Y-37465000D03*
%TD*%
D21*
%TO.C,R31*%
X217805000Y-102587000D03*
D22*
X217805000Y-105127000D03*
%TD*%
D21*
%TO.C,R99*%
X135665000Y-136525000D03*
D22*
X133125000Y-136525000D03*
%TD*%
D21*
%TO.C,R113*%
X114300000Y-133985000D03*
D22*
X111760000Y-133985000D03*
%TD*%
D21*
%TO.C,R59*%
X155575000Y-51210000D03*
D22*
X155575000Y-48670000D03*
%TD*%
D36*
%TO.C,Q12*%
X95210000Y-128920000D03*
D37*
X95210000Y-131460000D03*
X95210000Y-134000000D03*
X102830000Y-134000000D03*
X102830000Y-131460000D03*
X102830000Y-128920000D03*
%TD*%
D21*
%TO.C,R28*%
X173990000Y-120650000D03*
D22*
X171450000Y-120650000D03*
%TD*%
D23*
%TO.C,C3*%
X179295000Y-120690000D03*
D21*
X179295000Y-123190000D03*
%TD*%
%TO.C,R34*%
X60325000Y-133350000D03*
D22*
X62865000Y-133350000D03*
%TD*%
D26*
%TO.C,PwF1*%
X34925000Y-45720000D03*
D27*
X40025000Y-48310000D03*
%TD*%
D40*
%TO.C,Q24*%
X55455000Y-123190000D03*
D45*
X53385000Y-121920000D03*
X55455000Y-120650000D03*
%TD*%
D28*
%TO.C,D26*%
X188595000Y-45625000D03*
D29*
X188595000Y-43085000D03*
%TD*%
D36*
%TO.C,U5*%
X36180000Y-79385000D03*
D37*
X36180000Y-81925000D03*
X36180000Y-84465000D03*
X36180000Y-87005000D03*
X43800000Y-87005000D03*
X43800000Y-84465000D03*
X43800000Y-81925000D03*
X43800000Y-79385000D03*
%TD*%
D21*
%TO.C,R139*%
X182655000Y-59055000D03*
D22*
X180115000Y-59055000D03*
%TD*%
D38*
%TO.C,AnPw1*%
X60960000Y-73025000D03*
D39*
X63500000Y-73025000D03*
X66040000Y-73025000D03*
%TD*%
D28*
%TO.C,D1*%
X158975000Y-128905000D03*
D29*
X156435000Y-128905000D03*
%TD*%
D21*
%TO.C,R142*%
X175895000Y-65405000D03*
D22*
X173355000Y-65405000D03*
%TD*%
D49*
%TO.C,DgJ1*%
X104380000Y-34290000D03*
D50*
X111880000Y-34290000D03*
X119380000Y-34290000D03*
X106880000Y-36790000D03*
X116880000Y-36790000D03*
X106880000Y-24390000D03*
X116880000Y-24390000D03*
%TD*%
D34*
%TO.C,C29*%
X142145000Y-137795000D03*
D35*
X144145000Y-137795000D03*
%TD*%
D23*
%TO.C,C4*%
X203820000Y-116245000D03*
D21*
X203820000Y-118745000D03*
%TD*%
D32*
%TO.C,Q35*%
X173355000Y-58820000D03*
D33*
X174625000Y-56750000D03*
X175895000Y-58820000D03*
%TD*%
D21*
%TO.C,R69*%
X97155000Y-137795000D03*
D22*
X99695000Y-137795000D03*
%TD*%
D40*
%TO.C,Q14*%
X108185000Y-109855000D03*
D41*
X110255000Y-111125000D03*
X108185000Y-112395000D03*
%TD*%
D34*
%TO.C,C13*%
X148495000Y-110490000D03*
D35*
X150495000Y-110490000D03*
%TD*%
D42*
%TO.C,PwS1*%
X62865000Y-30225000D03*
X65405000Y-30225000D03*
X67945000Y-30225000D03*
X67945000Y-25145000D03*
X62865000Y-25145000D03*
%TD*%
D40*
%TO.C,Q28*%
X67825000Y-124420000D03*
D45*
X65755000Y-123150000D03*
X67825000Y-121880000D03*
%TD*%
D21*
%TO.C,R46*%
X149225000Y-118030000D03*
D22*
X151765000Y-118030000D03*
%TD*%
D21*
%TO.C,R17*%
X207645000Y-83820000D03*
D22*
X205105000Y-83820000D03*
%TD*%
D28*
%TO.C,D29*%
X188595000Y-57055000D03*
D29*
X188595000Y-54515000D03*
%TD*%
D21*
%TO.C,R117*%
X188595000Y-38005000D03*
D22*
X188595000Y-40545000D03*
%TD*%
D38*
%TO.C,DgJ16*%
X142235000Y-40005000D03*
D39*
X139695000Y-40005000D03*
X137155000Y-40005000D03*
X134615000Y-40005000D03*
X132075000Y-40005000D03*
%TD*%
D21*
%TO.C,R61*%
X162150000Y-120650000D03*
D22*
X159610000Y-120650000D03*
%TD*%
D32*
%TO.C,Q39*%
X193040000Y-77235000D03*
D33*
X194310000Y-75165000D03*
X195580000Y-77235000D03*
%TD*%
D21*
%TO.C,R62*%
X75565000Y-109855000D03*
D22*
X73025000Y-109855000D03*
%TD*%
D51*
%TO.C,VR2*%
X67310000Y-99550000D03*
D52*
X67310000Y-97050000D03*
X67310000Y-94550000D03*
X67310000Y-92050000D03*
D53*
X56310000Y-101600000D03*
X56310000Y-90000000D03*
%TD*%
D51*
%TO.C,VR4*%
X114946700Y-98635000D03*
D52*
X114946700Y-100635000D03*
X114946700Y-90635000D03*
X114946700Y-96635000D03*
X114946700Y-94635000D03*
X114946700Y-92635000D03*
D31*
X103946700Y-101435000D03*
X103946700Y-89835000D03*
%TD*%
D21*
%TO.C,R24*%
X208055000Y-68580000D03*
D22*
X205515000Y-68580000D03*
%TD*%
D54*
%TO.C,J6*%
X210185000Y-30945000D03*
X193885000Y-30945000D03*
X210185000Y-24645000D03*
X193885000Y-24645000D03*
X210185000Y-37245000D03*
X193885000Y-37245000D03*
%TD*%
D21*
%TO.C,R18*%
X49911000Y-79121000D03*
D22*
X47371000Y-79121000D03*
%TD*%
D38*
%TO.C,PwJ4*%
X36825000Y-41910000D03*
D39*
X39365000Y-41910000D03*
%TD*%
D21*
%TO.C,R141*%
X160020000Y-59690000D03*
D22*
X162560000Y-59690000D03*
%TD*%
D21*
%TO.C,R71*%
X82550000Y-116840000D03*
D22*
X82550000Y-119380000D03*
%TD*%
D38*
%TO.C,J3*%
X175485000Y-113030000D03*
D39*
X172945000Y-113030000D03*
%TD*%
D34*
%TO.C,C55*%
X178975000Y-76835000D03*
D35*
X180975000Y-76835000D03*
%TD*%
D51*
%TO.C,VR8*%
X212090000Y-99380000D03*
D52*
X212090000Y-96880000D03*
X212090000Y-94380000D03*
X212090000Y-91880000D03*
D53*
X201090000Y-101430000D03*
X201090000Y-89830000D03*
%TD*%
D40*
%TO.C,Q11*%
X91725000Y-125730000D03*
D45*
X89655000Y-124460000D03*
X91725000Y-123190000D03*
%TD*%
D21*
%TO.C,R148*%
X161810000Y-78105000D03*
D22*
X161810000Y-75565000D03*
%TD*%
D21*
%TO.C,R151*%
X173355000Y-78105000D03*
D22*
X173355000Y-75565000D03*
%TD*%
D21*
%TO.C,R7*%
X202550000Y-135890000D03*
D22*
X202550000Y-133350000D03*
%TD*%
D51*
%TO.C,VR7*%
X186851700Y-99412500D03*
D52*
X186851700Y-96912500D03*
X186851700Y-94412500D03*
X186851700Y-91912500D03*
D53*
X175851700Y-101462500D03*
X175851700Y-89862500D03*
%TD*%
D34*
%TO.C,C17*%
X74835000Y-115570000D03*
D35*
X76835000Y-115570000D03*
%TD*%
D38*
%TO.C,DgPw1*%
X77470000Y-51060000D03*
D39*
X80010000Y-51060000D03*
X82550000Y-51060000D03*
%TD*%
D23*
%TO.C,PwC5*%
X57190000Y-53975000D03*
D21*
X59690000Y-53975000D03*
%TD*%
%TO.C,R144*%
X161515000Y-69215000D03*
D22*
X164055000Y-69215000D03*
%TD*%
D21*
%TO.C,R9*%
X211440000Y-118745000D03*
D22*
X211440000Y-116205000D03*
%TD*%
D21*
%TO.C,C5*%
X213345000Y-109220000D03*
X218345000Y-109220000D03*
%TD*%
D38*
%TO.C,DgJ2*%
X97790000Y-80665000D03*
D39*
X100330000Y-80665000D03*
X102870000Y-80665000D03*
X105410000Y-80665000D03*
X107950000Y-80665000D03*
X110490000Y-80665000D03*
X113030000Y-80665000D03*
X115570000Y-80665000D03*
%TD*%
D21*
%TO.C,R143*%
X169545000Y-65405000D03*
D22*
X167005000Y-65405000D03*
%TD*%
D21*
%TO.C,DgR7*%
X132080000Y-60325000D03*
D22*
X132080000Y-57785000D03*
%TD*%
D34*
%TO.C,C22*%
X135890000Y-140970000D03*
D35*
X137890000Y-140970000D03*
%TD*%
D21*
%TO.C,PwL1*%
X71120000Y-53975000D03*
D22*
X63500000Y-53975000D03*
%TD*%
D21*
%TO.C,R1*%
X215250000Y-135890000D03*
D22*
X215250000Y-133350000D03*
%TD*%
D36*
%TO.C,Q26*%
X41550000Y-110520000D03*
D37*
X41550000Y-113060000D03*
X41550000Y-115600000D03*
X49170000Y-115600000D03*
X49170000Y-113060000D03*
X49170000Y-110520000D03*
%TD*%
D21*
%TO.C,R104*%
X36050000Y-122555000D03*
D22*
X33510000Y-122555000D03*
%TD*%
D34*
%TO.C,C16*%
X80550000Y-136525000D03*
D35*
X82550000Y-136525000D03*
%TD*%
D21*
%TO.C,R94*%
X128270000Y-140335000D03*
D22*
X130810000Y-140335000D03*
%TD*%
D21*
%TO.C,C24*%
X113665000Y-116205000D03*
X118665000Y-116205000D03*
%TD*%
%TO.C,R5*%
X212075000Y-135890000D03*
D22*
X212075000Y-133350000D03*
%TD*%
D21*
%TO.C,R12*%
X194930000Y-118745000D03*
D22*
X194930000Y-116205000D03*
%TD*%
D21*
%TO.C,R11*%
X208265000Y-118745000D03*
D22*
X208265000Y-116205000D03*
%TD*%
D21*
%TO.C,R67*%
X130175000Y-136525000D03*
D22*
X127635000Y-136525000D03*
%TD*%
D21*
%TO.C,R68*%
X77470000Y-129540000D03*
D22*
X77470000Y-132080000D03*
%TD*%
D40*
%TO.C,Q17*%
X108185000Y-121285000D03*
D41*
X110255000Y-122555000D03*
X108185000Y-123825000D03*
%TD*%
D21*
%TO.C,R106*%
X36050000Y-106045000D03*
D22*
X33510000Y-106045000D03*
%TD*%
D28*
%TO.C,D24*%
X149225000Y-121840000D03*
D29*
X151765000Y-121840000D03*
%TD*%
D40*
%TO.C,Q13*%
X101835000Y-109855000D03*
D41*
X103905000Y-111125000D03*
X101835000Y-112395000D03*
%TD*%
D23*
%TO.C,C6*%
X199430000Y-76200000D03*
D21*
X201930000Y-76200000D03*
%TD*%
%TO.C,R30*%
X163420000Y-136525000D03*
D22*
X165960000Y-136525000D03*
%TD*%
D38*
%TO.C,PwJ5*%
X49530000Y-41910000D03*
D39*
X46990000Y-41910000D03*
%TD*%
D26*
%TO.C,TM3*%
X86360000Y-109710000D03*
D27*
X83820000Y-109710000D03*
X81280000Y-109710000D03*
%TD*%
D40*
%TO.C,Q20*%
X122320000Y-131445000D03*
D45*
X120250000Y-130175000D03*
X122320000Y-128905000D03*
%TD*%
D21*
%TO.C,R118*%
X59055000Y-107315000D03*
D22*
X56515000Y-107315000D03*
%TD*%
D32*
%TO.C,Q41*%
X186690000Y-77235000D03*
D33*
X187960000Y-75165000D03*
X189230000Y-77235000D03*
%TD*%
D36*
%TO.C,Q22*%
X128157600Y-114300000D03*
D37*
X128157600Y-116840000D03*
X128157600Y-119380000D03*
X135777600Y-119380000D03*
X135777600Y-116840000D03*
X135777600Y-114300000D03*
%TD*%
D21*
%TO.C,PwC4*%
X49610000Y-74295000D03*
X54610000Y-74295000D03*
%TD*%
%TO.C,C10*%
X60365000Y-128270000D03*
X65365000Y-128270000D03*
%TD*%
D40*
%TO.C,Q29*%
X162795000Y-50165000D03*
D41*
X164865000Y-51435000D03*
X162795000Y-52705000D03*
%TD*%
D23*
%TO.C,C62*%
X193635000Y-69380000D03*
D21*
X195635000Y-69380000D03*
%TD*%
D55*
%TO.C,DgS1*%
X100965000Y-46670000D03*
X94465000Y-46670000D03*
X100965000Y-42170000D03*
X94465000Y-42170000D03*
%TD*%
D21*
%TO.C,R29*%
X160245000Y-136525000D03*
D22*
X157705000Y-136525000D03*
%TD*%
D21*
%TO.C,R115*%
X134227600Y-110490000D03*
D22*
X136767600Y-110490000D03*
%TD*%
D21*
%TO.C,R32*%
X217805000Y-90297000D03*
D22*
X217805000Y-92837000D03*
%TD*%
D21*
%TO.C,R95*%
X128270000Y-110490000D03*
D22*
X130810000Y-110490000D03*
%TD*%
D21*
%TO.C,R4*%
X208900000Y-135890000D03*
D22*
X208900000Y-133350000D03*
%TD*%
D51*
%TO.C,VR3*%
X91278300Y-99522500D03*
D52*
X91278300Y-97022500D03*
X91278300Y-94522500D03*
X91278300Y-92022500D03*
D53*
X80278300Y-101572500D03*
X80278300Y-89972500D03*
%TD*%
D28*
%TO.C,D31*%
X166370000Y-40415000D03*
D29*
X166370000Y-37875000D03*
%TD*%
D21*
%TO.C,R2*%
X192390000Y-123825000D03*
D22*
X194930000Y-123825000D03*
%TD*%
D32*
%TO.C,Q37*%
X167005000Y-70885000D03*
D33*
X168275000Y-68815000D03*
X169545000Y-70885000D03*
%TD*%
D21*
%TO.C,R145*%
X173355000Y-69215000D03*
D22*
X175895000Y-69215000D03*
%TD*%
D40*
%TO.C,Q25*%
X61360000Y-123190000D03*
D45*
X59290000Y-121920000D03*
X61360000Y-120650000D03*
%TD*%
D21*
%TO.C,R97*%
X108585000Y-138430000D03*
D22*
X106045000Y-138430000D03*
%TD*%
D21*
%TO.C,R15*%
X207855000Y-109220000D03*
D22*
X210395000Y-109220000D03*
%TD*%
D21*
%TO.C,C21*%
X162745000Y-140335000D03*
X157745000Y-140335000D03*
%TD*%
%TO.C,C27*%
X142875000Y-116840000D03*
X142875000Y-121840000D03*
%TD*%
D56*
%TO.C,PwIC2*%
X30035000Y-71120000D03*
D57*
X46695000Y-73660000D03*
D58*
X46695000Y-71120000D03*
X46695000Y-68580000D03*
%TD*%
D21*
%TO.C,C2*%
X184135000Y-127000000D03*
X189135000Y-127000000D03*
%TD*%
D34*
%TO.C,C28*%
X121825000Y-111125000D03*
D35*
X123825000Y-111125000D03*
%TD*%
D21*
%TO.C,R102*%
X45085000Y-137160000D03*
D22*
X47625000Y-137160000D03*
%TD*%
D21*
%TO.C,R27*%
X173990000Y-123825000D03*
D22*
X171450000Y-123825000D03*
%TD*%
D21*
%TO.C,C18*%
X102155000Y-116205000D03*
X97155000Y-116205000D03*
%TD*%
%TO.C,C12*%
X157295000Y-132080000D03*
X162295000Y-132080000D03*
%TD*%
%TO.C,R146*%
X161290000Y-65405000D03*
D22*
X163830000Y-65405000D03*
%TD*%
D51*
%TO.C,VR5*%
X138915000Y-99495000D03*
D52*
X138915000Y-96995000D03*
X138915000Y-94495000D03*
X138915000Y-91995000D03*
D53*
X127915000Y-101545000D03*
X127915000Y-89945000D03*
%TD*%
D21*
%TO.C,R101*%
X53340000Y-128270000D03*
D22*
X55880000Y-128270000D03*
%TD*%
D21*
%TO.C,R107*%
X162560000Y-40415000D03*
D22*
X162560000Y-37875000D03*
%TD*%
D21*
%TO.C,R96*%
X151130000Y-138350000D03*
D22*
X148590000Y-138350000D03*
%TD*%
D21*
%TO.C,R108*%
X106680000Y-129540000D03*
D22*
X109220000Y-129540000D03*
%TD*%
D49*
%TO.C,DgJ8*%
X80885000Y-34290000D03*
D50*
X88385000Y-34290000D03*
X95885000Y-34290000D03*
X83385000Y-36790000D03*
X93385000Y-36790000D03*
X83385000Y-24390000D03*
X93385000Y-24390000D03*
%TD*%
D21*
%TO.C,R149*%
X165735000Y-78105000D03*
D22*
X165735000Y-75565000D03*
%TD*%
D26*
%TO.C,PwF2*%
X45710000Y-45695000D03*
D27*
X50810000Y-48285000D03*
%TD*%
D59*
%TO.C,PwJ1*%
X42545000Y-32035000D03*
D60*
X42545000Y-26035000D03*
D61*
X37845000Y-29035000D03*
%TD*%
D40*
%TO.C,Q15*%
X101200000Y-121285000D03*
D41*
X103270000Y-122555000D03*
X101200000Y-123825000D03*
%TD*%
D21*
%TO.C,R47*%
X97155000Y-109220000D03*
D22*
X97155000Y-111760000D03*
%TD*%
D21*
%TO.C,PwC1*%
X56555000Y-46990000D03*
X61555000Y-46990000D03*
%TD*%
D28*
%TO.C,D3*%
X171040000Y-136525000D03*
D29*
X168500000Y-136525000D03*
%TD*%
D21*
%TO.C,R72*%
X88900000Y-116840000D03*
D22*
X88900000Y-119380000D03*
%TD*%
D38*
%TO.C,DgJ3*%
X81915000Y-80645000D03*
D39*
X84455000Y-80645000D03*
X86995000Y-80645000D03*
X89535000Y-80645000D03*
%TD*%
D21*
%TO.C,R3*%
X192390000Y-127000000D03*
D22*
X194930000Y-127000000D03*
%TD*%
D21*
%TO.C,R20*%
X211045000Y-83820000D03*
D22*
X213585000Y-83820000D03*
%TD*%
D51*
%TO.C,VR9*%
X216000000Y-61550000D03*
D52*
X216000000Y-59050000D03*
X216000000Y-56550000D03*
X216000000Y-54050000D03*
D53*
X205000000Y-63600000D03*
X205000000Y-52000000D03*
%TD*%
D21*
%TO.C,R19*%
X47752000Y-82550000D03*
D22*
X50292000Y-82550000D03*
%TD*%
D28*
%TO.C,D32*%
X166370000Y-46130000D03*
D29*
X166370000Y-43590000D03*
%TD*%
D32*
%TO.C,Q2*%
X180565000Y-129775000D03*
D46*
X179295000Y-131845000D03*
X178025000Y-129775000D03*
%TD*%
D51*
%TO.C,VR6*%
X162883300Y-99440000D03*
D52*
X162883300Y-96940000D03*
X162883300Y-94440000D03*
X162883300Y-91940000D03*
D53*
X151883300Y-101490000D03*
X151883300Y-89890000D03*
%TD*%
D36*
%TO.C,U3*%
X151115000Y-38110000D03*
D37*
X151115000Y-40650000D03*
X151115000Y-43190000D03*
X151115000Y-45730000D03*
X158735000Y-45730000D03*
X158735000Y-43190000D03*
X158735000Y-40650000D03*
X158735000Y-38110000D03*
%TD*%
D21*
%TO.C,DgR5*%
X132080000Y-74070000D03*
D22*
X132080000Y-71530000D03*
%TD*%
D40*
%TO.C,Q27*%
X55530000Y-116840000D03*
D45*
X53460000Y-115570000D03*
X55530000Y-114300000D03*
%TD*%
D24*
%TO.C,U4*%
X205750000Y-80025000D03*
D25*
X208290000Y-80025000D03*
X210830000Y-80025000D03*
X213370000Y-80025000D03*
X213370000Y-72405000D03*
X210830000Y-72405000D03*
X208290000Y-72405000D03*
X205750000Y-72405000D03*
%TD*%
D40*
%TO.C,Q1*%
X168960000Y-129540000D03*
D41*
X171030000Y-130810000D03*
X168960000Y-132080000D03*
%TD*%
D21*
%TO.C,R110*%
X130175000Y-132715000D03*
D22*
X127635000Y-132715000D03*
%TD*%
D32*
%TO.C,Q40*%
X186690000Y-70885000D03*
D33*
X187960000Y-68815000D03*
X189230000Y-70885000D03*
%TD*%
D38*
%TO.C,J7*%
X158975000Y-113030000D03*
D39*
X161515000Y-113030000D03*
X164055000Y-113030000D03*
%TD*%
D21*
%TO.C,R147*%
X188370000Y-63500000D03*
D22*
X185830000Y-63500000D03*
%TD*%
D21*
%TO.C,R21*%
X162375000Y-128905000D03*
D22*
X164915000Y-128905000D03*
%TD*%
D21*
%TO.C,R116*%
X140560000Y-132715000D03*
D22*
X143100000Y-132715000D03*
%TD*%
D21*
%TO.C,C35*%
X172085000Y-37465000D03*
X172085000Y-42465000D03*
%TD*%
D23*
%TO.C,DgU1*%
X77470000Y-74950000D03*
D22*
X80010000Y-74950000D03*
X82550000Y-74950000D03*
X85090000Y-74950000D03*
X87630000Y-74950000D03*
X90170000Y-74950000D03*
X92710000Y-74950000D03*
X95250000Y-74950000D03*
X97790000Y-74950000D03*
X100330000Y-74950000D03*
X102870000Y-74950000D03*
X105410000Y-74950000D03*
X107950000Y-74950000D03*
X110490000Y-74950000D03*
X113030000Y-74950000D03*
X115570000Y-74950000D03*
X118110000Y-74950000D03*
X120650000Y-74950000D03*
X123190000Y-74950000D03*
X125730000Y-74950000D03*
X125730000Y-57150000D03*
X123190000Y-57150000D03*
X120650000Y-57150000D03*
X118110000Y-57150000D03*
X115570000Y-57150000D03*
X113030000Y-57150000D03*
X110490000Y-57150000D03*
X107950000Y-57150000D03*
X105410000Y-57150000D03*
X102870000Y-57150000D03*
X100330000Y-57150000D03*
X97790000Y-57150000D03*
X95250000Y-57150000D03*
X92710000Y-57150000D03*
X90170000Y-57150000D03*
X87630000Y-57150000D03*
X85090000Y-57150000D03*
X82550000Y-57150000D03*
X80010000Y-57150000D03*
X77470000Y-57150000D03*
%TD*%
D40*
%TO.C,Q16*%
X114060000Y-109855000D03*
D41*
X116130000Y-111125000D03*
X114060000Y-112395000D03*
%TD*%
D21*
%TO.C,R112*%
X112395000Y-129540000D03*
D22*
X114935000Y-129540000D03*
%TD*%
D21*
%TO.C,R23*%
X202550000Y-109220000D03*
D22*
X205090000Y-109220000D03*
%TD*%
D40*
%TO.C,Q19*%
X149460000Y-125015000D03*
D41*
X151530000Y-126285000D03*
X149460000Y-127555000D03*
%TD*%
D32*
%TO.C,Q36*%
X179705000Y-66440000D03*
D33*
X180975000Y-64370000D03*
X182245000Y-66440000D03*
%TD*%
D28*
%TO.C,D25*%
X60325000Y-116840000D03*
D29*
X60325000Y-114300000D03*
%TD*%
D38*
%TO.C,DgJ5*%
X88900000Y-51040000D03*
D39*
X91440000Y-51040000D03*
X93980000Y-51040000D03*
X96520000Y-51040000D03*
X99060000Y-51040000D03*
X101600000Y-51040000D03*
%TD*%
D34*
%TO.C,C11*%
X67215000Y-139065000D03*
D35*
X69215000Y-139065000D03*
%TD*%
D21*
%TO.C,R65*%
X85725000Y-132080000D03*
D22*
X83185000Y-132080000D03*
%TD*%
D62*
%TO.C,PwC2*%
X33827300Y-56515000D03*
D63*
X38827300Y-56515000D03*
%TD*%
D64*
%TO.C,DgR8*%
X108585000Y-40005000D03*
X106585000Y-40005000D03*
%TD*%
D65*
%TO.C,DgR1*%
X88900000Y-71485000D03*
X88900000Y-69485000D03*
%TD*%
D66*
%TO.C,DgC5*%
X81915000Y-65807500D03*
X81915000Y-63732500D03*
%TD*%
D67*
%TO.C,DgR2*%
X84455000Y-70485000D03*
X86455000Y-70485000D03*
%TD*%
D68*
%TO.C,DgU2*%
X75885000Y-62435000D03*
X77785000Y-62435000D03*
X76835000Y-65835000D03*
%TD*%
D69*
%TO.C,DgIC1*%
X84455000Y-61852500D03*
X85725000Y-61852500D03*
X86995000Y-61852500D03*
X88265000Y-61852500D03*
X88265000Y-67302500D03*
X86995000Y-67302500D03*
X85725000Y-67302500D03*
X84455000Y-67302500D03*
%TD*%
D67*
%TO.C,DgR9*%
X111284000Y-39243000D03*
X113284000Y-39243000D03*
%TD*%
%LPD*%
M02*
