G04 #@! TF.GenerationSoftware,KiCad,Pcbnew,8.0.2*
G04 #@! TF.CreationDate,2024-10-15T19:39:21+09:00*
G04 #@! TF.ProjectId,frontPanel,66726f6e-7450-4616-9e65-6c2e6b696361,rev?*
G04 #@! TF.SameCoordinates,Original*
G04 #@! TF.FileFunction,Copper,L2,Bot*
G04 #@! TF.FilePolarity,Positive*
%FSLAX46Y46*%
G04 Gerber Fmt 4.6, Leading zero omitted, Abs format (unit mm)*
G04 Created by KiCad (PCBNEW 8.0.2) date 2024-10-15 19:39:21*
%MOMM*%
%LPD*%
G01*
G04 APERTURE LIST*
G04 Aperture macros list*
%AMRoundRect*
0 Rectangle with rounded corners*
0 $1 Rounding radius*
0 $2 $3 $4 $5 $6 $7 $8 $9 X,Y pos of 4 corners*
0 Add a 4 corners polygon primitive as box body*
4,1,4,$2,$3,$4,$5,$6,$7,$8,$9,$2,$3,0*
0 Add four circle primitives for the rounded corners*
1,1,$1+$1,$2,$3*
1,1,$1+$1,$4,$5*
1,1,$1+$1,$6,$7*
1,1,$1+$1,$8,$9*
0 Add four rect primitives between the rounded corners*
20,1,$1+$1,$2,$3,$4,$5,0*
20,1,$1+$1,$4,$5,$6,$7,0*
20,1,$1+$1,$6,$7,$8,$9,0*
20,1,$1+$1,$8,$9,$2,$3,0*%
G04 Aperture macros list end*
G04 #@! TA.AperFunction,ComponentPad*
%ADD10R,1.500000X1.500000*%
G04 #@! TD*
G04 #@! TA.AperFunction,ComponentPad*
%ADD11C,1.500000*%
G04 #@! TD*
G04 #@! TA.AperFunction,ComponentPad*
%ADD12C,4.350000*%
G04 #@! TD*
G04 #@! TA.AperFunction,ComponentPad*
%ADD13C,1.575000*%
G04 #@! TD*
G04 #@! TA.AperFunction,ComponentPad*
%ADD14R,1.800000X1.800000*%
G04 #@! TD*
G04 #@! TA.AperFunction,ComponentPad*
%ADD15C,1.800000*%
G04 #@! TD*
G04 #@! TA.AperFunction,ComponentPad*
%ADD16C,2.400000*%
G04 #@! TD*
G04 #@! TA.AperFunction,ComponentPad*
%ADD17C,1.635000*%
G04 #@! TD*
G04 #@! TA.AperFunction,ComponentPad*
%ADD18C,4.455000*%
G04 #@! TD*
G04 #@! TA.AperFunction,ComponentPad*
%ADD19R,1.700000X1.700000*%
G04 #@! TD*
G04 #@! TA.AperFunction,ComponentPad*
%ADD20O,1.700000X1.700000*%
G04 #@! TD*
G04 #@! TA.AperFunction,SMDPad,CuDef*
%ADD21RoundRect,0.237500X-0.250000X-0.237500X0.250000X-0.237500X0.250000X0.237500X-0.250000X0.237500X0*%
G04 #@! TD*
G04 #@! TA.AperFunction,SMDPad,CuDef*
%ADD22RoundRect,0.237500X0.250000X0.237500X-0.250000X0.237500X-0.250000X-0.237500X0.250000X-0.237500X0*%
G04 #@! TD*
G04 #@! TA.AperFunction,SMDPad,CuDef*
%ADD23RoundRect,0.225000X0.225000X0.375000X-0.225000X0.375000X-0.225000X-0.375000X0.225000X-0.375000X0*%
G04 #@! TD*
G04 #@! TA.AperFunction,SMDPad,CuDef*
%ADD24R,2.100000X0.650000*%
G04 #@! TD*
G04 #@! TA.AperFunction,SMDPad,CuDef*
%ADD25RoundRect,0.237500X-0.300000X-0.237500X0.300000X-0.237500X0.300000X0.237500X-0.300000X0.237500X0*%
G04 #@! TD*
G04 #@! TA.AperFunction,ViaPad*
%ADD26C,0.600000*%
G04 #@! TD*
G04 #@! TA.AperFunction,Conductor*
%ADD27C,0.200000*%
G04 #@! TD*
G04 APERTURE END LIST*
D10*
X89100000Y-74575000D03*
D11*
X91600000Y-74575000D03*
X94100000Y-74575000D03*
X96600000Y-74575000D03*
D12*
X87050000Y-63575000D03*
X98650000Y-63575000D03*
D13*
X162831000Y-90650000D03*
X156331000Y-90650000D03*
X162831000Y-86150000D03*
X156331000Y-86150000D03*
X94100000Y-127800000D03*
X87600000Y-127800000D03*
X94100000Y-123300000D03*
X87600000Y-123300000D03*
D10*
X26950000Y-74700000D03*
D11*
X29450000Y-74700000D03*
X31950000Y-74700000D03*
X34450000Y-74700000D03*
D12*
X24900000Y-63700000D03*
X36500000Y-63700000D03*
D13*
X104331000Y-90650000D03*
X97831000Y-90650000D03*
X104331000Y-86150000D03*
X97831000Y-86150000D03*
D14*
X100096000Y-80850000D03*
D15*
X102636000Y-80850000D03*
D14*
X72091000Y-98900000D03*
D15*
X74631000Y-98900000D03*
D14*
X40831000Y-99400000D03*
D15*
X43371000Y-99400000D03*
D13*
X130531000Y-90650000D03*
X124031000Y-90650000D03*
X130531000Y-86150000D03*
X124031000Y-86150000D03*
X98200000Y-108700000D03*
X91700000Y-108700000D03*
X98200000Y-104200000D03*
X91700000Y-104200000D03*
X29331000Y-90350000D03*
X22831000Y-90350000D03*
X29331000Y-85850000D03*
X22831000Y-85850000D03*
X126300000Y-127800000D03*
X119800000Y-127800000D03*
X126300000Y-123300000D03*
X119800000Y-123300000D03*
D14*
X46925000Y-117600000D03*
D15*
X49465000Y-117600000D03*
D14*
X52391000Y-80650000D03*
D15*
X54931000Y-80650000D03*
D14*
X36100000Y-117600000D03*
D15*
X38640000Y-117600000D03*
D16*
X155000000Y-38700000D03*
X138700000Y-38700000D03*
X155000000Y-32400000D03*
X138700000Y-32400000D03*
X155000000Y-45000000D03*
X138700000Y-45000000D03*
D13*
X152131000Y-90650000D03*
X145631000Y-90650000D03*
X152131000Y-86150000D03*
X145631000Y-86150000D03*
X141331000Y-90650000D03*
X134831000Y-90650000D03*
X141331000Y-86150000D03*
X134831000Y-86150000D03*
D14*
X132360000Y-117800000D03*
D15*
X134900000Y-117800000D03*
D13*
X56600000Y-90600000D03*
X50100000Y-90600000D03*
X56600000Y-86100000D03*
X50100000Y-86100000D03*
X87500000Y-108700000D03*
X81000000Y-108700000D03*
X87500000Y-104200000D03*
X81000000Y-104200000D03*
D10*
X155450000Y-74400000D03*
D11*
X157950000Y-74400000D03*
X160450000Y-74400000D03*
X162950000Y-74400000D03*
D12*
X153400000Y-63400000D03*
X165000000Y-63400000D03*
D14*
X143560000Y-117700000D03*
D15*
X146100000Y-117700000D03*
D14*
X82956000Y-98900000D03*
D15*
X85496000Y-98900000D03*
D13*
X45700000Y-108700000D03*
X39200000Y-108700000D03*
X45700000Y-104200000D03*
X39200000Y-104200000D03*
D14*
X78825000Y-117900000D03*
D15*
X81365000Y-117900000D03*
D10*
X117950000Y-45700000D03*
D11*
X120450000Y-45700000D03*
X122950000Y-45700000D03*
X125450000Y-45700000D03*
D12*
X115900000Y-34700000D03*
X127500000Y-34700000D03*
D14*
X147391000Y-80850000D03*
D15*
X149931000Y-80850000D03*
D14*
X158831000Y-80850000D03*
D15*
X161371000Y-80850000D03*
D14*
X89331000Y-80850000D03*
D15*
X91871000Y-80850000D03*
D14*
X41391000Y-80650000D03*
D15*
X43931000Y-80650000D03*
D14*
X100225000Y-117900000D03*
D15*
X102765000Y-117900000D03*
D13*
X29835000Y-107800000D03*
X23335000Y-107800000D03*
X29835000Y-103300000D03*
X23335000Y-103300000D03*
X160400000Y-127700000D03*
X153900000Y-127700000D03*
X160400000Y-123200000D03*
X153900000Y-123200000D03*
X147700000Y-127800000D03*
X141200000Y-127800000D03*
X147700000Y-123300000D03*
X141200000Y-123300000D03*
X61900000Y-127790000D03*
X55400000Y-127790000D03*
X61900000Y-123290000D03*
X55400000Y-123290000D03*
D14*
X110631000Y-80850000D03*
D15*
X113171000Y-80850000D03*
D13*
X126400000Y-108600000D03*
X119900000Y-108600000D03*
X126400000Y-104100000D03*
X119900000Y-104100000D03*
X45931000Y-90550000D03*
X39431000Y-90550000D03*
X45931000Y-86050000D03*
X39431000Y-86050000D03*
D14*
X73791000Y-80650000D03*
D15*
X76331000Y-80650000D03*
D14*
X119156000Y-98600000D03*
D15*
X121696000Y-98600000D03*
D17*
X28340000Y-46000000D03*
X30880000Y-46000000D03*
X33420000Y-46000000D03*
X25800000Y-46000000D03*
X35960000Y-46000000D03*
D14*
X57560000Y-117600000D03*
D15*
X60100000Y-117600000D03*
D14*
X132891000Y-98800000D03*
D15*
X135431000Y-98800000D03*
D10*
X129150000Y-74475000D03*
D11*
X131650000Y-74475000D03*
X134150000Y-74475000D03*
X136650000Y-74475000D03*
D12*
X127100000Y-63475000D03*
X138700000Y-63475000D03*
D10*
X47450000Y-74600000D03*
D11*
X49950000Y-74600000D03*
X52450000Y-74600000D03*
X54950000Y-74600000D03*
D12*
X45400000Y-63600000D03*
X57000000Y-63600000D03*
D13*
X56431000Y-108700000D03*
X49931000Y-108700000D03*
X56431000Y-104200000D03*
X49931000Y-104200000D03*
X83300000Y-127800000D03*
X76800000Y-127800000D03*
X83300000Y-123300000D03*
X76800000Y-123300000D03*
X67300000Y-90600000D03*
X60800000Y-90600000D03*
X67300000Y-86100000D03*
X60800000Y-86100000D03*
D14*
X121560000Y-117900000D03*
D15*
X124100000Y-117900000D03*
D10*
X109150000Y-74500000D03*
D11*
X111650000Y-74500000D03*
X114150000Y-74500000D03*
X116650000Y-74500000D03*
D12*
X107100000Y-63500000D03*
X118700000Y-63500000D03*
D14*
X25860000Y-97600000D03*
D15*
X28400000Y-97600000D03*
D13*
X78031000Y-90550000D03*
X71531000Y-90550000D03*
X78031000Y-86050000D03*
X71531000Y-86050000D03*
D14*
X143556000Y-98900000D03*
D15*
X146096000Y-98900000D03*
D14*
X125956000Y-80850000D03*
D15*
X128496000Y-80850000D03*
D14*
X125531000Y-98800000D03*
D15*
X128071000Y-98800000D03*
D13*
X93631000Y-90650000D03*
X87131000Y-90650000D03*
X93631000Y-86150000D03*
X87131000Y-86150000D03*
X76800000Y-108700000D03*
X70300000Y-108700000D03*
X76800000Y-104200000D03*
X70300000Y-104200000D03*
D14*
X89625000Y-117900000D03*
D15*
X92165000Y-117900000D03*
D14*
X136256000Y-80850000D03*
D15*
X138796000Y-80850000D03*
D14*
X62791000Y-80750000D03*
D15*
X65331000Y-80750000D03*
D13*
X72600000Y-127800000D03*
X66100000Y-127800000D03*
X72600000Y-123300000D03*
X66100000Y-123300000D03*
X40480000Y-127790000D03*
X33980000Y-127790000D03*
X40480000Y-123290000D03*
X33980000Y-123290000D03*
D10*
X69200000Y-74300000D03*
D11*
X67200000Y-74300000D03*
X77200000Y-74300000D03*
X71200000Y-74300000D03*
X73200000Y-74300000D03*
X75200000Y-74300000D03*
D18*
X66400000Y-63300000D03*
X78000000Y-63300000D03*
D13*
X115600000Y-127800000D03*
X109100000Y-127800000D03*
X115600000Y-123300000D03*
X109100000Y-123300000D03*
X137000000Y-127800000D03*
X130500000Y-127800000D03*
X137000000Y-123300000D03*
X130500000Y-123300000D03*
D14*
X111125000Y-117800000D03*
D15*
X113665000Y-117800000D03*
D13*
X137100000Y-108600000D03*
X130600000Y-108600000D03*
X137100000Y-104100000D03*
X130600000Y-104100000D03*
D14*
X68225000Y-117600000D03*
D15*
X70765000Y-117600000D03*
D13*
X115031000Y-90650000D03*
X108531000Y-90650000D03*
X115031000Y-86150000D03*
X108531000Y-86150000D03*
X51200000Y-127790000D03*
X44700000Y-127790000D03*
X51200000Y-123290000D03*
X44700000Y-123290000D03*
X160500000Y-108600000D03*
X154000000Y-108600000D03*
X160500000Y-104100000D03*
X154000000Y-104100000D03*
X147800000Y-108600000D03*
X141300000Y-108600000D03*
X147800000Y-104100000D03*
X141300000Y-104100000D03*
D14*
X51656000Y-99100000D03*
D15*
X54196000Y-99100000D03*
D19*
X36940000Y-28560000D03*
D20*
X36940000Y-31100000D03*
X39480000Y-28560000D03*
X39480000Y-31100000D03*
X42020000Y-28560000D03*
X42020000Y-31100000D03*
X44560000Y-28560000D03*
X44560000Y-31100000D03*
X47100000Y-28560000D03*
X47100000Y-31100000D03*
X49640000Y-28560000D03*
X49640000Y-31100000D03*
X52180000Y-28560000D03*
X52180000Y-31100000D03*
X54720000Y-28560000D03*
X54720000Y-31100000D03*
X57260000Y-28560000D03*
X57260000Y-31100000D03*
X59800000Y-28560000D03*
X59800000Y-31100000D03*
X62340000Y-28560000D03*
X62340000Y-31100000D03*
X64880000Y-28560000D03*
X64880000Y-31100000D03*
X67420000Y-28560000D03*
X67420000Y-31100000D03*
X69960000Y-28560000D03*
X69960000Y-31100000D03*
X72500000Y-28560000D03*
X72500000Y-31100000D03*
X75040000Y-28560000D03*
X75040000Y-31100000D03*
X77580000Y-28560000D03*
X77580000Y-31100000D03*
X80120000Y-28560000D03*
X80120000Y-31100000D03*
X82660000Y-28560000D03*
X82660000Y-31100000D03*
X85200000Y-28560000D03*
X85200000Y-31100000D03*
D14*
X93556000Y-98900000D03*
D15*
X96096000Y-98900000D03*
D13*
X104800000Y-127800000D03*
X98300000Y-127800000D03*
X104800000Y-123300000D03*
X98300000Y-123300000D03*
D21*
X103987500Y-48400000D03*
X105812500Y-48400000D03*
D22*
X87075000Y-47305000D03*
X85250000Y-47305000D03*
D21*
X103987500Y-50100000D03*
X105812500Y-50100000D03*
D22*
X87250000Y-53605000D03*
X85425000Y-53605000D03*
D23*
X107162500Y-44500000D03*
X103862500Y-44500000D03*
D22*
X87162500Y-50405000D03*
X85337500Y-50405000D03*
D24*
X99900000Y-36850000D03*
X99900000Y-38120000D03*
X99900000Y-39390000D03*
X99900000Y-40660000D03*
X99900000Y-41930000D03*
X99900000Y-43200000D03*
X99900000Y-44470000D03*
X99900000Y-45740000D03*
X99900000Y-47010000D03*
X99900000Y-48280000D03*
X99900000Y-49550000D03*
X99900000Y-50820000D03*
X99900000Y-52090000D03*
X99900000Y-53360000D03*
X90600000Y-53360000D03*
X90600000Y-52090000D03*
X90600000Y-50820000D03*
X90600000Y-49550000D03*
X90600000Y-48280000D03*
X90600000Y-47010000D03*
X90600000Y-45740000D03*
X90600000Y-44470000D03*
X90600000Y-43200000D03*
X90600000Y-41930000D03*
X90600000Y-40660000D03*
X90600000Y-39390000D03*
X90600000Y-38120000D03*
X90600000Y-36850000D03*
D22*
X87075000Y-45705000D03*
X85250000Y-45705000D03*
D25*
X90075000Y-34400000D03*
X91800000Y-34400000D03*
D22*
X87087500Y-42495000D03*
X85262500Y-42495000D03*
D21*
X103987500Y-53500000D03*
X105812500Y-53500000D03*
D22*
X87087500Y-44105000D03*
X85262500Y-44105000D03*
D23*
X107162500Y-42000000D03*
X103862500Y-42000000D03*
D22*
X87087500Y-48805000D03*
X85262500Y-48805000D03*
D23*
X107162500Y-39500000D03*
X103862500Y-39500000D03*
D21*
X103987500Y-51800000D03*
X105812500Y-51800000D03*
X104000000Y-46700000D03*
X105825000Y-46700000D03*
D22*
X87175000Y-52005000D03*
X85350000Y-52005000D03*
D26*
X91800000Y-25900000D03*
X106800000Y-34700000D03*
X100104000Y-88231200D03*
X95803700Y-47109300D03*
X93192200Y-44556500D03*
X98359400Y-111780300D03*
X92019200Y-110991800D03*
X53648000Y-109157400D03*
X97460500Y-51913800D03*
X92158600Y-45823600D03*
X100890300Y-120065200D03*
X62841900Y-59817200D03*
X82381000Y-46551500D03*
X54608600Y-108892900D03*
X88078800Y-45835800D03*
X47492300Y-60685200D03*
X83076200Y-79639500D03*
X88494900Y-49538600D03*
X91217100Y-62863700D03*
X89742600Y-77974900D03*
X95938700Y-78589000D03*
X61634900Y-61185600D03*
X88606700Y-52169300D03*
X85961100Y-82945500D03*
X101734300Y-79203200D03*
X103283000Y-66652500D03*
X104839600Y-49197600D03*
X103069600Y-47683300D03*
X130897100Y-89350000D03*
X93165500Y-51876800D03*
X79716700Y-69665000D03*
X82729400Y-33049200D03*
X94702900Y-69699900D03*
X79656900Y-67235100D03*
X80185200Y-66069900D03*
X53751000Y-34724900D03*
X73486100Y-64303200D03*
X78304700Y-67654800D03*
X69460000Y-66683300D03*
X77329500Y-43963000D03*
X80614800Y-49012100D03*
X49600500Y-60775500D03*
X58637000Y-101103900D03*
X109317600Y-106751800D03*
X103835400Y-102882600D03*
X101656400Y-52725000D03*
X104347600Y-83177000D03*
D27*
X90075000Y-34400000D02*
X90075000Y-31157800D01*
X90905000Y-36850000D02*
X91951700Y-36850000D01*
X117950000Y-45700000D02*
X116898300Y-45700000D01*
X83317200Y-24400000D02*
X44533900Y-24400000D01*
X90075000Y-31157800D02*
X83317200Y-24400000D01*
X108675000Y-37476700D02*
X116898300Y-45700000D01*
X40750000Y-28978300D02*
X39898300Y-29830000D01*
X44533900Y-24400000D02*
X40750000Y-28183900D01*
X39898300Y-29830000D02*
X39093200Y-29830000D01*
X90905000Y-35230000D02*
X90075000Y-34400000D01*
X39093200Y-29830000D02*
X37823200Y-31100000D01*
X37823200Y-31100000D02*
X36940000Y-31100000D01*
X90600000Y-36850000D02*
X90905000Y-36850000D01*
X92578400Y-37476700D02*
X108675000Y-37476700D01*
X91951700Y-36850000D02*
X92578400Y-37476700D01*
X40750000Y-28183900D02*
X40750000Y-28978300D01*
X90905000Y-36850000D02*
X90905000Y-35230000D01*
X99900000Y-36850000D02*
X94250000Y-36850000D01*
X91800000Y-25900000D02*
X91800000Y-34400000D01*
X104650000Y-36850000D02*
X106800000Y-34700000D01*
X94250000Y-36850000D02*
X91800000Y-34400000D01*
X99900000Y-36850000D02*
X104650000Y-36850000D01*
X133806300Y-79602000D02*
X135054300Y-80850000D01*
X25860000Y-96398300D02*
X40406600Y-81851700D01*
X103862500Y-40058600D02*
X106986800Y-43182900D01*
X125531000Y-98800000D02*
X124329300Y-98800000D01*
X136256000Y-80850000D02*
X135054300Y-80850000D01*
X121560000Y-99837000D02*
X123292300Y-99837000D01*
X103752500Y-39390000D02*
X103862500Y-39500000D01*
X110631000Y-80850000D02*
X110631000Y-83312300D01*
X123292300Y-99837000D02*
X124329300Y-98800000D01*
X25860000Y-97600000D02*
X25860000Y-96398300D01*
X99900000Y-39390000D02*
X103752500Y-39390000D01*
X121203800Y-99837000D02*
X121560000Y-99837000D01*
X125956000Y-79602000D02*
X133806300Y-79602000D01*
X106986800Y-43182900D02*
X107197300Y-43182900D01*
X110631000Y-83312300D02*
X120425900Y-93107200D01*
X116223300Y-52208900D02*
X116223300Y-69869300D01*
X103862500Y-39500000D02*
X103862500Y-40058600D01*
X116223300Y-69869300D02*
X125956000Y-79602000D01*
X120425900Y-93107200D02*
X120425900Y-99059100D01*
X41391000Y-80650000D02*
X41391000Y-81851700D01*
X125956000Y-79602000D02*
X125956000Y-80850000D01*
X40406600Y-81851700D02*
X41391000Y-81851700D01*
X121560000Y-99837000D02*
X121560000Y-116698300D01*
X107197300Y-43182900D02*
X116223300Y-52208900D01*
X121560000Y-117900000D02*
X121560000Y-116698300D01*
X120425900Y-99059100D02*
X121203800Y-99837000D01*
X97055600Y-107555600D02*
X98200000Y-108700000D01*
X97201100Y-126701100D02*
X95198900Y-126701100D01*
X97677800Y-67486200D02*
X97677800Y-77611900D01*
X106259000Y-38596500D02*
X103302600Y-38596500D01*
X97201100Y-126701100D02*
X98300000Y-127800000D01*
X95202000Y-63634000D02*
X95715800Y-64147800D01*
X103135800Y-38763300D02*
X98696200Y-38763300D01*
X97055600Y-101195000D02*
X97055600Y-107555600D01*
X98200000Y-108700000D02*
X97201100Y-109698900D01*
X95715800Y-64147800D02*
X95715800Y-65524200D01*
X96731100Y-78558600D02*
X96731100Y-97476800D01*
X95202000Y-42257500D02*
X95202000Y-63634000D01*
X95715800Y-65524200D02*
X97677800Y-67486200D01*
X97322600Y-100928000D02*
X97055600Y-101195000D01*
X107162500Y-39500000D02*
X106259000Y-38596500D01*
X97322600Y-98068300D02*
X97322600Y-100928000D01*
X95198900Y-126701100D02*
X94100000Y-127800000D01*
X98696200Y-38763300D02*
X95202000Y-42257500D01*
X96731100Y-97476800D02*
X97322600Y-98068300D01*
X103302600Y-38596500D02*
X103135800Y-38763300D01*
X97677800Y-77611900D02*
X96731100Y-78558600D01*
X97201100Y-109698900D02*
X97201100Y-126701100D01*
X99900000Y-40660000D02*
X102522500Y-40660000D01*
X102522500Y-40660000D02*
X103862500Y-42000000D01*
X22228600Y-90952400D02*
X22831000Y-90350000D01*
X138146900Y-109552900D02*
X140192600Y-107507200D01*
X140207200Y-85733500D02*
X140207200Y-107507200D01*
X126111700Y-60949200D02*
X139700100Y-60949200D01*
X23335000Y-107800000D02*
X22228600Y-106693600D01*
X140192600Y-107507200D02*
X140207200Y-107507200D01*
X140053100Y-126653100D02*
X141200000Y-127800000D01*
X140207200Y-107507200D02*
X141300000Y-108600000D01*
X138146900Y-126653100D02*
X137000000Y-127800000D01*
X139700100Y-60949200D02*
X141214300Y-62463400D01*
X138052900Y-109552900D02*
X138146900Y-109552900D01*
X141214300Y-84726400D02*
X140207200Y-85733500D01*
X141214300Y-62463400D02*
X141214300Y-84726400D01*
X119900000Y-108600000D02*
X115031000Y-103731000D01*
X138146900Y-109552900D02*
X138146900Y-126653100D01*
X115031000Y-103731000D02*
X115031000Y-90650000D01*
X22228600Y-106693600D02*
X22228600Y-90952400D01*
X107162500Y-42000000D02*
X126111700Y-60949200D01*
X138146900Y-126653100D02*
X140053100Y-126653100D01*
X137100000Y-108600000D02*
X138052900Y-109552900D01*
X122096200Y-77117800D02*
X122096200Y-88715200D01*
X78031000Y-90550000D02*
X71531000Y-90550000D01*
X107162500Y-44500000D02*
X115800200Y-53137700D01*
X122096200Y-88715200D02*
X124031000Y-90650000D01*
X115800200Y-70821800D02*
X122096200Y-77117800D01*
X115800200Y-53137700D02*
X115800200Y-70821800D01*
X50100000Y-90600000D02*
X56600000Y-90600000D01*
X99900000Y-41930000D02*
X101292500Y-41930000D01*
X101292500Y-41930000D02*
X103862500Y-44500000D01*
X90600000Y-40660000D02*
X91951700Y-40660000D01*
X93192200Y-41900500D02*
X93192200Y-44556500D01*
X96173300Y-65207400D02*
X98860100Y-67894200D01*
X100104000Y-110035700D02*
X98359400Y-111780300D01*
X100104000Y-84220800D02*
X100104000Y-88231200D01*
X98860100Y-67894200D02*
X98860100Y-82976900D01*
X98860100Y-82976900D02*
X100104000Y-84220800D01*
X95803700Y-47109300D02*
X96173300Y-47478900D01*
X100104000Y-88231200D02*
X100104000Y-110035700D01*
X96173300Y-47478900D02*
X96173300Y-65207400D01*
X91951700Y-40660000D02*
X93192200Y-41900500D01*
X94800300Y-65174600D02*
X95304700Y-65679000D01*
X93556000Y-98900000D02*
X93556000Y-112767300D01*
X79464800Y-116058500D02*
X79464800Y-103592900D01*
X94800300Y-41868000D02*
X94800300Y-65174600D01*
X95304700Y-65679000D02*
X95304700Y-95949600D01*
X40831000Y-99400000D02*
X40831000Y-100601700D01*
X93556000Y-112767300D02*
X89625000Y-116698300D01*
X78825000Y-117900000D02*
X78825000Y-116698300D01*
X89625000Y-117900000D02*
X89625000Y-116698300D01*
X93556000Y-98900000D02*
X93556000Y-97698300D01*
X95304700Y-95949600D02*
X93556000Y-97698300D01*
X99900000Y-38120000D02*
X98548300Y-38120000D01*
X82956000Y-98900000D02*
X82956000Y-100101700D01*
X78825000Y-116698300D02*
X79464800Y-116058500D01*
X79464800Y-103592900D02*
X82956000Y-100101700D01*
X36100000Y-105332700D02*
X36100000Y-117600000D01*
X98548300Y-38120000D02*
X94800300Y-41868000D01*
X40831000Y-100601700D02*
X36100000Y-105332700D01*
X92789200Y-103748800D02*
X92354300Y-103313900D01*
X92760300Y-46072800D02*
X92760300Y-45574400D01*
X94720200Y-81999700D02*
X92850000Y-80129500D01*
X92789200Y-110221800D02*
X92789200Y-103748800D01*
X92019200Y-110991800D02*
X92789200Y-110221800D01*
X90600000Y-41930000D02*
X91951700Y-41930000D01*
X43371000Y-103412000D02*
X43371000Y-99400000D01*
X92354300Y-97875000D02*
X94720200Y-95509100D01*
X92563800Y-46269300D02*
X92760300Y-46072800D01*
X92850000Y-74101000D02*
X92563800Y-73814800D01*
X92563800Y-45377900D02*
X92563800Y-42542100D01*
X92850000Y-80129500D02*
X92850000Y-74101000D01*
X92563800Y-73814800D02*
X92563800Y-46269300D01*
X45308100Y-105349100D02*
X43371000Y-103412000D01*
X49839700Y-105349100D02*
X45308100Y-105349100D01*
X92760300Y-45574400D02*
X92563800Y-45377900D01*
X92354300Y-103313900D02*
X92354300Y-97875000D01*
X92563800Y-42542100D02*
X91951700Y-41930000D01*
X53648000Y-109157400D02*
X49839700Y-105349100D01*
X94720200Y-95509100D02*
X94720200Y-81999700D01*
X90600000Y-43200000D02*
X91951700Y-43200000D01*
X91951700Y-43200000D02*
X91951700Y-45616700D01*
X101132600Y-58859300D02*
X101132600Y-79510300D01*
X91951700Y-45616700D02*
X92158600Y-45823600D01*
X101427300Y-119528200D02*
X100890300Y-120065200D01*
X97460500Y-55187200D02*
X101132600Y-58859300D01*
X97460500Y-51913800D02*
X97460500Y-55187200D01*
X101427300Y-79805000D02*
X101427300Y-119528200D01*
X101132600Y-79510300D02*
X101427300Y-79805000D01*
X58065400Y-95552400D02*
X58065400Y-80014500D01*
X54517800Y-99100000D02*
X58065400Y-95552400D01*
X54517800Y-108802100D02*
X54608600Y-108892900D01*
X58065400Y-80014500D02*
X62841900Y-75238000D01*
X87087500Y-42495000D02*
X89062500Y-44470000D01*
X84816100Y-43300000D02*
X86282500Y-43300000D01*
X54517800Y-99100000D02*
X54196000Y-99100000D01*
X86282500Y-43300000D02*
X87087500Y-42495000D01*
X82381000Y-46551500D02*
X82381000Y-45735100D01*
X89062500Y-44470000D02*
X90600000Y-44470000D01*
X54517800Y-99100000D02*
X54517800Y-108802100D01*
X62841900Y-75238000D02*
X62841900Y-59817200D01*
X82381000Y-45735100D02*
X84816100Y-43300000D01*
X41018900Y-83277300D02*
X42661000Y-81635200D01*
X52737600Y-124379200D02*
X57729400Y-119387400D01*
X28400000Y-112795100D02*
X39984100Y-124379200D01*
X42661000Y-77462300D02*
X47924800Y-72198500D01*
X40639800Y-83277300D02*
X41018900Y-83277300D01*
X88722500Y-45740000D02*
X88448600Y-45466000D01*
X39984100Y-124379200D02*
X52737600Y-124379200D01*
X28400000Y-95517100D02*
X40639800Y-83277300D01*
X90600000Y-45740000D02*
X88722500Y-45740000D01*
X47924800Y-61117700D02*
X47492300Y-60685200D01*
X28400000Y-97600000D02*
X28400000Y-95517100D01*
X57729400Y-119387400D02*
X58312600Y-119387400D01*
X88448600Y-45466000D02*
X88078800Y-45835800D01*
X88448600Y-45466000D02*
X87087500Y-44105000D01*
X42661000Y-81635200D02*
X42661000Y-77462300D01*
X28400000Y-97600000D02*
X28400000Y-112795100D01*
X47924800Y-72198500D02*
X47924800Y-61117700D01*
X58312600Y-119387400D02*
X60100000Y-117600000D01*
X72130200Y-124396800D02*
X70765000Y-123031600D01*
X70765000Y-123031600D02*
X70765000Y-117600000D01*
X90531200Y-79510200D02*
X91871000Y-80850000D01*
X89052800Y-112600000D02*
X77256000Y-124396800D01*
X87075000Y-45705000D02*
X88380000Y-47010000D01*
X91871000Y-80850000D02*
X89052800Y-83668200D01*
X89052800Y-83668200D02*
X89052800Y-112600000D01*
X77256000Y-124396800D02*
X72130200Y-124396800D01*
X88380000Y-47010000D02*
X90600000Y-47010000D01*
X90600000Y-47010000D02*
X91951700Y-47010000D01*
X90531200Y-72219800D02*
X90531200Y-79510200D01*
X91951700Y-47010000D02*
X91951700Y-70799300D01*
X91951700Y-70799300D02*
X90531200Y-72219800D01*
X87936500Y-48280000D02*
X87145900Y-47489400D01*
X87075000Y-47418500D02*
X87075000Y-47305000D01*
X74631000Y-98900000D02*
X83076200Y-90454800D01*
X87145900Y-47489400D02*
X86250000Y-48385300D01*
X83076200Y-90454800D02*
X83076200Y-79639500D01*
X86250000Y-48385300D02*
X86250000Y-50796900D01*
X83076200Y-52999700D02*
X83076200Y-79639500D01*
X86250000Y-50796900D02*
X85841900Y-51205000D01*
X84870900Y-51205000D02*
X83076200Y-52999700D01*
X85841900Y-51205000D02*
X84870900Y-51205000D01*
X87145900Y-47489400D02*
X87075000Y-47418500D01*
X90600000Y-48280000D02*
X87936500Y-48280000D01*
X90600000Y-49550000D02*
X89349200Y-49550000D01*
X88048300Y-76280600D02*
X89742600Y-77974900D01*
X88129300Y-85607900D02*
X88600900Y-86079500D01*
X91217100Y-68742600D02*
X88048300Y-71911400D01*
X88600900Y-110664100D02*
X81365000Y-117900000D01*
X89349200Y-49550000D02*
X88506300Y-49550000D01*
X87761300Y-48805000D02*
X87087500Y-48805000D01*
X88494900Y-49538600D02*
X87761300Y-48805000D01*
X89742600Y-77974900D02*
X88129300Y-79588200D01*
X91217100Y-62863700D02*
X91217100Y-68742600D01*
X88506300Y-49550000D02*
X88494900Y-49538600D01*
X88600900Y-86079500D02*
X88600900Y-110664100D01*
X88129300Y-79588200D02*
X88129300Y-85607900D01*
X88048300Y-71911400D02*
X88048300Y-76280600D01*
X87162500Y-50405000D02*
X87324100Y-50566600D01*
X84527200Y-97931200D02*
X84527200Y-60941200D01*
X86315200Y-51575500D02*
X87324100Y-50566600D01*
X86315200Y-59153200D02*
X86315200Y-51575500D01*
X84527200Y-60941200D02*
X86315200Y-59153200D01*
X87324100Y-50566600D02*
X87577500Y-50820000D01*
X85496000Y-98900000D02*
X84527200Y-97931200D01*
X87577500Y-50820000D02*
X90600000Y-50820000D01*
X87175000Y-52005000D02*
X87339300Y-52169300D01*
X61634900Y-62879400D02*
X51375200Y-73139100D01*
X88606700Y-52169300D02*
X89169000Y-52169300D01*
X90600000Y-52090000D02*
X89248300Y-52090000D01*
X92165000Y-117900000D02*
X94825900Y-115239100D01*
X61634900Y-61185600D02*
X61634900Y-62879400D01*
X89169000Y-52169300D02*
X89248300Y-52090000D01*
X87339300Y-52169300D02*
X88606700Y-52169300D01*
X95938700Y-96420600D02*
X95938700Y-78589000D01*
X94825900Y-115239100D02*
X94825900Y-97533400D01*
X51375200Y-73139100D02*
X51375200Y-77094200D01*
X94825900Y-97533400D02*
X95938700Y-96420600D01*
X51375200Y-77094200D02*
X54931000Y-80650000D01*
X89248300Y-53360000D02*
X89163500Y-53444800D01*
X89163500Y-53444800D02*
X89163500Y-53605000D01*
X90600000Y-53360000D02*
X89248300Y-53360000D01*
X89163500Y-53605000D02*
X89163500Y-57196400D01*
X85961100Y-72100900D02*
X85961100Y-82945500D01*
X89163500Y-57196400D02*
X89560500Y-57593400D01*
X89163500Y-53605000D02*
X87250000Y-53605000D01*
X89560500Y-68501500D02*
X85961100Y-72100900D01*
X89560500Y-57593400D02*
X89560500Y-68501500D01*
X103828200Y-66958200D02*
X103884700Y-66901700D01*
X103884700Y-66901700D02*
X103884700Y-53602800D01*
X102259000Y-78680100D02*
X103828200Y-77110900D01*
X102765000Y-117900000D02*
X102765000Y-82420500D01*
X99900000Y-53360000D02*
X103847500Y-53360000D01*
X103844900Y-80266100D02*
X102259000Y-78680100D01*
X103828200Y-77110900D02*
X103828200Y-66958200D01*
X103844900Y-81340600D02*
X103844900Y-80266100D01*
X103847500Y-53360000D02*
X103987500Y-53500000D01*
X102765000Y-82420500D02*
X103844900Y-81340600D01*
X103884700Y-53602800D02*
X103987500Y-53500000D01*
X101735900Y-79203200D02*
X101734300Y-79203200D01*
X102259000Y-78680100D02*
X101735900Y-79203200D01*
X128496000Y-80850000D02*
X132091200Y-84445200D01*
X98548300Y-52090000D02*
X98548300Y-53842000D01*
X134101400Y-94392700D02*
X134101400Y-116821800D01*
X99900000Y-52090000D02*
X98548300Y-52090000D01*
X132091200Y-92382500D02*
X134101400Y-94392700D01*
X119326000Y-124400800D02*
X113665000Y-118739800D01*
X133627500Y-117295700D02*
X133627500Y-121754200D01*
X133627500Y-121754200D02*
X130980900Y-124400800D01*
X113665000Y-118739800D02*
X113665000Y-117800000D01*
X130980900Y-124400800D02*
X119326000Y-124400800D01*
X134101400Y-116821800D02*
X133627500Y-117295700D01*
X103283000Y-58576700D02*
X103283000Y-66652500D01*
X103987500Y-51800000D02*
X103697500Y-52090000D01*
X98548300Y-53842000D02*
X103283000Y-58576700D01*
X132091200Y-84445200D02*
X132091200Y-92382500D01*
X103697500Y-52090000D02*
X99900000Y-52090000D01*
X103987500Y-50100000D02*
X103267500Y-50820000D01*
X103987500Y-50049700D02*
X103987500Y-50100000D01*
X104839600Y-49197600D02*
X103987500Y-50049700D01*
X138796000Y-95435000D02*
X138796000Y-80850000D01*
X103267500Y-50820000D02*
X99900000Y-50820000D01*
X135431000Y-98800000D02*
X138796000Y-95435000D01*
X103412500Y-48026200D02*
X103069600Y-47683300D01*
X103412500Y-48400000D02*
X103987500Y-48400000D01*
X103412500Y-48400000D02*
X103412500Y-48026200D01*
X149931000Y-95065000D02*
X149931000Y-80850000D01*
X146096000Y-98900000D02*
X149931000Y-95065000D01*
X102262500Y-49550000D02*
X103412500Y-48400000D01*
X99900000Y-49550000D02*
X102262500Y-49550000D01*
X128366000Y-89350000D02*
X130897100Y-89350000D01*
X104000000Y-46700000D02*
X102831700Y-46700000D01*
X115400000Y-72267600D02*
X115400000Y-83557100D01*
X121696000Y-91767300D02*
X121696000Y-98600000D01*
X106280300Y-45900000D02*
X110822300Y-50442000D01*
X115400000Y-83557100D02*
X121696000Y-89853100D01*
X110822300Y-67689900D02*
X115400000Y-72267600D01*
X110822300Y-50442000D02*
X110822300Y-67689900D01*
X99900000Y-48280000D02*
X101251700Y-48280000D01*
X104800000Y-45900000D02*
X106280300Y-45900000D01*
X104000000Y-46700000D02*
X104800000Y-45900000D01*
X125948700Y-91767300D02*
X128366000Y-89350000D01*
X102831700Y-46700000D02*
X101251700Y-48280000D01*
X121696000Y-89853100D02*
X121696000Y-91767300D01*
X121696000Y-91767300D02*
X125948700Y-91767300D01*
X45400000Y-63600000D02*
X36600000Y-63600000D01*
X138700000Y-63475000D02*
X127100000Y-63475000D01*
X53856200Y-31100000D02*
X38956200Y-46000000D01*
X36600000Y-63600000D02*
X36500000Y-63700000D01*
X118700000Y-63500000D02*
X127075000Y-63500000D01*
X54720000Y-31100000D02*
X53856200Y-31100000D01*
X38956200Y-46000000D02*
X35960000Y-46000000D01*
X127075000Y-63500000D02*
X127100000Y-63475000D01*
X156600000Y-44650000D02*
X157950000Y-46000000D01*
X155350000Y-44650000D02*
X155000000Y-45000000D01*
X157950000Y-46000000D02*
X157950000Y-74400000D01*
X156600000Y-44650000D02*
X155350000Y-44650000D01*
X93165500Y-51876800D02*
X93165500Y-73640500D01*
X93165500Y-73640500D02*
X94100000Y-74575000D01*
X78931100Y-69665000D02*
X79716700Y-69665000D01*
X75040000Y-32251700D02*
X74160300Y-33131400D01*
X74160300Y-33131400D02*
X74160300Y-64894200D01*
X74160300Y-64894200D02*
X78931100Y-69665000D01*
X75040000Y-31100000D02*
X75040000Y-32251700D01*
X68858300Y-69958300D02*
X73200000Y-74300000D01*
X68960000Y-66332500D02*
X68858300Y-66434200D01*
X68858300Y-66434200D02*
X68858300Y-69958300D01*
X67420000Y-31100000D02*
X67420000Y-32251700D01*
X67420000Y-32251700D02*
X68960000Y-33791700D01*
X68960000Y-33791700D02*
X68960000Y-66332500D01*
X37803800Y-28560000D02*
X42363800Y-24000000D01*
X42363800Y-24000000D02*
X98750000Y-24000000D01*
X98750000Y-24000000D02*
X120450000Y-45700000D01*
X90600000Y-39390000D02*
X89070200Y-39390000D01*
X89070200Y-39390000D02*
X82729400Y-33049200D01*
X70145900Y-32437600D02*
X70145900Y-69245900D01*
X69960000Y-32251700D02*
X70145900Y-32437600D01*
X70145900Y-69245900D02*
X75200000Y-74300000D01*
X69960000Y-31100000D02*
X69960000Y-32251700D01*
X89273400Y-38746700D02*
X83811700Y-33285000D01*
X94398600Y-69395600D02*
X94398600Y-41383600D01*
X83811700Y-30575400D02*
X82948000Y-29711700D01*
X83811700Y-33285000D02*
X83811700Y-30575400D01*
X91761700Y-38746700D02*
X89273400Y-38746700D01*
X94702900Y-69699900D02*
X94398600Y-69395600D01*
X82948000Y-29711700D02*
X82660000Y-29711700D01*
X94398600Y-41383600D02*
X91761700Y-38746700D01*
X82660000Y-28560000D02*
X82660000Y-29711700D01*
X71111700Y-30575400D02*
X71111700Y-68211700D01*
X71111700Y-68211700D02*
X77200000Y-74300000D01*
X69960000Y-29711700D02*
X70248000Y-29711700D01*
X70248000Y-29711700D02*
X71111700Y-30575400D01*
X69960000Y-28560000D02*
X69960000Y-29711700D01*
X79474900Y-67053100D02*
X77501400Y-67053100D01*
X85200000Y-28560000D02*
X84048300Y-28560000D01*
X75049700Y-64601400D02*
X75049700Y-35851800D01*
X82181700Y-27402700D02*
X83178900Y-27402700D01*
X79656900Y-67235100D02*
X79474900Y-67053100D01*
X79701600Y-29830000D02*
X80538300Y-29830000D01*
X75049700Y-35851800D02*
X78753300Y-32148200D01*
X84048300Y-28272100D02*
X84048300Y-28560000D01*
X83178900Y-27402700D02*
X84048300Y-28272100D01*
X81390000Y-28194400D02*
X82181700Y-27402700D01*
X81390000Y-28978300D02*
X81390000Y-28194400D01*
X78753300Y-30778300D02*
X79701600Y-29830000D01*
X80538300Y-29830000D02*
X81390000Y-28978300D01*
X77501400Y-67053100D02*
X75049700Y-64601400D01*
X78753300Y-32148200D02*
X78753300Y-30778300D01*
X80120000Y-32251700D02*
X75461900Y-36909800D01*
X75461900Y-64391000D02*
X77140800Y-66069900D01*
X77140800Y-66069900D02*
X80185200Y-66069900D01*
X80120000Y-31100000D02*
X80120000Y-32251700D01*
X75461900Y-36909800D02*
X75461900Y-64391000D01*
X62340000Y-31100000D02*
X62340000Y-32251700D01*
X62238300Y-64811700D02*
X52450000Y-74600000D01*
X62238300Y-32353400D02*
X62238300Y-64811700D01*
X62340000Y-32251700D02*
X62238300Y-32353400D01*
X38200000Y-44400000D02*
X32480000Y-44400000D01*
X45830000Y-30705900D02*
X46824200Y-29711700D01*
X77580000Y-28560000D02*
X76428300Y-28560000D01*
X48370000Y-28951900D02*
X48370000Y-28193700D01*
X45830000Y-30705900D02*
X45830000Y-36770000D01*
X47610200Y-29711700D02*
X48370000Y-28951900D01*
X48370000Y-28193700D02*
X49161800Y-27401900D01*
X49161800Y-27401900D02*
X75558100Y-27401900D01*
X46824200Y-29711700D02*
X47610200Y-29711700D01*
X30880000Y-46000000D02*
X31308000Y-46000000D01*
X45830000Y-36770000D02*
X38200000Y-44400000D01*
X32480000Y-44400000D02*
X30880000Y-46000000D01*
X75558100Y-27401900D02*
X76428300Y-28272100D01*
X76428300Y-28272100D02*
X76428300Y-28560000D01*
X63728300Y-45088400D02*
X63728300Y-30575400D01*
X63728300Y-30575400D02*
X64592000Y-29711700D01*
X68148300Y-75351700D02*
X66763000Y-75351700D01*
X66763000Y-75351700D02*
X63445500Y-72034200D01*
X64592000Y-29711700D02*
X64880000Y-29711700D01*
X63445500Y-45371200D02*
X63728300Y-45088400D01*
X64880000Y-28560000D02*
X64880000Y-29711700D01*
X69200000Y-74300000D02*
X68148300Y-75351700D01*
X63445500Y-72034200D02*
X63445500Y-45371200D01*
X50975000Y-72653600D02*
X49950000Y-73678600D01*
X59800000Y-32251700D02*
X50975000Y-41076700D01*
X50975000Y-41076700D02*
X50975000Y-72653600D01*
X49950000Y-73678600D02*
X49950000Y-74600000D01*
X59800000Y-31100000D02*
X59800000Y-32251700D01*
X29450000Y-59025900D02*
X53751000Y-34724900D01*
X29450000Y-74700000D02*
X29450000Y-59025900D01*
X72500000Y-31100000D02*
X72500000Y-32251700D01*
X72500000Y-32251700D02*
X73486100Y-33237800D01*
X73486100Y-33237800D02*
X73486100Y-64303200D01*
X64880000Y-59220500D02*
X63864700Y-60235800D01*
X63864700Y-66964700D02*
X71200000Y-74300000D01*
X63864700Y-60235800D02*
X63864700Y-66964700D01*
X64880000Y-31100000D02*
X64880000Y-59220500D01*
X78968300Y-28560000D02*
X78968300Y-28848000D01*
X77508500Y-67654800D02*
X78304700Y-67654800D01*
X74614000Y-34282400D02*
X74614000Y-64760300D01*
X74614000Y-64760300D02*
X77508500Y-67654800D01*
X77279900Y-29711700D02*
X76213300Y-30778300D01*
X78968300Y-28848000D02*
X78104600Y-29711700D01*
X78104600Y-29711700D02*
X77279900Y-29711700D01*
X80120000Y-28560000D02*
X78968300Y-28560000D01*
X76213300Y-30778300D02*
X76213300Y-32683100D01*
X76213300Y-32683100D02*
X74614000Y-34282400D01*
X68571700Y-30575400D02*
X68571700Y-31461700D01*
X67420000Y-28560000D02*
X67420000Y-29711700D01*
X67420000Y-29711700D02*
X67708000Y-29711700D01*
X68571700Y-31461700D02*
X69460000Y-32350000D01*
X69460000Y-32350000D02*
X69460000Y-66683300D01*
X67708000Y-29711700D02*
X68571700Y-30575400D01*
X47450000Y-73548300D02*
X48501000Y-72497300D01*
X57260000Y-31100000D02*
X57260000Y-32251700D01*
X47450000Y-74600000D02*
X47450000Y-73548300D01*
X48501000Y-72497300D02*
X48501000Y-41010700D01*
X48501000Y-41010700D02*
X57260000Y-32251700D01*
X28001700Y-72596600D02*
X26950000Y-73648300D01*
X57260000Y-28560000D02*
X57260000Y-29427300D01*
X55990000Y-30697300D02*
X55990000Y-31473500D01*
X55990000Y-31473500D02*
X28001700Y-59461800D01*
X28001700Y-59461800D02*
X28001700Y-72596600D01*
X26950000Y-73648300D02*
X26950000Y-74700000D01*
X57260000Y-29427300D02*
X55990000Y-30697300D01*
X45300000Y-24800000D02*
X43300000Y-26800000D01*
X40780000Y-29800000D02*
X39480000Y-31100000D01*
X90600000Y-38120000D02*
X89248300Y-38120000D01*
X43300000Y-26800000D02*
X43300000Y-29100000D01*
X87476300Y-29150100D02*
X83126200Y-24800000D01*
X83126200Y-24800000D02*
X45300000Y-24800000D01*
X89248300Y-38120000D02*
X87476300Y-36348000D01*
X87476300Y-36348000D02*
X87476300Y-29150100D01*
X42600000Y-29800000D02*
X40780000Y-29800000D01*
X43300000Y-29100000D02*
X42600000Y-29800000D01*
X78797500Y-42495000D02*
X85262500Y-42495000D01*
X77329500Y-43963000D02*
X78797500Y-42495000D01*
X42046500Y-88665500D02*
X42046500Y-121723500D01*
X45931000Y-86050000D02*
X44662000Y-86050000D01*
X39431000Y-86050000D02*
X42046500Y-88665500D01*
X42046500Y-121723500D02*
X40480000Y-123290000D01*
X44662000Y-86050000D02*
X42046500Y-88665500D01*
X49548300Y-73514400D02*
X48896000Y-74166700D01*
X49600500Y-60775500D02*
X49548300Y-60827700D01*
X50100000Y-86100000D02*
X56600000Y-86100000D01*
X48843300Y-101056700D02*
X45700000Y-104200000D01*
X82982700Y-46800700D02*
X82982700Y-46384800D01*
X48843300Y-87356700D02*
X48843300Y-101056700D01*
X48896000Y-74166700D02*
X48896000Y-84896000D01*
X80614800Y-49012100D02*
X80771300Y-49012100D01*
X49548300Y-60827700D02*
X49548300Y-73514400D01*
X48896000Y-84896000D02*
X50100000Y-86100000D01*
X82982700Y-46384800D02*
X85262500Y-44105000D01*
X50100000Y-86100000D02*
X48843300Y-87356700D01*
X80771300Y-49012100D02*
X82982700Y-46800700D01*
X58560100Y-88339900D02*
X58560100Y-100300200D01*
X80786900Y-72205700D02*
X80786900Y-50168100D01*
X58560100Y-100300200D02*
X58306700Y-100553600D01*
X55319400Y-103761000D02*
X55319400Y-119170600D01*
X58306700Y-100553600D02*
X58306700Y-100773600D01*
X73573600Y-78593100D02*
X74399500Y-78593100D01*
X55319400Y-119170600D02*
X51200000Y-123290000D01*
X58306800Y-100773600D02*
X58637000Y-101103900D01*
X58306700Y-100773600D02*
X58306800Y-100773600D01*
X74399500Y-78593100D02*
X80786900Y-72205700D01*
X67300000Y-84866700D02*
X73573600Y-78593100D01*
X58306800Y-100773600D02*
X55319400Y-103761000D01*
X67300000Y-86100000D02*
X67300000Y-84866700D01*
X80786900Y-50168100D02*
X85250000Y-45705000D01*
X60800000Y-86100000D02*
X58560100Y-88339900D01*
X59238700Y-100944000D02*
X71531000Y-88651700D01*
X71531000Y-88651700D02*
X71531000Y-86050000D01*
X81286600Y-51268400D02*
X85250000Y-47305000D01*
X59238700Y-101392300D02*
X59238700Y-100944000D01*
X109317600Y-106751800D02*
X119800000Y-117234200D01*
X78031000Y-86050000D02*
X81286600Y-82794400D01*
X81286600Y-82794400D02*
X81286600Y-51268400D01*
X56431000Y-104200000D02*
X59238700Y-101392300D01*
X119800000Y-117234200D02*
X119800000Y-123300000D01*
X81961800Y-52105700D02*
X81961800Y-88160400D01*
X131689200Y-109051200D02*
X131689200Y-87308200D01*
X73956100Y-96166100D02*
X72569700Y-96166100D01*
X72569700Y-96166100D02*
X61900000Y-106835800D01*
X130500000Y-123300000D02*
X130500000Y-110240400D01*
X130500000Y-110240400D02*
X131689200Y-109051200D01*
X81961800Y-88160400D02*
X73956100Y-96166100D01*
X61900000Y-106835800D02*
X61900000Y-123290000D01*
X85262500Y-48805000D02*
X81961800Y-52105700D01*
X131689200Y-87308200D02*
X130531000Y-86150000D01*
X144829900Y-122044900D02*
X147229700Y-124444700D01*
X85073100Y-50405000D02*
X82473800Y-53004300D01*
X142420200Y-87239200D02*
X142420200Y-92029000D01*
X73376700Y-122523300D02*
X72600000Y-123300000D01*
X141331000Y-86150000D02*
X142420200Y-87239200D01*
X82473800Y-89301600D02*
X73376700Y-98398700D01*
X144829900Y-94438700D02*
X144829900Y-122044900D01*
X73376700Y-98398700D02*
X73376700Y-122523300D01*
X82473800Y-53004300D02*
X82473800Y-89301600D01*
X147229700Y-124444700D02*
X152655300Y-124444700D01*
X152655300Y-124444700D02*
X153900000Y-123200000D01*
X142420200Y-92029000D02*
X144829900Y-94438700D01*
X85337500Y-50405000D02*
X85073100Y-50405000D01*
X154000000Y-88019000D02*
X152131000Y-86150000D01*
X76800000Y-97445300D02*
X83678600Y-90566700D01*
X154000000Y-104100000D02*
X154000000Y-88019000D01*
X83678600Y-53676400D02*
X85350000Y-52005000D01*
X76800000Y-104200000D02*
X76800000Y-97445300D01*
X83678600Y-90566700D02*
X83678600Y-53676400D01*
X84121400Y-54908600D02*
X85425000Y-53605000D01*
X84121400Y-91163900D02*
X84121400Y-54908600D01*
X76800000Y-111889200D02*
X78898600Y-109790600D01*
X78898600Y-109790600D02*
X78898600Y-96386700D01*
X147700000Y-123300000D02*
X155137800Y-115862200D01*
X155137800Y-87343200D02*
X156331000Y-86150000D01*
X155137800Y-115862200D02*
X155137800Y-87343200D01*
X78898600Y-96386700D02*
X84121400Y-91163900D01*
X76800000Y-123300000D02*
X76800000Y-111889200D01*
X103189100Y-83281300D02*
X104286400Y-82184000D01*
X103189100Y-102236300D02*
X103189100Y-83281300D01*
X104286400Y-82184000D02*
X104286400Y-55026100D01*
X81000000Y-104200000D02*
X87500000Y-104200000D01*
X103835400Y-102882600D02*
X103189100Y-102236300D01*
X104286400Y-55026100D02*
X105812500Y-53500000D01*
X105034900Y-52577600D02*
X101803800Y-52577600D01*
X105812500Y-51800000D02*
X105034900Y-52577600D01*
X26485600Y-85850000D02*
X24658300Y-87677300D01*
X24658300Y-87677300D02*
X24658300Y-109668400D01*
X39809400Y-124819500D02*
X86080500Y-124819500D01*
X22831000Y-85850000D02*
X24658300Y-87677300D01*
X24658300Y-109668400D02*
X39809400Y-124819500D01*
X101803800Y-52577600D02*
X101656400Y-52725000D01*
X86080500Y-124819500D02*
X87600000Y-123300000D01*
X29331000Y-85850000D02*
X26485600Y-85850000D01*
X91700000Y-88081000D02*
X91700000Y-104200000D01*
X105294100Y-82230500D02*
X104347600Y-83177000D01*
X105294100Y-68853500D02*
X105294100Y-82230500D01*
X109606600Y-64541000D02*
X105294100Y-68853500D01*
X105812500Y-50100000D02*
X109606600Y-53894100D01*
X93631000Y-86150000D02*
X91700000Y-88081000D01*
X109606600Y-53894100D02*
X109606600Y-64541000D01*
X106130900Y-84350100D02*
X104331000Y-86150000D01*
X110017400Y-68971600D02*
X106130900Y-72858100D01*
X105494100Y-122605900D02*
X105494100Y-87313100D01*
X110017400Y-52604900D02*
X110017400Y-68971600D01*
X104800000Y-123300000D02*
X105494100Y-122605900D01*
X105494100Y-87313100D02*
X104331000Y-86150000D01*
X106130900Y-72858100D02*
X106130900Y-84350100D01*
X105812500Y-48400000D02*
X110017400Y-52604900D01*
X110419100Y-78767500D02*
X108531000Y-80655600D01*
X105825000Y-46700000D02*
X110419100Y-51294100D01*
X110419100Y-51294100D02*
X110419100Y-78767500D01*
X109621600Y-105222700D02*
X108715900Y-106128400D01*
X108715900Y-122915900D02*
X109100000Y-123300000D01*
X108715900Y-106128400D02*
X108715900Y-122915900D01*
X109621600Y-87240600D02*
X109621600Y-105222700D01*
X108531000Y-80655600D02*
X108531000Y-86150000D01*
X108531000Y-86150000D02*
X109621600Y-87240600D01*
M02*
