G04 #@! TF.GenerationSoftware,KiCad,Pcbnew,8.0.2*
G04 #@! TF.CreationDate,2024-10-15T19:39:21+09:00*
G04 #@! TF.ProjectId,frontPanel,66726f6e-7450-4616-9e65-6c2e6b696361,rev?*
G04 #@! TF.SameCoordinates,Original*
G04 #@! TF.FileFunction,Paste,Bot*
G04 #@! TF.FilePolarity,Positive*
%FSLAX46Y46*%
G04 Gerber Fmt 4.6, Leading zero omitted, Abs format (unit mm)*
G04 Created by KiCad (PCBNEW 8.0.2) date 2024-10-15 19:39:21*
%MOMM*%
%LPD*%
G01*
G04 APERTURE LIST*
G04 Aperture macros list*
%AMRoundRect*
0 Rectangle with rounded corners*
0 $1 Rounding radius*
0 $2 $3 $4 $5 $6 $7 $8 $9 X,Y pos of 4 corners*
0 Add a 4 corners polygon primitive as box body*
4,1,4,$2,$3,$4,$5,$6,$7,$8,$9,$2,$3,0*
0 Add four circle primitives for the rounded corners*
1,1,$1+$1,$2,$3*
1,1,$1+$1,$4,$5*
1,1,$1+$1,$6,$7*
1,1,$1+$1,$8,$9*
0 Add four rect primitives between the rounded corners*
20,1,$1+$1,$2,$3,$4,$5,0*
20,1,$1+$1,$4,$5,$6,$7,0*
20,1,$1+$1,$6,$7,$8,$9,0*
20,1,$1+$1,$8,$9,$2,$3,0*%
G04 Aperture macros list end*
%ADD10RoundRect,0.237500X-0.250000X-0.237500X0.250000X-0.237500X0.250000X0.237500X-0.250000X0.237500X0*%
%ADD11RoundRect,0.237500X0.250000X0.237500X-0.250000X0.237500X-0.250000X-0.237500X0.250000X-0.237500X0*%
%ADD12RoundRect,0.225000X0.225000X0.375000X-0.225000X0.375000X-0.225000X-0.375000X0.225000X-0.375000X0*%
%ADD13R,2.100000X0.650000*%
%ADD14RoundRect,0.237500X-0.300000X-0.237500X0.300000X-0.237500X0.300000X0.237500X-0.300000X0.237500X0*%
G04 APERTURE END LIST*
D10*
X103987500Y-48400000D03*
X105812500Y-48400000D03*
D11*
X87075000Y-47305000D03*
X85250000Y-47305000D03*
D10*
X103987500Y-50100000D03*
X105812500Y-50100000D03*
D11*
X87250000Y-53605000D03*
X85425000Y-53605000D03*
D12*
X107162500Y-44500000D03*
X103862500Y-44500000D03*
D11*
X87162500Y-50405000D03*
X85337500Y-50405000D03*
D13*
X99900000Y-36850000D03*
X99900000Y-38120000D03*
X99900000Y-39390000D03*
X99900000Y-40660000D03*
X99900000Y-41930000D03*
X99900000Y-43200000D03*
X99900000Y-44470000D03*
X99900000Y-45740000D03*
X99900000Y-47010000D03*
X99900000Y-48280000D03*
X99900000Y-49550000D03*
X99900000Y-50820000D03*
X99900000Y-52090000D03*
X99900000Y-53360000D03*
X90600000Y-53360000D03*
X90600000Y-52090000D03*
X90600000Y-50820000D03*
X90600000Y-49550000D03*
X90600000Y-48280000D03*
X90600000Y-47010000D03*
X90600000Y-45740000D03*
X90600000Y-44470000D03*
X90600000Y-43200000D03*
X90600000Y-41930000D03*
X90600000Y-40660000D03*
X90600000Y-39390000D03*
X90600000Y-38120000D03*
X90600000Y-36850000D03*
D11*
X87075000Y-45705000D03*
X85250000Y-45705000D03*
D14*
X90075000Y-34400000D03*
X91800000Y-34400000D03*
D11*
X87087500Y-42495000D03*
X85262500Y-42495000D03*
D10*
X103987500Y-53500000D03*
X105812500Y-53500000D03*
D11*
X87087500Y-44105000D03*
X85262500Y-44105000D03*
D12*
X107162500Y-42000000D03*
X103862500Y-42000000D03*
D11*
X87087500Y-48805000D03*
X85262500Y-48805000D03*
D12*
X107162500Y-39500000D03*
X103862500Y-39500000D03*
D10*
X103987500Y-51800000D03*
X105812500Y-51800000D03*
X104000000Y-46700000D03*
X105825000Y-46700000D03*
D11*
X87175000Y-52005000D03*
X85350000Y-52005000D03*
M02*
