G04 #@! TF.GenerationSoftware,KiCad,Pcbnew,8.0.2*
G04 #@! TF.CreationDate,2024-10-15T19:39:21+09:00*
G04 #@! TF.ProjectId,frontPanel,66726f6e-7450-4616-9e65-6c2e6b696361,rev?*
G04 #@! TF.SameCoordinates,Original*
G04 #@! TF.FileFunction,Soldermask,Top*
G04 #@! TF.FilePolarity,Negative*
%FSLAX46Y46*%
G04 Gerber Fmt 4.6, Leading zero omitted, Abs format (unit mm)*
G04 Created by KiCad (PCBNEW 8.0.2) date 2024-10-15 19:39:21*
%MOMM*%
%LPD*%
G01*
G04 APERTURE LIST*
%ADD10R,1.500000X1.500000*%
%ADD11C,1.500000*%
%ADD12C,4.350000*%
%ADD13C,1.575000*%
%ADD14R,1.800000X1.800000*%
%ADD15C,1.800000*%
%ADD16C,2.400000*%
%ADD17C,1.635000*%
%ADD18C,4.455000*%
%ADD19R,1.700000X1.700000*%
%ADD20O,1.700000X1.700000*%
%ADD21C,0.600000*%
G04 APERTURE END LIST*
D10*
X89100000Y-74575000D03*
D11*
X91600000Y-74575000D03*
X94100000Y-74575000D03*
X96600000Y-74575000D03*
D12*
X87050000Y-63575000D03*
X98650000Y-63575000D03*
D13*
X162831000Y-90650000D03*
X156331000Y-90650000D03*
X162831000Y-86150000D03*
X156331000Y-86150000D03*
X94100000Y-127800000D03*
X87600000Y-127800000D03*
X94100000Y-123300000D03*
X87600000Y-123300000D03*
D10*
X26950000Y-74700000D03*
D11*
X29450000Y-74700000D03*
X31950000Y-74700000D03*
X34450000Y-74700000D03*
D12*
X24900000Y-63700000D03*
X36500000Y-63700000D03*
D13*
X104331000Y-90650000D03*
X97831000Y-90650000D03*
X104331000Y-86150000D03*
X97831000Y-86150000D03*
D14*
X100096000Y-80850000D03*
D15*
X102636000Y-80850000D03*
D14*
X72091000Y-98900000D03*
D15*
X74631000Y-98900000D03*
D14*
X40831000Y-99400000D03*
D15*
X43371000Y-99400000D03*
D13*
X130531000Y-90650000D03*
X124031000Y-90650000D03*
X130531000Y-86150000D03*
X124031000Y-86150000D03*
X98200000Y-108700000D03*
X91700000Y-108700000D03*
X98200000Y-104200000D03*
X91700000Y-104200000D03*
X29331000Y-90350000D03*
X22831000Y-90350000D03*
X29331000Y-85850000D03*
X22831000Y-85850000D03*
X126300000Y-127800000D03*
X119800000Y-127800000D03*
X126300000Y-123300000D03*
X119800000Y-123300000D03*
D14*
X46925000Y-117600000D03*
D15*
X49465000Y-117600000D03*
D14*
X52391000Y-80650000D03*
D15*
X54931000Y-80650000D03*
D14*
X36100000Y-117600000D03*
D15*
X38640000Y-117600000D03*
D16*
X155000000Y-38700000D03*
X138700000Y-38700000D03*
X155000000Y-32400000D03*
X138700000Y-32400000D03*
X155000000Y-45000000D03*
X138700000Y-45000000D03*
D13*
X152131000Y-90650000D03*
X145631000Y-90650000D03*
X152131000Y-86150000D03*
X145631000Y-86150000D03*
X141331000Y-90650000D03*
X134831000Y-90650000D03*
X141331000Y-86150000D03*
X134831000Y-86150000D03*
D14*
X132360000Y-117800000D03*
D15*
X134900000Y-117800000D03*
D13*
X56600000Y-90600000D03*
X50100000Y-90600000D03*
X56600000Y-86100000D03*
X50100000Y-86100000D03*
X87500000Y-108700000D03*
X81000000Y-108700000D03*
X87500000Y-104200000D03*
X81000000Y-104200000D03*
D10*
X155450000Y-74400000D03*
D11*
X157950000Y-74400000D03*
X160450000Y-74400000D03*
X162950000Y-74400000D03*
D12*
X153400000Y-63400000D03*
X165000000Y-63400000D03*
D14*
X143560000Y-117700000D03*
D15*
X146100000Y-117700000D03*
D14*
X82956000Y-98900000D03*
D15*
X85496000Y-98900000D03*
D13*
X45700000Y-108700000D03*
X39200000Y-108700000D03*
X45700000Y-104200000D03*
X39200000Y-104200000D03*
D14*
X78825000Y-117900000D03*
D15*
X81365000Y-117900000D03*
D10*
X117950000Y-45700000D03*
D11*
X120450000Y-45700000D03*
X122950000Y-45700000D03*
X125450000Y-45700000D03*
D12*
X115900000Y-34700000D03*
X127500000Y-34700000D03*
D14*
X147391000Y-80850000D03*
D15*
X149931000Y-80850000D03*
D14*
X158831000Y-80850000D03*
D15*
X161371000Y-80850000D03*
D14*
X89331000Y-80850000D03*
D15*
X91871000Y-80850000D03*
D14*
X41391000Y-80650000D03*
D15*
X43931000Y-80650000D03*
D14*
X100225000Y-117900000D03*
D15*
X102765000Y-117900000D03*
D13*
X29835000Y-107800000D03*
X23335000Y-107800000D03*
X29835000Y-103300000D03*
X23335000Y-103300000D03*
X160400000Y-127700000D03*
X153900000Y-127700000D03*
X160400000Y-123200000D03*
X153900000Y-123200000D03*
X147700000Y-127800000D03*
X141200000Y-127800000D03*
X147700000Y-123300000D03*
X141200000Y-123300000D03*
X61900000Y-127790000D03*
X55400000Y-127790000D03*
X61900000Y-123290000D03*
X55400000Y-123290000D03*
D14*
X110631000Y-80850000D03*
D15*
X113171000Y-80850000D03*
D13*
X126400000Y-108600000D03*
X119900000Y-108600000D03*
X126400000Y-104100000D03*
X119900000Y-104100000D03*
X45931000Y-90550000D03*
X39431000Y-90550000D03*
X45931000Y-86050000D03*
X39431000Y-86050000D03*
D14*
X73791000Y-80650000D03*
D15*
X76331000Y-80650000D03*
D14*
X119156000Y-98600000D03*
D15*
X121696000Y-98600000D03*
D17*
X28340000Y-46000000D03*
X30880000Y-46000000D03*
X33420000Y-46000000D03*
X25800000Y-46000000D03*
X35960000Y-46000000D03*
D14*
X57560000Y-117600000D03*
D15*
X60100000Y-117600000D03*
D14*
X132891000Y-98800000D03*
D15*
X135431000Y-98800000D03*
D10*
X129150000Y-74475000D03*
D11*
X131650000Y-74475000D03*
X134150000Y-74475000D03*
X136650000Y-74475000D03*
D12*
X127100000Y-63475000D03*
X138700000Y-63475000D03*
D10*
X47450000Y-74600000D03*
D11*
X49950000Y-74600000D03*
X52450000Y-74600000D03*
X54950000Y-74600000D03*
D12*
X45400000Y-63600000D03*
X57000000Y-63600000D03*
D13*
X56431000Y-108700000D03*
X49931000Y-108700000D03*
X56431000Y-104200000D03*
X49931000Y-104200000D03*
X83300000Y-127800000D03*
X76800000Y-127800000D03*
X83300000Y-123300000D03*
X76800000Y-123300000D03*
X67300000Y-90600000D03*
X60800000Y-90600000D03*
X67300000Y-86100000D03*
X60800000Y-86100000D03*
D14*
X121560000Y-117900000D03*
D15*
X124100000Y-117900000D03*
D10*
X109150000Y-74500000D03*
D11*
X111650000Y-74500000D03*
X114150000Y-74500000D03*
X116650000Y-74500000D03*
D12*
X107100000Y-63500000D03*
X118700000Y-63500000D03*
D14*
X25860000Y-97600000D03*
D15*
X28400000Y-97600000D03*
D13*
X78031000Y-90550000D03*
X71531000Y-90550000D03*
X78031000Y-86050000D03*
X71531000Y-86050000D03*
D14*
X143556000Y-98900000D03*
D15*
X146096000Y-98900000D03*
D14*
X125956000Y-80850000D03*
D15*
X128496000Y-80850000D03*
D14*
X125531000Y-98800000D03*
D15*
X128071000Y-98800000D03*
D13*
X93631000Y-90650000D03*
X87131000Y-90650000D03*
X93631000Y-86150000D03*
X87131000Y-86150000D03*
X76800000Y-108700000D03*
X70300000Y-108700000D03*
X76800000Y-104200000D03*
X70300000Y-104200000D03*
D14*
X89625000Y-117900000D03*
D15*
X92165000Y-117900000D03*
D14*
X136256000Y-80850000D03*
D15*
X138796000Y-80850000D03*
D14*
X62791000Y-80750000D03*
D15*
X65331000Y-80750000D03*
D13*
X72600000Y-127800000D03*
X66100000Y-127800000D03*
X72600000Y-123300000D03*
X66100000Y-123300000D03*
X40480000Y-127790000D03*
X33980000Y-127790000D03*
X40480000Y-123290000D03*
X33980000Y-123290000D03*
D10*
X69200000Y-74300000D03*
D11*
X67200000Y-74300000D03*
X77200000Y-74300000D03*
X71200000Y-74300000D03*
X73200000Y-74300000D03*
X75200000Y-74300000D03*
D18*
X66400000Y-63300000D03*
X78000000Y-63300000D03*
D13*
X115600000Y-127800000D03*
X109100000Y-127800000D03*
X115600000Y-123300000D03*
X109100000Y-123300000D03*
X137000000Y-127800000D03*
X130500000Y-127800000D03*
X137000000Y-123300000D03*
X130500000Y-123300000D03*
D14*
X111125000Y-117800000D03*
D15*
X113665000Y-117800000D03*
D13*
X137100000Y-108600000D03*
X130600000Y-108600000D03*
X137100000Y-104100000D03*
X130600000Y-104100000D03*
D14*
X68225000Y-117600000D03*
D15*
X70765000Y-117600000D03*
D13*
X115031000Y-90650000D03*
X108531000Y-90650000D03*
X115031000Y-86150000D03*
X108531000Y-86150000D03*
X51200000Y-127790000D03*
X44700000Y-127790000D03*
X51200000Y-123290000D03*
X44700000Y-123290000D03*
X160500000Y-108600000D03*
X154000000Y-108600000D03*
X160500000Y-104100000D03*
X154000000Y-104100000D03*
X147800000Y-108600000D03*
X141300000Y-108600000D03*
X147800000Y-104100000D03*
X141300000Y-104100000D03*
D14*
X51656000Y-99100000D03*
D15*
X54196000Y-99100000D03*
D19*
X36940000Y-28560000D03*
D20*
X36940000Y-31100000D03*
X39480000Y-28560000D03*
X39480000Y-31100000D03*
X42020000Y-28560000D03*
X42020000Y-31100000D03*
X44560000Y-28560000D03*
X44560000Y-31100000D03*
X47100000Y-28560000D03*
X47100000Y-31100000D03*
X49640000Y-28560000D03*
X49640000Y-31100000D03*
X52180000Y-28560000D03*
X52180000Y-31100000D03*
X54720000Y-28560000D03*
X54720000Y-31100000D03*
X57260000Y-28560000D03*
X57260000Y-31100000D03*
X59800000Y-28560000D03*
X59800000Y-31100000D03*
X62340000Y-28560000D03*
X62340000Y-31100000D03*
X64880000Y-28560000D03*
X64880000Y-31100000D03*
X67420000Y-28560000D03*
X67420000Y-31100000D03*
X69960000Y-28560000D03*
X69960000Y-31100000D03*
X72500000Y-28560000D03*
X72500000Y-31100000D03*
X75040000Y-28560000D03*
X75040000Y-31100000D03*
X77580000Y-28560000D03*
X77580000Y-31100000D03*
X80120000Y-28560000D03*
X80120000Y-31100000D03*
X82660000Y-28560000D03*
X82660000Y-31100000D03*
X85200000Y-28560000D03*
X85200000Y-31100000D03*
D14*
X93556000Y-98900000D03*
D15*
X96096000Y-98900000D03*
D13*
X104800000Y-127800000D03*
X98300000Y-127800000D03*
X104800000Y-123300000D03*
X98300000Y-123300000D03*
D21*
X91800000Y-25900000D03*
X106800000Y-34700000D03*
X100104000Y-88231200D03*
X95803700Y-47109300D03*
X93192200Y-44556500D03*
X98359400Y-111780300D03*
X92019200Y-110991800D03*
X53648000Y-109157400D03*
X97460500Y-51913800D03*
X92158600Y-45823600D03*
X100890300Y-120065200D03*
X62841900Y-59817200D03*
X82381000Y-46551500D03*
X54608600Y-108892900D03*
X88078800Y-45835800D03*
X47492300Y-60685200D03*
X83076200Y-79639500D03*
X88494900Y-49538600D03*
X91217100Y-62863700D03*
X89742600Y-77974900D03*
X95938700Y-78589000D03*
X61634900Y-61185600D03*
X88606700Y-52169300D03*
X85961100Y-82945500D03*
X101734300Y-79203200D03*
X103283000Y-66652500D03*
X104839600Y-49197600D03*
X103069600Y-47683300D03*
X130897100Y-89350000D03*
X93165500Y-51876800D03*
X79716700Y-69665000D03*
X82729400Y-33049200D03*
X94702900Y-69699900D03*
X79656900Y-67235100D03*
X80185200Y-66069900D03*
X53751000Y-34724900D03*
X73486100Y-64303200D03*
X78304700Y-67654800D03*
X69460000Y-66683300D03*
X77329500Y-43963000D03*
X80614800Y-49012100D03*
X49600500Y-60775500D03*
X58637000Y-101103900D03*
X109317600Y-106751800D03*
X103835400Y-102882600D03*
X101656400Y-52725000D03*
X104347600Y-83177000D03*
M02*
