G04 #@! TF.GenerationSoftware,KiCad,Pcbnew,8.0.2*
G04 #@! TF.CreationDate,2024-10-15T19:39:21+09:00*
G04 #@! TF.ProjectId,frontPanel,66726f6e-7450-4616-9e65-6c2e6b696361,rev?*
G04 #@! TF.SameCoordinates,Original*
G04 #@! TF.FileFunction,Legend,Bot*
G04 #@! TF.FilePolarity,Positive*
%FSLAX46Y46*%
G04 Gerber Fmt 4.6, Leading zero omitted, Abs format (unit mm)*
G04 Created by KiCad (PCBNEW 8.0.2) date 2024-10-15 19:39:21*
%MOMM*%
%LPD*%
G01*
G04 APERTURE LIST*
G04 Aperture macros list*
%AMRoundRect*
0 Rectangle with rounded corners*
0 $1 Rounding radius*
0 $2 $3 $4 $5 $6 $7 $8 $9 X,Y pos of 4 corners*
0 Add a 4 corners polygon primitive as box body*
4,1,4,$2,$3,$4,$5,$6,$7,$8,$9,$2,$3,0*
0 Add four circle primitives for the rounded corners*
1,1,$1+$1,$2,$3*
1,1,$1+$1,$4,$5*
1,1,$1+$1,$6,$7*
1,1,$1+$1,$8,$9*
0 Add four rect primitives between the rounded corners*
20,1,$1+$1,$2,$3,$4,$5,0*
20,1,$1+$1,$4,$5,$6,$7,0*
20,1,$1+$1,$6,$7,$8,$9,0*
20,1,$1+$1,$8,$9,$2,$3,0*%
G04 Aperture macros list end*
%ADD10C,0.150000*%
%ADD11C,0.254000*%
%ADD12C,0.120000*%
%ADD13C,0.200000*%
%ADD14R,1.500000X1.500000*%
%ADD15C,1.500000*%
%ADD16C,4.350000*%
%ADD17C,1.575000*%
%ADD18R,1.800000X1.800000*%
%ADD19C,1.800000*%
%ADD20C,2.400000*%
%ADD21C,1.635000*%
%ADD22C,4.455000*%
%ADD23R,1.700000X1.700000*%
%ADD24O,1.700000X1.700000*%
%ADD25RoundRect,0.237500X-0.250000X-0.237500X0.250000X-0.237500X0.250000X0.237500X-0.250000X0.237500X0*%
%ADD26RoundRect,0.237500X0.250000X0.237500X-0.250000X0.237500X-0.250000X-0.237500X0.250000X-0.237500X0*%
%ADD27RoundRect,0.225000X0.225000X0.375000X-0.225000X0.375000X-0.225000X-0.375000X0.225000X-0.375000X0*%
%ADD28R,2.100000X0.650000*%
%ADD29RoundRect,0.237500X-0.300000X-0.237500X0.300000X-0.237500X0.300000X0.237500X-0.300000X0.237500X0*%
%ADD30C,0.600000*%
G04 APERTURE END LIST*
D10*
X108755357Y-48964819D02*
X109088690Y-48488628D01*
X109326785Y-48964819D02*
X109326785Y-47964819D01*
X109326785Y-47964819D02*
X108945833Y-47964819D01*
X108945833Y-47964819D02*
X108850595Y-48012438D01*
X108850595Y-48012438D02*
X108802976Y-48060057D01*
X108802976Y-48060057D02*
X108755357Y-48155295D01*
X108755357Y-48155295D02*
X108755357Y-48298152D01*
X108755357Y-48298152D02*
X108802976Y-48393390D01*
X108802976Y-48393390D02*
X108850595Y-48441009D01*
X108850595Y-48441009D02*
X108945833Y-48488628D01*
X108945833Y-48488628D02*
X109326785Y-48488628D01*
X107802976Y-48964819D02*
X108374404Y-48964819D01*
X108088690Y-48964819D02*
X108088690Y-47964819D01*
X108088690Y-47964819D02*
X108183928Y-48107676D01*
X108183928Y-48107676D02*
X108279166Y-48202914D01*
X108279166Y-48202914D02*
X108374404Y-48250533D01*
X107422023Y-48060057D02*
X107374404Y-48012438D01*
X107374404Y-48012438D02*
X107279166Y-47964819D01*
X107279166Y-47964819D02*
X107041071Y-47964819D01*
X107041071Y-47964819D02*
X106945833Y-48012438D01*
X106945833Y-48012438D02*
X106898214Y-48060057D01*
X106898214Y-48060057D02*
X106850595Y-48155295D01*
X106850595Y-48155295D02*
X106850595Y-48250533D01*
X106850595Y-48250533D02*
X106898214Y-48393390D01*
X106898214Y-48393390D02*
X107469642Y-48964819D01*
X107469642Y-48964819D02*
X106850595Y-48964819D01*
X83616666Y-47759819D02*
X83949999Y-47283628D01*
X84188094Y-47759819D02*
X84188094Y-46759819D01*
X84188094Y-46759819D02*
X83807142Y-46759819D01*
X83807142Y-46759819D02*
X83711904Y-46807438D01*
X83711904Y-46807438D02*
X83664285Y-46855057D01*
X83664285Y-46855057D02*
X83616666Y-46950295D01*
X83616666Y-46950295D02*
X83616666Y-47093152D01*
X83616666Y-47093152D02*
X83664285Y-47188390D01*
X83664285Y-47188390D02*
X83711904Y-47236009D01*
X83711904Y-47236009D02*
X83807142Y-47283628D01*
X83807142Y-47283628D02*
X84188094Y-47283628D01*
X82759523Y-47093152D02*
X82759523Y-47759819D01*
X82997618Y-46712200D02*
X83235713Y-47426485D01*
X83235713Y-47426485D02*
X82616666Y-47426485D01*
X108555357Y-50554819D02*
X108888690Y-50078628D01*
X109126785Y-50554819D02*
X109126785Y-49554819D01*
X109126785Y-49554819D02*
X108745833Y-49554819D01*
X108745833Y-49554819D02*
X108650595Y-49602438D01*
X108650595Y-49602438D02*
X108602976Y-49650057D01*
X108602976Y-49650057D02*
X108555357Y-49745295D01*
X108555357Y-49745295D02*
X108555357Y-49888152D01*
X108555357Y-49888152D02*
X108602976Y-49983390D01*
X108602976Y-49983390D02*
X108650595Y-50031009D01*
X108650595Y-50031009D02*
X108745833Y-50078628D01*
X108745833Y-50078628D02*
X109126785Y-50078628D01*
X107602976Y-50554819D02*
X108174404Y-50554819D01*
X107888690Y-50554819D02*
X107888690Y-49554819D01*
X107888690Y-49554819D02*
X107983928Y-49697676D01*
X107983928Y-49697676D02*
X108079166Y-49792914D01*
X108079166Y-49792914D02*
X108174404Y-49840533D01*
X106650595Y-50554819D02*
X107222023Y-50554819D01*
X106936309Y-50554819D02*
X106936309Y-49554819D01*
X106936309Y-49554819D02*
X107031547Y-49697676D01*
X107031547Y-49697676D02*
X107126785Y-49792914D01*
X107126785Y-49792914D02*
X107222023Y-49840533D01*
X83704166Y-54159819D02*
X84037499Y-53683628D01*
X84275594Y-54159819D02*
X84275594Y-53159819D01*
X84275594Y-53159819D02*
X83894642Y-53159819D01*
X83894642Y-53159819D02*
X83799404Y-53207438D01*
X83799404Y-53207438D02*
X83751785Y-53255057D01*
X83751785Y-53255057D02*
X83704166Y-53350295D01*
X83704166Y-53350295D02*
X83704166Y-53493152D01*
X83704166Y-53493152D02*
X83751785Y-53588390D01*
X83751785Y-53588390D02*
X83799404Y-53636009D01*
X83799404Y-53636009D02*
X83894642Y-53683628D01*
X83894642Y-53683628D02*
X84275594Y-53683628D01*
X83132737Y-53588390D02*
X83227975Y-53540771D01*
X83227975Y-53540771D02*
X83275594Y-53493152D01*
X83275594Y-53493152D02*
X83323213Y-53397914D01*
X83323213Y-53397914D02*
X83323213Y-53350295D01*
X83323213Y-53350295D02*
X83275594Y-53255057D01*
X83275594Y-53255057D02*
X83227975Y-53207438D01*
X83227975Y-53207438D02*
X83132737Y-53159819D01*
X83132737Y-53159819D02*
X82942261Y-53159819D01*
X82942261Y-53159819D02*
X82847023Y-53207438D01*
X82847023Y-53207438D02*
X82799404Y-53255057D01*
X82799404Y-53255057D02*
X82751785Y-53350295D01*
X82751785Y-53350295D02*
X82751785Y-53397914D01*
X82751785Y-53397914D02*
X82799404Y-53493152D01*
X82799404Y-53493152D02*
X82847023Y-53540771D01*
X82847023Y-53540771D02*
X82942261Y-53588390D01*
X82942261Y-53588390D02*
X83132737Y-53588390D01*
X83132737Y-53588390D02*
X83227975Y-53636009D01*
X83227975Y-53636009D02*
X83275594Y-53683628D01*
X83275594Y-53683628D02*
X83323213Y-53778866D01*
X83323213Y-53778866D02*
X83323213Y-53969342D01*
X83323213Y-53969342D02*
X83275594Y-54064580D01*
X83275594Y-54064580D02*
X83227975Y-54112200D01*
X83227975Y-54112200D02*
X83132737Y-54159819D01*
X83132737Y-54159819D02*
X82942261Y-54159819D01*
X82942261Y-54159819D02*
X82847023Y-54112200D01*
X82847023Y-54112200D02*
X82799404Y-54064580D01*
X82799404Y-54064580D02*
X82751785Y-53969342D01*
X82751785Y-53969342D02*
X82751785Y-53778866D01*
X82751785Y-53778866D02*
X82799404Y-53683628D01*
X82799404Y-53683628D02*
X82847023Y-53636009D01*
X82847023Y-53636009D02*
X82942261Y-53588390D01*
X109850594Y-45054819D02*
X109850594Y-44054819D01*
X109850594Y-44054819D02*
X109612499Y-44054819D01*
X109612499Y-44054819D02*
X109469642Y-44102438D01*
X109469642Y-44102438D02*
X109374404Y-44197676D01*
X109374404Y-44197676D02*
X109326785Y-44292914D01*
X109326785Y-44292914D02*
X109279166Y-44483390D01*
X109279166Y-44483390D02*
X109279166Y-44626247D01*
X109279166Y-44626247D02*
X109326785Y-44816723D01*
X109326785Y-44816723D02*
X109374404Y-44911961D01*
X109374404Y-44911961D02*
X109469642Y-45007200D01*
X109469642Y-45007200D02*
X109612499Y-45054819D01*
X109612499Y-45054819D02*
X109850594Y-45054819D01*
X108945832Y-44054819D02*
X108326785Y-44054819D01*
X108326785Y-44054819D02*
X108660118Y-44435771D01*
X108660118Y-44435771D02*
X108517261Y-44435771D01*
X108517261Y-44435771D02*
X108422023Y-44483390D01*
X108422023Y-44483390D02*
X108374404Y-44531009D01*
X108374404Y-44531009D02*
X108326785Y-44626247D01*
X108326785Y-44626247D02*
X108326785Y-44864342D01*
X108326785Y-44864342D02*
X108374404Y-44959580D01*
X108374404Y-44959580D02*
X108422023Y-45007200D01*
X108422023Y-45007200D02*
X108517261Y-45054819D01*
X108517261Y-45054819D02*
X108802975Y-45054819D01*
X108802975Y-45054819D02*
X108898213Y-45007200D01*
X108898213Y-45007200D02*
X108945832Y-44959580D01*
X83616666Y-50859819D02*
X83949999Y-50383628D01*
X84188094Y-50859819D02*
X84188094Y-49859819D01*
X84188094Y-49859819D02*
X83807142Y-49859819D01*
X83807142Y-49859819D02*
X83711904Y-49907438D01*
X83711904Y-49907438D02*
X83664285Y-49955057D01*
X83664285Y-49955057D02*
X83616666Y-50050295D01*
X83616666Y-50050295D02*
X83616666Y-50193152D01*
X83616666Y-50193152D02*
X83664285Y-50288390D01*
X83664285Y-50288390D02*
X83711904Y-50336009D01*
X83711904Y-50336009D02*
X83807142Y-50383628D01*
X83807142Y-50383628D02*
X84188094Y-50383628D01*
X82759523Y-49859819D02*
X82949999Y-49859819D01*
X82949999Y-49859819D02*
X83045237Y-49907438D01*
X83045237Y-49907438D02*
X83092856Y-49955057D01*
X83092856Y-49955057D02*
X83188094Y-50097914D01*
X83188094Y-50097914D02*
X83235713Y-50288390D01*
X83235713Y-50288390D02*
X83235713Y-50669342D01*
X83235713Y-50669342D02*
X83188094Y-50764580D01*
X83188094Y-50764580D02*
X83140475Y-50812200D01*
X83140475Y-50812200D02*
X83045237Y-50859819D01*
X83045237Y-50859819D02*
X82854761Y-50859819D01*
X82854761Y-50859819D02*
X82759523Y-50812200D01*
X82759523Y-50812200D02*
X82711904Y-50764580D01*
X82711904Y-50764580D02*
X82664285Y-50669342D01*
X82664285Y-50669342D02*
X82664285Y-50431247D01*
X82664285Y-50431247D02*
X82711904Y-50336009D01*
X82711904Y-50336009D02*
X82759523Y-50288390D01*
X82759523Y-50288390D02*
X82854761Y-50240771D01*
X82854761Y-50240771D02*
X83045237Y-50240771D01*
X83045237Y-50240771D02*
X83140475Y-50288390D01*
X83140475Y-50288390D02*
X83188094Y-50336009D01*
X83188094Y-50336009D02*
X83235713Y-50431247D01*
D11*
X96217619Y-44409318D02*
X96217619Y-45437413D01*
X96217619Y-45437413D02*
X96157142Y-45558365D01*
X96157142Y-45558365D02*
X96096666Y-45618842D01*
X96096666Y-45618842D02*
X95975714Y-45679318D01*
X95975714Y-45679318D02*
X95733809Y-45679318D01*
X95733809Y-45679318D02*
X95612857Y-45618842D01*
X95612857Y-45618842D02*
X95552380Y-45558365D01*
X95552380Y-45558365D02*
X95491904Y-45437413D01*
X95491904Y-45437413D02*
X95491904Y-44409318D01*
X95008095Y-44409318D02*
X94161428Y-44409318D01*
X94161428Y-44409318D02*
X94705714Y-45679318D01*
D10*
X83629166Y-46149819D02*
X83962499Y-45673628D01*
X84200594Y-46149819D02*
X84200594Y-45149819D01*
X84200594Y-45149819D02*
X83819642Y-45149819D01*
X83819642Y-45149819D02*
X83724404Y-45197438D01*
X83724404Y-45197438D02*
X83676785Y-45245057D01*
X83676785Y-45245057D02*
X83629166Y-45340295D01*
X83629166Y-45340295D02*
X83629166Y-45483152D01*
X83629166Y-45483152D02*
X83676785Y-45578390D01*
X83676785Y-45578390D02*
X83724404Y-45626009D01*
X83724404Y-45626009D02*
X83819642Y-45673628D01*
X83819642Y-45673628D02*
X84200594Y-45673628D01*
X83295832Y-45149819D02*
X82676785Y-45149819D01*
X82676785Y-45149819D02*
X83010118Y-45530771D01*
X83010118Y-45530771D02*
X82867261Y-45530771D01*
X82867261Y-45530771D02*
X82772023Y-45578390D01*
X82772023Y-45578390D02*
X82724404Y-45626009D01*
X82724404Y-45626009D02*
X82676785Y-45721247D01*
X82676785Y-45721247D02*
X82676785Y-45959342D01*
X82676785Y-45959342D02*
X82724404Y-46054580D01*
X82724404Y-46054580D02*
X82772023Y-46102200D01*
X82772023Y-46102200D02*
X82867261Y-46149819D01*
X82867261Y-46149819D02*
X83152975Y-46149819D01*
X83152975Y-46149819D02*
X83248213Y-46102200D01*
X83248213Y-46102200D02*
X83295832Y-46054580D01*
X91066666Y-33259580D02*
X91114285Y-33307200D01*
X91114285Y-33307200D02*
X91257142Y-33354819D01*
X91257142Y-33354819D02*
X91352380Y-33354819D01*
X91352380Y-33354819D02*
X91495237Y-33307200D01*
X91495237Y-33307200D02*
X91590475Y-33211961D01*
X91590475Y-33211961D02*
X91638094Y-33116723D01*
X91638094Y-33116723D02*
X91685713Y-32926247D01*
X91685713Y-32926247D02*
X91685713Y-32783390D01*
X91685713Y-32783390D02*
X91638094Y-32592914D01*
X91638094Y-32592914D02*
X91590475Y-32497676D01*
X91590475Y-32497676D02*
X91495237Y-32402438D01*
X91495237Y-32402438D02*
X91352380Y-32354819D01*
X91352380Y-32354819D02*
X91257142Y-32354819D01*
X91257142Y-32354819D02*
X91114285Y-32402438D01*
X91114285Y-32402438D02*
X91066666Y-32450057D01*
X90114285Y-33354819D02*
X90685713Y-33354819D01*
X90399999Y-33354819D02*
X90399999Y-32354819D01*
X90399999Y-32354819D02*
X90495237Y-32497676D01*
X90495237Y-32497676D02*
X90590475Y-32592914D01*
X90590475Y-32592914D02*
X90685713Y-32640533D01*
X83541666Y-42959819D02*
X83874999Y-42483628D01*
X84113094Y-42959819D02*
X84113094Y-41959819D01*
X84113094Y-41959819D02*
X83732142Y-41959819D01*
X83732142Y-41959819D02*
X83636904Y-42007438D01*
X83636904Y-42007438D02*
X83589285Y-42055057D01*
X83589285Y-42055057D02*
X83541666Y-42150295D01*
X83541666Y-42150295D02*
X83541666Y-42293152D01*
X83541666Y-42293152D02*
X83589285Y-42388390D01*
X83589285Y-42388390D02*
X83636904Y-42436009D01*
X83636904Y-42436009D02*
X83732142Y-42483628D01*
X83732142Y-42483628D02*
X84113094Y-42483628D01*
X82589285Y-42959819D02*
X83160713Y-42959819D01*
X82874999Y-42959819D02*
X82874999Y-41959819D01*
X82874999Y-41959819D02*
X82970237Y-42102676D01*
X82970237Y-42102676D02*
X83065475Y-42197914D01*
X83065475Y-42197914D02*
X83160713Y-42245533D01*
X107979166Y-54154819D02*
X108312499Y-53678628D01*
X108550594Y-54154819D02*
X108550594Y-53154819D01*
X108550594Y-53154819D02*
X108169642Y-53154819D01*
X108169642Y-53154819D02*
X108074404Y-53202438D01*
X108074404Y-53202438D02*
X108026785Y-53250057D01*
X108026785Y-53250057D02*
X107979166Y-53345295D01*
X107979166Y-53345295D02*
X107979166Y-53488152D01*
X107979166Y-53488152D02*
X108026785Y-53583390D01*
X108026785Y-53583390D02*
X108074404Y-53631009D01*
X108074404Y-53631009D02*
X108169642Y-53678628D01*
X108169642Y-53678628D02*
X108550594Y-53678628D01*
X107502975Y-54154819D02*
X107312499Y-54154819D01*
X107312499Y-54154819D02*
X107217261Y-54107200D01*
X107217261Y-54107200D02*
X107169642Y-54059580D01*
X107169642Y-54059580D02*
X107074404Y-53916723D01*
X107074404Y-53916723D02*
X107026785Y-53726247D01*
X107026785Y-53726247D02*
X107026785Y-53345295D01*
X107026785Y-53345295D02*
X107074404Y-53250057D01*
X107074404Y-53250057D02*
X107122023Y-53202438D01*
X107122023Y-53202438D02*
X107217261Y-53154819D01*
X107217261Y-53154819D02*
X107407737Y-53154819D01*
X107407737Y-53154819D02*
X107502975Y-53202438D01*
X107502975Y-53202438D02*
X107550594Y-53250057D01*
X107550594Y-53250057D02*
X107598213Y-53345295D01*
X107598213Y-53345295D02*
X107598213Y-53583390D01*
X107598213Y-53583390D02*
X107550594Y-53678628D01*
X107550594Y-53678628D02*
X107502975Y-53726247D01*
X107502975Y-53726247D02*
X107407737Y-53773866D01*
X107407737Y-53773866D02*
X107217261Y-53773866D01*
X107217261Y-53773866D02*
X107122023Y-53726247D01*
X107122023Y-53726247D02*
X107074404Y-53678628D01*
X107074404Y-53678628D02*
X107026785Y-53583390D01*
X83641666Y-44559819D02*
X83974999Y-44083628D01*
X84213094Y-44559819D02*
X84213094Y-43559819D01*
X84213094Y-43559819D02*
X83832142Y-43559819D01*
X83832142Y-43559819D02*
X83736904Y-43607438D01*
X83736904Y-43607438D02*
X83689285Y-43655057D01*
X83689285Y-43655057D02*
X83641666Y-43750295D01*
X83641666Y-43750295D02*
X83641666Y-43893152D01*
X83641666Y-43893152D02*
X83689285Y-43988390D01*
X83689285Y-43988390D02*
X83736904Y-44036009D01*
X83736904Y-44036009D02*
X83832142Y-44083628D01*
X83832142Y-44083628D02*
X84213094Y-44083628D01*
X83260713Y-43655057D02*
X83213094Y-43607438D01*
X83213094Y-43607438D02*
X83117856Y-43559819D01*
X83117856Y-43559819D02*
X82879761Y-43559819D01*
X82879761Y-43559819D02*
X82784523Y-43607438D01*
X82784523Y-43607438D02*
X82736904Y-43655057D01*
X82736904Y-43655057D02*
X82689285Y-43750295D01*
X82689285Y-43750295D02*
X82689285Y-43845533D01*
X82689285Y-43845533D02*
X82736904Y-43988390D01*
X82736904Y-43988390D02*
X83308332Y-44559819D01*
X83308332Y-44559819D02*
X82689285Y-44559819D01*
X109750594Y-42454819D02*
X109750594Y-41454819D01*
X109750594Y-41454819D02*
X109512499Y-41454819D01*
X109512499Y-41454819D02*
X109369642Y-41502438D01*
X109369642Y-41502438D02*
X109274404Y-41597676D01*
X109274404Y-41597676D02*
X109226785Y-41692914D01*
X109226785Y-41692914D02*
X109179166Y-41883390D01*
X109179166Y-41883390D02*
X109179166Y-42026247D01*
X109179166Y-42026247D02*
X109226785Y-42216723D01*
X109226785Y-42216723D02*
X109274404Y-42311961D01*
X109274404Y-42311961D02*
X109369642Y-42407200D01*
X109369642Y-42407200D02*
X109512499Y-42454819D01*
X109512499Y-42454819D02*
X109750594Y-42454819D01*
X108798213Y-41550057D02*
X108750594Y-41502438D01*
X108750594Y-41502438D02*
X108655356Y-41454819D01*
X108655356Y-41454819D02*
X108417261Y-41454819D01*
X108417261Y-41454819D02*
X108322023Y-41502438D01*
X108322023Y-41502438D02*
X108274404Y-41550057D01*
X108274404Y-41550057D02*
X108226785Y-41645295D01*
X108226785Y-41645295D02*
X108226785Y-41740533D01*
X108226785Y-41740533D02*
X108274404Y-41883390D01*
X108274404Y-41883390D02*
X108845832Y-42454819D01*
X108845832Y-42454819D02*
X108226785Y-42454819D01*
X83654166Y-49359819D02*
X83987499Y-48883628D01*
X84225594Y-49359819D02*
X84225594Y-48359819D01*
X84225594Y-48359819D02*
X83844642Y-48359819D01*
X83844642Y-48359819D02*
X83749404Y-48407438D01*
X83749404Y-48407438D02*
X83701785Y-48455057D01*
X83701785Y-48455057D02*
X83654166Y-48550295D01*
X83654166Y-48550295D02*
X83654166Y-48693152D01*
X83654166Y-48693152D02*
X83701785Y-48788390D01*
X83701785Y-48788390D02*
X83749404Y-48836009D01*
X83749404Y-48836009D02*
X83844642Y-48883628D01*
X83844642Y-48883628D02*
X84225594Y-48883628D01*
X82749404Y-48359819D02*
X83225594Y-48359819D01*
X83225594Y-48359819D02*
X83273213Y-48836009D01*
X83273213Y-48836009D02*
X83225594Y-48788390D01*
X83225594Y-48788390D02*
X83130356Y-48740771D01*
X83130356Y-48740771D02*
X82892261Y-48740771D01*
X82892261Y-48740771D02*
X82797023Y-48788390D01*
X82797023Y-48788390D02*
X82749404Y-48836009D01*
X82749404Y-48836009D02*
X82701785Y-48931247D01*
X82701785Y-48931247D02*
X82701785Y-49169342D01*
X82701785Y-49169342D02*
X82749404Y-49264580D01*
X82749404Y-49264580D02*
X82797023Y-49312200D01*
X82797023Y-49312200D02*
X82892261Y-49359819D01*
X82892261Y-49359819D02*
X83130356Y-49359819D01*
X83130356Y-49359819D02*
X83225594Y-49312200D01*
X83225594Y-49312200D02*
X83273213Y-49264580D01*
X109750594Y-39954819D02*
X109750594Y-38954819D01*
X109750594Y-38954819D02*
X109512499Y-38954819D01*
X109512499Y-38954819D02*
X109369642Y-39002438D01*
X109369642Y-39002438D02*
X109274404Y-39097676D01*
X109274404Y-39097676D02*
X109226785Y-39192914D01*
X109226785Y-39192914D02*
X109179166Y-39383390D01*
X109179166Y-39383390D02*
X109179166Y-39526247D01*
X109179166Y-39526247D02*
X109226785Y-39716723D01*
X109226785Y-39716723D02*
X109274404Y-39811961D01*
X109274404Y-39811961D02*
X109369642Y-39907200D01*
X109369642Y-39907200D02*
X109512499Y-39954819D01*
X109512499Y-39954819D02*
X109750594Y-39954819D01*
X108226785Y-39954819D02*
X108798213Y-39954819D01*
X108512499Y-39954819D02*
X108512499Y-38954819D01*
X108512499Y-38954819D02*
X108607737Y-39097676D01*
X108607737Y-39097676D02*
X108702975Y-39192914D01*
X108702975Y-39192914D02*
X108798213Y-39240533D01*
X108630357Y-52354819D02*
X108963690Y-51878628D01*
X109201785Y-52354819D02*
X109201785Y-51354819D01*
X109201785Y-51354819D02*
X108820833Y-51354819D01*
X108820833Y-51354819D02*
X108725595Y-51402438D01*
X108725595Y-51402438D02*
X108677976Y-51450057D01*
X108677976Y-51450057D02*
X108630357Y-51545295D01*
X108630357Y-51545295D02*
X108630357Y-51688152D01*
X108630357Y-51688152D02*
X108677976Y-51783390D01*
X108677976Y-51783390D02*
X108725595Y-51831009D01*
X108725595Y-51831009D02*
X108820833Y-51878628D01*
X108820833Y-51878628D02*
X109201785Y-51878628D01*
X107677976Y-52354819D02*
X108249404Y-52354819D01*
X107963690Y-52354819D02*
X107963690Y-51354819D01*
X107963690Y-51354819D02*
X108058928Y-51497676D01*
X108058928Y-51497676D02*
X108154166Y-51592914D01*
X108154166Y-51592914D02*
X108249404Y-51640533D01*
X107058928Y-51354819D02*
X106963690Y-51354819D01*
X106963690Y-51354819D02*
X106868452Y-51402438D01*
X106868452Y-51402438D02*
X106820833Y-51450057D01*
X106820833Y-51450057D02*
X106773214Y-51545295D01*
X106773214Y-51545295D02*
X106725595Y-51735771D01*
X106725595Y-51735771D02*
X106725595Y-51973866D01*
X106725595Y-51973866D02*
X106773214Y-52164342D01*
X106773214Y-52164342D02*
X106820833Y-52259580D01*
X106820833Y-52259580D02*
X106868452Y-52307200D01*
X106868452Y-52307200D02*
X106963690Y-52354819D01*
X106963690Y-52354819D02*
X107058928Y-52354819D01*
X107058928Y-52354819D02*
X107154166Y-52307200D01*
X107154166Y-52307200D02*
X107201785Y-52259580D01*
X107201785Y-52259580D02*
X107249404Y-52164342D01*
X107249404Y-52164342D02*
X107297023Y-51973866D01*
X107297023Y-51973866D02*
X107297023Y-51735771D01*
X107297023Y-51735771D02*
X107249404Y-51545295D01*
X107249404Y-51545295D02*
X107201785Y-51450057D01*
X107201785Y-51450057D02*
X107154166Y-51402438D01*
X107154166Y-51402438D02*
X107058928Y-51354819D01*
X108767857Y-47274819D02*
X109101190Y-46798628D01*
X109339285Y-47274819D02*
X109339285Y-46274819D01*
X109339285Y-46274819D02*
X108958333Y-46274819D01*
X108958333Y-46274819D02*
X108863095Y-46322438D01*
X108863095Y-46322438D02*
X108815476Y-46370057D01*
X108815476Y-46370057D02*
X108767857Y-46465295D01*
X108767857Y-46465295D02*
X108767857Y-46608152D01*
X108767857Y-46608152D02*
X108815476Y-46703390D01*
X108815476Y-46703390D02*
X108863095Y-46751009D01*
X108863095Y-46751009D02*
X108958333Y-46798628D01*
X108958333Y-46798628D02*
X109339285Y-46798628D01*
X107815476Y-47274819D02*
X108386904Y-47274819D01*
X108101190Y-47274819D02*
X108101190Y-46274819D01*
X108101190Y-46274819D02*
X108196428Y-46417676D01*
X108196428Y-46417676D02*
X108291666Y-46512914D01*
X108291666Y-46512914D02*
X108386904Y-46560533D01*
X107482142Y-46274819D02*
X106863095Y-46274819D01*
X106863095Y-46274819D02*
X107196428Y-46655771D01*
X107196428Y-46655771D02*
X107053571Y-46655771D01*
X107053571Y-46655771D02*
X106958333Y-46703390D01*
X106958333Y-46703390D02*
X106910714Y-46751009D01*
X106910714Y-46751009D02*
X106863095Y-46846247D01*
X106863095Y-46846247D02*
X106863095Y-47084342D01*
X106863095Y-47084342D02*
X106910714Y-47179580D01*
X106910714Y-47179580D02*
X106958333Y-47227200D01*
X106958333Y-47227200D02*
X107053571Y-47274819D01*
X107053571Y-47274819D02*
X107339285Y-47274819D01*
X107339285Y-47274819D02*
X107434523Y-47227200D01*
X107434523Y-47227200D02*
X107482142Y-47179580D01*
X83629166Y-52539819D02*
X83962499Y-52063628D01*
X84200594Y-52539819D02*
X84200594Y-51539819D01*
X84200594Y-51539819D02*
X83819642Y-51539819D01*
X83819642Y-51539819D02*
X83724404Y-51587438D01*
X83724404Y-51587438D02*
X83676785Y-51635057D01*
X83676785Y-51635057D02*
X83629166Y-51730295D01*
X83629166Y-51730295D02*
X83629166Y-51873152D01*
X83629166Y-51873152D02*
X83676785Y-51968390D01*
X83676785Y-51968390D02*
X83724404Y-52016009D01*
X83724404Y-52016009D02*
X83819642Y-52063628D01*
X83819642Y-52063628D02*
X84200594Y-52063628D01*
X83295832Y-51539819D02*
X82629166Y-51539819D01*
X82629166Y-51539819D02*
X83057737Y-52539819D01*
D12*
X105154724Y-47877500D02*
X104645276Y-47877500D01*
X105154724Y-48922500D02*
X104645276Y-48922500D01*
X85907776Y-46782500D02*
X86417224Y-46782500D01*
X85907776Y-47827500D02*
X86417224Y-47827500D01*
X105154724Y-49577500D02*
X104645276Y-49577500D01*
X105154724Y-50622500D02*
X104645276Y-50622500D01*
X86082776Y-53082500D02*
X86592224Y-53082500D01*
X86082776Y-54127500D02*
X86592224Y-54127500D01*
X103862500Y-43500000D02*
X107872500Y-43500000D01*
X103862500Y-45500000D02*
X107872500Y-45500000D01*
X107872500Y-45500000D02*
X107872500Y-43500000D01*
X85995276Y-49882500D02*
X86504724Y-49882500D01*
X85995276Y-50927500D02*
X86504724Y-50927500D01*
D13*
X92000000Y-36153000D02*
X98500000Y-36153000D01*
X92000000Y-54057000D02*
X92000000Y-36153000D01*
X98500000Y-36153000D02*
X98500000Y-54057000D01*
X98500000Y-54057000D02*
X92000000Y-54057000D01*
X98850000Y-36175000D02*
X100950000Y-36175000D01*
D12*
X85907776Y-45182500D02*
X86417224Y-45182500D01*
X85907776Y-46227500D02*
X86417224Y-46227500D01*
X91083767Y-33890000D02*
X90791233Y-33890000D01*
X91083767Y-34910000D02*
X90791233Y-34910000D01*
X85920276Y-41972500D02*
X86429724Y-41972500D01*
X85920276Y-43017500D02*
X86429724Y-43017500D01*
X105154724Y-52977500D02*
X104645276Y-52977500D01*
X105154724Y-54022500D02*
X104645276Y-54022500D01*
X85920276Y-43582500D02*
X86429724Y-43582500D01*
X85920276Y-44627500D02*
X86429724Y-44627500D01*
X103862500Y-41000000D02*
X107872500Y-41000000D01*
X103862500Y-43000000D02*
X107872500Y-43000000D01*
X107872500Y-43000000D02*
X107872500Y-41000000D01*
X85920276Y-48282500D02*
X86429724Y-48282500D01*
X85920276Y-49327500D02*
X86429724Y-49327500D01*
X103862500Y-38500000D02*
X107872500Y-38500000D01*
X103862500Y-40500000D02*
X107872500Y-40500000D01*
X107872500Y-40500000D02*
X107872500Y-38500000D01*
X105154724Y-51277500D02*
X104645276Y-51277500D01*
X105154724Y-52322500D02*
X104645276Y-52322500D01*
X105167224Y-46177500D02*
X104657776Y-46177500D01*
X105167224Y-47222500D02*
X104657776Y-47222500D01*
X86007776Y-51482500D02*
X86517224Y-51482500D01*
X86007776Y-52527500D02*
X86517224Y-52527500D01*
%LPC*%
D14*
X89100000Y-74575000D03*
D15*
X91600000Y-74575000D03*
X94100000Y-74575000D03*
X96600000Y-74575000D03*
D16*
X87050000Y-63575000D03*
X98650000Y-63575000D03*
D17*
X162831000Y-90650000D03*
X156331000Y-90650000D03*
X162831000Y-86150000D03*
X156331000Y-86150000D03*
X94100000Y-127800000D03*
X87600000Y-127800000D03*
X94100000Y-123300000D03*
X87600000Y-123300000D03*
D14*
X26950000Y-74700000D03*
D15*
X29450000Y-74700000D03*
X31950000Y-74700000D03*
X34450000Y-74700000D03*
D16*
X24900000Y-63700000D03*
X36500000Y-63700000D03*
D17*
X104331000Y-90650000D03*
X97831000Y-90650000D03*
X104331000Y-86150000D03*
X97831000Y-86150000D03*
D18*
X100096000Y-80850000D03*
D19*
X102636000Y-80850000D03*
D18*
X72091000Y-98900000D03*
D19*
X74631000Y-98900000D03*
D18*
X40831000Y-99400000D03*
D19*
X43371000Y-99400000D03*
D17*
X130531000Y-90650000D03*
X124031000Y-90650000D03*
X130531000Y-86150000D03*
X124031000Y-86150000D03*
X98200000Y-108700000D03*
X91700000Y-108700000D03*
X98200000Y-104200000D03*
X91700000Y-104200000D03*
X29331000Y-90350000D03*
X22831000Y-90350000D03*
X29331000Y-85850000D03*
X22831000Y-85850000D03*
X126300000Y-127800000D03*
X119800000Y-127800000D03*
X126300000Y-123300000D03*
X119800000Y-123300000D03*
D18*
X46925000Y-117600000D03*
D19*
X49465000Y-117600000D03*
D18*
X52391000Y-80650000D03*
D19*
X54931000Y-80650000D03*
D18*
X36100000Y-117600000D03*
D19*
X38640000Y-117600000D03*
D20*
X155000000Y-38700000D03*
X138700000Y-38700000D03*
X155000000Y-32400000D03*
X138700000Y-32400000D03*
X155000000Y-45000000D03*
X138700000Y-45000000D03*
D17*
X152131000Y-90650000D03*
X145631000Y-90650000D03*
X152131000Y-86150000D03*
X145631000Y-86150000D03*
X141331000Y-90650000D03*
X134831000Y-90650000D03*
X141331000Y-86150000D03*
X134831000Y-86150000D03*
D18*
X132360000Y-117800000D03*
D19*
X134900000Y-117800000D03*
D17*
X56600000Y-90600000D03*
X50100000Y-90600000D03*
X56600000Y-86100000D03*
X50100000Y-86100000D03*
X87500000Y-108700000D03*
X81000000Y-108700000D03*
X87500000Y-104200000D03*
X81000000Y-104200000D03*
D14*
X155450000Y-74400000D03*
D15*
X157950000Y-74400000D03*
X160450000Y-74400000D03*
X162950000Y-74400000D03*
D16*
X153400000Y-63400000D03*
X165000000Y-63400000D03*
D18*
X143560000Y-117700000D03*
D19*
X146100000Y-117700000D03*
D18*
X82956000Y-98900000D03*
D19*
X85496000Y-98900000D03*
D17*
X45700000Y-108700000D03*
X39200000Y-108700000D03*
X45700000Y-104200000D03*
X39200000Y-104200000D03*
D18*
X78825000Y-117900000D03*
D19*
X81365000Y-117900000D03*
D14*
X117950000Y-45700000D03*
D15*
X120450000Y-45700000D03*
X122950000Y-45700000D03*
X125450000Y-45700000D03*
D16*
X115900000Y-34700000D03*
X127500000Y-34700000D03*
D18*
X147391000Y-80850000D03*
D19*
X149931000Y-80850000D03*
D18*
X158831000Y-80850000D03*
D19*
X161371000Y-80850000D03*
D18*
X89331000Y-80850000D03*
D19*
X91871000Y-80850000D03*
D18*
X41391000Y-80650000D03*
D19*
X43931000Y-80650000D03*
D18*
X100225000Y-117900000D03*
D19*
X102765000Y-117900000D03*
D17*
X29835000Y-107800000D03*
X23335000Y-107800000D03*
X29835000Y-103300000D03*
X23335000Y-103300000D03*
X160400000Y-127700000D03*
X153900000Y-127700000D03*
X160400000Y-123200000D03*
X153900000Y-123200000D03*
X147700000Y-127800000D03*
X141200000Y-127800000D03*
X147700000Y-123300000D03*
X141200000Y-123300000D03*
X61900000Y-127790000D03*
X55400000Y-127790000D03*
X61900000Y-123290000D03*
X55400000Y-123290000D03*
D18*
X110631000Y-80850000D03*
D19*
X113171000Y-80850000D03*
D17*
X126400000Y-108600000D03*
X119900000Y-108600000D03*
X126400000Y-104100000D03*
X119900000Y-104100000D03*
X45931000Y-90550000D03*
X39431000Y-90550000D03*
X45931000Y-86050000D03*
X39431000Y-86050000D03*
D18*
X73791000Y-80650000D03*
D19*
X76331000Y-80650000D03*
D18*
X119156000Y-98600000D03*
D19*
X121696000Y-98600000D03*
D21*
X28340000Y-46000000D03*
X30880000Y-46000000D03*
X33420000Y-46000000D03*
X25800000Y-46000000D03*
X35960000Y-46000000D03*
D18*
X57560000Y-117600000D03*
D19*
X60100000Y-117600000D03*
D18*
X132891000Y-98800000D03*
D19*
X135431000Y-98800000D03*
D14*
X129150000Y-74475000D03*
D15*
X131650000Y-74475000D03*
X134150000Y-74475000D03*
X136650000Y-74475000D03*
D16*
X127100000Y-63475000D03*
X138700000Y-63475000D03*
D14*
X47450000Y-74600000D03*
D15*
X49950000Y-74600000D03*
X52450000Y-74600000D03*
X54950000Y-74600000D03*
D16*
X45400000Y-63600000D03*
X57000000Y-63600000D03*
D17*
X56431000Y-108700000D03*
X49931000Y-108700000D03*
X56431000Y-104200000D03*
X49931000Y-104200000D03*
X83300000Y-127800000D03*
X76800000Y-127800000D03*
X83300000Y-123300000D03*
X76800000Y-123300000D03*
X67300000Y-90600000D03*
X60800000Y-90600000D03*
X67300000Y-86100000D03*
X60800000Y-86100000D03*
D18*
X121560000Y-117900000D03*
D19*
X124100000Y-117900000D03*
D14*
X109150000Y-74500000D03*
D15*
X111650000Y-74500000D03*
X114150000Y-74500000D03*
X116650000Y-74500000D03*
D16*
X107100000Y-63500000D03*
X118700000Y-63500000D03*
D18*
X25860000Y-97600000D03*
D19*
X28400000Y-97600000D03*
D17*
X78031000Y-90550000D03*
X71531000Y-90550000D03*
X78031000Y-86050000D03*
X71531000Y-86050000D03*
D18*
X143556000Y-98900000D03*
D19*
X146096000Y-98900000D03*
D18*
X125956000Y-80850000D03*
D19*
X128496000Y-80850000D03*
D18*
X125531000Y-98800000D03*
D19*
X128071000Y-98800000D03*
D17*
X93631000Y-90650000D03*
X87131000Y-90650000D03*
X93631000Y-86150000D03*
X87131000Y-86150000D03*
X76800000Y-108700000D03*
X70300000Y-108700000D03*
X76800000Y-104200000D03*
X70300000Y-104200000D03*
D18*
X89625000Y-117900000D03*
D19*
X92165000Y-117900000D03*
D18*
X136256000Y-80850000D03*
D19*
X138796000Y-80850000D03*
D18*
X62791000Y-80750000D03*
D19*
X65331000Y-80750000D03*
D17*
X72600000Y-127800000D03*
X66100000Y-127800000D03*
X72600000Y-123300000D03*
X66100000Y-123300000D03*
X40480000Y-127790000D03*
X33980000Y-127790000D03*
X40480000Y-123290000D03*
X33980000Y-123290000D03*
D14*
X69200000Y-74300000D03*
D15*
X67200000Y-74300000D03*
X77200000Y-74300000D03*
X71200000Y-74300000D03*
X73200000Y-74300000D03*
X75200000Y-74300000D03*
D22*
X66400000Y-63300000D03*
X78000000Y-63300000D03*
D17*
X115600000Y-127800000D03*
X109100000Y-127800000D03*
X115600000Y-123300000D03*
X109100000Y-123300000D03*
X137000000Y-127800000D03*
X130500000Y-127800000D03*
X137000000Y-123300000D03*
X130500000Y-123300000D03*
D18*
X111125000Y-117800000D03*
D19*
X113665000Y-117800000D03*
D17*
X137100000Y-108600000D03*
X130600000Y-108600000D03*
X137100000Y-104100000D03*
X130600000Y-104100000D03*
D18*
X68225000Y-117600000D03*
D19*
X70765000Y-117600000D03*
D17*
X115031000Y-90650000D03*
X108531000Y-90650000D03*
X115031000Y-86150000D03*
X108531000Y-86150000D03*
X51200000Y-127790000D03*
X44700000Y-127790000D03*
X51200000Y-123290000D03*
X44700000Y-123290000D03*
X160500000Y-108600000D03*
X154000000Y-108600000D03*
X160500000Y-104100000D03*
X154000000Y-104100000D03*
X147800000Y-108600000D03*
X141300000Y-108600000D03*
X147800000Y-104100000D03*
X141300000Y-104100000D03*
D18*
X51656000Y-99100000D03*
D19*
X54196000Y-99100000D03*
D23*
X36940000Y-28560000D03*
D24*
X36940000Y-31100000D03*
X39480000Y-28560000D03*
X39480000Y-31100000D03*
X42020000Y-28560000D03*
X42020000Y-31100000D03*
X44560000Y-28560000D03*
X44560000Y-31100000D03*
X47100000Y-28560000D03*
X47100000Y-31100000D03*
X49640000Y-28560000D03*
X49640000Y-31100000D03*
X52180000Y-28560000D03*
X52180000Y-31100000D03*
X54720000Y-28560000D03*
X54720000Y-31100000D03*
X57260000Y-28560000D03*
X57260000Y-31100000D03*
X59800000Y-28560000D03*
X59800000Y-31100000D03*
X62340000Y-28560000D03*
X62340000Y-31100000D03*
X64880000Y-28560000D03*
X64880000Y-31100000D03*
X67420000Y-28560000D03*
X67420000Y-31100000D03*
X69960000Y-28560000D03*
X69960000Y-31100000D03*
X72500000Y-28560000D03*
X72500000Y-31100000D03*
X75040000Y-28560000D03*
X75040000Y-31100000D03*
X77580000Y-28560000D03*
X77580000Y-31100000D03*
X80120000Y-28560000D03*
X80120000Y-31100000D03*
X82660000Y-28560000D03*
X82660000Y-31100000D03*
X85200000Y-28560000D03*
X85200000Y-31100000D03*
D18*
X93556000Y-98900000D03*
D19*
X96096000Y-98900000D03*
D17*
X104800000Y-127800000D03*
X98300000Y-127800000D03*
X104800000Y-123300000D03*
X98300000Y-123300000D03*
D25*
X103987500Y-48400000D03*
X105812500Y-48400000D03*
D26*
X87075000Y-47305000D03*
X85250000Y-47305000D03*
D25*
X103987500Y-50100000D03*
X105812500Y-50100000D03*
D26*
X87250000Y-53605000D03*
X85425000Y-53605000D03*
D27*
X107162500Y-44500000D03*
X103862500Y-44500000D03*
D26*
X87162500Y-50405000D03*
X85337500Y-50405000D03*
D28*
X99900000Y-36850000D03*
X99900000Y-38120000D03*
X99900000Y-39390000D03*
X99900000Y-40660000D03*
X99900000Y-41930000D03*
X99900000Y-43200000D03*
X99900000Y-44470000D03*
X99900000Y-45740000D03*
X99900000Y-47010000D03*
X99900000Y-48280000D03*
X99900000Y-49550000D03*
X99900000Y-50820000D03*
X99900000Y-52090000D03*
X99900000Y-53360000D03*
X90600000Y-53360000D03*
X90600000Y-52090000D03*
X90600000Y-50820000D03*
X90600000Y-49550000D03*
X90600000Y-48280000D03*
X90600000Y-47010000D03*
X90600000Y-45740000D03*
X90600000Y-44470000D03*
X90600000Y-43200000D03*
X90600000Y-41930000D03*
X90600000Y-40660000D03*
X90600000Y-39390000D03*
X90600000Y-38120000D03*
X90600000Y-36850000D03*
D26*
X87075000Y-45705000D03*
X85250000Y-45705000D03*
D29*
X90075000Y-34400000D03*
X91800000Y-34400000D03*
D26*
X87087500Y-42495000D03*
X85262500Y-42495000D03*
D25*
X103987500Y-53500000D03*
X105812500Y-53500000D03*
D26*
X87087500Y-44105000D03*
X85262500Y-44105000D03*
D27*
X107162500Y-42000000D03*
X103862500Y-42000000D03*
D26*
X87087500Y-48805000D03*
X85262500Y-48805000D03*
D27*
X107162500Y-39500000D03*
X103862500Y-39500000D03*
D25*
X103987500Y-51800000D03*
X105812500Y-51800000D03*
X104000000Y-46700000D03*
X105825000Y-46700000D03*
D26*
X87175000Y-52005000D03*
X85350000Y-52005000D03*
D30*
X91800000Y-25900000D03*
X106800000Y-34700000D03*
X100104000Y-88231200D03*
X95803700Y-47109300D03*
X93192200Y-44556500D03*
X98359400Y-111780300D03*
X92019200Y-110991800D03*
X53648000Y-109157400D03*
X97460500Y-51913800D03*
X92158600Y-45823600D03*
X100890300Y-120065200D03*
X62841900Y-59817200D03*
X82381000Y-46551500D03*
X54608600Y-108892900D03*
X88078800Y-45835800D03*
X47492300Y-60685200D03*
X83076200Y-79639500D03*
X88494900Y-49538600D03*
X91217100Y-62863700D03*
X89742600Y-77974900D03*
X95938700Y-78589000D03*
X61634900Y-61185600D03*
X88606700Y-52169300D03*
X85961100Y-82945500D03*
X101734300Y-79203200D03*
X103283000Y-66652500D03*
X104839600Y-49197600D03*
X103069600Y-47683300D03*
X130897100Y-89350000D03*
X93165500Y-51876800D03*
X79716700Y-69665000D03*
X82729400Y-33049200D03*
X94702900Y-69699900D03*
X79656900Y-67235100D03*
X80185200Y-66069900D03*
X53751000Y-34724900D03*
X73486100Y-64303200D03*
X78304700Y-67654800D03*
X69460000Y-66683300D03*
X77329500Y-43963000D03*
X80614800Y-49012100D03*
X49600500Y-60775500D03*
X58637000Y-101103900D03*
X109317600Y-106751800D03*
X103835400Y-102882600D03*
X101656400Y-52725000D03*
X104347600Y-83177000D03*
%LPD*%
M02*
