M48
; DRILL file {KiCad 8.0.2} date 2024-10-15T19:39:25+0900
; FORMAT={-:-/ absolute / metric / decimal}
; #@! TF.CreationDate,2024-10-15T19:39:25+09:00
; #@! TF.GenerationSoftware,Kicad,Pcbnew,8.0.2
; #@! TF.FileFunction,MixedPlating,1,2
FMAT,2
METRIC
; #@! TA.AperFunction,Plated,PTH,ViaDrill
T1C0.300
; #@! TA.AperFunction,Plated,PTH,ComponentDrill
T2C0.900
; #@! TA.AperFunction,Plated,PTH,ComponentDrill
T3C1.000
; #@! TA.AperFunction,Plated,PTH,ComponentDrill
T4C1.050
; #@! TA.AperFunction,Plated,PTH,ComponentDrill
T5C1.090
; #@! TA.AperFunction,Plated,PTH,ComponentDrill
T6C1.600
; #@! TA.AperFunction,Plated,PTH,ComponentDrill
T7C2.900
; #@! TA.AperFunction,Plated,PTH,ComponentDrill
T8C2.970
%
G90
G05
T1
X47.492Y-60.685
X49.6Y-60.775
X53.648Y-109.157
X53.751Y-34.725
X54.609Y-108.893
X58.637Y-101.104
X61.635Y-61.186
X62.842Y-59.817
X69.46Y-66.683
X73.486Y-64.303
X77.329Y-43.963
X78.305Y-67.655
X79.657Y-67.235
X79.717Y-69.665
X80.185Y-66.07
X80.615Y-49.012
X82.381Y-46.551
X82.729Y-33.049
X83.076Y-79.639
X85.961Y-82.945
X88.079Y-45.836
X88.495Y-49.539
X88.607Y-52.169
X89.743Y-77.975
X91.217Y-62.864
X91.8Y-25.9
X92.019Y-110.992
X92.159Y-45.824
X93.165Y-51.877
X93.192Y-44.556
X94.703Y-69.7
X95.804Y-47.109
X95.939Y-78.589
X97.46Y-51.914
X98.359Y-111.78
X100.104Y-88.231
X100.89Y-120.065
X101.656Y-52.725
X101.734Y-79.203
X103.07Y-47.683
X103.283Y-66.653
X103.835Y-102.883
X104.348Y-83.177
X104.84Y-49.198
X106.8Y-34.7
X109.318Y-106.752
X130.897Y-89.35
T2
X25.86Y-97.6
X28.4Y-97.6
X36.1Y-117.6
X38.64Y-117.6
X40.831Y-99.4
X41.391Y-80.65
X43.371Y-99.4
X43.931Y-80.65
X46.925Y-117.6
X49.465Y-117.6
X51.656Y-99.1
X52.391Y-80.65
X54.196Y-99.1
X54.931Y-80.65
X57.56Y-117.6
X60.1Y-117.6
X62.791Y-80.75
X65.331Y-80.75
X68.225Y-117.6
X70.765Y-117.6
X72.091Y-98.9
X73.791Y-80.65
X74.631Y-98.9
X76.331Y-80.65
X78.825Y-117.9
X81.365Y-117.9
X82.956Y-98.9
X85.496Y-98.9
X89.331Y-80.85
X89.625Y-117.9
X91.871Y-80.85
X92.165Y-117.9
X93.556Y-98.9
X96.096Y-98.9
X100.096Y-80.85
X100.225Y-117.9
X102.636Y-80.85
X102.765Y-117.9
X110.631Y-80.85
X111.125Y-117.8
X113.171Y-80.85
X113.665Y-117.8
X119.156Y-98.6
X121.56Y-117.9
X121.696Y-98.6
X124.1Y-117.9
X125.531Y-98.8
X125.956Y-80.85
X128.071Y-98.8
X128.496Y-80.85
X132.36Y-117.8
X132.891Y-98.8
X134.9Y-117.8
X135.431Y-98.8
X136.256Y-80.85
X138.796Y-80.85
X143.556Y-98.9
X143.56Y-117.7
X146.096Y-98.9
X146.1Y-117.7
X147.391Y-80.85
X149.931Y-80.85
X158.831Y-80.85
X161.371Y-80.85
T3
X26.95Y-74.7
X29.45Y-74.7
X31.95Y-74.7
X34.45Y-74.7
X36.94Y-28.56
X36.94Y-31.1
X39.48Y-28.56
X39.48Y-31.1
X42.02Y-28.56
X42.02Y-31.1
X44.56Y-28.56
X44.56Y-31.1
X47.1Y-28.56
X47.1Y-31.1
X47.45Y-74.6
X49.64Y-28.56
X49.64Y-31.1
X49.95Y-74.6
X52.18Y-28.56
X52.18Y-31.1
X52.45Y-74.6
X54.72Y-28.56
X54.72Y-31.1
X54.95Y-74.6
X57.26Y-28.56
X57.26Y-31.1
X59.8Y-28.56
X59.8Y-31.1
X62.34Y-28.56
X62.34Y-31.1
X64.88Y-28.56
X64.88Y-31.1
X67.2Y-74.3
X67.42Y-28.56
X67.42Y-31.1
X69.2Y-74.3
X69.96Y-28.56
X69.96Y-31.1
X71.2Y-74.3
X72.5Y-28.56
X72.5Y-31.1
X73.2Y-74.3
X75.04Y-28.56
X75.04Y-31.1
X75.2Y-74.3
X77.2Y-74.3
X77.58Y-28.56
X77.58Y-31.1
X80.12Y-28.56
X80.12Y-31.1
X82.66Y-28.56
X82.66Y-31.1
X85.2Y-28.56
X85.2Y-31.1
X89.1Y-74.575
X91.6Y-74.575
X94.1Y-74.575
X96.6Y-74.575
X109.15Y-74.5
X111.65Y-74.5
X114.15Y-74.5
X116.65Y-74.5
X117.95Y-45.7
X120.45Y-45.7
X122.95Y-45.7
X125.45Y-45.7
X129.15Y-74.475
X131.65Y-74.475
X134.15Y-74.475
X136.65Y-74.475
X155.45Y-74.4
X157.95Y-74.4
X160.45Y-74.4
X162.95Y-74.4
T4
X22.831Y-85.85
X22.831Y-90.35
X23.335Y-103.3
X23.335Y-107.8
X29.331Y-85.85
X29.331Y-90.35
X29.835Y-103.3
X29.835Y-107.8
X33.98Y-123.29
X33.98Y-127.79
X39.2Y-104.2
X39.2Y-108.7
X39.431Y-86.05
X39.431Y-90.55
X40.48Y-123.29
X40.48Y-127.79
X44.7Y-123.29
X44.7Y-127.79
X45.7Y-104.2
X45.7Y-108.7
X45.931Y-86.05
X45.931Y-90.55
X49.931Y-104.2
X49.931Y-108.7
X50.1Y-86.1
X50.1Y-90.6
X51.2Y-123.29
X51.2Y-127.79
X55.4Y-123.29
X55.4Y-127.79
X56.431Y-104.2
X56.431Y-108.7
X56.6Y-86.1
X56.6Y-90.6
X60.8Y-86.1
X60.8Y-90.6
X61.9Y-123.29
X61.9Y-127.79
X66.1Y-123.3
X66.1Y-127.8
X67.3Y-86.1
X67.3Y-90.6
X70.3Y-104.2
X70.3Y-108.7
X71.531Y-86.05
X71.531Y-90.55
X72.6Y-123.3
X72.6Y-127.8
X76.8Y-104.2
X76.8Y-108.7
X76.8Y-123.3
X76.8Y-127.8
X78.031Y-86.05
X78.031Y-90.55
X81.0Y-104.2
X81.0Y-108.7
X83.3Y-123.3
X83.3Y-127.8
X87.131Y-86.15
X87.131Y-90.65
X87.5Y-104.2
X87.5Y-108.7
X87.6Y-123.3
X87.6Y-127.8
X91.7Y-104.2
X91.7Y-108.7
X93.631Y-86.15
X93.631Y-90.65
X94.1Y-123.3
X94.1Y-127.8
X97.831Y-86.15
X97.831Y-90.65
X98.2Y-104.2
X98.2Y-108.7
X98.3Y-123.3
X98.3Y-127.8
X104.331Y-86.15
X104.331Y-90.65
X104.8Y-123.3
X104.8Y-127.8
X108.531Y-86.15
X108.531Y-90.65
X109.1Y-123.3
X109.1Y-127.8
X115.031Y-86.15
X115.031Y-90.65
X115.6Y-123.3
X115.6Y-127.8
X119.8Y-123.3
X119.8Y-127.8
X119.9Y-104.1
X119.9Y-108.6
X124.031Y-86.15
X124.031Y-90.65
X126.3Y-123.3
X126.3Y-127.8
X126.4Y-104.1
X126.4Y-108.6
X130.5Y-123.3
X130.5Y-127.8
X130.531Y-86.15
X130.531Y-90.65
X130.6Y-104.1
X130.6Y-108.6
X134.831Y-86.15
X134.831Y-90.65
X137.0Y-123.3
X137.0Y-127.8
X137.1Y-104.1
X137.1Y-108.6
X141.2Y-123.3
X141.2Y-127.8
X141.3Y-104.1
X141.3Y-108.6
X141.331Y-86.15
X141.331Y-90.65
X145.631Y-86.15
X145.631Y-90.65
X147.7Y-123.3
X147.7Y-127.8
X147.8Y-104.1
X147.8Y-108.6
X152.131Y-86.15
X152.131Y-90.65
X153.9Y-123.2
X153.9Y-127.7
X154.0Y-104.1
X154.0Y-108.6
X156.331Y-86.15
X156.331Y-90.65
X160.4Y-123.2
X160.4Y-127.7
X160.5Y-104.1
X160.5Y-108.6
X162.831Y-86.15
X162.831Y-90.65
T5
X25.8Y-46.0
X28.34Y-46.0
X30.88Y-46.0
X33.42Y-46.0
X35.96Y-46.0
T6
X138.7Y-32.4
X138.7Y-38.7
X138.7Y-45.0
X155.0Y-32.4
X155.0Y-38.7
X155.0Y-45.0
T7
X24.9Y-63.7
X36.5Y-63.7
X45.4Y-63.6
X57.0Y-63.6
X87.05Y-63.575
X98.65Y-63.575
X107.1Y-63.5
X115.9Y-34.7
X118.7Y-63.5
X127.1Y-63.475
X127.5Y-34.7
X138.7Y-63.475
X153.4Y-63.4
X165.0Y-63.4
T8
X66.4Y-63.3
X78.0Y-63.3
M30
