%TF.GenerationSoftware,KiCad,Pcbnew,8.0.2*%
%TF.CreationDate,2024-10-15T19:39:27+09:00*%
%TF.ProjectId,frontPanel,66726f6e-7450-4616-9e65-6c2e6b696361,rev?*%
%TF.SameCoordinates,Original*%
%TF.FileFunction,Drillmap*%
%TF.FilePolarity,Positive*%
%FSLAX45Y45*%
G04 Gerber Fmt 4.5, Leading zero omitted, Abs format (unit mm)*
G04 Created by KiCad (PCBNEW 8.0.2) date 2024-10-15 19:39:27*
%MOMM*%
%LPD*%
G01*
G04 APERTURE LIST*
%ADD10C,0.100000*%
%ADD11C,0.050000*%
%ADD12C,0.200000*%
%ADD13C,0.105000*%
%ADD14C,0.109000*%
%ADD15C,0.160000*%
%ADD16C,0.290000*%
%ADD17C,0.297000*%
G04 APERTURE END LIST*
D10*
X16660000Y-11300000D02*
G75*
G02*
X16340000Y-11300000I-160000J0D01*
G01*
X16340000Y-11300000D02*
G75*
G02*
X16660000Y-11300000I160000J0D01*
G01*
X2660000Y-11300000D02*
G75*
G02*
X2340000Y-11300000I-160000J0D01*
G01*
X2340000Y-11300000D02*
G75*
G02*
X2660000Y-11300000I160000J0D01*
G01*
X2660000Y-13300000D02*
G75*
G02*
X2340000Y-13300000I-160000J0D01*
G01*
X2340000Y-13300000D02*
G75*
G02*
X2660000Y-13300000I160000J0D01*
G01*
X16660000Y-3300000D02*
G75*
G02*
X16340000Y-3300000I-160000J0D01*
G01*
X16340000Y-3300000D02*
G75*
G02*
X16660000Y-3300000I160000J0D01*
G01*
X16660000Y-13300000D02*
G75*
G02*
X16340000Y-13300000I-160000J0D01*
G01*
X16340000Y-13300000D02*
G75*
G02*
X16660000Y-13300000I160000J0D01*
G01*
X9660000Y-3300000D02*
G75*
G02*
X9340000Y-3300000I-160000J0D01*
G01*
X9340000Y-3300000D02*
G75*
G02*
X9660000Y-3300000I160000J0D01*
G01*
X9660000Y-13300000D02*
G75*
G02*
X9340000Y-13300000I-160000J0D01*
G01*
X9340000Y-13300000D02*
G75*
G02*
X9660000Y-13300000I160000J0D01*
G01*
X2660000Y-3300000D02*
G75*
G02*
X2340000Y-3300000I-160000J0D01*
G01*
X2340000Y-3300000D02*
G75*
G02*
X2660000Y-3300000I160000J0D01*
G01*
D11*
X2000000Y-2000000D02*
X17000000Y-2000000D01*
X17000000Y-13800000D01*
X2000000Y-13800000D01*
X2000000Y-2000000D01*
D12*
D10*
X4734230Y-6053520D02*
X4764230Y-6083520D01*
X4764230Y-6053520D02*
X4734230Y-6083520D01*
X4945050Y-6062550D02*
X4975050Y-6092550D01*
X4975050Y-6062550D02*
X4945050Y-6092550D01*
X5349800Y-10900740D02*
X5379800Y-10930740D01*
X5379800Y-10900740D02*
X5349800Y-10930740D01*
X5360100Y-3457490D02*
X5390100Y-3487490D01*
X5390100Y-3457490D02*
X5360100Y-3487490D01*
X5445860Y-10874290D02*
X5475860Y-10904290D01*
X5475860Y-10874290D02*
X5445860Y-10904290D01*
X5848700Y-10095390D02*
X5878700Y-10125390D01*
X5878700Y-10095390D02*
X5848700Y-10125390D01*
X6148490Y-6103560D02*
X6178490Y-6133560D01*
X6178490Y-6103560D02*
X6148490Y-6133560D01*
X6269190Y-5966720D02*
X6299190Y-5996720D01*
X6299190Y-5966720D02*
X6269190Y-5996720D01*
X6931000Y-6653330D02*
X6961000Y-6683330D01*
X6961000Y-6653330D02*
X6931000Y-6683330D01*
X7333610Y-6415320D02*
X7363610Y-6445320D01*
X7363610Y-6415320D02*
X7333610Y-6445320D01*
X7717950Y-4381300D02*
X7747950Y-4411300D01*
X7747950Y-4381300D02*
X7717950Y-4411300D01*
X7815470Y-6750480D02*
X7845470Y-6780480D01*
X7845470Y-6750480D02*
X7815470Y-6780480D01*
X7950690Y-6708510D02*
X7980690Y-6738510D01*
X7980690Y-6708510D02*
X7950690Y-6738510D01*
X7956670Y-6951500D02*
X7986670Y-6981500D01*
X7986670Y-6951500D02*
X7956670Y-6981500D01*
X8003520Y-6591990D02*
X8033520Y-6621990D01*
X8033520Y-6591990D02*
X8003520Y-6621990D01*
X8046480Y-4886210D02*
X8076480Y-4916210D01*
X8076480Y-4886210D02*
X8046480Y-4916210D01*
X8223100Y-4640150D02*
X8253100Y-4670150D01*
X8253100Y-4640150D02*
X8223100Y-4670150D01*
X8257940Y-3289920D02*
X8287940Y-3319920D01*
X8287940Y-3289920D02*
X8257940Y-3319920D01*
X8292620Y-7948950D02*
X8322620Y-7978950D01*
X8322620Y-7948950D02*
X8292620Y-7978950D01*
X8581110Y-8279550D02*
X8611110Y-8309550D01*
X8611110Y-8279550D02*
X8581110Y-8309550D01*
X8792880Y-4568580D02*
X8822880Y-4598580D01*
X8822880Y-4568580D02*
X8792880Y-4598580D01*
X8834490Y-4938860D02*
X8864490Y-4968860D01*
X8864490Y-4938860D02*
X8834490Y-4968860D01*
X8845670Y-5201930D02*
X8875670Y-5231930D01*
X8875670Y-5201930D02*
X8845670Y-5231930D01*
X8959260Y-7782490D02*
X8989260Y-7812490D01*
X8989260Y-7782490D02*
X8959260Y-7812490D01*
X9106710Y-6271370D02*
X9136710Y-6301370D01*
X9136710Y-6271370D02*
X9106710Y-6301370D01*
X9165000Y-2575000D02*
X9195000Y-2605000D01*
X9195000Y-2575000D02*
X9165000Y-2605000D01*
X9186920Y-11084180D02*
X9216920Y-11114180D01*
X9216920Y-11084180D02*
X9186920Y-11114180D01*
X9200860Y-4567360D02*
X9230860Y-4597360D01*
X9230860Y-4567360D02*
X9200860Y-4597360D01*
X9301550Y-5172680D02*
X9331550Y-5202680D01*
X9331550Y-5172680D02*
X9301550Y-5202680D01*
X9304220Y-4440650D02*
X9334220Y-4470650D01*
X9334220Y-4440650D02*
X9304220Y-4470650D01*
X9455290Y-6954990D02*
X9485290Y-6984990D01*
X9485290Y-6954990D02*
X9455290Y-6984990D01*
X9565370Y-4695930D02*
X9595370Y-4725930D01*
X9595370Y-4695930D02*
X9565370Y-4725930D01*
X9578870Y-7843900D02*
X9608870Y-7873900D01*
X9608870Y-7843900D02*
X9578870Y-7873900D01*
X9731050Y-5176380D02*
X9761050Y-5206380D01*
X9761050Y-5176380D02*
X9731050Y-5206380D01*
X9820940Y-11163030D02*
X9850940Y-11193030D01*
X9850940Y-11163030D02*
X9820940Y-11193030D01*
X9995400Y-8808120D02*
X10025400Y-8838120D01*
X10025400Y-8808120D02*
X9995400Y-8838120D01*
X10074030Y-11991520D02*
X10104030Y-12021520D01*
X10104030Y-11991520D02*
X10074030Y-12021520D01*
X10150640Y-5257500D02*
X10180640Y-5287500D01*
X10180640Y-5257500D02*
X10150640Y-5287500D01*
X10158430Y-7905320D02*
X10188430Y-7935320D01*
X10188430Y-7905320D02*
X10158430Y-7935320D01*
X10291960Y-4753330D02*
X10321960Y-4783330D01*
X10321960Y-4753330D02*
X10291960Y-4783330D01*
X10313300Y-6650250D02*
X10343300Y-6680250D01*
X10343300Y-6650250D02*
X10313300Y-6680250D01*
X10368540Y-10273260D02*
X10398540Y-10303260D01*
X10398540Y-10273260D02*
X10368540Y-10303260D01*
X10419760Y-8302700D02*
X10449760Y-8332700D01*
X10449760Y-8302700D02*
X10419760Y-8332700D01*
X10468960Y-4904760D02*
X10498960Y-4934760D01*
X10498960Y-4904760D02*
X10468960Y-4934760D01*
X10665000Y-3455000D02*
X10695000Y-3485000D01*
X10695000Y-3455000D02*
X10665000Y-3485000D01*
X10916760Y-10660180D02*
X10946760Y-10690180D01*
X10946760Y-10660180D02*
X10916760Y-10690180D01*
X13074710Y-8920000D02*
X13104710Y-8950000D01*
X13104710Y-8920000D02*
X13074710Y-8950000D01*
X2631000Y-9760000D02*
G75*
G02*
X2541000Y-9760000I-45000J0D01*
G01*
X2541000Y-9760000D02*
G75*
G02*
X2631000Y-9760000I45000J0D01*
G01*
X2885000Y-9760000D02*
G75*
G02*
X2795000Y-9760000I-45000J0D01*
G01*
X2795000Y-9760000D02*
G75*
G02*
X2885000Y-9760000I45000J0D01*
G01*
X3655000Y-11760000D02*
G75*
G02*
X3565000Y-11760000I-45000J0D01*
G01*
X3565000Y-11760000D02*
G75*
G02*
X3655000Y-11760000I45000J0D01*
G01*
X3909000Y-11760000D02*
G75*
G02*
X3819000Y-11760000I-45000J0D01*
G01*
X3819000Y-11760000D02*
G75*
G02*
X3909000Y-11760000I45000J0D01*
G01*
X4128100Y-9940000D02*
G75*
G02*
X4038100Y-9940000I-45000J0D01*
G01*
X4038100Y-9940000D02*
G75*
G02*
X4128100Y-9940000I45000J0D01*
G01*
X4184100Y-8065000D02*
G75*
G02*
X4094100Y-8065000I-45000J0D01*
G01*
X4094100Y-8065000D02*
G75*
G02*
X4184100Y-8065000I45000J0D01*
G01*
X4382100Y-9940000D02*
G75*
G02*
X4292100Y-9940000I-45000J0D01*
G01*
X4292100Y-9940000D02*
G75*
G02*
X4382100Y-9940000I45000J0D01*
G01*
X4438100Y-8065000D02*
G75*
G02*
X4348100Y-8065000I-45000J0D01*
G01*
X4348100Y-8065000D02*
G75*
G02*
X4438100Y-8065000I45000J0D01*
G01*
X4737500Y-11760000D02*
G75*
G02*
X4647500Y-11760000I-45000J0D01*
G01*
X4647500Y-11760000D02*
G75*
G02*
X4737500Y-11760000I45000J0D01*
G01*
X4991500Y-11760000D02*
G75*
G02*
X4901500Y-11760000I-45000J0D01*
G01*
X4901500Y-11760000D02*
G75*
G02*
X4991500Y-11760000I45000J0D01*
G01*
X5210600Y-9910000D02*
G75*
G02*
X5120600Y-9910000I-45000J0D01*
G01*
X5120600Y-9910000D02*
G75*
G02*
X5210600Y-9910000I45000J0D01*
G01*
X5284100Y-8065000D02*
G75*
G02*
X5194100Y-8065000I-45000J0D01*
G01*
X5194100Y-8065000D02*
G75*
G02*
X5284100Y-8065000I45000J0D01*
G01*
X5464600Y-9910000D02*
G75*
G02*
X5374600Y-9910000I-45000J0D01*
G01*
X5374600Y-9910000D02*
G75*
G02*
X5464600Y-9910000I45000J0D01*
G01*
X5538100Y-8065000D02*
G75*
G02*
X5448100Y-8065000I-45000J0D01*
G01*
X5448100Y-8065000D02*
G75*
G02*
X5538100Y-8065000I45000J0D01*
G01*
X5801000Y-11760000D02*
G75*
G02*
X5711000Y-11760000I-45000J0D01*
G01*
X5711000Y-11760000D02*
G75*
G02*
X5801000Y-11760000I45000J0D01*
G01*
X6055000Y-11760000D02*
G75*
G02*
X5965000Y-11760000I-45000J0D01*
G01*
X5965000Y-11760000D02*
G75*
G02*
X6055000Y-11760000I45000J0D01*
G01*
X6324100Y-8075000D02*
G75*
G02*
X6234100Y-8075000I-45000J0D01*
G01*
X6234100Y-8075000D02*
G75*
G02*
X6324100Y-8075000I45000J0D01*
G01*
X6578100Y-8075000D02*
G75*
G02*
X6488100Y-8075000I-45000J0D01*
G01*
X6488100Y-8075000D02*
G75*
G02*
X6578100Y-8075000I45000J0D01*
G01*
X6867500Y-11760000D02*
G75*
G02*
X6777500Y-11760000I-45000J0D01*
G01*
X6777500Y-11760000D02*
G75*
G02*
X6867500Y-11760000I45000J0D01*
G01*
X7121500Y-11760000D02*
G75*
G02*
X7031500Y-11760000I-45000J0D01*
G01*
X7031500Y-11760000D02*
G75*
G02*
X7121500Y-11760000I45000J0D01*
G01*
X7254100Y-9890000D02*
G75*
G02*
X7164100Y-9890000I-45000J0D01*
G01*
X7164100Y-9890000D02*
G75*
G02*
X7254100Y-9890000I45000J0D01*
G01*
X7424100Y-8065000D02*
G75*
G02*
X7334100Y-8065000I-45000J0D01*
G01*
X7334100Y-8065000D02*
G75*
G02*
X7424100Y-8065000I45000J0D01*
G01*
X7508100Y-9890000D02*
G75*
G02*
X7418100Y-9890000I-45000J0D01*
G01*
X7418100Y-9890000D02*
G75*
G02*
X7508100Y-9890000I45000J0D01*
G01*
X7678100Y-8065000D02*
G75*
G02*
X7588100Y-8065000I-45000J0D01*
G01*
X7588100Y-8065000D02*
G75*
G02*
X7678100Y-8065000I45000J0D01*
G01*
X7927500Y-11790000D02*
G75*
G02*
X7837500Y-11790000I-45000J0D01*
G01*
X7837500Y-11790000D02*
G75*
G02*
X7927500Y-11790000I45000J0D01*
G01*
X8181500Y-11790000D02*
G75*
G02*
X8091500Y-11790000I-45000J0D01*
G01*
X8091500Y-11790000D02*
G75*
G02*
X8181500Y-11790000I45000J0D01*
G01*
X8340600Y-9890000D02*
G75*
G02*
X8250600Y-9890000I-45000J0D01*
G01*
X8250600Y-9890000D02*
G75*
G02*
X8340600Y-9890000I45000J0D01*
G01*
X8594600Y-9890000D02*
G75*
G02*
X8504600Y-9890000I-45000J0D01*
G01*
X8504600Y-9890000D02*
G75*
G02*
X8594600Y-9890000I45000J0D01*
G01*
X8978100Y-8085000D02*
G75*
G02*
X8888100Y-8085000I-45000J0D01*
G01*
X8888100Y-8085000D02*
G75*
G02*
X8978100Y-8085000I45000J0D01*
G01*
X9007500Y-11790000D02*
G75*
G02*
X8917500Y-11790000I-45000J0D01*
G01*
X8917500Y-11790000D02*
G75*
G02*
X9007500Y-11790000I45000J0D01*
G01*
X9232100Y-8085000D02*
G75*
G02*
X9142100Y-8085000I-45000J0D01*
G01*
X9142100Y-8085000D02*
G75*
G02*
X9232100Y-8085000I45000J0D01*
G01*
X9261500Y-11790000D02*
G75*
G02*
X9171500Y-11790000I-45000J0D01*
G01*
X9171500Y-11790000D02*
G75*
G02*
X9261500Y-11790000I45000J0D01*
G01*
X9400600Y-9890000D02*
G75*
G02*
X9310600Y-9890000I-45000J0D01*
G01*
X9310600Y-9890000D02*
G75*
G02*
X9400600Y-9890000I45000J0D01*
G01*
X9654600Y-9890000D02*
G75*
G02*
X9564600Y-9890000I-45000J0D01*
G01*
X9564600Y-9890000D02*
G75*
G02*
X9654600Y-9890000I45000J0D01*
G01*
X10054600Y-8085000D02*
G75*
G02*
X9964600Y-8085000I-45000J0D01*
G01*
X9964600Y-8085000D02*
G75*
G02*
X10054600Y-8085000I45000J0D01*
G01*
X10067500Y-11790000D02*
G75*
G02*
X9977500Y-11790000I-45000J0D01*
G01*
X9977500Y-11790000D02*
G75*
G02*
X10067500Y-11790000I45000J0D01*
G01*
X10308600Y-8085000D02*
G75*
G02*
X10218600Y-8085000I-45000J0D01*
G01*
X10218600Y-8085000D02*
G75*
G02*
X10308600Y-8085000I45000J0D01*
G01*
X10321500Y-11790000D02*
G75*
G02*
X10231500Y-11790000I-45000J0D01*
G01*
X10231500Y-11790000D02*
G75*
G02*
X10321500Y-11790000I45000J0D01*
G01*
X11108100Y-8085000D02*
G75*
G02*
X11018100Y-8085000I-45000J0D01*
G01*
X11018100Y-8085000D02*
G75*
G02*
X11108100Y-8085000I45000J0D01*
G01*
X11157500Y-11780000D02*
G75*
G02*
X11067500Y-11780000I-45000J0D01*
G01*
X11067500Y-11780000D02*
G75*
G02*
X11157500Y-11780000I45000J0D01*
G01*
X11362100Y-8085000D02*
G75*
G02*
X11272100Y-8085000I-45000J0D01*
G01*
X11272100Y-8085000D02*
G75*
G02*
X11362100Y-8085000I45000J0D01*
G01*
X11411500Y-11780000D02*
G75*
G02*
X11321500Y-11780000I-45000J0D01*
G01*
X11321500Y-11780000D02*
G75*
G02*
X11411500Y-11780000I45000J0D01*
G01*
X11960600Y-9860000D02*
G75*
G02*
X11870600Y-9860000I-45000J0D01*
G01*
X11870600Y-9860000D02*
G75*
G02*
X11960600Y-9860000I45000J0D01*
G01*
X12201000Y-11790000D02*
G75*
G02*
X12111000Y-11790000I-45000J0D01*
G01*
X12111000Y-11790000D02*
G75*
G02*
X12201000Y-11790000I45000J0D01*
G01*
X12214600Y-9860000D02*
G75*
G02*
X12124600Y-9860000I-45000J0D01*
G01*
X12124600Y-9860000D02*
G75*
G02*
X12214600Y-9860000I45000J0D01*
G01*
X12455000Y-11790000D02*
G75*
G02*
X12365000Y-11790000I-45000J0D01*
G01*
X12365000Y-11790000D02*
G75*
G02*
X12455000Y-11790000I45000J0D01*
G01*
X12598100Y-9880000D02*
G75*
G02*
X12508100Y-9880000I-45000J0D01*
G01*
X12508100Y-9880000D02*
G75*
G02*
X12598100Y-9880000I45000J0D01*
G01*
X12640600Y-8085000D02*
G75*
G02*
X12550600Y-8085000I-45000J0D01*
G01*
X12550600Y-8085000D02*
G75*
G02*
X12640600Y-8085000I45000J0D01*
G01*
X12852100Y-9880000D02*
G75*
G02*
X12762100Y-9880000I-45000J0D01*
G01*
X12762100Y-9880000D02*
G75*
G02*
X12852100Y-9880000I45000J0D01*
G01*
X12894600Y-8085000D02*
G75*
G02*
X12804600Y-8085000I-45000J0D01*
G01*
X12804600Y-8085000D02*
G75*
G02*
X12894600Y-8085000I45000J0D01*
G01*
X13281000Y-11780000D02*
G75*
G02*
X13191000Y-11780000I-45000J0D01*
G01*
X13191000Y-11780000D02*
G75*
G02*
X13281000Y-11780000I45000J0D01*
G01*
X13334100Y-9880000D02*
G75*
G02*
X13244100Y-9880000I-45000J0D01*
G01*
X13244100Y-9880000D02*
G75*
G02*
X13334100Y-9880000I45000J0D01*
G01*
X13535000Y-11780000D02*
G75*
G02*
X13445000Y-11780000I-45000J0D01*
G01*
X13445000Y-11780000D02*
G75*
G02*
X13535000Y-11780000I45000J0D01*
G01*
X13588100Y-9880000D02*
G75*
G02*
X13498100Y-9880000I-45000J0D01*
G01*
X13498100Y-9880000D02*
G75*
G02*
X13588100Y-9880000I45000J0D01*
G01*
X13670600Y-8085000D02*
G75*
G02*
X13580600Y-8085000I-45000J0D01*
G01*
X13580600Y-8085000D02*
G75*
G02*
X13670600Y-8085000I45000J0D01*
G01*
X13924600Y-8085000D02*
G75*
G02*
X13834600Y-8085000I-45000J0D01*
G01*
X13834600Y-8085000D02*
G75*
G02*
X13924600Y-8085000I45000J0D01*
G01*
X14400600Y-9890000D02*
G75*
G02*
X14310600Y-9890000I-45000J0D01*
G01*
X14310600Y-9890000D02*
G75*
G02*
X14400600Y-9890000I45000J0D01*
G01*
X14401000Y-11770000D02*
G75*
G02*
X14311000Y-11770000I-45000J0D01*
G01*
X14311000Y-11770000D02*
G75*
G02*
X14401000Y-11770000I45000J0D01*
G01*
X14654600Y-9890000D02*
G75*
G02*
X14564600Y-9890000I-45000J0D01*
G01*
X14564600Y-9890000D02*
G75*
G02*
X14654600Y-9890000I45000J0D01*
G01*
X14655000Y-11770000D02*
G75*
G02*
X14565000Y-11770000I-45000J0D01*
G01*
X14565000Y-11770000D02*
G75*
G02*
X14655000Y-11770000I45000J0D01*
G01*
X14784100Y-8085000D02*
G75*
G02*
X14694100Y-8085000I-45000J0D01*
G01*
X14694100Y-8085000D02*
G75*
G02*
X14784100Y-8085000I45000J0D01*
G01*
X15038100Y-8085000D02*
G75*
G02*
X14948100Y-8085000I-45000J0D01*
G01*
X14948100Y-8085000D02*
G75*
G02*
X15038100Y-8085000I45000J0D01*
G01*
X15928100Y-8085000D02*
G75*
G02*
X15838100Y-8085000I-45000J0D01*
G01*
X15838100Y-8085000D02*
G75*
G02*
X15928100Y-8085000I45000J0D01*
G01*
X16182100Y-8085000D02*
G75*
G02*
X16092100Y-8085000I-45000J0D01*
G01*
X16092100Y-8085000D02*
G75*
G02*
X16182100Y-8085000I45000J0D01*
G01*
X2695000Y-7420000D02*
X2695000Y-7520000D01*
X2645000Y-7470000D02*
X2745000Y-7470000D01*
X2945000Y-7420000D02*
X2945000Y-7520000D01*
X2895000Y-7470000D02*
X2995000Y-7470000D01*
X3195000Y-7420000D02*
X3195000Y-7520000D01*
X3145000Y-7470000D02*
X3245000Y-7470000D01*
X3445000Y-7420000D02*
X3445000Y-7520000D01*
X3395000Y-7470000D02*
X3495000Y-7470000D01*
X3694000Y-2806000D02*
X3694000Y-2906000D01*
X3644000Y-2856000D02*
X3744000Y-2856000D01*
X3694000Y-3060000D02*
X3694000Y-3160000D01*
X3644000Y-3110000D02*
X3744000Y-3110000D01*
X3948000Y-2806000D02*
X3948000Y-2906000D01*
X3898000Y-2856000D02*
X3998000Y-2856000D01*
X3948000Y-3060000D02*
X3948000Y-3160000D01*
X3898000Y-3110000D02*
X3998000Y-3110000D01*
X4202000Y-2806000D02*
X4202000Y-2906000D01*
X4152000Y-2856000D02*
X4252000Y-2856000D01*
X4202000Y-3060000D02*
X4202000Y-3160000D01*
X4152000Y-3110000D02*
X4252000Y-3110000D01*
X4456000Y-2806000D02*
X4456000Y-2906000D01*
X4406000Y-2856000D02*
X4506000Y-2856000D01*
X4456000Y-3060000D02*
X4456000Y-3160000D01*
X4406000Y-3110000D02*
X4506000Y-3110000D01*
X4710000Y-2806000D02*
X4710000Y-2906000D01*
X4660000Y-2856000D02*
X4760000Y-2856000D01*
X4710000Y-3060000D02*
X4710000Y-3160000D01*
X4660000Y-3110000D02*
X4760000Y-3110000D01*
X4745000Y-7410000D02*
X4745000Y-7510000D01*
X4695000Y-7460000D02*
X4795000Y-7460000D01*
X4964000Y-2806000D02*
X4964000Y-2906000D01*
X4914000Y-2856000D02*
X5014000Y-2856000D01*
X4964000Y-3060000D02*
X4964000Y-3160000D01*
X4914000Y-3110000D02*
X5014000Y-3110000D01*
X4995000Y-7410000D02*
X4995000Y-7510000D01*
X4945000Y-7460000D02*
X5045000Y-7460000D01*
X5218000Y-2806000D02*
X5218000Y-2906000D01*
X5168000Y-2856000D02*
X5268000Y-2856000D01*
X5218000Y-3060000D02*
X5218000Y-3160000D01*
X5168000Y-3110000D02*
X5268000Y-3110000D01*
X5245000Y-7410000D02*
X5245000Y-7510000D01*
X5195000Y-7460000D02*
X5295000Y-7460000D01*
X5472000Y-2806000D02*
X5472000Y-2906000D01*
X5422000Y-2856000D02*
X5522000Y-2856000D01*
X5472000Y-3060000D02*
X5472000Y-3160000D01*
X5422000Y-3110000D02*
X5522000Y-3110000D01*
X5495000Y-7410000D02*
X5495000Y-7510000D01*
X5445000Y-7460000D02*
X5545000Y-7460000D01*
X5726000Y-2806000D02*
X5726000Y-2906000D01*
X5676000Y-2856000D02*
X5776000Y-2856000D01*
X5726000Y-3060000D02*
X5726000Y-3160000D01*
X5676000Y-3110000D02*
X5776000Y-3110000D01*
X5980000Y-2806000D02*
X5980000Y-2906000D01*
X5930000Y-2856000D02*
X6030000Y-2856000D01*
X5980000Y-3060000D02*
X5980000Y-3160000D01*
X5930000Y-3110000D02*
X6030000Y-3110000D01*
X6234000Y-2806000D02*
X6234000Y-2906000D01*
X6184000Y-2856000D02*
X6284000Y-2856000D01*
X6234000Y-3060000D02*
X6234000Y-3160000D01*
X6184000Y-3110000D02*
X6284000Y-3110000D01*
X6488000Y-2806000D02*
X6488000Y-2906000D01*
X6438000Y-2856000D02*
X6538000Y-2856000D01*
X6488000Y-3060000D02*
X6488000Y-3160000D01*
X6438000Y-3110000D02*
X6538000Y-3110000D01*
X6720000Y-7380000D02*
X6720000Y-7480000D01*
X6670000Y-7430000D02*
X6770000Y-7430000D01*
X6742000Y-2806000D02*
X6742000Y-2906000D01*
X6692000Y-2856000D02*
X6792000Y-2856000D01*
X6742000Y-3060000D02*
X6742000Y-3160000D01*
X6692000Y-3110000D02*
X6792000Y-3110000D01*
X6920000Y-7380000D02*
X6920000Y-7480000D01*
X6870000Y-7430000D02*
X6970000Y-7430000D01*
X6996000Y-2806000D02*
X6996000Y-2906000D01*
X6946000Y-2856000D02*
X7046000Y-2856000D01*
X6996000Y-3060000D02*
X6996000Y-3160000D01*
X6946000Y-3110000D02*
X7046000Y-3110000D01*
X7120000Y-7380000D02*
X7120000Y-7480000D01*
X7070000Y-7430000D02*
X7170000Y-7430000D01*
X7250000Y-2806000D02*
X7250000Y-2906000D01*
X7200000Y-2856000D02*
X7300000Y-2856000D01*
X7250000Y-3060000D02*
X7250000Y-3160000D01*
X7200000Y-3110000D02*
X7300000Y-3110000D01*
X7320000Y-7380000D02*
X7320000Y-7480000D01*
X7270000Y-7430000D02*
X7370000Y-7430000D01*
X7504000Y-2806000D02*
X7504000Y-2906000D01*
X7454000Y-2856000D02*
X7554000Y-2856000D01*
X7504000Y-3060000D02*
X7504000Y-3160000D01*
X7454000Y-3110000D02*
X7554000Y-3110000D01*
X7520000Y-7380000D02*
X7520000Y-7480000D01*
X7470000Y-7430000D02*
X7570000Y-7430000D01*
X7720000Y-7380000D02*
X7720000Y-7480000D01*
X7670000Y-7430000D02*
X7770000Y-7430000D01*
X7758000Y-2806000D02*
X7758000Y-2906000D01*
X7708000Y-2856000D02*
X7808000Y-2856000D01*
X7758000Y-3060000D02*
X7758000Y-3160000D01*
X7708000Y-3110000D02*
X7808000Y-3110000D01*
X8012000Y-2806000D02*
X8012000Y-2906000D01*
X7962000Y-2856000D02*
X8062000Y-2856000D01*
X8012000Y-3060000D02*
X8012000Y-3160000D01*
X7962000Y-3110000D02*
X8062000Y-3110000D01*
X8266000Y-2806000D02*
X8266000Y-2906000D01*
X8216000Y-2856000D02*
X8316000Y-2856000D01*
X8266000Y-3060000D02*
X8266000Y-3160000D01*
X8216000Y-3110000D02*
X8316000Y-3110000D01*
X8520000Y-2806000D02*
X8520000Y-2906000D01*
X8470000Y-2856000D02*
X8570000Y-2856000D01*
X8520000Y-3060000D02*
X8520000Y-3160000D01*
X8470000Y-3110000D02*
X8570000Y-3110000D01*
X8910000Y-7407500D02*
X8910000Y-7507500D01*
X8860000Y-7457500D02*
X8960000Y-7457500D01*
X9160000Y-7407500D02*
X9160000Y-7507500D01*
X9110000Y-7457500D02*
X9210000Y-7457500D01*
X9410000Y-7407500D02*
X9410000Y-7507500D01*
X9360000Y-7457500D02*
X9460000Y-7457500D01*
X9660000Y-7407500D02*
X9660000Y-7507500D01*
X9610000Y-7457500D02*
X9710000Y-7457500D01*
X10915000Y-7400000D02*
X10915000Y-7500000D01*
X10865000Y-7450000D02*
X10965000Y-7450000D01*
X11165000Y-7400000D02*
X11165000Y-7500000D01*
X11115000Y-7450000D02*
X11215000Y-7450000D01*
X11415000Y-7400000D02*
X11415000Y-7500000D01*
X11365000Y-7450000D02*
X11465000Y-7450000D01*
X11665000Y-7400000D02*
X11665000Y-7500000D01*
X11615000Y-7450000D02*
X11715000Y-7450000D01*
X11795000Y-4520000D02*
X11795000Y-4620000D01*
X11745000Y-4570000D02*
X11845000Y-4570000D01*
X12045000Y-4520000D02*
X12045000Y-4620000D01*
X11995000Y-4570000D02*
X12095000Y-4570000D01*
X12295000Y-4520000D02*
X12295000Y-4620000D01*
X12245000Y-4570000D02*
X12345000Y-4570000D01*
X12545000Y-4520000D02*
X12545000Y-4620000D01*
X12495000Y-4570000D02*
X12595000Y-4570000D01*
X12915000Y-7397500D02*
X12915000Y-7497500D01*
X12865000Y-7447500D02*
X12965000Y-7447500D01*
X13165000Y-7397500D02*
X13165000Y-7497500D01*
X13115000Y-7447500D02*
X13215000Y-7447500D01*
X13415000Y-7397500D02*
X13415000Y-7497500D01*
X13365000Y-7447500D02*
X13465000Y-7447500D01*
X13665000Y-7397500D02*
X13665000Y-7497500D01*
X13615000Y-7447500D02*
X13715000Y-7447500D01*
X15545000Y-7390000D02*
X15545000Y-7490000D01*
X15495000Y-7440000D02*
X15595000Y-7440000D01*
X15795000Y-7390000D02*
X15795000Y-7490000D01*
X15745000Y-7440000D02*
X15845000Y-7440000D01*
X16045000Y-7390000D02*
X16045000Y-7490000D01*
X15995000Y-7440000D02*
X16095000Y-7440000D01*
X16295000Y-7390000D02*
X16295000Y-7490000D01*
X16245000Y-7440000D02*
X16345000Y-7440000D01*
D13*
X2320224Y-8622124D02*
X2320224Y-8547877D01*
X2245977Y-8547877D01*
X2245977Y-8622124D01*
X2320224Y-8622124D01*
X2320224Y-9072124D02*
X2320224Y-8997877D01*
X2245977Y-8997877D01*
X2245977Y-9072124D01*
X2320224Y-9072124D01*
X2370624Y-10367124D02*
X2370624Y-10292877D01*
X2296377Y-10292877D01*
X2296377Y-10367124D01*
X2370624Y-10367124D01*
X2370624Y-10817124D02*
X2370624Y-10742877D01*
X2296377Y-10742877D01*
X2296377Y-10817124D01*
X2370624Y-10817124D01*
X2970223Y-8622124D02*
X2970223Y-8547877D01*
X2895976Y-8547877D01*
X2895976Y-8622124D01*
X2970223Y-8622124D01*
X2970223Y-9072124D02*
X2970223Y-8997877D01*
X2895976Y-8997877D01*
X2895976Y-9072124D01*
X2970223Y-9072124D01*
X3020623Y-10367124D02*
X3020623Y-10292877D01*
X2946376Y-10292877D01*
X2946376Y-10367124D01*
X3020623Y-10367124D01*
X3020623Y-10817124D02*
X3020623Y-10742877D01*
X2946376Y-10742877D01*
X2946376Y-10817124D01*
X3020623Y-10817124D01*
X3435123Y-12366123D02*
X3435123Y-12291876D01*
X3360876Y-12291876D01*
X3360876Y-12366123D01*
X3435123Y-12366123D01*
X3435123Y-12816123D02*
X3435123Y-12741876D01*
X3360876Y-12741876D01*
X3360876Y-12816123D01*
X3435123Y-12816123D01*
X3957123Y-10457124D02*
X3957123Y-10382877D01*
X3882876Y-10382877D01*
X3882876Y-10457124D01*
X3957123Y-10457124D01*
X3957123Y-10907124D02*
X3957123Y-10832877D01*
X3882876Y-10832877D01*
X3882876Y-10907124D01*
X3957123Y-10907124D01*
X3980223Y-8642124D02*
X3980223Y-8567877D01*
X3905976Y-8567877D01*
X3905976Y-8642124D01*
X3980223Y-8642124D01*
X3980223Y-9092124D02*
X3980223Y-9017877D01*
X3905976Y-9017877D01*
X3905976Y-9092124D01*
X3980223Y-9092124D01*
X4085123Y-12366123D02*
X4085123Y-12291876D01*
X4010876Y-12291876D01*
X4010876Y-12366123D01*
X4085123Y-12366123D01*
X4085123Y-12816123D02*
X4085123Y-12741876D01*
X4010876Y-12741876D01*
X4010876Y-12816123D01*
X4085123Y-12816123D01*
X4507124Y-12366123D02*
X4507124Y-12291876D01*
X4432877Y-12291876D01*
X4432877Y-12366123D01*
X4507124Y-12366123D01*
X4507124Y-12816123D02*
X4507124Y-12741876D01*
X4432877Y-12741876D01*
X4432877Y-12816123D01*
X4507124Y-12816123D01*
X4607124Y-10457124D02*
X4607124Y-10382877D01*
X4532877Y-10382877D01*
X4532877Y-10457124D01*
X4607124Y-10457124D01*
X4607124Y-10907124D02*
X4607124Y-10832877D01*
X4532877Y-10832877D01*
X4532877Y-10907124D01*
X4607124Y-10907124D01*
X4630224Y-8642124D02*
X4630224Y-8567877D01*
X4555977Y-8567877D01*
X4555977Y-8642124D01*
X4630224Y-8642124D01*
X4630224Y-9092124D02*
X4630224Y-9017877D01*
X4555977Y-9017877D01*
X4555977Y-9092124D01*
X4630224Y-9092124D01*
X5030224Y-10457124D02*
X5030224Y-10382877D01*
X4955977Y-10382877D01*
X4955977Y-10457124D01*
X5030224Y-10457124D01*
X5030224Y-10907124D02*
X5030224Y-10832877D01*
X4955977Y-10832877D01*
X4955977Y-10907124D01*
X5030224Y-10907124D01*
X5047124Y-8647124D02*
X5047124Y-8572877D01*
X4972877Y-8572877D01*
X4972877Y-8647124D01*
X5047124Y-8647124D01*
X5047124Y-9097124D02*
X5047124Y-9022877D01*
X4972877Y-9022877D01*
X4972877Y-9097124D01*
X5047124Y-9097124D01*
X5157124Y-12366123D02*
X5157124Y-12291876D01*
X5082877Y-12291876D01*
X5082877Y-12366123D01*
X5157124Y-12366123D01*
X5157124Y-12816123D02*
X5157124Y-12741876D01*
X5082877Y-12741876D01*
X5082877Y-12816123D01*
X5157124Y-12816123D01*
X5577124Y-12366123D02*
X5577124Y-12291876D01*
X5502877Y-12291876D01*
X5502877Y-12366123D01*
X5577124Y-12366123D01*
X5577124Y-12816123D02*
X5577124Y-12741876D01*
X5502877Y-12741876D01*
X5502877Y-12816123D01*
X5577124Y-12816123D01*
X5680223Y-10457124D02*
X5680223Y-10382877D01*
X5605976Y-10382877D01*
X5605976Y-10457124D01*
X5680223Y-10457124D01*
X5680223Y-10907124D02*
X5680223Y-10832877D01*
X5605976Y-10832877D01*
X5605976Y-10907124D01*
X5680223Y-10907124D01*
X5697123Y-8647124D02*
X5697123Y-8572877D01*
X5622876Y-8572877D01*
X5622876Y-8647124D01*
X5697123Y-8647124D01*
X5697123Y-9097124D02*
X5697123Y-9022877D01*
X5622876Y-9022877D01*
X5622876Y-9097124D01*
X5697123Y-9097124D01*
X6117123Y-8647124D02*
X6117123Y-8572877D01*
X6042876Y-8572877D01*
X6042876Y-8647124D01*
X6117123Y-8647124D01*
X6117123Y-9097124D02*
X6117123Y-9022877D01*
X6042876Y-9022877D01*
X6042876Y-9097124D01*
X6117123Y-9097124D01*
X6227123Y-12366123D02*
X6227123Y-12291876D01*
X6152876Y-12291876D01*
X6152876Y-12366123D01*
X6227123Y-12366123D01*
X6227123Y-12816123D02*
X6227123Y-12741876D01*
X6152876Y-12741876D01*
X6152876Y-12816123D01*
X6227123Y-12816123D01*
X6647123Y-12367123D02*
X6647123Y-12292876D01*
X6572876Y-12292876D01*
X6572876Y-12367123D01*
X6647123Y-12367123D01*
X6647123Y-12817123D02*
X6647123Y-12742876D01*
X6572876Y-12742876D01*
X6572876Y-12817123D01*
X6647123Y-12817123D01*
X6767123Y-8647124D02*
X6767123Y-8572877D01*
X6692876Y-8572877D01*
X6692876Y-8647124D01*
X6767123Y-8647124D01*
X6767123Y-9097124D02*
X6767123Y-9022877D01*
X6692876Y-9022877D01*
X6692876Y-9097124D01*
X6767123Y-9097124D01*
X7067123Y-10457124D02*
X7067123Y-10382877D01*
X6992876Y-10382877D01*
X6992876Y-10457124D01*
X7067123Y-10457124D01*
X7067123Y-10907124D02*
X7067123Y-10832877D01*
X6992876Y-10832877D01*
X6992876Y-10907124D01*
X7067123Y-10907124D01*
X7190223Y-8642124D02*
X7190223Y-8567877D01*
X7115976Y-8567877D01*
X7115976Y-8642124D01*
X7190223Y-8642124D01*
X7190223Y-9092124D02*
X7190223Y-9017877D01*
X7115976Y-9017877D01*
X7115976Y-9092124D01*
X7190223Y-9092124D01*
X7297123Y-12367123D02*
X7297123Y-12292876D01*
X7222876Y-12292876D01*
X7222876Y-12367123D01*
X7297123Y-12367123D01*
X7297123Y-12817123D02*
X7297123Y-12742876D01*
X7222876Y-12742876D01*
X7222876Y-12817123D01*
X7297123Y-12817123D01*
X7717123Y-10457124D02*
X7717123Y-10382877D01*
X7642876Y-10382877D01*
X7642876Y-10457124D01*
X7717123Y-10457124D01*
X7717123Y-10907124D02*
X7717123Y-10832877D01*
X7642876Y-10832877D01*
X7642876Y-10907124D01*
X7717123Y-10907124D01*
X7717123Y-12367123D02*
X7717123Y-12292876D01*
X7642876Y-12292876D01*
X7642876Y-12367123D01*
X7717123Y-12367123D01*
X7717123Y-12817123D02*
X7717123Y-12742876D01*
X7642876Y-12742876D01*
X7642876Y-12817123D01*
X7717123Y-12817123D01*
X7840223Y-8642124D02*
X7840223Y-8567877D01*
X7765976Y-8567877D01*
X7765976Y-8642124D01*
X7840223Y-8642124D01*
X7840223Y-9092124D02*
X7840223Y-9017877D01*
X7765976Y-9017877D01*
X7765976Y-9092124D01*
X7840223Y-9092124D01*
X8137123Y-10457124D02*
X8137123Y-10382877D01*
X8062876Y-10382877D01*
X8062876Y-10457124D01*
X8137123Y-10457124D01*
X8137123Y-10907124D02*
X8137123Y-10832877D01*
X8062876Y-10832877D01*
X8062876Y-10907124D01*
X8137123Y-10907124D01*
X8367123Y-12367123D02*
X8367123Y-12292876D01*
X8292876Y-12292876D01*
X8292876Y-12367123D01*
X8367123Y-12367123D01*
X8367123Y-12817123D02*
X8367123Y-12742876D01*
X8292876Y-12742876D01*
X8292876Y-12817123D01*
X8367123Y-12817123D01*
X8750224Y-8652124D02*
X8750224Y-8577877D01*
X8675977Y-8577877D01*
X8675977Y-8652124D01*
X8750224Y-8652124D01*
X8750224Y-9102124D02*
X8750224Y-9027877D01*
X8675977Y-9027877D01*
X8675977Y-9102124D01*
X8750224Y-9102124D01*
X8787124Y-10457124D02*
X8787124Y-10382877D01*
X8712877Y-10382877D01*
X8712877Y-10457124D01*
X8787124Y-10457124D01*
X8787124Y-10907124D02*
X8787124Y-10832877D01*
X8712877Y-10832877D01*
X8712877Y-10907124D01*
X8787124Y-10907124D01*
X8797124Y-12367123D02*
X8797124Y-12292876D01*
X8722877Y-12292876D01*
X8722877Y-12367123D01*
X8797124Y-12367123D01*
X8797124Y-12817123D02*
X8797124Y-12742876D01*
X8722877Y-12742876D01*
X8722877Y-12817123D01*
X8797124Y-12817123D01*
X9207124Y-10457124D02*
X9207124Y-10382877D01*
X9132877Y-10382877D01*
X9132877Y-10457124D01*
X9207124Y-10457124D01*
X9207124Y-10907124D02*
X9207124Y-10832877D01*
X9132877Y-10832877D01*
X9132877Y-10907124D01*
X9207124Y-10907124D01*
X9400224Y-8652124D02*
X9400224Y-8577877D01*
X9325977Y-8577877D01*
X9325977Y-8652124D01*
X9400224Y-8652124D01*
X9400224Y-9102124D02*
X9400224Y-9027877D01*
X9325977Y-9027877D01*
X9325977Y-9102124D01*
X9400224Y-9102124D01*
X9447124Y-12367123D02*
X9447124Y-12292876D01*
X9372877Y-12292876D01*
X9372877Y-12367123D01*
X9447124Y-12367123D01*
X9447124Y-12817123D02*
X9447124Y-12742876D01*
X9372877Y-12742876D01*
X9372877Y-12817123D01*
X9447124Y-12817123D01*
X9820224Y-8652124D02*
X9820224Y-8577877D01*
X9745977Y-8577877D01*
X9745977Y-8652124D01*
X9820224Y-8652124D01*
X9820224Y-9102124D02*
X9820224Y-9027877D01*
X9745977Y-9027877D01*
X9745977Y-9102124D01*
X9820224Y-9102124D01*
X9857124Y-10457124D02*
X9857124Y-10382877D01*
X9782877Y-10382877D01*
X9782877Y-10457124D01*
X9857124Y-10457124D01*
X9857124Y-10907124D02*
X9857124Y-10832877D01*
X9782877Y-10832877D01*
X9782877Y-10907124D01*
X9857124Y-10907124D01*
X9867124Y-12367123D02*
X9867124Y-12292876D01*
X9792877Y-12292876D01*
X9792877Y-12367123D01*
X9867124Y-12367123D01*
X9867124Y-12817123D02*
X9867124Y-12742876D01*
X9792877Y-12742876D01*
X9792877Y-12817123D01*
X9867124Y-12817123D01*
X10470224Y-8652124D02*
X10470224Y-8577877D01*
X10395977Y-8577877D01*
X10395977Y-8652124D01*
X10470224Y-8652124D01*
X10470224Y-9102124D02*
X10470224Y-9027877D01*
X10395977Y-9027877D01*
X10395977Y-9102124D01*
X10470224Y-9102124D01*
X10517124Y-12367123D02*
X10517124Y-12292876D01*
X10442877Y-12292876D01*
X10442877Y-12367123D01*
X10517124Y-12367123D01*
X10517124Y-12817123D02*
X10517124Y-12742876D01*
X10442877Y-12742876D01*
X10442877Y-12817123D01*
X10517124Y-12817123D01*
X10890224Y-8652124D02*
X10890224Y-8577877D01*
X10815977Y-8577877D01*
X10815977Y-8652124D01*
X10890224Y-8652124D01*
X10890224Y-9102124D02*
X10890224Y-9027877D01*
X10815977Y-9027877D01*
X10815977Y-9102124D01*
X10890224Y-9102124D01*
X10947124Y-12367123D02*
X10947124Y-12292876D01*
X10872877Y-12292876D01*
X10872877Y-12367123D01*
X10947124Y-12367123D01*
X10947124Y-12817123D02*
X10947124Y-12742876D01*
X10872877Y-12742876D01*
X10872877Y-12817123D01*
X10947124Y-12817123D01*
X11540223Y-8652124D02*
X11540223Y-8577877D01*
X11465976Y-8577877D01*
X11465976Y-8652124D01*
X11540223Y-8652124D01*
X11540223Y-9102124D02*
X11540223Y-9027877D01*
X11465976Y-9027877D01*
X11465976Y-9102124D01*
X11540223Y-9102124D01*
X11597123Y-12367123D02*
X11597123Y-12292876D01*
X11522876Y-12292876D01*
X11522876Y-12367123D01*
X11597123Y-12367123D01*
X11597123Y-12817123D02*
X11597123Y-12742876D01*
X11522876Y-12742876D01*
X11522876Y-12817123D01*
X11597123Y-12817123D01*
X12017123Y-12367123D02*
X12017123Y-12292876D01*
X11942876Y-12292876D01*
X11942876Y-12367123D01*
X12017123Y-12367123D01*
X12017123Y-12817123D02*
X12017123Y-12742876D01*
X11942876Y-12742876D01*
X11942876Y-12817123D01*
X12017123Y-12817123D01*
X12027123Y-10447124D02*
X12027123Y-10372877D01*
X11952876Y-10372877D01*
X11952876Y-10447124D01*
X12027123Y-10447124D01*
X12027123Y-10897124D02*
X12027123Y-10822877D01*
X11952876Y-10822877D01*
X11952876Y-10897124D01*
X12027123Y-10897124D01*
X12440223Y-8652124D02*
X12440223Y-8577877D01*
X12365976Y-8577877D01*
X12365976Y-8652124D01*
X12440223Y-8652124D01*
X12440223Y-9102124D02*
X12440223Y-9027877D01*
X12365976Y-9027877D01*
X12365976Y-9102124D01*
X12440223Y-9102124D01*
X12667123Y-12367123D02*
X12667123Y-12292876D01*
X12592876Y-12292876D01*
X12592876Y-12367123D01*
X12667123Y-12367123D01*
X12667123Y-12817123D02*
X12667123Y-12742876D01*
X12592876Y-12742876D01*
X12592876Y-12817123D01*
X12667123Y-12817123D01*
X12677123Y-10447124D02*
X12677123Y-10372877D01*
X12602876Y-10372877D01*
X12602876Y-10447124D01*
X12677123Y-10447124D01*
X12677123Y-10897124D02*
X12677123Y-10822877D01*
X12602876Y-10822877D01*
X12602876Y-10897124D01*
X12677123Y-10897124D01*
X13087123Y-12367123D02*
X13087123Y-12292876D01*
X13012876Y-12292876D01*
X13012876Y-12367123D01*
X13087123Y-12367123D01*
X13087123Y-12817123D02*
X13087123Y-12742876D01*
X13012876Y-12742876D01*
X13012876Y-12817123D01*
X13087123Y-12817123D01*
X13090223Y-8652124D02*
X13090223Y-8577877D01*
X13015976Y-8577877D01*
X13015976Y-8652124D01*
X13090223Y-8652124D01*
X13090223Y-9102124D02*
X13090223Y-9027877D01*
X13015976Y-9027877D01*
X13015976Y-9102124D01*
X13090223Y-9102124D01*
X13097123Y-10447124D02*
X13097123Y-10372877D01*
X13022876Y-10372877D01*
X13022876Y-10447124D01*
X13097123Y-10447124D01*
X13097123Y-10897124D02*
X13097123Y-10822877D01*
X13022876Y-10822877D01*
X13022876Y-10897124D01*
X13097123Y-10897124D01*
X13520223Y-8652124D02*
X13520223Y-8577877D01*
X13445976Y-8577877D01*
X13445976Y-8652124D01*
X13520223Y-8652124D01*
X13520223Y-9102124D02*
X13520223Y-9027877D01*
X13445976Y-9027877D01*
X13445976Y-9102124D01*
X13520223Y-9102124D01*
X13737123Y-12367123D02*
X13737123Y-12292876D01*
X13662876Y-12292876D01*
X13662876Y-12367123D01*
X13737123Y-12367123D01*
X13737123Y-12817123D02*
X13737123Y-12742876D01*
X13662876Y-12742876D01*
X13662876Y-12817123D01*
X13737123Y-12817123D01*
X13747123Y-10447124D02*
X13747123Y-10372877D01*
X13672876Y-10372877D01*
X13672876Y-10447124D01*
X13747123Y-10447124D01*
X13747123Y-10897124D02*
X13747123Y-10822877D01*
X13672876Y-10822877D01*
X13672876Y-10897124D01*
X13747123Y-10897124D01*
X14157123Y-12367123D02*
X14157123Y-12292876D01*
X14082876Y-12292876D01*
X14082876Y-12367123D01*
X14157123Y-12367123D01*
X14157123Y-12817123D02*
X14157123Y-12742876D01*
X14082876Y-12742876D01*
X14082876Y-12817123D01*
X14157123Y-12817123D01*
X14167123Y-10447124D02*
X14167123Y-10372877D01*
X14092876Y-10372877D01*
X14092876Y-10447124D01*
X14167123Y-10447124D01*
X14167123Y-10897124D02*
X14167123Y-10822877D01*
X14092876Y-10822877D01*
X14092876Y-10897124D01*
X14167123Y-10897124D01*
X14170223Y-8652124D02*
X14170223Y-8577877D01*
X14095976Y-8577877D01*
X14095976Y-8652124D01*
X14170223Y-8652124D01*
X14170223Y-9102124D02*
X14170223Y-9027877D01*
X14095976Y-9027877D01*
X14095976Y-9102124D01*
X14170223Y-9102124D01*
X14600223Y-8652124D02*
X14600223Y-8577877D01*
X14525976Y-8577877D01*
X14525976Y-8652124D01*
X14600223Y-8652124D01*
X14600223Y-9102124D02*
X14600223Y-9027877D01*
X14525976Y-9027877D01*
X14525976Y-9102124D01*
X14600223Y-9102124D01*
X14807123Y-12367123D02*
X14807123Y-12292876D01*
X14732876Y-12292876D01*
X14732876Y-12367123D01*
X14807123Y-12367123D01*
X14807123Y-12817123D02*
X14807123Y-12742876D01*
X14732876Y-12742876D01*
X14732876Y-12817123D01*
X14807123Y-12817123D01*
X14817123Y-10447124D02*
X14817123Y-10372877D01*
X14742876Y-10372877D01*
X14742876Y-10447124D01*
X14817123Y-10447124D01*
X14817123Y-10897124D02*
X14817123Y-10822877D01*
X14742876Y-10822877D01*
X14742876Y-10897124D01*
X14817123Y-10897124D01*
X15250223Y-8652124D02*
X15250223Y-8577877D01*
X15175976Y-8577877D01*
X15175976Y-8652124D01*
X15250223Y-8652124D01*
X15250223Y-9102124D02*
X15250223Y-9027877D01*
X15175976Y-9027877D01*
X15175976Y-9102124D01*
X15250223Y-9102124D01*
X15427123Y-12357123D02*
X15427123Y-12282876D01*
X15352876Y-12282876D01*
X15352876Y-12357123D01*
X15427123Y-12357123D01*
X15427123Y-12807123D02*
X15427123Y-12732876D01*
X15352876Y-12732876D01*
X15352876Y-12807123D01*
X15427123Y-12807123D01*
X15437123Y-10447124D02*
X15437123Y-10372877D01*
X15362876Y-10372877D01*
X15362876Y-10447124D01*
X15437123Y-10447124D01*
X15437123Y-10897124D02*
X15437123Y-10822877D01*
X15362876Y-10822877D01*
X15362876Y-10897124D01*
X15437123Y-10897124D01*
X15670223Y-8652124D02*
X15670223Y-8577877D01*
X15595976Y-8577877D01*
X15595976Y-8652124D01*
X15670223Y-8652124D01*
X15670223Y-9102124D02*
X15670223Y-9027877D01*
X15595976Y-9027877D01*
X15595976Y-9102124D01*
X15670223Y-9102124D01*
X16077123Y-12357123D02*
X16077123Y-12282876D01*
X16002876Y-12282876D01*
X16002876Y-12357123D01*
X16077123Y-12357123D01*
X16077123Y-12807123D02*
X16077123Y-12732876D01*
X16002876Y-12732876D01*
X16002876Y-12807123D01*
X16077123Y-12807123D01*
X16087123Y-10447124D02*
X16087123Y-10372877D01*
X16012876Y-10372877D01*
X16012876Y-10447124D01*
X16087123Y-10447124D01*
X16087123Y-10897124D02*
X16087123Y-10822877D01*
X16012876Y-10822877D01*
X16012876Y-10897124D01*
X16087123Y-10897124D01*
X16320223Y-8652124D02*
X16320223Y-8577877D01*
X16245976Y-8577877D01*
X16245976Y-8652124D01*
X16320223Y-8652124D01*
X16320223Y-9102124D02*
X16320223Y-9027877D01*
X16245976Y-9027877D01*
X16245976Y-9102124D01*
X16320223Y-9102124D01*
D14*
X2580000Y-4654500D02*
X2634500Y-4600000D01*
X2580000Y-4545500D01*
X2525500Y-4600000D01*
X2580000Y-4654500D01*
X2834000Y-4654500D02*
X2888500Y-4600000D01*
X2834000Y-4545500D01*
X2779500Y-4600000D01*
X2834000Y-4654500D01*
X3088000Y-4654500D02*
X3142500Y-4600000D01*
X3088000Y-4545500D01*
X3033500Y-4600000D01*
X3088000Y-4654500D01*
X3342000Y-4654500D02*
X3396500Y-4600000D01*
X3342000Y-4545500D01*
X3287500Y-4600000D01*
X3342000Y-4654500D01*
X3596000Y-4654500D02*
X3650500Y-4600000D01*
X3596000Y-4545500D01*
X3541500Y-4600000D01*
X3596000Y-4654500D01*
D15*
X13790000Y-3160000D02*
X13950000Y-3320000D01*
X13950000Y-3160000D02*
X13790000Y-3320000D01*
X13950000Y-3240000D02*
G75*
G02*
X13790000Y-3240000I-80000J0D01*
G01*
X13790000Y-3240000D02*
G75*
G02*
X13950000Y-3240000I80000J0D01*
G01*
X13790000Y-3790000D02*
X13950000Y-3950000D01*
X13950000Y-3790000D02*
X13790000Y-3950000D01*
X13950000Y-3870000D02*
G75*
G02*
X13790000Y-3870000I-80000J0D01*
G01*
X13790000Y-3870000D02*
G75*
G02*
X13950000Y-3870000I80000J0D01*
G01*
X13790000Y-4420000D02*
X13950000Y-4580000D01*
X13950000Y-4420000D02*
X13790000Y-4580000D01*
X13950000Y-4500000D02*
G75*
G02*
X13790000Y-4500000I-80000J0D01*
G01*
X13790000Y-4500000D02*
G75*
G02*
X13950000Y-4500000I80000J0D01*
G01*
X15420000Y-3160000D02*
X15580000Y-3320000D01*
X15580000Y-3160000D02*
X15420000Y-3320000D01*
X15580000Y-3240000D02*
G75*
G02*
X15420000Y-3240000I-80000J0D01*
G01*
X15420000Y-3240000D02*
G75*
G02*
X15580000Y-3240000I80000J0D01*
G01*
X15420000Y-3790000D02*
X15580000Y-3950000D01*
X15580000Y-3790000D02*
X15420000Y-3950000D01*
X15580000Y-3870000D02*
G75*
G02*
X15420000Y-3870000I-80000J0D01*
G01*
X15420000Y-3870000D02*
G75*
G02*
X15580000Y-3870000I80000J0D01*
G01*
X15420000Y-4420000D02*
X15580000Y-4580000D01*
X15580000Y-4420000D02*
X15420000Y-4580000D01*
X15580000Y-4500000D02*
G75*
G02*
X15420000Y-4500000I-80000J0D01*
G01*
X15420000Y-4500000D02*
G75*
G02*
X15580000Y-4500000I80000J0D01*
G01*
D16*
X2345000Y-6225000D02*
X2635000Y-6515000D01*
X2635000Y-6225000D02*
X2345000Y-6515000D01*
X2490000Y-6225000D02*
X2490000Y-6515000D01*
X2345000Y-6370000D02*
X2635000Y-6370000D01*
X3505000Y-6225000D02*
X3795000Y-6515000D01*
X3795000Y-6225000D02*
X3505000Y-6515000D01*
X3650000Y-6225000D02*
X3650000Y-6515000D01*
X3505000Y-6370000D02*
X3795000Y-6370000D01*
X4395000Y-6215000D02*
X4685000Y-6505000D01*
X4685000Y-6215000D02*
X4395000Y-6505000D01*
X4540000Y-6215000D02*
X4540000Y-6505000D01*
X4395000Y-6360000D02*
X4685000Y-6360000D01*
X5555000Y-6215000D02*
X5845000Y-6505000D01*
X5845000Y-6215000D02*
X5555000Y-6505000D01*
X5700000Y-6215000D02*
X5700000Y-6505000D01*
X5555000Y-6360000D02*
X5845000Y-6360000D01*
X8560000Y-6212500D02*
X8850000Y-6502500D01*
X8850000Y-6212500D02*
X8560000Y-6502500D01*
X8705000Y-6212500D02*
X8705000Y-6502500D01*
X8560000Y-6357500D02*
X8850000Y-6357500D01*
X9720000Y-6212500D02*
X10010000Y-6502500D01*
X10010000Y-6212500D02*
X9720000Y-6502500D01*
X9865000Y-6212500D02*
X9865000Y-6502500D01*
X9720000Y-6357500D02*
X10010000Y-6357500D01*
X10565000Y-6205000D02*
X10855000Y-6495000D01*
X10855000Y-6205000D02*
X10565000Y-6495000D01*
X10710000Y-6205000D02*
X10710000Y-6495000D01*
X10565000Y-6350000D02*
X10855000Y-6350000D01*
X11445000Y-3325000D02*
X11735000Y-3615000D01*
X11735000Y-3325000D02*
X11445000Y-3615000D01*
X11590000Y-3325000D02*
X11590000Y-3615000D01*
X11445000Y-3470000D02*
X11735000Y-3470000D01*
X11725000Y-6205000D02*
X12015000Y-6495000D01*
X12015000Y-6205000D02*
X11725000Y-6495000D01*
X11870000Y-6205000D02*
X11870000Y-6495000D01*
X11725000Y-6350000D02*
X12015000Y-6350000D01*
X12565000Y-6202500D02*
X12855000Y-6492500D01*
X12855000Y-6202500D02*
X12565000Y-6492500D01*
X12710000Y-6202500D02*
X12710000Y-6492500D01*
X12565000Y-6347500D02*
X12855000Y-6347500D01*
X12605000Y-3325000D02*
X12895000Y-3615000D01*
X12895000Y-3325000D02*
X12605000Y-3615000D01*
X12750000Y-3325000D02*
X12750000Y-3615000D01*
X12605000Y-3470000D02*
X12895000Y-3470000D01*
X13725000Y-6202500D02*
X14015000Y-6492500D01*
X14015000Y-6202500D02*
X13725000Y-6492500D01*
X13870000Y-6202500D02*
X13870000Y-6492500D01*
X13725000Y-6347500D02*
X14015000Y-6347500D01*
X15195000Y-6195000D02*
X15485000Y-6485000D01*
X15485000Y-6195000D02*
X15195000Y-6485000D01*
X15340000Y-6195000D02*
X15340000Y-6485000D01*
X15195000Y-6340000D02*
X15485000Y-6340000D01*
X16355000Y-6195000D02*
X16645000Y-6485000D01*
X16645000Y-6195000D02*
X16355000Y-6485000D01*
X16500000Y-6195000D02*
X16500000Y-6485000D01*
X16355000Y-6340000D02*
X16645000Y-6340000D01*
D17*
X6491500Y-6181500D02*
X6788500Y-6478500D01*
X6788500Y-6181500D02*
X6491500Y-6478500D01*
X6745006Y-6435006D02*
X6745006Y-6224994D01*
X6534994Y-6224994D01*
X6534994Y-6435006D01*
X6745006Y-6435006D01*
X7651500Y-6181500D02*
X7948500Y-6478500D01*
X7948500Y-6181500D02*
X7651500Y-6478500D01*
X7905006Y-6435006D02*
X7905006Y-6224994D01*
X7694994Y-6224994D01*
X7694994Y-6435006D01*
X7905006Y-6435006D01*
D12*
X2258277Y-14113984D02*
X2258277Y-13913984D01*
X2258277Y-13913984D02*
X2305896Y-13913984D01*
X2305896Y-13913984D02*
X2334467Y-13923508D01*
X2334467Y-13923508D02*
X2353515Y-13942555D01*
X2353515Y-13942555D02*
X2363039Y-13961603D01*
X2363039Y-13961603D02*
X2372563Y-13999698D01*
X2372563Y-13999698D02*
X2372563Y-14028269D01*
X2372563Y-14028269D02*
X2363039Y-14066365D01*
X2363039Y-14066365D02*
X2353515Y-14085412D01*
X2353515Y-14085412D02*
X2334467Y-14104460D01*
X2334467Y-14104460D02*
X2305896Y-14113984D01*
X2305896Y-14113984D02*
X2258277Y-14113984D01*
X2458277Y-14113984D02*
X2458277Y-13980650D01*
X2458277Y-14018746D02*
X2467801Y-13999698D01*
X2467801Y-13999698D02*
X2477324Y-13990174D01*
X2477324Y-13990174D02*
X2496372Y-13980650D01*
X2496372Y-13980650D02*
X2515420Y-13980650D01*
X2582086Y-14113984D02*
X2582086Y-13980650D01*
X2582086Y-13913984D02*
X2572563Y-13923508D01*
X2572563Y-13923508D02*
X2582086Y-13933031D01*
X2582086Y-13933031D02*
X2591610Y-13923508D01*
X2591610Y-13923508D02*
X2582086Y-13913984D01*
X2582086Y-13913984D02*
X2582086Y-13933031D01*
X2705896Y-14113984D02*
X2686848Y-14104460D01*
X2686848Y-14104460D02*
X2677324Y-14085412D01*
X2677324Y-14085412D02*
X2677324Y-13913984D01*
X2810658Y-14113984D02*
X2791610Y-14104460D01*
X2791610Y-14104460D02*
X2782086Y-14085412D01*
X2782086Y-14085412D02*
X2782086Y-13913984D01*
X3039229Y-14113984D02*
X3039229Y-13913984D01*
X3039229Y-13913984D02*
X3105896Y-14056841D01*
X3105896Y-14056841D02*
X3172562Y-13913984D01*
X3172562Y-13913984D02*
X3172562Y-14113984D01*
X3353515Y-14113984D02*
X3353515Y-14009222D01*
X3353515Y-14009222D02*
X3343991Y-13990174D01*
X3343991Y-13990174D02*
X3324943Y-13980650D01*
X3324943Y-13980650D02*
X3286848Y-13980650D01*
X3286848Y-13980650D02*
X3267801Y-13990174D01*
X3353515Y-14104460D02*
X3334467Y-14113984D01*
X3334467Y-14113984D02*
X3286848Y-14113984D01*
X3286848Y-14113984D02*
X3267801Y-14104460D01*
X3267801Y-14104460D02*
X3258277Y-14085412D01*
X3258277Y-14085412D02*
X3258277Y-14066365D01*
X3258277Y-14066365D02*
X3267801Y-14047317D01*
X3267801Y-14047317D02*
X3286848Y-14037793D01*
X3286848Y-14037793D02*
X3334467Y-14037793D01*
X3334467Y-14037793D02*
X3353515Y-14028269D01*
X3448753Y-13980650D02*
X3448753Y-14180650D01*
X3448753Y-13990174D02*
X3467801Y-13980650D01*
X3467801Y-13980650D02*
X3505896Y-13980650D01*
X3505896Y-13980650D02*
X3524943Y-13990174D01*
X3524943Y-13990174D02*
X3534467Y-13999698D01*
X3534467Y-13999698D02*
X3543991Y-14018746D01*
X3543991Y-14018746D02*
X3543991Y-14075888D01*
X3543991Y-14075888D02*
X3534467Y-14094936D01*
X3534467Y-14094936D02*
X3524943Y-14104460D01*
X3524943Y-14104460D02*
X3505896Y-14113984D01*
X3505896Y-14113984D02*
X3467801Y-14113984D01*
X3467801Y-14113984D02*
X3448753Y-14104460D01*
X3629705Y-14094936D02*
X3639229Y-14104460D01*
X3639229Y-14104460D02*
X3629705Y-14113984D01*
X3629705Y-14113984D02*
X3620182Y-14104460D01*
X3620182Y-14104460D02*
X3629705Y-14094936D01*
X3629705Y-14094936D02*
X3629705Y-14113984D01*
X3629705Y-13990174D02*
X3639229Y-13999698D01*
X3639229Y-13999698D02*
X3629705Y-14009222D01*
X3629705Y-14009222D02*
X3620182Y-13999698D01*
X3620182Y-13999698D02*
X3629705Y-13990174D01*
X3629705Y-13990174D02*
X3629705Y-14009222D01*
D10*
X1967500Y-14427500D02*
X1997500Y-14457500D01*
X1997500Y-14427500D02*
X1967500Y-14457500D01*
D12*
X2296372Y-14333984D02*
X2315420Y-14333984D01*
X2315420Y-14333984D02*
X2334467Y-14343508D01*
X2334467Y-14343508D02*
X2343991Y-14353031D01*
X2343991Y-14353031D02*
X2353515Y-14372079D01*
X2353515Y-14372079D02*
X2363039Y-14410174D01*
X2363039Y-14410174D02*
X2363039Y-14457793D01*
X2363039Y-14457793D02*
X2353515Y-14495888D01*
X2353515Y-14495888D02*
X2343991Y-14514936D01*
X2343991Y-14514936D02*
X2334467Y-14524460D01*
X2334467Y-14524460D02*
X2315420Y-14533984D01*
X2315420Y-14533984D02*
X2296372Y-14533984D01*
X2296372Y-14533984D02*
X2277324Y-14524460D01*
X2277324Y-14524460D02*
X2267801Y-14514936D01*
X2267801Y-14514936D02*
X2258277Y-14495888D01*
X2258277Y-14495888D02*
X2248753Y-14457793D01*
X2248753Y-14457793D02*
X2248753Y-14410174D01*
X2248753Y-14410174D02*
X2258277Y-14372079D01*
X2258277Y-14372079D02*
X2267801Y-14353031D01*
X2267801Y-14353031D02*
X2277324Y-14343508D01*
X2277324Y-14343508D02*
X2296372Y-14333984D01*
X2448753Y-14514936D02*
X2458277Y-14524460D01*
X2458277Y-14524460D02*
X2448753Y-14533984D01*
X2448753Y-14533984D02*
X2439229Y-14524460D01*
X2439229Y-14524460D02*
X2448753Y-14514936D01*
X2448753Y-14514936D02*
X2448753Y-14533984D01*
X2524944Y-14333984D02*
X2648753Y-14333984D01*
X2648753Y-14333984D02*
X2582086Y-14410174D01*
X2582086Y-14410174D02*
X2610658Y-14410174D01*
X2610658Y-14410174D02*
X2629705Y-14419698D01*
X2629705Y-14419698D02*
X2639229Y-14429222D01*
X2639229Y-14429222D02*
X2648753Y-14448269D01*
X2648753Y-14448269D02*
X2648753Y-14495888D01*
X2648753Y-14495888D02*
X2639229Y-14514936D01*
X2639229Y-14514936D02*
X2629705Y-14524460D01*
X2629705Y-14524460D02*
X2610658Y-14533984D01*
X2610658Y-14533984D02*
X2553515Y-14533984D01*
X2553515Y-14533984D02*
X2534467Y-14524460D01*
X2534467Y-14524460D02*
X2524944Y-14514936D01*
X2772563Y-14333984D02*
X2791610Y-14333984D01*
X2791610Y-14333984D02*
X2810658Y-14343508D01*
X2810658Y-14343508D02*
X2820182Y-14353031D01*
X2820182Y-14353031D02*
X2829705Y-14372079D01*
X2829705Y-14372079D02*
X2839229Y-14410174D01*
X2839229Y-14410174D02*
X2839229Y-14457793D01*
X2839229Y-14457793D02*
X2829705Y-14495888D01*
X2829705Y-14495888D02*
X2820182Y-14514936D01*
X2820182Y-14514936D02*
X2810658Y-14524460D01*
X2810658Y-14524460D02*
X2791610Y-14533984D01*
X2791610Y-14533984D02*
X2772563Y-14533984D01*
X2772563Y-14533984D02*
X2753515Y-14524460D01*
X2753515Y-14524460D02*
X2743991Y-14514936D01*
X2743991Y-14514936D02*
X2734467Y-14495888D01*
X2734467Y-14495888D02*
X2724944Y-14457793D01*
X2724944Y-14457793D02*
X2724944Y-14410174D01*
X2724944Y-14410174D02*
X2734467Y-14372079D01*
X2734467Y-14372079D02*
X2743991Y-14353031D01*
X2743991Y-14353031D02*
X2753515Y-14343508D01*
X2753515Y-14343508D02*
X2772563Y-14333984D01*
X2963039Y-14333984D02*
X2982086Y-14333984D01*
X2982086Y-14333984D02*
X3001134Y-14343508D01*
X3001134Y-14343508D02*
X3010658Y-14353031D01*
X3010658Y-14353031D02*
X3020182Y-14372079D01*
X3020182Y-14372079D02*
X3029705Y-14410174D01*
X3029705Y-14410174D02*
X3029705Y-14457793D01*
X3029705Y-14457793D02*
X3020182Y-14495888D01*
X3020182Y-14495888D02*
X3010658Y-14514936D01*
X3010658Y-14514936D02*
X3001134Y-14524460D01*
X3001134Y-14524460D02*
X2982086Y-14533984D01*
X2982086Y-14533984D02*
X2963039Y-14533984D01*
X2963039Y-14533984D02*
X2943991Y-14524460D01*
X2943991Y-14524460D02*
X2934467Y-14514936D01*
X2934467Y-14514936D02*
X2924943Y-14495888D01*
X2924943Y-14495888D02*
X2915420Y-14457793D01*
X2915420Y-14457793D02*
X2915420Y-14410174D01*
X2915420Y-14410174D02*
X2924943Y-14372079D01*
X2924943Y-14372079D02*
X2934467Y-14353031D01*
X2934467Y-14353031D02*
X2943991Y-14343508D01*
X2943991Y-14343508D02*
X2963039Y-14333984D01*
X3115420Y-14533984D02*
X3115420Y-14400650D01*
X3115420Y-14419698D02*
X3124943Y-14410174D01*
X3124943Y-14410174D02*
X3143991Y-14400650D01*
X3143991Y-14400650D02*
X3172563Y-14400650D01*
X3172563Y-14400650D02*
X3191610Y-14410174D01*
X3191610Y-14410174D02*
X3201134Y-14429222D01*
X3201134Y-14429222D02*
X3201134Y-14533984D01*
X3201134Y-14429222D02*
X3210658Y-14410174D01*
X3210658Y-14410174D02*
X3229705Y-14400650D01*
X3229705Y-14400650D02*
X3258277Y-14400650D01*
X3258277Y-14400650D02*
X3277324Y-14410174D01*
X3277324Y-14410174D02*
X3286848Y-14429222D01*
X3286848Y-14429222D02*
X3286848Y-14533984D01*
X3382086Y-14533984D02*
X3382086Y-14400650D01*
X3382086Y-14419698D02*
X3391610Y-14410174D01*
X3391610Y-14410174D02*
X3410658Y-14400650D01*
X3410658Y-14400650D02*
X3439229Y-14400650D01*
X3439229Y-14400650D02*
X3458277Y-14410174D01*
X3458277Y-14410174D02*
X3467801Y-14429222D01*
X3467801Y-14429222D02*
X3467801Y-14533984D01*
X3467801Y-14429222D02*
X3477324Y-14410174D01*
X3477324Y-14410174D02*
X3496372Y-14400650D01*
X3496372Y-14400650D02*
X3524943Y-14400650D01*
X3524943Y-14400650D02*
X3543991Y-14410174D01*
X3543991Y-14410174D02*
X3553515Y-14429222D01*
X3553515Y-14429222D02*
X3553515Y-14533984D01*
X3943991Y-14324460D02*
X3772563Y-14581603D01*
X4201134Y-14333984D02*
X4220182Y-14333984D01*
X4220182Y-14333984D02*
X4239229Y-14343508D01*
X4239229Y-14343508D02*
X4248753Y-14353031D01*
X4248753Y-14353031D02*
X4258277Y-14372079D01*
X4258277Y-14372079D02*
X4267801Y-14410174D01*
X4267801Y-14410174D02*
X4267801Y-14457793D01*
X4267801Y-14457793D02*
X4258277Y-14495888D01*
X4258277Y-14495888D02*
X4248753Y-14514936D01*
X4248753Y-14514936D02*
X4239229Y-14524460D01*
X4239229Y-14524460D02*
X4220182Y-14533984D01*
X4220182Y-14533984D02*
X4201134Y-14533984D01*
X4201134Y-14533984D02*
X4182086Y-14524460D01*
X4182086Y-14524460D02*
X4172563Y-14514936D01*
X4172563Y-14514936D02*
X4163039Y-14495888D01*
X4163039Y-14495888D02*
X4153515Y-14457793D01*
X4153515Y-14457793D02*
X4153515Y-14410174D01*
X4153515Y-14410174D02*
X4163039Y-14372079D01*
X4163039Y-14372079D02*
X4172563Y-14353031D01*
X4172563Y-14353031D02*
X4182086Y-14343508D01*
X4182086Y-14343508D02*
X4201134Y-14333984D01*
X4353515Y-14514936D02*
X4363039Y-14524460D01*
X4363039Y-14524460D02*
X4353515Y-14533984D01*
X4353515Y-14533984D02*
X4343991Y-14524460D01*
X4343991Y-14524460D02*
X4353515Y-14514936D01*
X4353515Y-14514936D02*
X4353515Y-14533984D01*
X4486848Y-14333984D02*
X4505896Y-14333984D01*
X4505896Y-14333984D02*
X4524944Y-14343508D01*
X4524944Y-14343508D02*
X4534468Y-14353031D01*
X4534468Y-14353031D02*
X4543991Y-14372079D01*
X4543991Y-14372079D02*
X4553515Y-14410174D01*
X4553515Y-14410174D02*
X4553515Y-14457793D01*
X4553515Y-14457793D02*
X4543991Y-14495888D01*
X4543991Y-14495888D02*
X4534468Y-14514936D01*
X4534468Y-14514936D02*
X4524944Y-14524460D01*
X4524944Y-14524460D02*
X4505896Y-14533984D01*
X4505896Y-14533984D02*
X4486848Y-14533984D01*
X4486848Y-14533984D02*
X4467801Y-14524460D01*
X4467801Y-14524460D02*
X4458277Y-14514936D01*
X4458277Y-14514936D02*
X4448753Y-14495888D01*
X4448753Y-14495888D02*
X4439229Y-14457793D01*
X4439229Y-14457793D02*
X4439229Y-14410174D01*
X4439229Y-14410174D02*
X4448753Y-14372079D01*
X4448753Y-14372079D02*
X4458277Y-14353031D01*
X4458277Y-14353031D02*
X4467801Y-14343508D01*
X4467801Y-14343508D02*
X4486848Y-14333984D01*
X4743991Y-14533984D02*
X4629706Y-14533984D01*
X4686848Y-14533984D02*
X4686848Y-14333984D01*
X4686848Y-14333984D02*
X4667801Y-14362555D01*
X4667801Y-14362555D02*
X4648753Y-14381603D01*
X4648753Y-14381603D02*
X4629706Y-14391127D01*
X4934468Y-14533984D02*
X4820182Y-14533984D01*
X4877325Y-14533984D02*
X4877325Y-14333984D01*
X4877325Y-14333984D02*
X4858277Y-14362555D01*
X4858277Y-14362555D02*
X4839229Y-14381603D01*
X4839229Y-14381603D02*
X4820182Y-14391127D01*
X5048753Y-14419698D02*
X5029706Y-14410174D01*
X5029706Y-14410174D02*
X5020182Y-14400650D01*
X5020182Y-14400650D02*
X5010658Y-14381603D01*
X5010658Y-14381603D02*
X5010658Y-14372079D01*
X5010658Y-14372079D02*
X5020182Y-14353031D01*
X5020182Y-14353031D02*
X5029706Y-14343508D01*
X5029706Y-14343508D02*
X5048753Y-14333984D01*
X5048753Y-14333984D02*
X5086849Y-14333984D01*
X5086849Y-14333984D02*
X5105896Y-14343508D01*
X5105896Y-14343508D02*
X5115420Y-14353031D01*
X5115420Y-14353031D02*
X5124944Y-14372079D01*
X5124944Y-14372079D02*
X5124944Y-14381603D01*
X5124944Y-14381603D02*
X5115420Y-14400650D01*
X5115420Y-14400650D02*
X5105896Y-14410174D01*
X5105896Y-14410174D02*
X5086849Y-14419698D01*
X5086849Y-14419698D02*
X5048753Y-14419698D01*
X5048753Y-14419698D02*
X5029706Y-14429222D01*
X5029706Y-14429222D02*
X5020182Y-14438746D01*
X5020182Y-14438746D02*
X5010658Y-14457793D01*
X5010658Y-14457793D02*
X5010658Y-14495888D01*
X5010658Y-14495888D02*
X5020182Y-14514936D01*
X5020182Y-14514936D02*
X5029706Y-14524460D01*
X5029706Y-14524460D02*
X5048753Y-14533984D01*
X5048753Y-14533984D02*
X5086849Y-14533984D01*
X5086849Y-14533984D02*
X5105896Y-14524460D01*
X5105896Y-14524460D02*
X5115420Y-14514936D01*
X5115420Y-14514936D02*
X5124944Y-14495888D01*
X5124944Y-14495888D02*
X5124944Y-14457793D01*
X5124944Y-14457793D02*
X5115420Y-14438746D01*
X5115420Y-14438746D02*
X5105896Y-14429222D01*
X5105896Y-14429222D02*
X5086849Y-14419698D01*
X5201134Y-14333984D02*
X5201134Y-14372079D01*
X5277325Y-14333984D02*
X5277325Y-14372079D01*
X5572563Y-14610174D02*
X5563039Y-14600650D01*
X5563039Y-14600650D02*
X5543991Y-14572079D01*
X5543991Y-14572079D02*
X5534468Y-14553031D01*
X5534468Y-14553031D02*
X5524944Y-14524460D01*
X5524944Y-14524460D02*
X5515420Y-14476841D01*
X5515420Y-14476841D02*
X5515420Y-14438746D01*
X5515420Y-14438746D02*
X5524944Y-14391127D01*
X5524944Y-14391127D02*
X5534468Y-14362555D01*
X5534468Y-14362555D02*
X5543991Y-14343508D01*
X5543991Y-14343508D02*
X5563039Y-14314936D01*
X5563039Y-14314936D02*
X5572563Y-14305412D01*
X5734468Y-14400650D02*
X5734468Y-14533984D01*
X5686848Y-14324460D02*
X5639229Y-14467317D01*
X5639229Y-14467317D02*
X5763039Y-14467317D01*
X5820182Y-14333984D02*
X5953515Y-14333984D01*
X5953515Y-14333984D02*
X5867801Y-14533984D01*
X6182087Y-14533984D02*
X6182087Y-14333984D01*
X6267801Y-14533984D02*
X6267801Y-14429222D01*
X6267801Y-14429222D02*
X6258277Y-14410174D01*
X6258277Y-14410174D02*
X6239230Y-14400650D01*
X6239230Y-14400650D02*
X6210658Y-14400650D01*
X6210658Y-14400650D02*
X6191610Y-14410174D01*
X6191610Y-14410174D02*
X6182087Y-14419698D01*
X6391610Y-14533984D02*
X6372563Y-14524460D01*
X6372563Y-14524460D02*
X6363039Y-14514936D01*
X6363039Y-14514936D02*
X6353515Y-14495888D01*
X6353515Y-14495888D02*
X6353515Y-14438746D01*
X6353515Y-14438746D02*
X6363039Y-14419698D01*
X6363039Y-14419698D02*
X6372563Y-14410174D01*
X6372563Y-14410174D02*
X6391610Y-14400650D01*
X6391610Y-14400650D02*
X6420182Y-14400650D01*
X6420182Y-14400650D02*
X6439230Y-14410174D01*
X6439230Y-14410174D02*
X6448753Y-14419698D01*
X6448753Y-14419698D02*
X6458277Y-14438746D01*
X6458277Y-14438746D02*
X6458277Y-14495888D01*
X6458277Y-14495888D02*
X6448753Y-14514936D01*
X6448753Y-14514936D02*
X6439230Y-14524460D01*
X6439230Y-14524460D02*
X6420182Y-14533984D01*
X6420182Y-14533984D02*
X6391610Y-14533984D01*
X6572563Y-14533984D02*
X6553515Y-14524460D01*
X6553515Y-14524460D02*
X6543991Y-14505412D01*
X6543991Y-14505412D02*
X6543991Y-14333984D01*
X6724944Y-14524460D02*
X6705896Y-14533984D01*
X6705896Y-14533984D02*
X6667801Y-14533984D01*
X6667801Y-14533984D02*
X6648753Y-14524460D01*
X6648753Y-14524460D02*
X6639230Y-14505412D01*
X6639230Y-14505412D02*
X6639230Y-14429222D01*
X6639230Y-14429222D02*
X6648753Y-14410174D01*
X6648753Y-14410174D02*
X6667801Y-14400650D01*
X6667801Y-14400650D02*
X6705896Y-14400650D01*
X6705896Y-14400650D02*
X6724944Y-14410174D01*
X6724944Y-14410174D02*
X6734468Y-14429222D01*
X6734468Y-14429222D02*
X6734468Y-14448269D01*
X6734468Y-14448269D02*
X6639230Y-14467317D01*
X6810658Y-14524460D02*
X6829706Y-14533984D01*
X6829706Y-14533984D02*
X6867801Y-14533984D01*
X6867801Y-14533984D02*
X6886849Y-14524460D01*
X6886849Y-14524460D02*
X6896372Y-14505412D01*
X6896372Y-14505412D02*
X6896372Y-14495888D01*
X6896372Y-14495888D02*
X6886849Y-14476841D01*
X6886849Y-14476841D02*
X6867801Y-14467317D01*
X6867801Y-14467317D02*
X6839230Y-14467317D01*
X6839230Y-14467317D02*
X6820182Y-14457793D01*
X6820182Y-14457793D02*
X6810658Y-14438746D01*
X6810658Y-14438746D02*
X6810658Y-14429222D01*
X6810658Y-14429222D02*
X6820182Y-14410174D01*
X6820182Y-14410174D02*
X6839230Y-14400650D01*
X6839230Y-14400650D02*
X6867801Y-14400650D01*
X6867801Y-14400650D02*
X6886849Y-14410174D01*
X6963039Y-14610174D02*
X6972563Y-14600650D01*
X6972563Y-14600650D02*
X6991611Y-14572079D01*
X6991611Y-14572079D02*
X7001134Y-14553031D01*
X7001134Y-14553031D02*
X7010658Y-14524460D01*
X7010658Y-14524460D02*
X7020182Y-14476841D01*
X7020182Y-14476841D02*
X7020182Y-14438746D01*
X7020182Y-14438746D02*
X7010658Y-14391127D01*
X7010658Y-14391127D02*
X7001134Y-14362555D01*
X7001134Y-14362555D02*
X6991611Y-14343508D01*
X6991611Y-14343508D02*
X6972563Y-14314936D01*
X6972563Y-14314936D02*
X6963039Y-14305412D01*
D10*
X1997500Y-14706500D02*
G75*
G02*
X1907500Y-14706500I-45000J0D01*
G01*
X1907500Y-14706500D02*
G75*
G02*
X1997500Y-14706500I45000J0D01*
G01*
D12*
X2296372Y-14597984D02*
X2315420Y-14597984D01*
X2315420Y-14597984D02*
X2334467Y-14607508D01*
X2334467Y-14607508D02*
X2343991Y-14617031D01*
X2343991Y-14617031D02*
X2353515Y-14636079D01*
X2353515Y-14636079D02*
X2363039Y-14674174D01*
X2363039Y-14674174D02*
X2363039Y-14721793D01*
X2363039Y-14721793D02*
X2353515Y-14759888D01*
X2353515Y-14759888D02*
X2343991Y-14778936D01*
X2343991Y-14778936D02*
X2334467Y-14788460D01*
X2334467Y-14788460D02*
X2315420Y-14797984D01*
X2315420Y-14797984D02*
X2296372Y-14797984D01*
X2296372Y-14797984D02*
X2277324Y-14788460D01*
X2277324Y-14788460D02*
X2267801Y-14778936D01*
X2267801Y-14778936D02*
X2258277Y-14759888D01*
X2258277Y-14759888D02*
X2248753Y-14721793D01*
X2248753Y-14721793D02*
X2248753Y-14674174D01*
X2248753Y-14674174D02*
X2258277Y-14636079D01*
X2258277Y-14636079D02*
X2267801Y-14617031D01*
X2267801Y-14617031D02*
X2277324Y-14607508D01*
X2277324Y-14607508D02*
X2296372Y-14597984D01*
X2448753Y-14778936D02*
X2458277Y-14788460D01*
X2458277Y-14788460D02*
X2448753Y-14797984D01*
X2448753Y-14797984D02*
X2439229Y-14788460D01*
X2439229Y-14788460D02*
X2448753Y-14778936D01*
X2448753Y-14778936D02*
X2448753Y-14797984D01*
X2553515Y-14797984D02*
X2591610Y-14797984D01*
X2591610Y-14797984D02*
X2610658Y-14788460D01*
X2610658Y-14788460D02*
X2620182Y-14778936D01*
X2620182Y-14778936D02*
X2639229Y-14750365D01*
X2639229Y-14750365D02*
X2648753Y-14712269D01*
X2648753Y-14712269D02*
X2648753Y-14636079D01*
X2648753Y-14636079D02*
X2639229Y-14617031D01*
X2639229Y-14617031D02*
X2629705Y-14607508D01*
X2629705Y-14607508D02*
X2610658Y-14597984D01*
X2610658Y-14597984D02*
X2572563Y-14597984D01*
X2572563Y-14597984D02*
X2553515Y-14607508D01*
X2553515Y-14607508D02*
X2543991Y-14617031D01*
X2543991Y-14617031D02*
X2534467Y-14636079D01*
X2534467Y-14636079D02*
X2534467Y-14683698D01*
X2534467Y-14683698D02*
X2543991Y-14702746D01*
X2543991Y-14702746D02*
X2553515Y-14712269D01*
X2553515Y-14712269D02*
X2572563Y-14721793D01*
X2572563Y-14721793D02*
X2610658Y-14721793D01*
X2610658Y-14721793D02*
X2629705Y-14712269D01*
X2629705Y-14712269D02*
X2639229Y-14702746D01*
X2639229Y-14702746D02*
X2648753Y-14683698D01*
X2772563Y-14597984D02*
X2791610Y-14597984D01*
X2791610Y-14597984D02*
X2810658Y-14607508D01*
X2810658Y-14607508D02*
X2820182Y-14617031D01*
X2820182Y-14617031D02*
X2829705Y-14636079D01*
X2829705Y-14636079D02*
X2839229Y-14674174D01*
X2839229Y-14674174D02*
X2839229Y-14721793D01*
X2839229Y-14721793D02*
X2829705Y-14759888D01*
X2829705Y-14759888D02*
X2820182Y-14778936D01*
X2820182Y-14778936D02*
X2810658Y-14788460D01*
X2810658Y-14788460D02*
X2791610Y-14797984D01*
X2791610Y-14797984D02*
X2772563Y-14797984D01*
X2772563Y-14797984D02*
X2753515Y-14788460D01*
X2753515Y-14788460D02*
X2743991Y-14778936D01*
X2743991Y-14778936D02*
X2734467Y-14759888D01*
X2734467Y-14759888D02*
X2724944Y-14721793D01*
X2724944Y-14721793D02*
X2724944Y-14674174D01*
X2724944Y-14674174D02*
X2734467Y-14636079D01*
X2734467Y-14636079D02*
X2743991Y-14617031D01*
X2743991Y-14617031D02*
X2753515Y-14607508D01*
X2753515Y-14607508D02*
X2772563Y-14597984D01*
X2963039Y-14597984D02*
X2982086Y-14597984D01*
X2982086Y-14597984D02*
X3001134Y-14607508D01*
X3001134Y-14607508D02*
X3010658Y-14617031D01*
X3010658Y-14617031D02*
X3020182Y-14636079D01*
X3020182Y-14636079D02*
X3029705Y-14674174D01*
X3029705Y-14674174D02*
X3029705Y-14721793D01*
X3029705Y-14721793D02*
X3020182Y-14759888D01*
X3020182Y-14759888D02*
X3010658Y-14778936D01*
X3010658Y-14778936D02*
X3001134Y-14788460D01*
X3001134Y-14788460D02*
X2982086Y-14797984D01*
X2982086Y-14797984D02*
X2963039Y-14797984D01*
X2963039Y-14797984D02*
X2943991Y-14788460D01*
X2943991Y-14788460D02*
X2934467Y-14778936D01*
X2934467Y-14778936D02*
X2924943Y-14759888D01*
X2924943Y-14759888D02*
X2915420Y-14721793D01*
X2915420Y-14721793D02*
X2915420Y-14674174D01*
X2915420Y-14674174D02*
X2924943Y-14636079D01*
X2924943Y-14636079D02*
X2934467Y-14617031D01*
X2934467Y-14617031D02*
X2943991Y-14607508D01*
X2943991Y-14607508D02*
X2963039Y-14597984D01*
X3115420Y-14797984D02*
X3115420Y-14664650D01*
X3115420Y-14683698D02*
X3124943Y-14674174D01*
X3124943Y-14674174D02*
X3143991Y-14664650D01*
X3143991Y-14664650D02*
X3172563Y-14664650D01*
X3172563Y-14664650D02*
X3191610Y-14674174D01*
X3191610Y-14674174D02*
X3201134Y-14693222D01*
X3201134Y-14693222D02*
X3201134Y-14797984D01*
X3201134Y-14693222D02*
X3210658Y-14674174D01*
X3210658Y-14674174D02*
X3229705Y-14664650D01*
X3229705Y-14664650D02*
X3258277Y-14664650D01*
X3258277Y-14664650D02*
X3277324Y-14674174D01*
X3277324Y-14674174D02*
X3286848Y-14693222D01*
X3286848Y-14693222D02*
X3286848Y-14797984D01*
X3382086Y-14797984D02*
X3382086Y-14664650D01*
X3382086Y-14683698D02*
X3391610Y-14674174D01*
X3391610Y-14674174D02*
X3410658Y-14664650D01*
X3410658Y-14664650D02*
X3439229Y-14664650D01*
X3439229Y-14664650D02*
X3458277Y-14674174D01*
X3458277Y-14674174D02*
X3467801Y-14693222D01*
X3467801Y-14693222D02*
X3467801Y-14797984D01*
X3467801Y-14693222D02*
X3477324Y-14674174D01*
X3477324Y-14674174D02*
X3496372Y-14664650D01*
X3496372Y-14664650D02*
X3524943Y-14664650D01*
X3524943Y-14664650D02*
X3543991Y-14674174D01*
X3543991Y-14674174D02*
X3553515Y-14693222D01*
X3553515Y-14693222D02*
X3553515Y-14797984D01*
X3943991Y-14588460D02*
X3772563Y-14845603D01*
X4201134Y-14597984D02*
X4220182Y-14597984D01*
X4220182Y-14597984D02*
X4239229Y-14607508D01*
X4239229Y-14607508D02*
X4248753Y-14617031D01*
X4248753Y-14617031D02*
X4258277Y-14636079D01*
X4258277Y-14636079D02*
X4267801Y-14674174D01*
X4267801Y-14674174D02*
X4267801Y-14721793D01*
X4267801Y-14721793D02*
X4258277Y-14759888D01*
X4258277Y-14759888D02*
X4248753Y-14778936D01*
X4248753Y-14778936D02*
X4239229Y-14788460D01*
X4239229Y-14788460D02*
X4220182Y-14797984D01*
X4220182Y-14797984D02*
X4201134Y-14797984D01*
X4201134Y-14797984D02*
X4182086Y-14788460D01*
X4182086Y-14788460D02*
X4172563Y-14778936D01*
X4172563Y-14778936D02*
X4163039Y-14759888D01*
X4163039Y-14759888D02*
X4153515Y-14721793D01*
X4153515Y-14721793D02*
X4153515Y-14674174D01*
X4153515Y-14674174D02*
X4163039Y-14636079D01*
X4163039Y-14636079D02*
X4172563Y-14617031D01*
X4172563Y-14617031D02*
X4182086Y-14607508D01*
X4182086Y-14607508D02*
X4201134Y-14597984D01*
X4353515Y-14778936D02*
X4363039Y-14788460D01*
X4363039Y-14788460D02*
X4353515Y-14797984D01*
X4353515Y-14797984D02*
X4343991Y-14788460D01*
X4343991Y-14788460D02*
X4353515Y-14778936D01*
X4353515Y-14778936D02*
X4353515Y-14797984D01*
X4486848Y-14597984D02*
X4505896Y-14597984D01*
X4505896Y-14597984D02*
X4524944Y-14607508D01*
X4524944Y-14607508D02*
X4534468Y-14617031D01*
X4534468Y-14617031D02*
X4543991Y-14636079D01*
X4543991Y-14636079D02*
X4553515Y-14674174D01*
X4553515Y-14674174D02*
X4553515Y-14721793D01*
X4553515Y-14721793D02*
X4543991Y-14759888D01*
X4543991Y-14759888D02*
X4534468Y-14778936D01*
X4534468Y-14778936D02*
X4524944Y-14788460D01*
X4524944Y-14788460D02*
X4505896Y-14797984D01*
X4505896Y-14797984D02*
X4486848Y-14797984D01*
X4486848Y-14797984D02*
X4467801Y-14788460D01*
X4467801Y-14788460D02*
X4458277Y-14778936D01*
X4458277Y-14778936D02*
X4448753Y-14759888D01*
X4448753Y-14759888D02*
X4439229Y-14721793D01*
X4439229Y-14721793D02*
X4439229Y-14674174D01*
X4439229Y-14674174D02*
X4448753Y-14636079D01*
X4448753Y-14636079D02*
X4458277Y-14617031D01*
X4458277Y-14617031D02*
X4467801Y-14607508D01*
X4467801Y-14607508D02*
X4486848Y-14597984D01*
X4620182Y-14597984D02*
X4743991Y-14597984D01*
X4743991Y-14597984D02*
X4677325Y-14674174D01*
X4677325Y-14674174D02*
X4705896Y-14674174D01*
X4705896Y-14674174D02*
X4724944Y-14683698D01*
X4724944Y-14683698D02*
X4734468Y-14693222D01*
X4734468Y-14693222D02*
X4743991Y-14712269D01*
X4743991Y-14712269D02*
X4743991Y-14759888D01*
X4743991Y-14759888D02*
X4734468Y-14778936D01*
X4734468Y-14778936D02*
X4724944Y-14788460D01*
X4724944Y-14788460D02*
X4705896Y-14797984D01*
X4705896Y-14797984D02*
X4648753Y-14797984D01*
X4648753Y-14797984D02*
X4629706Y-14788460D01*
X4629706Y-14788460D02*
X4620182Y-14778936D01*
X4924944Y-14597984D02*
X4829706Y-14597984D01*
X4829706Y-14597984D02*
X4820182Y-14693222D01*
X4820182Y-14693222D02*
X4829706Y-14683698D01*
X4829706Y-14683698D02*
X4848753Y-14674174D01*
X4848753Y-14674174D02*
X4896372Y-14674174D01*
X4896372Y-14674174D02*
X4915420Y-14683698D01*
X4915420Y-14683698D02*
X4924944Y-14693222D01*
X4924944Y-14693222D02*
X4934468Y-14712269D01*
X4934468Y-14712269D02*
X4934468Y-14759888D01*
X4934468Y-14759888D02*
X4924944Y-14778936D01*
X4924944Y-14778936D02*
X4915420Y-14788460D01*
X4915420Y-14788460D02*
X4896372Y-14797984D01*
X4896372Y-14797984D02*
X4848753Y-14797984D01*
X4848753Y-14797984D02*
X4829706Y-14788460D01*
X4829706Y-14788460D02*
X4820182Y-14778936D01*
X5105896Y-14664650D02*
X5105896Y-14797984D01*
X5058277Y-14588460D02*
X5010658Y-14731317D01*
X5010658Y-14731317D02*
X5134468Y-14731317D01*
X5201134Y-14597984D02*
X5201134Y-14636079D01*
X5277325Y-14597984D02*
X5277325Y-14636079D01*
X5572563Y-14874174D02*
X5563039Y-14864650D01*
X5563039Y-14864650D02*
X5543991Y-14836079D01*
X5543991Y-14836079D02*
X5534468Y-14817031D01*
X5534468Y-14817031D02*
X5524944Y-14788460D01*
X5524944Y-14788460D02*
X5515420Y-14740841D01*
X5515420Y-14740841D02*
X5515420Y-14702746D01*
X5515420Y-14702746D02*
X5524944Y-14655127D01*
X5524944Y-14655127D02*
X5534468Y-14626555D01*
X5534468Y-14626555D02*
X5543991Y-14607508D01*
X5543991Y-14607508D02*
X5563039Y-14578936D01*
X5563039Y-14578936D02*
X5572563Y-14569412D01*
X5734468Y-14597984D02*
X5696372Y-14597984D01*
X5696372Y-14597984D02*
X5677325Y-14607508D01*
X5677325Y-14607508D02*
X5667801Y-14617031D01*
X5667801Y-14617031D02*
X5648753Y-14645603D01*
X5648753Y-14645603D02*
X5639229Y-14683698D01*
X5639229Y-14683698D02*
X5639229Y-14759888D01*
X5639229Y-14759888D02*
X5648753Y-14778936D01*
X5648753Y-14778936D02*
X5658277Y-14788460D01*
X5658277Y-14788460D02*
X5677325Y-14797984D01*
X5677325Y-14797984D02*
X5715420Y-14797984D01*
X5715420Y-14797984D02*
X5734468Y-14788460D01*
X5734468Y-14788460D02*
X5743991Y-14778936D01*
X5743991Y-14778936D02*
X5753515Y-14759888D01*
X5753515Y-14759888D02*
X5753515Y-14712269D01*
X5753515Y-14712269D02*
X5743991Y-14693222D01*
X5743991Y-14693222D02*
X5734468Y-14683698D01*
X5734468Y-14683698D02*
X5715420Y-14674174D01*
X5715420Y-14674174D02*
X5677325Y-14674174D01*
X5677325Y-14674174D02*
X5658277Y-14683698D01*
X5658277Y-14683698D02*
X5648753Y-14693222D01*
X5648753Y-14693222D02*
X5639229Y-14712269D01*
X5924944Y-14664650D02*
X5924944Y-14797984D01*
X5877325Y-14588460D02*
X5829706Y-14731317D01*
X5829706Y-14731317D02*
X5953515Y-14731317D01*
X6182087Y-14797984D02*
X6182087Y-14597984D01*
X6267801Y-14797984D02*
X6267801Y-14693222D01*
X6267801Y-14693222D02*
X6258277Y-14674174D01*
X6258277Y-14674174D02*
X6239230Y-14664650D01*
X6239230Y-14664650D02*
X6210658Y-14664650D01*
X6210658Y-14664650D02*
X6191610Y-14674174D01*
X6191610Y-14674174D02*
X6182087Y-14683698D01*
X6391610Y-14797984D02*
X6372563Y-14788460D01*
X6372563Y-14788460D02*
X6363039Y-14778936D01*
X6363039Y-14778936D02*
X6353515Y-14759888D01*
X6353515Y-14759888D02*
X6353515Y-14702746D01*
X6353515Y-14702746D02*
X6363039Y-14683698D01*
X6363039Y-14683698D02*
X6372563Y-14674174D01*
X6372563Y-14674174D02*
X6391610Y-14664650D01*
X6391610Y-14664650D02*
X6420182Y-14664650D01*
X6420182Y-14664650D02*
X6439230Y-14674174D01*
X6439230Y-14674174D02*
X6448753Y-14683698D01*
X6448753Y-14683698D02*
X6458277Y-14702746D01*
X6458277Y-14702746D02*
X6458277Y-14759888D01*
X6458277Y-14759888D02*
X6448753Y-14778936D01*
X6448753Y-14778936D02*
X6439230Y-14788460D01*
X6439230Y-14788460D02*
X6420182Y-14797984D01*
X6420182Y-14797984D02*
X6391610Y-14797984D01*
X6572563Y-14797984D02*
X6553515Y-14788460D01*
X6553515Y-14788460D02*
X6543991Y-14769412D01*
X6543991Y-14769412D02*
X6543991Y-14597984D01*
X6724944Y-14788460D02*
X6705896Y-14797984D01*
X6705896Y-14797984D02*
X6667801Y-14797984D01*
X6667801Y-14797984D02*
X6648753Y-14788460D01*
X6648753Y-14788460D02*
X6639230Y-14769412D01*
X6639230Y-14769412D02*
X6639230Y-14693222D01*
X6639230Y-14693222D02*
X6648753Y-14674174D01*
X6648753Y-14674174D02*
X6667801Y-14664650D01*
X6667801Y-14664650D02*
X6705896Y-14664650D01*
X6705896Y-14664650D02*
X6724944Y-14674174D01*
X6724944Y-14674174D02*
X6734468Y-14693222D01*
X6734468Y-14693222D02*
X6734468Y-14712269D01*
X6734468Y-14712269D02*
X6639230Y-14731317D01*
X6810658Y-14788460D02*
X6829706Y-14797984D01*
X6829706Y-14797984D02*
X6867801Y-14797984D01*
X6867801Y-14797984D02*
X6886849Y-14788460D01*
X6886849Y-14788460D02*
X6896372Y-14769412D01*
X6896372Y-14769412D02*
X6896372Y-14759888D01*
X6896372Y-14759888D02*
X6886849Y-14740841D01*
X6886849Y-14740841D02*
X6867801Y-14731317D01*
X6867801Y-14731317D02*
X6839230Y-14731317D01*
X6839230Y-14731317D02*
X6820182Y-14721793D01*
X6820182Y-14721793D02*
X6810658Y-14702746D01*
X6810658Y-14702746D02*
X6810658Y-14693222D01*
X6810658Y-14693222D02*
X6820182Y-14674174D01*
X6820182Y-14674174D02*
X6839230Y-14664650D01*
X6839230Y-14664650D02*
X6867801Y-14664650D01*
X6867801Y-14664650D02*
X6886849Y-14674174D01*
X6963039Y-14874174D02*
X6972563Y-14864650D01*
X6972563Y-14864650D02*
X6991611Y-14836079D01*
X6991611Y-14836079D02*
X7001134Y-14817031D01*
X7001134Y-14817031D02*
X7010658Y-14788460D01*
X7010658Y-14788460D02*
X7020182Y-14740841D01*
X7020182Y-14740841D02*
X7020182Y-14702746D01*
X7020182Y-14702746D02*
X7010658Y-14655127D01*
X7010658Y-14655127D02*
X7001134Y-14626555D01*
X7001134Y-14626555D02*
X6991611Y-14607508D01*
X6991611Y-14607508D02*
X6972563Y-14578936D01*
X6972563Y-14578936D02*
X6963039Y-14569412D01*
D10*
X1947500Y-14920500D02*
X1947500Y-15020500D01*
X1897500Y-14970500D02*
X1997500Y-14970500D01*
D12*
X2363039Y-15061984D02*
X2248753Y-15061984D01*
X2305896Y-15061984D02*
X2305896Y-14861984D01*
X2305896Y-14861984D02*
X2286848Y-14890555D01*
X2286848Y-14890555D02*
X2267801Y-14909603D01*
X2267801Y-14909603D02*
X2248753Y-14919127D01*
X2448753Y-15042936D02*
X2458277Y-15052460D01*
X2458277Y-15052460D02*
X2448753Y-15061984D01*
X2448753Y-15061984D02*
X2439229Y-15052460D01*
X2439229Y-15052460D02*
X2448753Y-15042936D01*
X2448753Y-15042936D02*
X2448753Y-15061984D01*
X2582086Y-14861984D02*
X2601134Y-14861984D01*
X2601134Y-14861984D02*
X2620182Y-14871508D01*
X2620182Y-14871508D02*
X2629705Y-14881031D01*
X2629705Y-14881031D02*
X2639229Y-14900079D01*
X2639229Y-14900079D02*
X2648753Y-14938174D01*
X2648753Y-14938174D02*
X2648753Y-14985793D01*
X2648753Y-14985793D02*
X2639229Y-15023888D01*
X2639229Y-15023888D02*
X2629705Y-15042936D01*
X2629705Y-15042936D02*
X2620182Y-15052460D01*
X2620182Y-15052460D02*
X2601134Y-15061984D01*
X2601134Y-15061984D02*
X2582086Y-15061984D01*
X2582086Y-15061984D02*
X2563039Y-15052460D01*
X2563039Y-15052460D02*
X2553515Y-15042936D01*
X2553515Y-15042936D02*
X2543991Y-15023888D01*
X2543991Y-15023888D02*
X2534467Y-14985793D01*
X2534467Y-14985793D02*
X2534467Y-14938174D01*
X2534467Y-14938174D02*
X2543991Y-14900079D01*
X2543991Y-14900079D02*
X2553515Y-14881031D01*
X2553515Y-14881031D02*
X2563039Y-14871508D01*
X2563039Y-14871508D02*
X2582086Y-14861984D01*
X2772563Y-14861984D02*
X2791610Y-14861984D01*
X2791610Y-14861984D02*
X2810658Y-14871508D01*
X2810658Y-14871508D02*
X2820182Y-14881031D01*
X2820182Y-14881031D02*
X2829705Y-14900079D01*
X2829705Y-14900079D02*
X2839229Y-14938174D01*
X2839229Y-14938174D02*
X2839229Y-14985793D01*
X2839229Y-14985793D02*
X2829705Y-15023888D01*
X2829705Y-15023888D02*
X2820182Y-15042936D01*
X2820182Y-15042936D02*
X2810658Y-15052460D01*
X2810658Y-15052460D02*
X2791610Y-15061984D01*
X2791610Y-15061984D02*
X2772563Y-15061984D01*
X2772563Y-15061984D02*
X2753515Y-15052460D01*
X2753515Y-15052460D02*
X2743991Y-15042936D01*
X2743991Y-15042936D02*
X2734467Y-15023888D01*
X2734467Y-15023888D02*
X2724944Y-14985793D01*
X2724944Y-14985793D02*
X2724944Y-14938174D01*
X2724944Y-14938174D02*
X2734467Y-14900079D01*
X2734467Y-14900079D02*
X2743991Y-14881031D01*
X2743991Y-14881031D02*
X2753515Y-14871508D01*
X2753515Y-14871508D02*
X2772563Y-14861984D01*
X2963039Y-14861984D02*
X2982086Y-14861984D01*
X2982086Y-14861984D02*
X3001134Y-14871508D01*
X3001134Y-14871508D02*
X3010658Y-14881031D01*
X3010658Y-14881031D02*
X3020182Y-14900079D01*
X3020182Y-14900079D02*
X3029705Y-14938174D01*
X3029705Y-14938174D02*
X3029705Y-14985793D01*
X3029705Y-14985793D02*
X3020182Y-15023888D01*
X3020182Y-15023888D02*
X3010658Y-15042936D01*
X3010658Y-15042936D02*
X3001134Y-15052460D01*
X3001134Y-15052460D02*
X2982086Y-15061984D01*
X2982086Y-15061984D02*
X2963039Y-15061984D01*
X2963039Y-15061984D02*
X2943991Y-15052460D01*
X2943991Y-15052460D02*
X2934467Y-15042936D01*
X2934467Y-15042936D02*
X2924943Y-15023888D01*
X2924943Y-15023888D02*
X2915420Y-14985793D01*
X2915420Y-14985793D02*
X2915420Y-14938174D01*
X2915420Y-14938174D02*
X2924943Y-14900079D01*
X2924943Y-14900079D02*
X2934467Y-14881031D01*
X2934467Y-14881031D02*
X2943991Y-14871508D01*
X2943991Y-14871508D02*
X2963039Y-14861984D01*
X3115420Y-15061984D02*
X3115420Y-14928650D01*
X3115420Y-14947698D02*
X3124943Y-14938174D01*
X3124943Y-14938174D02*
X3143991Y-14928650D01*
X3143991Y-14928650D02*
X3172563Y-14928650D01*
X3172563Y-14928650D02*
X3191610Y-14938174D01*
X3191610Y-14938174D02*
X3201134Y-14957222D01*
X3201134Y-14957222D02*
X3201134Y-15061984D01*
X3201134Y-14957222D02*
X3210658Y-14938174D01*
X3210658Y-14938174D02*
X3229705Y-14928650D01*
X3229705Y-14928650D02*
X3258277Y-14928650D01*
X3258277Y-14928650D02*
X3277324Y-14938174D01*
X3277324Y-14938174D02*
X3286848Y-14957222D01*
X3286848Y-14957222D02*
X3286848Y-15061984D01*
X3382086Y-15061984D02*
X3382086Y-14928650D01*
X3382086Y-14947698D02*
X3391610Y-14938174D01*
X3391610Y-14938174D02*
X3410658Y-14928650D01*
X3410658Y-14928650D02*
X3439229Y-14928650D01*
X3439229Y-14928650D02*
X3458277Y-14938174D01*
X3458277Y-14938174D02*
X3467801Y-14957222D01*
X3467801Y-14957222D02*
X3467801Y-15061984D01*
X3467801Y-14957222D02*
X3477324Y-14938174D01*
X3477324Y-14938174D02*
X3496372Y-14928650D01*
X3496372Y-14928650D02*
X3524943Y-14928650D01*
X3524943Y-14928650D02*
X3543991Y-14938174D01*
X3543991Y-14938174D02*
X3553515Y-14957222D01*
X3553515Y-14957222D02*
X3553515Y-15061984D01*
X3943991Y-14852460D02*
X3772563Y-15109603D01*
X4201134Y-14861984D02*
X4220182Y-14861984D01*
X4220182Y-14861984D02*
X4239229Y-14871508D01*
X4239229Y-14871508D02*
X4248753Y-14881031D01*
X4248753Y-14881031D02*
X4258277Y-14900079D01*
X4258277Y-14900079D02*
X4267801Y-14938174D01*
X4267801Y-14938174D02*
X4267801Y-14985793D01*
X4267801Y-14985793D02*
X4258277Y-15023888D01*
X4258277Y-15023888D02*
X4248753Y-15042936D01*
X4248753Y-15042936D02*
X4239229Y-15052460D01*
X4239229Y-15052460D02*
X4220182Y-15061984D01*
X4220182Y-15061984D02*
X4201134Y-15061984D01*
X4201134Y-15061984D02*
X4182086Y-15052460D01*
X4182086Y-15052460D02*
X4172563Y-15042936D01*
X4172563Y-15042936D02*
X4163039Y-15023888D01*
X4163039Y-15023888D02*
X4153515Y-14985793D01*
X4153515Y-14985793D02*
X4153515Y-14938174D01*
X4153515Y-14938174D02*
X4163039Y-14900079D01*
X4163039Y-14900079D02*
X4172563Y-14881031D01*
X4172563Y-14881031D02*
X4182086Y-14871508D01*
X4182086Y-14871508D02*
X4201134Y-14861984D01*
X4353515Y-15042936D02*
X4363039Y-15052460D01*
X4363039Y-15052460D02*
X4353515Y-15061984D01*
X4353515Y-15061984D02*
X4343991Y-15052460D01*
X4343991Y-15052460D02*
X4353515Y-15042936D01*
X4353515Y-15042936D02*
X4353515Y-15061984D01*
X4486848Y-14861984D02*
X4505896Y-14861984D01*
X4505896Y-14861984D02*
X4524944Y-14871508D01*
X4524944Y-14871508D02*
X4534468Y-14881031D01*
X4534468Y-14881031D02*
X4543991Y-14900079D01*
X4543991Y-14900079D02*
X4553515Y-14938174D01*
X4553515Y-14938174D02*
X4553515Y-14985793D01*
X4553515Y-14985793D02*
X4543991Y-15023888D01*
X4543991Y-15023888D02*
X4534468Y-15042936D01*
X4534468Y-15042936D02*
X4524944Y-15052460D01*
X4524944Y-15052460D02*
X4505896Y-15061984D01*
X4505896Y-15061984D02*
X4486848Y-15061984D01*
X4486848Y-15061984D02*
X4467801Y-15052460D01*
X4467801Y-15052460D02*
X4458277Y-15042936D01*
X4458277Y-15042936D02*
X4448753Y-15023888D01*
X4448753Y-15023888D02*
X4439229Y-14985793D01*
X4439229Y-14985793D02*
X4439229Y-14938174D01*
X4439229Y-14938174D02*
X4448753Y-14900079D01*
X4448753Y-14900079D02*
X4458277Y-14881031D01*
X4458277Y-14881031D02*
X4467801Y-14871508D01*
X4467801Y-14871508D02*
X4486848Y-14861984D01*
X4620182Y-14861984D02*
X4743991Y-14861984D01*
X4743991Y-14861984D02*
X4677325Y-14938174D01*
X4677325Y-14938174D02*
X4705896Y-14938174D01*
X4705896Y-14938174D02*
X4724944Y-14947698D01*
X4724944Y-14947698D02*
X4734468Y-14957222D01*
X4734468Y-14957222D02*
X4743991Y-14976269D01*
X4743991Y-14976269D02*
X4743991Y-15023888D01*
X4743991Y-15023888D02*
X4734468Y-15042936D01*
X4734468Y-15042936D02*
X4724944Y-15052460D01*
X4724944Y-15052460D02*
X4705896Y-15061984D01*
X4705896Y-15061984D02*
X4648753Y-15061984D01*
X4648753Y-15061984D02*
X4629706Y-15052460D01*
X4629706Y-15052460D02*
X4620182Y-15042936D01*
X4839229Y-15061984D02*
X4877325Y-15061984D01*
X4877325Y-15061984D02*
X4896372Y-15052460D01*
X4896372Y-15052460D02*
X4905896Y-15042936D01*
X4905896Y-15042936D02*
X4924944Y-15014365D01*
X4924944Y-15014365D02*
X4934468Y-14976269D01*
X4934468Y-14976269D02*
X4934468Y-14900079D01*
X4934468Y-14900079D02*
X4924944Y-14881031D01*
X4924944Y-14881031D02*
X4915420Y-14871508D01*
X4915420Y-14871508D02*
X4896372Y-14861984D01*
X4896372Y-14861984D02*
X4858277Y-14861984D01*
X4858277Y-14861984D02*
X4839229Y-14871508D01*
X4839229Y-14871508D02*
X4829706Y-14881031D01*
X4829706Y-14881031D02*
X4820182Y-14900079D01*
X4820182Y-14900079D02*
X4820182Y-14947698D01*
X4820182Y-14947698D02*
X4829706Y-14966746D01*
X4829706Y-14966746D02*
X4839229Y-14976269D01*
X4839229Y-14976269D02*
X4858277Y-14985793D01*
X4858277Y-14985793D02*
X4896372Y-14985793D01*
X4896372Y-14985793D02*
X4915420Y-14976269D01*
X4915420Y-14976269D02*
X4924944Y-14966746D01*
X4924944Y-14966746D02*
X4934468Y-14947698D01*
X5105896Y-14928650D02*
X5105896Y-15061984D01*
X5058277Y-14852460D02*
X5010658Y-14995317D01*
X5010658Y-14995317D02*
X5134468Y-14995317D01*
X5201134Y-14861984D02*
X5201134Y-14900079D01*
X5277325Y-14861984D02*
X5277325Y-14900079D01*
X5572563Y-15138174D02*
X5563039Y-15128650D01*
X5563039Y-15128650D02*
X5543991Y-15100079D01*
X5543991Y-15100079D02*
X5534468Y-15081031D01*
X5534468Y-15081031D02*
X5524944Y-15052460D01*
X5524944Y-15052460D02*
X5515420Y-15004841D01*
X5515420Y-15004841D02*
X5515420Y-14966746D01*
X5515420Y-14966746D02*
X5524944Y-14919127D01*
X5524944Y-14919127D02*
X5534468Y-14890555D01*
X5534468Y-14890555D02*
X5543991Y-14871508D01*
X5543991Y-14871508D02*
X5563039Y-14842936D01*
X5563039Y-14842936D02*
X5572563Y-14833412D01*
X5629706Y-14861984D02*
X5763039Y-14861984D01*
X5763039Y-14861984D02*
X5677325Y-15061984D01*
X5924944Y-14928650D02*
X5924944Y-15061984D01*
X5877325Y-14852460D02*
X5829706Y-14995317D01*
X5829706Y-14995317D02*
X5953515Y-14995317D01*
X6182087Y-15061984D02*
X6182087Y-14861984D01*
X6267801Y-15061984D02*
X6267801Y-14957222D01*
X6267801Y-14957222D02*
X6258277Y-14938174D01*
X6258277Y-14938174D02*
X6239230Y-14928650D01*
X6239230Y-14928650D02*
X6210658Y-14928650D01*
X6210658Y-14928650D02*
X6191610Y-14938174D01*
X6191610Y-14938174D02*
X6182087Y-14947698D01*
X6391610Y-15061984D02*
X6372563Y-15052460D01*
X6372563Y-15052460D02*
X6363039Y-15042936D01*
X6363039Y-15042936D02*
X6353515Y-15023888D01*
X6353515Y-15023888D02*
X6353515Y-14966746D01*
X6353515Y-14966746D02*
X6363039Y-14947698D01*
X6363039Y-14947698D02*
X6372563Y-14938174D01*
X6372563Y-14938174D02*
X6391610Y-14928650D01*
X6391610Y-14928650D02*
X6420182Y-14928650D01*
X6420182Y-14928650D02*
X6439230Y-14938174D01*
X6439230Y-14938174D02*
X6448753Y-14947698D01*
X6448753Y-14947698D02*
X6458277Y-14966746D01*
X6458277Y-14966746D02*
X6458277Y-15023888D01*
X6458277Y-15023888D02*
X6448753Y-15042936D01*
X6448753Y-15042936D02*
X6439230Y-15052460D01*
X6439230Y-15052460D02*
X6420182Y-15061984D01*
X6420182Y-15061984D02*
X6391610Y-15061984D01*
X6572563Y-15061984D02*
X6553515Y-15052460D01*
X6553515Y-15052460D02*
X6543991Y-15033412D01*
X6543991Y-15033412D02*
X6543991Y-14861984D01*
X6724944Y-15052460D02*
X6705896Y-15061984D01*
X6705896Y-15061984D02*
X6667801Y-15061984D01*
X6667801Y-15061984D02*
X6648753Y-15052460D01*
X6648753Y-15052460D02*
X6639230Y-15033412D01*
X6639230Y-15033412D02*
X6639230Y-14957222D01*
X6639230Y-14957222D02*
X6648753Y-14938174D01*
X6648753Y-14938174D02*
X6667801Y-14928650D01*
X6667801Y-14928650D02*
X6705896Y-14928650D01*
X6705896Y-14928650D02*
X6724944Y-14938174D01*
X6724944Y-14938174D02*
X6734468Y-14957222D01*
X6734468Y-14957222D02*
X6734468Y-14976269D01*
X6734468Y-14976269D02*
X6639230Y-14995317D01*
X6810658Y-15052460D02*
X6829706Y-15061984D01*
X6829706Y-15061984D02*
X6867801Y-15061984D01*
X6867801Y-15061984D02*
X6886849Y-15052460D01*
X6886849Y-15052460D02*
X6896372Y-15033412D01*
X6896372Y-15033412D02*
X6896372Y-15023888D01*
X6896372Y-15023888D02*
X6886849Y-15004841D01*
X6886849Y-15004841D02*
X6867801Y-14995317D01*
X6867801Y-14995317D02*
X6839230Y-14995317D01*
X6839230Y-14995317D02*
X6820182Y-14985793D01*
X6820182Y-14985793D02*
X6810658Y-14966746D01*
X6810658Y-14966746D02*
X6810658Y-14957222D01*
X6810658Y-14957222D02*
X6820182Y-14938174D01*
X6820182Y-14938174D02*
X6839230Y-14928650D01*
X6839230Y-14928650D02*
X6867801Y-14928650D01*
X6867801Y-14928650D02*
X6886849Y-14938174D01*
X6963039Y-15138174D02*
X6972563Y-15128650D01*
X6972563Y-15128650D02*
X6991611Y-15100079D01*
X6991611Y-15100079D02*
X7001134Y-15081031D01*
X7001134Y-15081031D02*
X7010658Y-15052460D01*
X7010658Y-15052460D02*
X7020182Y-15004841D01*
X7020182Y-15004841D02*
X7020182Y-14966746D01*
X7020182Y-14966746D02*
X7010658Y-14919127D01*
X7010658Y-14919127D02*
X7001134Y-14890555D01*
X7001134Y-14890555D02*
X6991611Y-14871508D01*
X6991611Y-14871508D02*
X6972563Y-14842936D01*
X6972563Y-14842936D02*
X6963039Y-14833412D01*
D13*
X1982123Y-15271623D02*
X1982123Y-15197376D01*
X1907876Y-15197376D01*
X1907876Y-15271623D01*
X1982123Y-15271623D01*
D12*
X2363039Y-15325984D02*
X2248753Y-15325984D01*
X2305896Y-15325984D02*
X2305896Y-15125984D01*
X2305896Y-15125984D02*
X2286848Y-15154555D01*
X2286848Y-15154555D02*
X2267801Y-15173603D01*
X2267801Y-15173603D02*
X2248753Y-15183127D01*
X2448753Y-15306936D02*
X2458277Y-15316460D01*
X2458277Y-15316460D02*
X2448753Y-15325984D01*
X2448753Y-15325984D02*
X2439229Y-15316460D01*
X2439229Y-15316460D02*
X2448753Y-15306936D01*
X2448753Y-15306936D02*
X2448753Y-15325984D01*
X2582086Y-15125984D02*
X2601134Y-15125984D01*
X2601134Y-15125984D02*
X2620182Y-15135508D01*
X2620182Y-15135508D02*
X2629705Y-15145031D01*
X2629705Y-15145031D02*
X2639229Y-15164079D01*
X2639229Y-15164079D02*
X2648753Y-15202174D01*
X2648753Y-15202174D02*
X2648753Y-15249793D01*
X2648753Y-15249793D02*
X2639229Y-15287888D01*
X2639229Y-15287888D02*
X2629705Y-15306936D01*
X2629705Y-15306936D02*
X2620182Y-15316460D01*
X2620182Y-15316460D02*
X2601134Y-15325984D01*
X2601134Y-15325984D02*
X2582086Y-15325984D01*
X2582086Y-15325984D02*
X2563039Y-15316460D01*
X2563039Y-15316460D02*
X2553515Y-15306936D01*
X2553515Y-15306936D02*
X2543991Y-15287888D01*
X2543991Y-15287888D02*
X2534467Y-15249793D01*
X2534467Y-15249793D02*
X2534467Y-15202174D01*
X2534467Y-15202174D02*
X2543991Y-15164079D01*
X2543991Y-15164079D02*
X2553515Y-15145031D01*
X2553515Y-15145031D02*
X2563039Y-15135508D01*
X2563039Y-15135508D02*
X2582086Y-15125984D01*
X2829705Y-15125984D02*
X2734467Y-15125984D01*
X2734467Y-15125984D02*
X2724944Y-15221222D01*
X2724944Y-15221222D02*
X2734467Y-15211698D01*
X2734467Y-15211698D02*
X2753515Y-15202174D01*
X2753515Y-15202174D02*
X2801134Y-15202174D01*
X2801134Y-15202174D02*
X2820182Y-15211698D01*
X2820182Y-15211698D02*
X2829705Y-15221222D01*
X2829705Y-15221222D02*
X2839229Y-15240269D01*
X2839229Y-15240269D02*
X2839229Y-15287888D01*
X2839229Y-15287888D02*
X2829705Y-15306936D01*
X2829705Y-15306936D02*
X2820182Y-15316460D01*
X2820182Y-15316460D02*
X2801134Y-15325984D01*
X2801134Y-15325984D02*
X2753515Y-15325984D01*
X2753515Y-15325984D02*
X2734467Y-15316460D01*
X2734467Y-15316460D02*
X2724944Y-15306936D01*
X2963039Y-15125984D02*
X2982086Y-15125984D01*
X2982086Y-15125984D02*
X3001134Y-15135508D01*
X3001134Y-15135508D02*
X3010658Y-15145031D01*
X3010658Y-15145031D02*
X3020182Y-15164079D01*
X3020182Y-15164079D02*
X3029705Y-15202174D01*
X3029705Y-15202174D02*
X3029705Y-15249793D01*
X3029705Y-15249793D02*
X3020182Y-15287888D01*
X3020182Y-15287888D02*
X3010658Y-15306936D01*
X3010658Y-15306936D02*
X3001134Y-15316460D01*
X3001134Y-15316460D02*
X2982086Y-15325984D01*
X2982086Y-15325984D02*
X2963039Y-15325984D01*
X2963039Y-15325984D02*
X2943991Y-15316460D01*
X2943991Y-15316460D02*
X2934467Y-15306936D01*
X2934467Y-15306936D02*
X2924943Y-15287888D01*
X2924943Y-15287888D02*
X2915420Y-15249793D01*
X2915420Y-15249793D02*
X2915420Y-15202174D01*
X2915420Y-15202174D02*
X2924943Y-15164079D01*
X2924943Y-15164079D02*
X2934467Y-15145031D01*
X2934467Y-15145031D02*
X2943991Y-15135508D01*
X2943991Y-15135508D02*
X2963039Y-15125984D01*
X3115420Y-15325984D02*
X3115420Y-15192650D01*
X3115420Y-15211698D02*
X3124943Y-15202174D01*
X3124943Y-15202174D02*
X3143991Y-15192650D01*
X3143991Y-15192650D02*
X3172563Y-15192650D01*
X3172563Y-15192650D02*
X3191610Y-15202174D01*
X3191610Y-15202174D02*
X3201134Y-15221222D01*
X3201134Y-15221222D02*
X3201134Y-15325984D01*
X3201134Y-15221222D02*
X3210658Y-15202174D01*
X3210658Y-15202174D02*
X3229705Y-15192650D01*
X3229705Y-15192650D02*
X3258277Y-15192650D01*
X3258277Y-15192650D02*
X3277324Y-15202174D01*
X3277324Y-15202174D02*
X3286848Y-15221222D01*
X3286848Y-15221222D02*
X3286848Y-15325984D01*
X3382086Y-15325984D02*
X3382086Y-15192650D01*
X3382086Y-15211698D02*
X3391610Y-15202174D01*
X3391610Y-15202174D02*
X3410658Y-15192650D01*
X3410658Y-15192650D02*
X3439229Y-15192650D01*
X3439229Y-15192650D02*
X3458277Y-15202174D01*
X3458277Y-15202174D02*
X3467801Y-15221222D01*
X3467801Y-15221222D02*
X3467801Y-15325984D01*
X3467801Y-15221222D02*
X3477324Y-15202174D01*
X3477324Y-15202174D02*
X3496372Y-15192650D01*
X3496372Y-15192650D02*
X3524943Y-15192650D01*
X3524943Y-15192650D02*
X3543991Y-15202174D01*
X3543991Y-15202174D02*
X3553515Y-15221222D01*
X3553515Y-15221222D02*
X3553515Y-15325984D01*
X3943991Y-15116460D02*
X3772563Y-15373603D01*
X4201134Y-15125984D02*
X4220182Y-15125984D01*
X4220182Y-15125984D02*
X4239229Y-15135508D01*
X4239229Y-15135508D02*
X4248753Y-15145031D01*
X4248753Y-15145031D02*
X4258277Y-15164079D01*
X4258277Y-15164079D02*
X4267801Y-15202174D01*
X4267801Y-15202174D02*
X4267801Y-15249793D01*
X4267801Y-15249793D02*
X4258277Y-15287888D01*
X4258277Y-15287888D02*
X4248753Y-15306936D01*
X4248753Y-15306936D02*
X4239229Y-15316460D01*
X4239229Y-15316460D02*
X4220182Y-15325984D01*
X4220182Y-15325984D02*
X4201134Y-15325984D01*
X4201134Y-15325984D02*
X4182086Y-15316460D01*
X4182086Y-15316460D02*
X4172563Y-15306936D01*
X4172563Y-15306936D02*
X4163039Y-15287888D01*
X4163039Y-15287888D02*
X4153515Y-15249793D01*
X4153515Y-15249793D02*
X4153515Y-15202174D01*
X4153515Y-15202174D02*
X4163039Y-15164079D01*
X4163039Y-15164079D02*
X4172563Y-15145031D01*
X4172563Y-15145031D02*
X4182086Y-15135508D01*
X4182086Y-15135508D02*
X4201134Y-15125984D01*
X4353515Y-15306936D02*
X4363039Y-15316460D01*
X4363039Y-15316460D02*
X4353515Y-15325984D01*
X4353515Y-15325984D02*
X4343991Y-15316460D01*
X4343991Y-15316460D02*
X4353515Y-15306936D01*
X4353515Y-15306936D02*
X4353515Y-15325984D01*
X4486848Y-15125984D02*
X4505896Y-15125984D01*
X4505896Y-15125984D02*
X4524944Y-15135508D01*
X4524944Y-15135508D02*
X4534468Y-15145031D01*
X4534468Y-15145031D02*
X4543991Y-15164079D01*
X4543991Y-15164079D02*
X4553515Y-15202174D01*
X4553515Y-15202174D02*
X4553515Y-15249793D01*
X4553515Y-15249793D02*
X4543991Y-15287888D01*
X4543991Y-15287888D02*
X4534468Y-15306936D01*
X4534468Y-15306936D02*
X4524944Y-15316460D01*
X4524944Y-15316460D02*
X4505896Y-15325984D01*
X4505896Y-15325984D02*
X4486848Y-15325984D01*
X4486848Y-15325984D02*
X4467801Y-15316460D01*
X4467801Y-15316460D02*
X4458277Y-15306936D01*
X4458277Y-15306936D02*
X4448753Y-15287888D01*
X4448753Y-15287888D02*
X4439229Y-15249793D01*
X4439229Y-15249793D02*
X4439229Y-15202174D01*
X4439229Y-15202174D02*
X4448753Y-15164079D01*
X4448753Y-15164079D02*
X4458277Y-15145031D01*
X4458277Y-15145031D02*
X4467801Y-15135508D01*
X4467801Y-15135508D02*
X4486848Y-15125984D01*
X4724944Y-15192650D02*
X4724944Y-15325984D01*
X4677325Y-15116460D02*
X4629706Y-15259317D01*
X4629706Y-15259317D02*
X4753515Y-15259317D01*
X4934468Y-15325984D02*
X4820182Y-15325984D01*
X4877325Y-15325984D02*
X4877325Y-15125984D01*
X4877325Y-15125984D02*
X4858277Y-15154555D01*
X4858277Y-15154555D02*
X4839229Y-15173603D01*
X4839229Y-15173603D02*
X4820182Y-15183127D01*
X5001134Y-15125984D02*
X5124944Y-15125984D01*
X5124944Y-15125984D02*
X5058277Y-15202174D01*
X5058277Y-15202174D02*
X5086849Y-15202174D01*
X5086849Y-15202174D02*
X5105896Y-15211698D01*
X5105896Y-15211698D02*
X5115420Y-15221222D01*
X5115420Y-15221222D02*
X5124944Y-15240269D01*
X5124944Y-15240269D02*
X5124944Y-15287888D01*
X5124944Y-15287888D02*
X5115420Y-15306936D01*
X5115420Y-15306936D02*
X5105896Y-15316460D01*
X5105896Y-15316460D02*
X5086849Y-15325984D01*
X5086849Y-15325984D02*
X5029706Y-15325984D01*
X5029706Y-15325984D02*
X5010658Y-15316460D01*
X5010658Y-15316460D02*
X5001134Y-15306936D01*
X5201134Y-15125984D02*
X5201134Y-15164079D01*
X5277325Y-15125984D02*
X5277325Y-15164079D01*
X5572563Y-15402174D02*
X5563039Y-15392650D01*
X5563039Y-15392650D02*
X5543991Y-15364079D01*
X5543991Y-15364079D02*
X5534468Y-15345031D01*
X5534468Y-15345031D02*
X5524944Y-15316460D01*
X5524944Y-15316460D02*
X5515420Y-15268841D01*
X5515420Y-15268841D02*
X5515420Y-15230746D01*
X5515420Y-15230746D02*
X5524944Y-15183127D01*
X5524944Y-15183127D02*
X5534468Y-15154555D01*
X5534468Y-15154555D02*
X5543991Y-15135508D01*
X5543991Y-15135508D02*
X5563039Y-15106936D01*
X5563039Y-15106936D02*
X5572563Y-15097412D01*
X5753515Y-15325984D02*
X5639229Y-15325984D01*
X5696372Y-15325984D02*
X5696372Y-15125984D01*
X5696372Y-15125984D02*
X5677325Y-15154555D01*
X5677325Y-15154555D02*
X5658277Y-15173603D01*
X5658277Y-15173603D02*
X5639229Y-15183127D01*
X5820182Y-15125984D02*
X5943991Y-15125984D01*
X5943991Y-15125984D02*
X5877325Y-15202174D01*
X5877325Y-15202174D02*
X5905896Y-15202174D01*
X5905896Y-15202174D02*
X5924944Y-15211698D01*
X5924944Y-15211698D02*
X5934468Y-15221222D01*
X5934468Y-15221222D02*
X5943991Y-15240269D01*
X5943991Y-15240269D02*
X5943991Y-15287888D01*
X5943991Y-15287888D02*
X5934468Y-15306936D01*
X5934468Y-15306936D02*
X5924944Y-15316460D01*
X5924944Y-15316460D02*
X5905896Y-15325984D01*
X5905896Y-15325984D02*
X5848753Y-15325984D01*
X5848753Y-15325984D02*
X5829706Y-15316460D01*
X5829706Y-15316460D02*
X5820182Y-15306936D01*
X6115420Y-15125984D02*
X6077325Y-15125984D01*
X6077325Y-15125984D02*
X6058277Y-15135508D01*
X6058277Y-15135508D02*
X6048753Y-15145031D01*
X6048753Y-15145031D02*
X6029706Y-15173603D01*
X6029706Y-15173603D02*
X6020182Y-15211698D01*
X6020182Y-15211698D02*
X6020182Y-15287888D01*
X6020182Y-15287888D02*
X6029706Y-15306936D01*
X6029706Y-15306936D02*
X6039229Y-15316460D01*
X6039229Y-15316460D02*
X6058277Y-15325984D01*
X6058277Y-15325984D02*
X6096372Y-15325984D01*
X6096372Y-15325984D02*
X6115420Y-15316460D01*
X6115420Y-15316460D02*
X6124944Y-15306936D01*
X6124944Y-15306936D02*
X6134468Y-15287888D01*
X6134468Y-15287888D02*
X6134468Y-15240269D01*
X6134468Y-15240269D02*
X6124944Y-15221222D01*
X6124944Y-15221222D02*
X6115420Y-15211698D01*
X6115420Y-15211698D02*
X6096372Y-15202174D01*
X6096372Y-15202174D02*
X6058277Y-15202174D01*
X6058277Y-15202174D02*
X6039229Y-15211698D01*
X6039229Y-15211698D02*
X6029706Y-15221222D01*
X6029706Y-15221222D02*
X6020182Y-15240269D01*
X6372563Y-15325984D02*
X6372563Y-15125984D01*
X6458277Y-15325984D02*
X6458277Y-15221222D01*
X6458277Y-15221222D02*
X6448753Y-15202174D01*
X6448753Y-15202174D02*
X6429706Y-15192650D01*
X6429706Y-15192650D02*
X6401134Y-15192650D01*
X6401134Y-15192650D02*
X6382087Y-15202174D01*
X6382087Y-15202174D02*
X6372563Y-15211698D01*
X6582087Y-15325984D02*
X6563039Y-15316460D01*
X6563039Y-15316460D02*
X6553515Y-15306936D01*
X6553515Y-15306936D02*
X6543991Y-15287888D01*
X6543991Y-15287888D02*
X6543991Y-15230746D01*
X6543991Y-15230746D02*
X6553515Y-15211698D01*
X6553515Y-15211698D02*
X6563039Y-15202174D01*
X6563039Y-15202174D02*
X6582087Y-15192650D01*
X6582087Y-15192650D02*
X6610658Y-15192650D01*
X6610658Y-15192650D02*
X6629706Y-15202174D01*
X6629706Y-15202174D02*
X6639230Y-15211698D01*
X6639230Y-15211698D02*
X6648753Y-15230746D01*
X6648753Y-15230746D02*
X6648753Y-15287888D01*
X6648753Y-15287888D02*
X6639230Y-15306936D01*
X6639230Y-15306936D02*
X6629706Y-15316460D01*
X6629706Y-15316460D02*
X6610658Y-15325984D01*
X6610658Y-15325984D02*
X6582087Y-15325984D01*
X6763039Y-15325984D02*
X6743991Y-15316460D01*
X6743991Y-15316460D02*
X6734468Y-15297412D01*
X6734468Y-15297412D02*
X6734468Y-15125984D01*
X6915420Y-15316460D02*
X6896372Y-15325984D01*
X6896372Y-15325984D02*
X6858277Y-15325984D01*
X6858277Y-15325984D02*
X6839230Y-15316460D01*
X6839230Y-15316460D02*
X6829706Y-15297412D01*
X6829706Y-15297412D02*
X6829706Y-15221222D01*
X6829706Y-15221222D02*
X6839230Y-15202174D01*
X6839230Y-15202174D02*
X6858277Y-15192650D01*
X6858277Y-15192650D02*
X6896372Y-15192650D01*
X6896372Y-15192650D02*
X6915420Y-15202174D01*
X6915420Y-15202174D02*
X6924944Y-15221222D01*
X6924944Y-15221222D02*
X6924944Y-15240269D01*
X6924944Y-15240269D02*
X6829706Y-15259317D01*
X7001134Y-15316460D02*
X7020182Y-15325984D01*
X7020182Y-15325984D02*
X7058277Y-15325984D01*
X7058277Y-15325984D02*
X7077325Y-15316460D01*
X7077325Y-15316460D02*
X7086849Y-15297412D01*
X7086849Y-15297412D02*
X7086849Y-15287888D01*
X7086849Y-15287888D02*
X7077325Y-15268841D01*
X7077325Y-15268841D02*
X7058277Y-15259317D01*
X7058277Y-15259317D02*
X7029706Y-15259317D01*
X7029706Y-15259317D02*
X7010658Y-15249793D01*
X7010658Y-15249793D02*
X7001134Y-15230746D01*
X7001134Y-15230746D02*
X7001134Y-15221222D01*
X7001134Y-15221222D02*
X7010658Y-15202174D01*
X7010658Y-15202174D02*
X7029706Y-15192650D01*
X7029706Y-15192650D02*
X7058277Y-15192650D01*
X7058277Y-15192650D02*
X7077325Y-15202174D01*
X7153515Y-15402174D02*
X7163039Y-15392650D01*
X7163039Y-15392650D02*
X7182087Y-15364079D01*
X7182087Y-15364079D02*
X7191611Y-15345031D01*
X7191611Y-15345031D02*
X7201134Y-15316460D01*
X7201134Y-15316460D02*
X7210658Y-15268841D01*
X7210658Y-15268841D02*
X7210658Y-15230746D01*
X7210658Y-15230746D02*
X7201134Y-15183127D01*
X7201134Y-15183127D02*
X7191611Y-15154555D01*
X7191611Y-15154555D02*
X7182087Y-15135508D01*
X7182087Y-15135508D02*
X7163039Y-15106936D01*
X7163039Y-15106936D02*
X7153515Y-15097412D01*
D14*
X1943000Y-15553000D02*
X1997500Y-15498500D01*
X1943000Y-15444000D01*
X1888500Y-15498500D01*
X1943000Y-15553000D01*
D12*
X2363039Y-15589984D02*
X2248753Y-15589984D01*
X2305896Y-15589984D02*
X2305896Y-15389984D01*
X2305896Y-15389984D02*
X2286848Y-15418555D01*
X2286848Y-15418555D02*
X2267801Y-15437603D01*
X2267801Y-15437603D02*
X2248753Y-15447127D01*
X2448753Y-15570936D02*
X2458277Y-15580460D01*
X2458277Y-15580460D02*
X2448753Y-15589984D01*
X2448753Y-15589984D02*
X2439229Y-15580460D01*
X2439229Y-15580460D02*
X2448753Y-15570936D01*
X2448753Y-15570936D02*
X2448753Y-15589984D01*
X2582086Y-15389984D02*
X2601134Y-15389984D01*
X2601134Y-15389984D02*
X2620182Y-15399508D01*
X2620182Y-15399508D02*
X2629705Y-15409031D01*
X2629705Y-15409031D02*
X2639229Y-15428079D01*
X2639229Y-15428079D02*
X2648753Y-15466174D01*
X2648753Y-15466174D02*
X2648753Y-15513793D01*
X2648753Y-15513793D02*
X2639229Y-15551888D01*
X2639229Y-15551888D02*
X2629705Y-15570936D01*
X2629705Y-15570936D02*
X2620182Y-15580460D01*
X2620182Y-15580460D02*
X2601134Y-15589984D01*
X2601134Y-15589984D02*
X2582086Y-15589984D01*
X2582086Y-15589984D02*
X2563039Y-15580460D01*
X2563039Y-15580460D02*
X2553515Y-15570936D01*
X2553515Y-15570936D02*
X2543991Y-15551888D01*
X2543991Y-15551888D02*
X2534467Y-15513793D01*
X2534467Y-15513793D02*
X2534467Y-15466174D01*
X2534467Y-15466174D02*
X2543991Y-15428079D01*
X2543991Y-15428079D02*
X2553515Y-15409031D01*
X2553515Y-15409031D02*
X2563039Y-15399508D01*
X2563039Y-15399508D02*
X2582086Y-15389984D01*
X2743991Y-15589984D02*
X2782086Y-15589984D01*
X2782086Y-15589984D02*
X2801134Y-15580460D01*
X2801134Y-15580460D02*
X2810658Y-15570936D01*
X2810658Y-15570936D02*
X2829705Y-15542365D01*
X2829705Y-15542365D02*
X2839229Y-15504269D01*
X2839229Y-15504269D02*
X2839229Y-15428079D01*
X2839229Y-15428079D02*
X2829705Y-15409031D01*
X2829705Y-15409031D02*
X2820182Y-15399508D01*
X2820182Y-15399508D02*
X2801134Y-15389984D01*
X2801134Y-15389984D02*
X2763039Y-15389984D01*
X2763039Y-15389984D02*
X2743991Y-15399508D01*
X2743991Y-15399508D02*
X2734467Y-15409031D01*
X2734467Y-15409031D02*
X2724944Y-15428079D01*
X2724944Y-15428079D02*
X2724944Y-15475698D01*
X2724944Y-15475698D02*
X2734467Y-15494746D01*
X2734467Y-15494746D02*
X2743991Y-15504269D01*
X2743991Y-15504269D02*
X2763039Y-15513793D01*
X2763039Y-15513793D02*
X2801134Y-15513793D01*
X2801134Y-15513793D02*
X2820182Y-15504269D01*
X2820182Y-15504269D02*
X2829705Y-15494746D01*
X2829705Y-15494746D02*
X2839229Y-15475698D01*
X2963039Y-15389984D02*
X2982086Y-15389984D01*
X2982086Y-15389984D02*
X3001134Y-15399508D01*
X3001134Y-15399508D02*
X3010658Y-15409031D01*
X3010658Y-15409031D02*
X3020182Y-15428079D01*
X3020182Y-15428079D02*
X3029705Y-15466174D01*
X3029705Y-15466174D02*
X3029705Y-15513793D01*
X3029705Y-15513793D02*
X3020182Y-15551888D01*
X3020182Y-15551888D02*
X3010658Y-15570936D01*
X3010658Y-15570936D02*
X3001134Y-15580460D01*
X3001134Y-15580460D02*
X2982086Y-15589984D01*
X2982086Y-15589984D02*
X2963039Y-15589984D01*
X2963039Y-15589984D02*
X2943991Y-15580460D01*
X2943991Y-15580460D02*
X2934467Y-15570936D01*
X2934467Y-15570936D02*
X2924943Y-15551888D01*
X2924943Y-15551888D02*
X2915420Y-15513793D01*
X2915420Y-15513793D02*
X2915420Y-15466174D01*
X2915420Y-15466174D02*
X2924943Y-15428079D01*
X2924943Y-15428079D02*
X2934467Y-15409031D01*
X2934467Y-15409031D02*
X2943991Y-15399508D01*
X2943991Y-15399508D02*
X2963039Y-15389984D01*
X3115420Y-15589984D02*
X3115420Y-15456650D01*
X3115420Y-15475698D02*
X3124943Y-15466174D01*
X3124943Y-15466174D02*
X3143991Y-15456650D01*
X3143991Y-15456650D02*
X3172563Y-15456650D01*
X3172563Y-15456650D02*
X3191610Y-15466174D01*
X3191610Y-15466174D02*
X3201134Y-15485222D01*
X3201134Y-15485222D02*
X3201134Y-15589984D01*
X3201134Y-15485222D02*
X3210658Y-15466174D01*
X3210658Y-15466174D02*
X3229705Y-15456650D01*
X3229705Y-15456650D02*
X3258277Y-15456650D01*
X3258277Y-15456650D02*
X3277324Y-15466174D01*
X3277324Y-15466174D02*
X3286848Y-15485222D01*
X3286848Y-15485222D02*
X3286848Y-15589984D01*
X3382086Y-15589984D02*
X3382086Y-15456650D01*
X3382086Y-15475698D02*
X3391610Y-15466174D01*
X3391610Y-15466174D02*
X3410658Y-15456650D01*
X3410658Y-15456650D02*
X3439229Y-15456650D01*
X3439229Y-15456650D02*
X3458277Y-15466174D01*
X3458277Y-15466174D02*
X3467801Y-15485222D01*
X3467801Y-15485222D02*
X3467801Y-15589984D01*
X3467801Y-15485222D02*
X3477324Y-15466174D01*
X3477324Y-15466174D02*
X3496372Y-15456650D01*
X3496372Y-15456650D02*
X3524943Y-15456650D01*
X3524943Y-15456650D02*
X3543991Y-15466174D01*
X3543991Y-15466174D02*
X3553515Y-15485222D01*
X3553515Y-15485222D02*
X3553515Y-15589984D01*
X3943991Y-15380460D02*
X3772563Y-15637603D01*
X4201134Y-15389984D02*
X4220182Y-15389984D01*
X4220182Y-15389984D02*
X4239229Y-15399508D01*
X4239229Y-15399508D02*
X4248753Y-15409031D01*
X4248753Y-15409031D02*
X4258277Y-15428079D01*
X4258277Y-15428079D02*
X4267801Y-15466174D01*
X4267801Y-15466174D02*
X4267801Y-15513793D01*
X4267801Y-15513793D02*
X4258277Y-15551888D01*
X4258277Y-15551888D02*
X4248753Y-15570936D01*
X4248753Y-15570936D02*
X4239229Y-15580460D01*
X4239229Y-15580460D02*
X4220182Y-15589984D01*
X4220182Y-15589984D02*
X4201134Y-15589984D01*
X4201134Y-15589984D02*
X4182086Y-15580460D01*
X4182086Y-15580460D02*
X4172563Y-15570936D01*
X4172563Y-15570936D02*
X4163039Y-15551888D01*
X4163039Y-15551888D02*
X4153515Y-15513793D01*
X4153515Y-15513793D02*
X4153515Y-15466174D01*
X4153515Y-15466174D02*
X4163039Y-15428079D01*
X4163039Y-15428079D02*
X4172563Y-15409031D01*
X4172563Y-15409031D02*
X4182086Y-15399508D01*
X4182086Y-15399508D02*
X4201134Y-15389984D01*
X4353515Y-15570936D02*
X4363039Y-15580460D01*
X4363039Y-15580460D02*
X4353515Y-15589984D01*
X4353515Y-15589984D02*
X4343991Y-15580460D01*
X4343991Y-15580460D02*
X4353515Y-15570936D01*
X4353515Y-15570936D02*
X4353515Y-15589984D01*
X4486848Y-15389984D02*
X4505896Y-15389984D01*
X4505896Y-15389984D02*
X4524944Y-15399508D01*
X4524944Y-15399508D02*
X4534468Y-15409031D01*
X4534468Y-15409031D02*
X4543991Y-15428079D01*
X4543991Y-15428079D02*
X4553515Y-15466174D01*
X4553515Y-15466174D02*
X4553515Y-15513793D01*
X4553515Y-15513793D02*
X4543991Y-15551888D01*
X4543991Y-15551888D02*
X4534468Y-15570936D01*
X4534468Y-15570936D02*
X4524944Y-15580460D01*
X4524944Y-15580460D02*
X4505896Y-15589984D01*
X4505896Y-15589984D02*
X4486848Y-15589984D01*
X4486848Y-15589984D02*
X4467801Y-15580460D01*
X4467801Y-15580460D02*
X4458277Y-15570936D01*
X4458277Y-15570936D02*
X4448753Y-15551888D01*
X4448753Y-15551888D02*
X4439229Y-15513793D01*
X4439229Y-15513793D02*
X4439229Y-15466174D01*
X4439229Y-15466174D02*
X4448753Y-15428079D01*
X4448753Y-15428079D02*
X4458277Y-15409031D01*
X4458277Y-15409031D02*
X4467801Y-15399508D01*
X4467801Y-15399508D02*
X4486848Y-15389984D01*
X4724944Y-15456650D02*
X4724944Y-15589984D01*
X4677325Y-15380460D02*
X4629706Y-15523317D01*
X4629706Y-15523317D02*
X4753515Y-15523317D01*
X4820182Y-15409031D02*
X4829706Y-15399508D01*
X4829706Y-15399508D02*
X4848753Y-15389984D01*
X4848753Y-15389984D02*
X4896372Y-15389984D01*
X4896372Y-15389984D02*
X4915420Y-15399508D01*
X4915420Y-15399508D02*
X4924944Y-15409031D01*
X4924944Y-15409031D02*
X4934468Y-15428079D01*
X4934468Y-15428079D02*
X4934468Y-15447127D01*
X4934468Y-15447127D02*
X4924944Y-15475698D01*
X4924944Y-15475698D02*
X4810658Y-15589984D01*
X4810658Y-15589984D02*
X4934468Y-15589984D01*
X5029706Y-15589984D02*
X5067801Y-15589984D01*
X5067801Y-15589984D02*
X5086849Y-15580460D01*
X5086849Y-15580460D02*
X5096372Y-15570936D01*
X5096372Y-15570936D02*
X5115420Y-15542365D01*
X5115420Y-15542365D02*
X5124944Y-15504269D01*
X5124944Y-15504269D02*
X5124944Y-15428079D01*
X5124944Y-15428079D02*
X5115420Y-15409031D01*
X5115420Y-15409031D02*
X5105896Y-15399508D01*
X5105896Y-15399508D02*
X5086849Y-15389984D01*
X5086849Y-15389984D02*
X5048753Y-15389984D01*
X5048753Y-15389984D02*
X5029706Y-15399508D01*
X5029706Y-15399508D02*
X5020182Y-15409031D01*
X5020182Y-15409031D02*
X5010658Y-15428079D01*
X5010658Y-15428079D02*
X5010658Y-15475698D01*
X5010658Y-15475698D02*
X5020182Y-15494746D01*
X5020182Y-15494746D02*
X5029706Y-15504269D01*
X5029706Y-15504269D02*
X5048753Y-15513793D01*
X5048753Y-15513793D02*
X5086849Y-15513793D01*
X5086849Y-15513793D02*
X5105896Y-15504269D01*
X5105896Y-15504269D02*
X5115420Y-15494746D01*
X5115420Y-15494746D02*
X5124944Y-15475698D01*
X5201134Y-15389984D02*
X5201134Y-15428079D01*
X5277325Y-15389984D02*
X5277325Y-15428079D01*
X5572563Y-15666174D02*
X5563039Y-15656650D01*
X5563039Y-15656650D02*
X5543991Y-15628079D01*
X5543991Y-15628079D02*
X5534468Y-15609031D01*
X5534468Y-15609031D02*
X5524944Y-15580460D01*
X5524944Y-15580460D02*
X5515420Y-15532841D01*
X5515420Y-15532841D02*
X5515420Y-15494746D01*
X5515420Y-15494746D02*
X5524944Y-15447127D01*
X5524944Y-15447127D02*
X5534468Y-15418555D01*
X5534468Y-15418555D02*
X5543991Y-15399508D01*
X5543991Y-15399508D02*
X5563039Y-15370936D01*
X5563039Y-15370936D02*
X5572563Y-15361412D01*
X5743991Y-15389984D02*
X5648753Y-15389984D01*
X5648753Y-15389984D02*
X5639229Y-15485222D01*
X5639229Y-15485222D02*
X5648753Y-15475698D01*
X5648753Y-15475698D02*
X5667801Y-15466174D01*
X5667801Y-15466174D02*
X5715420Y-15466174D01*
X5715420Y-15466174D02*
X5734468Y-15475698D01*
X5734468Y-15475698D02*
X5743991Y-15485222D01*
X5743991Y-15485222D02*
X5753515Y-15504269D01*
X5753515Y-15504269D02*
X5753515Y-15551888D01*
X5753515Y-15551888D02*
X5743991Y-15570936D01*
X5743991Y-15570936D02*
X5734468Y-15580460D01*
X5734468Y-15580460D02*
X5715420Y-15589984D01*
X5715420Y-15589984D02*
X5667801Y-15589984D01*
X5667801Y-15589984D02*
X5648753Y-15580460D01*
X5648753Y-15580460D02*
X5639229Y-15570936D01*
X5991610Y-15589984D02*
X5991610Y-15389984D01*
X6077325Y-15589984D02*
X6077325Y-15485222D01*
X6077325Y-15485222D02*
X6067801Y-15466174D01*
X6067801Y-15466174D02*
X6048753Y-15456650D01*
X6048753Y-15456650D02*
X6020182Y-15456650D01*
X6020182Y-15456650D02*
X6001134Y-15466174D01*
X6001134Y-15466174D02*
X5991610Y-15475698D01*
X6201134Y-15589984D02*
X6182087Y-15580460D01*
X6182087Y-15580460D02*
X6172563Y-15570936D01*
X6172563Y-15570936D02*
X6163039Y-15551888D01*
X6163039Y-15551888D02*
X6163039Y-15494746D01*
X6163039Y-15494746D02*
X6172563Y-15475698D01*
X6172563Y-15475698D02*
X6182087Y-15466174D01*
X6182087Y-15466174D02*
X6201134Y-15456650D01*
X6201134Y-15456650D02*
X6229706Y-15456650D01*
X6229706Y-15456650D02*
X6248753Y-15466174D01*
X6248753Y-15466174D02*
X6258277Y-15475698D01*
X6258277Y-15475698D02*
X6267801Y-15494746D01*
X6267801Y-15494746D02*
X6267801Y-15551888D01*
X6267801Y-15551888D02*
X6258277Y-15570936D01*
X6258277Y-15570936D02*
X6248753Y-15580460D01*
X6248753Y-15580460D02*
X6229706Y-15589984D01*
X6229706Y-15589984D02*
X6201134Y-15589984D01*
X6382087Y-15589984D02*
X6363039Y-15580460D01*
X6363039Y-15580460D02*
X6353515Y-15561412D01*
X6353515Y-15561412D02*
X6353515Y-15389984D01*
X6534468Y-15580460D02*
X6515420Y-15589984D01*
X6515420Y-15589984D02*
X6477325Y-15589984D01*
X6477325Y-15589984D02*
X6458277Y-15580460D01*
X6458277Y-15580460D02*
X6448753Y-15561412D01*
X6448753Y-15561412D02*
X6448753Y-15485222D01*
X6448753Y-15485222D02*
X6458277Y-15466174D01*
X6458277Y-15466174D02*
X6477325Y-15456650D01*
X6477325Y-15456650D02*
X6515420Y-15456650D01*
X6515420Y-15456650D02*
X6534468Y-15466174D01*
X6534468Y-15466174D02*
X6543991Y-15485222D01*
X6543991Y-15485222D02*
X6543991Y-15504269D01*
X6543991Y-15504269D02*
X6448753Y-15523317D01*
X6620182Y-15580460D02*
X6639230Y-15589984D01*
X6639230Y-15589984D02*
X6677325Y-15589984D01*
X6677325Y-15589984D02*
X6696372Y-15580460D01*
X6696372Y-15580460D02*
X6705896Y-15561412D01*
X6705896Y-15561412D02*
X6705896Y-15551888D01*
X6705896Y-15551888D02*
X6696372Y-15532841D01*
X6696372Y-15532841D02*
X6677325Y-15523317D01*
X6677325Y-15523317D02*
X6648753Y-15523317D01*
X6648753Y-15523317D02*
X6629706Y-15513793D01*
X6629706Y-15513793D02*
X6620182Y-15494746D01*
X6620182Y-15494746D02*
X6620182Y-15485222D01*
X6620182Y-15485222D02*
X6629706Y-15466174D01*
X6629706Y-15466174D02*
X6648753Y-15456650D01*
X6648753Y-15456650D02*
X6677325Y-15456650D01*
X6677325Y-15456650D02*
X6696372Y-15466174D01*
X6772563Y-15666174D02*
X6782087Y-15656650D01*
X6782087Y-15656650D02*
X6801134Y-15628079D01*
X6801134Y-15628079D02*
X6810658Y-15609031D01*
X6810658Y-15609031D02*
X6820182Y-15580460D01*
X6820182Y-15580460D02*
X6829706Y-15532841D01*
X6829706Y-15532841D02*
X6829706Y-15494746D01*
X6829706Y-15494746D02*
X6820182Y-15447127D01*
X6820182Y-15447127D02*
X6810658Y-15418555D01*
X6810658Y-15418555D02*
X6801134Y-15399508D01*
X6801134Y-15399508D02*
X6782087Y-15370936D01*
X6782087Y-15370936D02*
X6772563Y-15361412D01*
D15*
X1837500Y-15682500D02*
X1997500Y-15842500D01*
X1997500Y-15682500D02*
X1837500Y-15842500D01*
X1997500Y-15762500D02*
G75*
G02*
X1837500Y-15762500I-80000J0D01*
G01*
X1837500Y-15762500D02*
G75*
G02*
X1997500Y-15762500I80000J0D01*
G01*
D12*
X2363039Y-15853984D02*
X2248753Y-15853984D01*
X2305896Y-15853984D02*
X2305896Y-15653984D01*
X2305896Y-15653984D02*
X2286848Y-15682555D01*
X2286848Y-15682555D02*
X2267801Y-15701603D01*
X2267801Y-15701603D02*
X2248753Y-15711127D01*
X2448753Y-15834936D02*
X2458277Y-15844460D01*
X2458277Y-15844460D02*
X2448753Y-15853984D01*
X2448753Y-15853984D02*
X2439229Y-15844460D01*
X2439229Y-15844460D02*
X2448753Y-15834936D01*
X2448753Y-15834936D02*
X2448753Y-15853984D01*
X2629705Y-15653984D02*
X2591610Y-15653984D01*
X2591610Y-15653984D02*
X2572563Y-15663508D01*
X2572563Y-15663508D02*
X2563039Y-15673031D01*
X2563039Y-15673031D02*
X2543991Y-15701603D01*
X2543991Y-15701603D02*
X2534467Y-15739698D01*
X2534467Y-15739698D02*
X2534467Y-15815888D01*
X2534467Y-15815888D02*
X2543991Y-15834936D01*
X2543991Y-15834936D02*
X2553515Y-15844460D01*
X2553515Y-15844460D02*
X2572563Y-15853984D01*
X2572563Y-15853984D02*
X2610658Y-15853984D01*
X2610658Y-15853984D02*
X2629705Y-15844460D01*
X2629705Y-15844460D02*
X2639229Y-15834936D01*
X2639229Y-15834936D02*
X2648753Y-15815888D01*
X2648753Y-15815888D02*
X2648753Y-15768269D01*
X2648753Y-15768269D02*
X2639229Y-15749222D01*
X2639229Y-15749222D02*
X2629705Y-15739698D01*
X2629705Y-15739698D02*
X2610658Y-15730174D01*
X2610658Y-15730174D02*
X2572563Y-15730174D01*
X2572563Y-15730174D02*
X2553515Y-15739698D01*
X2553515Y-15739698D02*
X2543991Y-15749222D01*
X2543991Y-15749222D02*
X2534467Y-15768269D01*
X2772563Y-15653984D02*
X2791610Y-15653984D01*
X2791610Y-15653984D02*
X2810658Y-15663508D01*
X2810658Y-15663508D02*
X2820182Y-15673031D01*
X2820182Y-15673031D02*
X2829705Y-15692079D01*
X2829705Y-15692079D02*
X2839229Y-15730174D01*
X2839229Y-15730174D02*
X2839229Y-15777793D01*
X2839229Y-15777793D02*
X2829705Y-15815888D01*
X2829705Y-15815888D02*
X2820182Y-15834936D01*
X2820182Y-15834936D02*
X2810658Y-15844460D01*
X2810658Y-15844460D02*
X2791610Y-15853984D01*
X2791610Y-15853984D02*
X2772563Y-15853984D01*
X2772563Y-15853984D02*
X2753515Y-15844460D01*
X2753515Y-15844460D02*
X2743991Y-15834936D01*
X2743991Y-15834936D02*
X2734467Y-15815888D01*
X2734467Y-15815888D02*
X2724944Y-15777793D01*
X2724944Y-15777793D02*
X2724944Y-15730174D01*
X2724944Y-15730174D02*
X2734467Y-15692079D01*
X2734467Y-15692079D02*
X2743991Y-15673031D01*
X2743991Y-15673031D02*
X2753515Y-15663508D01*
X2753515Y-15663508D02*
X2772563Y-15653984D01*
X2963039Y-15653984D02*
X2982086Y-15653984D01*
X2982086Y-15653984D02*
X3001134Y-15663508D01*
X3001134Y-15663508D02*
X3010658Y-15673031D01*
X3010658Y-15673031D02*
X3020182Y-15692079D01*
X3020182Y-15692079D02*
X3029705Y-15730174D01*
X3029705Y-15730174D02*
X3029705Y-15777793D01*
X3029705Y-15777793D02*
X3020182Y-15815888D01*
X3020182Y-15815888D02*
X3010658Y-15834936D01*
X3010658Y-15834936D02*
X3001134Y-15844460D01*
X3001134Y-15844460D02*
X2982086Y-15853984D01*
X2982086Y-15853984D02*
X2963039Y-15853984D01*
X2963039Y-15853984D02*
X2943991Y-15844460D01*
X2943991Y-15844460D02*
X2934467Y-15834936D01*
X2934467Y-15834936D02*
X2924943Y-15815888D01*
X2924943Y-15815888D02*
X2915420Y-15777793D01*
X2915420Y-15777793D02*
X2915420Y-15730174D01*
X2915420Y-15730174D02*
X2924943Y-15692079D01*
X2924943Y-15692079D02*
X2934467Y-15673031D01*
X2934467Y-15673031D02*
X2943991Y-15663508D01*
X2943991Y-15663508D02*
X2963039Y-15653984D01*
X3115420Y-15853984D02*
X3115420Y-15720650D01*
X3115420Y-15739698D02*
X3124943Y-15730174D01*
X3124943Y-15730174D02*
X3143991Y-15720650D01*
X3143991Y-15720650D02*
X3172563Y-15720650D01*
X3172563Y-15720650D02*
X3191610Y-15730174D01*
X3191610Y-15730174D02*
X3201134Y-15749222D01*
X3201134Y-15749222D02*
X3201134Y-15853984D01*
X3201134Y-15749222D02*
X3210658Y-15730174D01*
X3210658Y-15730174D02*
X3229705Y-15720650D01*
X3229705Y-15720650D02*
X3258277Y-15720650D01*
X3258277Y-15720650D02*
X3277324Y-15730174D01*
X3277324Y-15730174D02*
X3286848Y-15749222D01*
X3286848Y-15749222D02*
X3286848Y-15853984D01*
X3382086Y-15853984D02*
X3382086Y-15720650D01*
X3382086Y-15739698D02*
X3391610Y-15730174D01*
X3391610Y-15730174D02*
X3410658Y-15720650D01*
X3410658Y-15720650D02*
X3439229Y-15720650D01*
X3439229Y-15720650D02*
X3458277Y-15730174D01*
X3458277Y-15730174D02*
X3467801Y-15749222D01*
X3467801Y-15749222D02*
X3467801Y-15853984D01*
X3467801Y-15749222D02*
X3477324Y-15730174D01*
X3477324Y-15730174D02*
X3496372Y-15720650D01*
X3496372Y-15720650D02*
X3524943Y-15720650D01*
X3524943Y-15720650D02*
X3543991Y-15730174D01*
X3543991Y-15730174D02*
X3553515Y-15749222D01*
X3553515Y-15749222D02*
X3553515Y-15853984D01*
X3943991Y-15644460D02*
X3772563Y-15901603D01*
X4201134Y-15653984D02*
X4220182Y-15653984D01*
X4220182Y-15653984D02*
X4239229Y-15663508D01*
X4239229Y-15663508D02*
X4248753Y-15673031D01*
X4248753Y-15673031D02*
X4258277Y-15692079D01*
X4258277Y-15692079D02*
X4267801Y-15730174D01*
X4267801Y-15730174D02*
X4267801Y-15777793D01*
X4267801Y-15777793D02*
X4258277Y-15815888D01*
X4258277Y-15815888D02*
X4248753Y-15834936D01*
X4248753Y-15834936D02*
X4239229Y-15844460D01*
X4239229Y-15844460D02*
X4220182Y-15853984D01*
X4220182Y-15853984D02*
X4201134Y-15853984D01*
X4201134Y-15853984D02*
X4182086Y-15844460D01*
X4182086Y-15844460D02*
X4172563Y-15834936D01*
X4172563Y-15834936D02*
X4163039Y-15815888D01*
X4163039Y-15815888D02*
X4153515Y-15777793D01*
X4153515Y-15777793D02*
X4153515Y-15730174D01*
X4153515Y-15730174D02*
X4163039Y-15692079D01*
X4163039Y-15692079D02*
X4172563Y-15673031D01*
X4172563Y-15673031D02*
X4182086Y-15663508D01*
X4182086Y-15663508D02*
X4201134Y-15653984D01*
X4353515Y-15834936D02*
X4363039Y-15844460D01*
X4363039Y-15844460D02*
X4353515Y-15853984D01*
X4353515Y-15853984D02*
X4343991Y-15844460D01*
X4343991Y-15844460D02*
X4353515Y-15834936D01*
X4353515Y-15834936D02*
X4353515Y-15853984D01*
X4486848Y-15653984D02*
X4505896Y-15653984D01*
X4505896Y-15653984D02*
X4524944Y-15663508D01*
X4524944Y-15663508D02*
X4534468Y-15673031D01*
X4534468Y-15673031D02*
X4543991Y-15692079D01*
X4543991Y-15692079D02*
X4553515Y-15730174D01*
X4553515Y-15730174D02*
X4553515Y-15777793D01*
X4553515Y-15777793D02*
X4543991Y-15815888D01*
X4543991Y-15815888D02*
X4534468Y-15834936D01*
X4534468Y-15834936D02*
X4524944Y-15844460D01*
X4524944Y-15844460D02*
X4505896Y-15853984D01*
X4505896Y-15853984D02*
X4486848Y-15853984D01*
X4486848Y-15853984D02*
X4467801Y-15844460D01*
X4467801Y-15844460D02*
X4458277Y-15834936D01*
X4458277Y-15834936D02*
X4448753Y-15815888D01*
X4448753Y-15815888D02*
X4439229Y-15777793D01*
X4439229Y-15777793D02*
X4439229Y-15730174D01*
X4439229Y-15730174D02*
X4448753Y-15692079D01*
X4448753Y-15692079D02*
X4458277Y-15673031D01*
X4458277Y-15673031D02*
X4467801Y-15663508D01*
X4467801Y-15663508D02*
X4486848Y-15653984D01*
X4724944Y-15653984D02*
X4686848Y-15653984D01*
X4686848Y-15653984D02*
X4667801Y-15663508D01*
X4667801Y-15663508D02*
X4658277Y-15673031D01*
X4658277Y-15673031D02*
X4639229Y-15701603D01*
X4639229Y-15701603D02*
X4629706Y-15739698D01*
X4629706Y-15739698D02*
X4629706Y-15815888D01*
X4629706Y-15815888D02*
X4639229Y-15834936D01*
X4639229Y-15834936D02*
X4648753Y-15844460D01*
X4648753Y-15844460D02*
X4667801Y-15853984D01*
X4667801Y-15853984D02*
X4705896Y-15853984D01*
X4705896Y-15853984D02*
X4724944Y-15844460D01*
X4724944Y-15844460D02*
X4734468Y-15834936D01*
X4734468Y-15834936D02*
X4743991Y-15815888D01*
X4743991Y-15815888D02*
X4743991Y-15768269D01*
X4743991Y-15768269D02*
X4734468Y-15749222D01*
X4734468Y-15749222D02*
X4724944Y-15739698D01*
X4724944Y-15739698D02*
X4705896Y-15730174D01*
X4705896Y-15730174D02*
X4667801Y-15730174D01*
X4667801Y-15730174D02*
X4648753Y-15739698D01*
X4648753Y-15739698D02*
X4639229Y-15749222D01*
X4639229Y-15749222D02*
X4629706Y-15768269D01*
X4810658Y-15653984D02*
X4934468Y-15653984D01*
X4934468Y-15653984D02*
X4867801Y-15730174D01*
X4867801Y-15730174D02*
X4896372Y-15730174D01*
X4896372Y-15730174D02*
X4915420Y-15739698D01*
X4915420Y-15739698D02*
X4924944Y-15749222D01*
X4924944Y-15749222D02*
X4934468Y-15768269D01*
X4934468Y-15768269D02*
X4934468Y-15815888D01*
X4934468Y-15815888D02*
X4924944Y-15834936D01*
X4924944Y-15834936D02*
X4915420Y-15844460D01*
X4915420Y-15844460D02*
X4896372Y-15853984D01*
X4896372Y-15853984D02*
X4839229Y-15853984D01*
X4839229Y-15853984D02*
X4820182Y-15844460D01*
X4820182Y-15844460D02*
X4810658Y-15834936D01*
X5058277Y-15653984D02*
X5077325Y-15653984D01*
X5077325Y-15653984D02*
X5096372Y-15663508D01*
X5096372Y-15663508D02*
X5105896Y-15673031D01*
X5105896Y-15673031D02*
X5115420Y-15692079D01*
X5115420Y-15692079D02*
X5124944Y-15730174D01*
X5124944Y-15730174D02*
X5124944Y-15777793D01*
X5124944Y-15777793D02*
X5115420Y-15815888D01*
X5115420Y-15815888D02*
X5105896Y-15834936D01*
X5105896Y-15834936D02*
X5096372Y-15844460D01*
X5096372Y-15844460D02*
X5077325Y-15853984D01*
X5077325Y-15853984D02*
X5058277Y-15853984D01*
X5058277Y-15853984D02*
X5039229Y-15844460D01*
X5039229Y-15844460D02*
X5029706Y-15834936D01*
X5029706Y-15834936D02*
X5020182Y-15815888D01*
X5020182Y-15815888D02*
X5010658Y-15777793D01*
X5010658Y-15777793D02*
X5010658Y-15730174D01*
X5010658Y-15730174D02*
X5020182Y-15692079D01*
X5020182Y-15692079D02*
X5029706Y-15673031D01*
X5029706Y-15673031D02*
X5039229Y-15663508D01*
X5039229Y-15663508D02*
X5058277Y-15653984D01*
X5201134Y-15653984D02*
X5201134Y-15692079D01*
X5277325Y-15653984D02*
X5277325Y-15692079D01*
X5572563Y-15930174D02*
X5563039Y-15920650D01*
X5563039Y-15920650D02*
X5543991Y-15892079D01*
X5543991Y-15892079D02*
X5534468Y-15873031D01*
X5534468Y-15873031D02*
X5524944Y-15844460D01*
X5524944Y-15844460D02*
X5515420Y-15796841D01*
X5515420Y-15796841D02*
X5515420Y-15758746D01*
X5515420Y-15758746D02*
X5524944Y-15711127D01*
X5524944Y-15711127D02*
X5534468Y-15682555D01*
X5534468Y-15682555D02*
X5543991Y-15663508D01*
X5543991Y-15663508D02*
X5563039Y-15634936D01*
X5563039Y-15634936D02*
X5572563Y-15625412D01*
X5734468Y-15653984D02*
X5696372Y-15653984D01*
X5696372Y-15653984D02*
X5677325Y-15663508D01*
X5677325Y-15663508D02*
X5667801Y-15673031D01*
X5667801Y-15673031D02*
X5648753Y-15701603D01*
X5648753Y-15701603D02*
X5639229Y-15739698D01*
X5639229Y-15739698D02*
X5639229Y-15815888D01*
X5639229Y-15815888D02*
X5648753Y-15834936D01*
X5648753Y-15834936D02*
X5658277Y-15844460D01*
X5658277Y-15844460D02*
X5677325Y-15853984D01*
X5677325Y-15853984D02*
X5715420Y-15853984D01*
X5715420Y-15853984D02*
X5734468Y-15844460D01*
X5734468Y-15844460D02*
X5743991Y-15834936D01*
X5743991Y-15834936D02*
X5753515Y-15815888D01*
X5753515Y-15815888D02*
X5753515Y-15768269D01*
X5753515Y-15768269D02*
X5743991Y-15749222D01*
X5743991Y-15749222D02*
X5734468Y-15739698D01*
X5734468Y-15739698D02*
X5715420Y-15730174D01*
X5715420Y-15730174D02*
X5677325Y-15730174D01*
X5677325Y-15730174D02*
X5658277Y-15739698D01*
X5658277Y-15739698D02*
X5648753Y-15749222D01*
X5648753Y-15749222D02*
X5639229Y-15768269D01*
X5991610Y-15853984D02*
X5991610Y-15653984D01*
X6077325Y-15853984D02*
X6077325Y-15749222D01*
X6077325Y-15749222D02*
X6067801Y-15730174D01*
X6067801Y-15730174D02*
X6048753Y-15720650D01*
X6048753Y-15720650D02*
X6020182Y-15720650D01*
X6020182Y-15720650D02*
X6001134Y-15730174D01*
X6001134Y-15730174D02*
X5991610Y-15739698D01*
X6201134Y-15853984D02*
X6182087Y-15844460D01*
X6182087Y-15844460D02*
X6172563Y-15834936D01*
X6172563Y-15834936D02*
X6163039Y-15815888D01*
X6163039Y-15815888D02*
X6163039Y-15758746D01*
X6163039Y-15758746D02*
X6172563Y-15739698D01*
X6172563Y-15739698D02*
X6182087Y-15730174D01*
X6182087Y-15730174D02*
X6201134Y-15720650D01*
X6201134Y-15720650D02*
X6229706Y-15720650D01*
X6229706Y-15720650D02*
X6248753Y-15730174D01*
X6248753Y-15730174D02*
X6258277Y-15739698D01*
X6258277Y-15739698D02*
X6267801Y-15758746D01*
X6267801Y-15758746D02*
X6267801Y-15815888D01*
X6267801Y-15815888D02*
X6258277Y-15834936D01*
X6258277Y-15834936D02*
X6248753Y-15844460D01*
X6248753Y-15844460D02*
X6229706Y-15853984D01*
X6229706Y-15853984D02*
X6201134Y-15853984D01*
X6382087Y-15853984D02*
X6363039Y-15844460D01*
X6363039Y-15844460D02*
X6353515Y-15825412D01*
X6353515Y-15825412D02*
X6353515Y-15653984D01*
X6534468Y-15844460D02*
X6515420Y-15853984D01*
X6515420Y-15853984D02*
X6477325Y-15853984D01*
X6477325Y-15853984D02*
X6458277Y-15844460D01*
X6458277Y-15844460D02*
X6448753Y-15825412D01*
X6448753Y-15825412D02*
X6448753Y-15749222D01*
X6448753Y-15749222D02*
X6458277Y-15730174D01*
X6458277Y-15730174D02*
X6477325Y-15720650D01*
X6477325Y-15720650D02*
X6515420Y-15720650D01*
X6515420Y-15720650D02*
X6534468Y-15730174D01*
X6534468Y-15730174D02*
X6543991Y-15749222D01*
X6543991Y-15749222D02*
X6543991Y-15768269D01*
X6543991Y-15768269D02*
X6448753Y-15787317D01*
X6620182Y-15844460D02*
X6639230Y-15853984D01*
X6639230Y-15853984D02*
X6677325Y-15853984D01*
X6677325Y-15853984D02*
X6696372Y-15844460D01*
X6696372Y-15844460D02*
X6705896Y-15825412D01*
X6705896Y-15825412D02*
X6705896Y-15815888D01*
X6705896Y-15815888D02*
X6696372Y-15796841D01*
X6696372Y-15796841D02*
X6677325Y-15787317D01*
X6677325Y-15787317D02*
X6648753Y-15787317D01*
X6648753Y-15787317D02*
X6629706Y-15777793D01*
X6629706Y-15777793D02*
X6620182Y-15758746D01*
X6620182Y-15758746D02*
X6620182Y-15749222D01*
X6620182Y-15749222D02*
X6629706Y-15730174D01*
X6629706Y-15730174D02*
X6648753Y-15720650D01*
X6648753Y-15720650D02*
X6677325Y-15720650D01*
X6677325Y-15720650D02*
X6696372Y-15730174D01*
X6772563Y-15930174D02*
X6782087Y-15920650D01*
X6782087Y-15920650D02*
X6801134Y-15892079D01*
X6801134Y-15892079D02*
X6810658Y-15873031D01*
X6810658Y-15873031D02*
X6820182Y-15844460D01*
X6820182Y-15844460D02*
X6829706Y-15796841D01*
X6829706Y-15796841D02*
X6829706Y-15758746D01*
X6829706Y-15758746D02*
X6820182Y-15711127D01*
X6820182Y-15711127D02*
X6810658Y-15682555D01*
X6810658Y-15682555D02*
X6801134Y-15663508D01*
X6801134Y-15663508D02*
X6782087Y-15634936D01*
X6782087Y-15634936D02*
X6772563Y-15625412D01*
X1797500Y-15942500D02*
X1997500Y-16142500D01*
X1997500Y-15942500D02*
X1797500Y-16142500D01*
X1897500Y-15942500D02*
X1897500Y-16142500D01*
X1797500Y-16042500D02*
X1997500Y-16042500D01*
X2248753Y-15953031D02*
X2258277Y-15943508D01*
X2258277Y-15943508D02*
X2277324Y-15933984D01*
X2277324Y-15933984D02*
X2324944Y-15933984D01*
X2324944Y-15933984D02*
X2343991Y-15943508D01*
X2343991Y-15943508D02*
X2353515Y-15953031D01*
X2353515Y-15953031D02*
X2363039Y-15972079D01*
X2363039Y-15972079D02*
X2363039Y-15991127D01*
X2363039Y-15991127D02*
X2353515Y-16019698D01*
X2353515Y-16019698D02*
X2239229Y-16133984D01*
X2239229Y-16133984D02*
X2363039Y-16133984D01*
X2448753Y-16114936D02*
X2458277Y-16124460D01*
X2458277Y-16124460D02*
X2448753Y-16133984D01*
X2448753Y-16133984D02*
X2439229Y-16124460D01*
X2439229Y-16124460D02*
X2448753Y-16114936D01*
X2448753Y-16114936D02*
X2448753Y-16133984D01*
X2553515Y-16133984D02*
X2591610Y-16133984D01*
X2591610Y-16133984D02*
X2610658Y-16124460D01*
X2610658Y-16124460D02*
X2620182Y-16114936D01*
X2620182Y-16114936D02*
X2639229Y-16086365D01*
X2639229Y-16086365D02*
X2648753Y-16048269D01*
X2648753Y-16048269D02*
X2648753Y-15972079D01*
X2648753Y-15972079D02*
X2639229Y-15953031D01*
X2639229Y-15953031D02*
X2629705Y-15943508D01*
X2629705Y-15943508D02*
X2610658Y-15933984D01*
X2610658Y-15933984D02*
X2572563Y-15933984D01*
X2572563Y-15933984D02*
X2553515Y-15943508D01*
X2553515Y-15943508D02*
X2543991Y-15953031D01*
X2543991Y-15953031D02*
X2534467Y-15972079D01*
X2534467Y-15972079D02*
X2534467Y-16019698D01*
X2534467Y-16019698D02*
X2543991Y-16038746D01*
X2543991Y-16038746D02*
X2553515Y-16048269D01*
X2553515Y-16048269D02*
X2572563Y-16057793D01*
X2572563Y-16057793D02*
X2610658Y-16057793D01*
X2610658Y-16057793D02*
X2629705Y-16048269D01*
X2629705Y-16048269D02*
X2639229Y-16038746D01*
X2639229Y-16038746D02*
X2648753Y-16019698D01*
X2772563Y-15933984D02*
X2791610Y-15933984D01*
X2791610Y-15933984D02*
X2810658Y-15943508D01*
X2810658Y-15943508D02*
X2820182Y-15953031D01*
X2820182Y-15953031D02*
X2829705Y-15972079D01*
X2829705Y-15972079D02*
X2839229Y-16010174D01*
X2839229Y-16010174D02*
X2839229Y-16057793D01*
X2839229Y-16057793D02*
X2829705Y-16095888D01*
X2829705Y-16095888D02*
X2820182Y-16114936D01*
X2820182Y-16114936D02*
X2810658Y-16124460D01*
X2810658Y-16124460D02*
X2791610Y-16133984D01*
X2791610Y-16133984D02*
X2772563Y-16133984D01*
X2772563Y-16133984D02*
X2753515Y-16124460D01*
X2753515Y-16124460D02*
X2743991Y-16114936D01*
X2743991Y-16114936D02*
X2734467Y-16095888D01*
X2734467Y-16095888D02*
X2724944Y-16057793D01*
X2724944Y-16057793D02*
X2724944Y-16010174D01*
X2724944Y-16010174D02*
X2734467Y-15972079D01*
X2734467Y-15972079D02*
X2743991Y-15953031D01*
X2743991Y-15953031D02*
X2753515Y-15943508D01*
X2753515Y-15943508D02*
X2772563Y-15933984D01*
X2963039Y-15933984D02*
X2982086Y-15933984D01*
X2982086Y-15933984D02*
X3001134Y-15943508D01*
X3001134Y-15943508D02*
X3010658Y-15953031D01*
X3010658Y-15953031D02*
X3020182Y-15972079D01*
X3020182Y-15972079D02*
X3029705Y-16010174D01*
X3029705Y-16010174D02*
X3029705Y-16057793D01*
X3029705Y-16057793D02*
X3020182Y-16095888D01*
X3020182Y-16095888D02*
X3010658Y-16114936D01*
X3010658Y-16114936D02*
X3001134Y-16124460D01*
X3001134Y-16124460D02*
X2982086Y-16133984D01*
X2982086Y-16133984D02*
X2963039Y-16133984D01*
X2963039Y-16133984D02*
X2943991Y-16124460D01*
X2943991Y-16124460D02*
X2934467Y-16114936D01*
X2934467Y-16114936D02*
X2924943Y-16095888D01*
X2924943Y-16095888D02*
X2915420Y-16057793D01*
X2915420Y-16057793D02*
X2915420Y-16010174D01*
X2915420Y-16010174D02*
X2924943Y-15972079D01*
X2924943Y-15972079D02*
X2934467Y-15953031D01*
X2934467Y-15953031D02*
X2943991Y-15943508D01*
X2943991Y-15943508D02*
X2963039Y-15933984D01*
X3115420Y-16133984D02*
X3115420Y-16000650D01*
X3115420Y-16019698D02*
X3124943Y-16010174D01*
X3124943Y-16010174D02*
X3143991Y-16000650D01*
X3143991Y-16000650D02*
X3172563Y-16000650D01*
X3172563Y-16000650D02*
X3191610Y-16010174D01*
X3191610Y-16010174D02*
X3201134Y-16029222D01*
X3201134Y-16029222D02*
X3201134Y-16133984D01*
X3201134Y-16029222D02*
X3210658Y-16010174D01*
X3210658Y-16010174D02*
X3229705Y-16000650D01*
X3229705Y-16000650D02*
X3258277Y-16000650D01*
X3258277Y-16000650D02*
X3277324Y-16010174D01*
X3277324Y-16010174D02*
X3286848Y-16029222D01*
X3286848Y-16029222D02*
X3286848Y-16133984D01*
X3382086Y-16133984D02*
X3382086Y-16000650D01*
X3382086Y-16019698D02*
X3391610Y-16010174D01*
X3391610Y-16010174D02*
X3410658Y-16000650D01*
X3410658Y-16000650D02*
X3439229Y-16000650D01*
X3439229Y-16000650D02*
X3458277Y-16010174D01*
X3458277Y-16010174D02*
X3467801Y-16029222D01*
X3467801Y-16029222D02*
X3467801Y-16133984D01*
X3467801Y-16029222D02*
X3477324Y-16010174D01*
X3477324Y-16010174D02*
X3496372Y-16000650D01*
X3496372Y-16000650D02*
X3524943Y-16000650D01*
X3524943Y-16000650D02*
X3543991Y-16010174D01*
X3543991Y-16010174D02*
X3553515Y-16029222D01*
X3553515Y-16029222D02*
X3553515Y-16133984D01*
X3943991Y-15924460D02*
X3772563Y-16181603D01*
X4201134Y-15933984D02*
X4220182Y-15933984D01*
X4220182Y-15933984D02*
X4239229Y-15943508D01*
X4239229Y-15943508D02*
X4248753Y-15953031D01*
X4248753Y-15953031D02*
X4258277Y-15972079D01*
X4258277Y-15972079D02*
X4267801Y-16010174D01*
X4267801Y-16010174D02*
X4267801Y-16057793D01*
X4267801Y-16057793D02*
X4258277Y-16095888D01*
X4258277Y-16095888D02*
X4248753Y-16114936D01*
X4248753Y-16114936D02*
X4239229Y-16124460D01*
X4239229Y-16124460D02*
X4220182Y-16133984D01*
X4220182Y-16133984D02*
X4201134Y-16133984D01*
X4201134Y-16133984D02*
X4182086Y-16124460D01*
X4182086Y-16124460D02*
X4172563Y-16114936D01*
X4172563Y-16114936D02*
X4163039Y-16095888D01*
X4163039Y-16095888D02*
X4153515Y-16057793D01*
X4153515Y-16057793D02*
X4153515Y-16010174D01*
X4153515Y-16010174D02*
X4163039Y-15972079D01*
X4163039Y-15972079D02*
X4172563Y-15953031D01*
X4172563Y-15953031D02*
X4182086Y-15943508D01*
X4182086Y-15943508D02*
X4201134Y-15933984D01*
X4353515Y-16114936D02*
X4363039Y-16124460D01*
X4363039Y-16124460D02*
X4353515Y-16133984D01*
X4353515Y-16133984D02*
X4343991Y-16124460D01*
X4343991Y-16124460D02*
X4353515Y-16114936D01*
X4353515Y-16114936D02*
X4353515Y-16133984D01*
X4553515Y-16133984D02*
X4439229Y-16133984D01*
X4496372Y-16133984D02*
X4496372Y-15933984D01*
X4496372Y-15933984D02*
X4477325Y-15962555D01*
X4477325Y-15962555D02*
X4458277Y-15981603D01*
X4458277Y-15981603D02*
X4439229Y-15991127D01*
X4743991Y-16133984D02*
X4629706Y-16133984D01*
X4686848Y-16133984D02*
X4686848Y-15933984D01*
X4686848Y-15933984D02*
X4667801Y-15962555D01*
X4667801Y-15962555D02*
X4648753Y-15981603D01*
X4648753Y-15981603D02*
X4629706Y-15991127D01*
X4915420Y-16000650D02*
X4915420Y-16133984D01*
X4867801Y-15924460D02*
X4820182Y-16067317D01*
X4820182Y-16067317D02*
X4943991Y-16067317D01*
X5010658Y-15953031D02*
X5020182Y-15943508D01*
X5020182Y-15943508D02*
X5039229Y-15933984D01*
X5039229Y-15933984D02*
X5086849Y-15933984D01*
X5086849Y-15933984D02*
X5105896Y-15943508D01*
X5105896Y-15943508D02*
X5115420Y-15953031D01*
X5115420Y-15953031D02*
X5124944Y-15972079D01*
X5124944Y-15972079D02*
X5124944Y-15991127D01*
X5124944Y-15991127D02*
X5115420Y-16019698D01*
X5115420Y-16019698D02*
X5001134Y-16133984D01*
X5001134Y-16133984D02*
X5124944Y-16133984D01*
X5201134Y-15933984D02*
X5201134Y-15972079D01*
X5277325Y-15933984D02*
X5277325Y-15972079D01*
X5572563Y-16210174D02*
X5563039Y-16200650D01*
X5563039Y-16200650D02*
X5543991Y-16172079D01*
X5543991Y-16172079D02*
X5534468Y-16153031D01*
X5534468Y-16153031D02*
X5524944Y-16124460D01*
X5524944Y-16124460D02*
X5515420Y-16076841D01*
X5515420Y-16076841D02*
X5515420Y-16038746D01*
X5515420Y-16038746D02*
X5524944Y-15991127D01*
X5524944Y-15991127D02*
X5534468Y-15962555D01*
X5534468Y-15962555D02*
X5543991Y-15943508D01*
X5543991Y-15943508D02*
X5563039Y-15914936D01*
X5563039Y-15914936D02*
X5572563Y-15905412D01*
X5753515Y-16133984D02*
X5639229Y-16133984D01*
X5696372Y-16133984D02*
X5696372Y-15933984D01*
X5696372Y-15933984D02*
X5677325Y-15962555D01*
X5677325Y-15962555D02*
X5658277Y-15981603D01*
X5658277Y-15981603D02*
X5639229Y-15991127D01*
X5924944Y-16000650D02*
X5924944Y-16133984D01*
X5877325Y-15924460D02*
X5829706Y-16067317D01*
X5829706Y-16067317D02*
X5953515Y-16067317D01*
X6182087Y-16133984D02*
X6182087Y-15933984D01*
X6267801Y-16133984D02*
X6267801Y-16029222D01*
X6267801Y-16029222D02*
X6258277Y-16010174D01*
X6258277Y-16010174D02*
X6239230Y-16000650D01*
X6239230Y-16000650D02*
X6210658Y-16000650D01*
X6210658Y-16000650D02*
X6191610Y-16010174D01*
X6191610Y-16010174D02*
X6182087Y-16019698D01*
X6391610Y-16133984D02*
X6372563Y-16124460D01*
X6372563Y-16124460D02*
X6363039Y-16114936D01*
X6363039Y-16114936D02*
X6353515Y-16095888D01*
X6353515Y-16095888D02*
X6353515Y-16038746D01*
X6353515Y-16038746D02*
X6363039Y-16019698D01*
X6363039Y-16019698D02*
X6372563Y-16010174D01*
X6372563Y-16010174D02*
X6391610Y-16000650D01*
X6391610Y-16000650D02*
X6420182Y-16000650D01*
X6420182Y-16000650D02*
X6439230Y-16010174D01*
X6439230Y-16010174D02*
X6448753Y-16019698D01*
X6448753Y-16019698D02*
X6458277Y-16038746D01*
X6458277Y-16038746D02*
X6458277Y-16095888D01*
X6458277Y-16095888D02*
X6448753Y-16114936D01*
X6448753Y-16114936D02*
X6439230Y-16124460D01*
X6439230Y-16124460D02*
X6420182Y-16133984D01*
X6420182Y-16133984D02*
X6391610Y-16133984D01*
X6572563Y-16133984D02*
X6553515Y-16124460D01*
X6553515Y-16124460D02*
X6543991Y-16105412D01*
X6543991Y-16105412D02*
X6543991Y-15933984D01*
X6724944Y-16124460D02*
X6705896Y-16133984D01*
X6705896Y-16133984D02*
X6667801Y-16133984D01*
X6667801Y-16133984D02*
X6648753Y-16124460D01*
X6648753Y-16124460D02*
X6639230Y-16105412D01*
X6639230Y-16105412D02*
X6639230Y-16029222D01*
X6639230Y-16029222D02*
X6648753Y-16010174D01*
X6648753Y-16010174D02*
X6667801Y-16000650D01*
X6667801Y-16000650D02*
X6705896Y-16000650D01*
X6705896Y-16000650D02*
X6724944Y-16010174D01*
X6724944Y-16010174D02*
X6734468Y-16029222D01*
X6734468Y-16029222D02*
X6734468Y-16048269D01*
X6734468Y-16048269D02*
X6639230Y-16067317D01*
X6810658Y-16124460D02*
X6829706Y-16133984D01*
X6829706Y-16133984D02*
X6867801Y-16133984D01*
X6867801Y-16133984D02*
X6886849Y-16124460D01*
X6886849Y-16124460D02*
X6896372Y-16105412D01*
X6896372Y-16105412D02*
X6896372Y-16095888D01*
X6896372Y-16095888D02*
X6886849Y-16076841D01*
X6886849Y-16076841D02*
X6867801Y-16067317D01*
X6867801Y-16067317D02*
X6839230Y-16067317D01*
X6839230Y-16067317D02*
X6820182Y-16057793D01*
X6820182Y-16057793D02*
X6810658Y-16038746D01*
X6810658Y-16038746D02*
X6810658Y-16029222D01*
X6810658Y-16029222D02*
X6820182Y-16010174D01*
X6820182Y-16010174D02*
X6839230Y-16000650D01*
X6839230Y-16000650D02*
X6867801Y-16000650D01*
X6867801Y-16000650D02*
X6886849Y-16010174D01*
X6963039Y-16210174D02*
X6972563Y-16200650D01*
X6972563Y-16200650D02*
X6991611Y-16172079D01*
X6991611Y-16172079D02*
X7001134Y-16153031D01*
X7001134Y-16153031D02*
X7010658Y-16124460D01*
X7010658Y-16124460D02*
X7020182Y-16076841D01*
X7020182Y-16076841D02*
X7020182Y-16038746D01*
X7020182Y-16038746D02*
X7010658Y-15991127D01*
X7010658Y-15991127D02*
X7001134Y-15962555D01*
X7001134Y-15962555D02*
X6991611Y-15943508D01*
X6991611Y-15943508D02*
X6972563Y-15914936D01*
X6972563Y-15914936D02*
X6963039Y-15905412D01*
X1797500Y-16262500D02*
X1997500Y-16462500D01*
X1997500Y-16262500D02*
X1797500Y-16462500D01*
X1968211Y-16433211D02*
X1968211Y-16291789D01*
X1826789Y-16291789D01*
X1826789Y-16433211D01*
X1968211Y-16433211D01*
X2248753Y-16273031D02*
X2258277Y-16263508D01*
X2258277Y-16263508D02*
X2277324Y-16253984D01*
X2277324Y-16253984D02*
X2324944Y-16253984D01*
X2324944Y-16253984D02*
X2343991Y-16263508D01*
X2343991Y-16263508D02*
X2353515Y-16273031D01*
X2353515Y-16273031D02*
X2363039Y-16292079D01*
X2363039Y-16292079D02*
X2363039Y-16311127D01*
X2363039Y-16311127D02*
X2353515Y-16339698D01*
X2353515Y-16339698D02*
X2239229Y-16453984D01*
X2239229Y-16453984D02*
X2363039Y-16453984D01*
X2448753Y-16434936D02*
X2458277Y-16444460D01*
X2458277Y-16444460D02*
X2448753Y-16453984D01*
X2448753Y-16453984D02*
X2439229Y-16444460D01*
X2439229Y-16444460D02*
X2448753Y-16434936D01*
X2448753Y-16434936D02*
X2448753Y-16453984D01*
X2553515Y-16453984D02*
X2591610Y-16453984D01*
X2591610Y-16453984D02*
X2610658Y-16444460D01*
X2610658Y-16444460D02*
X2620182Y-16434936D01*
X2620182Y-16434936D02*
X2639229Y-16406365D01*
X2639229Y-16406365D02*
X2648753Y-16368269D01*
X2648753Y-16368269D02*
X2648753Y-16292079D01*
X2648753Y-16292079D02*
X2639229Y-16273031D01*
X2639229Y-16273031D02*
X2629705Y-16263508D01*
X2629705Y-16263508D02*
X2610658Y-16253984D01*
X2610658Y-16253984D02*
X2572563Y-16253984D01*
X2572563Y-16253984D02*
X2553515Y-16263508D01*
X2553515Y-16263508D02*
X2543991Y-16273031D01*
X2543991Y-16273031D02*
X2534467Y-16292079D01*
X2534467Y-16292079D02*
X2534467Y-16339698D01*
X2534467Y-16339698D02*
X2543991Y-16358746D01*
X2543991Y-16358746D02*
X2553515Y-16368269D01*
X2553515Y-16368269D02*
X2572563Y-16377793D01*
X2572563Y-16377793D02*
X2610658Y-16377793D01*
X2610658Y-16377793D02*
X2629705Y-16368269D01*
X2629705Y-16368269D02*
X2639229Y-16358746D01*
X2639229Y-16358746D02*
X2648753Y-16339698D01*
X2715420Y-16253984D02*
X2848753Y-16253984D01*
X2848753Y-16253984D02*
X2763039Y-16453984D01*
X2963039Y-16253984D02*
X2982086Y-16253984D01*
X2982086Y-16253984D02*
X3001134Y-16263508D01*
X3001134Y-16263508D02*
X3010658Y-16273031D01*
X3010658Y-16273031D02*
X3020182Y-16292079D01*
X3020182Y-16292079D02*
X3029705Y-16330174D01*
X3029705Y-16330174D02*
X3029705Y-16377793D01*
X3029705Y-16377793D02*
X3020182Y-16415888D01*
X3020182Y-16415888D02*
X3010658Y-16434936D01*
X3010658Y-16434936D02*
X3001134Y-16444460D01*
X3001134Y-16444460D02*
X2982086Y-16453984D01*
X2982086Y-16453984D02*
X2963039Y-16453984D01*
X2963039Y-16453984D02*
X2943991Y-16444460D01*
X2943991Y-16444460D02*
X2934467Y-16434936D01*
X2934467Y-16434936D02*
X2924943Y-16415888D01*
X2924943Y-16415888D02*
X2915420Y-16377793D01*
X2915420Y-16377793D02*
X2915420Y-16330174D01*
X2915420Y-16330174D02*
X2924943Y-16292079D01*
X2924943Y-16292079D02*
X2934467Y-16273031D01*
X2934467Y-16273031D02*
X2943991Y-16263508D01*
X2943991Y-16263508D02*
X2963039Y-16253984D01*
X3115420Y-16453984D02*
X3115420Y-16320650D01*
X3115420Y-16339698D02*
X3124943Y-16330174D01*
X3124943Y-16330174D02*
X3143991Y-16320650D01*
X3143991Y-16320650D02*
X3172563Y-16320650D01*
X3172563Y-16320650D02*
X3191610Y-16330174D01*
X3191610Y-16330174D02*
X3201134Y-16349222D01*
X3201134Y-16349222D02*
X3201134Y-16453984D01*
X3201134Y-16349222D02*
X3210658Y-16330174D01*
X3210658Y-16330174D02*
X3229705Y-16320650D01*
X3229705Y-16320650D02*
X3258277Y-16320650D01*
X3258277Y-16320650D02*
X3277324Y-16330174D01*
X3277324Y-16330174D02*
X3286848Y-16349222D01*
X3286848Y-16349222D02*
X3286848Y-16453984D01*
X3382086Y-16453984D02*
X3382086Y-16320650D01*
X3382086Y-16339698D02*
X3391610Y-16330174D01*
X3391610Y-16330174D02*
X3410658Y-16320650D01*
X3410658Y-16320650D02*
X3439229Y-16320650D01*
X3439229Y-16320650D02*
X3458277Y-16330174D01*
X3458277Y-16330174D02*
X3467801Y-16349222D01*
X3467801Y-16349222D02*
X3467801Y-16453984D01*
X3467801Y-16349222D02*
X3477324Y-16330174D01*
X3477324Y-16330174D02*
X3496372Y-16320650D01*
X3496372Y-16320650D02*
X3524943Y-16320650D01*
X3524943Y-16320650D02*
X3543991Y-16330174D01*
X3543991Y-16330174D02*
X3553515Y-16349222D01*
X3553515Y-16349222D02*
X3553515Y-16453984D01*
X3943991Y-16244460D02*
X3772563Y-16501603D01*
X4201134Y-16253984D02*
X4220182Y-16253984D01*
X4220182Y-16253984D02*
X4239229Y-16263508D01*
X4239229Y-16263508D02*
X4248753Y-16273031D01*
X4248753Y-16273031D02*
X4258277Y-16292079D01*
X4258277Y-16292079D02*
X4267801Y-16330174D01*
X4267801Y-16330174D02*
X4267801Y-16377793D01*
X4267801Y-16377793D02*
X4258277Y-16415888D01*
X4258277Y-16415888D02*
X4248753Y-16434936D01*
X4248753Y-16434936D02*
X4239229Y-16444460D01*
X4239229Y-16444460D02*
X4220182Y-16453984D01*
X4220182Y-16453984D02*
X4201134Y-16453984D01*
X4201134Y-16453984D02*
X4182086Y-16444460D01*
X4182086Y-16444460D02*
X4172563Y-16434936D01*
X4172563Y-16434936D02*
X4163039Y-16415888D01*
X4163039Y-16415888D02*
X4153515Y-16377793D01*
X4153515Y-16377793D02*
X4153515Y-16330174D01*
X4153515Y-16330174D02*
X4163039Y-16292079D01*
X4163039Y-16292079D02*
X4172563Y-16273031D01*
X4172563Y-16273031D02*
X4182086Y-16263508D01*
X4182086Y-16263508D02*
X4201134Y-16253984D01*
X4353515Y-16434936D02*
X4363039Y-16444460D01*
X4363039Y-16444460D02*
X4353515Y-16453984D01*
X4353515Y-16453984D02*
X4343991Y-16444460D01*
X4343991Y-16444460D02*
X4353515Y-16434936D01*
X4353515Y-16434936D02*
X4353515Y-16453984D01*
X4553515Y-16453984D02*
X4439229Y-16453984D01*
X4496372Y-16453984D02*
X4496372Y-16253984D01*
X4496372Y-16253984D02*
X4477325Y-16282555D01*
X4477325Y-16282555D02*
X4458277Y-16301603D01*
X4458277Y-16301603D02*
X4439229Y-16311127D01*
X4743991Y-16453984D02*
X4629706Y-16453984D01*
X4686848Y-16453984D02*
X4686848Y-16253984D01*
X4686848Y-16253984D02*
X4667801Y-16282555D01*
X4667801Y-16282555D02*
X4648753Y-16301603D01*
X4648753Y-16301603D02*
X4629706Y-16311127D01*
X4915420Y-16253984D02*
X4877325Y-16253984D01*
X4877325Y-16253984D02*
X4858277Y-16263508D01*
X4858277Y-16263508D02*
X4848753Y-16273031D01*
X4848753Y-16273031D02*
X4829706Y-16301603D01*
X4829706Y-16301603D02*
X4820182Y-16339698D01*
X4820182Y-16339698D02*
X4820182Y-16415888D01*
X4820182Y-16415888D02*
X4829706Y-16434936D01*
X4829706Y-16434936D02*
X4839229Y-16444460D01*
X4839229Y-16444460D02*
X4858277Y-16453984D01*
X4858277Y-16453984D02*
X4896372Y-16453984D01*
X4896372Y-16453984D02*
X4915420Y-16444460D01*
X4915420Y-16444460D02*
X4924944Y-16434936D01*
X4924944Y-16434936D02*
X4934468Y-16415888D01*
X4934468Y-16415888D02*
X4934468Y-16368269D01*
X4934468Y-16368269D02*
X4924944Y-16349222D01*
X4924944Y-16349222D02*
X4915420Y-16339698D01*
X4915420Y-16339698D02*
X4896372Y-16330174D01*
X4896372Y-16330174D02*
X4858277Y-16330174D01*
X4858277Y-16330174D02*
X4839229Y-16339698D01*
X4839229Y-16339698D02*
X4829706Y-16349222D01*
X4829706Y-16349222D02*
X4820182Y-16368269D01*
X5029706Y-16453984D02*
X5067801Y-16453984D01*
X5067801Y-16453984D02*
X5086849Y-16444460D01*
X5086849Y-16444460D02*
X5096372Y-16434936D01*
X5096372Y-16434936D02*
X5115420Y-16406365D01*
X5115420Y-16406365D02*
X5124944Y-16368269D01*
X5124944Y-16368269D02*
X5124944Y-16292079D01*
X5124944Y-16292079D02*
X5115420Y-16273031D01*
X5115420Y-16273031D02*
X5105896Y-16263508D01*
X5105896Y-16263508D02*
X5086849Y-16253984D01*
X5086849Y-16253984D02*
X5048753Y-16253984D01*
X5048753Y-16253984D02*
X5029706Y-16263508D01*
X5029706Y-16263508D02*
X5020182Y-16273031D01*
X5020182Y-16273031D02*
X5010658Y-16292079D01*
X5010658Y-16292079D02*
X5010658Y-16339698D01*
X5010658Y-16339698D02*
X5020182Y-16358746D01*
X5020182Y-16358746D02*
X5029706Y-16368269D01*
X5029706Y-16368269D02*
X5048753Y-16377793D01*
X5048753Y-16377793D02*
X5086849Y-16377793D01*
X5086849Y-16377793D02*
X5105896Y-16368269D01*
X5105896Y-16368269D02*
X5115420Y-16358746D01*
X5115420Y-16358746D02*
X5124944Y-16339698D01*
X5201134Y-16253984D02*
X5201134Y-16292079D01*
X5277325Y-16253984D02*
X5277325Y-16292079D01*
X5572563Y-16530174D02*
X5563039Y-16520650D01*
X5563039Y-16520650D02*
X5543991Y-16492079D01*
X5543991Y-16492079D02*
X5534468Y-16473031D01*
X5534468Y-16473031D02*
X5524944Y-16444460D01*
X5524944Y-16444460D02*
X5515420Y-16396841D01*
X5515420Y-16396841D02*
X5515420Y-16358746D01*
X5515420Y-16358746D02*
X5524944Y-16311127D01*
X5524944Y-16311127D02*
X5534468Y-16282555D01*
X5534468Y-16282555D02*
X5543991Y-16263508D01*
X5543991Y-16263508D02*
X5563039Y-16234936D01*
X5563039Y-16234936D02*
X5572563Y-16225412D01*
X5639229Y-16273031D02*
X5648753Y-16263508D01*
X5648753Y-16263508D02*
X5667801Y-16253984D01*
X5667801Y-16253984D02*
X5715420Y-16253984D01*
X5715420Y-16253984D02*
X5734468Y-16263508D01*
X5734468Y-16263508D02*
X5743991Y-16273031D01*
X5743991Y-16273031D02*
X5753515Y-16292079D01*
X5753515Y-16292079D02*
X5753515Y-16311127D01*
X5753515Y-16311127D02*
X5743991Y-16339698D01*
X5743991Y-16339698D02*
X5629706Y-16453984D01*
X5629706Y-16453984D02*
X5753515Y-16453984D01*
X5991610Y-16453984D02*
X5991610Y-16253984D01*
X6077325Y-16453984D02*
X6077325Y-16349222D01*
X6077325Y-16349222D02*
X6067801Y-16330174D01*
X6067801Y-16330174D02*
X6048753Y-16320650D01*
X6048753Y-16320650D02*
X6020182Y-16320650D01*
X6020182Y-16320650D02*
X6001134Y-16330174D01*
X6001134Y-16330174D02*
X5991610Y-16339698D01*
X6201134Y-16453984D02*
X6182087Y-16444460D01*
X6182087Y-16444460D02*
X6172563Y-16434936D01*
X6172563Y-16434936D02*
X6163039Y-16415888D01*
X6163039Y-16415888D02*
X6163039Y-16358746D01*
X6163039Y-16358746D02*
X6172563Y-16339698D01*
X6172563Y-16339698D02*
X6182087Y-16330174D01*
X6182087Y-16330174D02*
X6201134Y-16320650D01*
X6201134Y-16320650D02*
X6229706Y-16320650D01*
X6229706Y-16320650D02*
X6248753Y-16330174D01*
X6248753Y-16330174D02*
X6258277Y-16339698D01*
X6258277Y-16339698D02*
X6267801Y-16358746D01*
X6267801Y-16358746D02*
X6267801Y-16415888D01*
X6267801Y-16415888D02*
X6258277Y-16434936D01*
X6258277Y-16434936D02*
X6248753Y-16444460D01*
X6248753Y-16444460D02*
X6229706Y-16453984D01*
X6229706Y-16453984D02*
X6201134Y-16453984D01*
X6382087Y-16453984D02*
X6363039Y-16444460D01*
X6363039Y-16444460D02*
X6353515Y-16425412D01*
X6353515Y-16425412D02*
X6353515Y-16253984D01*
X6534468Y-16444460D02*
X6515420Y-16453984D01*
X6515420Y-16453984D02*
X6477325Y-16453984D01*
X6477325Y-16453984D02*
X6458277Y-16444460D01*
X6458277Y-16444460D02*
X6448753Y-16425412D01*
X6448753Y-16425412D02*
X6448753Y-16349222D01*
X6448753Y-16349222D02*
X6458277Y-16330174D01*
X6458277Y-16330174D02*
X6477325Y-16320650D01*
X6477325Y-16320650D02*
X6515420Y-16320650D01*
X6515420Y-16320650D02*
X6534468Y-16330174D01*
X6534468Y-16330174D02*
X6543991Y-16349222D01*
X6543991Y-16349222D02*
X6543991Y-16368269D01*
X6543991Y-16368269D02*
X6448753Y-16387317D01*
X6620182Y-16444460D02*
X6639230Y-16453984D01*
X6639230Y-16453984D02*
X6677325Y-16453984D01*
X6677325Y-16453984D02*
X6696372Y-16444460D01*
X6696372Y-16444460D02*
X6705896Y-16425412D01*
X6705896Y-16425412D02*
X6705896Y-16415888D01*
X6705896Y-16415888D02*
X6696372Y-16396841D01*
X6696372Y-16396841D02*
X6677325Y-16387317D01*
X6677325Y-16387317D02*
X6648753Y-16387317D01*
X6648753Y-16387317D02*
X6629706Y-16377793D01*
X6629706Y-16377793D02*
X6620182Y-16358746D01*
X6620182Y-16358746D02*
X6620182Y-16349222D01*
X6620182Y-16349222D02*
X6629706Y-16330174D01*
X6629706Y-16330174D02*
X6648753Y-16320650D01*
X6648753Y-16320650D02*
X6677325Y-16320650D01*
X6677325Y-16320650D02*
X6696372Y-16330174D01*
X6772563Y-16530174D02*
X6782087Y-16520650D01*
X6782087Y-16520650D02*
X6801134Y-16492079D01*
X6801134Y-16492079D02*
X6810658Y-16473031D01*
X6810658Y-16473031D02*
X6820182Y-16444460D01*
X6820182Y-16444460D02*
X6829706Y-16396841D01*
X6829706Y-16396841D02*
X6829706Y-16358746D01*
X6829706Y-16358746D02*
X6820182Y-16311127D01*
X6820182Y-16311127D02*
X6810658Y-16282555D01*
X6810658Y-16282555D02*
X6801134Y-16263508D01*
X6801134Y-16263508D02*
X6782087Y-16234936D01*
X6782087Y-16234936D02*
X6772563Y-16225412D01*
M02*
