G04 #@! TF.GenerationSoftware,KiCad,Pcbnew,8.0.2*
G04 #@! TF.CreationDate,2024-10-15T19:39:21+09:00*
G04 #@! TF.ProjectId,frontPanel,66726f6e-7450-4616-9e65-6c2e6b696361,rev?*
G04 #@! TF.SameCoordinates,Original*
G04 #@! TF.FileFunction,Copper,L1,Top*
G04 #@! TF.FilePolarity,Positive*
%FSLAX46Y46*%
G04 Gerber Fmt 4.6, Leading zero omitted, Abs format (unit mm)*
G04 Created by KiCad (PCBNEW 8.0.2) date 2024-10-15 19:39:21*
%MOMM*%
%LPD*%
G01*
G04 APERTURE LIST*
G04 #@! TA.AperFunction,ComponentPad*
%ADD10R,1.500000X1.500000*%
G04 #@! TD*
G04 #@! TA.AperFunction,ComponentPad*
%ADD11C,1.500000*%
G04 #@! TD*
G04 #@! TA.AperFunction,ComponentPad*
%ADD12C,4.350000*%
G04 #@! TD*
G04 #@! TA.AperFunction,ComponentPad*
%ADD13C,1.575000*%
G04 #@! TD*
G04 #@! TA.AperFunction,ComponentPad*
%ADD14R,1.800000X1.800000*%
G04 #@! TD*
G04 #@! TA.AperFunction,ComponentPad*
%ADD15C,1.800000*%
G04 #@! TD*
G04 #@! TA.AperFunction,ComponentPad*
%ADD16C,2.400000*%
G04 #@! TD*
G04 #@! TA.AperFunction,ComponentPad*
%ADD17C,1.635000*%
G04 #@! TD*
G04 #@! TA.AperFunction,ComponentPad*
%ADD18C,4.455000*%
G04 #@! TD*
G04 #@! TA.AperFunction,ComponentPad*
%ADD19R,1.700000X1.700000*%
G04 #@! TD*
G04 #@! TA.AperFunction,ComponentPad*
%ADD20O,1.700000X1.700000*%
G04 #@! TD*
G04 #@! TA.AperFunction,ViaPad*
%ADD21C,0.600000*%
G04 #@! TD*
G04 #@! TA.AperFunction,Conductor*
%ADD22C,0.200000*%
G04 #@! TD*
G04 APERTURE END LIST*
D10*
X89100000Y-74575000D03*
D11*
X91600000Y-74575000D03*
X94100000Y-74575000D03*
X96600000Y-74575000D03*
D12*
X87050000Y-63575000D03*
X98650000Y-63575000D03*
D13*
X162831000Y-90650000D03*
X156331000Y-90650000D03*
X162831000Y-86150000D03*
X156331000Y-86150000D03*
X94100000Y-127800000D03*
X87600000Y-127800000D03*
X94100000Y-123300000D03*
X87600000Y-123300000D03*
D10*
X26950000Y-74700000D03*
D11*
X29450000Y-74700000D03*
X31950000Y-74700000D03*
X34450000Y-74700000D03*
D12*
X24900000Y-63700000D03*
X36500000Y-63700000D03*
D13*
X104331000Y-90650000D03*
X97831000Y-90650000D03*
X104331000Y-86150000D03*
X97831000Y-86150000D03*
D14*
X100096000Y-80850000D03*
D15*
X102636000Y-80850000D03*
D14*
X72091000Y-98900000D03*
D15*
X74631000Y-98900000D03*
D14*
X40831000Y-99400000D03*
D15*
X43371000Y-99400000D03*
D13*
X130531000Y-90650000D03*
X124031000Y-90650000D03*
X130531000Y-86150000D03*
X124031000Y-86150000D03*
X98200000Y-108700000D03*
X91700000Y-108700000D03*
X98200000Y-104200000D03*
X91700000Y-104200000D03*
X29331000Y-90350000D03*
X22831000Y-90350000D03*
X29331000Y-85850000D03*
X22831000Y-85850000D03*
X126300000Y-127800000D03*
X119800000Y-127800000D03*
X126300000Y-123300000D03*
X119800000Y-123300000D03*
D14*
X46925000Y-117600000D03*
D15*
X49465000Y-117600000D03*
D14*
X52391000Y-80650000D03*
D15*
X54931000Y-80650000D03*
D14*
X36100000Y-117600000D03*
D15*
X38640000Y-117600000D03*
D16*
X155000000Y-38700000D03*
X138700000Y-38700000D03*
X155000000Y-32400000D03*
X138700000Y-32400000D03*
X155000000Y-45000000D03*
X138700000Y-45000000D03*
D13*
X152131000Y-90650000D03*
X145631000Y-90650000D03*
X152131000Y-86150000D03*
X145631000Y-86150000D03*
X141331000Y-90650000D03*
X134831000Y-90650000D03*
X141331000Y-86150000D03*
X134831000Y-86150000D03*
D14*
X132360000Y-117800000D03*
D15*
X134900000Y-117800000D03*
D13*
X56600000Y-90600000D03*
X50100000Y-90600000D03*
X56600000Y-86100000D03*
X50100000Y-86100000D03*
X87500000Y-108700000D03*
X81000000Y-108700000D03*
X87500000Y-104200000D03*
X81000000Y-104200000D03*
D10*
X155450000Y-74400000D03*
D11*
X157950000Y-74400000D03*
X160450000Y-74400000D03*
X162950000Y-74400000D03*
D12*
X153400000Y-63400000D03*
X165000000Y-63400000D03*
D14*
X143560000Y-117700000D03*
D15*
X146100000Y-117700000D03*
D14*
X82956000Y-98900000D03*
D15*
X85496000Y-98900000D03*
D13*
X45700000Y-108700000D03*
X39200000Y-108700000D03*
X45700000Y-104200000D03*
X39200000Y-104200000D03*
D14*
X78825000Y-117900000D03*
D15*
X81365000Y-117900000D03*
D10*
X117950000Y-45700000D03*
D11*
X120450000Y-45700000D03*
X122950000Y-45700000D03*
X125450000Y-45700000D03*
D12*
X115900000Y-34700000D03*
X127500000Y-34700000D03*
D14*
X147391000Y-80850000D03*
D15*
X149931000Y-80850000D03*
D14*
X158831000Y-80850000D03*
D15*
X161371000Y-80850000D03*
D14*
X89331000Y-80850000D03*
D15*
X91871000Y-80850000D03*
D14*
X41391000Y-80650000D03*
D15*
X43931000Y-80650000D03*
D14*
X100225000Y-117900000D03*
D15*
X102765000Y-117900000D03*
D13*
X29835000Y-107800000D03*
X23335000Y-107800000D03*
X29835000Y-103300000D03*
X23335000Y-103300000D03*
X160400000Y-127700000D03*
X153900000Y-127700000D03*
X160400000Y-123200000D03*
X153900000Y-123200000D03*
X147700000Y-127800000D03*
X141200000Y-127800000D03*
X147700000Y-123300000D03*
X141200000Y-123300000D03*
X61900000Y-127790000D03*
X55400000Y-127790000D03*
X61900000Y-123290000D03*
X55400000Y-123290000D03*
D14*
X110631000Y-80850000D03*
D15*
X113171000Y-80850000D03*
D13*
X126400000Y-108600000D03*
X119900000Y-108600000D03*
X126400000Y-104100000D03*
X119900000Y-104100000D03*
X45931000Y-90550000D03*
X39431000Y-90550000D03*
X45931000Y-86050000D03*
X39431000Y-86050000D03*
D14*
X73791000Y-80650000D03*
D15*
X76331000Y-80650000D03*
D14*
X119156000Y-98600000D03*
D15*
X121696000Y-98600000D03*
D17*
X28340000Y-46000000D03*
X30880000Y-46000000D03*
X33420000Y-46000000D03*
X25800000Y-46000000D03*
X35960000Y-46000000D03*
D14*
X57560000Y-117600000D03*
D15*
X60100000Y-117600000D03*
D14*
X132891000Y-98800000D03*
D15*
X135431000Y-98800000D03*
D10*
X129150000Y-74475000D03*
D11*
X131650000Y-74475000D03*
X134150000Y-74475000D03*
X136650000Y-74475000D03*
D12*
X127100000Y-63475000D03*
X138700000Y-63475000D03*
D10*
X47450000Y-74600000D03*
D11*
X49950000Y-74600000D03*
X52450000Y-74600000D03*
X54950000Y-74600000D03*
D12*
X45400000Y-63600000D03*
X57000000Y-63600000D03*
D13*
X56431000Y-108700000D03*
X49931000Y-108700000D03*
X56431000Y-104200000D03*
X49931000Y-104200000D03*
X83300000Y-127800000D03*
X76800000Y-127800000D03*
X83300000Y-123300000D03*
X76800000Y-123300000D03*
X67300000Y-90600000D03*
X60800000Y-90600000D03*
X67300000Y-86100000D03*
X60800000Y-86100000D03*
D14*
X121560000Y-117900000D03*
D15*
X124100000Y-117900000D03*
D10*
X109150000Y-74500000D03*
D11*
X111650000Y-74500000D03*
X114150000Y-74500000D03*
X116650000Y-74500000D03*
D12*
X107100000Y-63500000D03*
X118700000Y-63500000D03*
D14*
X25860000Y-97600000D03*
D15*
X28400000Y-97600000D03*
D13*
X78031000Y-90550000D03*
X71531000Y-90550000D03*
X78031000Y-86050000D03*
X71531000Y-86050000D03*
D14*
X143556000Y-98900000D03*
D15*
X146096000Y-98900000D03*
D14*
X125956000Y-80850000D03*
D15*
X128496000Y-80850000D03*
D14*
X125531000Y-98800000D03*
D15*
X128071000Y-98800000D03*
D13*
X93631000Y-90650000D03*
X87131000Y-90650000D03*
X93631000Y-86150000D03*
X87131000Y-86150000D03*
X76800000Y-108700000D03*
X70300000Y-108700000D03*
X76800000Y-104200000D03*
X70300000Y-104200000D03*
D14*
X89625000Y-117900000D03*
D15*
X92165000Y-117900000D03*
D14*
X136256000Y-80850000D03*
D15*
X138796000Y-80850000D03*
D14*
X62791000Y-80750000D03*
D15*
X65331000Y-80750000D03*
D13*
X72600000Y-127800000D03*
X66100000Y-127800000D03*
X72600000Y-123300000D03*
X66100000Y-123300000D03*
X40480000Y-127790000D03*
X33980000Y-127790000D03*
X40480000Y-123290000D03*
X33980000Y-123290000D03*
D10*
X69200000Y-74300000D03*
D11*
X67200000Y-74300000D03*
X77200000Y-74300000D03*
X71200000Y-74300000D03*
X73200000Y-74300000D03*
X75200000Y-74300000D03*
D18*
X66400000Y-63300000D03*
X78000000Y-63300000D03*
D13*
X115600000Y-127800000D03*
X109100000Y-127800000D03*
X115600000Y-123300000D03*
X109100000Y-123300000D03*
X137000000Y-127800000D03*
X130500000Y-127800000D03*
X137000000Y-123300000D03*
X130500000Y-123300000D03*
D14*
X111125000Y-117800000D03*
D15*
X113665000Y-117800000D03*
D13*
X137100000Y-108600000D03*
X130600000Y-108600000D03*
X137100000Y-104100000D03*
X130600000Y-104100000D03*
D14*
X68225000Y-117600000D03*
D15*
X70765000Y-117600000D03*
D13*
X115031000Y-90650000D03*
X108531000Y-90650000D03*
X115031000Y-86150000D03*
X108531000Y-86150000D03*
X51200000Y-127790000D03*
X44700000Y-127790000D03*
X51200000Y-123290000D03*
X44700000Y-123290000D03*
X160500000Y-108600000D03*
X154000000Y-108600000D03*
X160500000Y-104100000D03*
X154000000Y-104100000D03*
X147800000Y-108600000D03*
X141300000Y-108600000D03*
X147800000Y-104100000D03*
X141300000Y-104100000D03*
D14*
X51656000Y-99100000D03*
D15*
X54196000Y-99100000D03*
D19*
X36940000Y-28560000D03*
D20*
X36940000Y-31100000D03*
X39480000Y-28560000D03*
X39480000Y-31100000D03*
X42020000Y-28560000D03*
X42020000Y-31100000D03*
X44560000Y-28560000D03*
X44560000Y-31100000D03*
X47100000Y-28560000D03*
X47100000Y-31100000D03*
X49640000Y-28560000D03*
X49640000Y-31100000D03*
X52180000Y-28560000D03*
X52180000Y-31100000D03*
X54720000Y-28560000D03*
X54720000Y-31100000D03*
X57260000Y-28560000D03*
X57260000Y-31100000D03*
X59800000Y-28560000D03*
X59800000Y-31100000D03*
X62340000Y-28560000D03*
X62340000Y-31100000D03*
X64880000Y-28560000D03*
X64880000Y-31100000D03*
X67420000Y-28560000D03*
X67420000Y-31100000D03*
X69960000Y-28560000D03*
X69960000Y-31100000D03*
X72500000Y-28560000D03*
X72500000Y-31100000D03*
X75040000Y-28560000D03*
X75040000Y-31100000D03*
X77580000Y-28560000D03*
X77580000Y-31100000D03*
X80120000Y-28560000D03*
X80120000Y-31100000D03*
X82660000Y-28560000D03*
X82660000Y-31100000D03*
X85200000Y-28560000D03*
X85200000Y-31100000D03*
D14*
X93556000Y-98900000D03*
D15*
X96096000Y-98900000D03*
D13*
X104800000Y-127800000D03*
X98300000Y-127800000D03*
X104800000Y-123300000D03*
X98300000Y-123300000D03*
D21*
X91800000Y-25900000D03*
X106800000Y-34700000D03*
X100104000Y-88231200D03*
X95803700Y-47109300D03*
X93192200Y-44556500D03*
X98359400Y-111780300D03*
X92019200Y-110991800D03*
X53648000Y-109157400D03*
X97460500Y-51913800D03*
X92158600Y-45823600D03*
X100890300Y-120065200D03*
X62841900Y-59817200D03*
X82381000Y-46551500D03*
X54608600Y-108892900D03*
X88078800Y-45835800D03*
X47492300Y-60685200D03*
X83076200Y-79639500D03*
X88494900Y-49538600D03*
X91217100Y-62863700D03*
X89742600Y-77974900D03*
X95938700Y-78589000D03*
X61634900Y-61185600D03*
X88606700Y-52169300D03*
X85961100Y-82945500D03*
X101734300Y-79203200D03*
X103283000Y-66652500D03*
X104839600Y-49197600D03*
X103069600Y-47683300D03*
X130897100Y-89350000D03*
X93165500Y-51876800D03*
X79716700Y-69665000D03*
X82729400Y-33049200D03*
X94702900Y-69699900D03*
X79656900Y-67235100D03*
X80185200Y-66069900D03*
X53751000Y-34724900D03*
X73486100Y-64303200D03*
X78304700Y-67654800D03*
X69460000Y-66683300D03*
X77329500Y-43963000D03*
X80614800Y-49012100D03*
X49600500Y-60775500D03*
X58637000Y-101103900D03*
X109317600Y-106751800D03*
X103835400Y-102882600D03*
X101656400Y-52725000D03*
X104347600Y-83177000D03*
D22*
X47220000Y-25900000D02*
X91800000Y-25900000D01*
X115900000Y-34700000D02*
X127500000Y-34700000D01*
X106800000Y-34700000D02*
X115900000Y-34700000D01*
X44560000Y-28560000D02*
X47220000Y-25900000D01*
X127500000Y-41150000D02*
X122950000Y-45700000D01*
X127500000Y-34700000D02*
X127500000Y-41150000D01*
X44560000Y-31100000D02*
X44560000Y-28560000D01*
X147391000Y-80850000D02*
X146189300Y-80850000D01*
X112658800Y-82051700D02*
X111457100Y-80850000D01*
X147391000Y-80850000D02*
X148592700Y-80850000D01*
X100922100Y-80850000D02*
X100096000Y-80850000D01*
X134387800Y-116598300D02*
X133186100Y-117800000D01*
X61589300Y-80750000D02*
X60487600Y-81851700D01*
X144987600Y-82051700D02*
X146189300Y-80850000D01*
X42217200Y-80650000D02*
X43418900Y-79448300D01*
X123592700Y-119106500D02*
X122761700Y-118275500D01*
X141256600Y-116598300D02*
X134387800Y-116598300D01*
X43418900Y-79448300D02*
X49987600Y-79448300D01*
X109429300Y-80850000D02*
X108227600Y-82051700D01*
X143560000Y-117700000D02*
X142358300Y-117700000D01*
X122761700Y-118275500D02*
X122761700Y-117900000D01*
X41391000Y-80650000D02*
X42217200Y-80650000D01*
X108227600Y-82051700D02*
X102123800Y-82051700D01*
X149418800Y-82051700D02*
X148592700Y-81225600D01*
X157629300Y-80850000D02*
X156427600Y-82051700D01*
X125956000Y-80850000D02*
X124754300Y-80850000D01*
X111457100Y-80850000D02*
X110631000Y-80850000D01*
X89331000Y-80850000D02*
X88129300Y-80850000D01*
X148592700Y-81225600D02*
X148592700Y-80850000D01*
X97692600Y-82051700D02*
X98894300Y-80850000D01*
X142358300Y-117700000D02*
X141256600Y-116598300D01*
X98894300Y-80850000D02*
X100096000Y-80850000D01*
X60487600Y-81851700D02*
X54418800Y-81851700D01*
X133186100Y-117800000D02*
X132360000Y-117800000D01*
X138283900Y-82051700D02*
X144987600Y-82051700D01*
X91358900Y-82051700D02*
X97692600Y-82051700D01*
X64430500Y-79110500D02*
X62791000Y-80750000D01*
X156427600Y-82051700D02*
X149418800Y-82051700D01*
X136256000Y-80850000D02*
X137457700Y-80850000D01*
X137457700Y-81225500D02*
X138283900Y-82051700D01*
X53217100Y-80650000D02*
X52391000Y-80650000D01*
X124754300Y-80850000D02*
X123552600Y-82051700D01*
X62791000Y-80750000D02*
X61589300Y-80750000D01*
X54418800Y-81851700D02*
X53217100Y-80650000D01*
X121560000Y-117900000D02*
X122761700Y-117900000D01*
X137457700Y-80850000D02*
X137457700Y-81225500D01*
X74617100Y-80650000D02*
X73791000Y-80650000D01*
X102123800Y-82051700D02*
X100922100Y-80850000D01*
X110631000Y-80850000D02*
X109429300Y-80850000D01*
X72589300Y-80650000D02*
X71049800Y-79110500D01*
X90157200Y-80850000D02*
X91358900Y-82051700D01*
X87127600Y-81851700D02*
X75818800Y-81851700D01*
X49987600Y-79448300D02*
X51189300Y-80650000D01*
X75818800Y-81851700D02*
X74617100Y-80650000D01*
X131158300Y-117800000D02*
X129851800Y-119106500D01*
X158831000Y-80850000D02*
X157629300Y-80850000D01*
X71049800Y-79110500D02*
X64430500Y-79110500D01*
X123552600Y-82051700D02*
X112658800Y-82051700D01*
X89331000Y-80850000D02*
X90157200Y-80850000D01*
X51189300Y-80650000D02*
X52391000Y-80650000D01*
X132360000Y-117800000D02*
X131158300Y-117800000D01*
X73791000Y-80650000D02*
X72589300Y-80650000D01*
X88129300Y-80850000D02*
X87127600Y-81851700D01*
X129851800Y-119106500D02*
X123592700Y-119106500D01*
X56011600Y-108280600D02*
X50350400Y-108280600D01*
X87500000Y-108700000D02*
X91700000Y-108700000D01*
X33980000Y-127790000D02*
X40480000Y-127790000D01*
X61900000Y-127790000D02*
X55400000Y-127790000D01*
X81000000Y-108700000D02*
X76800000Y-108700000D01*
X49931000Y-108700000D02*
X45700000Y-108700000D01*
X87500000Y-108700000D02*
X81000000Y-108700000D01*
X56431000Y-108700000D02*
X56011600Y-108280600D01*
X61910000Y-127800000D02*
X61900000Y-127790000D01*
X91700000Y-108700000D02*
X98200000Y-108700000D01*
X104800000Y-127800000D02*
X98300000Y-127800000D01*
X66100000Y-127800000D02*
X61910000Y-127800000D01*
X83300000Y-127800000D02*
X76800000Y-127800000D01*
X76800000Y-108700000D02*
X70300000Y-108700000D01*
X109100000Y-127800000D02*
X104800000Y-127800000D01*
X70300000Y-108700000D02*
X56431000Y-108700000D01*
X115600000Y-127800000D02*
X109100000Y-127800000D01*
X87600000Y-127800000D02*
X83300000Y-127800000D01*
X50350400Y-108280600D02*
X49931000Y-108700000D01*
X44700000Y-127790000D02*
X51200000Y-127790000D01*
X72600000Y-127800000D02*
X66100000Y-127800000D01*
X76800000Y-127800000D02*
X72600000Y-127800000D01*
X40480000Y-127790000D02*
X44700000Y-127790000D01*
X87600000Y-127800000D02*
X94100000Y-127800000D01*
X39200000Y-108700000D02*
X45700000Y-108700000D01*
X51200000Y-127790000D02*
X55400000Y-127790000D01*
X137000000Y-127800000D02*
X130500000Y-127800000D01*
X130500000Y-127800000D02*
X126300000Y-127800000D01*
X160500000Y-108600000D02*
X154000000Y-108600000D01*
X97831000Y-90650000D02*
X104331000Y-90650000D01*
X147700000Y-127800000D02*
X141200000Y-127800000D01*
X130600000Y-108600000D02*
X126400000Y-108600000D01*
X29835000Y-107800000D02*
X23335000Y-107800000D01*
X119900000Y-108600000D02*
X126400000Y-108600000D01*
X137100000Y-108600000D02*
X130600000Y-108600000D01*
X153900000Y-127700000D02*
X153800000Y-127800000D01*
X22831000Y-90350000D02*
X29331000Y-90350000D01*
X108531000Y-90650000D02*
X104331000Y-90650000D01*
X29835000Y-107800000D02*
X30041200Y-107593800D01*
X160400000Y-127700000D02*
X153900000Y-127700000D01*
X119800000Y-127800000D02*
X126300000Y-127800000D01*
X87131000Y-90650000D02*
X93631000Y-90650000D01*
X153800000Y-127800000D02*
X147700000Y-127800000D01*
X118893800Y-107593800D02*
X119900000Y-108600000D01*
X30041200Y-107593800D02*
X118893800Y-107593800D01*
X147800000Y-108600000D02*
X141300000Y-108600000D01*
X154000000Y-108600000D02*
X147800000Y-108600000D01*
X115031000Y-90650000D02*
X108531000Y-90650000D01*
X93631000Y-90650000D02*
X97831000Y-90650000D01*
X141331000Y-90650000D02*
X145631000Y-90650000D01*
X141331000Y-90650000D02*
X134831000Y-90650000D01*
X78031000Y-90550000D02*
X79126900Y-89454100D01*
X64129300Y-81247700D02*
X64129300Y-80252300D01*
X68624300Y-82343800D02*
X90153200Y-82343800D01*
X152131000Y-90650000D02*
X156331000Y-90650000D01*
X90153200Y-82343800D02*
X90384500Y-82575100D01*
X78431800Y-84853000D02*
X67734600Y-84853000D01*
X64833300Y-79548300D02*
X65828800Y-79548300D01*
X79126900Y-89454100D02*
X79126900Y-85548100D01*
X90384500Y-82575100D02*
X115956100Y-82575100D01*
X71531000Y-90550000D02*
X67350000Y-90550000D01*
X67734600Y-84853000D02*
X64129300Y-81247700D01*
X145631000Y-90650000D02*
X152131000Y-90650000D01*
X115956100Y-82575100D02*
X124031000Y-90650000D01*
X79126900Y-85548100D02*
X78431800Y-84853000D01*
X67300000Y-90600000D02*
X60800000Y-90600000D01*
X64129300Y-80252300D02*
X64833300Y-79548300D01*
X60800000Y-90600000D02*
X56600000Y-90600000D01*
X134831000Y-90650000D02*
X130531000Y-90650000D01*
X156331000Y-90650000D02*
X162831000Y-90650000D01*
X45981000Y-90600000D02*
X45931000Y-90550000D01*
X39431000Y-90550000D02*
X45931000Y-90550000D01*
X65828800Y-79548300D02*
X68624300Y-82343800D01*
X124031000Y-90650000D02*
X130531000Y-90650000D01*
X67350000Y-90550000D02*
X67300000Y-90600000D01*
X50100000Y-90600000D02*
X45981000Y-90600000D01*
X98359400Y-111780300D02*
X44459700Y-111780300D01*
X44459700Y-111780300D02*
X38640000Y-117600000D01*
X128071000Y-98800000D02*
X117502200Y-88231200D01*
X93192200Y-44556500D02*
X95745000Y-47109300D01*
X117502200Y-88231200D02*
X100104000Y-88231200D01*
X95745000Y-47109300D02*
X95803700Y-47109300D01*
X142354300Y-98900000D02*
X141252600Y-100001700D01*
X89625000Y-117900000D02*
X90451200Y-117900000D01*
X130462700Y-100026600D02*
X121408800Y-100026600D01*
X69051100Y-117600000D02*
X68225000Y-117600000D01*
X119156000Y-98600000D02*
X117954300Y-98600000D01*
X58386100Y-117600000D02*
X57560000Y-117600000D01*
X76330400Y-98899900D02*
X75128800Y-97698300D01*
X72931600Y-98900000D02*
X72091000Y-98900000D01*
X77623300Y-117900000D02*
X76721600Y-118801700D01*
X41657100Y-99400000D02*
X40831000Y-99400000D01*
X88423300Y-117900000D02*
X87221600Y-119101700D01*
X55156600Y-116398300D02*
X48952800Y-116398300D01*
X70252800Y-118801700D02*
X69051100Y-117600000D01*
X36100000Y-117600000D02*
X36926200Y-117600000D01*
X59587800Y-116398300D02*
X58386100Y-117600000D01*
X57560000Y-117600000D02*
X56358300Y-117600000D01*
X48952800Y-116398300D02*
X47751100Y-117600000D01*
X76721600Y-118801700D02*
X70252800Y-118801700D01*
X67023300Y-117600000D02*
X65821600Y-116398300D01*
X117954300Y-98600000D02*
X116452600Y-100101700D01*
X132891000Y-98800000D02*
X131689300Y-98800000D01*
X95583800Y-100101700D02*
X94382100Y-98900000D01*
X75128800Y-97698300D02*
X74133300Y-97698300D01*
X65821600Y-116398300D02*
X59587800Y-116398300D01*
X121408800Y-100026600D02*
X119982200Y-98600000D01*
X101051100Y-117900000D02*
X102252800Y-116698300D01*
X91652900Y-119101700D02*
X97821600Y-119101700D01*
X143556000Y-98900000D02*
X142354300Y-98900000D01*
X80852800Y-119101700D02*
X79651100Y-117900000D01*
X79651100Y-117900000D02*
X78825000Y-117900000D01*
X94382100Y-98900000D02*
X93556000Y-98900000D01*
X99023300Y-117900000D02*
X100225000Y-117900000D01*
X134918800Y-100001700D02*
X133717100Y-98800000D01*
X36926200Y-117600000D02*
X38127900Y-118801700D01*
X102252800Y-116698300D02*
X108821600Y-116698300D01*
X97821600Y-119101700D02*
X99023300Y-117900000D01*
X50454300Y-99100000D02*
X49552600Y-98198300D01*
X68225000Y-117600000D02*
X67023300Y-117600000D01*
X131689300Y-98800000D02*
X130462700Y-100026600D01*
X87221600Y-119101700D02*
X80852800Y-119101700D01*
X76330400Y-98900000D02*
X76330400Y-98899900D01*
X89625000Y-117900000D02*
X88423300Y-117900000D01*
X119982200Y-98600000D02*
X119156000Y-98600000D01*
X116452600Y-100101700D02*
X95583800Y-100101700D01*
X74133300Y-97698300D02*
X72931600Y-98900000D01*
X141252600Y-100001700D02*
X134918800Y-100001700D01*
X78825000Y-117900000D02*
X77623300Y-117900000D01*
X47751100Y-117600000D02*
X46925000Y-117600000D01*
X82956000Y-98900000D02*
X76330400Y-98900000D01*
X56358300Y-117600000D02*
X55156600Y-116398300D01*
X45723300Y-117600000D02*
X46925000Y-117600000D01*
X90451200Y-117900000D02*
X91652900Y-119101700D01*
X100225000Y-117900000D02*
X101051100Y-117900000D01*
X133717100Y-98800000D02*
X132891000Y-98800000D01*
X49552600Y-98198300D02*
X42858800Y-98198300D01*
X44521600Y-118801700D02*
X45723300Y-117600000D01*
X109923300Y-117800000D02*
X111125000Y-117800000D01*
X38127900Y-118801700D02*
X44521600Y-118801700D01*
X42858800Y-98198300D02*
X41657100Y-99400000D01*
X108821600Y-116698300D02*
X109923300Y-117800000D01*
X51656000Y-99100000D02*
X50454300Y-99100000D01*
X55482400Y-110991800D02*
X53648000Y-109157400D01*
X117191800Y-110991800D02*
X124100000Y-117900000D01*
X92019200Y-110991800D02*
X55482400Y-110991800D01*
X92019200Y-110991800D02*
X117191800Y-110991800D01*
X49465000Y-117600000D02*
X51832400Y-119967400D01*
X100890300Y-119967400D02*
X100890300Y-120065200D01*
X97460500Y-51125500D02*
X97460500Y-51913800D01*
X132732600Y-119967400D02*
X134900000Y-117800000D01*
X92158600Y-45823600D02*
X97460500Y-51125500D01*
X51832400Y-119967400D02*
X100890300Y-119967400D01*
X100890300Y-119967400D02*
X132732600Y-119967400D01*
X55564100Y-109848400D02*
X138248400Y-109848400D01*
X82381000Y-46551500D02*
X82381000Y-48184900D01*
X82381000Y-48184900D02*
X70748700Y-59817200D01*
X54608600Y-108892900D02*
X55564100Y-109848400D01*
X138248400Y-109848400D02*
X146100000Y-117700000D01*
X70748700Y-59817200D02*
X62841900Y-59817200D01*
X47492300Y-60685200D02*
X62341700Y-45835800D01*
X62341700Y-45835800D02*
X88078800Y-45835800D01*
X83076200Y-79639500D02*
X101161100Y-79639500D01*
X101161100Y-79639500D02*
X102371600Y-80850000D01*
X102371600Y-80850000D02*
X102636000Y-80850000D01*
X113171000Y-80850000D02*
X110295900Y-77974900D01*
X91217100Y-52260800D02*
X91217100Y-62863700D01*
X88494900Y-49538600D02*
X91217100Y-52260800D01*
X110295900Y-77974900D02*
X89742600Y-77974900D01*
X55376700Y-88350000D02*
X47676700Y-80650000D01*
X47676700Y-80650000D02*
X43931000Y-80650000D01*
X85496000Y-98900000D02*
X83284900Y-96688900D01*
X79942200Y-96688900D02*
X71603300Y-88350000D01*
X71603300Y-88350000D02*
X55376700Y-88350000D01*
X83284900Y-96688900D02*
X79942200Y-96688900D01*
X62401500Y-60419000D02*
X61634900Y-61185600D01*
X88606700Y-52169300D02*
X80357000Y-60419000D01*
X56992000Y-78589000D02*
X95938700Y-78589000D01*
X80357000Y-60419000D02*
X62401500Y-60419000D01*
X54931000Y-80650000D02*
X56992000Y-78589000D01*
X85961100Y-91028600D02*
X86955900Y-92023400D01*
X89219400Y-92023400D02*
X96096000Y-98900000D01*
X85961100Y-82945500D02*
X67526500Y-82945500D01*
X85961100Y-82945500D02*
X85961100Y-91028600D01*
X67526500Y-82945500D02*
X65331000Y-80750000D01*
X86955900Y-92023400D02*
X89219400Y-92023400D01*
X89705800Y-79203200D02*
X101734300Y-79203200D01*
X77943200Y-79037800D02*
X89540400Y-79037800D01*
X76331000Y-80650000D02*
X77943200Y-79037800D01*
X89540400Y-79037800D02*
X89705800Y-79203200D01*
X114298500Y-66652500D02*
X128496000Y-80850000D01*
X103283000Y-66652500D02*
X114298500Y-66652500D01*
X130958800Y-69785000D02*
X129802000Y-69785000D01*
X129802000Y-69785000D02*
X109214600Y-49197600D01*
X138796000Y-80850000D02*
X135400000Y-77454000D01*
X109214600Y-49197600D02*
X104839600Y-49197600D01*
X135400000Y-77454000D02*
X135400000Y-74226200D01*
X135400000Y-74226200D02*
X130958800Y-69785000D01*
X116764300Y-47683300D02*
X149931000Y-80850000D01*
X103069600Y-47683300D02*
X116764300Y-47683300D01*
X145361600Y-83663000D02*
X158558000Y-83663000D01*
X130897100Y-89350000D02*
X139674600Y-89350000D01*
X158558000Y-83663000D02*
X161371000Y-80850000D01*
X139674600Y-89350000D02*
X145361600Y-83663000D01*
X155600000Y-33000000D02*
X155000000Y-32400000D01*
X28938400Y-63700000D02*
X26919200Y-61680800D01*
X160450000Y-63400000D02*
X158115600Y-63400000D01*
X57000000Y-63600000D02*
X57300000Y-63300000D01*
X138700000Y-63475000D02*
X153325000Y-63475000D01*
X78000000Y-63300000D02*
X86775000Y-63300000D01*
X165000000Y-63400000D02*
X160450000Y-63400000D01*
X87050000Y-63575000D02*
X98650000Y-63575000D01*
X35960000Y-46000000D02*
X34840800Y-47119200D01*
X160450000Y-63400000D02*
X160450000Y-74400000D01*
X153325000Y-63475000D02*
X153400000Y-63400000D01*
X158115600Y-63400000D02*
X153400000Y-63400000D01*
X66400000Y-63300000D02*
X78000000Y-63300000D01*
X158115600Y-63400000D02*
X158115600Y-34115600D01*
X86775000Y-63300000D02*
X87050000Y-63575000D01*
X34840800Y-47119200D02*
X26919200Y-47119200D01*
X26919200Y-47119200D02*
X26919200Y-61680800D01*
X107100000Y-63500000D02*
X118700000Y-63500000D01*
X45400000Y-63600000D02*
X57000000Y-63600000D01*
X26919200Y-61680800D02*
X24900000Y-63700000D01*
X26919200Y-47119200D02*
X25800000Y-46000000D01*
X36500000Y-63700000D02*
X28938400Y-63700000D01*
X57300000Y-63300000D02*
X66400000Y-63300000D01*
X157000000Y-33000000D02*
X155600000Y-33000000D01*
X98650000Y-63575000D02*
X107025000Y-63575000D01*
X107025000Y-63575000D02*
X107100000Y-63500000D01*
X158115600Y-34115600D02*
X157000000Y-33000000D01*
X77580000Y-31100000D02*
X77580000Y-32251700D01*
X93165500Y-47837200D02*
X77580000Y-32251700D01*
X93165500Y-51876800D02*
X93165500Y-47837200D01*
X82450200Y-72398500D02*
X79716700Y-69665000D01*
X91600000Y-74575000D02*
X89423500Y-72398500D01*
X89423500Y-72398500D02*
X82450200Y-72398500D01*
X83141800Y-29720100D02*
X79619400Y-29720100D01*
X79619400Y-29720100D02*
X78850000Y-28950700D01*
X78850000Y-28950700D02*
X78850000Y-28191300D01*
X84048300Y-28813600D02*
X83141800Y-29720100D01*
X84048300Y-28082900D02*
X84048300Y-28813600D01*
X77651300Y-26992600D02*
X54611200Y-26992600D01*
X144608500Y-74400000D02*
X97616800Y-27408300D01*
X53043800Y-28560000D02*
X52180000Y-28560000D01*
X54611200Y-26992600D02*
X53043800Y-28560000D01*
X84722900Y-27408300D02*
X84048300Y-28082900D01*
X78850000Y-28191300D02*
X77651300Y-26992600D01*
X155450000Y-74400000D02*
X144608500Y-74400000D01*
X97616800Y-27408300D02*
X84722900Y-27408300D01*
X36940000Y-28560000D02*
X37803800Y-28560000D01*
X77998300Y-29830000D02*
X77161600Y-29830000D01*
X78850000Y-31495200D02*
X78850000Y-30681700D01*
X78850000Y-30681700D02*
X77998300Y-29830000D01*
X75517900Y-27402000D02*
X59329100Y-27402000D01*
X58648300Y-28082800D02*
X58648300Y-32151700D01*
X42000000Y-33200000D02*
X42000000Y-31120000D01*
X82729400Y-33049200D02*
X80404000Y-33049200D01*
X76310000Y-28194100D02*
X75517900Y-27402000D01*
X42020000Y-31100000D02*
X42288500Y-30831500D01*
X77161600Y-29830000D02*
X76310000Y-28978400D01*
X80404000Y-33049200D02*
X78850000Y-31495200D01*
X56800000Y-34000000D02*
X42800000Y-34000000D01*
X42000000Y-31120000D02*
X42020000Y-31100000D01*
X58648300Y-32151700D02*
X56800000Y-34000000D01*
X42800000Y-34000000D02*
X42000000Y-33200000D01*
X59329100Y-27402000D02*
X58648300Y-28082800D01*
X76310000Y-28978400D02*
X76310000Y-28194100D01*
X68690000Y-30681600D02*
X68690000Y-31465900D01*
X68690000Y-31465900D02*
X61413200Y-38742700D01*
X61413200Y-38742700D02*
X35597300Y-38742700D01*
X72500000Y-28560000D02*
X71348300Y-28560000D01*
X71348300Y-28848000D02*
X70484600Y-29711700D01*
X71348300Y-28560000D02*
X71348300Y-28848000D01*
X69659900Y-29711700D02*
X68690000Y-30681600D01*
X70484600Y-29711700D02*
X69659900Y-29711700D01*
X35597300Y-38742700D02*
X28340000Y-46000000D01*
X106849900Y-69699900D02*
X94702900Y-69699900D01*
X111650000Y-74500000D02*
X106849900Y-69699900D01*
X85200000Y-31100000D02*
X86351700Y-31100000D01*
X118700400Y-59359200D02*
X133816200Y-74475000D01*
X113894700Y-59359200D02*
X118700400Y-59359200D01*
X86351700Y-31816200D02*
X113894700Y-59359200D01*
X133816200Y-74475000D02*
X134150000Y-74475000D01*
X86351700Y-31100000D02*
X86351700Y-31816200D01*
X22422400Y-47759500D02*
X22422400Y-65172400D01*
X59553800Y-35518300D02*
X34663600Y-35518300D01*
X62627900Y-29711700D02*
X63521900Y-30605700D01*
X63521900Y-30605700D02*
X63521900Y-31550200D01*
X22422400Y-65172400D02*
X31950000Y-74700000D01*
X63521900Y-31550200D02*
X59553800Y-35518300D01*
X62340000Y-29711700D02*
X62627900Y-29711700D01*
X34663600Y-35518300D02*
X22422400Y-47759500D01*
X62340000Y-28560000D02*
X62340000Y-29711700D01*
X79656900Y-67235100D02*
X79676000Y-67254200D01*
X106904200Y-67254200D02*
X114150000Y-74500000D01*
X79676000Y-67254200D02*
X106904200Y-67254200D01*
X129150000Y-74475000D02*
X128098300Y-74475000D01*
X102777300Y-66069900D02*
X80185200Y-66069900D01*
X102796400Y-66050800D02*
X102777300Y-66069900D01*
X119674100Y-66050800D02*
X102796400Y-66050800D01*
X128098300Y-74475000D02*
X119674100Y-66050800D01*
X60973800Y-31589200D02*
X57838100Y-34724900D01*
X60973800Y-30597600D02*
X60973800Y-31589200D01*
X59800000Y-29711700D02*
X60087900Y-29711700D01*
X59800000Y-28560000D02*
X59800000Y-29711700D01*
X60087900Y-29711700D02*
X60973800Y-30597600D01*
X57838100Y-34724900D02*
X53751000Y-34724900D01*
X83757900Y-74575000D02*
X89100000Y-74575000D01*
X73486100Y-64303200D02*
X83757900Y-74575000D01*
X75040000Y-28560000D02*
X75040000Y-29711700D01*
X74752000Y-29711700D02*
X73888300Y-30575400D01*
X65739800Y-39513700D02*
X39906300Y-39513700D01*
X75040000Y-29711700D02*
X74752000Y-29711700D01*
X73888300Y-30575400D02*
X73888300Y-31365200D01*
X39906300Y-39513700D02*
X33420000Y-46000000D01*
X73888300Y-31365200D02*
X65739800Y-39513700D01*
X104473400Y-70875100D02*
X81777700Y-70875100D01*
X78557500Y-67654900D02*
X78304700Y-67654900D01*
X108098300Y-74500000D02*
X104473400Y-70875100D01*
X78304700Y-67654900D02*
X78304700Y-67654800D01*
X109150000Y-74500000D02*
X108098300Y-74500000D01*
X81777700Y-70875100D02*
X78557500Y-67654900D01*
X67200000Y-68943300D02*
X67200000Y-74300000D01*
X69460000Y-66683300D02*
X67200000Y-68943300D01*
X83811700Y-31100000D02*
X83811700Y-31387900D01*
X82660000Y-31100000D02*
X83811700Y-31100000D01*
X131650000Y-72912100D02*
X131650000Y-74475000D01*
X112674300Y-60250500D02*
X118988400Y-60250500D01*
X118988400Y-60250500D02*
X131650000Y-72912100D01*
X83811700Y-31387900D02*
X112674300Y-60250500D01*
X33980000Y-123290000D02*
X40480000Y-123290000D01*
X127811300Y-101311300D02*
X130600000Y-104100000D01*
X45931000Y-86050000D02*
X47101500Y-86050000D01*
X39431000Y-86050000D02*
X39431000Y-66034100D01*
X47101500Y-86050000D02*
X62362800Y-101311300D01*
X39431000Y-66034100D02*
X61502100Y-43963000D01*
X62362800Y-101311300D02*
X127811300Y-101311300D01*
X130600000Y-104100000D02*
X137100000Y-104100000D01*
X61502100Y-43963000D02*
X77329500Y-43963000D01*
X80556200Y-95307400D02*
X72651000Y-87402200D01*
X86001700Y-95307400D02*
X80556200Y-95307400D01*
X147800000Y-104100000D02*
X141300000Y-104100000D01*
X80614800Y-49012100D02*
X61363900Y-49012100D01*
X91542300Y-100848000D02*
X86001700Y-95307400D01*
X39200000Y-104200000D02*
X45700000Y-104200000D01*
X141300000Y-104100000D02*
X138048000Y-100848000D01*
X61363900Y-49012100D02*
X49600500Y-60775500D01*
X57902200Y-87402200D02*
X56600000Y-86100000D01*
X138048000Y-100848000D02*
X91542300Y-100848000D01*
X72651000Y-87402200D02*
X57902200Y-87402200D01*
X59640000Y-102106900D02*
X117906900Y-102106900D01*
X117906900Y-102106900D02*
X119900000Y-104100000D01*
X58637000Y-101103900D02*
X59640000Y-102106900D01*
X119900000Y-104100000D02*
X126400000Y-104100000D01*
X60800000Y-86100000D02*
X67300000Y-86100000D01*
X44700000Y-123290000D02*
X51200000Y-123290000D01*
X58982800Y-106751800D02*
X109317600Y-106751800D01*
X56431000Y-104200000D02*
X58982800Y-106751800D01*
X119800000Y-123300000D02*
X126300000Y-123300000D01*
X49931000Y-104200000D02*
X56431000Y-104200000D01*
X78031000Y-86050000D02*
X71531000Y-86050000D01*
X129402400Y-122202400D02*
X62987600Y-122202400D01*
X61900000Y-123290000D02*
X55400000Y-123290000D01*
X130500000Y-123300000D02*
X129402400Y-122202400D01*
X130531000Y-86150000D02*
X124031000Y-86150000D01*
X62987600Y-122202400D02*
X61900000Y-123290000D01*
X130500000Y-123300000D02*
X137000000Y-123300000D01*
X152276400Y-124823600D02*
X74123600Y-124823600D01*
X153900000Y-123200000D02*
X160400000Y-123200000D01*
X74123600Y-124823600D02*
X72600000Y-123300000D01*
X134831000Y-86150000D02*
X141331000Y-86150000D01*
X72600000Y-123300000D02*
X66100000Y-123300000D01*
X153900000Y-123200000D02*
X152276400Y-124823600D01*
X70300000Y-104200000D02*
X76800000Y-104200000D01*
X145631000Y-86150000D02*
X152131000Y-86150000D01*
X160500000Y-104100000D02*
X154000000Y-104100000D01*
X77897100Y-105297100D02*
X76800000Y-104200000D01*
X154000000Y-104100000D02*
X152802900Y-105297100D01*
X152802900Y-105297100D02*
X77897100Y-105297100D01*
X83300000Y-123300000D02*
X84405500Y-124405500D01*
X141200000Y-123300000D02*
X147700000Y-123300000D01*
X156331000Y-86150000D02*
X162831000Y-86150000D01*
X76800000Y-123300000D02*
X83300000Y-123300000D01*
X84405500Y-124405500D02*
X140094500Y-124405500D01*
X140094500Y-124405500D02*
X141200000Y-123300000D01*
X79908900Y-103108900D02*
X30026100Y-103108900D01*
X103835400Y-102882600D02*
X88817400Y-102882600D01*
X30026100Y-103108900D02*
X29835000Y-103300000D01*
X81000000Y-104200000D02*
X79908900Y-103108900D01*
X23335000Y-103300000D02*
X29835000Y-103300000D01*
X88817400Y-102882600D02*
X87500000Y-104200000D01*
X38343300Y-76837700D02*
X29331000Y-85850000D01*
X87600000Y-123300000D02*
X94100000Y-123300000D01*
X93128300Y-52725000D02*
X88785800Y-48382500D01*
X88785800Y-48382500D02*
X88785800Y-45669700D01*
X86462700Y-43346600D02*
X61515200Y-43346600D01*
X61515200Y-43346600D02*
X38343300Y-66518500D01*
X38343300Y-66518500D02*
X38343300Y-76837700D01*
X101656400Y-52725000D02*
X93128300Y-52725000D01*
X88785800Y-45669700D02*
X86462700Y-43346600D01*
X93631000Y-86150000D02*
X96604000Y-83177000D01*
X87131000Y-86150000D02*
X93631000Y-86150000D01*
X96604000Y-83177000D02*
X104347600Y-83177000D01*
X91700000Y-104200000D02*
X98200000Y-104200000D01*
X97831000Y-86150000D02*
X104331000Y-86150000D01*
X98300000Y-123300000D02*
X104800000Y-123300000D01*
X109100000Y-123300000D02*
X115600000Y-123300000D01*
X108531000Y-86150000D02*
X115031000Y-86150000D01*
M02*
