M48
; DRILL file {KiCad 8.0.2} date 2024-08-09T17:56:19+0900
; FORMAT={-:-/ absolute / metric / decimal}
; #@! TF.CreationDate,2024-08-09T17:56:19+09:00
; #@! TF.GenerationSoftware,Kicad,Pcbnew,8.0.2
; #@! TF.FileFunction,MixedPlating,1,2
FMAT,2
METRIC
; #@! TA.AperFunction,Plated,PTH,ComponentDrill
T1C0.710
; #@! TA.AperFunction,Plated,PTH,ComponentDrill
T2C0.800
; #@! TA.AperFunction,Plated,PTH,ComponentDrill
T3C0.870
; #@! TA.AperFunction,Plated,PTH,ComponentDrill
T4C1.000
; #@! TA.AperFunction,Plated,PTH,ComponentDrill
T5C1.100
%
G90
G05
T1
X74.83Y-83.75
X77.42Y-78.65
X127.72Y-67.2
X130.26Y-67.2
X132.8Y-67.2
T2
X82.83Y-77.19
X82.83Y-82.19
X89.08Y-77.19
X89.08Y-82.19
X94.33Y-76.94
X94.33Y-84.56
X99.58Y-81.955
X99.58Y-84.455
X101.5Y-58.1
X101.5Y-63.1
X109.0Y-58.2
X109.0Y-63.2
X114.8Y-54.6
X114.8Y-57.1
X120.7Y-54.5
X120.7Y-59.5
X126.49Y-73.1
X134.11Y-73.1
X138.7Y-72.2
X140.5Y-54.29
X140.5Y-61.91
X141.2Y-72.2
T3
X83.96Y-73.0
X86.5Y-73.0
X89.04Y-73.0
T4
X66.46Y-61.5
X69.0Y-61.5
X70.33Y-74.01
X70.33Y-76.55
X77.725Y-49.96
X77.725Y-52.5
X84.4Y-53.06
X84.4Y-55.6
X93.1Y-52.9
X93.1Y-57.9
T5
X101.38Y-54.1
X102.46Y-47.945
X105.0Y-47.945
X107.08Y-84.5
X107.54Y-47.945
X109.0Y-54.1
X109.58Y-84.5
X126.02Y-54.345
X126.02Y-59.3
X126.75Y-84.25
X129.16Y-47.945
X129.25Y-84.25
X131.7Y-47.945
X131.75Y-84.25
X134.24Y-47.945
X136.18Y-54.345
X136.18Y-59.3
T4
X63.05Y-51.25G85X63.05Y-53.25
G05
X68.75Y-49.25G85X66.75Y-49.25
G05
X68.75Y-55.25G85X66.75Y-55.25
G05
M30
