G04 #@! TF.GenerationSoftware,KiCad,Pcbnew,8.0.2*
G04 #@! TF.CreationDate,2024-08-09T17:56:16+09:00*
G04 #@! TF.ProjectId,powersupply,706f7765-7273-4757-9070-6c792e6b6963,rev?*
G04 #@! TF.SameCoordinates,Original*
G04 #@! TF.FileFunction,Legend,Top*
G04 #@! TF.FilePolarity,Positive*
%FSLAX46Y46*%
G04 Gerber Fmt 4.6, Leading zero omitted, Abs format (unit mm)*
G04 Created by KiCad (PCBNEW 8.0.2) date 2024-08-09 17:56:16*
%MOMM*%
%LPD*%
G01*
G04 APERTURE LIST*
G04 Aperture macros list*
%AMRoundRect*
0 Rectangle with rounded corners*
0 $1 Rounding radius*
0 $2 $3 $4 $5 $6 $7 $8 $9 X,Y pos of 4 corners*
0 Add a 4 corners polygon primitive as box body*
4,1,4,$2,$3,$4,$5,$6,$7,$8,$9,$2,$3,0*
0 Add four circle primitives for the rounded corners*
1,1,$1+$1,$2,$3*
1,1,$1+$1,$4,$5*
1,1,$1+$1,$6,$7*
1,1,$1+$1,$8,$9*
0 Add four rect primitives between the rounded corners*
20,1,$1+$1,$2,$3,$4,$5,0*
20,1,$1+$1,$4,$5,$6,$7,0*
20,1,$1+$1,$6,$7,$8,$9,0*
20,1,$1+$1,$8,$9,$2,$3,0*%
G04 Aperture macros list end*
%ADD10C,0.100000*%
%ADD11C,0.200000*%
%ADD12C,0.300000*%
%ADD13C,0.254000*%
%ADD14C,0.150000*%
%ADD15C,0.120000*%
%ADD16C,0.010000*%
%ADD17R,1.650000X1.650000*%
%ADD18C,1.650000*%
%ADD19R,1.217000X1.217000*%
%ADD20C,1.217000*%
%ADD21R,1.905000X2.000000*%
%ADD22O,1.905000X2.000000*%
%ADD23R,1.700000X1.700000*%
%ADD24O,1.700000X1.700000*%
%ADD25C,1.600000*%
%ADD26O,1.600000X1.600000*%
%ADD27R,1.305000X1.305000*%
%ADD28C,1.305000*%
%ADD29R,1.600000X1.600000*%
%ADD30R,3.500000X3.500000*%
%ADD31RoundRect,0.750000X-1.000000X0.750000X-1.000000X-0.750000X1.000000X-0.750000X1.000000X0.750000X0*%
%ADD32RoundRect,0.875000X-0.875000X0.875000X-0.875000X-0.875000X0.875000X-0.875000X0.875000X0.875000X0*%
%ADD33R,2.200000X2.200000*%
%ADD34O,2.200000X2.200000*%
%ADD35R,2.000000X2.000000*%
%ADD36C,2.000000*%
G04 APERTURE END LIST*
D10*
X109907693Y-87670038D02*
X109812455Y-87622419D01*
X109812455Y-87622419D02*
X109669598Y-87622419D01*
X109669598Y-87622419D02*
X109526741Y-87670038D01*
X109526741Y-87670038D02*
X109431503Y-87765276D01*
X109431503Y-87765276D02*
X109383884Y-87860514D01*
X109383884Y-87860514D02*
X109336265Y-88050990D01*
X109336265Y-88050990D02*
X109336265Y-88193847D01*
X109336265Y-88193847D02*
X109383884Y-88384323D01*
X109383884Y-88384323D02*
X109431503Y-88479561D01*
X109431503Y-88479561D02*
X109526741Y-88574800D01*
X109526741Y-88574800D02*
X109669598Y-88622419D01*
X109669598Y-88622419D02*
X109764836Y-88622419D01*
X109764836Y-88622419D02*
X109907693Y-88574800D01*
X109907693Y-88574800D02*
X109955312Y-88527180D01*
X109955312Y-88527180D02*
X109955312Y-88193847D01*
X109955312Y-88193847D02*
X109764836Y-88193847D01*
X110383884Y-88622419D02*
X110383884Y-87622419D01*
X110383884Y-87622419D02*
X110955312Y-88622419D01*
X110955312Y-88622419D02*
X110955312Y-87622419D01*
X111431503Y-88622419D02*
X111431503Y-87622419D01*
X111431503Y-87622419D02*
X111669598Y-87622419D01*
X111669598Y-87622419D02*
X111812455Y-87670038D01*
X111812455Y-87670038D02*
X111907693Y-87765276D01*
X111907693Y-87765276D02*
X111955312Y-87860514D01*
X111955312Y-87860514D02*
X112002931Y-88050990D01*
X112002931Y-88050990D02*
X112002931Y-88193847D01*
X112002931Y-88193847D02*
X111955312Y-88384323D01*
X111955312Y-88384323D02*
X111907693Y-88479561D01*
X111907693Y-88479561D02*
X111812455Y-88574800D01*
X111812455Y-88574800D02*
X111669598Y-88622419D01*
X111669598Y-88622419D02*
X111431503Y-88622419D01*
X112431503Y-88622419D02*
X112431503Y-87622419D01*
X112431503Y-87622419D02*
X112669598Y-87622419D01*
X112669598Y-87622419D02*
X112812455Y-87670038D01*
X112812455Y-87670038D02*
X112907693Y-87765276D01*
X112907693Y-87765276D02*
X112955312Y-87860514D01*
X112955312Y-87860514D02*
X113002931Y-88050990D01*
X113002931Y-88050990D02*
X113002931Y-88193847D01*
X113002931Y-88193847D02*
X112955312Y-88384323D01*
X112955312Y-88384323D02*
X112907693Y-88479561D01*
X112907693Y-88479561D02*
X112812455Y-88574800D01*
X112812455Y-88574800D02*
X112669598Y-88622419D01*
X112669598Y-88622419D02*
X112431503Y-88622419D01*
X104633884Y-88622419D02*
X104633884Y-87622419D01*
X104633884Y-87622419D02*
X104871979Y-87622419D01*
X104871979Y-87622419D02*
X105014836Y-87670038D01*
X105014836Y-87670038D02*
X105110074Y-87765276D01*
X105110074Y-87765276D02*
X105157693Y-87860514D01*
X105157693Y-87860514D02*
X105205312Y-88050990D01*
X105205312Y-88050990D02*
X105205312Y-88193847D01*
X105205312Y-88193847D02*
X105157693Y-88384323D01*
X105157693Y-88384323D02*
X105110074Y-88479561D01*
X105110074Y-88479561D02*
X105014836Y-88574800D01*
X105014836Y-88574800D02*
X104871979Y-88622419D01*
X104871979Y-88622419D02*
X104633884Y-88622419D01*
X105633884Y-88241466D02*
X106395789Y-88241466D01*
X106014836Y-88622419D02*
X106014836Y-87860514D01*
X107348169Y-87622419D02*
X106871979Y-87622419D01*
X106871979Y-87622419D02*
X106824360Y-88098609D01*
X106824360Y-88098609D02*
X106871979Y-88050990D01*
X106871979Y-88050990D02*
X106967217Y-88003371D01*
X106967217Y-88003371D02*
X107205312Y-88003371D01*
X107205312Y-88003371D02*
X107300550Y-88050990D01*
X107300550Y-88050990D02*
X107348169Y-88098609D01*
X107348169Y-88098609D02*
X107395788Y-88193847D01*
X107395788Y-88193847D02*
X107395788Y-88431942D01*
X107395788Y-88431942D02*
X107348169Y-88527180D01*
X107348169Y-88527180D02*
X107300550Y-88574800D01*
X107300550Y-88574800D02*
X107205312Y-88622419D01*
X107205312Y-88622419D02*
X106967217Y-88622419D01*
X106967217Y-88622419D02*
X106871979Y-88574800D01*
X106871979Y-88574800D02*
X106824360Y-88527180D01*
X107681503Y-87622419D02*
X108014836Y-88622419D01*
X108014836Y-88622419D02*
X108348169Y-87622419D01*
X123327693Y-87920038D02*
X123232455Y-87872419D01*
X123232455Y-87872419D02*
X123089598Y-87872419D01*
X123089598Y-87872419D02*
X122946741Y-87920038D01*
X122946741Y-87920038D02*
X122851503Y-88015276D01*
X122851503Y-88015276D02*
X122803884Y-88110514D01*
X122803884Y-88110514D02*
X122756265Y-88300990D01*
X122756265Y-88300990D02*
X122756265Y-88443847D01*
X122756265Y-88443847D02*
X122803884Y-88634323D01*
X122803884Y-88634323D02*
X122851503Y-88729561D01*
X122851503Y-88729561D02*
X122946741Y-88824800D01*
X122946741Y-88824800D02*
X123089598Y-88872419D01*
X123089598Y-88872419D02*
X123184836Y-88872419D01*
X123184836Y-88872419D02*
X123327693Y-88824800D01*
X123327693Y-88824800D02*
X123375312Y-88777180D01*
X123375312Y-88777180D02*
X123375312Y-88443847D01*
X123375312Y-88443847D02*
X123184836Y-88443847D01*
X123803884Y-88872419D02*
X123803884Y-87872419D01*
X123803884Y-87872419D02*
X124375312Y-88872419D01*
X124375312Y-88872419D02*
X124375312Y-87872419D01*
X124851503Y-88872419D02*
X124851503Y-87872419D01*
X124851503Y-87872419D02*
X125089598Y-87872419D01*
X125089598Y-87872419D02*
X125232455Y-87920038D01*
X125232455Y-87920038D02*
X125327693Y-88015276D01*
X125327693Y-88015276D02*
X125375312Y-88110514D01*
X125375312Y-88110514D02*
X125422931Y-88300990D01*
X125422931Y-88300990D02*
X125422931Y-88443847D01*
X125422931Y-88443847D02*
X125375312Y-88634323D01*
X125375312Y-88634323D02*
X125327693Y-88729561D01*
X125327693Y-88729561D02*
X125232455Y-88824800D01*
X125232455Y-88824800D02*
X125089598Y-88872419D01*
X125089598Y-88872419D02*
X124851503Y-88872419D01*
X125803884Y-88586704D02*
X126280074Y-88586704D01*
X125708646Y-88872419D02*
X126041979Y-87872419D01*
X126041979Y-87872419D02*
X126375312Y-88872419D01*
X132756265Y-88586704D02*
X133232455Y-88586704D01*
X132661027Y-88872419D02*
X132994360Y-87872419D01*
X132994360Y-87872419D02*
X133327693Y-88872419D01*
X133661027Y-88491466D02*
X134422932Y-88491466D01*
X134041979Y-88872419D02*
X134041979Y-88110514D01*
X135422931Y-88872419D02*
X134851503Y-88872419D01*
X135137217Y-88872419D02*
X135137217Y-87872419D01*
X135137217Y-87872419D02*
X135041979Y-88015276D01*
X135041979Y-88015276D02*
X134946741Y-88110514D01*
X134946741Y-88110514D02*
X134851503Y-88158133D01*
X135803884Y-87967657D02*
X135851503Y-87920038D01*
X135851503Y-87920038D02*
X135946741Y-87872419D01*
X135946741Y-87872419D02*
X136184836Y-87872419D01*
X136184836Y-87872419D02*
X136280074Y-87920038D01*
X136280074Y-87920038D02*
X136327693Y-87967657D01*
X136327693Y-87967657D02*
X136375312Y-88062895D01*
X136375312Y-88062895D02*
X136375312Y-88158133D01*
X136375312Y-88158133D02*
X136327693Y-88300990D01*
X136327693Y-88300990D02*
X135756265Y-88872419D01*
X135756265Y-88872419D02*
X136375312Y-88872419D01*
X136661027Y-87872419D02*
X136994360Y-88872419D01*
X136994360Y-88872419D02*
X137327693Y-87872419D01*
D11*
X147117219Y-80273183D02*
X147117219Y-79701755D01*
X148117219Y-79987469D02*
X147117219Y-79987469D01*
X147593409Y-79035088D02*
X147641028Y-78892231D01*
X147641028Y-78892231D02*
X147688647Y-78844612D01*
X147688647Y-78844612D02*
X147783885Y-78796993D01*
X147783885Y-78796993D02*
X147926742Y-78796993D01*
X147926742Y-78796993D02*
X148021980Y-78844612D01*
X148021980Y-78844612D02*
X148069600Y-78892231D01*
X148069600Y-78892231D02*
X148117219Y-78987469D01*
X148117219Y-78987469D02*
X148117219Y-79368421D01*
X148117219Y-79368421D02*
X147117219Y-79368421D01*
X147117219Y-79368421D02*
X147117219Y-79035088D01*
X147117219Y-79035088D02*
X147164838Y-78939850D01*
X147164838Y-78939850D02*
X147212457Y-78892231D01*
X147212457Y-78892231D02*
X147307695Y-78844612D01*
X147307695Y-78844612D02*
X147402933Y-78844612D01*
X147402933Y-78844612D02*
X147498171Y-78892231D01*
X147498171Y-78892231D02*
X147545790Y-78939850D01*
X147545790Y-78939850D02*
X147593409Y-79035088D01*
X147593409Y-79035088D02*
X147593409Y-79368421D01*
X147736266Y-78368421D02*
X147736266Y-77606517D01*
X148069600Y-77177945D02*
X148117219Y-77035088D01*
X148117219Y-77035088D02*
X148117219Y-76796993D01*
X148117219Y-76796993D02*
X148069600Y-76701755D01*
X148069600Y-76701755D02*
X148021980Y-76654136D01*
X148021980Y-76654136D02*
X147926742Y-76606517D01*
X147926742Y-76606517D02*
X147831504Y-76606517D01*
X147831504Y-76606517D02*
X147736266Y-76654136D01*
X147736266Y-76654136D02*
X147688647Y-76701755D01*
X147688647Y-76701755D02*
X147641028Y-76796993D01*
X147641028Y-76796993D02*
X147593409Y-76987469D01*
X147593409Y-76987469D02*
X147545790Y-77082707D01*
X147545790Y-77082707D02*
X147498171Y-77130326D01*
X147498171Y-77130326D02*
X147402933Y-77177945D01*
X147402933Y-77177945D02*
X147307695Y-77177945D01*
X147307695Y-77177945D02*
X147212457Y-77130326D01*
X147212457Y-77130326D02*
X147164838Y-77082707D01*
X147164838Y-77082707D02*
X147117219Y-76987469D01*
X147117219Y-76987469D02*
X147117219Y-76749374D01*
X147117219Y-76749374D02*
X147164838Y-76606517D01*
X147593409Y-76177945D02*
X147593409Y-75844612D01*
X148117219Y-75701755D02*
X148117219Y-76177945D01*
X148117219Y-76177945D02*
X147117219Y-76177945D01*
X147117219Y-76177945D02*
X147117219Y-75701755D01*
X148212457Y-74606517D02*
X148164838Y-74701755D01*
X148164838Y-74701755D02*
X148069600Y-74796993D01*
X148069600Y-74796993D02*
X147926742Y-74939850D01*
X147926742Y-74939850D02*
X147879123Y-75035088D01*
X147879123Y-75035088D02*
X147879123Y-75130326D01*
X148117219Y-75082707D02*
X148069600Y-75177945D01*
X148069600Y-75177945D02*
X147974361Y-75273183D01*
X147974361Y-75273183D02*
X147783885Y-75320802D01*
X147783885Y-75320802D02*
X147450552Y-75320802D01*
X147450552Y-75320802D02*
X147260076Y-75273183D01*
X147260076Y-75273183D02*
X147164838Y-75177945D01*
X147164838Y-75177945D02*
X147117219Y-75082707D01*
X147117219Y-75082707D02*
X147117219Y-74892231D01*
X147117219Y-74892231D02*
X147164838Y-74796993D01*
X147164838Y-74796993D02*
X147260076Y-74701755D01*
X147260076Y-74701755D02*
X147450552Y-74654136D01*
X147450552Y-74654136D02*
X147783885Y-74654136D01*
X147783885Y-74654136D02*
X147974361Y-74701755D01*
X147974361Y-74701755D02*
X148069600Y-74796993D01*
X148069600Y-74796993D02*
X148117219Y-74892231D01*
X148117219Y-74892231D02*
X148117219Y-75082707D01*
X148117219Y-73463659D02*
X147117219Y-73463659D01*
X147117219Y-73463659D02*
X147117219Y-73082707D01*
X147117219Y-73082707D02*
X147164838Y-72987469D01*
X147164838Y-72987469D02*
X147212457Y-72939850D01*
X147212457Y-72939850D02*
X147307695Y-72892231D01*
X147307695Y-72892231D02*
X147450552Y-72892231D01*
X147450552Y-72892231D02*
X147545790Y-72939850D01*
X147545790Y-72939850D02*
X147593409Y-72987469D01*
X147593409Y-72987469D02*
X147641028Y-73082707D01*
X147641028Y-73082707D02*
X147641028Y-73463659D01*
X148117219Y-72320802D02*
X148069600Y-72416040D01*
X148069600Y-72416040D02*
X148021980Y-72463659D01*
X148021980Y-72463659D02*
X147926742Y-72511278D01*
X147926742Y-72511278D02*
X147641028Y-72511278D01*
X147641028Y-72511278D02*
X147545790Y-72463659D01*
X147545790Y-72463659D02*
X147498171Y-72416040D01*
X147498171Y-72416040D02*
X147450552Y-72320802D01*
X147450552Y-72320802D02*
X147450552Y-72177945D01*
X147450552Y-72177945D02*
X147498171Y-72082707D01*
X147498171Y-72082707D02*
X147545790Y-72035088D01*
X147545790Y-72035088D02*
X147641028Y-71987469D01*
X147641028Y-71987469D02*
X147926742Y-71987469D01*
X147926742Y-71987469D02*
X148021980Y-72035088D01*
X148021980Y-72035088D02*
X148069600Y-72082707D01*
X148069600Y-72082707D02*
X148117219Y-72177945D01*
X148117219Y-72177945D02*
X148117219Y-72320802D01*
X147450552Y-71654135D02*
X148117219Y-71463659D01*
X148117219Y-71463659D02*
X147641028Y-71273183D01*
X147641028Y-71273183D02*
X148117219Y-71082707D01*
X148117219Y-71082707D02*
X147450552Y-70892231D01*
X148069600Y-70130326D02*
X148117219Y-70225564D01*
X148117219Y-70225564D02*
X148117219Y-70416040D01*
X148117219Y-70416040D02*
X148069600Y-70511278D01*
X148069600Y-70511278D02*
X147974361Y-70558897D01*
X147974361Y-70558897D02*
X147593409Y-70558897D01*
X147593409Y-70558897D02*
X147498171Y-70511278D01*
X147498171Y-70511278D02*
X147450552Y-70416040D01*
X147450552Y-70416040D02*
X147450552Y-70225564D01*
X147450552Y-70225564D02*
X147498171Y-70130326D01*
X147498171Y-70130326D02*
X147593409Y-70082707D01*
X147593409Y-70082707D02*
X147688647Y-70082707D01*
X147688647Y-70082707D02*
X147783885Y-70558897D01*
X148117219Y-69654135D02*
X147450552Y-69654135D01*
X147641028Y-69654135D02*
X147545790Y-69606516D01*
X147545790Y-69606516D02*
X147498171Y-69558897D01*
X147498171Y-69558897D02*
X147450552Y-69463659D01*
X147450552Y-69463659D02*
X147450552Y-69368421D01*
X148069600Y-69082706D02*
X148117219Y-68939849D01*
X148117219Y-68939849D02*
X148117219Y-68701754D01*
X148117219Y-68701754D02*
X148069600Y-68606516D01*
X148069600Y-68606516D02*
X148021980Y-68558897D01*
X148021980Y-68558897D02*
X147926742Y-68511278D01*
X147926742Y-68511278D02*
X147831504Y-68511278D01*
X147831504Y-68511278D02*
X147736266Y-68558897D01*
X147736266Y-68558897D02*
X147688647Y-68606516D01*
X147688647Y-68606516D02*
X147641028Y-68701754D01*
X147641028Y-68701754D02*
X147593409Y-68892230D01*
X147593409Y-68892230D02*
X147545790Y-68987468D01*
X147545790Y-68987468D02*
X147498171Y-69035087D01*
X147498171Y-69035087D02*
X147402933Y-69082706D01*
X147402933Y-69082706D02*
X147307695Y-69082706D01*
X147307695Y-69082706D02*
X147212457Y-69035087D01*
X147212457Y-69035087D02*
X147164838Y-68987468D01*
X147164838Y-68987468D02*
X147117219Y-68892230D01*
X147117219Y-68892230D02*
X147117219Y-68654135D01*
X147117219Y-68654135D02*
X147164838Y-68511278D01*
X147450552Y-67654135D02*
X148117219Y-67654135D01*
X147450552Y-68082706D02*
X147974361Y-68082706D01*
X147974361Y-68082706D02*
X148069600Y-68035087D01*
X148069600Y-68035087D02*
X148117219Y-67939849D01*
X148117219Y-67939849D02*
X148117219Y-67796992D01*
X148117219Y-67796992D02*
X148069600Y-67701754D01*
X148069600Y-67701754D02*
X148021980Y-67654135D01*
X147450552Y-67177944D02*
X148450552Y-67177944D01*
X147498171Y-67177944D02*
X147450552Y-67082706D01*
X147450552Y-67082706D02*
X147450552Y-66892230D01*
X147450552Y-66892230D02*
X147498171Y-66796992D01*
X147498171Y-66796992D02*
X147545790Y-66749373D01*
X147545790Y-66749373D02*
X147641028Y-66701754D01*
X147641028Y-66701754D02*
X147926742Y-66701754D01*
X147926742Y-66701754D02*
X148021980Y-66749373D01*
X148021980Y-66749373D02*
X148069600Y-66796992D01*
X148069600Y-66796992D02*
X148117219Y-66892230D01*
X148117219Y-66892230D02*
X148117219Y-67082706D01*
X148117219Y-67082706D02*
X148069600Y-67177944D01*
X147450552Y-66273182D02*
X148450552Y-66273182D01*
X147498171Y-66273182D02*
X147450552Y-66177944D01*
X147450552Y-66177944D02*
X147450552Y-65987468D01*
X147450552Y-65987468D02*
X147498171Y-65892230D01*
X147498171Y-65892230D02*
X147545790Y-65844611D01*
X147545790Y-65844611D02*
X147641028Y-65796992D01*
X147641028Y-65796992D02*
X147926742Y-65796992D01*
X147926742Y-65796992D02*
X148021980Y-65844611D01*
X148021980Y-65844611D02*
X148069600Y-65892230D01*
X148069600Y-65892230D02*
X148117219Y-65987468D01*
X148117219Y-65987468D02*
X148117219Y-66177944D01*
X148117219Y-66177944D02*
X148069600Y-66273182D01*
X148117219Y-65225563D02*
X148069600Y-65320801D01*
X148069600Y-65320801D02*
X147974361Y-65368420D01*
X147974361Y-65368420D02*
X147117219Y-65368420D01*
X147450552Y-64939848D02*
X148117219Y-64701753D01*
X147450552Y-64463658D02*
X148117219Y-64701753D01*
X148117219Y-64701753D02*
X148355314Y-64796991D01*
X148355314Y-64796991D02*
X148402933Y-64844610D01*
X148402933Y-64844610D02*
X148450552Y-64939848D01*
X147593409Y-62987467D02*
X147641028Y-62844610D01*
X147641028Y-62844610D02*
X147688647Y-62796991D01*
X147688647Y-62796991D02*
X147783885Y-62749372D01*
X147783885Y-62749372D02*
X147926742Y-62749372D01*
X147926742Y-62749372D02*
X148021980Y-62796991D01*
X148021980Y-62796991D02*
X148069600Y-62844610D01*
X148069600Y-62844610D02*
X148117219Y-62939848D01*
X148117219Y-62939848D02*
X148117219Y-63320800D01*
X148117219Y-63320800D02*
X147117219Y-63320800D01*
X147117219Y-63320800D02*
X147117219Y-62987467D01*
X147117219Y-62987467D02*
X147164838Y-62892229D01*
X147164838Y-62892229D02*
X147212457Y-62844610D01*
X147212457Y-62844610D02*
X147307695Y-62796991D01*
X147307695Y-62796991D02*
X147402933Y-62796991D01*
X147402933Y-62796991D02*
X147498171Y-62844610D01*
X147498171Y-62844610D02*
X147545790Y-62892229D01*
X147545790Y-62892229D02*
X147593409Y-62987467D01*
X147593409Y-62987467D02*
X147593409Y-63320800D01*
X148117219Y-62177943D02*
X148069600Y-62273181D01*
X148069600Y-62273181D02*
X148021980Y-62320800D01*
X148021980Y-62320800D02*
X147926742Y-62368419D01*
X147926742Y-62368419D02*
X147641028Y-62368419D01*
X147641028Y-62368419D02*
X147545790Y-62320800D01*
X147545790Y-62320800D02*
X147498171Y-62273181D01*
X147498171Y-62273181D02*
X147450552Y-62177943D01*
X147450552Y-62177943D02*
X147450552Y-62035086D01*
X147450552Y-62035086D02*
X147498171Y-61939848D01*
X147498171Y-61939848D02*
X147545790Y-61892229D01*
X147545790Y-61892229D02*
X147641028Y-61844610D01*
X147641028Y-61844610D02*
X147926742Y-61844610D01*
X147926742Y-61844610D02*
X148021980Y-61892229D01*
X148021980Y-61892229D02*
X148069600Y-61939848D01*
X148069600Y-61939848D02*
X148117219Y-62035086D01*
X148117219Y-62035086D02*
X148117219Y-62177943D01*
X148117219Y-61416038D02*
X147450552Y-61416038D01*
X147641028Y-61416038D02*
X147545790Y-61368419D01*
X147545790Y-61368419D02*
X147498171Y-61320800D01*
X147498171Y-61320800D02*
X147450552Y-61225562D01*
X147450552Y-61225562D02*
X147450552Y-61130324D01*
X148117219Y-60368419D02*
X147593409Y-60368419D01*
X147593409Y-60368419D02*
X147498171Y-60416038D01*
X147498171Y-60416038D02*
X147450552Y-60511276D01*
X147450552Y-60511276D02*
X147450552Y-60701752D01*
X147450552Y-60701752D02*
X147498171Y-60796990D01*
X148069600Y-60368419D02*
X148117219Y-60463657D01*
X148117219Y-60463657D02*
X148117219Y-60701752D01*
X148117219Y-60701752D02*
X148069600Y-60796990D01*
X148069600Y-60796990D02*
X147974361Y-60844609D01*
X147974361Y-60844609D02*
X147879123Y-60844609D01*
X147879123Y-60844609D02*
X147783885Y-60796990D01*
X147783885Y-60796990D02*
X147736266Y-60701752D01*
X147736266Y-60701752D02*
X147736266Y-60463657D01*
X147736266Y-60463657D02*
X147688647Y-60368419D01*
X148117219Y-59463657D02*
X147117219Y-59463657D01*
X148069600Y-59463657D02*
X148117219Y-59558895D01*
X148117219Y-59558895D02*
X148117219Y-59749371D01*
X148117219Y-59749371D02*
X148069600Y-59844609D01*
X148069600Y-59844609D02*
X148021980Y-59892228D01*
X148021980Y-59892228D02*
X147926742Y-59939847D01*
X147926742Y-59939847D02*
X147641028Y-59939847D01*
X147641028Y-59939847D02*
X147545790Y-59892228D01*
X147545790Y-59892228D02*
X147498171Y-59844609D01*
X147498171Y-59844609D02*
X147450552Y-59749371D01*
X147450552Y-59749371D02*
X147450552Y-59558895D01*
X147450552Y-59558895D02*
X147498171Y-59463657D01*
X147212457Y-58273180D02*
X147164838Y-58225561D01*
X147164838Y-58225561D02*
X147117219Y-58130323D01*
X147117219Y-58130323D02*
X147117219Y-57892228D01*
X147117219Y-57892228D02*
X147164838Y-57796990D01*
X147164838Y-57796990D02*
X147212457Y-57749371D01*
X147212457Y-57749371D02*
X147307695Y-57701752D01*
X147307695Y-57701752D02*
X147402933Y-57701752D01*
X147402933Y-57701752D02*
X147545790Y-57749371D01*
X147545790Y-57749371D02*
X148117219Y-58320799D01*
X148117219Y-58320799D02*
X148117219Y-57701752D01*
X147117219Y-57082704D02*
X147117219Y-56987466D01*
X147117219Y-56987466D02*
X147164838Y-56892228D01*
X147164838Y-56892228D02*
X147212457Y-56844609D01*
X147212457Y-56844609D02*
X147307695Y-56796990D01*
X147307695Y-56796990D02*
X147498171Y-56749371D01*
X147498171Y-56749371D02*
X147736266Y-56749371D01*
X147736266Y-56749371D02*
X147926742Y-56796990D01*
X147926742Y-56796990D02*
X148021980Y-56844609D01*
X148021980Y-56844609D02*
X148069600Y-56892228D01*
X148069600Y-56892228D02*
X148117219Y-56987466D01*
X148117219Y-56987466D02*
X148117219Y-57082704D01*
X148117219Y-57082704D02*
X148069600Y-57177942D01*
X148069600Y-57177942D02*
X148021980Y-57225561D01*
X148021980Y-57225561D02*
X147926742Y-57273180D01*
X147926742Y-57273180D02*
X147736266Y-57320799D01*
X147736266Y-57320799D02*
X147498171Y-57320799D01*
X147498171Y-57320799D02*
X147307695Y-57273180D01*
X147307695Y-57273180D02*
X147212457Y-57225561D01*
X147212457Y-57225561D02*
X147164838Y-57177942D01*
X147164838Y-57177942D02*
X147117219Y-57082704D01*
X147212457Y-56368418D02*
X147164838Y-56320799D01*
X147164838Y-56320799D02*
X147117219Y-56225561D01*
X147117219Y-56225561D02*
X147117219Y-55987466D01*
X147117219Y-55987466D02*
X147164838Y-55892228D01*
X147164838Y-55892228D02*
X147212457Y-55844609D01*
X147212457Y-55844609D02*
X147307695Y-55796990D01*
X147307695Y-55796990D02*
X147402933Y-55796990D01*
X147402933Y-55796990D02*
X147545790Y-55844609D01*
X147545790Y-55844609D02*
X148117219Y-56416037D01*
X148117219Y-56416037D02*
X148117219Y-55796990D01*
X147450552Y-54939847D02*
X148117219Y-54939847D01*
X147069600Y-55177942D02*
X147783885Y-55416037D01*
X147783885Y-55416037D02*
X147783885Y-54796990D01*
X147069600Y-53701752D02*
X148355314Y-54558894D01*
X147545790Y-53225561D02*
X147498171Y-53320799D01*
X147498171Y-53320799D02*
X147450552Y-53368418D01*
X147450552Y-53368418D02*
X147355314Y-53416037D01*
X147355314Y-53416037D02*
X147307695Y-53416037D01*
X147307695Y-53416037D02*
X147212457Y-53368418D01*
X147212457Y-53368418D02*
X147164838Y-53320799D01*
X147164838Y-53320799D02*
X147117219Y-53225561D01*
X147117219Y-53225561D02*
X147117219Y-53035085D01*
X147117219Y-53035085D02*
X147164838Y-52939847D01*
X147164838Y-52939847D02*
X147212457Y-52892228D01*
X147212457Y-52892228D02*
X147307695Y-52844609D01*
X147307695Y-52844609D02*
X147355314Y-52844609D01*
X147355314Y-52844609D02*
X147450552Y-52892228D01*
X147450552Y-52892228D02*
X147498171Y-52939847D01*
X147498171Y-52939847D02*
X147545790Y-53035085D01*
X147545790Y-53035085D02*
X147545790Y-53225561D01*
X147545790Y-53225561D02*
X147593409Y-53320799D01*
X147593409Y-53320799D02*
X147641028Y-53368418D01*
X147641028Y-53368418D02*
X147736266Y-53416037D01*
X147736266Y-53416037D02*
X147926742Y-53416037D01*
X147926742Y-53416037D02*
X148021980Y-53368418D01*
X148021980Y-53368418D02*
X148069600Y-53320799D01*
X148069600Y-53320799D02*
X148117219Y-53225561D01*
X148117219Y-53225561D02*
X148117219Y-53035085D01*
X148117219Y-53035085D02*
X148069600Y-52939847D01*
X148069600Y-52939847D02*
X148021980Y-52892228D01*
X148021980Y-52892228D02*
X147926742Y-52844609D01*
X147926742Y-52844609D02*
X147736266Y-52844609D01*
X147736266Y-52844609D02*
X147641028Y-52892228D01*
X147641028Y-52892228D02*
X147593409Y-52939847D01*
X147593409Y-52939847D02*
X147545790Y-53035085D01*
X147069600Y-51701752D02*
X148355314Y-52558894D01*
X148117219Y-51320799D02*
X148117219Y-51130323D01*
X148117219Y-51130323D02*
X148069600Y-51035085D01*
X148069600Y-51035085D02*
X148021980Y-50987466D01*
X148021980Y-50987466D02*
X147879123Y-50892228D01*
X147879123Y-50892228D02*
X147688647Y-50844609D01*
X147688647Y-50844609D02*
X147307695Y-50844609D01*
X147307695Y-50844609D02*
X147212457Y-50892228D01*
X147212457Y-50892228D02*
X147164838Y-50939847D01*
X147164838Y-50939847D02*
X147117219Y-51035085D01*
X147117219Y-51035085D02*
X147117219Y-51225561D01*
X147117219Y-51225561D02*
X147164838Y-51320799D01*
X147164838Y-51320799D02*
X147212457Y-51368418D01*
X147212457Y-51368418D02*
X147307695Y-51416037D01*
X147307695Y-51416037D02*
X147545790Y-51416037D01*
X147545790Y-51416037D02*
X147641028Y-51368418D01*
X147641028Y-51368418D02*
X147688647Y-51320799D01*
X147688647Y-51320799D02*
X147736266Y-51225561D01*
X147736266Y-51225561D02*
X147736266Y-51035085D01*
X147736266Y-51035085D02*
X147688647Y-50939847D01*
X147688647Y-50939847D02*
X147641028Y-50892228D01*
X147641028Y-50892228D02*
X147545790Y-50844609D01*
D12*
X56418209Y-79921679D02*
X56418209Y-78969298D01*
X56989638Y-80112155D02*
X54989638Y-79445489D01*
X54989638Y-79445489D02*
X56989638Y-78778822D01*
X56989638Y-78112155D02*
X54989638Y-78112155D01*
X54989638Y-78112155D02*
X54989638Y-77635965D01*
X54989638Y-77635965D02*
X55084876Y-77350250D01*
X55084876Y-77350250D02*
X55275352Y-77159774D01*
X55275352Y-77159774D02*
X55465828Y-77064536D01*
X55465828Y-77064536D02*
X55846780Y-76969298D01*
X55846780Y-76969298D02*
X56132495Y-76969298D01*
X56132495Y-76969298D02*
X56513447Y-77064536D01*
X56513447Y-77064536D02*
X56703923Y-77159774D01*
X56703923Y-77159774D02*
X56894400Y-77350250D01*
X56894400Y-77350250D02*
X56989638Y-77635965D01*
X56989638Y-77635965D02*
X56989638Y-78112155D01*
X56418209Y-76207393D02*
X56418209Y-75255012D01*
X56989638Y-76397869D02*
X54989638Y-75731203D01*
X54989638Y-75731203D02*
X56989638Y-75064536D01*
X56989638Y-74397869D02*
X54989638Y-74397869D01*
X54989638Y-74397869D02*
X54989638Y-73635964D01*
X54989638Y-73635964D02*
X55084876Y-73445488D01*
X55084876Y-73445488D02*
X55180114Y-73350250D01*
X55180114Y-73350250D02*
X55370590Y-73255012D01*
X55370590Y-73255012D02*
X55656304Y-73255012D01*
X55656304Y-73255012D02*
X55846780Y-73350250D01*
X55846780Y-73350250D02*
X55942019Y-73445488D01*
X55942019Y-73445488D02*
X56037257Y-73635964D01*
X56037257Y-73635964D02*
X56037257Y-74397869D01*
X54989638Y-72683583D02*
X54989638Y-71540726D01*
X56989638Y-72112155D02*
X54989638Y-72112155D01*
X55942019Y-70874059D02*
X55942019Y-70207392D01*
X56989638Y-69921678D02*
X56989638Y-70874059D01*
X56989638Y-70874059D02*
X54989638Y-70874059D01*
X54989638Y-70874059D02*
X54989638Y-69921678D01*
X56989638Y-67921678D02*
X56037257Y-68588345D01*
X56989638Y-69064535D02*
X54989638Y-69064535D01*
X54989638Y-69064535D02*
X54989638Y-68302630D01*
X54989638Y-68302630D02*
X55084876Y-68112154D01*
X55084876Y-68112154D02*
X55180114Y-68016916D01*
X55180114Y-68016916D02*
X55370590Y-67921678D01*
X55370590Y-67921678D02*
X55656304Y-67921678D01*
X55656304Y-67921678D02*
X55846780Y-68016916D01*
X55846780Y-68016916D02*
X55942019Y-68112154D01*
X55942019Y-68112154D02*
X56037257Y-68302630D01*
X56037257Y-68302630D02*
X56037257Y-69064535D01*
X56989638Y-65540725D02*
X54989638Y-65540725D01*
X54989638Y-65540725D02*
X54989638Y-65064535D01*
X54989638Y-65064535D02*
X55084876Y-64778820D01*
X55084876Y-64778820D02*
X55275352Y-64588344D01*
X55275352Y-64588344D02*
X55465828Y-64493106D01*
X55465828Y-64493106D02*
X55846780Y-64397868D01*
X55846780Y-64397868D02*
X56132495Y-64397868D01*
X56132495Y-64397868D02*
X56513447Y-64493106D01*
X56513447Y-64493106D02*
X56703923Y-64588344D01*
X56703923Y-64588344D02*
X56894400Y-64778820D01*
X56894400Y-64778820D02*
X56989638Y-65064535D01*
X56989638Y-65064535D02*
X56989638Y-65540725D01*
X56799161Y-62397868D02*
X56894400Y-62493106D01*
X56894400Y-62493106D02*
X56989638Y-62778820D01*
X56989638Y-62778820D02*
X56989638Y-62969296D01*
X56989638Y-62969296D02*
X56894400Y-63255011D01*
X56894400Y-63255011D02*
X56703923Y-63445487D01*
X56703923Y-63445487D02*
X56513447Y-63540725D01*
X56513447Y-63540725D02*
X56132495Y-63635963D01*
X56132495Y-63635963D02*
X55846780Y-63635963D01*
X55846780Y-63635963D02*
X55465828Y-63540725D01*
X55465828Y-63540725D02*
X55275352Y-63445487D01*
X55275352Y-63445487D02*
X55084876Y-63255011D01*
X55084876Y-63255011D02*
X54989638Y-62969296D01*
X54989638Y-62969296D02*
X54989638Y-62778820D01*
X54989638Y-62778820D02*
X55084876Y-62493106D01*
X55084876Y-62493106D02*
X55180114Y-62397868D01*
X56989638Y-60493106D02*
X56989638Y-61635963D01*
X56989638Y-61064535D02*
X54989638Y-61064535D01*
X54989638Y-61064535D02*
X55275352Y-61255011D01*
X55275352Y-61255011D02*
X55465828Y-61445487D01*
X55465828Y-61445487D02*
X55561066Y-61635963D01*
X54989638Y-58683582D02*
X54989638Y-59635963D01*
X54989638Y-59635963D02*
X55942019Y-59731201D01*
X55942019Y-59731201D02*
X55846780Y-59635963D01*
X55846780Y-59635963D02*
X55751542Y-59445487D01*
X55751542Y-59445487D02*
X55751542Y-58969296D01*
X55751542Y-58969296D02*
X55846780Y-58778820D01*
X55846780Y-58778820D02*
X55942019Y-58683582D01*
X55942019Y-58683582D02*
X56132495Y-58588344D01*
X56132495Y-58588344D02*
X56608685Y-58588344D01*
X56608685Y-58588344D02*
X56799161Y-58683582D01*
X56799161Y-58683582D02*
X56894400Y-58778820D01*
X56894400Y-58778820D02*
X56989638Y-58969296D01*
X56989638Y-58969296D02*
X56989638Y-59445487D01*
X56989638Y-59445487D02*
X56894400Y-59635963D01*
X56894400Y-59635963D02*
X56799161Y-59731201D01*
X54989638Y-58016915D02*
X56989638Y-57350249D01*
X56989638Y-57350249D02*
X54989638Y-56683582D01*
D10*
X126256265Y-80086704D02*
X126732455Y-80086704D01*
X126161027Y-80372419D02*
X126494360Y-79372419D01*
X126494360Y-79372419D02*
X126827693Y-80372419D01*
X127161027Y-79991466D02*
X127922932Y-79991466D01*
X127541979Y-80372419D02*
X127541979Y-79610514D01*
X128875312Y-79372419D02*
X128399122Y-79372419D01*
X128399122Y-79372419D02*
X128351503Y-79848609D01*
X128351503Y-79848609D02*
X128399122Y-79800990D01*
X128399122Y-79800990D02*
X128494360Y-79753371D01*
X128494360Y-79753371D02*
X128732455Y-79753371D01*
X128732455Y-79753371D02*
X128827693Y-79800990D01*
X128827693Y-79800990D02*
X128875312Y-79848609D01*
X128875312Y-79848609D02*
X128922931Y-79943847D01*
X128922931Y-79943847D02*
X128922931Y-80181942D01*
X128922931Y-80181942D02*
X128875312Y-80277180D01*
X128875312Y-80277180D02*
X128827693Y-80324800D01*
X128827693Y-80324800D02*
X128732455Y-80372419D01*
X128732455Y-80372419D02*
X128494360Y-80372419D01*
X128494360Y-80372419D02*
X128399122Y-80324800D01*
X128399122Y-80324800D02*
X128351503Y-80277180D01*
X129351503Y-80277180D02*
X129399122Y-80324800D01*
X129399122Y-80324800D02*
X129351503Y-80372419D01*
X129351503Y-80372419D02*
X129303884Y-80324800D01*
X129303884Y-80324800D02*
X129351503Y-80277180D01*
X129351503Y-80277180D02*
X129351503Y-80372419D01*
X129732455Y-79372419D02*
X130351502Y-79372419D01*
X130351502Y-79372419D02*
X130018169Y-79753371D01*
X130018169Y-79753371D02*
X130161026Y-79753371D01*
X130161026Y-79753371D02*
X130256264Y-79800990D01*
X130256264Y-79800990D02*
X130303883Y-79848609D01*
X130303883Y-79848609D02*
X130351502Y-79943847D01*
X130351502Y-79943847D02*
X130351502Y-80181942D01*
X130351502Y-80181942D02*
X130303883Y-80277180D01*
X130303883Y-80277180D02*
X130256264Y-80324800D01*
X130256264Y-80324800D02*
X130161026Y-80372419D01*
X130161026Y-80372419D02*
X129875312Y-80372419D01*
X129875312Y-80372419D02*
X129780074Y-80324800D01*
X129780074Y-80324800D02*
X129732455Y-80277180D01*
X130684836Y-79372419D02*
X131303883Y-79372419D01*
X131303883Y-79372419D02*
X130970550Y-79753371D01*
X130970550Y-79753371D02*
X131113407Y-79753371D01*
X131113407Y-79753371D02*
X131208645Y-79800990D01*
X131208645Y-79800990D02*
X131256264Y-79848609D01*
X131256264Y-79848609D02*
X131303883Y-79943847D01*
X131303883Y-79943847D02*
X131303883Y-80181942D01*
X131303883Y-80181942D02*
X131256264Y-80277180D01*
X131256264Y-80277180D02*
X131208645Y-80324800D01*
X131208645Y-80324800D02*
X131113407Y-80372419D01*
X131113407Y-80372419D02*
X130827693Y-80372419D01*
X130827693Y-80372419D02*
X130732455Y-80324800D01*
X130732455Y-80324800D02*
X130684836Y-80277180D01*
X131637217Y-79372419D02*
X132256264Y-79372419D01*
X132256264Y-79372419D02*
X131922931Y-79753371D01*
X131922931Y-79753371D02*
X132065788Y-79753371D01*
X132065788Y-79753371D02*
X132161026Y-79800990D01*
X132161026Y-79800990D02*
X132208645Y-79848609D01*
X132208645Y-79848609D02*
X132256264Y-79943847D01*
X132256264Y-79943847D02*
X132256264Y-80181942D01*
X132256264Y-80181942D02*
X132208645Y-80277180D01*
X132208645Y-80277180D02*
X132161026Y-80324800D01*
X132161026Y-80324800D02*
X132065788Y-80372419D01*
X132065788Y-80372419D02*
X131780074Y-80372419D01*
X131780074Y-80372419D02*
X131684836Y-80324800D01*
X131684836Y-80324800D02*
X131637217Y-80277180D01*
X132541979Y-79372419D02*
X132875312Y-80372419D01*
X132875312Y-80372419D02*
X133208645Y-79372419D01*
D13*
X113406667Y-83804318D02*
X113406667Y-84711461D01*
X113406667Y-84711461D02*
X113346190Y-84892889D01*
X113346190Y-84892889D02*
X113225238Y-85013842D01*
X113225238Y-85013842D02*
X113043809Y-85074318D01*
X113043809Y-85074318D02*
X112922857Y-85074318D01*
X114192857Y-84348603D02*
X114071905Y-84288127D01*
X114071905Y-84288127D02*
X114011428Y-84227651D01*
X114011428Y-84227651D02*
X113950952Y-84106699D01*
X113950952Y-84106699D02*
X113950952Y-84046222D01*
X113950952Y-84046222D02*
X114011428Y-83925270D01*
X114011428Y-83925270D02*
X114071905Y-83864794D01*
X114071905Y-83864794D02*
X114192857Y-83804318D01*
X114192857Y-83804318D02*
X114434762Y-83804318D01*
X114434762Y-83804318D02*
X114555714Y-83864794D01*
X114555714Y-83864794D02*
X114616190Y-83925270D01*
X114616190Y-83925270D02*
X114676667Y-84046222D01*
X114676667Y-84046222D02*
X114676667Y-84106699D01*
X114676667Y-84106699D02*
X114616190Y-84227651D01*
X114616190Y-84227651D02*
X114555714Y-84288127D01*
X114555714Y-84288127D02*
X114434762Y-84348603D01*
X114434762Y-84348603D02*
X114192857Y-84348603D01*
X114192857Y-84348603D02*
X114071905Y-84409080D01*
X114071905Y-84409080D02*
X114011428Y-84469556D01*
X114011428Y-84469556D02*
X113950952Y-84590508D01*
X113950952Y-84590508D02*
X113950952Y-84832413D01*
X113950952Y-84832413D02*
X114011428Y-84953365D01*
X114011428Y-84953365D02*
X114071905Y-85013842D01*
X114071905Y-85013842D02*
X114192857Y-85074318D01*
X114192857Y-85074318D02*
X114434762Y-85074318D01*
X114434762Y-85074318D02*
X114555714Y-85013842D01*
X114555714Y-85013842D02*
X114616190Y-84953365D01*
X114616190Y-84953365D02*
X114676667Y-84832413D01*
X114676667Y-84832413D02*
X114676667Y-84590508D01*
X114676667Y-84590508D02*
X114616190Y-84469556D01*
X114616190Y-84469556D02*
X114555714Y-84409080D01*
X114555714Y-84409080D02*
X114434762Y-84348603D01*
X75489080Y-75173332D02*
X75489080Y-75596666D01*
X76154318Y-75596666D02*
X74884318Y-75596666D01*
X74884318Y-75596666D02*
X74884318Y-74991904D01*
X76154318Y-73842856D02*
X76154318Y-74568571D01*
X76154318Y-74205714D02*
X74884318Y-74205714D01*
X74884318Y-74205714D02*
X75065746Y-74326666D01*
X75065746Y-74326666D02*
X75186699Y-74447618D01*
X75186699Y-74447618D02*
X75247175Y-74568571D01*
D14*
X123238095Y-46554819D02*
X123238095Y-47364342D01*
X123238095Y-47364342D02*
X123285714Y-47459580D01*
X123285714Y-47459580D02*
X123333333Y-47507200D01*
X123333333Y-47507200D02*
X123428571Y-47554819D01*
X123428571Y-47554819D02*
X123619047Y-47554819D01*
X123619047Y-47554819D02*
X123714285Y-47507200D01*
X123714285Y-47507200D02*
X123761904Y-47459580D01*
X123761904Y-47459580D02*
X123809523Y-47364342D01*
X123809523Y-47364342D02*
X123809523Y-46554819D01*
X124714285Y-46888152D02*
X124714285Y-47554819D01*
X124476190Y-46507200D02*
X124238095Y-47221485D01*
X124238095Y-47221485D02*
X124857142Y-47221485D01*
X77391666Y-46454819D02*
X77391666Y-47169104D01*
X77391666Y-47169104D02*
X77344047Y-47311961D01*
X77344047Y-47311961D02*
X77248809Y-47407200D01*
X77248809Y-47407200D02*
X77105952Y-47454819D01*
X77105952Y-47454819D02*
X77010714Y-47454819D01*
X78296428Y-46454819D02*
X78105952Y-46454819D01*
X78105952Y-46454819D02*
X78010714Y-46502438D01*
X78010714Y-46502438D02*
X77963095Y-46550057D01*
X77963095Y-46550057D02*
X77867857Y-46692914D01*
X77867857Y-46692914D02*
X77820238Y-46883390D01*
X77820238Y-46883390D02*
X77820238Y-47264342D01*
X77820238Y-47264342D02*
X77867857Y-47359580D01*
X77867857Y-47359580D02*
X77915476Y-47407200D01*
X77915476Y-47407200D02*
X78010714Y-47454819D01*
X78010714Y-47454819D02*
X78201190Y-47454819D01*
X78201190Y-47454819D02*
X78296428Y-47407200D01*
X78296428Y-47407200D02*
X78344047Y-47359580D01*
X78344047Y-47359580D02*
X78391666Y-47264342D01*
X78391666Y-47264342D02*
X78391666Y-47026247D01*
X78391666Y-47026247D02*
X78344047Y-46931009D01*
X78344047Y-46931009D02*
X78296428Y-46883390D01*
X78296428Y-46883390D02*
X78201190Y-46835771D01*
X78201190Y-46835771D02*
X78010714Y-46835771D01*
X78010714Y-46835771D02*
X77915476Y-46883390D01*
X77915476Y-46883390D02*
X77867857Y-46931009D01*
X77867857Y-46931009D02*
X77820238Y-47026247D01*
X69996666Y-78604819D02*
X69996666Y-79319104D01*
X69996666Y-79319104D02*
X69949047Y-79461961D01*
X69949047Y-79461961D02*
X69853809Y-79557200D01*
X69853809Y-79557200D02*
X69710952Y-79604819D01*
X69710952Y-79604819D02*
X69615714Y-79604819D01*
X70901428Y-78938152D02*
X70901428Y-79604819D01*
X70663333Y-78557200D02*
X70425238Y-79271485D01*
X70425238Y-79271485D02*
X71044285Y-79271485D01*
X96388095Y-46099819D02*
X96388095Y-46909342D01*
X96388095Y-46909342D02*
X96435714Y-47004580D01*
X96435714Y-47004580D02*
X96483333Y-47052200D01*
X96483333Y-47052200D02*
X96578571Y-47099819D01*
X96578571Y-47099819D02*
X96769047Y-47099819D01*
X96769047Y-47099819D02*
X96864285Y-47052200D01*
X96864285Y-47052200D02*
X96911904Y-47004580D01*
X96911904Y-47004580D02*
X96959523Y-46909342D01*
X96959523Y-46909342D02*
X96959523Y-46099819D01*
X97340476Y-46099819D02*
X97959523Y-46099819D01*
X97959523Y-46099819D02*
X97626190Y-46480771D01*
X97626190Y-46480771D02*
X97769047Y-46480771D01*
X97769047Y-46480771D02*
X97864285Y-46528390D01*
X97864285Y-46528390D02*
X97911904Y-46576009D01*
X97911904Y-46576009D02*
X97959523Y-46671247D01*
X97959523Y-46671247D02*
X97959523Y-46909342D01*
X97959523Y-46909342D02*
X97911904Y-47004580D01*
X97911904Y-47004580D02*
X97864285Y-47052200D01*
X97864285Y-47052200D02*
X97769047Y-47099819D01*
X97769047Y-47099819D02*
X97483333Y-47099819D01*
X97483333Y-47099819D02*
X97388095Y-47052200D01*
X97388095Y-47052200D02*
X97340476Y-47004580D01*
X123333333Y-73454819D02*
X123000000Y-72978628D01*
X122761905Y-73454819D02*
X122761905Y-72454819D01*
X122761905Y-72454819D02*
X123142857Y-72454819D01*
X123142857Y-72454819D02*
X123238095Y-72502438D01*
X123238095Y-72502438D02*
X123285714Y-72550057D01*
X123285714Y-72550057D02*
X123333333Y-72645295D01*
X123333333Y-72645295D02*
X123333333Y-72788152D01*
X123333333Y-72788152D02*
X123285714Y-72883390D01*
X123285714Y-72883390D02*
X123238095Y-72931009D01*
X123238095Y-72931009D02*
X123142857Y-72978628D01*
X123142857Y-72978628D02*
X122761905Y-72978628D01*
X123809524Y-73454819D02*
X124000000Y-73454819D01*
X124000000Y-73454819D02*
X124095238Y-73407200D01*
X124095238Y-73407200D02*
X124142857Y-73359580D01*
X124142857Y-73359580D02*
X124238095Y-73216723D01*
X124238095Y-73216723D02*
X124285714Y-73026247D01*
X124285714Y-73026247D02*
X124285714Y-72645295D01*
X124285714Y-72645295D02*
X124238095Y-72550057D01*
X124238095Y-72550057D02*
X124190476Y-72502438D01*
X124190476Y-72502438D02*
X124095238Y-72454819D01*
X124095238Y-72454819D02*
X123904762Y-72454819D01*
X123904762Y-72454819D02*
X123809524Y-72502438D01*
X123809524Y-72502438D02*
X123761905Y-72550057D01*
X123761905Y-72550057D02*
X123714286Y-72645295D01*
X123714286Y-72645295D02*
X123714286Y-72883390D01*
X123714286Y-72883390D02*
X123761905Y-72978628D01*
X123761905Y-72978628D02*
X123809524Y-73026247D01*
X123809524Y-73026247D02*
X123904762Y-73073866D01*
X123904762Y-73073866D02*
X124095238Y-73073866D01*
X124095238Y-73073866D02*
X124190476Y-73026247D01*
X124190476Y-73026247D02*
X124238095Y-72978628D01*
X124238095Y-72978628D02*
X124285714Y-72883390D01*
X84066666Y-49554819D02*
X84066666Y-50269104D01*
X84066666Y-50269104D02*
X84019047Y-50411961D01*
X84019047Y-50411961D02*
X83923809Y-50507200D01*
X83923809Y-50507200D02*
X83780952Y-50554819D01*
X83780952Y-50554819D02*
X83685714Y-50554819D01*
X85066666Y-50554819D02*
X84495238Y-50554819D01*
X84780952Y-50554819D02*
X84780952Y-49554819D01*
X84780952Y-49554819D02*
X84685714Y-49697676D01*
X84685714Y-49697676D02*
X84590476Y-49792914D01*
X84590476Y-49792914D02*
X84495238Y-49840533D01*
X120583333Y-51859580D02*
X120535714Y-51907200D01*
X120535714Y-51907200D02*
X120392857Y-51954819D01*
X120392857Y-51954819D02*
X120297619Y-51954819D01*
X120297619Y-51954819D02*
X120154762Y-51907200D01*
X120154762Y-51907200D02*
X120059524Y-51811961D01*
X120059524Y-51811961D02*
X120011905Y-51716723D01*
X120011905Y-51716723D02*
X119964286Y-51526247D01*
X119964286Y-51526247D02*
X119964286Y-51383390D01*
X119964286Y-51383390D02*
X120011905Y-51192914D01*
X120011905Y-51192914D02*
X120059524Y-51097676D01*
X120059524Y-51097676D02*
X120154762Y-51002438D01*
X120154762Y-51002438D02*
X120297619Y-50954819D01*
X120297619Y-50954819D02*
X120392857Y-50954819D01*
X120392857Y-50954819D02*
X120535714Y-51002438D01*
X120535714Y-51002438D02*
X120583333Y-51050057D01*
X121488095Y-50954819D02*
X121011905Y-50954819D01*
X121011905Y-50954819D02*
X120964286Y-51431009D01*
X120964286Y-51431009D02*
X121011905Y-51383390D01*
X121011905Y-51383390D02*
X121107143Y-51335771D01*
X121107143Y-51335771D02*
X121345238Y-51335771D01*
X121345238Y-51335771D02*
X121440476Y-51383390D01*
X121440476Y-51383390D02*
X121488095Y-51431009D01*
X121488095Y-51431009D02*
X121535714Y-51526247D01*
X121535714Y-51526247D02*
X121535714Y-51764342D01*
X121535714Y-51764342D02*
X121488095Y-51859580D01*
X121488095Y-51859580D02*
X121440476Y-51907200D01*
X121440476Y-51907200D02*
X121345238Y-51954819D01*
X121345238Y-51954819D02*
X121107143Y-51954819D01*
X121107143Y-51954819D02*
X121011905Y-51907200D01*
X121011905Y-51907200D02*
X120964286Y-51859580D01*
D13*
X135826667Y-83454318D02*
X135826667Y-84361461D01*
X135826667Y-84361461D02*
X135766190Y-84542889D01*
X135766190Y-84542889D02*
X135645238Y-84663842D01*
X135645238Y-84663842D02*
X135463809Y-84724318D01*
X135463809Y-84724318D02*
X135342857Y-84724318D01*
X136370952Y-83575270D02*
X136431428Y-83514794D01*
X136431428Y-83514794D02*
X136552381Y-83454318D01*
X136552381Y-83454318D02*
X136854762Y-83454318D01*
X136854762Y-83454318D02*
X136975714Y-83514794D01*
X136975714Y-83514794D02*
X137036190Y-83575270D01*
X137036190Y-83575270D02*
X137096667Y-83696222D01*
X137096667Y-83696222D02*
X137096667Y-83817175D01*
X137096667Y-83817175D02*
X137036190Y-83998603D01*
X137036190Y-83998603D02*
X136310476Y-84724318D01*
X136310476Y-84724318D02*
X137096667Y-84724318D01*
D14*
X106359580Y-60766666D02*
X106407200Y-60814285D01*
X106407200Y-60814285D02*
X106454819Y-60957142D01*
X106454819Y-60957142D02*
X106454819Y-61052380D01*
X106454819Y-61052380D02*
X106407200Y-61195237D01*
X106407200Y-61195237D02*
X106311961Y-61290475D01*
X106311961Y-61290475D02*
X106216723Y-61338094D01*
X106216723Y-61338094D02*
X106026247Y-61385713D01*
X106026247Y-61385713D02*
X105883390Y-61385713D01*
X105883390Y-61385713D02*
X105692914Y-61338094D01*
X105692914Y-61338094D02*
X105597676Y-61290475D01*
X105597676Y-61290475D02*
X105502438Y-61195237D01*
X105502438Y-61195237D02*
X105454819Y-61052380D01*
X105454819Y-61052380D02*
X105454819Y-60957142D01*
X105454819Y-60957142D02*
X105502438Y-60814285D01*
X105502438Y-60814285D02*
X105550057Y-60766666D01*
X105454819Y-60433332D02*
X105454819Y-59814285D01*
X105454819Y-59814285D02*
X105835771Y-60147618D01*
X105835771Y-60147618D02*
X105835771Y-60004761D01*
X105835771Y-60004761D02*
X105883390Y-59909523D01*
X105883390Y-59909523D02*
X105931009Y-59861904D01*
X105931009Y-59861904D02*
X106026247Y-59814285D01*
X106026247Y-59814285D02*
X106264342Y-59814285D01*
X106264342Y-59814285D02*
X106359580Y-59861904D01*
X106359580Y-59861904D02*
X106407200Y-59909523D01*
X106407200Y-59909523D02*
X106454819Y-60004761D01*
X106454819Y-60004761D02*
X106454819Y-60290475D01*
X106454819Y-60290475D02*
X106407200Y-60385713D01*
X106407200Y-60385713D02*
X106359580Y-60433332D01*
X89439580Y-85606666D02*
X89487200Y-85654285D01*
X89487200Y-85654285D02*
X89534819Y-85797142D01*
X89534819Y-85797142D02*
X89534819Y-85892380D01*
X89534819Y-85892380D02*
X89487200Y-86035237D01*
X89487200Y-86035237D02*
X89391961Y-86130475D01*
X89391961Y-86130475D02*
X89296723Y-86178094D01*
X89296723Y-86178094D02*
X89106247Y-86225713D01*
X89106247Y-86225713D02*
X88963390Y-86225713D01*
X88963390Y-86225713D02*
X88772914Y-86178094D01*
X88772914Y-86178094D02*
X88677676Y-86130475D01*
X88677676Y-86130475D02*
X88582438Y-86035237D01*
X88582438Y-86035237D02*
X88534819Y-85892380D01*
X88534819Y-85892380D02*
X88534819Y-85797142D01*
X88534819Y-85797142D02*
X88582438Y-85654285D01*
X88582438Y-85654285D02*
X88630057Y-85606666D01*
X88963390Y-85035237D02*
X88915771Y-85130475D01*
X88915771Y-85130475D02*
X88868152Y-85178094D01*
X88868152Y-85178094D02*
X88772914Y-85225713D01*
X88772914Y-85225713D02*
X88725295Y-85225713D01*
X88725295Y-85225713D02*
X88630057Y-85178094D01*
X88630057Y-85178094D02*
X88582438Y-85130475D01*
X88582438Y-85130475D02*
X88534819Y-85035237D01*
X88534819Y-85035237D02*
X88534819Y-84844761D01*
X88534819Y-84844761D02*
X88582438Y-84749523D01*
X88582438Y-84749523D02*
X88630057Y-84701904D01*
X88630057Y-84701904D02*
X88725295Y-84654285D01*
X88725295Y-84654285D02*
X88772914Y-84654285D01*
X88772914Y-84654285D02*
X88868152Y-84701904D01*
X88868152Y-84701904D02*
X88915771Y-84749523D01*
X88915771Y-84749523D02*
X88963390Y-84844761D01*
X88963390Y-84844761D02*
X88963390Y-85035237D01*
X88963390Y-85035237D02*
X89011009Y-85130475D01*
X89011009Y-85130475D02*
X89058628Y-85178094D01*
X89058628Y-85178094D02*
X89153866Y-85225713D01*
X89153866Y-85225713D02*
X89344342Y-85225713D01*
X89344342Y-85225713D02*
X89439580Y-85178094D01*
X89439580Y-85178094D02*
X89487200Y-85130475D01*
X89487200Y-85130475D02*
X89534819Y-85035237D01*
X89534819Y-85035237D02*
X89534819Y-84844761D01*
X89534819Y-84844761D02*
X89487200Y-84749523D01*
X89487200Y-84749523D02*
X89439580Y-84701904D01*
X89439580Y-84701904D02*
X89344342Y-84654285D01*
X89344342Y-84654285D02*
X89153866Y-84654285D01*
X89153866Y-84654285D02*
X89058628Y-84701904D01*
X89058628Y-84701904D02*
X89011009Y-84749523D01*
X89011009Y-84749523D02*
X88963390Y-84844761D01*
D13*
X95997856Y-71324318D02*
X95997856Y-70054318D01*
X95997856Y-70054318D02*
X96481666Y-70054318D01*
X96481666Y-70054318D02*
X96602618Y-70114794D01*
X96602618Y-70114794D02*
X96663095Y-70175270D01*
X96663095Y-70175270D02*
X96723571Y-70296222D01*
X96723571Y-70296222D02*
X96723571Y-70477651D01*
X96723571Y-70477651D02*
X96663095Y-70598603D01*
X96663095Y-70598603D02*
X96602618Y-70659080D01*
X96602618Y-70659080D02*
X96481666Y-70719556D01*
X96481666Y-70719556D02*
X95997856Y-70719556D01*
X97207380Y-71263842D02*
X97388809Y-71324318D01*
X97388809Y-71324318D02*
X97691190Y-71324318D01*
X97691190Y-71324318D02*
X97812142Y-71263842D01*
X97812142Y-71263842D02*
X97872618Y-71203365D01*
X97872618Y-71203365D02*
X97933095Y-71082413D01*
X97933095Y-71082413D02*
X97933095Y-70961461D01*
X97933095Y-70961461D02*
X97872618Y-70840508D01*
X97872618Y-70840508D02*
X97812142Y-70780032D01*
X97812142Y-70780032D02*
X97691190Y-70719556D01*
X97691190Y-70719556D02*
X97449285Y-70659080D01*
X97449285Y-70659080D02*
X97328333Y-70598603D01*
X97328333Y-70598603D02*
X97267856Y-70538127D01*
X97267856Y-70538127D02*
X97207380Y-70417175D01*
X97207380Y-70417175D02*
X97207380Y-70296222D01*
X97207380Y-70296222D02*
X97267856Y-70175270D01*
X97267856Y-70175270D02*
X97328333Y-70114794D01*
X97328333Y-70114794D02*
X97449285Y-70054318D01*
X97449285Y-70054318D02*
X97751666Y-70054318D01*
X97751666Y-70054318D02*
X97933095Y-70114794D01*
X99142619Y-71324318D02*
X98416904Y-71324318D01*
X98779761Y-71324318D02*
X98779761Y-70054318D01*
X98779761Y-70054318D02*
X98658809Y-70235746D01*
X98658809Y-70235746D02*
X98537857Y-70356699D01*
X98537857Y-70356699D02*
X98416904Y-70417175D01*
X128586905Y-63054318D02*
X129010238Y-64324318D01*
X129010238Y-64324318D02*
X129433572Y-63054318D01*
X130582619Y-64324318D02*
X130159285Y-63719556D01*
X129856904Y-64324318D02*
X129856904Y-63054318D01*
X129856904Y-63054318D02*
X130340714Y-63054318D01*
X130340714Y-63054318D02*
X130461666Y-63114794D01*
X130461666Y-63114794D02*
X130522143Y-63175270D01*
X130522143Y-63175270D02*
X130582619Y-63296222D01*
X130582619Y-63296222D02*
X130582619Y-63477651D01*
X130582619Y-63477651D02*
X130522143Y-63598603D01*
X130522143Y-63598603D02*
X130461666Y-63659080D01*
X130461666Y-63659080D02*
X130340714Y-63719556D01*
X130340714Y-63719556D02*
X129856904Y-63719556D01*
X131792143Y-64324318D02*
X131066428Y-64324318D01*
X131429285Y-64324318D02*
X131429285Y-63054318D01*
X131429285Y-63054318D02*
X131308333Y-63235746D01*
X131308333Y-63235746D02*
X131187381Y-63356699D01*
X131187381Y-63356699D02*
X131066428Y-63417175D01*
D14*
X114333333Y-51859580D02*
X114285714Y-51907200D01*
X114285714Y-51907200D02*
X114142857Y-51954819D01*
X114142857Y-51954819D02*
X114047619Y-51954819D01*
X114047619Y-51954819D02*
X113904762Y-51907200D01*
X113904762Y-51907200D02*
X113809524Y-51811961D01*
X113809524Y-51811961D02*
X113761905Y-51716723D01*
X113761905Y-51716723D02*
X113714286Y-51526247D01*
X113714286Y-51526247D02*
X113714286Y-51383390D01*
X113714286Y-51383390D02*
X113761905Y-51192914D01*
X113761905Y-51192914D02*
X113809524Y-51097676D01*
X113809524Y-51097676D02*
X113904762Y-51002438D01*
X113904762Y-51002438D02*
X114047619Y-50954819D01*
X114047619Y-50954819D02*
X114142857Y-50954819D01*
X114142857Y-50954819D02*
X114285714Y-51002438D01*
X114285714Y-51002438D02*
X114333333Y-51050057D01*
X115190476Y-51288152D02*
X115190476Y-51954819D01*
X114952381Y-50907200D02*
X114714286Y-51621485D01*
X114714286Y-51621485D02*
X115333333Y-51621485D01*
X60454819Y-48483333D02*
X61169104Y-48483333D01*
X61169104Y-48483333D02*
X61311961Y-48530952D01*
X61311961Y-48530952D02*
X61407200Y-48626190D01*
X61407200Y-48626190D02*
X61454819Y-48769047D01*
X61454819Y-48769047D02*
X61454819Y-48864285D01*
X60454819Y-48102380D02*
X60454819Y-47483333D01*
X60454819Y-47483333D02*
X60835771Y-47816666D01*
X60835771Y-47816666D02*
X60835771Y-47673809D01*
X60835771Y-47673809D02*
X60883390Y-47578571D01*
X60883390Y-47578571D02*
X60931009Y-47530952D01*
X60931009Y-47530952D02*
X61026247Y-47483333D01*
X61026247Y-47483333D02*
X61264342Y-47483333D01*
X61264342Y-47483333D02*
X61359580Y-47530952D01*
X61359580Y-47530952D02*
X61407200Y-47578571D01*
X61407200Y-47578571D02*
X61454819Y-47673809D01*
X61454819Y-47673809D02*
X61454819Y-47959523D01*
X61454819Y-47959523D02*
X61407200Y-48054761D01*
X61407200Y-48054761D02*
X61359580Y-48102380D01*
X99159580Y-60866666D02*
X99207200Y-60914285D01*
X99207200Y-60914285D02*
X99254819Y-61057142D01*
X99254819Y-61057142D02*
X99254819Y-61152380D01*
X99254819Y-61152380D02*
X99207200Y-61295237D01*
X99207200Y-61295237D02*
X99111961Y-61390475D01*
X99111961Y-61390475D02*
X99016723Y-61438094D01*
X99016723Y-61438094D02*
X98826247Y-61485713D01*
X98826247Y-61485713D02*
X98683390Y-61485713D01*
X98683390Y-61485713D02*
X98492914Y-61438094D01*
X98492914Y-61438094D02*
X98397676Y-61390475D01*
X98397676Y-61390475D02*
X98302438Y-61295237D01*
X98302438Y-61295237D02*
X98254819Y-61152380D01*
X98254819Y-61152380D02*
X98254819Y-61057142D01*
X98254819Y-61057142D02*
X98302438Y-60914285D01*
X98302438Y-60914285D02*
X98350057Y-60866666D01*
X98350057Y-60485713D02*
X98302438Y-60438094D01*
X98302438Y-60438094D02*
X98254819Y-60342856D01*
X98254819Y-60342856D02*
X98254819Y-60104761D01*
X98254819Y-60104761D02*
X98302438Y-60009523D01*
X98302438Y-60009523D02*
X98350057Y-59961904D01*
X98350057Y-59961904D02*
X98445295Y-59914285D01*
X98445295Y-59914285D02*
X98540533Y-59914285D01*
X98540533Y-59914285D02*
X98683390Y-59961904D01*
X98683390Y-59961904D02*
X99254819Y-60533332D01*
X99254819Y-60533332D02*
X99254819Y-59914285D01*
X139783333Y-76309580D02*
X139735714Y-76357200D01*
X139735714Y-76357200D02*
X139592857Y-76404819D01*
X139592857Y-76404819D02*
X139497619Y-76404819D01*
X139497619Y-76404819D02*
X139354762Y-76357200D01*
X139354762Y-76357200D02*
X139259524Y-76261961D01*
X139259524Y-76261961D02*
X139211905Y-76166723D01*
X139211905Y-76166723D02*
X139164286Y-75976247D01*
X139164286Y-75976247D02*
X139164286Y-75833390D01*
X139164286Y-75833390D02*
X139211905Y-75642914D01*
X139211905Y-75642914D02*
X139259524Y-75547676D01*
X139259524Y-75547676D02*
X139354762Y-75452438D01*
X139354762Y-75452438D02*
X139497619Y-75404819D01*
X139497619Y-75404819D02*
X139592857Y-75404819D01*
X139592857Y-75404819D02*
X139735714Y-75452438D01*
X139735714Y-75452438D02*
X139783333Y-75500057D01*
X140640476Y-75404819D02*
X140450000Y-75404819D01*
X140450000Y-75404819D02*
X140354762Y-75452438D01*
X140354762Y-75452438D02*
X140307143Y-75500057D01*
X140307143Y-75500057D02*
X140211905Y-75642914D01*
X140211905Y-75642914D02*
X140164286Y-75833390D01*
X140164286Y-75833390D02*
X140164286Y-76214342D01*
X140164286Y-76214342D02*
X140211905Y-76309580D01*
X140211905Y-76309580D02*
X140259524Y-76357200D01*
X140259524Y-76357200D02*
X140354762Y-76404819D01*
X140354762Y-76404819D02*
X140545238Y-76404819D01*
X140545238Y-76404819D02*
X140640476Y-76357200D01*
X140640476Y-76357200D02*
X140688095Y-76309580D01*
X140688095Y-76309580D02*
X140735714Y-76214342D01*
X140735714Y-76214342D02*
X140735714Y-75976247D01*
X140735714Y-75976247D02*
X140688095Y-75881009D01*
X140688095Y-75881009D02*
X140640476Y-75833390D01*
X140640476Y-75833390D02*
X140545238Y-75785771D01*
X140545238Y-75785771D02*
X140354762Y-75785771D01*
X140354762Y-75785771D02*
X140259524Y-75833390D01*
X140259524Y-75833390D02*
X140211905Y-75881009D01*
X140211905Y-75881009D02*
X140164286Y-75976247D01*
X83189580Y-85606666D02*
X83237200Y-85654285D01*
X83237200Y-85654285D02*
X83284819Y-85797142D01*
X83284819Y-85797142D02*
X83284819Y-85892380D01*
X83284819Y-85892380D02*
X83237200Y-86035237D01*
X83237200Y-86035237D02*
X83141961Y-86130475D01*
X83141961Y-86130475D02*
X83046723Y-86178094D01*
X83046723Y-86178094D02*
X82856247Y-86225713D01*
X82856247Y-86225713D02*
X82713390Y-86225713D01*
X82713390Y-86225713D02*
X82522914Y-86178094D01*
X82522914Y-86178094D02*
X82427676Y-86130475D01*
X82427676Y-86130475D02*
X82332438Y-86035237D01*
X82332438Y-86035237D02*
X82284819Y-85892380D01*
X82284819Y-85892380D02*
X82284819Y-85797142D01*
X82284819Y-85797142D02*
X82332438Y-85654285D01*
X82332438Y-85654285D02*
X82380057Y-85606666D01*
X82284819Y-85273332D02*
X82284819Y-84606666D01*
X82284819Y-84606666D02*
X83284819Y-85035237D01*
X94784819Y-87416666D02*
X94784819Y-87892856D01*
X94784819Y-87892856D02*
X93784819Y-87892856D01*
X94784819Y-86559523D02*
X94784819Y-87130951D01*
X94784819Y-86845237D02*
X93784819Y-86845237D01*
X93784819Y-86845237D02*
X93927676Y-86940475D01*
X93927676Y-86940475D02*
X94022914Y-87035713D01*
X94022914Y-87035713D02*
X94070533Y-87130951D01*
X140133333Y-52244819D02*
X139800000Y-51768628D01*
X139561905Y-52244819D02*
X139561905Y-51244819D01*
X139561905Y-51244819D02*
X139942857Y-51244819D01*
X139942857Y-51244819D02*
X140038095Y-51292438D01*
X140038095Y-51292438D02*
X140085714Y-51340057D01*
X140085714Y-51340057D02*
X140133333Y-51435295D01*
X140133333Y-51435295D02*
X140133333Y-51578152D01*
X140133333Y-51578152D02*
X140085714Y-51673390D01*
X140085714Y-51673390D02*
X140038095Y-51721009D01*
X140038095Y-51721009D02*
X139942857Y-51768628D01*
X139942857Y-51768628D02*
X139561905Y-51768628D01*
X141085714Y-52244819D02*
X140514286Y-52244819D01*
X140800000Y-52244819D02*
X140800000Y-51244819D01*
X140800000Y-51244819D02*
X140704762Y-51387676D01*
X140704762Y-51387676D02*
X140609524Y-51482914D01*
X140609524Y-51482914D02*
X140514286Y-51530533D01*
X104561905Y-52054819D02*
X104561905Y-51054819D01*
X104561905Y-51054819D02*
X104800000Y-51054819D01*
X104800000Y-51054819D02*
X104942857Y-51102438D01*
X104942857Y-51102438D02*
X105038095Y-51197676D01*
X105038095Y-51197676D02*
X105085714Y-51292914D01*
X105085714Y-51292914D02*
X105133333Y-51483390D01*
X105133333Y-51483390D02*
X105133333Y-51626247D01*
X105133333Y-51626247D02*
X105085714Y-51816723D01*
X105085714Y-51816723D02*
X105038095Y-51911961D01*
X105038095Y-51911961D02*
X104942857Y-52007200D01*
X104942857Y-52007200D02*
X104800000Y-52054819D01*
X104800000Y-52054819D02*
X104561905Y-52054819D01*
X106085714Y-52054819D02*
X105514286Y-52054819D01*
X105800000Y-52054819D02*
X105800000Y-51054819D01*
X105800000Y-51054819D02*
X105704762Y-51197676D01*
X105704762Y-51197676D02*
X105609524Y-51292914D01*
X105609524Y-51292914D02*
X105514286Y-51340533D01*
X101118095Y-52454819D02*
X101118095Y-51454819D01*
X101689523Y-52454819D02*
X101260952Y-51883390D01*
X101689523Y-51454819D02*
X101118095Y-52026247D01*
X99689580Y-79121779D02*
X99737200Y-79169398D01*
X99737200Y-79169398D02*
X99784819Y-79312255D01*
X99784819Y-79312255D02*
X99784819Y-79407493D01*
X99784819Y-79407493D02*
X99737200Y-79550350D01*
X99737200Y-79550350D02*
X99641961Y-79645588D01*
X99641961Y-79645588D02*
X99546723Y-79693207D01*
X99546723Y-79693207D02*
X99356247Y-79740826D01*
X99356247Y-79740826D02*
X99213390Y-79740826D01*
X99213390Y-79740826D02*
X99022914Y-79693207D01*
X99022914Y-79693207D02*
X98927676Y-79645588D01*
X98927676Y-79645588D02*
X98832438Y-79550350D01*
X98832438Y-79550350D02*
X98784819Y-79407493D01*
X98784819Y-79407493D02*
X98784819Y-79312255D01*
X98784819Y-79312255D02*
X98832438Y-79169398D01*
X98832438Y-79169398D02*
X98880057Y-79121779D01*
X99784819Y-78645588D02*
X99784819Y-78455112D01*
X99784819Y-78455112D02*
X99737200Y-78359874D01*
X99737200Y-78359874D02*
X99689580Y-78312255D01*
X99689580Y-78312255D02*
X99546723Y-78217017D01*
X99546723Y-78217017D02*
X99356247Y-78169398D01*
X99356247Y-78169398D02*
X98975295Y-78169398D01*
X98975295Y-78169398D02*
X98880057Y-78217017D01*
X98880057Y-78217017D02*
X98832438Y-78264636D01*
X98832438Y-78264636D02*
X98784819Y-78359874D01*
X98784819Y-78359874D02*
X98784819Y-78550350D01*
X98784819Y-78550350D02*
X98832438Y-78645588D01*
X98832438Y-78645588D02*
X98880057Y-78693207D01*
X98880057Y-78693207D02*
X98975295Y-78740826D01*
X98975295Y-78740826D02*
X99213390Y-78740826D01*
X99213390Y-78740826D02*
X99308628Y-78693207D01*
X99308628Y-78693207D02*
X99356247Y-78645588D01*
X99356247Y-78645588D02*
X99403866Y-78550350D01*
X99403866Y-78550350D02*
X99403866Y-78359874D01*
X99403866Y-78359874D02*
X99356247Y-78264636D01*
X99356247Y-78264636D02*
X99308628Y-78217017D01*
X99308628Y-78217017D02*
X99213390Y-78169398D01*
X92733333Y-48859580D02*
X92685714Y-48907200D01*
X92685714Y-48907200D02*
X92542857Y-48954819D01*
X92542857Y-48954819D02*
X92447619Y-48954819D01*
X92447619Y-48954819D02*
X92304762Y-48907200D01*
X92304762Y-48907200D02*
X92209524Y-48811961D01*
X92209524Y-48811961D02*
X92161905Y-48716723D01*
X92161905Y-48716723D02*
X92114286Y-48526247D01*
X92114286Y-48526247D02*
X92114286Y-48383390D01*
X92114286Y-48383390D02*
X92161905Y-48192914D01*
X92161905Y-48192914D02*
X92209524Y-48097676D01*
X92209524Y-48097676D02*
X92304762Y-48002438D01*
X92304762Y-48002438D02*
X92447619Y-47954819D01*
X92447619Y-47954819D02*
X92542857Y-47954819D01*
X92542857Y-47954819D02*
X92685714Y-48002438D01*
X92685714Y-48002438D02*
X92733333Y-48050057D01*
X93685714Y-48954819D02*
X93114286Y-48954819D01*
X93400000Y-48954819D02*
X93400000Y-47954819D01*
X93400000Y-47954819D02*
X93304762Y-48097676D01*
X93304762Y-48097676D02*
X93209524Y-48192914D01*
X93209524Y-48192914D02*
X93114286Y-48240533D01*
X72454819Y-58978333D02*
X73169104Y-58978333D01*
X73169104Y-58978333D02*
X73311961Y-59025952D01*
X73311961Y-59025952D02*
X73407200Y-59121190D01*
X73407200Y-59121190D02*
X73454819Y-59264047D01*
X73454819Y-59264047D02*
X73454819Y-59359285D01*
X72454819Y-58025952D02*
X72454819Y-58502142D01*
X72454819Y-58502142D02*
X72931009Y-58549761D01*
X72931009Y-58549761D02*
X72883390Y-58502142D01*
X72883390Y-58502142D02*
X72835771Y-58406904D01*
X72835771Y-58406904D02*
X72835771Y-58168809D01*
X72835771Y-58168809D02*
X72883390Y-58073571D01*
X72883390Y-58073571D02*
X72931009Y-58025952D01*
X72931009Y-58025952D02*
X73026247Y-57978333D01*
X73026247Y-57978333D02*
X73264342Y-57978333D01*
X73264342Y-57978333D02*
X73359580Y-58025952D01*
X73359580Y-58025952D02*
X73407200Y-58073571D01*
X73407200Y-58073571D02*
X73454819Y-58168809D01*
X73454819Y-58168809D02*
X73454819Y-58406904D01*
X73454819Y-58406904D02*
X73407200Y-58502142D01*
X73407200Y-58502142D02*
X73359580Y-58549761D01*
X130361905Y-52329706D02*
X130361905Y-51329706D01*
X130361905Y-51329706D02*
X130600000Y-51329706D01*
X130600000Y-51329706D02*
X130742857Y-51377325D01*
X130742857Y-51377325D02*
X130838095Y-51472563D01*
X130838095Y-51472563D02*
X130885714Y-51567801D01*
X130885714Y-51567801D02*
X130933333Y-51758277D01*
X130933333Y-51758277D02*
X130933333Y-51901134D01*
X130933333Y-51901134D02*
X130885714Y-52091610D01*
X130885714Y-52091610D02*
X130838095Y-52186848D01*
X130838095Y-52186848D02*
X130742857Y-52282087D01*
X130742857Y-52282087D02*
X130600000Y-52329706D01*
X130600000Y-52329706D02*
X130361905Y-52329706D01*
X131314286Y-51424944D02*
X131361905Y-51377325D01*
X131361905Y-51377325D02*
X131457143Y-51329706D01*
X131457143Y-51329706D02*
X131695238Y-51329706D01*
X131695238Y-51329706D02*
X131790476Y-51377325D01*
X131790476Y-51377325D02*
X131838095Y-51424944D01*
X131838095Y-51424944D02*
X131885714Y-51520182D01*
X131885714Y-51520182D02*
X131885714Y-51615420D01*
X131885714Y-51615420D02*
X131838095Y-51758277D01*
X131838095Y-51758277D02*
X131266667Y-52329706D01*
X131266667Y-52329706D02*
X131885714Y-52329706D01*
X125758095Y-52699706D02*
X125758095Y-51699706D01*
X126329523Y-52699706D02*
X125900952Y-52128277D01*
X126329523Y-51699706D02*
X125758095Y-52271134D01*
X130361905Y-62224819D02*
X130361905Y-61224819D01*
X130361905Y-61224819D02*
X130600000Y-61224819D01*
X130600000Y-61224819D02*
X130742857Y-61272438D01*
X130742857Y-61272438D02*
X130838095Y-61367676D01*
X130838095Y-61367676D02*
X130885714Y-61462914D01*
X130885714Y-61462914D02*
X130933333Y-61653390D01*
X130933333Y-61653390D02*
X130933333Y-61796247D01*
X130933333Y-61796247D02*
X130885714Y-61986723D01*
X130885714Y-61986723D02*
X130838095Y-62081961D01*
X130838095Y-62081961D02*
X130742857Y-62177200D01*
X130742857Y-62177200D02*
X130600000Y-62224819D01*
X130600000Y-62224819D02*
X130361905Y-62224819D01*
X131838095Y-61224819D02*
X131361905Y-61224819D01*
X131361905Y-61224819D02*
X131314286Y-61701009D01*
X131314286Y-61701009D02*
X131361905Y-61653390D01*
X131361905Y-61653390D02*
X131457143Y-61605771D01*
X131457143Y-61605771D02*
X131695238Y-61605771D01*
X131695238Y-61605771D02*
X131790476Y-61653390D01*
X131790476Y-61653390D02*
X131838095Y-61701009D01*
X131838095Y-61701009D02*
X131885714Y-61796247D01*
X131885714Y-61796247D02*
X131885714Y-62034342D01*
X131885714Y-62034342D02*
X131838095Y-62129580D01*
X131838095Y-62129580D02*
X131790476Y-62177200D01*
X131790476Y-62177200D02*
X131695238Y-62224819D01*
X131695238Y-62224819D02*
X131457143Y-62224819D01*
X131457143Y-62224819D02*
X131361905Y-62177200D01*
X131361905Y-62177200D02*
X131314286Y-62129580D01*
X135918095Y-61854819D02*
X135918095Y-60854819D01*
X136489523Y-61854819D02*
X136060952Y-61283390D01*
X136489523Y-60854819D02*
X135918095Y-61426247D01*
D11*
X104580000Y-87350000D02*
X104580000Y-84500000D01*
X107080000Y-81650000D02*
X112080000Y-81650000D01*
X112080000Y-81650000D02*
X112080000Y-87350000D01*
X112080000Y-87350000D02*
X104580000Y-87350000D01*
D10*
X73730000Y-83750000D02*
X73730000Y-83750000D01*
X73830000Y-83750000D02*
X73830000Y-83750000D01*
D11*
X74575000Y-77250000D02*
X74575000Y-82750000D01*
X74575000Y-84750000D02*
X74575000Y-85150000D01*
X74575000Y-85150000D02*
X77675000Y-85150000D01*
X77675000Y-77250000D02*
X74575000Y-77250000D01*
X77675000Y-77750000D02*
X77675000Y-77250000D01*
X77675000Y-85150000D02*
X77675000Y-79750000D01*
D10*
X73730000Y-83750000D02*
G75*
G02*
X73830000Y-83750000I50000J0D01*
G01*
X73830000Y-83750000D02*
G75*
G02*
X73730000Y-83750000I-50000J0D01*
G01*
D15*
X126580000Y-44675000D02*
X126580000Y-49316000D01*
X126580000Y-44675000D02*
X136820000Y-44675000D01*
X126580000Y-46185000D02*
X136820000Y-46185000D01*
X126580000Y-49316000D02*
X136820000Y-49316000D01*
X129850000Y-44675000D02*
X129850000Y-46185000D01*
X133551000Y-44675000D02*
X133551000Y-46185000D01*
X136820000Y-44675000D02*
X136820000Y-49316000D01*
X76395000Y-48630000D02*
X77725000Y-48630000D01*
X76395000Y-49960000D02*
X76395000Y-48630000D01*
X76395000Y-51230000D02*
X76395000Y-53830000D01*
X76395000Y-51230000D02*
X79055000Y-51230000D01*
X76395000Y-53830000D02*
X79055000Y-53830000D01*
X79055000Y-51230000D02*
X79055000Y-53830000D01*
X69000000Y-75280000D02*
X69000000Y-72680000D01*
X71660000Y-72680000D02*
X69000000Y-72680000D01*
X71660000Y-75280000D02*
X69000000Y-75280000D01*
X71660000Y-75280000D02*
X71660000Y-72680000D01*
X71660000Y-76550000D02*
X71660000Y-77880000D01*
X71660000Y-77880000D02*
X70330000Y-77880000D01*
X99880000Y-44675000D02*
X99880000Y-49316000D01*
X99880000Y-44675000D02*
X110120000Y-44675000D01*
X99880000Y-46185000D02*
X110120000Y-46185000D01*
X99880000Y-49316000D02*
X110120000Y-49316000D01*
X103150000Y-44675000D02*
X103150000Y-46185000D01*
X106851000Y-44675000D02*
X106851000Y-46185000D01*
X110120000Y-44675000D02*
X110120000Y-49316000D01*
X127030000Y-71730000D02*
X127030000Y-72060000D01*
X127030000Y-74470000D02*
X127030000Y-74140000D01*
X133570000Y-71730000D02*
X127030000Y-71730000D01*
X133570000Y-72060000D02*
X133570000Y-71730000D01*
X133570000Y-74140000D02*
X133570000Y-74470000D01*
X133570000Y-74470000D02*
X127030000Y-74470000D01*
D16*
X61301782Y-79049802D02*
X60698218Y-79049802D01*
X60698218Y-76031980D01*
X61301782Y-76031980D01*
X61301782Y-79049802D01*
G36*
X61301782Y-79049802D02*
G01*
X60698218Y-79049802D01*
X60698218Y-76031980D01*
X61301782Y-76031980D01*
X61301782Y-79049802D01*
G37*
X61301782Y-59144752D02*
X62508911Y-59144752D01*
X62508911Y-59748316D01*
X61301782Y-59748316D01*
X61301782Y-60955445D01*
X60698462Y-60955445D01*
X60695196Y-60355024D01*
X60691931Y-59754604D01*
X60091510Y-59751338D01*
X59491089Y-59748073D01*
X59491089Y-59144752D01*
X60698218Y-59144752D01*
X60698218Y-57937623D01*
X61301782Y-57937623D01*
X61301782Y-59144752D01*
G36*
X61301782Y-59144752D02*
G01*
X62508911Y-59144752D01*
X62508911Y-59748316D01*
X61301782Y-59748316D01*
X61301782Y-60955445D01*
X60698462Y-60955445D01*
X60695196Y-60355024D01*
X60691931Y-59754604D01*
X60091510Y-59751338D01*
X59491089Y-59748073D01*
X59491089Y-59144752D01*
X60698218Y-59144752D01*
X60698218Y-57937623D01*
X61301782Y-57937623D01*
X61301782Y-59144752D01*
G37*
X61245057Y-56444030D02*
X61501257Y-56473050D01*
X61671311Y-56505113D01*
X61940062Y-56576908D01*
X62197173Y-56670324D01*
X62441710Y-56784731D01*
X62672735Y-56919499D01*
X62889311Y-57073998D01*
X63090501Y-57247597D01*
X63275370Y-57439668D01*
X63442980Y-57649580D01*
X63504804Y-57738134D01*
X63645671Y-57969936D01*
X63763787Y-58211925D01*
X63859355Y-58464626D01*
X63932574Y-58728566D01*
X63980834Y-58984893D01*
X63988743Y-59049334D01*
X63996003Y-59128923D01*
X64002373Y-59218322D01*
X64007614Y-59312193D01*
X64011484Y-59405196D01*
X64013745Y-59491993D01*
X64014155Y-59567245D01*
X64012474Y-59625614D01*
X64010670Y-59647722D01*
X64007233Y-59678934D01*
X64002019Y-59727447D01*
X63995854Y-59785549D01*
X63991837Y-59823762D01*
X63953789Y-60072235D01*
X63892397Y-60321053D01*
X63809154Y-60566628D01*
X63705555Y-60805371D01*
X63583096Y-61033696D01*
X63443269Y-61248015D01*
X63344941Y-61376683D01*
X63274354Y-61458737D01*
X63190585Y-61548605D01*
X63100408Y-61639491D01*
X63010595Y-61724593D01*
X62927921Y-61797115D01*
X62917575Y-61805654D01*
X62719178Y-61952453D01*
X62503255Y-62083364D01*
X62272735Y-62197128D01*
X62030547Y-62292489D01*
X61779620Y-62368187D01*
X61522882Y-62422964D01*
X61455817Y-62433583D01*
X61301782Y-62456222D01*
X61301782Y-64786921D01*
X61301813Y-65081443D01*
X61301908Y-65351726D01*
X61302075Y-65598680D01*
X61302318Y-65823214D01*
X61302645Y-66026238D01*
X61303061Y-66208661D01*
X61303573Y-66371394D01*
X61304186Y-66515345D01*
X61304907Y-66641424D01*
X61305742Y-66750541D01*
X61306697Y-66843606D01*
X61307778Y-66921527D01*
X61308992Y-66985215D01*
X61310343Y-67035579D01*
X61311840Y-67073529D01*
X61313486Y-67099974D01*
X61315290Y-67115824D01*
X61317256Y-67121989D01*
X61317500Y-67122120D01*
X61476421Y-67172827D01*
X61614878Y-67228895D01*
X61737391Y-67292807D01*
X61848478Y-67367043D01*
X61952660Y-67454085D01*
X61993825Y-67493453D01*
X62113268Y-67628728D01*
X62212215Y-67776164D01*
X62290661Y-67933467D01*
X62348604Y-68098342D01*
X62386040Y-68268494D01*
X62402966Y-68441628D01*
X62399379Y-68615450D01*
X62375275Y-68787664D01*
X62330650Y-68955977D01*
X62265503Y-69118093D01*
X62179829Y-69271717D01*
X62073625Y-69414555D01*
X61996705Y-69497447D01*
X61858261Y-69619461D01*
X61712292Y-69718275D01*
X61556607Y-69795267D01*
X61472636Y-69826614D01*
X61291073Y-69875202D01*
X61108158Y-69900427D01*
X61004344Y-69901845D01*
X60926057Y-69902915D01*
X60746936Y-69883295D01*
X60572961Y-69842196D01*
X60406296Y-69780244D01*
X60249108Y-69698068D01*
X60103563Y-69596295D01*
X59971826Y-69475555D01*
X59876353Y-69363789D01*
X59776549Y-69212718D01*
X59698111Y-69050818D01*
X59641103Y-68880623D01*
X59605588Y-68704671D01*
X59591630Y-68525498D01*
X59599292Y-68345638D01*
X59628637Y-68167628D01*
X59679728Y-67994004D01*
X59752631Y-67827302D01*
X59834461Y-67688960D01*
X59865287Y-67647436D01*
X59907642Y-67596063D01*
X59955030Y-67542527D01*
X59985791Y-67509865D01*
X60103370Y-67401129D01*
X60229455Y-67309704D01*
X60367868Y-67233459D01*
X60522432Y-67170266D01*
X60682500Y-67121741D01*
X60684486Y-67116714D01*
X60686308Y-67102112D01*
X60687973Y-67077026D01*
X60689486Y-67040547D01*
X60690854Y-66991764D01*
X60692084Y-66929769D01*
X60693180Y-66853652D01*
X60694150Y-66762504D01*
X60694998Y-66655415D01*
X60695733Y-66531476D01*
X60696359Y-66389778D01*
X60696882Y-66229412D01*
X60697310Y-66049467D01*
X60697647Y-65849035D01*
X60697900Y-65627206D01*
X60698076Y-65383070D01*
X60698179Y-65115719D01*
X60698218Y-64824243D01*
X60698218Y-62454251D01*
X60619629Y-62445623D01*
X60461944Y-62422577D01*
X60292647Y-62387672D01*
X60120886Y-62343245D01*
X59955810Y-62291629D01*
X59825507Y-62243000D01*
X59577705Y-62128703D01*
X59344560Y-61994454D01*
X59126879Y-61841293D01*
X58925468Y-61670261D01*
X58741134Y-61482397D01*
X58574686Y-61278741D01*
X58426930Y-61060335D01*
X58298674Y-60828217D01*
X58190724Y-60583427D01*
X58103888Y-60327007D01*
X58038973Y-60059995D01*
X58012635Y-59907164D01*
X58001374Y-59810876D01*
X57992824Y-59697047D01*
X57987175Y-59573160D01*
X57984620Y-59446698D01*
X57984648Y-59442023D01*
X58648048Y-59442023D01*
X58657274Y-59675863D01*
X58688153Y-59907522D01*
X58741007Y-60134402D01*
X58769337Y-60226138D01*
X58856375Y-60449560D01*
X58963986Y-60659402D01*
X59090996Y-60854717D01*
X59236231Y-61034554D01*
X59398517Y-61197966D01*
X59576681Y-61344004D01*
X59769549Y-61471719D01*
X59975947Y-61580164D01*
X60194701Y-61668388D01*
X60424637Y-61735444D01*
X60664582Y-61780383D01*
X60697888Y-61784730D01*
X60749574Y-61789468D01*
X60818586Y-61793451D01*
X60897106Y-61796343D01*
X60977316Y-61797808D01*
X61004344Y-61797920D01*
X61247590Y-61787239D01*
X61479902Y-61754801D01*
X61703923Y-61700020D01*
X61922297Y-61622306D01*
X62049951Y-61565272D01*
X62257535Y-61451884D01*
X62449778Y-61319258D01*
X62625814Y-61168723D01*
X62784775Y-61001607D01*
X62925794Y-60819239D01*
X63048002Y-60622947D01*
X63150533Y-60414060D01*
X63232520Y-60193907D01*
X63293094Y-59963815D01*
X63331388Y-59725115D01*
X63342962Y-59584851D01*
X63345526Y-59539507D01*
X63347920Y-59499896D01*
X63348950Y-59484257D01*
X63348885Y-59460364D01*
X63347147Y-59417104D01*
X63344021Y-59360183D01*
X63339792Y-59295305D01*
X63338769Y-59280914D01*
X63309097Y-59034058D01*
X63256947Y-58797185D01*
X63183209Y-58571321D01*
X63088772Y-58357491D01*
X62974528Y-58156722D01*
X62841366Y-57970038D01*
X62690176Y-57798466D01*
X62521849Y-57643030D01*
X62337274Y-57504757D01*
X62137342Y-57384672D01*
X61922942Y-57283801D01*
X61694965Y-57203169D01*
X61490396Y-57151147D01*
X61396023Y-57135222D01*
X61283696Y-57122662D01*
X61160418Y-57113747D01*
X61033195Y-57108756D01*
X60909030Y-57107969D01*
X60794927Y-57111665D01*
X60701572Y-57119664D01*
X60455427Y-57161821D01*
X60220657Y-57226150D01*
X59997915Y-57312254D01*
X59787853Y-57419734D01*
X59591126Y-57548192D01*
X59408387Y-57697231D01*
X59240288Y-57866451D01*
X59087483Y-58055455D01*
X59029246Y-58138812D01*
X58915361Y-58331130D01*
X58821185Y-58536868D01*
X58747041Y-58753426D01*
X58693255Y-58978205D01*
X58660149Y-59208604D01*
X58648048Y-59442023D01*
X57984648Y-59442023D01*
X57985352Y-59325143D01*
X57989561Y-59215976D01*
X57993539Y-59162719D01*
X58030082Y-58894538D01*
X58089392Y-58631342D01*
X58170554Y-58375379D01*
X58272654Y-58128897D01*
X58394776Y-57894145D01*
X58536007Y-57673370D01*
X58671108Y-57497524D01*
X58853650Y-57298399D01*
X59052612Y-57117957D01*
X59266754Y-56956979D01*
X59494838Y-56816245D01*
X59735623Y-56696532D01*
X59987869Y-56598620D01*
X60201549Y-56535364D01*
X60456313Y-56481602D01*
X60718125Y-56448398D01*
X60982526Y-56435843D01*
X61245057Y-56444030D01*
G36*
X61245057Y-56444030D02*
G01*
X61501257Y-56473050D01*
X61671311Y-56505113D01*
X61940062Y-56576908D01*
X62197173Y-56670324D01*
X62441710Y-56784731D01*
X62672735Y-56919499D01*
X62889311Y-57073998D01*
X63090501Y-57247597D01*
X63275370Y-57439668D01*
X63442980Y-57649580D01*
X63504804Y-57738134D01*
X63645671Y-57969936D01*
X63763787Y-58211925D01*
X63859355Y-58464626D01*
X63932574Y-58728566D01*
X63980834Y-58984893D01*
X63988743Y-59049334D01*
X63996003Y-59128923D01*
X64002373Y-59218322D01*
X64007614Y-59312193D01*
X64011484Y-59405196D01*
X64013745Y-59491993D01*
X64014155Y-59567245D01*
X64012474Y-59625614D01*
X64010670Y-59647722D01*
X64007233Y-59678934D01*
X64002019Y-59727447D01*
X63995854Y-59785549D01*
X63991837Y-59823762D01*
X63953789Y-60072235D01*
X63892397Y-60321053D01*
X63809154Y-60566628D01*
X63705555Y-60805371D01*
X63583096Y-61033696D01*
X63443269Y-61248015D01*
X63344941Y-61376683D01*
X63274354Y-61458737D01*
X63190585Y-61548605D01*
X63100408Y-61639491D01*
X63010595Y-61724593D01*
X62927921Y-61797115D01*
X62917575Y-61805654D01*
X62719178Y-61952453D01*
X62503255Y-62083364D01*
X62272735Y-62197128D01*
X62030547Y-62292489D01*
X61779620Y-62368187D01*
X61522882Y-62422964D01*
X61455817Y-62433583D01*
X61301782Y-62456222D01*
X61301782Y-64786921D01*
X61301813Y-65081443D01*
X61301908Y-65351726D01*
X61302075Y-65598680D01*
X61302318Y-65823214D01*
X61302645Y-66026238D01*
X61303061Y-66208661D01*
X61303573Y-66371394D01*
X61304186Y-66515345D01*
X61304907Y-66641424D01*
X61305742Y-66750541D01*
X61306697Y-66843606D01*
X61307778Y-66921527D01*
X61308992Y-66985215D01*
X61310343Y-67035579D01*
X61311840Y-67073529D01*
X61313486Y-67099974D01*
X61315290Y-67115824D01*
X61317256Y-67121989D01*
X61317500Y-67122120D01*
X61476421Y-67172827D01*
X61614878Y-67228895D01*
X61737391Y-67292807D01*
X61848478Y-67367043D01*
X61952660Y-67454085D01*
X61993825Y-67493453D01*
X62113268Y-67628728D01*
X62212215Y-67776164D01*
X62290661Y-67933467D01*
X62348604Y-68098342D01*
X62386040Y-68268494D01*
X62402966Y-68441628D01*
X62399379Y-68615450D01*
X62375275Y-68787664D01*
X62330650Y-68955977D01*
X62265503Y-69118093D01*
X62179829Y-69271717D01*
X62073625Y-69414555D01*
X61996705Y-69497447D01*
X61858261Y-69619461D01*
X61712292Y-69718275D01*
X61556607Y-69795267D01*
X61472636Y-69826614D01*
X61291073Y-69875202D01*
X61108158Y-69900427D01*
X61004344Y-69901845D01*
X60926057Y-69902915D01*
X60746936Y-69883295D01*
X60572961Y-69842196D01*
X60406296Y-69780244D01*
X60249108Y-69698068D01*
X60103563Y-69596295D01*
X59971826Y-69475555D01*
X59876353Y-69363789D01*
X59776549Y-69212718D01*
X59698111Y-69050818D01*
X59641103Y-68880623D01*
X59605588Y-68704671D01*
X59591630Y-68525498D01*
X59599292Y-68345638D01*
X59628637Y-68167628D01*
X59679728Y-67994004D01*
X59752631Y-67827302D01*
X59834461Y-67688960D01*
X59865287Y-67647436D01*
X59907642Y-67596063D01*
X59955030Y-67542527D01*
X59985791Y-67509865D01*
X60103370Y-67401129D01*
X60229455Y-67309704D01*
X60367868Y-67233459D01*
X60522432Y-67170266D01*
X60682500Y-67121741D01*
X60684486Y-67116714D01*
X60686308Y-67102112D01*
X60687973Y-67077026D01*
X60689486Y-67040547D01*
X60690854Y-66991764D01*
X60692084Y-66929769D01*
X60693180Y-66853652D01*
X60694150Y-66762504D01*
X60694998Y-66655415D01*
X60695733Y-66531476D01*
X60696359Y-66389778D01*
X60696882Y-66229412D01*
X60697310Y-66049467D01*
X60697647Y-65849035D01*
X60697900Y-65627206D01*
X60698076Y-65383070D01*
X60698179Y-65115719D01*
X60698218Y-64824243D01*
X60698218Y-62454251D01*
X60619629Y-62445623D01*
X60461944Y-62422577D01*
X60292647Y-62387672D01*
X60120886Y-62343245D01*
X59955810Y-62291629D01*
X59825507Y-62243000D01*
X59577705Y-62128703D01*
X59344560Y-61994454D01*
X59126879Y-61841293D01*
X58925468Y-61670261D01*
X58741134Y-61482397D01*
X58574686Y-61278741D01*
X58426930Y-61060335D01*
X58298674Y-60828217D01*
X58190724Y-60583427D01*
X58103888Y-60327007D01*
X58038973Y-60059995D01*
X58012635Y-59907164D01*
X58001374Y-59810876D01*
X57992824Y-59697047D01*
X57987175Y-59573160D01*
X57984620Y-59446698D01*
X57984648Y-59442023D01*
X58648048Y-59442023D01*
X58657274Y-59675863D01*
X58688153Y-59907522D01*
X58741007Y-60134402D01*
X58769337Y-60226138D01*
X58856375Y-60449560D01*
X58963986Y-60659402D01*
X59090996Y-60854717D01*
X59236231Y-61034554D01*
X59398517Y-61197966D01*
X59576681Y-61344004D01*
X59769549Y-61471719D01*
X59975947Y-61580164D01*
X60194701Y-61668388D01*
X60424637Y-61735444D01*
X60664582Y-61780383D01*
X60697888Y-61784730D01*
X60749574Y-61789468D01*
X60818586Y-61793451D01*
X60897106Y-61796343D01*
X60977316Y-61797808D01*
X61004344Y-61797920D01*
X61247590Y-61787239D01*
X61479902Y-61754801D01*
X61703923Y-61700020D01*
X61922297Y-61622306D01*
X62049951Y-61565272D01*
X62257535Y-61451884D01*
X62449778Y-61319258D01*
X62625814Y-61168723D01*
X62784775Y-61001607D01*
X62925794Y-60819239D01*
X63048002Y-60622947D01*
X63150533Y-60414060D01*
X63232520Y-60193907D01*
X63293094Y-59963815D01*
X63331388Y-59725115D01*
X63342962Y-59584851D01*
X63345526Y-59539507D01*
X63347920Y-59499896D01*
X63348950Y-59484257D01*
X63348885Y-59460364D01*
X63347147Y-59417104D01*
X63344021Y-59360183D01*
X63339792Y-59295305D01*
X63338769Y-59280914D01*
X63309097Y-59034058D01*
X63256947Y-58797185D01*
X63183209Y-58571321D01*
X63088772Y-58357491D01*
X62974528Y-58156722D01*
X62841366Y-57970038D01*
X62690176Y-57798466D01*
X62521849Y-57643030D01*
X62337274Y-57504757D01*
X62137342Y-57384672D01*
X61922942Y-57283801D01*
X61694965Y-57203169D01*
X61490396Y-57151147D01*
X61396023Y-57135222D01*
X61283696Y-57122662D01*
X61160418Y-57113747D01*
X61033195Y-57108756D01*
X60909030Y-57107969D01*
X60794927Y-57111665D01*
X60701572Y-57119664D01*
X60455427Y-57161821D01*
X60220657Y-57226150D01*
X59997915Y-57312254D01*
X59787853Y-57419734D01*
X59591126Y-57548192D01*
X59408387Y-57697231D01*
X59240288Y-57866451D01*
X59087483Y-58055455D01*
X59029246Y-58138812D01*
X58915361Y-58331130D01*
X58821185Y-58536868D01*
X58747041Y-58753426D01*
X58693255Y-58978205D01*
X58660149Y-59208604D01*
X58648048Y-59442023D01*
X57984648Y-59442023D01*
X57985352Y-59325143D01*
X57989561Y-59215976D01*
X57993539Y-59162719D01*
X58030082Y-58894538D01*
X58089392Y-58631342D01*
X58170554Y-58375379D01*
X58272654Y-58128897D01*
X58394776Y-57894145D01*
X58536007Y-57673370D01*
X58671108Y-57497524D01*
X58853650Y-57298399D01*
X59052612Y-57117957D01*
X59266754Y-56956979D01*
X59494838Y-56816245D01*
X59735623Y-56696532D01*
X59987869Y-56598620D01*
X60201549Y-56535364D01*
X60456313Y-56481602D01*
X60718125Y-56448398D01*
X60982526Y-56435843D01*
X61245057Y-56444030D01*
G37*
X59454424Y-66283476D02*
X59503954Y-66355192D01*
X59548325Y-66420515D01*
X59585598Y-66476502D01*
X59613833Y-66520210D01*
X59631092Y-66548696D01*
X59635693Y-66558598D01*
X59626301Y-66573099D01*
X59601697Y-66596877D01*
X59567800Y-66624325D01*
X59397816Y-66767206D01*
X59240579Y-66929754D01*
X59097958Y-67108964D01*
X58971818Y-67301829D01*
X58864029Y-67505345D01*
X58776457Y-67716504D01*
X58710970Y-67932302D01*
X58686844Y-68042297D01*
X58653363Y-68282963D01*
X58644217Y-68523002D01*
X58658889Y-68760705D01*
X58696861Y-68994363D01*
X58757618Y-69222270D01*
X58840642Y-69442717D01*
X58945416Y-69653994D01*
X59071424Y-69854395D01*
X59218148Y-70042211D01*
X59327568Y-70159937D01*
X59509624Y-70325706D01*
X59703671Y-70469395D01*
X59909802Y-70591049D01*
X60128108Y-70690714D01*
X60358680Y-70768438D01*
X60601610Y-70824266D01*
X60660499Y-70834213D01*
X60757379Y-70845559D01*
X60870783Y-70852486D01*
X60992636Y-70854991D01*
X61114862Y-70853070D01*
X61229384Y-70846722D01*
X61328126Y-70835943D01*
X61337789Y-70834469D01*
X61580493Y-70784095D01*
X61813307Y-70711559D01*
X62034956Y-70617667D01*
X62244164Y-70503224D01*
X62439658Y-70369035D01*
X62620161Y-70215905D01*
X62784399Y-70044638D01*
X62931096Y-69856041D01*
X62963926Y-69807722D01*
X63088025Y-69597975D01*
X63189266Y-69379554D01*
X63267417Y-69154151D01*
X63322247Y-68923460D01*
X63353523Y-68689171D01*
X63361015Y-68452977D01*
X63344490Y-68216569D01*
X63303717Y-67981639D01*
X63243581Y-67765197D01*
X63155388Y-67537461D01*
X63045446Y-67321548D01*
X62914717Y-67118845D01*
X62764161Y-66930737D01*
X62594741Y-66758611D01*
X62473836Y-66655061D01*
X62357029Y-66561660D01*
X62399058Y-66502884D01*
X62419575Y-66473874D01*
X62451308Y-66428610D01*
X62491166Y-66371521D01*
X62536058Y-66307035D01*
X62582754Y-66239777D01*
X62626501Y-66177220D01*
X62665552Y-66122405D01*
X62697618Y-66078459D01*
X62720410Y-66048513D01*
X62731640Y-66035697D01*
X62732202Y-66035445D01*
X62749257Y-66043476D01*
X62781416Y-66065679D01*
X62825259Y-66099218D01*
X62877364Y-66141256D01*
X62934311Y-66188957D01*
X62992677Y-66239486D01*
X63049043Y-66290005D01*
X63099988Y-66337680D01*
X63118319Y-66355552D01*
X63307021Y-66559398D01*
X63474233Y-66775877D01*
X63619550Y-67004024D01*
X63742570Y-67242874D01*
X63842889Y-67491461D01*
X63920101Y-67748819D01*
X63973804Y-68013984D01*
X64003594Y-68285989D01*
X64010009Y-68487425D01*
X64001123Y-68743699D01*
X63973925Y-68986153D01*
X63927366Y-69219254D01*
X63860401Y-69447468D01*
X63771983Y-69675259D01*
X63690949Y-69848534D01*
X63557788Y-70087073D01*
X63404378Y-70311248D01*
X63231867Y-70519904D01*
X63041403Y-70711883D01*
X62834133Y-70886027D01*
X62611206Y-71041180D01*
X62373868Y-71176135D01*
X62126949Y-71289227D01*
X61876394Y-71378205D01*
X61619067Y-71444096D01*
X61477107Y-71470293D01*
X61301682Y-71498492D01*
X61308070Y-74541930D01*
X61396089Y-74551432D01*
X61609191Y-74584346D01*
X61829042Y-74636827D01*
X62049657Y-74706756D01*
X62265049Y-74792014D01*
X62469234Y-74890482D01*
X62647228Y-74994240D01*
X62788520Y-75091951D01*
X62931369Y-75203809D01*
X63070155Y-75324788D01*
X63199258Y-75449861D01*
X63313056Y-75574001D01*
X63361737Y-75633232D01*
X63523770Y-75858571D01*
X63662626Y-76093664D01*
X63778289Y-76338465D01*
X63870744Y-76592929D01*
X63939973Y-76857010D01*
X63985961Y-77130664D01*
X64008692Y-77413844D01*
X64010449Y-77471732D01*
X64011815Y-77548547D01*
X64012465Y-77620133D01*
X64012398Y-77681259D01*
X64011615Y-77726699D01*
X64010459Y-77748366D01*
X63991313Y-77918838D01*
X63969320Y-78070515D01*
X63943227Y-78209697D01*
X63911783Y-78342687D01*
X63873736Y-78475787D01*
X63853095Y-78540544D01*
X63757922Y-78791003D01*
X63641341Y-79029277D01*
X63504491Y-79254320D01*
X63348512Y-79465087D01*
X63174541Y-79660533D01*
X62983718Y-79839612D01*
X62777183Y-80001277D01*
X62556073Y-80144485D01*
X62321529Y-80268188D01*
X62074689Y-80371342D01*
X61816692Y-80452901D01*
X61751783Y-80469501D01*
X61640579Y-80495396D01*
X61540777Y-80515476D01*
X61446295Y-80530408D01*
X61351052Y-80540860D01*
X61248966Y-80547499D01*
X61133958Y-80550993D01*
X61000000Y-80552008D01*
X60993713Y-80551961D01*
X60866165Y-80550991D01*
X60751286Y-80547509D01*
X60649237Y-80540919D01*
X60553894Y-80530579D01*
X60459131Y-80515845D01*
X60358820Y-80496075D01*
X60264406Y-80474779D01*
X60002510Y-80400651D01*
X59751871Y-80304584D01*
X59513511Y-80187615D01*
X59288452Y-80050777D01*
X59077719Y-79895105D01*
X58882333Y-79721632D01*
X58703316Y-79531395D01*
X58541693Y-79325425D01*
X58398484Y-79104760D01*
X58274713Y-78870432D01*
X58171403Y-78623476D01*
X58089576Y-78364926D01*
X58060030Y-78245049D01*
X58037696Y-78141728D01*
X58020410Y-78050281D01*
X58007575Y-77964751D01*
X57998593Y-77879180D01*
X57992868Y-77787608D01*
X57989800Y-77684078D01*
X57989289Y-77622385D01*
X58647919Y-77622385D01*
X58666685Y-77860736D01*
X58708252Y-78096074D01*
X58772634Y-78326095D01*
X58859848Y-78548494D01*
X58881188Y-78594271D01*
X58995248Y-78803883D01*
X59128051Y-78997469D01*
X59278348Y-79174261D01*
X59444892Y-79333495D01*
X59626436Y-79474402D01*
X59821731Y-79596216D01*
X60029530Y-79698171D01*
X60248587Y-79779501D01*
X60477652Y-79839438D01*
X60715479Y-79877216D01*
X60960821Y-79892070D01*
X60993713Y-79892277D01*
X61243496Y-79880589D01*
X61485570Y-79845747D01*
X61718899Y-79788088D01*
X61942444Y-79707945D01*
X62155171Y-79605653D01*
X62356040Y-79481549D01*
X62429281Y-79428562D01*
X62610349Y-79276416D01*
X62773641Y-79107296D01*
X62918261Y-78922872D01*
X63043313Y-78724812D01*
X63147901Y-78514783D01*
X63231129Y-78294455D01*
X63292102Y-78065495D01*
X63329924Y-77829571D01*
X63338223Y-77735792D01*
X63342248Y-77676993D01*
X63345769Y-77625609D01*
X63348348Y-77588000D01*
X63349427Y-77572326D01*
X63349184Y-77550981D01*
X63347311Y-77509949D01*
X63344099Y-77454617D01*
X63339841Y-77390374D01*
X63338524Y-77371841D01*
X63309016Y-77127380D01*
X63257086Y-76892608D01*
X63183783Y-76668570D01*
X63090152Y-76456314D01*
X62977241Y-76256886D01*
X62846096Y-76071332D01*
X62697765Y-75900700D01*
X62533294Y-75746035D01*
X62353730Y-75608384D01*
X62160120Y-75488794D01*
X61953511Y-75388311D01*
X61734949Y-75307981D01*
X61505482Y-75248851D01*
X61266157Y-75211969D01*
X61169753Y-75203799D01*
X60920720Y-75199129D01*
X60677934Y-75217617D01*
X60442640Y-75258571D01*
X60216084Y-75321300D01*
X59999512Y-75405113D01*
X59794169Y-75509318D01*
X59601300Y-75633224D01*
X59422152Y-75776140D01*
X59257969Y-75937374D01*
X59109996Y-76116236D01*
X58979481Y-76312033D01*
X58895549Y-76466054D01*
X58800547Y-76684917D01*
X58728267Y-76912286D01*
X58678726Y-77145855D01*
X58651938Y-77383323D01*
X58647919Y-77622385D01*
X57989289Y-77622385D01*
X57988794Y-77562632D01*
X57988788Y-77534604D01*
X57990009Y-77399914D01*
X57993863Y-77284027D01*
X58001015Y-77180673D01*
X58012124Y-77083585D01*
X58027852Y-76986493D01*
X58048862Y-76883129D01*
X58065019Y-76812345D01*
X58134558Y-76566823D01*
X58225906Y-76325035D01*
X58336974Y-76091406D01*
X58465669Y-75870362D01*
X58600851Y-75678007D01*
X58675786Y-75586506D01*
X58764086Y-75488030D01*
X58859408Y-75389098D01*
X58955405Y-75296233D01*
X59045730Y-75215956D01*
X59069852Y-75196047D01*
X59275264Y-75044923D01*
X59495871Y-74910609D01*
X59728154Y-74794631D01*
X59968592Y-74698516D01*
X60213665Y-74623789D01*
X60459854Y-74571976D01*
X60534753Y-74560949D01*
X60587446Y-74553751D01*
X60633363Y-74547050D01*
X60664603Y-74542012D01*
X60669926Y-74541000D01*
X60698218Y-74535164D01*
X60698218Y-71492673D01*
X60668411Y-71492673D01*
X60635940Y-71490028D01*
X60584545Y-71482783D01*
X60519813Y-71471976D01*
X60447329Y-71458641D01*
X60372678Y-71443815D01*
X60301447Y-71428534D01*
X60239221Y-71413835D01*
X60228171Y-71411010D01*
X59979725Y-71333687D01*
X59737303Y-71233013D01*
X59503058Y-71110485D01*
X59279139Y-70967601D01*
X59067697Y-70805857D01*
X58870883Y-70626752D01*
X58690848Y-70431781D01*
X58538247Y-70234549D01*
X58392562Y-70007065D01*
X58268752Y-69768951D01*
X58167062Y-69521970D01*
X58087732Y-69267883D01*
X58031006Y-69008455D01*
X57997125Y-68745447D01*
X57986333Y-68480622D01*
X57998872Y-68215744D01*
X58034983Y-67952575D01*
X58094910Y-67692878D01*
X58160535Y-67487772D01*
X58266325Y-67231853D01*
X58394094Y-66987580D01*
X58542939Y-66756162D01*
X58711958Y-66538811D01*
X58900249Y-66336734D01*
X59106909Y-66151142D01*
X59228088Y-66056522D01*
X59273156Y-66023068D01*
X59454424Y-66283476D01*
G36*
X59454424Y-66283476D02*
G01*
X59503954Y-66355192D01*
X59548325Y-66420515D01*
X59585598Y-66476502D01*
X59613833Y-66520210D01*
X59631092Y-66548696D01*
X59635693Y-66558598D01*
X59626301Y-66573099D01*
X59601697Y-66596877D01*
X59567800Y-66624325D01*
X59397816Y-66767206D01*
X59240579Y-66929754D01*
X59097958Y-67108964D01*
X58971818Y-67301829D01*
X58864029Y-67505345D01*
X58776457Y-67716504D01*
X58710970Y-67932302D01*
X58686844Y-68042297D01*
X58653363Y-68282963D01*
X58644217Y-68523002D01*
X58658889Y-68760705D01*
X58696861Y-68994363D01*
X58757618Y-69222270D01*
X58840642Y-69442717D01*
X58945416Y-69653994D01*
X59071424Y-69854395D01*
X59218148Y-70042211D01*
X59327568Y-70159937D01*
X59509624Y-70325706D01*
X59703671Y-70469395D01*
X59909802Y-70591049D01*
X60128108Y-70690714D01*
X60358680Y-70768438D01*
X60601610Y-70824266D01*
X60660499Y-70834213D01*
X60757379Y-70845559D01*
X60870783Y-70852486D01*
X60992636Y-70854991D01*
X61114862Y-70853070D01*
X61229384Y-70846722D01*
X61328126Y-70835943D01*
X61337789Y-70834469D01*
X61580493Y-70784095D01*
X61813307Y-70711559D01*
X62034956Y-70617667D01*
X62244164Y-70503224D01*
X62439658Y-70369035D01*
X62620161Y-70215905D01*
X62784399Y-70044638D01*
X62931096Y-69856041D01*
X62963926Y-69807722D01*
X63088025Y-69597975D01*
X63189266Y-69379554D01*
X63267417Y-69154151D01*
X63322247Y-68923460D01*
X63353523Y-68689171D01*
X63361015Y-68452977D01*
X63344490Y-68216569D01*
X63303717Y-67981639D01*
X63243581Y-67765197D01*
X63155388Y-67537461D01*
X63045446Y-67321548D01*
X62914717Y-67118845D01*
X62764161Y-66930737D01*
X62594741Y-66758611D01*
X62473836Y-66655061D01*
X62357029Y-66561660D01*
X62399058Y-66502884D01*
X62419575Y-66473874D01*
X62451308Y-66428610D01*
X62491166Y-66371521D01*
X62536058Y-66307035D01*
X62582754Y-66239777D01*
X62626501Y-66177220D01*
X62665552Y-66122405D01*
X62697618Y-66078459D01*
X62720410Y-66048513D01*
X62731640Y-66035697D01*
X62732202Y-66035445D01*
X62749257Y-66043476D01*
X62781416Y-66065679D01*
X62825259Y-66099218D01*
X62877364Y-66141256D01*
X62934311Y-66188957D01*
X62992677Y-66239486D01*
X63049043Y-66290005D01*
X63099988Y-66337680D01*
X63118319Y-66355552D01*
X63307021Y-66559398D01*
X63474233Y-66775877D01*
X63619550Y-67004024D01*
X63742570Y-67242874D01*
X63842889Y-67491461D01*
X63920101Y-67748819D01*
X63973804Y-68013984D01*
X64003594Y-68285989D01*
X64010009Y-68487425D01*
X64001123Y-68743699D01*
X63973925Y-68986153D01*
X63927366Y-69219254D01*
X63860401Y-69447468D01*
X63771983Y-69675259D01*
X63690949Y-69848534D01*
X63557788Y-70087073D01*
X63404378Y-70311248D01*
X63231867Y-70519904D01*
X63041403Y-70711883D01*
X62834133Y-70886027D01*
X62611206Y-71041180D01*
X62373868Y-71176135D01*
X62126949Y-71289227D01*
X61876394Y-71378205D01*
X61619067Y-71444096D01*
X61477107Y-71470293D01*
X61301682Y-71498492D01*
X61308070Y-74541930D01*
X61396089Y-74551432D01*
X61609191Y-74584346D01*
X61829042Y-74636827D01*
X62049657Y-74706756D01*
X62265049Y-74792014D01*
X62469234Y-74890482D01*
X62647228Y-74994240D01*
X62788520Y-75091951D01*
X62931369Y-75203809D01*
X63070155Y-75324788D01*
X63199258Y-75449861D01*
X63313056Y-75574001D01*
X63361737Y-75633232D01*
X63523770Y-75858571D01*
X63662626Y-76093664D01*
X63778289Y-76338465D01*
X63870744Y-76592929D01*
X63939973Y-76857010D01*
X63985961Y-77130664D01*
X64008692Y-77413844D01*
X64010449Y-77471732D01*
X64011815Y-77548547D01*
X64012465Y-77620133D01*
X64012398Y-77681259D01*
X64011615Y-77726699D01*
X64010459Y-77748366D01*
X63991313Y-77918838D01*
X63969320Y-78070515D01*
X63943227Y-78209697D01*
X63911783Y-78342687D01*
X63873736Y-78475787D01*
X63853095Y-78540544D01*
X63757922Y-78791003D01*
X63641341Y-79029277D01*
X63504491Y-79254320D01*
X63348512Y-79465087D01*
X63174541Y-79660533D01*
X62983718Y-79839612D01*
X62777183Y-80001277D01*
X62556073Y-80144485D01*
X62321529Y-80268188D01*
X62074689Y-80371342D01*
X61816692Y-80452901D01*
X61751783Y-80469501D01*
X61640579Y-80495396D01*
X61540777Y-80515476D01*
X61446295Y-80530408D01*
X61351052Y-80540860D01*
X61248966Y-80547499D01*
X61133958Y-80550993D01*
X61000000Y-80552008D01*
X60993713Y-80551961D01*
X60866165Y-80550991D01*
X60751286Y-80547509D01*
X60649237Y-80540919D01*
X60553894Y-80530579D01*
X60459131Y-80515845D01*
X60358820Y-80496075D01*
X60264406Y-80474779D01*
X60002510Y-80400651D01*
X59751871Y-80304584D01*
X59513511Y-80187615D01*
X59288452Y-80050777D01*
X59077719Y-79895105D01*
X58882333Y-79721632D01*
X58703316Y-79531395D01*
X58541693Y-79325425D01*
X58398484Y-79104760D01*
X58274713Y-78870432D01*
X58171403Y-78623476D01*
X58089576Y-78364926D01*
X58060030Y-78245049D01*
X58037696Y-78141728D01*
X58020410Y-78050281D01*
X58007575Y-77964751D01*
X57998593Y-77879180D01*
X57992868Y-77787608D01*
X57989800Y-77684078D01*
X57989289Y-77622385D01*
X58647919Y-77622385D01*
X58666685Y-77860736D01*
X58708252Y-78096074D01*
X58772634Y-78326095D01*
X58859848Y-78548494D01*
X58881188Y-78594271D01*
X58995248Y-78803883D01*
X59128051Y-78997469D01*
X59278348Y-79174261D01*
X59444892Y-79333495D01*
X59626436Y-79474402D01*
X59821731Y-79596216D01*
X60029530Y-79698171D01*
X60248587Y-79779501D01*
X60477652Y-79839438D01*
X60715479Y-79877216D01*
X60960821Y-79892070D01*
X60993713Y-79892277D01*
X61243496Y-79880589D01*
X61485570Y-79845747D01*
X61718899Y-79788088D01*
X61942444Y-79707945D01*
X62155171Y-79605653D01*
X62356040Y-79481549D01*
X62429281Y-79428562D01*
X62610349Y-79276416D01*
X62773641Y-79107296D01*
X62918261Y-78922872D01*
X63043313Y-78724812D01*
X63147901Y-78514783D01*
X63231129Y-78294455D01*
X63292102Y-78065495D01*
X63329924Y-77829571D01*
X63338223Y-77735792D01*
X63342248Y-77676993D01*
X63345769Y-77625609D01*
X63348348Y-77588000D01*
X63349427Y-77572326D01*
X63349184Y-77550981D01*
X63347311Y-77509949D01*
X63344099Y-77454617D01*
X63339841Y-77390374D01*
X63338524Y-77371841D01*
X63309016Y-77127380D01*
X63257086Y-76892608D01*
X63183783Y-76668570D01*
X63090152Y-76456314D01*
X62977241Y-76256886D01*
X62846096Y-76071332D01*
X62697765Y-75900700D01*
X62533294Y-75746035D01*
X62353730Y-75608384D01*
X62160120Y-75488794D01*
X61953511Y-75388311D01*
X61734949Y-75307981D01*
X61505482Y-75248851D01*
X61266157Y-75211969D01*
X61169753Y-75203799D01*
X60920720Y-75199129D01*
X60677934Y-75217617D01*
X60442640Y-75258571D01*
X60216084Y-75321300D01*
X59999512Y-75405113D01*
X59794169Y-75509318D01*
X59601300Y-75633224D01*
X59422152Y-75776140D01*
X59257969Y-75937374D01*
X59109996Y-76116236D01*
X58979481Y-76312033D01*
X58895549Y-76466054D01*
X58800547Y-76684917D01*
X58728267Y-76912286D01*
X58678726Y-77145855D01*
X58651938Y-77383323D01*
X58647919Y-77622385D01*
X57989289Y-77622385D01*
X57988794Y-77562632D01*
X57988788Y-77534604D01*
X57990009Y-77399914D01*
X57993863Y-77284027D01*
X58001015Y-77180673D01*
X58012124Y-77083585D01*
X58027852Y-76986493D01*
X58048862Y-76883129D01*
X58065019Y-76812345D01*
X58134558Y-76566823D01*
X58225906Y-76325035D01*
X58336974Y-76091406D01*
X58465669Y-75870362D01*
X58600851Y-75678007D01*
X58675786Y-75586506D01*
X58764086Y-75488030D01*
X58859408Y-75389098D01*
X58955405Y-75296233D01*
X59045730Y-75215956D01*
X59069852Y-75196047D01*
X59275264Y-75044923D01*
X59495871Y-74910609D01*
X59728154Y-74794631D01*
X59968592Y-74698516D01*
X60213665Y-74623789D01*
X60459854Y-74571976D01*
X60534753Y-74560949D01*
X60587446Y-74553751D01*
X60633363Y-74547050D01*
X60664603Y-74542012D01*
X60669926Y-74541000D01*
X60698218Y-74535164D01*
X60698218Y-71492673D01*
X60668411Y-71492673D01*
X60635940Y-71490028D01*
X60584545Y-71482783D01*
X60519813Y-71471976D01*
X60447329Y-71458641D01*
X60372678Y-71443815D01*
X60301447Y-71428534D01*
X60239221Y-71413835D01*
X60228171Y-71411010D01*
X59979725Y-71333687D01*
X59737303Y-71233013D01*
X59503058Y-71110485D01*
X59279139Y-70967601D01*
X59067697Y-70805857D01*
X58870883Y-70626752D01*
X58690848Y-70431781D01*
X58538247Y-70234549D01*
X58392562Y-70007065D01*
X58268752Y-69768951D01*
X58167062Y-69521970D01*
X58087732Y-69267883D01*
X58031006Y-69008455D01*
X57997125Y-68745447D01*
X57986333Y-68480622D01*
X57998872Y-68215744D01*
X58034983Y-67952575D01*
X58094910Y-67692878D01*
X58160535Y-67487772D01*
X58266325Y-67231853D01*
X58394094Y-66987580D01*
X58542939Y-66756162D01*
X58711958Y-66538811D01*
X58900249Y-66336734D01*
X59106909Y-66151142D01*
X59228088Y-66056522D01*
X59273156Y-66023068D01*
X59454424Y-66283476D01*
G37*
D15*
X83070000Y-51730000D02*
X84400000Y-51730000D01*
X83070000Y-53060000D02*
X83070000Y-51730000D01*
X83070000Y-54330000D02*
X83070000Y-56930000D01*
X83070000Y-54330000D02*
X85730000Y-54330000D01*
X83070000Y-56930000D02*
X85730000Y-56930000D01*
X85730000Y-54330000D02*
X85730000Y-56930000D01*
X118979000Y-54330000D02*
X118979000Y-59670000D01*
X119645000Y-54330000D02*
X118979000Y-54330000D01*
X119645000Y-59670000D02*
X118979000Y-59670000D01*
X122421000Y-54330000D02*
X121755000Y-54330000D01*
X122421000Y-54330000D02*
X122421000Y-59670000D01*
X122421000Y-59670000D02*
X121755000Y-59670000D01*
D11*
X124250000Y-81550000D02*
X134250000Y-81550000D01*
X124250000Y-87250000D02*
X124250000Y-81550000D01*
X131750000Y-87250000D02*
X124250000Y-87250000D01*
X134250000Y-81550000D02*
X134250000Y-84250000D01*
D15*
X107279000Y-58030000D02*
X107279000Y-63370000D01*
X107945000Y-58030000D02*
X107279000Y-58030000D01*
X107945000Y-63370000D02*
X107279000Y-63370000D01*
X110721000Y-58030000D02*
X110055000Y-58030000D01*
X110721000Y-58030000D02*
X110721000Y-63370000D01*
X110721000Y-63370000D02*
X110055000Y-63370000D01*
X87359000Y-77020000D02*
X87359000Y-82360000D01*
X88025000Y-77020000D02*
X87359000Y-77020000D01*
X88025000Y-82360000D02*
X87359000Y-82360000D01*
X90801000Y-77020000D02*
X90135000Y-77020000D01*
X90801000Y-77020000D02*
X90801000Y-82360000D01*
X90801000Y-82360000D02*
X90135000Y-82360000D01*
D11*
X78000000Y-68150000D02*
X78000000Y-73000000D01*
X95000000Y-68150000D02*
X78000000Y-68150000D01*
X95000000Y-73850000D02*
X95000000Y-68150000D01*
X125495000Y-64790000D02*
X135025000Y-64790000D01*
X125495000Y-69620000D02*
X125495000Y-64790000D01*
D10*
X132860000Y-63900000D02*
X132860000Y-63900000D01*
X132860000Y-64000000D02*
X132860000Y-64000000D01*
D11*
X135025000Y-64790000D02*
X135025000Y-69620000D01*
X135025000Y-69620000D02*
X125495000Y-69620000D01*
D10*
X132860000Y-63900000D02*
G75*
G02*
X132860000Y-64000000I0J-50000D01*
G01*
X132860000Y-64000000D02*
G75*
G02*
X132860000Y-63900000I0J50000D01*
G01*
D15*
X113760000Y-56090000D02*
X112231000Y-56090000D01*
X113760000Y-56130000D02*
X112235000Y-56130000D01*
X113760000Y-56170000D02*
X112239000Y-56170000D01*
X113760000Y-56210000D02*
X112244000Y-56210000D01*
X113760000Y-56250000D02*
X112250000Y-56250000D01*
X113760000Y-56290000D02*
X112257000Y-56290000D01*
X113760000Y-56330000D02*
X112264000Y-56330000D01*
X113760000Y-56370000D02*
X112272000Y-56370000D01*
X113760000Y-56410000D02*
X112280000Y-56410000D01*
X113760000Y-56450000D02*
X112289000Y-56450000D01*
X113760000Y-56490000D02*
X112299000Y-56490000D01*
X113760000Y-56530000D02*
X112309000Y-56530000D01*
X113760000Y-56571000D02*
X112320000Y-56571000D01*
X113760000Y-56611000D02*
X112332000Y-56611000D01*
X113760000Y-56651000D02*
X112345000Y-56651000D01*
X113760000Y-56691000D02*
X112358000Y-56691000D01*
X113760000Y-56731000D02*
X112372000Y-56731000D01*
X113760000Y-56771000D02*
X112386000Y-56771000D01*
X113760000Y-56811000D02*
X112402000Y-56811000D01*
X113760000Y-56851000D02*
X112418000Y-56851000D01*
X113760000Y-56891000D02*
X112435000Y-56891000D01*
X113760000Y-56931000D02*
X112452000Y-56931000D01*
X113760000Y-56971000D02*
X112471000Y-56971000D01*
X113760000Y-57011000D02*
X112490000Y-57011000D01*
X113760000Y-57051000D02*
X112510000Y-57051000D01*
X113760000Y-57091000D02*
X112532000Y-57091000D01*
X113760000Y-57131000D02*
X112553000Y-57131000D01*
X113760000Y-57171000D02*
X112576000Y-57171000D01*
X113760000Y-57211000D02*
X112600000Y-57211000D01*
X113760000Y-57251000D02*
X112625000Y-57251000D01*
X113760000Y-57291000D02*
X112651000Y-57291000D01*
X113760000Y-57331000D02*
X112678000Y-57331000D01*
X113760000Y-57371000D02*
X112705000Y-57371000D01*
X113760000Y-57411000D02*
X112735000Y-57411000D01*
X113760000Y-57451000D02*
X112765000Y-57451000D01*
X113760000Y-57491000D02*
X112796000Y-57491000D01*
X113760000Y-57531000D02*
X112829000Y-57531000D01*
X113760000Y-57571000D02*
X112863000Y-57571000D01*
X113760000Y-57611000D02*
X112899000Y-57611000D01*
X113760000Y-57651000D02*
X112936000Y-57651000D01*
X113760000Y-57691000D02*
X112974000Y-57691000D01*
X113760000Y-57731000D02*
X113015000Y-57731000D01*
X113760000Y-57771000D02*
X113057000Y-57771000D01*
X113760000Y-57811000D02*
X113101000Y-57811000D01*
X113760000Y-57851000D02*
X113147000Y-57851000D01*
X113760000Y-57891000D02*
X113195000Y-57891000D01*
X113760000Y-57931000D02*
X113246000Y-57931000D01*
X113760000Y-57971000D02*
X113300000Y-57971000D01*
X113760000Y-58011000D02*
X113357000Y-58011000D01*
X113760000Y-58051000D02*
X113417000Y-58051000D01*
X113760000Y-58091000D02*
X113481000Y-58091000D01*
X113760000Y-58131000D02*
X113549000Y-58131000D01*
X115084000Y-58451000D02*
X114516000Y-58451000D01*
X115318000Y-58411000D02*
X114282000Y-58411000D01*
X115477000Y-58371000D02*
X114123000Y-58371000D01*
X115605000Y-58331000D02*
X113995000Y-58331000D01*
X115715000Y-58291000D02*
X113885000Y-58291000D01*
X115811000Y-58251000D02*
X113789000Y-58251000D01*
X115898000Y-58211000D02*
X113702000Y-58211000D01*
X115978000Y-58171000D02*
X113622000Y-58171000D01*
X116051000Y-58131000D02*
X115840000Y-58131000D01*
X116119000Y-58091000D02*
X115840000Y-58091000D01*
X116183000Y-58051000D02*
X115840000Y-58051000D01*
X116243000Y-58011000D02*
X115840000Y-58011000D01*
X116275000Y-53045225D02*
X116275000Y-53545225D01*
X116300000Y-57971000D02*
X115840000Y-57971000D01*
X116354000Y-57931000D02*
X115840000Y-57931000D01*
X116405000Y-57891000D02*
X115840000Y-57891000D01*
X116453000Y-57851000D02*
X115840000Y-57851000D01*
X116499000Y-57811000D02*
X115840000Y-57811000D01*
X116525000Y-53295225D02*
X116025000Y-53295225D01*
X116543000Y-57771000D02*
X115840000Y-57771000D01*
X116585000Y-57731000D02*
X115840000Y-57731000D01*
X116626000Y-57691000D02*
X115840000Y-57691000D01*
X116664000Y-57651000D02*
X115840000Y-57651000D01*
X116701000Y-57611000D02*
X115840000Y-57611000D01*
X116737000Y-57571000D02*
X115840000Y-57571000D01*
X116771000Y-57531000D02*
X115840000Y-57531000D01*
X116804000Y-57491000D02*
X115840000Y-57491000D01*
X116835000Y-57451000D02*
X115840000Y-57451000D01*
X116865000Y-57411000D02*
X115840000Y-57411000D01*
X116895000Y-57371000D02*
X115840000Y-57371000D01*
X116922000Y-57331000D02*
X115840000Y-57331000D01*
X116949000Y-57291000D02*
X115840000Y-57291000D01*
X116975000Y-57251000D02*
X115840000Y-57251000D01*
X117000000Y-57211000D02*
X115840000Y-57211000D01*
X117024000Y-57171000D02*
X115840000Y-57171000D01*
X117047000Y-57131000D02*
X115840000Y-57131000D01*
X117068000Y-57091000D02*
X115840000Y-57091000D01*
X117090000Y-57051000D02*
X115840000Y-57051000D01*
X117110000Y-57011000D02*
X115840000Y-57011000D01*
X117129000Y-56971000D02*
X115840000Y-56971000D01*
X117148000Y-56931000D02*
X115840000Y-56931000D01*
X117165000Y-56891000D02*
X115840000Y-56891000D01*
X117182000Y-56851000D02*
X115840000Y-56851000D01*
X117198000Y-56811000D02*
X115840000Y-56811000D01*
X117214000Y-56771000D02*
X115840000Y-56771000D01*
X117228000Y-56731000D02*
X115840000Y-56731000D01*
X117242000Y-56691000D02*
X115840000Y-56691000D01*
X117255000Y-56651000D02*
X115840000Y-56651000D01*
X117268000Y-56611000D02*
X115840000Y-56611000D01*
X117280000Y-56571000D02*
X115840000Y-56571000D01*
X117291000Y-56530000D02*
X115840000Y-56530000D01*
X117301000Y-56490000D02*
X115840000Y-56490000D01*
X117311000Y-56450000D02*
X115840000Y-56450000D01*
X117320000Y-56410000D02*
X115840000Y-56410000D01*
X117328000Y-56370000D02*
X115840000Y-56370000D01*
X117336000Y-56330000D02*
X115840000Y-56330000D01*
X117343000Y-56290000D02*
X115840000Y-56290000D01*
X117350000Y-56250000D02*
X115840000Y-56250000D01*
X117356000Y-56210000D02*
X115840000Y-56210000D01*
X117361000Y-56170000D02*
X115840000Y-56170000D01*
X117365000Y-56130000D02*
X115840000Y-56130000D01*
X117369000Y-56090000D02*
X115840000Y-56090000D01*
X117373000Y-56050000D02*
X112227000Y-56050000D01*
X117376000Y-56010000D02*
X112224000Y-56010000D01*
X117378000Y-55970000D02*
X112222000Y-55970000D01*
X117379000Y-55930000D02*
X112221000Y-55930000D01*
X117380000Y-55850000D02*
X112220000Y-55850000D01*
X117380000Y-55890000D02*
X112220000Y-55890000D01*
X117420000Y-55850000D02*
G75*
G02*
X112180000Y-55850000I-2620000J0D01*
G01*
X112180000Y-55850000D02*
G75*
G02*
X117420000Y-55850000I2620000J0D01*
G01*
X63150000Y-41450000D02*
X72350000Y-41450000D01*
X63150000Y-50250000D02*
X63150000Y-41450000D01*
X63150000Y-56150000D02*
X63150000Y-54250000D01*
X65850000Y-56150000D02*
X63150000Y-56150000D01*
X71500000Y-56350000D02*
X72550000Y-56350000D01*
X72350000Y-41450000D02*
X72350000Y-56150000D01*
X72350000Y-56150000D02*
X69750000Y-56150000D01*
X72550000Y-55300000D02*
X72550000Y-56350000D01*
X99779000Y-57930000D02*
X99779000Y-63270000D01*
X100445000Y-57930000D02*
X99779000Y-57930000D01*
X100445000Y-63270000D02*
X99779000Y-63270000D01*
X103221000Y-57930000D02*
X102555000Y-57930000D01*
X103221000Y-57930000D02*
X103221000Y-63270000D01*
X103221000Y-63270000D02*
X102555000Y-63270000D01*
X137349000Y-72484000D02*
X137349000Y-71916000D01*
X137389000Y-72718000D02*
X137389000Y-71682000D01*
X137429000Y-72877000D02*
X137429000Y-71523000D01*
X137469000Y-73005000D02*
X137469000Y-71395000D01*
X137509000Y-73115000D02*
X137509000Y-71285000D01*
X137549000Y-73211000D02*
X137549000Y-71189000D01*
X137589000Y-73298000D02*
X137589000Y-71102000D01*
X137629000Y-73378000D02*
X137629000Y-71022000D01*
X137669000Y-71160000D02*
X137669000Y-70949000D01*
X137669000Y-73451000D02*
X137669000Y-73240000D01*
X137709000Y-71160000D02*
X137709000Y-70881000D01*
X137709000Y-73519000D02*
X137709000Y-73240000D01*
X137749000Y-71160000D02*
X137749000Y-70817000D01*
X137749000Y-73583000D02*
X137749000Y-73240000D01*
X137789000Y-71160000D02*
X137789000Y-70757000D01*
X137789000Y-73643000D02*
X137789000Y-73240000D01*
X137829000Y-71160000D02*
X137829000Y-70700000D01*
X137829000Y-73700000D02*
X137829000Y-73240000D01*
X137869000Y-71160000D02*
X137869000Y-70646000D01*
X137869000Y-73754000D02*
X137869000Y-73240000D01*
X137909000Y-71160000D02*
X137909000Y-70595000D01*
X137909000Y-73805000D02*
X137909000Y-73240000D01*
X137949000Y-71160000D02*
X137949000Y-70547000D01*
X137949000Y-73853000D02*
X137949000Y-73240000D01*
X137989000Y-71160000D02*
X137989000Y-70501000D01*
X137989000Y-73899000D02*
X137989000Y-73240000D01*
X138029000Y-71160000D02*
X138029000Y-70457000D01*
X138029000Y-73943000D02*
X138029000Y-73240000D01*
X138069000Y-71160000D02*
X138069000Y-70415000D01*
X138069000Y-73985000D02*
X138069000Y-73240000D01*
X138109000Y-71160000D02*
X138109000Y-70374000D01*
X138109000Y-74026000D02*
X138109000Y-73240000D01*
X138149000Y-71160000D02*
X138149000Y-70336000D01*
X138149000Y-74064000D02*
X138149000Y-73240000D01*
X138189000Y-71160000D02*
X138189000Y-70299000D01*
X138189000Y-74101000D02*
X138189000Y-73240000D01*
X138229000Y-71160000D02*
X138229000Y-70263000D01*
X138229000Y-74137000D02*
X138229000Y-73240000D01*
X138269000Y-71160000D02*
X138269000Y-70229000D01*
X138269000Y-74171000D02*
X138269000Y-73240000D01*
X138309000Y-71160000D02*
X138309000Y-70196000D01*
X138309000Y-74204000D02*
X138309000Y-73240000D01*
X138349000Y-71160000D02*
X138349000Y-70165000D01*
X138349000Y-74235000D02*
X138349000Y-73240000D01*
X138389000Y-71160000D02*
X138389000Y-70135000D01*
X138389000Y-74265000D02*
X138389000Y-73240000D01*
X138429000Y-71160000D02*
X138429000Y-70105000D01*
X138429000Y-74295000D02*
X138429000Y-73240000D01*
X138469000Y-71160000D02*
X138469000Y-70078000D01*
X138469000Y-74322000D02*
X138469000Y-73240000D01*
X138509000Y-71160000D02*
X138509000Y-70051000D01*
X138509000Y-74349000D02*
X138509000Y-73240000D01*
X138549000Y-71160000D02*
X138549000Y-70025000D01*
X138549000Y-74375000D02*
X138549000Y-73240000D01*
X138589000Y-71160000D02*
X138589000Y-70000000D01*
X138589000Y-74400000D02*
X138589000Y-73240000D01*
X138629000Y-71160000D02*
X138629000Y-69976000D01*
X138629000Y-74424000D02*
X138629000Y-73240000D01*
X138669000Y-71160000D02*
X138669000Y-69953000D01*
X138669000Y-74447000D02*
X138669000Y-73240000D01*
X138709000Y-71160000D02*
X138709000Y-69932000D01*
X138709000Y-74468000D02*
X138709000Y-73240000D01*
X138749000Y-71160000D02*
X138749000Y-69910000D01*
X138749000Y-74490000D02*
X138749000Y-73240000D01*
X138789000Y-71160000D02*
X138789000Y-69890000D01*
X138789000Y-74510000D02*
X138789000Y-73240000D01*
X138829000Y-71160000D02*
X138829000Y-69871000D01*
X138829000Y-74529000D02*
X138829000Y-73240000D01*
X138869000Y-71160000D02*
X138869000Y-69852000D01*
X138869000Y-74548000D02*
X138869000Y-73240000D01*
X138909000Y-71160000D02*
X138909000Y-69835000D01*
X138909000Y-74565000D02*
X138909000Y-73240000D01*
X138949000Y-71160000D02*
X138949000Y-69818000D01*
X138949000Y-74582000D02*
X138949000Y-73240000D01*
X138989000Y-71160000D02*
X138989000Y-69802000D01*
X138989000Y-74598000D02*
X138989000Y-73240000D01*
X139029000Y-71160000D02*
X139029000Y-69786000D01*
X139029000Y-74614000D02*
X139029000Y-73240000D01*
X139069000Y-71160000D02*
X139069000Y-69772000D01*
X139069000Y-74628000D02*
X139069000Y-73240000D01*
X139109000Y-71160000D02*
X139109000Y-69758000D01*
X139109000Y-74642000D02*
X139109000Y-73240000D01*
X139149000Y-71160000D02*
X139149000Y-69745000D01*
X139149000Y-74655000D02*
X139149000Y-73240000D01*
X139189000Y-71160000D02*
X139189000Y-69732000D01*
X139189000Y-74668000D02*
X139189000Y-73240000D01*
X139229000Y-71160000D02*
X139229000Y-69720000D01*
X139229000Y-74680000D02*
X139229000Y-73240000D01*
X139270000Y-71160000D02*
X139270000Y-69709000D01*
X139270000Y-74691000D02*
X139270000Y-73240000D01*
X139310000Y-71160000D02*
X139310000Y-69699000D01*
X139310000Y-74701000D02*
X139310000Y-73240000D01*
X139350000Y-71160000D02*
X139350000Y-69689000D01*
X139350000Y-74711000D02*
X139350000Y-73240000D01*
X139390000Y-71160000D02*
X139390000Y-69680000D01*
X139390000Y-74720000D02*
X139390000Y-73240000D01*
X139430000Y-71160000D02*
X139430000Y-69672000D01*
X139430000Y-74728000D02*
X139430000Y-73240000D01*
X139470000Y-71160000D02*
X139470000Y-69664000D01*
X139470000Y-74736000D02*
X139470000Y-73240000D01*
X139510000Y-71160000D02*
X139510000Y-69657000D01*
X139510000Y-74743000D02*
X139510000Y-73240000D01*
X139550000Y-71160000D02*
X139550000Y-69650000D01*
X139550000Y-74750000D02*
X139550000Y-73240000D01*
X139590000Y-71160000D02*
X139590000Y-69644000D01*
X139590000Y-74756000D02*
X139590000Y-73240000D01*
X139630000Y-71160000D02*
X139630000Y-69639000D01*
X139630000Y-74761000D02*
X139630000Y-73240000D01*
X139670000Y-71160000D02*
X139670000Y-69635000D01*
X139670000Y-74765000D02*
X139670000Y-73240000D01*
X139710000Y-71160000D02*
X139710000Y-69631000D01*
X139710000Y-74769000D02*
X139710000Y-73240000D01*
X139750000Y-74773000D02*
X139750000Y-69627000D01*
X139790000Y-74776000D02*
X139790000Y-69624000D01*
X139830000Y-74778000D02*
X139830000Y-69622000D01*
X139870000Y-74779000D02*
X139870000Y-69621000D01*
X139910000Y-74780000D02*
X139910000Y-69620000D01*
X139950000Y-74780000D02*
X139950000Y-69620000D01*
X142504775Y-73925000D02*
X142504775Y-73425000D01*
X142754775Y-73675000D02*
X142254775Y-73675000D01*
X142570000Y-72200000D02*
G75*
G02*
X137330000Y-72200000I-2620000J0D01*
G01*
X137330000Y-72200000D02*
G75*
G02*
X142570000Y-72200000I2620000J0D01*
G01*
X81109000Y-77020000D02*
X81109000Y-82360000D01*
X81775000Y-77020000D02*
X81109000Y-77020000D01*
X81775000Y-82360000D02*
X81109000Y-82360000D01*
X84551000Y-77020000D02*
X83885000Y-77020000D01*
X84551000Y-77020000D02*
X84551000Y-82360000D01*
X84551000Y-82360000D02*
X83885000Y-82360000D01*
X92960000Y-77480000D02*
X92960000Y-84020000D01*
X92960000Y-84020000D02*
X93290000Y-84020000D01*
X93290000Y-77480000D02*
X92960000Y-77480000D01*
X95370000Y-77480000D02*
X95700000Y-77480000D01*
X95700000Y-77480000D02*
X95700000Y-84020000D01*
X95700000Y-84020000D02*
X95370000Y-84020000D01*
X139130000Y-54830000D02*
X139130000Y-61370000D01*
X139130000Y-61370000D02*
X139460000Y-61370000D01*
X139460000Y-54830000D02*
X139130000Y-54830000D01*
X141540000Y-54830000D02*
X141870000Y-54830000D01*
X141870000Y-54830000D02*
X141870000Y-61370000D01*
X141870000Y-61370000D02*
X141540000Y-61370000D01*
X102470000Y-52630000D02*
X107910000Y-52630000D01*
X102470000Y-52760000D02*
X102470000Y-52630000D01*
X102470000Y-55440000D02*
X102470000Y-55570000D01*
X102470000Y-55570000D02*
X107910000Y-55570000D01*
X103250000Y-52630000D02*
X103250000Y-55570000D01*
X103370000Y-52630000D02*
X103370000Y-55570000D01*
X103490000Y-52630000D02*
X103490000Y-55570000D01*
X107910000Y-52630000D02*
X107910000Y-52760000D01*
X107910000Y-55570000D02*
X107910000Y-55440000D01*
X97000000Y-83165113D02*
X102160000Y-83165113D01*
X97000000Y-83205113D02*
X102160000Y-83205113D01*
X97001000Y-83125113D02*
X102159000Y-83125113D01*
X97002000Y-83085113D02*
X102158000Y-83085113D01*
X97004000Y-83045113D02*
X102156000Y-83045113D01*
X97007000Y-83005113D02*
X102153000Y-83005113D01*
X97011000Y-82965113D02*
X98540000Y-82965113D01*
X97015000Y-82925113D02*
X98540000Y-82925113D01*
X97019000Y-82885113D02*
X98540000Y-82885113D01*
X97024000Y-82845113D02*
X98540000Y-82845113D01*
X97030000Y-82805113D02*
X98540000Y-82805113D01*
X97037000Y-82765113D02*
X98540000Y-82765113D01*
X97044000Y-82725113D02*
X98540000Y-82725113D01*
X97052000Y-82685113D02*
X98540000Y-82685113D01*
X97060000Y-82645113D02*
X98540000Y-82645113D01*
X97069000Y-82605113D02*
X98540000Y-82605113D01*
X97079000Y-82565113D02*
X98540000Y-82565113D01*
X97089000Y-82525113D02*
X98540000Y-82525113D01*
X97100000Y-82484113D02*
X98540000Y-82484113D01*
X97112000Y-82444113D02*
X98540000Y-82444113D01*
X97125000Y-82404113D02*
X98540000Y-82404113D01*
X97138000Y-82364113D02*
X98540000Y-82364113D01*
X97152000Y-82324113D02*
X98540000Y-82324113D01*
X97166000Y-82284113D02*
X98540000Y-82284113D01*
X97182000Y-82244113D02*
X98540000Y-82244113D01*
X97198000Y-82204113D02*
X98540000Y-82204113D01*
X97215000Y-82164113D02*
X98540000Y-82164113D01*
X97232000Y-82124113D02*
X98540000Y-82124113D01*
X97251000Y-82084113D02*
X98540000Y-82084113D01*
X97270000Y-82044113D02*
X98540000Y-82044113D01*
X97290000Y-82004113D02*
X98540000Y-82004113D01*
X97312000Y-81964113D02*
X98540000Y-81964113D01*
X97333000Y-81924113D02*
X98540000Y-81924113D01*
X97356000Y-81884113D02*
X98540000Y-81884113D01*
X97380000Y-81844113D02*
X98540000Y-81844113D01*
X97405000Y-81804113D02*
X98540000Y-81804113D01*
X97431000Y-81764113D02*
X98540000Y-81764113D01*
X97458000Y-81724113D02*
X98540000Y-81724113D01*
X97485000Y-81684113D02*
X98540000Y-81684113D01*
X97515000Y-81644113D02*
X98540000Y-81644113D01*
X97545000Y-81604113D02*
X98540000Y-81604113D01*
X97576000Y-81564113D02*
X98540000Y-81564113D01*
X97609000Y-81524113D02*
X98540000Y-81524113D01*
X97643000Y-81484113D02*
X98540000Y-81484113D01*
X97679000Y-81444113D02*
X98540000Y-81444113D01*
X97716000Y-81404113D02*
X98540000Y-81404113D01*
X97754000Y-81364113D02*
X98540000Y-81364113D01*
X97795000Y-81324113D02*
X98540000Y-81324113D01*
X97837000Y-81284113D02*
X98540000Y-81284113D01*
X97855000Y-85759888D02*
X98355000Y-85759888D01*
X97881000Y-81244113D02*
X98540000Y-81244113D01*
X97927000Y-81204113D02*
X98540000Y-81204113D01*
X97975000Y-81164113D02*
X98540000Y-81164113D01*
X98026000Y-81124113D02*
X98540000Y-81124113D01*
X98080000Y-81084113D02*
X98540000Y-81084113D01*
X98105000Y-86009888D02*
X98105000Y-85509888D01*
X98137000Y-81044113D02*
X98540000Y-81044113D01*
X98197000Y-81004113D02*
X98540000Y-81004113D01*
X98261000Y-80964113D02*
X98540000Y-80964113D01*
X98329000Y-80924113D02*
X98540000Y-80924113D01*
X98402000Y-80884113D02*
X100758000Y-80884113D01*
X98482000Y-80844113D02*
X100678000Y-80844113D01*
X98569000Y-80804113D02*
X100591000Y-80804113D01*
X98665000Y-80764113D02*
X100495000Y-80764113D01*
X98775000Y-80724113D02*
X100385000Y-80724113D01*
X98903000Y-80684113D02*
X100257000Y-80684113D01*
X99062000Y-80644113D02*
X100098000Y-80644113D01*
X99296000Y-80604113D02*
X99864000Y-80604113D01*
X100620000Y-80924113D02*
X100831000Y-80924113D01*
X100620000Y-80964113D02*
X100899000Y-80964113D01*
X100620000Y-81004113D02*
X100963000Y-81004113D01*
X100620000Y-81044113D02*
X101023000Y-81044113D01*
X100620000Y-81084113D02*
X101080000Y-81084113D01*
X100620000Y-81124113D02*
X101134000Y-81124113D01*
X100620000Y-81164113D02*
X101185000Y-81164113D01*
X100620000Y-81204113D02*
X101233000Y-81204113D01*
X100620000Y-81244113D02*
X101279000Y-81244113D01*
X100620000Y-81284113D02*
X101323000Y-81284113D01*
X100620000Y-81324113D02*
X101365000Y-81324113D01*
X100620000Y-81364113D02*
X101406000Y-81364113D01*
X100620000Y-81404113D02*
X101444000Y-81404113D01*
X100620000Y-81444113D02*
X101481000Y-81444113D01*
X100620000Y-81484113D02*
X101517000Y-81484113D01*
X100620000Y-81524113D02*
X101551000Y-81524113D01*
X100620000Y-81564113D02*
X101584000Y-81564113D01*
X100620000Y-81604113D02*
X101615000Y-81604113D01*
X100620000Y-81644113D02*
X101645000Y-81644113D01*
X100620000Y-81684113D02*
X101675000Y-81684113D01*
X100620000Y-81724113D02*
X101702000Y-81724113D01*
X100620000Y-81764113D02*
X101729000Y-81764113D01*
X100620000Y-81804113D02*
X101755000Y-81804113D01*
X100620000Y-81844113D02*
X101780000Y-81844113D01*
X100620000Y-81884113D02*
X101804000Y-81884113D01*
X100620000Y-81924113D02*
X101827000Y-81924113D01*
X100620000Y-81964113D02*
X101848000Y-81964113D01*
X100620000Y-82004113D02*
X101870000Y-82004113D01*
X100620000Y-82044113D02*
X101890000Y-82044113D01*
X100620000Y-82084113D02*
X101909000Y-82084113D01*
X100620000Y-82124113D02*
X101928000Y-82124113D01*
X100620000Y-82164113D02*
X101945000Y-82164113D01*
X100620000Y-82204113D02*
X101962000Y-82204113D01*
X100620000Y-82244113D02*
X101978000Y-82244113D01*
X100620000Y-82284113D02*
X101994000Y-82284113D01*
X100620000Y-82324113D02*
X102008000Y-82324113D01*
X100620000Y-82364113D02*
X102022000Y-82364113D01*
X100620000Y-82404113D02*
X102035000Y-82404113D01*
X100620000Y-82444113D02*
X102048000Y-82444113D01*
X100620000Y-82484113D02*
X102060000Y-82484113D01*
X100620000Y-82525113D02*
X102071000Y-82525113D01*
X100620000Y-82565113D02*
X102081000Y-82565113D01*
X100620000Y-82605113D02*
X102091000Y-82605113D01*
X100620000Y-82645113D02*
X102100000Y-82645113D01*
X100620000Y-82685113D02*
X102108000Y-82685113D01*
X100620000Y-82725113D02*
X102116000Y-82725113D01*
X100620000Y-82765113D02*
X102123000Y-82765113D01*
X100620000Y-82805113D02*
X102130000Y-82805113D01*
X100620000Y-82845113D02*
X102136000Y-82845113D01*
X100620000Y-82885113D02*
X102141000Y-82885113D01*
X100620000Y-82925113D02*
X102145000Y-82925113D01*
X100620000Y-82965113D02*
X102149000Y-82965113D01*
X102200000Y-83205113D02*
G75*
G02*
X96960000Y-83205113I-2620000J0D01*
G01*
X96960000Y-83205113D02*
G75*
G02*
X102200000Y-83205113I2620000J0D01*
G01*
X91859000Y-56681000D02*
X88182000Y-56681000D01*
X91859000Y-56721000D02*
X88193000Y-56721000D01*
X91859000Y-56761000D02*
X88203000Y-56761000D01*
X91859000Y-56801000D02*
X88215000Y-56801000D01*
X91859000Y-56841000D02*
X88226000Y-56841000D01*
X91859000Y-56881000D02*
X88238000Y-56881000D01*
X91859000Y-56921000D02*
X88250000Y-56921000D01*
X91859000Y-56961000D02*
X88263000Y-56961000D01*
X91859000Y-57001000D02*
X88276000Y-57001000D01*
X91859000Y-57041000D02*
X88289000Y-57041000D01*
X91859000Y-57081000D02*
X88303000Y-57081000D01*
X91859000Y-57121000D02*
X88317000Y-57121000D01*
X91859000Y-57161000D02*
X88332000Y-57161000D01*
X91859000Y-57201000D02*
X88346000Y-57201000D01*
X91859000Y-57241000D02*
X88362000Y-57241000D01*
X91859000Y-57281000D02*
X88377000Y-57281000D01*
X91859000Y-57321000D02*
X88393000Y-57321000D01*
X91859000Y-57361000D02*
X88410000Y-57361000D01*
X91859000Y-57401000D02*
X88426000Y-57401000D01*
X91859000Y-57441000D02*
X88443000Y-57441000D01*
X91859000Y-57481000D02*
X88461000Y-57481000D01*
X91859000Y-57521000D02*
X88479000Y-57521000D01*
X91859000Y-57561000D02*
X88497000Y-57561000D01*
X91859000Y-57601000D02*
X88516000Y-57601000D01*
X91859000Y-57641000D02*
X88536000Y-57641000D01*
X91859000Y-57681000D02*
X88555000Y-57681000D01*
X91859000Y-57721000D02*
X88575000Y-57721000D01*
X91859000Y-57761000D02*
X88596000Y-57761000D01*
X91859000Y-57801000D02*
X88617000Y-57801000D01*
X91859000Y-57841000D02*
X88638000Y-57841000D01*
X91859000Y-57881000D02*
X88660000Y-57881000D01*
X91859000Y-57921000D02*
X88683000Y-57921000D01*
X91859000Y-57961000D02*
X88705000Y-57961000D01*
X91859000Y-58001000D02*
X88729000Y-58001000D01*
X91859000Y-58041000D02*
X88753000Y-58041000D01*
X91859000Y-58081000D02*
X88777000Y-58081000D01*
X91859000Y-58121000D02*
X88802000Y-58121000D01*
X91859000Y-58161000D02*
X88827000Y-58161000D01*
X91859000Y-58201000D02*
X88853000Y-58201000D01*
X91859000Y-58241000D02*
X88879000Y-58241000D01*
X91859000Y-58281000D02*
X88906000Y-58281000D01*
X91859000Y-58321000D02*
X88934000Y-58321000D01*
X91859000Y-58361000D02*
X88962000Y-58361000D01*
X91859000Y-58401000D02*
X88990000Y-58401000D01*
X91859000Y-58441000D02*
X89020000Y-58441000D01*
X91859000Y-58481000D02*
X89050000Y-58481000D01*
X91859000Y-58521000D02*
X89080000Y-58521000D01*
X91859000Y-58561000D02*
X89111000Y-58561000D01*
X91859000Y-58601000D02*
X89143000Y-58601000D01*
X91859000Y-58641000D02*
X89175000Y-58641000D01*
X91859000Y-58681000D02*
X89208000Y-58681000D01*
X91859000Y-58721000D02*
X89242000Y-58721000D01*
X91859000Y-58761000D02*
X89276000Y-58761000D01*
X91859000Y-58801000D02*
X89311000Y-58801000D01*
X91859000Y-58841000D02*
X89347000Y-58841000D01*
X91859000Y-58881000D02*
X89384000Y-58881000D01*
X91859000Y-58921000D02*
X89421000Y-58921000D01*
X91859000Y-58961000D02*
X89460000Y-58961000D01*
X91859000Y-59001000D02*
X89499000Y-59001000D01*
X91859000Y-59041000D02*
X89539000Y-59041000D01*
X91859000Y-59081000D02*
X89580000Y-59081000D01*
X91859000Y-59121000D02*
X89622000Y-59121000D01*
X93699000Y-60481000D02*
X92501000Y-60481000D01*
X93962000Y-60441000D02*
X92238000Y-60441000D01*
X94162000Y-60401000D02*
X92038000Y-60401000D01*
X94330000Y-60361000D02*
X91870000Y-60361000D01*
X94478000Y-60321000D02*
X91722000Y-60321000D01*
X94610000Y-60281000D02*
X91590000Y-60281000D01*
X94730000Y-60241000D02*
X91470000Y-60241000D01*
X94842000Y-60201000D02*
X91358000Y-60201000D01*
X94946000Y-60161000D02*
X91254000Y-60161000D01*
X95044000Y-60121000D02*
X91156000Y-60121000D01*
X95137000Y-60081000D02*
X91063000Y-60081000D01*
X95225000Y-60041000D02*
X90975000Y-60041000D01*
X95309000Y-60001000D02*
X90891000Y-60001000D01*
X95389000Y-59961000D02*
X90811000Y-59961000D01*
X95465000Y-59921000D02*
X90735000Y-59921000D01*
X95539000Y-59881000D02*
X90661000Y-59881000D01*
X95610000Y-59841000D02*
X90590000Y-59841000D01*
X95679000Y-59801000D02*
X90521000Y-59801000D01*
X95745000Y-59761000D02*
X90455000Y-59761000D01*
X95809000Y-59721000D02*
X90391000Y-59721000D01*
X95870000Y-59681000D02*
X90330000Y-59681000D01*
X95930000Y-59641000D02*
X90270000Y-59641000D01*
X95975000Y-49920354D02*
X95975000Y-50920354D01*
X95989000Y-59601000D02*
X90211000Y-59601000D01*
X96045000Y-59561000D02*
X90155000Y-59561000D01*
X96100000Y-59521000D02*
X90100000Y-59521000D01*
X96154000Y-59481000D02*
X90046000Y-59481000D01*
X96206000Y-59441000D02*
X89994000Y-59441000D01*
X96256000Y-59401000D02*
X89944000Y-59401000D01*
X96306000Y-59361000D02*
X89894000Y-59361000D01*
X96354000Y-59321000D02*
X89846000Y-59321000D01*
X96401000Y-59281000D02*
X89799000Y-59281000D01*
X96447000Y-59241000D02*
X89753000Y-59241000D01*
X96475000Y-50420354D02*
X95475000Y-50420354D01*
X96492000Y-59201000D02*
X89708000Y-59201000D01*
X96536000Y-59161000D02*
X89664000Y-59161000D01*
X96578000Y-59121000D02*
X94341000Y-59121000D01*
X96620000Y-59081000D02*
X94341000Y-59081000D01*
X96661000Y-59041000D02*
X94341000Y-59041000D01*
X96701000Y-59001000D02*
X94341000Y-59001000D01*
X96740000Y-58961000D02*
X94341000Y-58961000D01*
X96779000Y-58921000D02*
X94341000Y-58921000D01*
X96816000Y-58881000D02*
X94341000Y-58881000D01*
X96853000Y-58841000D02*
X94341000Y-58841000D01*
X96889000Y-58801000D02*
X94341000Y-58801000D01*
X96924000Y-58761000D02*
X94341000Y-58761000D01*
X96958000Y-58721000D02*
X94341000Y-58721000D01*
X96992000Y-58681000D02*
X94341000Y-58681000D01*
X97025000Y-58641000D02*
X94341000Y-58641000D01*
X97057000Y-58601000D02*
X94341000Y-58601000D01*
X97089000Y-58561000D02*
X94341000Y-58561000D01*
X97120000Y-58521000D02*
X94341000Y-58521000D01*
X97150000Y-58481000D02*
X94341000Y-58481000D01*
X97180000Y-58441000D02*
X94341000Y-58441000D01*
X97210000Y-58401000D02*
X94341000Y-58401000D01*
X97238000Y-58361000D02*
X94341000Y-58361000D01*
X97266000Y-58321000D02*
X94341000Y-58321000D01*
X97294000Y-58281000D02*
X94341000Y-58281000D01*
X97321000Y-58241000D02*
X94341000Y-58241000D01*
X97347000Y-58201000D02*
X94341000Y-58201000D01*
X97373000Y-58161000D02*
X94341000Y-58161000D01*
X97398000Y-58121000D02*
X94341000Y-58121000D01*
X97423000Y-58081000D02*
X94341000Y-58081000D01*
X97447000Y-58041000D02*
X94341000Y-58041000D01*
X97471000Y-58001000D02*
X94341000Y-58001000D01*
X97495000Y-57961000D02*
X94341000Y-57961000D01*
X97517000Y-57921000D02*
X94341000Y-57921000D01*
X97540000Y-57881000D02*
X94341000Y-57881000D01*
X97562000Y-57841000D02*
X94341000Y-57841000D01*
X97583000Y-57801000D02*
X94341000Y-57801000D01*
X97604000Y-57761000D02*
X94341000Y-57761000D01*
X97625000Y-57721000D02*
X94341000Y-57721000D01*
X97645000Y-57681000D02*
X94341000Y-57681000D01*
X97664000Y-57641000D02*
X94341000Y-57641000D01*
X97684000Y-57601000D02*
X94341000Y-57601000D01*
X97703000Y-57561000D02*
X94341000Y-57561000D01*
X97721000Y-57521000D02*
X94341000Y-57521000D01*
X97739000Y-57481000D02*
X94341000Y-57481000D01*
X97757000Y-57441000D02*
X94341000Y-57441000D01*
X97774000Y-57401000D02*
X94341000Y-57401000D01*
X97790000Y-57361000D02*
X94341000Y-57361000D01*
X97807000Y-57321000D02*
X94341000Y-57321000D01*
X97823000Y-57281000D02*
X94341000Y-57281000D01*
X97838000Y-57241000D02*
X94341000Y-57241000D01*
X97854000Y-57201000D02*
X94341000Y-57201000D01*
X97868000Y-57161000D02*
X94341000Y-57161000D01*
X97883000Y-57121000D02*
X94341000Y-57121000D01*
X97897000Y-57081000D02*
X94341000Y-57081000D01*
X97911000Y-57041000D02*
X94341000Y-57041000D01*
X97924000Y-57001000D02*
X94341000Y-57001000D01*
X97937000Y-56961000D02*
X94341000Y-56961000D01*
X97950000Y-56921000D02*
X94341000Y-56921000D01*
X97962000Y-56881000D02*
X94341000Y-56881000D01*
X97974000Y-56841000D02*
X94341000Y-56841000D01*
X97985000Y-56801000D02*
X94341000Y-56801000D01*
X97997000Y-56761000D02*
X94341000Y-56761000D01*
X98007000Y-56721000D02*
X94341000Y-56721000D01*
X98018000Y-56681000D02*
X94341000Y-56681000D01*
X98028000Y-56641000D02*
X88172000Y-56641000D01*
X98038000Y-56601000D02*
X88162000Y-56601000D01*
X98047000Y-56561000D02*
X88153000Y-56561000D01*
X98056000Y-56521000D02*
X88144000Y-56521000D01*
X98065000Y-56481000D02*
X88135000Y-56481000D01*
X98074000Y-56441000D02*
X88126000Y-56441000D01*
X98082000Y-56401000D02*
X88118000Y-56401000D01*
X98090000Y-56361000D02*
X88110000Y-56361000D01*
X98097000Y-56321000D02*
X88103000Y-56321000D01*
X98104000Y-56281000D02*
X88096000Y-56281000D01*
X98111000Y-56241000D02*
X88089000Y-56241000D01*
X98118000Y-56201000D02*
X88082000Y-56201000D01*
X98124000Y-56161000D02*
X88076000Y-56161000D01*
X98130000Y-56121000D02*
X88070000Y-56121000D01*
X98135000Y-56080000D02*
X88065000Y-56080000D01*
X98140000Y-56040000D02*
X88060000Y-56040000D01*
X98145000Y-56000000D02*
X88055000Y-56000000D01*
X98150000Y-55960000D02*
X88050000Y-55960000D01*
X98154000Y-55920000D02*
X88046000Y-55920000D01*
X98158000Y-55880000D02*
X88042000Y-55880000D01*
X98162000Y-55840000D02*
X88038000Y-55840000D01*
X98165000Y-55800000D02*
X88035000Y-55800000D01*
X98168000Y-55760000D02*
X88032000Y-55760000D01*
X98170000Y-55720000D02*
X88030000Y-55720000D01*
X98173000Y-55680000D02*
X88027000Y-55680000D01*
X98175000Y-55640000D02*
X88025000Y-55640000D01*
X98177000Y-55600000D02*
X88023000Y-55600000D01*
X98178000Y-55560000D02*
X88022000Y-55560000D01*
X98179000Y-55520000D02*
X88021000Y-55520000D01*
X98180000Y-55400000D02*
X88020000Y-55400000D01*
X98180000Y-55440000D02*
X88020000Y-55440000D01*
X98180000Y-55480000D02*
X88020000Y-55480000D01*
X98220000Y-55400000D02*
G75*
G02*
X87980000Y-55400000I-5120000J0D01*
G01*
X87980000Y-55400000D02*
G75*
G02*
X98220000Y-55400000I5120000J0D01*
G01*
X65130000Y-60170000D02*
X65130000Y-62830000D01*
X67730000Y-60170000D02*
X65130000Y-60170000D01*
X67730000Y-60170000D02*
X67730000Y-62830000D01*
X67730000Y-62830000D02*
X65130000Y-62830000D01*
X69000000Y-60170000D02*
X70330000Y-60170000D01*
X70330000Y-60170000D02*
X70330000Y-61500000D01*
X127360000Y-54344887D02*
X128380000Y-54344887D01*
X128380000Y-52874887D02*
X128380000Y-55814887D01*
X128380000Y-55814887D02*
X133820000Y-55814887D01*
X129160000Y-52874887D02*
X129160000Y-55814887D01*
X129280000Y-52874887D02*
X129280000Y-55814887D01*
X129400000Y-52874887D02*
X129400000Y-55814887D01*
X133820000Y-52874887D02*
X128380000Y-52874887D01*
X133820000Y-55814887D02*
X133820000Y-52874887D01*
X134840000Y-54344887D02*
X133820000Y-54344887D01*
X127360000Y-59300000D02*
X128380000Y-59300000D01*
X128380000Y-57830000D02*
X128380000Y-60770000D01*
X128380000Y-60770000D02*
X133820000Y-60770000D01*
X132800000Y-60770000D02*
X132800000Y-57830000D01*
X132920000Y-60770000D02*
X132920000Y-57830000D01*
X133040000Y-60770000D02*
X133040000Y-57830000D01*
X133820000Y-57830000D02*
X128380000Y-57830000D01*
X133820000Y-60770000D02*
X133820000Y-57830000D01*
X134840000Y-59300000D02*
X133820000Y-59300000D01*
%LPC*%
D17*
X107080000Y-84500000D03*
D18*
X109580000Y-84500000D03*
D19*
X74830000Y-83750000D03*
D20*
X77420000Y-78650000D03*
D21*
X129160000Y-47945000D03*
D22*
X131700000Y-47945000D03*
X134240000Y-47945000D03*
D23*
X77725000Y-49960000D03*
D24*
X77725000Y-52500000D03*
D23*
X70330000Y-76550000D03*
D24*
X70330000Y-74010000D03*
D21*
X102460000Y-47945000D03*
D22*
X105000000Y-47945000D03*
X107540000Y-47945000D03*
D25*
X134110000Y-73100000D03*
D26*
X126490000Y-73100000D03*
D23*
X84400000Y-53060000D03*
D24*
X84400000Y-55600000D03*
D25*
X120700000Y-54500000D03*
X120700000Y-59500000D03*
D17*
X131750000Y-84250000D03*
D18*
X129250000Y-84250000D03*
X126750000Y-84250000D03*
D25*
X109000000Y-58200000D03*
X109000000Y-63200000D03*
X89080000Y-77190000D03*
X89080000Y-82190000D03*
D27*
X83960000Y-73000000D03*
D28*
X86500000Y-73000000D03*
X89040000Y-73000000D03*
D19*
X132800000Y-67200000D03*
D20*
X130260000Y-67200000D03*
X127720000Y-67200000D03*
D29*
X114800000Y-54600000D03*
D25*
X114800000Y-57100000D03*
D30*
X67750000Y-55250000D03*
D31*
X67750000Y-49250000D03*
D32*
X63050000Y-52250000D03*
D25*
X101500000Y-58100000D03*
X101500000Y-63100000D03*
D29*
X141200000Y-72200000D03*
D25*
X138700000Y-72200000D03*
X82830000Y-77190000D03*
X82830000Y-82190000D03*
X94330000Y-76940000D03*
D26*
X94330000Y-84560000D03*
D25*
X140500000Y-54290000D03*
D26*
X140500000Y-61910000D03*
D33*
X101380000Y-54100000D03*
D34*
X109000000Y-54100000D03*
D29*
X99580000Y-84455113D03*
D25*
X99580000Y-81955113D03*
D35*
X93100000Y-52900000D03*
D36*
X93100000Y-57900000D03*
D23*
X69000000Y-61500000D03*
D24*
X66460000Y-61500000D03*
D33*
X126020000Y-54344887D03*
D34*
X136180000Y-54344887D03*
D33*
X136180000Y-59300000D03*
D34*
X126020000Y-59300000D03*
%LPD*%
M02*
