G04 #@! TF.GenerationSoftware,KiCad,Pcbnew,8.0.2*
G04 #@! TF.CreationDate,2024-08-09T17:56:15+09:00*
G04 #@! TF.ProjectId,powersupply,706f7765-7273-4757-9070-6c792e6b6963,rev?*
G04 #@! TF.SameCoordinates,Original*
G04 #@! TF.FileFunction,Copper,L1,Top*
G04 #@! TF.FilePolarity,Positive*
%FSLAX46Y46*%
G04 Gerber Fmt 4.6, Leading zero omitted, Abs format (unit mm)*
G04 Created by KiCad (PCBNEW 8.0.2) date 2024-08-09 17:56:15*
%MOMM*%
%LPD*%
G01*
G04 APERTURE LIST*
G04 Aperture macros list*
%AMRoundRect*
0 Rectangle with rounded corners*
0 $1 Rounding radius*
0 $2 $3 $4 $5 $6 $7 $8 $9 X,Y pos of 4 corners*
0 Add a 4 corners polygon primitive as box body*
4,1,4,$2,$3,$4,$5,$6,$7,$8,$9,$2,$3,0*
0 Add four circle primitives for the rounded corners*
1,1,$1+$1,$2,$3*
1,1,$1+$1,$4,$5*
1,1,$1+$1,$6,$7*
1,1,$1+$1,$8,$9*
0 Add four rect primitives between the rounded corners*
20,1,$1+$1,$2,$3,$4,$5,0*
20,1,$1+$1,$4,$5,$6,$7,0*
20,1,$1+$1,$6,$7,$8,$9,0*
20,1,$1+$1,$8,$9,$2,$3,0*%
G04 Aperture macros list end*
G04 #@! TA.AperFunction,ComponentPad*
%ADD10R,1.650000X1.650000*%
G04 #@! TD*
G04 #@! TA.AperFunction,ComponentPad*
%ADD11C,1.650000*%
G04 #@! TD*
G04 #@! TA.AperFunction,ComponentPad*
%ADD12R,1.217000X1.217000*%
G04 #@! TD*
G04 #@! TA.AperFunction,ComponentPad*
%ADD13C,1.217000*%
G04 #@! TD*
G04 #@! TA.AperFunction,ComponentPad*
%ADD14R,1.905000X2.000000*%
G04 #@! TD*
G04 #@! TA.AperFunction,ComponentPad*
%ADD15O,1.905000X2.000000*%
G04 #@! TD*
G04 #@! TA.AperFunction,ComponentPad*
%ADD16R,1.700000X1.700000*%
G04 #@! TD*
G04 #@! TA.AperFunction,ComponentPad*
%ADD17O,1.700000X1.700000*%
G04 #@! TD*
G04 #@! TA.AperFunction,ComponentPad*
%ADD18C,1.600000*%
G04 #@! TD*
G04 #@! TA.AperFunction,ComponentPad*
%ADD19O,1.600000X1.600000*%
G04 #@! TD*
G04 #@! TA.AperFunction,ComponentPad*
%ADD20R,1.305000X1.305000*%
G04 #@! TD*
G04 #@! TA.AperFunction,ComponentPad*
%ADD21C,1.305000*%
G04 #@! TD*
G04 #@! TA.AperFunction,ComponentPad*
%ADD22R,1.600000X1.600000*%
G04 #@! TD*
G04 #@! TA.AperFunction,ComponentPad*
%ADD23R,3.500000X3.500000*%
G04 #@! TD*
G04 #@! TA.AperFunction,ComponentPad*
%ADD24RoundRect,0.750000X-1.000000X0.750000X-1.000000X-0.750000X1.000000X-0.750000X1.000000X0.750000X0*%
G04 #@! TD*
G04 #@! TA.AperFunction,ComponentPad*
%ADD25RoundRect,0.875000X-0.875000X0.875000X-0.875000X-0.875000X0.875000X-0.875000X0.875000X0.875000X0*%
G04 #@! TD*
G04 #@! TA.AperFunction,ComponentPad*
%ADD26R,2.200000X2.200000*%
G04 #@! TD*
G04 #@! TA.AperFunction,ComponentPad*
%ADD27O,2.200000X2.200000*%
G04 #@! TD*
G04 #@! TA.AperFunction,ComponentPad*
%ADD28R,2.000000X2.000000*%
G04 #@! TD*
G04 #@! TA.AperFunction,ComponentPad*
%ADD29C,2.000000*%
G04 #@! TD*
G04 #@! TA.AperFunction,Conductor*
%ADD30C,1.000000*%
G04 #@! TD*
G04 APERTURE END LIST*
D10*
X107080000Y-84500000D03*
D11*
X109580000Y-84500000D03*
D12*
X74830000Y-83750000D03*
D13*
X77420000Y-78650000D03*
D14*
X129160000Y-47945000D03*
D15*
X131700000Y-47945000D03*
X134240000Y-47945000D03*
D16*
X77725000Y-49960000D03*
D17*
X77725000Y-52500000D03*
D16*
X70330000Y-76550000D03*
D17*
X70330000Y-74010000D03*
D14*
X102460000Y-47945000D03*
D15*
X105000000Y-47945000D03*
X107540000Y-47945000D03*
D18*
X134110000Y-73100000D03*
D19*
X126490000Y-73100000D03*
D16*
X84400000Y-53060000D03*
D17*
X84400000Y-55600000D03*
D18*
X120700000Y-54500000D03*
X120700000Y-59500000D03*
D10*
X131750000Y-84250000D03*
D11*
X129250000Y-84250000D03*
X126750000Y-84250000D03*
D18*
X109000000Y-58200000D03*
X109000000Y-63200000D03*
X89080000Y-77190000D03*
X89080000Y-82190000D03*
D20*
X83960000Y-73000000D03*
D21*
X86500000Y-73000000D03*
X89040000Y-73000000D03*
D12*
X132800000Y-67200000D03*
D13*
X130260000Y-67200000D03*
X127720000Y-67200000D03*
D22*
X114800000Y-54600000D03*
D18*
X114800000Y-57100000D03*
D23*
X67750000Y-55250000D03*
D24*
X67750000Y-49250000D03*
D25*
X63050000Y-52250000D03*
D18*
X101500000Y-58100000D03*
X101500000Y-63100000D03*
D22*
X141200000Y-72200000D03*
D18*
X138700000Y-72200000D03*
X82830000Y-77190000D03*
X82830000Y-82190000D03*
X94330000Y-76940000D03*
D19*
X94330000Y-84560000D03*
D18*
X140500000Y-54290000D03*
D19*
X140500000Y-61910000D03*
D26*
X101380000Y-54100000D03*
D27*
X109000000Y-54100000D03*
D22*
X99580000Y-84455113D03*
D18*
X99580000Y-81955113D03*
D28*
X93100000Y-52900000D03*
D29*
X93100000Y-57900000D03*
D16*
X69000000Y-61500000D03*
D17*
X66460000Y-61500000D03*
D26*
X126020000Y-54344887D03*
D27*
X136180000Y-54344887D03*
D26*
X136180000Y-59300000D03*
D27*
X126020000Y-59300000D03*
D30*
X120700000Y-54500000D02*
X125864887Y-54500000D01*
X109100000Y-48900000D02*
X109100000Y-54000000D01*
X125864887Y-54500000D02*
X126020000Y-54344887D01*
X109000000Y-54100000D02*
X109000000Y-58200000D01*
X109500000Y-54600000D02*
X109000000Y-54100000D01*
X141695000Y-47945000D02*
X145250000Y-51500000D01*
X135750000Y-84250000D02*
X131750000Y-84250000D01*
X145250000Y-51500000D02*
X145250000Y-74750000D01*
X131700000Y-54400000D02*
X134240000Y-51860000D01*
X134240000Y-47945000D02*
X141695000Y-47945000D01*
X108145000Y-47945000D02*
X109100000Y-48900000D01*
X145250000Y-74750000D02*
X135750000Y-84250000D01*
X134240000Y-51860000D02*
X134240000Y-47945000D01*
X107540000Y-47945000D02*
X108145000Y-47945000D01*
X126020000Y-54344887D02*
X126075113Y-54400000D01*
X120600000Y-54600000D02*
X120700000Y-54500000D01*
X114800000Y-54600000D02*
X120600000Y-54600000D01*
X109100000Y-54000000D02*
X109000000Y-54100000D01*
X126075113Y-54400000D02*
X131700000Y-54400000D01*
X114800000Y-54600000D02*
X109500000Y-54600000D01*
X138750000Y-78500000D02*
X130750000Y-78500000D01*
X141250000Y-72250000D02*
X141250000Y-76000000D01*
X129250000Y-80000000D02*
X129250000Y-84250000D01*
X141200000Y-72200000D02*
X141250000Y-72250000D01*
X136180000Y-54344887D02*
X140445113Y-54344887D01*
X140445113Y-54344887D02*
X140500000Y-54290000D01*
X130750000Y-78500000D02*
X129250000Y-80000000D01*
X141250000Y-76000000D02*
X138750000Y-78500000D01*
X136180000Y-54344887D02*
X136180000Y-59300000D01*
X106830000Y-84250000D02*
X107080000Y-84000000D01*
X99580000Y-84500000D02*
X106830000Y-84500000D01*
X99270000Y-84560000D02*
X99580000Y-84250000D01*
X94330000Y-84560000D02*
X99270000Y-84560000D01*
X140500000Y-61910000D02*
X140500000Y-62400000D01*
X140500000Y-62400000D02*
X139500000Y-63400000D01*
X131100000Y-63400000D02*
X130260000Y-64240000D01*
X130260000Y-64240000D02*
X130260000Y-67200000D01*
X139500000Y-63400000D02*
X131100000Y-63400000D01*
X132800000Y-67200000D02*
X134110000Y-68510000D01*
X134110000Y-68510000D02*
X134110000Y-73100000D01*
X84560000Y-52900000D02*
X84400000Y-53060000D01*
X94300000Y-54100000D02*
X93100000Y-52900000D01*
X101380000Y-54100000D02*
X94300000Y-54100000D01*
X101380000Y-54100000D02*
X101380000Y-49025000D01*
X101380000Y-49025000D02*
X102460000Y-47945000D01*
X101380000Y-54100000D02*
X101380000Y-57980000D01*
X93100000Y-52900000D02*
X84560000Y-52900000D01*
X101380000Y-57980000D02*
X101500000Y-58100000D01*
X70330000Y-76550000D02*
X70330000Y-79250000D01*
X70330000Y-79250000D02*
X74830000Y-83750000D01*
X68975000Y-55250000D02*
X73975000Y-50250000D01*
X73975000Y-50250000D02*
X77435000Y-50250000D01*
X69225000Y-61275000D02*
X69000000Y-61500000D01*
X77435000Y-50250000D02*
X77725000Y-49960000D01*
X67750000Y-55250000D02*
X68975000Y-55250000D01*
X69225000Y-56500000D02*
X69225000Y-61275000D01*
X67750000Y-55250000D02*
X67975000Y-55250000D01*
X67975000Y-55250000D02*
X69225000Y-56500000D01*
X81370000Y-78650000D02*
X82830000Y-77190000D01*
X77420000Y-78650000D02*
X81370000Y-78650000D01*
X82830000Y-77190000D02*
X82830000Y-74170000D01*
X82830000Y-74170000D02*
X84000000Y-73000000D01*
X89080000Y-77190000D02*
X89080000Y-73000000D01*
X94080000Y-77190000D02*
X94330000Y-76940000D01*
X89080000Y-77190000D02*
X94080000Y-77190000D01*
G04 #@! TA.AperFunction,Conductor*
G36*
X116193039Y-66019685D02*
G01*
X116238794Y-66072489D01*
X116250000Y-66124000D01*
X116250000Y-89876000D01*
X116230315Y-89943039D01*
X116177511Y-89988794D01*
X116126000Y-90000000D01*
X66793497Y-90000000D01*
X66726458Y-89980315D01*
X66716035Y-89972828D01*
X65546538Y-89037230D01*
X65506486Y-88979979D01*
X65500000Y-88940402D01*
X65500000Y-75652135D01*
X68979500Y-75652135D01*
X68979500Y-77447870D01*
X68979501Y-77447876D01*
X68985908Y-77507483D01*
X69036202Y-77642328D01*
X69036206Y-77642335D01*
X69122452Y-77757544D01*
X69122455Y-77757547D01*
X69237665Y-77843794D01*
X69237667Y-77843794D01*
X69237669Y-77843796D01*
X69248830Y-77847958D01*
X69304764Y-77889826D01*
X69329184Y-77955289D01*
X69329500Y-77964141D01*
X69329500Y-79348541D01*
X69329500Y-79348543D01*
X69329499Y-79348543D01*
X69367947Y-79541829D01*
X69367950Y-79541839D01*
X69443364Y-79723907D01*
X69443371Y-79723920D01*
X69552860Y-79887781D01*
X69552863Y-79887785D01*
X69696537Y-80031459D01*
X69696559Y-80031479D01*
X73684681Y-84019601D01*
X73718166Y-84080924D01*
X73721000Y-84107282D01*
X73721000Y-84406369D01*
X73721001Y-84406376D01*
X73727408Y-84465983D01*
X73777702Y-84600828D01*
X73777706Y-84600835D01*
X73863952Y-84716044D01*
X73863955Y-84716047D01*
X73979164Y-84802293D01*
X73979171Y-84802297D01*
X74114017Y-84852591D01*
X74114016Y-84852591D01*
X74120944Y-84853335D01*
X74173627Y-84859000D01*
X75486372Y-84858999D01*
X75545983Y-84852591D01*
X75680831Y-84802296D01*
X75796046Y-84716046D01*
X75882296Y-84600831D01*
X75897526Y-84559998D01*
X93024532Y-84559998D01*
X93024532Y-84560001D01*
X93044364Y-84786686D01*
X93044366Y-84786697D01*
X93103258Y-85006488D01*
X93103261Y-85006497D01*
X93199431Y-85212732D01*
X93199432Y-85212734D01*
X93329954Y-85399141D01*
X93490858Y-85560045D01*
X93490861Y-85560047D01*
X93677266Y-85690568D01*
X93883504Y-85786739D01*
X94103308Y-85845635D01*
X94265230Y-85859801D01*
X94329998Y-85865468D01*
X94330000Y-85865468D01*
X94330002Y-85865468D01*
X94386673Y-85860509D01*
X94556692Y-85845635D01*
X94776496Y-85786739D01*
X94982734Y-85690568D01*
X95136465Y-85582924D01*
X95202671Y-85560598D01*
X95207588Y-85560500D01*
X98321339Y-85560500D01*
X98388378Y-85580185D01*
X98420605Y-85610189D01*
X98422454Y-85612659D01*
X98537669Y-85698909D01*
X98537670Y-85698909D01*
X98537671Y-85698910D01*
X98672517Y-85749204D01*
X98672516Y-85749204D01*
X98678535Y-85749851D01*
X98732127Y-85755613D01*
X100427872Y-85755612D01*
X100487483Y-85749204D01*
X100622331Y-85698909D01*
X100737546Y-85612659D01*
X100776654Y-85560418D01*
X100784312Y-85550188D01*
X100840246Y-85508318D01*
X100883578Y-85500500D01*
X105701139Y-85500500D01*
X105768178Y-85520185D01*
X105805637Y-85560418D01*
X105805888Y-85560231D01*
X105807635Y-85562565D01*
X105809973Y-85565076D01*
X105811207Y-85567336D01*
X105897452Y-85682544D01*
X105897455Y-85682547D01*
X106012664Y-85768793D01*
X106012671Y-85768797D01*
X106147517Y-85819091D01*
X106147516Y-85819091D01*
X106154444Y-85819835D01*
X106207127Y-85825500D01*
X107952872Y-85825499D01*
X108012483Y-85819091D01*
X108147331Y-85768796D01*
X108262546Y-85682546D01*
X108348796Y-85567331D01*
X108399091Y-85432483D01*
X108405500Y-85372873D01*
X108405499Y-85371987D01*
X108405557Y-85371791D01*
X108405678Y-85369547D01*
X108406207Y-85369575D01*
X108425168Y-85304947D01*
X108445311Y-85287483D01*
X108442137Y-85284309D01*
X109056212Y-84670233D01*
X109067482Y-84712292D01*
X109139890Y-84837708D01*
X109242292Y-84940110D01*
X109367708Y-85012518D01*
X109409765Y-85023787D01*
X108836576Y-85596975D01*
X108914969Y-85651867D01*
X109125090Y-85749847D01*
X109125099Y-85749851D01*
X109349031Y-85809852D01*
X109349041Y-85809854D01*
X109579999Y-85830061D01*
X109580001Y-85830061D01*
X109810958Y-85809854D01*
X109810968Y-85809852D01*
X110034900Y-85749851D01*
X110034909Y-85749847D01*
X110245030Y-85651867D01*
X110245034Y-85651865D01*
X110323422Y-85596976D01*
X110323422Y-85596975D01*
X109750235Y-85023787D01*
X109792292Y-85012518D01*
X109917708Y-84940110D01*
X110020110Y-84837708D01*
X110092518Y-84712292D01*
X110103787Y-84670234D01*
X110676975Y-85243422D01*
X110676976Y-85243422D01*
X110731865Y-85165034D01*
X110731867Y-85165030D01*
X110829847Y-84954909D01*
X110829851Y-84954900D01*
X110889852Y-84730968D01*
X110889854Y-84730958D01*
X110910061Y-84500000D01*
X110910061Y-84499999D01*
X110889854Y-84269041D01*
X110889852Y-84269031D01*
X110829851Y-84045099D01*
X110829847Y-84045090D01*
X110731867Y-83834971D01*
X110731866Y-83834969D01*
X110676975Y-83756577D01*
X110676975Y-83756576D01*
X110103787Y-84329764D01*
X110092518Y-84287708D01*
X110020110Y-84162292D01*
X109917708Y-84059890D01*
X109792292Y-83987482D01*
X109750234Y-83976212D01*
X110323422Y-83403023D01*
X110245030Y-83348133D01*
X110034909Y-83250152D01*
X110034900Y-83250148D01*
X109810968Y-83190147D01*
X109810958Y-83190145D01*
X109580001Y-83169939D01*
X109579999Y-83169939D01*
X109349041Y-83190145D01*
X109349031Y-83190147D01*
X109125099Y-83250148D01*
X109125090Y-83250152D01*
X108914967Y-83348134D01*
X108836576Y-83403022D01*
X109409766Y-83976212D01*
X109367708Y-83987482D01*
X109242292Y-84059890D01*
X109139890Y-84162292D01*
X109067482Y-84287708D01*
X109056212Y-84329766D01*
X108442136Y-83715690D01*
X108445509Y-83712316D01*
X108421467Y-83688905D01*
X108406122Y-83630412D01*
X108405900Y-83630423D01*
X108405854Y-83630429D01*
X108405853Y-83630426D01*
X108405676Y-83630436D01*
X108405559Y-83628268D01*
X108405499Y-83628036D01*
X108405499Y-83627129D01*
X108405498Y-83627123D01*
X108399091Y-83567516D01*
X108348797Y-83432671D01*
X108348793Y-83432664D01*
X108262547Y-83317455D01*
X108262544Y-83317452D01*
X108147335Y-83231206D01*
X108147328Y-83231202D01*
X108012482Y-83180908D01*
X108012483Y-83180908D01*
X107952883Y-83174501D01*
X107952881Y-83174500D01*
X107952873Y-83174500D01*
X107952865Y-83174500D01*
X107683018Y-83174500D01*
X107615979Y-83154815D01*
X107614127Y-83153602D01*
X107553919Y-83113372D01*
X107553911Y-83113367D01*
X107371835Y-83037949D01*
X107371827Y-83037947D01*
X107178543Y-82999500D01*
X107178540Y-82999500D01*
X106981459Y-82999500D01*
X106981456Y-82999500D01*
X106788171Y-83037947D01*
X106788163Y-83037949D01*
X106606083Y-83113369D01*
X106545868Y-83153603D01*
X106479190Y-83174480D01*
X106476979Y-83174500D01*
X106207130Y-83174500D01*
X106207123Y-83174501D01*
X106147516Y-83180908D01*
X106012671Y-83231202D01*
X106012664Y-83231206D01*
X105897455Y-83317452D01*
X105897452Y-83317455D01*
X105811207Y-83432663D01*
X105809973Y-83434924D01*
X105808150Y-83436746D01*
X105805888Y-83439769D01*
X105805453Y-83439443D01*
X105760569Y-83484331D01*
X105701139Y-83499500D01*
X100942234Y-83499500D01*
X100875195Y-83479815D01*
X100829440Y-83427011D01*
X100826062Y-83418858D01*
X100823796Y-83412782D01*
X100823794Y-83412779D01*
X100823793Y-83412776D01*
X100737547Y-83297568D01*
X100737544Y-83297565D01*
X100622335Y-83211319D01*
X100622328Y-83211315D01*
X100487482Y-83161021D01*
X100487483Y-83161021D01*
X100427883Y-83154614D01*
X100427881Y-83154613D01*
X100427873Y-83154613D01*
X100427864Y-83154613D01*
X100424548Y-83154435D01*
X100424627Y-83152960D01*
X100363215Y-83134928D01*
X100317460Y-83082124D01*
X100309969Y-83038635D01*
X99626447Y-82355113D01*
X99632661Y-82355113D01*
X99734394Y-82327854D01*
X99825606Y-82275193D01*
X99900080Y-82200719D01*
X99952741Y-82109507D01*
X99980000Y-82007774D01*
X99980000Y-82001560D01*
X100659024Y-82680584D01*
X100710136Y-82607591D01*
X100806264Y-82401444D01*
X100806269Y-82401430D01*
X100865139Y-82181723D01*
X100865141Y-82181712D01*
X100884966Y-81955115D01*
X100884966Y-81955110D01*
X100865141Y-81728513D01*
X100865139Y-81728502D01*
X100806269Y-81508795D01*
X100806264Y-81508781D01*
X100710136Y-81302634D01*
X100710132Y-81302626D01*
X100659025Y-81229639D01*
X99980000Y-81908664D01*
X99980000Y-81902452D01*
X99952741Y-81800719D01*
X99900080Y-81709507D01*
X99825606Y-81635033D01*
X99734394Y-81582372D01*
X99632661Y-81555113D01*
X99626448Y-81555113D01*
X100305472Y-80876087D01*
X100232478Y-80824976D01*
X100026331Y-80728848D01*
X100026317Y-80728843D01*
X99806610Y-80669973D01*
X99806599Y-80669971D01*
X99580002Y-80650147D01*
X99579998Y-80650147D01*
X99353400Y-80669971D01*
X99353389Y-80669973D01*
X99133682Y-80728843D01*
X99133673Y-80728847D01*
X98927516Y-80824979D01*
X98927512Y-80824981D01*
X98854526Y-80876086D01*
X98854526Y-80876087D01*
X99533553Y-81555113D01*
X99527339Y-81555113D01*
X99425606Y-81582372D01*
X99334394Y-81635033D01*
X99259920Y-81709507D01*
X99207259Y-81800719D01*
X99180000Y-81902452D01*
X99180000Y-81908665D01*
X98500974Y-81229639D01*
X98500973Y-81229639D01*
X98449868Y-81302625D01*
X98449866Y-81302629D01*
X98353734Y-81508786D01*
X98353730Y-81508795D01*
X98294860Y-81728502D01*
X98294858Y-81728513D01*
X98275034Y-81955110D01*
X98275034Y-81955115D01*
X98294858Y-82181712D01*
X98294860Y-82181723D01*
X98353730Y-82401430D01*
X98353735Y-82401444D01*
X98449863Y-82607591D01*
X98500974Y-82680585D01*
X99180000Y-82001559D01*
X99180000Y-82007774D01*
X99207259Y-82109507D01*
X99259920Y-82200719D01*
X99334394Y-82275193D01*
X99425606Y-82327854D01*
X99527339Y-82355113D01*
X99533553Y-82355113D01*
X98849352Y-83039312D01*
X98839506Y-83088307D01*
X98790890Y-83138490D01*
X98735367Y-83153162D01*
X98735423Y-83154212D01*
X98735429Y-83154259D01*
X98735426Y-83154259D01*
X98735436Y-83154437D01*
X98732123Y-83154614D01*
X98672516Y-83161021D01*
X98537671Y-83211315D01*
X98537664Y-83211319D01*
X98422455Y-83297565D01*
X98422452Y-83297568D01*
X98336206Y-83412777D01*
X98336202Y-83412784D01*
X98311568Y-83478833D01*
X98269697Y-83534767D01*
X98204232Y-83559184D01*
X98195386Y-83559500D01*
X95207588Y-83559500D01*
X95140549Y-83539815D01*
X95136465Y-83537075D01*
X95061138Y-83484331D01*
X94982734Y-83429432D01*
X94954506Y-83416269D01*
X94776497Y-83333261D01*
X94776488Y-83333258D01*
X94556697Y-83274366D01*
X94556693Y-83274365D01*
X94556692Y-83274365D01*
X94556691Y-83274364D01*
X94556686Y-83274364D01*
X94330002Y-83254532D01*
X94329998Y-83254532D01*
X94103313Y-83274364D01*
X94103302Y-83274366D01*
X93883511Y-83333258D01*
X93883502Y-83333261D01*
X93677267Y-83429431D01*
X93677265Y-83429432D01*
X93490858Y-83559954D01*
X93329954Y-83720858D01*
X93199432Y-83907265D01*
X93199431Y-83907267D01*
X93103261Y-84113502D01*
X93103258Y-84113511D01*
X93044366Y-84333302D01*
X93044364Y-84333313D01*
X93024532Y-84559998D01*
X75897526Y-84559998D01*
X75932591Y-84465983D01*
X75939000Y-84406373D01*
X75938999Y-83093628D01*
X75933014Y-83037949D01*
X75932591Y-83034016D01*
X75882297Y-82899171D01*
X75882293Y-82899164D01*
X75796047Y-82783955D01*
X75796044Y-82783952D01*
X75680835Y-82697706D01*
X75680828Y-82697702D01*
X75545982Y-82647408D01*
X75545983Y-82647408D01*
X75486383Y-82641001D01*
X75486381Y-82641000D01*
X75486373Y-82641000D01*
X75486365Y-82641000D01*
X75187282Y-82641000D01*
X75120243Y-82621315D01*
X75099601Y-82604681D01*
X74684917Y-82189997D01*
X81525034Y-82189997D01*
X81525034Y-82190002D01*
X81544858Y-82416599D01*
X81544860Y-82416610D01*
X81603730Y-82636317D01*
X81603735Y-82636331D01*
X81699863Y-82842478D01*
X81750974Y-82915472D01*
X82430000Y-82236446D01*
X82430000Y-82242661D01*
X82457259Y-82344394D01*
X82509920Y-82435606D01*
X82584394Y-82510080D01*
X82675606Y-82562741D01*
X82777339Y-82590000D01*
X82783553Y-82590000D01*
X82104526Y-83269025D01*
X82177513Y-83320132D01*
X82177521Y-83320136D01*
X82383668Y-83416264D01*
X82383682Y-83416269D01*
X82603389Y-83475139D01*
X82603400Y-83475141D01*
X82829998Y-83494966D01*
X82830002Y-83494966D01*
X83056599Y-83475141D01*
X83056610Y-83475139D01*
X83276317Y-83416269D01*
X83276331Y-83416264D01*
X83482478Y-83320136D01*
X83555471Y-83269024D01*
X82876447Y-82590000D01*
X82882661Y-82590000D01*
X82984394Y-82562741D01*
X83075606Y-82510080D01*
X83150080Y-82435606D01*
X83202741Y-82344394D01*
X83230000Y-82242661D01*
X83230000Y-82236447D01*
X83909024Y-82915471D01*
X83960136Y-82842478D01*
X84056264Y-82636331D01*
X84056269Y-82636317D01*
X84115139Y-82416610D01*
X84115141Y-82416599D01*
X84134966Y-82190002D01*
X84134966Y-82189997D01*
X87775034Y-82189997D01*
X87775034Y-82190002D01*
X87794858Y-82416599D01*
X87794860Y-82416610D01*
X87853730Y-82636317D01*
X87853735Y-82636331D01*
X87949863Y-82842478D01*
X88000974Y-82915472D01*
X88680000Y-82236446D01*
X88680000Y-82242661D01*
X88707259Y-82344394D01*
X88759920Y-82435606D01*
X88834394Y-82510080D01*
X88925606Y-82562741D01*
X89027339Y-82590000D01*
X89033553Y-82590000D01*
X88354526Y-83269025D01*
X88427513Y-83320132D01*
X88427521Y-83320136D01*
X88633668Y-83416264D01*
X88633682Y-83416269D01*
X88853389Y-83475139D01*
X88853400Y-83475141D01*
X89079998Y-83494966D01*
X89080002Y-83494966D01*
X89306599Y-83475141D01*
X89306610Y-83475139D01*
X89526317Y-83416269D01*
X89526331Y-83416264D01*
X89732478Y-83320136D01*
X89805471Y-83269024D01*
X89126447Y-82590000D01*
X89132661Y-82590000D01*
X89234394Y-82562741D01*
X89325606Y-82510080D01*
X89400080Y-82435606D01*
X89452741Y-82344394D01*
X89480000Y-82242661D01*
X89480000Y-82236447D01*
X90159024Y-82915471D01*
X90210136Y-82842478D01*
X90306264Y-82636331D01*
X90306269Y-82636317D01*
X90365139Y-82416610D01*
X90365141Y-82416599D01*
X90384966Y-82190002D01*
X90384966Y-82189997D01*
X90365141Y-81963400D01*
X90365139Y-81963389D01*
X90306269Y-81743682D01*
X90306264Y-81743668D01*
X90210136Y-81537521D01*
X90210132Y-81537513D01*
X90159025Y-81464526D01*
X89480000Y-82143551D01*
X89480000Y-82137339D01*
X89452741Y-82035606D01*
X89400080Y-81944394D01*
X89325606Y-81869920D01*
X89234394Y-81817259D01*
X89132661Y-81790000D01*
X89126448Y-81790000D01*
X89805472Y-81110974D01*
X89732478Y-81059863D01*
X89526331Y-80963735D01*
X89526317Y-80963730D01*
X89306610Y-80904860D01*
X89306599Y-80904858D01*
X89080002Y-80885034D01*
X89079998Y-80885034D01*
X88853400Y-80904858D01*
X88853389Y-80904860D01*
X88633682Y-80963730D01*
X88633673Y-80963734D01*
X88427516Y-81059866D01*
X88427512Y-81059868D01*
X88354526Y-81110973D01*
X88354526Y-81110974D01*
X89033553Y-81790000D01*
X89027339Y-81790000D01*
X88925606Y-81817259D01*
X88834394Y-81869920D01*
X88759920Y-81944394D01*
X88707259Y-82035606D01*
X88680000Y-82137339D01*
X88680000Y-82143552D01*
X88000974Y-81464526D01*
X88000973Y-81464526D01*
X87949868Y-81537512D01*
X87949866Y-81537516D01*
X87853734Y-81743673D01*
X87853730Y-81743682D01*
X87794860Y-81963389D01*
X87794858Y-81963400D01*
X87775034Y-82189997D01*
X84134966Y-82189997D01*
X84115141Y-81963400D01*
X84115139Y-81963389D01*
X84056269Y-81743682D01*
X84056264Y-81743668D01*
X83960136Y-81537521D01*
X83960132Y-81537513D01*
X83909025Y-81464526D01*
X83230000Y-82143551D01*
X83230000Y-82137339D01*
X83202741Y-82035606D01*
X83150080Y-81944394D01*
X83075606Y-81869920D01*
X82984394Y-81817259D01*
X82882661Y-81790000D01*
X82876448Y-81790000D01*
X83555472Y-81110974D01*
X83482478Y-81059863D01*
X83276331Y-80963735D01*
X83276317Y-80963730D01*
X83056610Y-80904860D01*
X83056599Y-80904858D01*
X82830002Y-80885034D01*
X82829998Y-80885034D01*
X82603400Y-80904858D01*
X82603389Y-80904860D01*
X82383682Y-80963730D01*
X82383673Y-80963734D01*
X82177516Y-81059866D01*
X82177512Y-81059868D01*
X82104526Y-81110973D01*
X82104526Y-81110974D01*
X82783553Y-81790000D01*
X82777339Y-81790000D01*
X82675606Y-81817259D01*
X82584394Y-81869920D01*
X82509920Y-81944394D01*
X82457259Y-82035606D01*
X82430000Y-82137339D01*
X82430000Y-82143552D01*
X81750974Y-81464526D01*
X81750973Y-81464526D01*
X81699868Y-81537512D01*
X81699866Y-81537516D01*
X81603734Y-81743673D01*
X81603730Y-81743682D01*
X81544860Y-81963389D01*
X81544858Y-81963400D01*
X81525034Y-82189997D01*
X74684917Y-82189997D01*
X71366819Y-78871899D01*
X71333334Y-78810576D01*
X71330500Y-78784218D01*
X71330500Y-78649999D01*
X76306249Y-78649999D01*
X76306249Y-78650000D01*
X76325212Y-78854646D01*
X76325212Y-78854648D01*
X76325213Y-78854651D01*
X76381458Y-79052333D01*
X76381459Y-79052336D01*
X76473070Y-79236314D01*
X76596929Y-79400331D01*
X76727592Y-79519444D01*
X76748815Y-79538792D01*
X76923558Y-79646989D01*
X77115208Y-79721234D01*
X77317236Y-79759000D01*
X77317238Y-79759000D01*
X77522762Y-79759000D01*
X77522764Y-79759000D01*
X77724792Y-79721234D01*
X77885766Y-79658873D01*
X77930560Y-79650500D01*
X81468542Y-79650500D01*
X81487870Y-79646655D01*
X81565188Y-79631275D01*
X81661836Y-79612051D01*
X81715165Y-79589961D01*
X81843914Y-79536632D01*
X82007782Y-79427139D01*
X82147139Y-79287782D01*
X82147140Y-79287779D01*
X82154206Y-79280714D01*
X82154209Y-79280710D01*
X82918033Y-78516885D01*
X82979354Y-78483402D01*
X82994898Y-78481041D01*
X83056692Y-78475635D01*
X83276496Y-78416739D01*
X83482734Y-78320568D01*
X83669139Y-78190047D01*
X83830047Y-78029139D01*
X83960568Y-77842734D01*
X84056739Y-77636496D01*
X84115635Y-77416692D01*
X84135468Y-77190000D01*
X84115635Y-76963308D01*
X84056739Y-76743504D01*
X83960568Y-76537266D01*
X83852924Y-76383532D01*
X83830597Y-76317326D01*
X83830500Y-76312410D01*
X83830500Y-74635781D01*
X83850185Y-74568742D01*
X83866815Y-74548104D01*
X84225601Y-74189317D01*
X84286924Y-74155833D01*
X84313282Y-74152999D01*
X84660371Y-74152999D01*
X84660372Y-74152999D01*
X84719983Y-74146591D01*
X84854831Y-74096296D01*
X84970046Y-74010046D01*
X85056296Y-73894831D01*
X85106591Y-73759983D01*
X85113000Y-73700373D01*
X85112999Y-73204687D01*
X85132683Y-73137651D01*
X85185487Y-73091896D01*
X85254646Y-73081952D01*
X85318202Y-73110977D01*
X85355976Y-73169755D01*
X85360470Y-73193246D01*
X85362270Y-73212674D01*
X85420723Y-73418117D01*
X85515927Y-73609312D01*
X85525051Y-73621394D01*
X86070109Y-73076336D01*
X86094644Y-73167904D01*
X86151913Y-73267097D01*
X86232903Y-73348087D01*
X86332096Y-73405356D01*
X86423662Y-73429890D01*
X85881176Y-73972375D01*
X85984084Y-74036094D01*
X85984086Y-74036095D01*
X86183244Y-74113249D01*
X86183254Y-74113252D01*
X86393207Y-74152500D01*
X86606793Y-74152500D01*
X86816745Y-74113252D01*
X86816755Y-74113249D01*
X87015913Y-74036095D01*
X87015917Y-74036093D01*
X87118821Y-73972376D01*
X87118821Y-73972375D01*
X86576338Y-73429890D01*
X86667904Y-73405356D01*
X86767097Y-73348087D01*
X86848087Y-73267097D01*
X86905356Y-73167904D01*
X86929890Y-73076337D01*
X87474947Y-73621393D01*
X87474948Y-73621393D01*
X87484071Y-73609314D01*
X87484073Y-73609309D01*
X87579276Y-73418117D01*
X87637729Y-73212673D01*
X87646277Y-73120429D01*
X87672063Y-73055492D01*
X87728863Y-73014804D01*
X87798644Y-73011284D01*
X87859251Y-73046049D01*
X87891441Y-73108062D01*
X87893219Y-73120428D01*
X87901776Y-73212771D01*
X87901776Y-73212772D01*
X87960251Y-73418291D01*
X87960257Y-73418306D01*
X88055496Y-73609571D01*
X88058517Y-73614449D01*
X88057139Y-73615301D01*
X88079146Y-73673553D01*
X88079500Y-73682919D01*
X88079500Y-76312410D01*
X88059815Y-76379449D01*
X88057076Y-76383532D01*
X87949431Y-76537267D01*
X87853261Y-76743502D01*
X87853258Y-76743511D01*
X87794366Y-76963302D01*
X87794364Y-76963313D01*
X87774532Y-77189998D01*
X87774532Y-77190001D01*
X87794364Y-77416686D01*
X87794366Y-77416697D01*
X87853258Y-77636488D01*
X87853261Y-77636497D01*
X87949431Y-77842732D01*
X87949432Y-77842734D01*
X88079954Y-78029141D01*
X88240858Y-78190045D01*
X88240861Y-78190047D01*
X88427266Y-78320568D01*
X88633504Y-78416739D01*
X88853308Y-78475635D01*
X89015230Y-78489801D01*
X89079998Y-78495468D01*
X89080000Y-78495468D01*
X89080002Y-78495468D01*
X89136673Y-78490509D01*
X89306692Y-78475635D01*
X89526496Y-78416739D01*
X89732734Y-78320568D01*
X89886465Y-78212924D01*
X89952671Y-78190598D01*
X89957588Y-78190500D01*
X93955857Y-78190500D01*
X93987949Y-78194724D01*
X94103308Y-78225635D01*
X94265230Y-78239801D01*
X94329998Y-78245468D01*
X94330000Y-78245468D01*
X94330002Y-78245468D01*
X94386673Y-78240509D01*
X94556692Y-78225635D01*
X94776496Y-78166739D01*
X94982734Y-78070568D01*
X95169139Y-77940047D01*
X95330047Y-77779139D01*
X95460568Y-77592734D01*
X95556739Y-77386496D01*
X95615635Y-77166692D01*
X95635468Y-76940000D01*
X95615635Y-76713308D01*
X95556739Y-76493504D01*
X95460568Y-76287266D01*
X95330047Y-76100861D01*
X95330045Y-76100858D01*
X95169141Y-75939954D01*
X94982734Y-75809432D01*
X94982732Y-75809431D01*
X94776497Y-75713261D01*
X94776488Y-75713258D01*
X94556697Y-75654366D01*
X94556693Y-75654365D01*
X94556692Y-75654365D01*
X94556691Y-75654364D01*
X94556686Y-75654364D01*
X94330002Y-75634532D01*
X94329998Y-75634532D01*
X94103313Y-75654364D01*
X94103302Y-75654366D01*
X93883511Y-75713258D01*
X93883502Y-75713261D01*
X93677267Y-75809431D01*
X93677265Y-75809432D01*
X93490858Y-75939954D01*
X93329954Y-76100858D01*
X93304912Y-76136623D01*
X93250335Y-76180248D01*
X93203337Y-76189500D01*
X90204500Y-76189500D01*
X90137461Y-76169815D01*
X90091706Y-76117011D01*
X90080500Y-76065500D01*
X90080500Y-73526278D01*
X90093500Y-73471006D01*
X90119747Y-73418296D01*
X90178224Y-73212771D01*
X90197940Y-73000000D01*
X90178224Y-72787229D01*
X90119747Y-72581704D01*
X90119742Y-72581693D01*
X90024503Y-72390428D01*
X90024498Y-72390420D01*
X89895726Y-72219898D01*
X89737815Y-72075944D01*
X89737813Y-72075942D01*
X89556141Y-71963456D01*
X89556135Y-71963453D01*
X89399097Y-71902617D01*
X89356885Y-71886264D01*
X89146841Y-71847000D01*
X88933159Y-71847000D01*
X88723115Y-71886264D01*
X88723112Y-71886264D01*
X88723112Y-71886265D01*
X88523864Y-71963453D01*
X88523858Y-71963456D01*
X88342186Y-72075942D01*
X88342184Y-72075944D01*
X88184273Y-72219898D01*
X88055501Y-72390420D01*
X88055496Y-72390428D01*
X87960257Y-72581693D01*
X87960251Y-72581708D01*
X87901776Y-72787227D01*
X87901776Y-72787229D01*
X87893219Y-72879571D01*
X87867433Y-72944508D01*
X87810632Y-72985195D01*
X87740851Y-72988715D01*
X87680245Y-72953949D01*
X87648055Y-72891937D01*
X87646277Y-72879570D01*
X87637729Y-72787326D01*
X87579276Y-72581880D01*
X87579275Y-72581879D01*
X87484078Y-72390697D01*
X87484071Y-72390685D01*
X87474947Y-72378604D01*
X86929890Y-72923662D01*
X86905356Y-72832096D01*
X86848087Y-72732903D01*
X86767097Y-72651913D01*
X86667904Y-72594644D01*
X86576337Y-72570109D01*
X87118822Y-72027623D01*
X87015915Y-71963905D01*
X87015913Y-71963904D01*
X86816755Y-71886750D01*
X86816745Y-71886747D01*
X86606793Y-71847500D01*
X86393207Y-71847500D01*
X86183254Y-71886747D01*
X86183253Y-71886747D01*
X85984088Y-71963903D01*
X85984082Y-71963906D01*
X85881177Y-72027622D01*
X85881176Y-72027623D01*
X86423663Y-72570109D01*
X86332096Y-72594644D01*
X86232903Y-72651913D01*
X86151913Y-72732903D01*
X86094644Y-72832096D01*
X86070109Y-72923662D01*
X85525051Y-72378604D01*
X85515928Y-72390685D01*
X85420723Y-72581882D01*
X85362270Y-72787325D01*
X85360470Y-72806755D01*
X85334683Y-72871692D01*
X85277881Y-72912379D01*
X85208100Y-72915898D01*
X85147494Y-72881131D01*
X85115306Y-72819118D01*
X85112999Y-72795312D01*
X85112999Y-72299629D01*
X85112998Y-72299623D01*
X85112997Y-72299616D01*
X85106591Y-72240017D01*
X85099088Y-72219901D01*
X85056297Y-72105171D01*
X85056293Y-72105164D01*
X84970047Y-71989955D01*
X84970044Y-71989952D01*
X84854835Y-71903706D01*
X84854828Y-71903702D01*
X84719982Y-71853408D01*
X84719983Y-71853408D01*
X84660383Y-71847001D01*
X84660381Y-71847000D01*
X84660373Y-71847000D01*
X84660364Y-71847000D01*
X83259629Y-71847000D01*
X83259623Y-71847001D01*
X83200016Y-71853408D01*
X83065171Y-71903702D01*
X83065164Y-71903706D01*
X82949955Y-71989952D01*
X82949952Y-71989955D01*
X82863706Y-72105164D01*
X82863702Y-72105171D01*
X82813408Y-72240017D01*
X82807001Y-72299616D01*
X82807001Y-72299623D01*
X82807000Y-72299635D01*
X82807000Y-72726717D01*
X82787315Y-72793756D01*
X82770681Y-72814398D01*
X82192221Y-73392858D01*
X82192218Y-73392861D01*
X82150079Y-73435000D01*
X82052859Y-73532219D01*
X81943371Y-73696079D01*
X81943364Y-73696092D01*
X81867950Y-73878160D01*
X81867947Y-73878170D01*
X81829500Y-74071456D01*
X81829500Y-76312410D01*
X81809815Y-76379449D01*
X81807076Y-76383532D01*
X81699431Y-76537267D01*
X81603261Y-76743502D01*
X81603258Y-76743511D01*
X81544366Y-76963302D01*
X81544364Y-76963311D01*
X81538958Y-77025096D01*
X81513504Y-77090164D01*
X81503111Y-77101967D01*
X80991899Y-77613181D01*
X80930576Y-77646666D01*
X80904218Y-77649500D01*
X77930560Y-77649500D01*
X77885766Y-77641127D01*
X77813628Y-77613181D01*
X77724792Y-77578766D01*
X77522764Y-77541000D01*
X77317236Y-77541000D01*
X77115208Y-77578766D01*
X77115205Y-77578766D01*
X77115205Y-77578767D01*
X76923558Y-77653010D01*
X76923557Y-77653011D01*
X76748813Y-77761209D01*
X76596929Y-77899668D01*
X76473070Y-78063685D01*
X76381459Y-78247663D01*
X76381458Y-78247667D01*
X76333354Y-78416738D01*
X76325212Y-78445353D01*
X76306249Y-78649999D01*
X71330500Y-78649999D01*
X71330500Y-77964141D01*
X71350185Y-77897102D01*
X71402989Y-77851347D01*
X71411149Y-77847966D01*
X71422331Y-77843796D01*
X71423753Y-77842732D01*
X71460447Y-77815261D01*
X71537546Y-77757546D01*
X71623796Y-77642331D01*
X71674091Y-77507483D01*
X71680500Y-77447873D01*
X71680499Y-75652128D01*
X71674091Y-75592517D01*
X71623796Y-75457669D01*
X71623795Y-75457668D01*
X71623793Y-75457664D01*
X71537547Y-75342455D01*
X71537544Y-75342452D01*
X71422335Y-75256206D01*
X71422328Y-75256202D01*
X71290401Y-75206997D01*
X71234467Y-75165126D01*
X71210050Y-75099662D01*
X71224902Y-75031389D01*
X71246053Y-75003133D01*
X71368108Y-74881078D01*
X71503600Y-74687578D01*
X71603429Y-74473492D01*
X71603432Y-74473486D01*
X71660636Y-74260000D01*
X70763012Y-74260000D01*
X70795925Y-74202993D01*
X70830000Y-74075826D01*
X70830000Y-73944174D01*
X70795925Y-73817007D01*
X70763012Y-73760000D01*
X71660636Y-73760000D01*
X71660635Y-73759999D01*
X71603432Y-73546513D01*
X71603429Y-73546507D01*
X71503600Y-73332422D01*
X71503599Y-73332420D01*
X71368113Y-73138926D01*
X71368108Y-73138920D01*
X71201082Y-72971894D01*
X71007578Y-72836399D01*
X70793492Y-72736570D01*
X70793486Y-72736567D01*
X70580000Y-72679364D01*
X70580000Y-73576988D01*
X70522993Y-73544075D01*
X70395826Y-73510000D01*
X70264174Y-73510000D01*
X70137007Y-73544075D01*
X70080000Y-73576988D01*
X70080000Y-72679364D01*
X70079999Y-72679364D01*
X69866513Y-72736567D01*
X69866507Y-72736570D01*
X69652422Y-72836399D01*
X69652420Y-72836400D01*
X69458926Y-72971886D01*
X69458920Y-72971891D01*
X69291891Y-73138920D01*
X69291886Y-73138926D01*
X69156400Y-73332420D01*
X69156399Y-73332422D01*
X69056570Y-73546507D01*
X69056567Y-73546513D01*
X68999364Y-73759999D01*
X68999364Y-73760000D01*
X69896988Y-73760000D01*
X69864075Y-73817007D01*
X69830000Y-73944174D01*
X69830000Y-74075826D01*
X69864075Y-74202993D01*
X69896988Y-74260000D01*
X68999364Y-74260000D01*
X69056567Y-74473486D01*
X69056570Y-74473492D01*
X69156399Y-74687578D01*
X69291894Y-74881082D01*
X69413946Y-75003134D01*
X69447431Y-75064457D01*
X69442447Y-75134149D01*
X69400575Y-75190082D01*
X69369598Y-75206997D01*
X69237671Y-75256202D01*
X69237664Y-75256206D01*
X69122455Y-75342452D01*
X69122452Y-75342455D01*
X69036206Y-75457664D01*
X69036202Y-75457671D01*
X68985908Y-75592517D01*
X68979501Y-75652116D01*
X68979501Y-75652123D01*
X68979500Y-75652135D01*
X65500000Y-75652135D01*
X65500000Y-75054291D01*
X65519685Y-74987252D01*
X65539890Y-74963178D01*
X75115667Y-66124000D01*
X75214376Y-66032884D01*
X75276989Y-66001877D01*
X75298483Y-66000000D01*
X116126000Y-66000000D01*
X116193039Y-66019685D01*
G37*
G04 #@! TD.AperFunction*
G04 #@! TA.AperFunction,Conductor*
G36*
X79943039Y-41519685D02*
G01*
X79988794Y-41572489D01*
X80000000Y-41624000D01*
X80000000Y-64376000D01*
X79980315Y-64443039D01*
X79927511Y-64488794D01*
X79876000Y-64500000D01*
X74000000Y-64500000D01*
X73999999Y-64500000D01*
X73999998Y-64500001D01*
X63500000Y-73500000D01*
X63500000Y-88698638D01*
X63480315Y-88765677D01*
X63463681Y-88786319D01*
X62536319Y-89713681D01*
X62474996Y-89747166D01*
X62448638Y-89750000D01*
X60801362Y-89750000D01*
X60734323Y-89730315D01*
X60713681Y-89713681D01*
X59786319Y-88786319D01*
X59752834Y-88724996D01*
X59750000Y-88698638D01*
X59750000Y-84000000D01*
X58500000Y-82750000D01*
X54801362Y-82750000D01*
X54734323Y-82730315D01*
X54713681Y-82713681D01*
X54036319Y-82036319D01*
X54002834Y-81974996D01*
X54000000Y-81948638D01*
X54000000Y-51281421D01*
X60800000Y-51281421D01*
X60800000Y-52000000D01*
X62550000Y-52000000D01*
X62550000Y-52500000D01*
X60800001Y-52500000D01*
X60800001Y-53218588D01*
X60802794Y-53271191D01*
X60847237Y-53500987D01*
X60929879Y-53719975D01*
X61048339Y-53921841D01*
X61048344Y-53921848D01*
X61199211Y-54100786D01*
X61199213Y-54100788D01*
X61378151Y-54251655D01*
X61378158Y-54251660D01*
X61580024Y-54370120D01*
X61799012Y-54452762D01*
X62028809Y-54497205D01*
X62081382Y-54499998D01*
X62081421Y-54499999D01*
X62799999Y-54499999D01*
X62800000Y-54499998D01*
X62800000Y-53683012D01*
X62857007Y-53715925D01*
X62984174Y-53750000D01*
X63115826Y-53750000D01*
X63242993Y-53715925D01*
X63300000Y-53683012D01*
X63300000Y-54499999D01*
X64018576Y-54499999D01*
X64018588Y-54499998D01*
X64071191Y-54497205D01*
X64300987Y-54452762D01*
X64519975Y-54370120D01*
X64721841Y-54251660D01*
X64721848Y-54251655D01*
X64900786Y-54100788D01*
X64900788Y-54100786D01*
X65051655Y-53921848D01*
X65051660Y-53921841D01*
X65170120Y-53719975D01*
X65252762Y-53500986D01*
X65253756Y-53495851D01*
X65285811Y-53433769D01*
X65346342Y-53398872D01*
X65416130Y-53402240D01*
X65473019Y-53442805D01*
X65498946Y-53507686D01*
X65499500Y-53519395D01*
X65499500Y-57047870D01*
X65499501Y-57047876D01*
X65505908Y-57107483D01*
X65556202Y-57242328D01*
X65556206Y-57242335D01*
X65642452Y-57357544D01*
X65642455Y-57357547D01*
X65757664Y-57443793D01*
X65757671Y-57443797D01*
X65892517Y-57494091D01*
X65892516Y-57494091D01*
X65899444Y-57494835D01*
X65952127Y-57500500D01*
X68100500Y-57500499D01*
X68167539Y-57520184D01*
X68213294Y-57572987D01*
X68224500Y-57624499D01*
X68224500Y-60025500D01*
X68204815Y-60092539D01*
X68152011Y-60138294D01*
X68105389Y-60148450D01*
X68105423Y-60149099D01*
X68105429Y-60149146D01*
X68105426Y-60149146D01*
X68105436Y-60149324D01*
X68102123Y-60149501D01*
X68042516Y-60155908D01*
X67907671Y-60206202D01*
X67907664Y-60206206D01*
X67792455Y-60292452D01*
X67792452Y-60292455D01*
X67706206Y-60407664D01*
X67706202Y-60407671D01*
X67656997Y-60539598D01*
X67615126Y-60595532D01*
X67549661Y-60619949D01*
X67481388Y-60605097D01*
X67453134Y-60583946D01*
X67331082Y-60461894D01*
X67137578Y-60326399D01*
X66923492Y-60226570D01*
X66923486Y-60226567D01*
X66710000Y-60169364D01*
X66710000Y-61066988D01*
X66652993Y-61034075D01*
X66525826Y-61000000D01*
X66394174Y-61000000D01*
X66267007Y-61034075D01*
X66210000Y-61066988D01*
X66210000Y-60169364D01*
X66209999Y-60169364D01*
X65996513Y-60226567D01*
X65996507Y-60226570D01*
X65782422Y-60326399D01*
X65782420Y-60326400D01*
X65588926Y-60461886D01*
X65588920Y-60461891D01*
X65421891Y-60628920D01*
X65421886Y-60628926D01*
X65286400Y-60822420D01*
X65286399Y-60822422D01*
X65186570Y-61036507D01*
X65186567Y-61036513D01*
X65129364Y-61249999D01*
X65129364Y-61250000D01*
X66026988Y-61250000D01*
X65994075Y-61307007D01*
X65960000Y-61434174D01*
X65960000Y-61565826D01*
X65994075Y-61692993D01*
X66026988Y-61750000D01*
X65129364Y-61750000D01*
X65186567Y-61963486D01*
X65186570Y-61963492D01*
X65286399Y-62177578D01*
X65421894Y-62371082D01*
X65588917Y-62538105D01*
X65782421Y-62673600D01*
X65996507Y-62773429D01*
X65996516Y-62773433D01*
X66210000Y-62830634D01*
X66210000Y-61933012D01*
X66267007Y-61965925D01*
X66394174Y-62000000D01*
X66525826Y-62000000D01*
X66652993Y-61965925D01*
X66710000Y-61933012D01*
X66710000Y-62830633D01*
X66923483Y-62773433D01*
X66923492Y-62773429D01*
X67137578Y-62673600D01*
X67331078Y-62538108D01*
X67453133Y-62416053D01*
X67514456Y-62382568D01*
X67584148Y-62387552D01*
X67640082Y-62429423D01*
X67656997Y-62460401D01*
X67706202Y-62592328D01*
X67706206Y-62592335D01*
X67792452Y-62707544D01*
X67792455Y-62707547D01*
X67907664Y-62793793D01*
X67907671Y-62793797D01*
X68042517Y-62844091D01*
X68042516Y-62844091D01*
X68049444Y-62844835D01*
X68102127Y-62850500D01*
X69897872Y-62850499D01*
X69957483Y-62844091D01*
X70092331Y-62793796D01*
X70207546Y-62707546D01*
X70293796Y-62592331D01*
X70344091Y-62457483D01*
X70350500Y-62397873D01*
X70350499Y-60602128D01*
X70344091Y-60542517D01*
X70343002Y-60539598D01*
X70293797Y-60407671D01*
X70293795Y-60407668D01*
X70250233Y-60349476D01*
X70225816Y-60284011D01*
X70225500Y-60275165D01*
X70225500Y-56401456D01*
X70187052Y-56208170D01*
X70187051Y-56208169D01*
X70187051Y-56208165D01*
X70187049Y-56208160D01*
X70111635Y-56026092D01*
X70111628Y-56026079D01*
X70021397Y-55891039D01*
X70000519Y-55824361D01*
X70000499Y-55822148D01*
X70000499Y-55690782D01*
X70020184Y-55623743D01*
X70036818Y-55603101D01*
X74353101Y-51286819D01*
X74414424Y-51253334D01*
X74440782Y-51250500D01*
X76601460Y-51250500D01*
X76644793Y-51258318D01*
X76764598Y-51303002D01*
X76820532Y-51344873D01*
X76844949Y-51410337D01*
X76830098Y-51478610D01*
X76808947Y-51506865D01*
X76686886Y-51628926D01*
X76551400Y-51822420D01*
X76551399Y-51822422D01*
X76451570Y-52036507D01*
X76451567Y-52036513D01*
X76394364Y-52249999D01*
X76394364Y-52250000D01*
X77291988Y-52250000D01*
X77259075Y-52307007D01*
X77225000Y-52434174D01*
X77225000Y-52565826D01*
X77259075Y-52692993D01*
X77291988Y-52750000D01*
X76394364Y-52750000D01*
X76451567Y-52963486D01*
X76451570Y-52963492D01*
X76551399Y-53177578D01*
X76686894Y-53371082D01*
X76853917Y-53538105D01*
X77047421Y-53673600D01*
X77261507Y-53773429D01*
X77261516Y-53773433D01*
X77475000Y-53830634D01*
X77475000Y-52933012D01*
X77532007Y-52965925D01*
X77659174Y-53000000D01*
X77790826Y-53000000D01*
X77917993Y-52965925D01*
X77975000Y-52933012D01*
X77975000Y-53830633D01*
X78188483Y-53773433D01*
X78188492Y-53773429D01*
X78402578Y-53673600D01*
X78596082Y-53538105D01*
X78763105Y-53371082D01*
X78898600Y-53177578D01*
X78998429Y-52963492D01*
X78998432Y-52963486D01*
X79055636Y-52750000D01*
X78158012Y-52750000D01*
X78190925Y-52692993D01*
X78225000Y-52565826D01*
X78225000Y-52434174D01*
X78190925Y-52307007D01*
X78158012Y-52250000D01*
X79055636Y-52250000D01*
X79055635Y-52249999D01*
X78998432Y-52036513D01*
X78998429Y-52036507D01*
X78898600Y-51822422D01*
X78898599Y-51822420D01*
X78763113Y-51628926D01*
X78763108Y-51628920D01*
X78641053Y-51506865D01*
X78607568Y-51445542D01*
X78612552Y-51375850D01*
X78654424Y-51319917D01*
X78685400Y-51303002D01*
X78817331Y-51253796D01*
X78932546Y-51167546D01*
X79018796Y-51052331D01*
X79069091Y-50917483D01*
X79075500Y-50857873D01*
X79075499Y-49062128D01*
X79069091Y-49002517D01*
X79068152Y-49000000D01*
X79018797Y-48867671D01*
X79018793Y-48867664D01*
X78932547Y-48752455D01*
X78932544Y-48752452D01*
X78817335Y-48666206D01*
X78817328Y-48666202D01*
X78682482Y-48615908D01*
X78682483Y-48615908D01*
X78622883Y-48609501D01*
X78622881Y-48609500D01*
X78622873Y-48609500D01*
X78622864Y-48609500D01*
X76827129Y-48609500D01*
X76827123Y-48609501D01*
X76767516Y-48615908D01*
X76632671Y-48666202D01*
X76632664Y-48666206D01*
X76517455Y-48752452D01*
X76517452Y-48752455D01*
X76431206Y-48867664D01*
X76431202Y-48867671D01*
X76380908Y-49002517D01*
X76375050Y-49057007D01*
X76374501Y-49062123D01*
X76374500Y-49062135D01*
X76374500Y-49125500D01*
X76354815Y-49192539D01*
X76302011Y-49238294D01*
X76250500Y-49249500D01*
X73876455Y-49249500D01*
X73779812Y-49268724D01*
X73683167Y-49287947D01*
X73683161Y-49287949D01*
X73629834Y-49310037D01*
X73629834Y-49310038D01*
X73615861Y-49315826D01*
X73501089Y-49363366D01*
X73501079Y-49363371D01*
X73337219Y-49472859D01*
X73267540Y-49542538D01*
X73197861Y-49612218D01*
X73197858Y-49612221D01*
X69807088Y-53002990D01*
X69745765Y-53036475D01*
X69676075Y-53031491D01*
X69607485Y-53005909D01*
X69607483Y-53005908D01*
X69547883Y-52999501D01*
X69547881Y-52999500D01*
X69547873Y-52999500D01*
X69547864Y-52999500D01*
X65952129Y-52999500D01*
X65952123Y-52999501D01*
X65892516Y-53005908D01*
X65757671Y-53056202D01*
X65757664Y-53056206D01*
X65642455Y-53142452D01*
X65642452Y-53142455D01*
X65556206Y-53257664D01*
X65556202Y-53257671D01*
X65537988Y-53306507D01*
X65496117Y-53362441D01*
X65430652Y-53386858D01*
X65362379Y-53372006D01*
X65312974Y-53322601D01*
X65297981Y-53256594D01*
X65299999Y-53218615D01*
X65300000Y-53218578D01*
X65300000Y-52500000D01*
X63550000Y-52500000D01*
X63550000Y-52000000D01*
X65299999Y-52000000D01*
X65299999Y-51281423D01*
X65299998Y-51281411D01*
X65297205Y-51228808D01*
X65252762Y-50999012D01*
X65170120Y-50780024D01*
X65051660Y-50578158D01*
X65051655Y-50578151D01*
X64900788Y-50399213D01*
X64900786Y-50399211D01*
X64721848Y-50248344D01*
X64721841Y-50248339D01*
X64519975Y-50129879D01*
X64300987Y-50047237D01*
X64071190Y-50002794D01*
X64018617Y-50000001D01*
X64018579Y-50000000D01*
X63300000Y-50000000D01*
X63300000Y-50816988D01*
X63242993Y-50784075D01*
X63115826Y-50750000D01*
X62984174Y-50750000D01*
X62857007Y-50784075D01*
X62800000Y-50816988D01*
X62800000Y-50000000D01*
X62081423Y-50000000D01*
X62081411Y-50000001D01*
X62028808Y-50002794D01*
X61799012Y-50047237D01*
X61580024Y-50129879D01*
X61378158Y-50248339D01*
X61378151Y-50248344D01*
X61199213Y-50399211D01*
X61199211Y-50399213D01*
X61048344Y-50578151D01*
X61048339Y-50578158D01*
X60929879Y-50780024D01*
X60847237Y-50999012D01*
X60802794Y-51228808D01*
X60802794Y-51228809D01*
X60800001Y-51281382D01*
X60800000Y-51281421D01*
X54000000Y-51281421D01*
X54000000Y-48801362D01*
X54019685Y-48734323D01*
X54036319Y-48713681D01*
X54314197Y-48435803D01*
X65500000Y-48435803D01*
X65500000Y-49000000D01*
X66316988Y-49000000D01*
X66284075Y-49057007D01*
X66250000Y-49184174D01*
X66250000Y-49315826D01*
X66284075Y-49442993D01*
X66316988Y-49500000D01*
X65500001Y-49500000D01*
X65500001Y-50064197D01*
X65510400Y-50196332D01*
X65565377Y-50414519D01*
X65658428Y-50619374D01*
X65658431Y-50619380D01*
X65786559Y-50804323D01*
X65786569Y-50804335D01*
X65945664Y-50963430D01*
X65945676Y-50963440D01*
X66130619Y-51091568D01*
X66130625Y-51091571D01*
X66335480Y-51184622D01*
X66553667Y-51239599D01*
X66685810Y-51249999D01*
X67499999Y-51249999D01*
X67500000Y-51249998D01*
X67500000Y-49750000D01*
X68000000Y-49750000D01*
X68000000Y-51249999D01*
X68814182Y-51249999D01*
X68814197Y-51249998D01*
X68946332Y-51239599D01*
X69164519Y-51184622D01*
X69369374Y-51091571D01*
X69369380Y-51091568D01*
X69554323Y-50963440D01*
X69554335Y-50963430D01*
X69713430Y-50804335D01*
X69713440Y-50804323D01*
X69841568Y-50619380D01*
X69841571Y-50619374D01*
X69934622Y-50414519D01*
X69989599Y-50196332D01*
X69999999Y-50064196D01*
X70000000Y-50064184D01*
X70000000Y-49500000D01*
X69183012Y-49500000D01*
X69215925Y-49442993D01*
X69250000Y-49315826D01*
X69250000Y-49184174D01*
X69215925Y-49057007D01*
X69183012Y-49000000D01*
X69999999Y-49000000D01*
X69999999Y-48435817D01*
X69999998Y-48435802D01*
X69989599Y-48303667D01*
X69934622Y-48085480D01*
X69841571Y-47880625D01*
X69841568Y-47880619D01*
X69713440Y-47695676D01*
X69713430Y-47695664D01*
X69554335Y-47536569D01*
X69554323Y-47536559D01*
X69369380Y-47408431D01*
X69369374Y-47408428D01*
X69164519Y-47315377D01*
X68946332Y-47260400D01*
X68814196Y-47250000D01*
X68000000Y-47250000D01*
X68000000Y-48750000D01*
X67500000Y-48750000D01*
X67500000Y-47250000D01*
X66685817Y-47250000D01*
X66685802Y-47250001D01*
X66553667Y-47260400D01*
X66335480Y-47315377D01*
X66130625Y-47408428D01*
X66130619Y-47408431D01*
X65945676Y-47536559D01*
X65945664Y-47536569D01*
X65786569Y-47695664D01*
X65786559Y-47695676D01*
X65658431Y-47880619D01*
X65658428Y-47880625D01*
X65565377Y-48085480D01*
X65510400Y-48303667D01*
X65500000Y-48435803D01*
X54314197Y-48435803D01*
X54463681Y-48286319D01*
X54525004Y-48252834D01*
X54551362Y-48250000D01*
X60250000Y-48250000D01*
X61000000Y-47750000D01*
X61000000Y-41624000D01*
X61019685Y-41556961D01*
X61072489Y-41511206D01*
X61124000Y-41500000D01*
X79876000Y-41500000D01*
X79943039Y-41519685D01*
G37*
G04 #@! TD.AperFunction*
G04 #@! TA.AperFunction,Conductor*
G36*
X141523542Y-41769685D02*
G01*
X141533965Y-41777172D01*
X142703462Y-42712770D01*
X142743514Y-42770020D01*
X142750000Y-42809597D01*
X142750000Y-45000000D01*
X142750001Y-45000001D01*
X145249999Y-47750000D01*
X145250000Y-47750000D01*
X148698638Y-47750000D01*
X148765677Y-47769685D01*
X148786319Y-47786319D01*
X149463681Y-48463681D01*
X149497166Y-48525004D01*
X149500000Y-48551362D01*
X149500000Y-82698638D01*
X149480315Y-82765677D01*
X149463681Y-82786319D01*
X148536319Y-83713681D01*
X148474996Y-83747166D01*
X148448638Y-83750000D01*
X142749999Y-83750000D01*
X141750000Y-84749999D01*
X141750000Y-88448638D01*
X141730315Y-88515677D01*
X141713681Y-88536319D01*
X141036319Y-89213681D01*
X140974996Y-89247166D01*
X140948638Y-89250000D01*
X119316363Y-89250000D01*
X119249324Y-89230315D01*
X119213189Y-89194783D01*
X118770826Y-88531239D01*
X118750018Y-88464540D01*
X118750000Y-88462456D01*
X118750000Y-72849999D01*
X125211127Y-72849999D01*
X125211128Y-72850000D01*
X126174314Y-72850000D01*
X126169920Y-72854394D01*
X126117259Y-72945606D01*
X126090000Y-73047339D01*
X126090000Y-73152661D01*
X126117259Y-73254394D01*
X126169920Y-73345606D01*
X126174314Y-73350000D01*
X125211128Y-73350000D01*
X125263730Y-73546317D01*
X125263734Y-73546326D01*
X125359865Y-73752482D01*
X125490342Y-73938820D01*
X125651179Y-74099657D01*
X125837517Y-74230134D01*
X126043673Y-74326265D01*
X126043682Y-74326269D01*
X126239999Y-74378872D01*
X126240000Y-74378871D01*
X126240000Y-73415686D01*
X126244394Y-73420080D01*
X126335606Y-73472741D01*
X126437339Y-73500000D01*
X126542661Y-73500000D01*
X126644394Y-73472741D01*
X126735606Y-73420080D01*
X126740000Y-73415686D01*
X126740000Y-74378872D01*
X126936317Y-74326269D01*
X126936326Y-74326265D01*
X127142482Y-74230134D01*
X127328820Y-74099657D01*
X127489657Y-73938820D01*
X127620134Y-73752482D01*
X127716265Y-73546326D01*
X127716269Y-73546317D01*
X127768872Y-73350000D01*
X126805686Y-73350000D01*
X126810080Y-73345606D01*
X126862741Y-73254394D01*
X126890000Y-73152661D01*
X126890000Y-73047339D01*
X126862741Y-72945606D01*
X126810080Y-72854394D01*
X126805686Y-72850000D01*
X127768872Y-72850000D01*
X127768872Y-72849999D01*
X127716269Y-72653682D01*
X127716265Y-72653673D01*
X127620134Y-72447517D01*
X127489657Y-72261179D01*
X127328820Y-72100342D01*
X127142482Y-71969865D01*
X126936328Y-71873734D01*
X126740000Y-71821127D01*
X126740000Y-72784314D01*
X126735606Y-72779920D01*
X126644394Y-72727259D01*
X126542661Y-72700000D01*
X126437339Y-72700000D01*
X126335606Y-72727259D01*
X126244394Y-72779920D01*
X126240000Y-72784314D01*
X126240000Y-71821127D01*
X126043671Y-71873734D01*
X125837517Y-71969865D01*
X125651179Y-72100342D01*
X125490342Y-72261179D01*
X125359865Y-72447517D01*
X125263734Y-72653673D01*
X125263730Y-72653682D01*
X125211127Y-72849999D01*
X118750000Y-72849999D01*
X118750000Y-67199999D01*
X126606249Y-67199999D01*
X126606249Y-67200000D01*
X126625212Y-67404646D01*
X126681459Y-67602336D01*
X126773070Y-67786314D01*
X126896929Y-67950331D01*
X127007178Y-68050835D01*
X127048815Y-68088792D01*
X127223558Y-68196989D01*
X127415208Y-68271234D01*
X127617236Y-68309000D01*
X127617238Y-68309000D01*
X127822762Y-68309000D01*
X127822764Y-68309000D01*
X128024792Y-68271234D01*
X128216442Y-68196989D01*
X128391185Y-68088792D01*
X128543072Y-67950329D01*
X128666930Y-67786314D01*
X128758542Y-67602333D01*
X128814787Y-67404651D01*
X128833751Y-67200000D01*
X128833751Y-67199999D01*
X129146249Y-67199999D01*
X129146249Y-67200000D01*
X129165212Y-67404646D01*
X129221459Y-67602336D01*
X129313070Y-67786314D01*
X129436929Y-67950331D01*
X129547178Y-68050835D01*
X129588815Y-68088792D01*
X129763558Y-68196989D01*
X129955208Y-68271234D01*
X130157236Y-68309000D01*
X130157238Y-68309000D01*
X130362762Y-68309000D01*
X130362764Y-68309000D01*
X130564792Y-68271234D01*
X130756442Y-68196989D01*
X130931185Y-68088792D01*
X131083072Y-67950329D01*
X131206930Y-67786314D01*
X131298542Y-67602333D01*
X131354787Y-67404651D01*
X131373751Y-67200000D01*
X131354787Y-66995349D01*
X131298542Y-66797667D01*
X131273499Y-66747375D01*
X131260500Y-66692104D01*
X131260500Y-66543635D01*
X131691000Y-66543635D01*
X131691000Y-67856370D01*
X131691001Y-67856376D01*
X131697408Y-67915983D01*
X131747702Y-68050828D01*
X131747706Y-68050835D01*
X131833952Y-68166044D01*
X131833955Y-68166047D01*
X131949164Y-68252293D01*
X131949171Y-68252297D01*
X131994118Y-68269061D01*
X132084017Y-68302591D01*
X132143627Y-68309000D01*
X132442717Y-68308999D01*
X132509756Y-68328683D01*
X132530398Y-68345318D01*
X133073181Y-68888101D01*
X133106666Y-68949424D01*
X133109500Y-68975782D01*
X133109500Y-72222410D01*
X133089815Y-72289449D01*
X133087076Y-72293532D01*
X132979431Y-72447267D01*
X132883261Y-72653502D01*
X132883258Y-72653511D01*
X132824366Y-72873302D01*
X132824364Y-72873313D01*
X132804532Y-73099998D01*
X132804532Y-73100001D01*
X132824364Y-73326686D01*
X132824366Y-73326697D01*
X132883258Y-73546488D01*
X132883261Y-73546497D01*
X132979431Y-73752732D01*
X132979432Y-73752734D01*
X133109954Y-73939141D01*
X133270858Y-74100045D01*
X133270861Y-74100047D01*
X133457266Y-74230568D01*
X133663504Y-74326739D01*
X133883308Y-74385635D01*
X134045230Y-74399801D01*
X134109998Y-74405468D01*
X134110000Y-74405468D01*
X134110002Y-74405468D01*
X134166673Y-74400509D01*
X134336692Y-74385635D01*
X134556496Y-74326739D01*
X134762734Y-74230568D01*
X134949139Y-74100047D01*
X135110047Y-73939139D01*
X135240568Y-73752734D01*
X135336739Y-73546496D01*
X135395635Y-73326692D01*
X135415468Y-73100000D01*
X135410907Y-73047873D01*
X135400651Y-72930644D01*
X135395635Y-72873308D01*
X135336739Y-72653504D01*
X135240568Y-72447266D01*
X135132924Y-72293532D01*
X135110597Y-72227326D01*
X135110500Y-72222410D01*
X135110500Y-68411456D01*
X135072052Y-68218170D01*
X135072051Y-68218169D01*
X135072051Y-68218165D01*
X135050462Y-68166044D01*
X134996635Y-68036092D01*
X134996628Y-68036079D01*
X134887140Y-67872219D01*
X134871291Y-67856370D01*
X134747782Y-67732861D01*
X134747781Y-67732860D01*
X133945318Y-66930397D01*
X133911833Y-66869074D01*
X133908999Y-66842716D01*
X133908999Y-66543629D01*
X133908998Y-66543623D01*
X133908997Y-66543616D01*
X133902591Y-66484017D01*
X133852296Y-66349169D01*
X133852295Y-66349168D01*
X133852293Y-66349164D01*
X133766047Y-66233955D01*
X133766044Y-66233952D01*
X133650835Y-66147706D01*
X133650828Y-66147702D01*
X133515982Y-66097408D01*
X133515983Y-66097408D01*
X133456383Y-66091001D01*
X133456381Y-66091000D01*
X133456373Y-66091000D01*
X133456364Y-66091000D01*
X132143629Y-66091000D01*
X132143623Y-66091001D01*
X132084016Y-66097408D01*
X131949171Y-66147702D01*
X131949164Y-66147706D01*
X131833955Y-66233952D01*
X131833952Y-66233955D01*
X131747706Y-66349164D01*
X131747702Y-66349171D01*
X131697408Y-66484017D01*
X131691001Y-66543616D01*
X131691001Y-66543623D01*
X131691000Y-66543635D01*
X131260500Y-66543635D01*
X131260500Y-64705782D01*
X131280185Y-64638743D01*
X131296819Y-64618101D01*
X131478102Y-64436819D01*
X131539425Y-64403334D01*
X131565783Y-64400500D01*
X139598542Y-64400500D01*
X139617870Y-64396655D01*
X139695188Y-64381275D01*
X139791836Y-64362051D01*
X139848596Y-64338540D01*
X139973914Y-64286632D01*
X140137782Y-64177139D01*
X140277139Y-64037782D01*
X140277139Y-64037780D01*
X140287347Y-64027573D01*
X140287348Y-64027570D01*
X141277140Y-63037781D01*
X141386632Y-62873914D01*
X141386634Y-62873907D01*
X141389503Y-62868542D01*
X141390670Y-62869165D01*
X141412103Y-62837081D01*
X141500047Y-62749139D01*
X141630568Y-62562734D01*
X141726739Y-62356496D01*
X141785635Y-62136692D01*
X141805468Y-61910000D01*
X141785635Y-61683308D01*
X141726739Y-61463504D01*
X141630568Y-61257266D01*
X141500047Y-61070861D01*
X141500045Y-61070858D01*
X141339141Y-60909954D01*
X141152734Y-60779432D01*
X141152732Y-60779431D01*
X140946497Y-60683261D01*
X140946488Y-60683258D01*
X140726697Y-60624366D01*
X140726693Y-60624365D01*
X140726692Y-60624365D01*
X140726691Y-60624364D01*
X140726686Y-60624364D01*
X140500002Y-60604532D01*
X140499998Y-60604532D01*
X140273313Y-60624364D01*
X140273302Y-60624366D01*
X140053511Y-60683258D01*
X140053502Y-60683261D01*
X139847267Y-60779431D01*
X139847265Y-60779432D01*
X139660858Y-60909954D01*
X139499954Y-61070858D01*
X139369432Y-61257265D01*
X139369431Y-61257267D01*
X139273261Y-61463502D01*
X139273258Y-61463511D01*
X139214366Y-61683302D01*
X139214364Y-61683313D01*
X139194532Y-61909998D01*
X139194532Y-61910001D01*
X139214364Y-62136686D01*
X139214366Y-62136697D01*
X139224158Y-62173240D01*
X139222495Y-62243090D01*
X139192065Y-62293014D01*
X139121899Y-62363181D01*
X139060576Y-62396666D01*
X139034217Y-62399500D01*
X131001456Y-62399500D01*
X130808171Y-62437946D01*
X130808167Y-62437948D01*
X130808165Y-62437948D01*
X130808164Y-62437949D01*
X130785067Y-62447516D01*
X130732743Y-62469189D01*
X130626089Y-62513366D01*
X130626079Y-62513371D01*
X130482268Y-62609464D01*
X130482267Y-62609465D01*
X130462215Y-62622862D01*
X130462214Y-62622863D01*
X129830685Y-63254394D01*
X129622220Y-63462859D01*
X129622218Y-63462861D01*
X129585079Y-63500000D01*
X129482859Y-63602219D01*
X129373371Y-63766079D01*
X129373364Y-63766092D01*
X129297950Y-63948160D01*
X129297947Y-63948170D01*
X129259500Y-64141456D01*
X129259500Y-66692104D01*
X129246500Y-66747376D01*
X129221459Y-66797663D01*
X129221457Y-66797668D01*
X129165212Y-66995353D01*
X129146249Y-67199999D01*
X128833751Y-67199999D01*
X128814787Y-66995349D01*
X128758542Y-66797667D01*
X128666930Y-66613686D01*
X128543072Y-66449671D01*
X128543070Y-66449668D01*
X128391186Y-66311209D01*
X128391185Y-66311208D01*
X128216442Y-66203011D01*
X128216441Y-66203010D01*
X128073672Y-66147702D01*
X128024792Y-66128766D01*
X127822764Y-66091000D01*
X127617236Y-66091000D01*
X127415208Y-66128766D01*
X127415205Y-66128766D01*
X127415205Y-66128767D01*
X127223558Y-66203010D01*
X127223557Y-66203011D01*
X127048813Y-66311209D01*
X126896929Y-66449668D01*
X126773070Y-66613685D01*
X126681459Y-66797663D01*
X126625212Y-66995353D01*
X126606249Y-67199999D01*
X118750000Y-67199999D01*
X118750000Y-64500000D01*
X109803164Y-64500000D01*
X109736125Y-64480315D01*
X109690370Y-64427511D01*
X109680426Y-64358353D01*
X109709451Y-64294797D01*
X109725346Y-64280461D01*
X109725472Y-64279025D01*
X109046447Y-63600000D01*
X109052661Y-63600000D01*
X109154394Y-63572741D01*
X109245606Y-63520080D01*
X109320080Y-63445606D01*
X109372741Y-63354394D01*
X109400000Y-63252661D01*
X109400000Y-63246447D01*
X110079024Y-63925471D01*
X110130136Y-63852478D01*
X110226264Y-63646331D01*
X110226269Y-63646317D01*
X110285139Y-63426610D01*
X110285141Y-63426599D01*
X110304966Y-63200002D01*
X110304966Y-63199997D01*
X110285141Y-62973400D01*
X110285139Y-62973389D01*
X110226269Y-62753682D01*
X110226264Y-62753668D01*
X110130136Y-62547521D01*
X110130132Y-62547513D01*
X110079025Y-62474526D01*
X109400000Y-63153551D01*
X109400000Y-63147339D01*
X109372741Y-63045606D01*
X109320080Y-62954394D01*
X109245606Y-62879920D01*
X109154394Y-62827259D01*
X109052661Y-62800000D01*
X109046448Y-62800000D01*
X109725472Y-62120974D01*
X109652478Y-62069863D01*
X109446331Y-61973735D01*
X109446317Y-61973730D01*
X109226610Y-61914860D01*
X109226599Y-61914858D01*
X109000002Y-61895034D01*
X108999998Y-61895034D01*
X108773400Y-61914858D01*
X108773389Y-61914860D01*
X108553682Y-61973730D01*
X108553673Y-61973734D01*
X108347516Y-62069866D01*
X108347512Y-62069868D01*
X108274526Y-62120973D01*
X108274526Y-62120974D01*
X108953553Y-62800000D01*
X108947339Y-62800000D01*
X108845606Y-62827259D01*
X108754394Y-62879920D01*
X108679920Y-62954394D01*
X108627259Y-63045606D01*
X108600000Y-63147339D01*
X108600000Y-63153552D01*
X107920974Y-62474526D01*
X107920973Y-62474526D01*
X107869868Y-62547512D01*
X107869866Y-62547516D01*
X107773734Y-62753673D01*
X107773730Y-62753682D01*
X107714860Y-62973389D01*
X107714858Y-62973400D01*
X107695034Y-63199997D01*
X107695034Y-63200002D01*
X107714858Y-63426599D01*
X107714860Y-63426610D01*
X107773730Y-63646317D01*
X107773735Y-63646331D01*
X107869863Y-63852478D01*
X107920974Y-63925472D01*
X108600000Y-63246446D01*
X108600000Y-63252661D01*
X108627259Y-63354394D01*
X108679920Y-63445606D01*
X108754394Y-63520080D01*
X108845606Y-63572741D01*
X108947339Y-63600000D01*
X108953553Y-63600000D01*
X108274526Y-64279025D01*
X108274882Y-64283088D01*
X108311583Y-64329003D01*
X108318775Y-64398501D01*
X108287253Y-64460856D01*
X108227023Y-64496269D01*
X108196834Y-64500000D01*
X102133081Y-64500000D01*
X102066042Y-64480315D01*
X102020287Y-64427511D01*
X102010343Y-64358353D01*
X102039368Y-64294797D01*
X102080677Y-64263618D01*
X102152478Y-64230136D01*
X102225471Y-64179024D01*
X101546447Y-63500000D01*
X101552661Y-63500000D01*
X101654394Y-63472741D01*
X101745606Y-63420080D01*
X101820080Y-63345606D01*
X101872741Y-63254394D01*
X101900000Y-63152661D01*
X101900000Y-63146447D01*
X102579024Y-63825471D01*
X102630136Y-63752478D01*
X102726264Y-63546331D01*
X102726269Y-63546317D01*
X102785139Y-63326610D01*
X102785141Y-63326599D01*
X102804966Y-63100002D01*
X102804966Y-63099997D01*
X102785141Y-62873400D01*
X102785139Y-62873389D01*
X102726269Y-62653682D01*
X102726264Y-62653668D01*
X102630136Y-62447521D01*
X102630132Y-62447513D01*
X102579025Y-62374526D01*
X101900000Y-63053551D01*
X101900000Y-63047339D01*
X101872741Y-62945606D01*
X101820080Y-62854394D01*
X101745606Y-62779920D01*
X101654394Y-62727259D01*
X101552661Y-62700000D01*
X101546448Y-62700000D01*
X102225472Y-62020974D01*
X102152478Y-61969863D01*
X101946331Y-61873735D01*
X101946317Y-61873730D01*
X101726610Y-61814860D01*
X101726599Y-61814858D01*
X101500002Y-61795034D01*
X101499998Y-61795034D01*
X101273400Y-61814858D01*
X101273389Y-61814860D01*
X101053682Y-61873730D01*
X101053673Y-61873734D01*
X100847516Y-61969866D01*
X100847512Y-61969868D01*
X100774526Y-62020973D01*
X100774526Y-62020974D01*
X101453553Y-62700000D01*
X101447339Y-62700000D01*
X101345606Y-62727259D01*
X101254394Y-62779920D01*
X101179920Y-62854394D01*
X101127259Y-62945606D01*
X101100000Y-63047339D01*
X101100000Y-63053552D01*
X100420974Y-62374526D01*
X100420973Y-62374526D01*
X100369868Y-62447512D01*
X100369866Y-62447516D01*
X100273734Y-62653673D01*
X100273730Y-62653682D01*
X100214860Y-62873389D01*
X100214858Y-62873400D01*
X100195034Y-63099997D01*
X100195034Y-63100002D01*
X100214858Y-63326599D01*
X100214860Y-63326610D01*
X100273730Y-63546317D01*
X100273735Y-63546331D01*
X100369863Y-63752478D01*
X100420974Y-63825472D01*
X101100000Y-63146446D01*
X101100000Y-63152661D01*
X101127259Y-63254394D01*
X101179920Y-63345606D01*
X101254394Y-63420080D01*
X101345606Y-63472741D01*
X101447339Y-63500000D01*
X101453553Y-63500000D01*
X100774526Y-64179025D01*
X100847513Y-64230132D01*
X100847521Y-64230136D01*
X100919323Y-64263618D01*
X100971763Y-64309790D01*
X100990915Y-64376983D01*
X100970700Y-64443865D01*
X100917534Y-64489199D01*
X100866919Y-64500000D01*
X81374000Y-64500000D01*
X81306961Y-64480315D01*
X81261206Y-64427511D01*
X81250000Y-64376000D01*
X81250000Y-57899994D01*
X91594859Y-57899994D01*
X91594859Y-57900005D01*
X91615385Y-58147729D01*
X91615387Y-58147738D01*
X91676412Y-58388717D01*
X91776266Y-58616364D01*
X91876564Y-58769882D01*
X92617037Y-58029409D01*
X92634075Y-58092993D01*
X92699901Y-58207007D01*
X92792993Y-58300099D01*
X92907007Y-58365925D01*
X92970590Y-58382962D01*
X92229942Y-59123609D01*
X92276768Y-59160055D01*
X92276770Y-59160056D01*
X92495385Y-59278364D01*
X92495396Y-59278369D01*
X92730506Y-59359083D01*
X92975707Y-59400000D01*
X93224293Y-59400000D01*
X93469493Y-59359083D01*
X93704603Y-59278369D01*
X93704614Y-59278364D01*
X93923228Y-59160057D01*
X93923231Y-59160055D01*
X93970056Y-59123609D01*
X93229409Y-58382962D01*
X93292993Y-58365925D01*
X93407007Y-58300099D01*
X93500099Y-58207007D01*
X93565925Y-58092993D01*
X93582962Y-58029410D01*
X94323434Y-58769882D01*
X94423731Y-58616369D01*
X94523587Y-58388717D01*
X94584612Y-58147738D01*
X94584614Y-58147729D01*
X94605141Y-57900005D01*
X94605141Y-57899994D01*
X94584614Y-57652270D01*
X94584612Y-57652261D01*
X94523587Y-57411282D01*
X94423731Y-57183630D01*
X94323434Y-57030116D01*
X93582962Y-57770589D01*
X93565925Y-57707007D01*
X93500099Y-57592993D01*
X93407007Y-57499901D01*
X93292993Y-57434075D01*
X93229410Y-57417037D01*
X93970057Y-56676390D01*
X93970056Y-56676389D01*
X93923229Y-56639943D01*
X93704614Y-56521635D01*
X93704603Y-56521630D01*
X93469493Y-56440916D01*
X93224293Y-56400000D01*
X92975707Y-56400000D01*
X92730506Y-56440916D01*
X92495396Y-56521630D01*
X92495390Y-56521632D01*
X92276761Y-56639949D01*
X92229942Y-56676388D01*
X92229942Y-56676390D01*
X92970590Y-57417037D01*
X92907007Y-57434075D01*
X92792993Y-57499901D01*
X92699901Y-57592993D01*
X92634075Y-57707007D01*
X92617037Y-57770589D01*
X91876564Y-57030116D01*
X91776267Y-57183632D01*
X91676412Y-57411282D01*
X91615387Y-57652261D01*
X91615385Y-57652270D01*
X91594859Y-57899994D01*
X81250000Y-57899994D01*
X81250000Y-52162135D01*
X83049500Y-52162135D01*
X83049500Y-53957870D01*
X83049501Y-53957876D01*
X83055908Y-54017483D01*
X83106202Y-54152328D01*
X83106206Y-54152335D01*
X83192452Y-54267544D01*
X83192455Y-54267547D01*
X83307664Y-54353793D01*
X83307671Y-54353797D01*
X83307674Y-54353798D01*
X83439598Y-54403002D01*
X83495531Y-54444873D01*
X83519949Y-54510337D01*
X83505098Y-54578610D01*
X83483947Y-54606865D01*
X83361886Y-54728926D01*
X83226400Y-54922420D01*
X83226399Y-54922422D01*
X83126570Y-55136507D01*
X83126567Y-55136513D01*
X83069364Y-55349999D01*
X83069364Y-55350000D01*
X83966988Y-55350000D01*
X83934075Y-55407007D01*
X83900000Y-55534174D01*
X83900000Y-55665826D01*
X83934075Y-55792993D01*
X83966988Y-55850000D01*
X83069364Y-55850000D01*
X83126567Y-56063486D01*
X83126570Y-56063492D01*
X83226399Y-56277578D01*
X83361894Y-56471082D01*
X83528917Y-56638105D01*
X83722421Y-56773600D01*
X83936507Y-56873429D01*
X83936516Y-56873433D01*
X84150000Y-56930634D01*
X84150000Y-56033012D01*
X84207007Y-56065925D01*
X84334174Y-56100000D01*
X84465826Y-56100000D01*
X84592993Y-56065925D01*
X84650000Y-56033012D01*
X84650000Y-56930633D01*
X84863483Y-56873433D01*
X84863492Y-56873429D01*
X85077578Y-56773600D01*
X85271082Y-56638105D01*
X85438105Y-56471082D01*
X85573600Y-56277578D01*
X85673429Y-56063492D01*
X85673432Y-56063486D01*
X85730636Y-55850000D01*
X84833012Y-55850000D01*
X84865925Y-55792993D01*
X84900000Y-55665826D01*
X84900000Y-55534174D01*
X84865925Y-55407007D01*
X84833012Y-55350000D01*
X85730636Y-55350000D01*
X85730635Y-55349999D01*
X85673432Y-55136513D01*
X85673429Y-55136507D01*
X85573600Y-54922422D01*
X85573599Y-54922420D01*
X85438113Y-54728926D01*
X85438108Y-54728920D01*
X85316053Y-54606865D01*
X85282568Y-54545542D01*
X85287552Y-54475850D01*
X85329424Y-54419917D01*
X85360400Y-54403002D01*
X85492331Y-54353796D01*
X85607546Y-54267546D01*
X85693796Y-54152331D01*
X85744091Y-54017483D01*
X85744762Y-54011244D01*
X85771500Y-53946693D01*
X85828893Y-53906845D01*
X85868051Y-53900500D01*
X91483023Y-53900500D01*
X91550062Y-53920185D01*
X91595817Y-53972989D01*
X91603266Y-54000134D01*
X91604124Y-53999932D01*
X91605907Y-54007479D01*
X91656202Y-54142328D01*
X91656206Y-54142335D01*
X91742452Y-54257544D01*
X91742455Y-54257547D01*
X91857664Y-54343793D01*
X91857671Y-54343797D01*
X91992517Y-54394091D01*
X91992516Y-54394091D01*
X91999444Y-54394835D01*
X92052127Y-54400500D01*
X93134216Y-54400499D01*
X93201255Y-54420184D01*
X93221897Y-54436818D01*
X93522860Y-54737781D01*
X93522861Y-54737782D01*
X93662218Y-54877139D01*
X93826086Y-54986632D01*
X93826088Y-54986633D01*
X93826092Y-54986635D01*
X93883845Y-55010556D01*
X93949572Y-55037781D01*
X94008164Y-55062051D01*
X94068412Y-55074035D01*
X94101673Y-55080651D01*
X94201456Y-55100500D01*
X94201459Y-55100500D01*
X94201460Y-55100500D01*
X94398540Y-55100500D01*
X99655501Y-55100500D01*
X99722540Y-55120185D01*
X99768295Y-55172989D01*
X99779501Y-55224500D01*
X99779501Y-55247876D01*
X99785908Y-55307483D01*
X99836202Y-55442328D01*
X99836206Y-55442335D01*
X99922452Y-55557544D01*
X99922455Y-55557547D01*
X100037664Y-55643793D01*
X100037671Y-55643797D01*
X100074307Y-55657461D01*
X100172517Y-55694091D01*
X100232127Y-55700500D01*
X100255497Y-55700499D01*
X100322536Y-55720181D01*
X100368292Y-55772983D01*
X100379500Y-55824499D01*
X100379500Y-57398185D01*
X100367882Y-57450590D01*
X100273262Y-57653502D01*
X100273258Y-57653511D01*
X100214366Y-57873302D01*
X100214364Y-57873313D01*
X100194532Y-58099998D01*
X100194532Y-58100001D01*
X100214364Y-58326686D01*
X100214366Y-58326697D01*
X100273258Y-58546488D01*
X100273261Y-58546497D01*
X100369431Y-58752732D01*
X100369432Y-58752734D01*
X100499954Y-58939141D01*
X100660858Y-59100045D01*
X100660861Y-59100047D01*
X100847266Y-59230568D01*
X101053504Y-59326739D01*
X101273308Y-59385635D01*
X101435230Y-59399801D01*
X101499998Y-59405468D01*
X101500000Y-59405468D01*
X101500002Y-59405468D01*
X101562499Y-59400000D01*
X101726692Y-59385635D01*
X101946496Y-59326739D01*
X102152734Y-59230568D01*
X102339139Y-59100047D01*
X102500047Y-58939139D01*
X102630568Y-58752734D01*
X102726739Y-58546496D01*
X102785635Y-58326692D01*
X102805468Y-58100000D01*
X102785635Y-57873308D01*
X102726739Y-57653504D01*
X102630568Y-57447266D01*
X102500047Y-57260861D01*
X102500045Y-57260858D01*
X102416819Y-57177632D01*
X102383334Y-57116309D01*
X102380500Y-57089951D01*
X102380500Y-55824499D01*
X102400185Y-55757460D01*
X102452989Y-55711705D01*
X102504500Y-55700499D01*
X102527871Y-55700499D01*
X102527872Y-55700499D01*
X102587483Y-55694091D01*
X102722331Y-55643796D01*
X102837546Y-55557546D01*
X102923796Y-55442331D01*
X102974091Y-55307483D01*
X102980500Y-55247873D01*
X102980499Y-52952128D01*
X102974091Y-52892517D01*
X102972160Y-52887341D01*
X102923797Y-52757671D01*
X102923793Y-52757664D01*
X102837547Y-52642455D01*
X102837544Y-52642452D01*
X102722335Y-52556206D01*
X102722328Y-52556202D01*
X102587482Y-52505908D01*
X102587483Y-52505908D01*
X102527883Y-52499501D01*
X102527881Y-52499500D01*
X102527873Y-52499500D01*
X102527865Y-52499500D01*
X102504500Y-52499500D01*
X102437461Y-52479815D01*
X102391706Y-52427011D01*
X102380500Y-52375500D01*
X102380500Y-49569499D01*
X102400185Y-49502460D01*
X102452989Y-49456705D01*
X102504500Y-49445499D01*
X103460371Y-49445499D01*
X103460372Y-49445499D01*
X103519983Y-49439091D01*
X103654831Y-49388796D01*
X103770046Y-49302546D01*
X103856296Y-49187331D01*
X103866872Y-49158974D01*
X103908740Y-49103041D01*
X103974204Y-49078622D01*
X104042477Y-49093472D01*
X104055940Y-49101988D01*
X104238723Y-49234788D01*
X104442429Y-49338582D01*
X104659871Y-49409234D01*
X104750000Y-49423509D01*
X104750000Y-48435747D01*
X104787708Y-48457518D01*
X104927591Y-48495000D01*
X105072409Y-48495000D01*
X105212292Y-48457518D01*
X105250000Y-48435747D01*
X105250000Y-49423508D01*
X105340128Y-49409234D01*
X105557570Y-49338582D01*
X105761276Y-49234788D01*
X105946242Y-49100402D01*
X106107905Y-48938739D01*
X106169371Y-48854137D01*
X106224701Y-48811470D01*
X106294314Y-48805491D01*
X106356109Y-48838096D01*
X106370007Y-48854134D01*
X106431714Y-48939066D01*
X106593434Y-49100786D01*
X106778462Y-49235217D01*
X106910599Y-49302544D01*
X106982244Y-49339049D01*
X107199751Y-49409721D01*
X107199752Y-49409721D01*
X107199755Y-49409722D01*
X107425646Y-49445500D01*
X107425647Y-49445500D01*
X107654353Y-49445500D01*
X107654354Y-49445500D01*
X107880245Y-49409722D01*
X107937182Y-49391221D01*
X108007022Y-49389226D01*
X108066855Y-49425306D01*
X108097684Y-49488007D01*
X108099500Y-49509153D01*
X108099500Y-52707138D01*
X108079815Y-52774177D01*
X108056032Y-52801428D01*
X107864776Y-52964776D01*
X107701161Y-53156343D01*
X107701160Y-53156346D01*
X107569533Y-53371140D01*
X107473126Y-53603889D01*
X107414317Y-53848848D01*
X107394551Y-54100000D01*
X107414317Y-54351151D01*
X107473126Y-54596110D01*
X107569533Y-54828859D01*
X107701160Y-55043653D01*
X107701161Y-55043656D01*
X107834607Y-55199901D01*
X107864776Y-55235224D01*
X107956032Y-55313164D01*
X107994225Y-55371669D01*
X107999500Y-55407453D01*
X107999500Y-57322410D01*
X107979815Y-57389449D01*
X107977076Y-57393532D01*
X107869431Y-57547267D01*
X107773261Y-57753502D01*
X107773258Y-57753511D01*
X107714366Y-57973302D01*
X107714364Y-57973313D01*
X107694532Y-58199998D01*
X107694532Y-58200001D01*
X107714364Y-58426686D01*
X107714366Y-58426697D01*
X107773258Y-58646488D01*
X107773261Y-58646497D01*
X107869431Y-58852732D01*
X107869432Y-58852734D01*
X107999954Y-59039141D01*
X108160858Y-59200045D01*
X108160861Y-59200047D01*
X108347266Y-59330568D01*
X108553504Y-59426739D01*
X108773308Y-59485635D01*
X108935230Y-59499801D01*
X108999998Y-59505468D01*
X109000000Y-59505468D01*
X109000002Y-59505468D01*
X109056673Y-59500509D01*
X109062525Y-59499997D01*
X119395034Y-59499997D01*
X119395034Y-59500002D01*
X119414858Y-59726599D01*
X119414860Y-59726610D01*
X119473730Y-59946317D01*
X119473735Y-59946331D01*
X119569863Y-60152478D01*
X119620974Y-60225472D01*
X120300000Y-59546446D01*
X120300000Y-59552661D01*
X120327259Y-59654394D01*
X120379920Y-59745606D01*
X120454394Y-59820080D01*
X120545606Y-59872741D01*
X120647339Y-59900000D01*
X120653553Y-59900000D01*
X119974526Y-60579025D01*
X120047513Y-60630132D01*
X120047521Y-60630136D01*
X120253668Y-60726264D01*
X120253682Y-60726269D01*
X120473389Y-60785139D01*
X120473400Y-60785141D01*
X120699998Y-60804966D01*
X120700002Y-60804966D01*
X120926599Y-60785141D01*
X120926610Y-60785139D01*
X121146317Y-60726269D01*
X121146331Y-60726264D01*
X121352478Y-60630136D01*
X121425471Y-60579024D01*
X120746447Y-59900000D01*
X120752661Y-59900000D01*
X120854394Y-59872741D01*
X120945606Y-59820080D01*
X121020080Y-59745606D01*
X121072741Y-59654394D01*
X121100000Y-59552661D01*
X121100000Y-59546447D01*
X121779024Y-60225471D01*
X121830136Y-60152478D01*
X121926264Y-59946331D01*
X121926269Y-59946317D01*
X121985139Y-59726610D01*
X121985141Y-59726599D01*
X122004966Y-59500002D01*
X122004966Y-59499997D01*
X121987468Y-59300000D01*
X124414551Y-59300000D01*
X124434317Y-59551151D01*
X124493126Y-59796110D01*
X124589533Y-60028859D01*
X124721160Y-60243653D01*
X124721161Y-60243656D01*
X124721164Y-60243659D01*
X124884776Y-60435224D01*
X125033066Y-60561875D01*
X125076343Y-60598838D01*
X125076346Y-60598839D01*
X125291140Y-60730466D01*
X125523889Y-60826873D01*
X125768852Y-60885683D01*
X126020000Y-60905449D01*
X126271148Y-60885683D01*
X126516111Y-60826873D01*
X126748859Y-60730466D01*
X126963659Y-60598836D01*
X127155224Y-60435224D01*
X127318836Y-60243659D01*
X127450466Y-60028859D01*
X127546873Y-59796111D01*
X127605683Y-59551148D01*
X127625449Y-59300000D01*
X127605683Y-59048852D01*
X127546873Y-58803889D01*
X127450466Y-58571140D01*
X127318839Y-58356346D01*
X127318838Y-58356343D01*
X127248283Y-58273734D01*
X127155224Y-58164776D01*
X127028571Y-58056604D01*
X126963656Y-58001161D01*
X126963653Y-58001160D01*
X126748859Y-57869533D01*
X126516110Y-57773126D01*
X126271151Y-57714317D01*
X126020000Y-57694551D01*
X125768848Y-57714317D01*
X125523889Y-57773126D01*
X125291140Y-57869533D01*
X125076346Y-58001160D01*
X125076343Y-58001161D01*
X124884776Y-58164776D01*
X124721161Y-58356343D01*
X124721160Y-58356346D01*
X124589533Y-58571140D01*
X124493126Y-58803889D01*
X124434317Y-59048848D01*
X124414551Y-59300000D01*
X121987468Y-59300000D01*
X121985141Y-59273400D01*
X121985139Y-59273389D01*
X121926269Y-59053682D01*
X121926264Y-59053668D01*
X121830136Y-58847521D01*
X121830132Y-58847513D01*
X121779025Y-58774526D01*
X121100000Y-59453551D01*
X121100000Y-59447339D01*
X121072741Y-59345606D01*
X121020080Y-59254394D01*
X120945606Y-59179920D01*
X120854394Y-59127259D01*
X120752661Y-59100000D01*
X120746448Y-59100000D01*
X121425472Y-58420974D01*
X121352478Y-58369863D01*
X121146331Y-58273735D01*
X121146317Y-58273730D01*
X120926610Y-58214860D01*
X120926599Y-58214858D01*
X120700002Y-58195034D01*
X120699998Y-58195034D01*
X120473400Y-58214858D01*
X120473389Y-58214860D01*
X120253682Y-58273730D01*
X120253673Y-58273734D01*
X120047516Y-58369866D01*
X120047512Y-58369868D01*
X119974526Y-58420973D01*
X119974526Y-58420974D01*
X120653553Y-59100000D01*
X120647339Y-59100000D01*
X120545606Y-59127259D01*
X120454394Y-59179920D01*
X120379920Y-59254394D01*
X120327259Y-59345606D01*
X120300000Y-59447339D01*
X120300000Y-59453552D01*
X119620974Y-58774526D01*
X119620973Y-58774526D01*
X119569868Y-58847512D01*
X119569866Y-58847516D01*
X119473734Y-59053673D01*
X119473730Y-59053682D01*
X119414860Y-59273389D01*
X119414858Y-59273400D01*
X119395034Y-59499997D01*
X109062525Y-59499997D01*
X109226692Y-59485635D01*
X109446496Y-59426739D01*
X109652734Y-59330568D01*
X109839139Y-59200047D01*
X110000047Y-59039139D01*
X110130568Y-58852734D01*
X110226739Y-58646496D01*
X110285635Y-58426692D01*
X110305468Y-58200000D01*
X110285635Y-57973308D01*
X110227463Y-57756206D01*
X110226741Y-57753511D01*
X110226738Y-57753502D01*
X110130568Y-57547266D01*
X110022924Y-57393532D01*
X110000597Y-57327326D01*
X110000500Y-57322410D01*
X110000500Y-55724500D01*
X110020185Y-55657461D01*
X110072989Y-55611706D01*
X110124500Y-55600500D01*
X113462820Y-55600500D01*
X113529859Y-55620185D01*
X113562085Y-55650187D01*
X113642454Y-55757546D01*
X113679973Y-55785633D01*
X113757664Y-55843793D01*
X113757671Y-55843797D01*
X113802618Y-55860561D01*
X113892517Y-55894091D01*
X113952127Y-55900500D01*
X113952153Y-55900499D01*
X113955453Y-55900678D01*
X113955372Y-55902183D01*
X114016672Y-55920112D01*
X114062483Y-55972867D01*
X114070016Y-56016464D01*
X114753553Y-56700000D01*
X114747339Y-56700000D01*
X114645606Y-56727259D01*
X114554394Y-56779920D01*
X114479920Y-56854394D01*
X114427259Y-56945606D01*
X114400000Y-57047339D01*
X114400000Y-57053552D01*
X113720974Y-56374526D01*
X113720973Y-56374526D01*
X113669868Y-56447512D01*
X113669866Y-56447516D01*
X113573734Y-56653673D01*
X113573730Y-56653682D01*
X113514860Y-56873389D01*
X113514858Y-56873400D01*
X113495034Y-57099997D01*
X113495034Y-57100002D01*
X113514858Y-57326599D01*
X113514860Y-57326610D01*
X113573730Y-57546317D01*
X113573735Y-57546331D01*
X113669863Y-57752478D01*
X113720974Y-57825472D01*
X114400000Y-57146446D01*
X114400000Y-57152661D01*
X114427259Y-57254394D01*
X114479920Y-57345606D01*
X114554394Y-57420080D01*
X114645606Y-57472741D01*
X114747339Y-57500000D01*
X114753553Y-57500000D01*
X114074526Y-58179025D01*
X114147513Y-58230132D01*
X114147521Y-58230136D01*
X114353668Y-58326264D01*
X114353682Y-58326269D01*
X114573389Y-58385139D01*
X114573400Y-58385141D01*
X114799998Y-58404966D01*
X114800002Y-58404966D01*
X115026599Y-58385141D01*
X115026610Y-58385139D01*
X115246317Y-58326269D01*
X115246331Y-58326264D01*
X115452478Y-58230136D01*
X115525471Y-58179024D01*
X114846447Y-57500000D01*
X114852661Y-57500000D01*
X114954394Y-57472741D01*
X115045606Y-57420080D01*
X115120080Y-57345606D01*
X115172741Y-57254394D01*
X115200000Y-57152661D01*
X115200000Y-57146447D01*
X115879024Y-57825471D01*
X115930136Y-57752478D01*
X116026264Y-57546331D01*
X116026269Y-57546317D01*
X116085139Y-57326610D01*
X116085141Y-57326599D01*
X116104966Y-57100002D01*
X116104966Y-57099997D01*
X116085141Y-56873400D01*
X116085139Y-56873389D01*
X116026269Y-56653682D01*
X116026264Y-56653668D01*
X115930136Y-56447521D01*
X115930132Y-56447513D01*
X115879025Y-56374526D01*
X115200000Y-57053551D01*
X115200000Y-57047339D01*
X115172741Y-56945606D01*
X115120080Y-56854394D01*
X115045606Y-56779920D01*
X114954394Y-56727259D01*
X114852661Y-56700000D01*
X114846448Y-56700000D01*
X115530645Y-56015801D01*
X115540492Y-55966807D01*
X115589107Y-55916624D01*
X115644633Y-55901981D01*
X115644576Y-55900900D01*
X115644571Y-55900854D01*
X115644573Y-55900853D01*
X115644564Y-55900676D01*
X115647857Y-55900499D01*
X115647872Y-55900499D01*
X115707483Y-55894091D01*
X115842331Y-55843796D01*
X115957546Y-55757546D01*
X116037914Y-55650188D01*
X116093847Y-55608318D01*
X116137180Y-55600500D01*
X119965228Y-55600500D01*
X120032267Y-55620185D01*
X120036340Y-55622917D01*
X120047266Y-55630568D01*
X120253504Y-55726739D01*
X120473308Y-55785635D01*
X120635230Y-55799801D01*
X120699998Y-55805468D01*
X120700000Y-55805468D01*
X120700002Y-55805468D01*
X120756673Y-55800509D01*
X120926692Y-55785635D01*
X121146496Y-55726739D01*
X121352734Y-55630568D01*
X121506465Y-55522924D01*
X121572671Y-55500598D01*
X121577588Y-55500500D01*
X124320467Y-55500500D01*
X124387506Y-55520185D01*
X124433261Y-55572989D01*
X124436649Y-55581167D01*
X124476202Y-55687215D01*
X124476206Y-55687222D01*
X124562452Y-55802431D01*
X124562455Y-55802434D01*
X124677664Y-55888680D01*
X124677671Y-55888684D01*
X124812517Y-55938978D01*
X124812516Y-55938978D01*
X124819444Y-55939722D01*
X124872127Y-55945387D01*
X127167872Y-55945386D01*
X127227483Y-55938978D01*
X127362331Y-55888683D01*
X127477546Y-55802433D01*
X127563796Y-55687218D01*
X127614091Y-55552370D01*
X127617257Y-55522925D01*
X127618513Y-55511244D01*
X127645251Y-55446693D01*
X127702644Y-55406845D01*
X127741802Y-55400500D01*
X131798542Y-55400500D01*
X131817870Y-55396655D01*
X131895188Y-55381275D01*
X131991836Y-55362051D01*
X132047150Y-55339139D01*
X132173914Y-55286632D01*
X132337782Y-55177139D01*
X132477139Y-55037782D01*
X132477139Y-55037780D01*
X132487347Y-55027573D01*
X132487348Y-55027570D01*
X133170032Y-54344887D01*
X134574551Y-54344887D01*
X134594317Y-54596038D01*
X134653126Y-54840997D01*
X134749533Y-55073746D01*
X134881160Y-55288540D01*
X134881161Y-55288543D01*
X134993921Y-55420568D01*
X135044776Y-55480111D01*
X135136032Y-55558051D01*
X135174225Y-55616556D01*
X135179500Y-55652340D01*
X135179500Y-57575500D01*
X135159815Y-57642539D01*
X135107011Y-57688294D01*
X135055505Y-57699500D01*
X135032132Y-57699500D01*
X135032123Y-57699501D01*
X134972516Y-57705908D01*
X134837671Y-57756202D01*
X134837664Y-57756206D01*
X134722455Y-57842452D01*
X134722452Y-57842455D01*
X134636206Y-57957664D01*
X134636202Y-57957671D01*
X134585908Y-58092517D01*
X134579973Y-58147729D01*
X134579501Y-58152123D01*
X134579500Y-58152135D01*
X134579500Y-60447870D01*
X134579501Y-60447876D01*
X134585908Y-60507483D01*
X134636202Y-60642328D01*
X134636206Y-60642335D01*
X134722452Y-60757544D01*
X134722455Y-60757547D01*
X134837664Y-60843793D01*
X134837671Y-60843797D01*
X134972517Y-60894091D01*
X134972516Y-60894091D01*
X134979444Y-60894835D01*
X135032127Y-60900500D01*
X137327872Y-60900499D01*
X137387483Y-60894091D01*
X137522331Y-60843796D01*
X137637546Y-60757546D01*
X137723796Y-60642331D01*
X137774091Y-60507483D01*
X137780500Y-60447873D01*
X137780499Y-58152128D01*
X137774091Y-58092517D01*
X137740017Y-58001161D01*
X137723797Y-57957671D01*
X137723793Y-57957664D01*
X137637547Y-57842455D01*
X137637544Y-57842452D01*
X137522335Y-57756206D01*
X137522328Y-57756202D01*
X137387482Y-57705908D01*
X137387483Y-57705908D01*
X137327883Y-57699501D01*
X137327881Y-57699500D01*
X137327873Y-57699500D01*
X137327865Y-57699500D01*
X137304500Y-57699500D01*
X137237461Y-57679815D01*
X137191706Y-57627011D01*
X137180500Y-57575500D01*
X137180500Y-55652340D01*
X137200185Y-55585301D01*
X137223965Y-55558053D01*
X137315224Y-55480111D01*
X137393164Y-55388854D01*
X137451669Y-55350662D01*
X137487453Y-55345387D01*
X139700799Y-55345387D01*
X139767838Y-55365072D01*
X139771913Y-55367806D01*
X139847266Y-55420568D01*
X140053504Y-55516739D01*
X140053509Y-55516740D01*
X140053511Y-55516741D01*
X140106415Y-55530916D01*
X140273308Y-55575635D01*
X140435230Y-55589801D01*
X140499998Y-55595468D01*
X140500000Y-55595468D01*
X140500002Y-55595468D01*
X140556673Y-55590509D01*
X140726692Y-55575635D01*
X140946496Y-55516739D01*
X141152734Y-55420568D01*
X141339139Y-55290047D01*
X141500047Y-55129139D01*
X141630568Y-54942734D01*
X141726739Y-54736496D01*
X141785635Y-54516692D01*
X141805468Y-54290000D01*
X141802628Y-54257544D01*
X141793424Y-54152335D01*
X141785635Y-54063308D01*
X141726739Y-53843504D01*
X141630568Y-53637266D01*
X141500047Y-53450861D01*
X141500045Y-53450858D01*
X141339141Y-53289954D01*
X141152734Y-53159432D01*
X141152732Y-53159431D01*
X140946497Y-53063261D01*
X140946488Y-53063258D01*
X140726697Y-53004366D01*
X140726693Y-53004365D01*
X140726692Y-53004365D01*
X140726691Y-53004364D01*
X140726686Y-53004364D01*
X140500002Y-52984532D01*
X140499998Y-52984532D01*
X140273313Y-53004364D01*
X140273302Y-53004366D01*
X140053511Y-53063258D01*
X140053502Y-53063261D01*
X139847267Y-53159431D01*
X139847265Y-53159432D01*
X139660858Y-53289954D01*
X139642745Y-53308068D01*
X139581422Y-53341553D01*
X139555064Y-53344387D01*
X137487453Y-53344387D01*
X137420414Y-53324702D01*
X137393166Y-53300921D01*
X137315224Y-53209663D01*
X137252798Y-53156346D01*
X137123656Y-53046048D01*
X137123653Y-53046047D01*
X136908859Y-52914420D01*
X136676110Y-52818013D01*
X136431151Y-52759204D01*
X136180000Y-52739438D01*
X135928848Y-52759204D01*
X135683889Y-52818013D01*
X135451140Y-52914420D01*
X135236346Y-53046047D01*
X135236343Y-53046048D01*
X135044776Y-53209663D01*
X134881161Y-53401230D01*
X134881160Y-53401233D01*
X134749533Y-53616027D01*
X134653126Y-53848776D01*
X134594317Y-54093735D01*
X134574551Y-54344887D01*
X133170032Y-54344887D01*
X135017139Y-52497782D01*
X135065045Y-52426086D01*
X135126632Y-52333914D01*
X135202051Y-52151835D01*
X135207815Y-52122861D01*
X135240500Y-51958541D01*
X135240500Y-51761460D01*
X135240500Y-49098214D01*
X135260185Y-49031175D01*
X135276819Y-49010533D01*
X135305533Y-48981819D01*
X135366856Y-48948334D01*
X135393214Y-48945500D01*
X141229218Y-48945500D01*
X141296257Y-48965185D01*
X141316899Y-48981819D01*
X144213181Y-51878101D01*
X144246666Y-51939424D01*
X144249500Y-51965782D01*
X144249500Y-74284217D01*
X144229815Y-74351256D01*
X144213181Y-74371898D01*
X142462181Y-76122898D01*
X142400858Y-76156383D01*
X142331166Y-76151399D01*
X142275233Y-76109527D01*
X142250816Y-76044063D01*
X142250500Y-76035217D01*
X142250500Y-73499749D01*
X142270185Y-73432710D01*
X142300190Y-73400482D01*
X142357546Y-73357546D01*
X142443796Y-73242331D01*
X142494091Y-73107483D01*
X142500500Y-73047873D01*
X142500499Y-71352128D01*
X142494091Y-71292517D01*
X142443796Y-71157669D01*
X142443795Y-71157668D01*
X142443793Y-71157664D01*
X142357547Y-71042455D01*
X142357544Y-71042452D01*
X142242335Y-70956206D01*
X142242328Y-70956202D01*
X142107482Y-70905908D01*
X142107483Y-70905908D01*
X142047883Y-70899501D01*
X142047881Y-70899500D01*
X142047873Y-70899500D01*
X142047864Y-70899500D01*
X140352129Y-70899500D01*
X140352123Y-70899501D01*
X140292516Y-70905908D01*
X140157671Y-70956202D01*
X140157664Y-70956206D01*
X140042455Y-71042452D01*
X140042452Y-71042455D01*
X139956206Y-71157664D01*
X139956202Y-71157671D01*
X139905908Y-71292517D01*
X139899501Y-71352116D01*
X139899501Y-71352123D01*
X139899322Y-71355452D01*
X139897847Y-71355372D01*
X139879815Y-71416784D01*
X139827011Y-71462539D01*
X139783522Y-71470029D01*
X139100000Y-72153551D01*
X139100000Y-72147339D01*
X139072741Y-72045606D01*
X139020080Y-71954394D01*
X138945606Y-71879920D01*
X138854394Y-71827259D01*
X138752661Y-71800000D01*
X138746448Y-71800000D01*
X139425472Y-71120974D01*
X139352478Y-71069863D01*
X139146331Y-70973735D01*
X139146317Y-70973730D01*
X138926610Y-70914860D01*
X138926599Y-70914858D01*
X138700002Y-70895034D01*
X138699998Y-70895034D01*
X138473400Y-70914858D01*
X138473389Y-70914860D01*
X138253682Y-70973730D01*
X138253673Y-70973734D01*
X138047516Y-71069866D01*
X138047512Y-71069868D01*
X137974526Y-71120973D01*
X137974526Y-71120974D01*
X138653553Y-71800000D01*
X138647339Y-71800000D01*
X138545606Y-71827259D01*
X138454394Y-71879920D01*
X138379920Y-71954394D01*
X138327259Y-72045606D01*
X138300000Y-72147339D01*
X138300000Y-72153552D01*
X137620974Y-71474526D01*
X137620973Y-71474526D01*
X137569868Y-71547512D01*
X137569866Y-71547516D01*
X137473734Y-71753673D01*
X137473730Y-71753682D01*
X137414860Y-71973389D01*
X137414858Y-71973400D01*
X137395034Y-72199997D01*
X137395034Y-72200002D01*
X137414858Y-72426599D01*
X137414860Y-72426610D01*
X137473730Y-72646317D01*
X137473735Y-72646331D01*
X137569863Y-72852478D01*
X137620974Y-72925472D01*
X138300000Y-72246446D01*
X138300000Y-72252661D01*
X138327259Y-72354394D01*
X138379920Y-72445606D01*
X138454394Y-72520080D01*
X138545606Y-72572741D01*
X138647339Y-72600000D01*
X138653553Y-72600000D01*
X137974526Y-73279025D01*
X138047513Y-73330132D01*
X138047521Y-73330136D01*
X138253668Y-73426264D01*
X138253682Y-73426269D01*
X138473389Y-73485139D01*
X138473400Y-73485141D01*
X138699998Y-73504966D01*
X138700002Y-73504966D01*
X138926599Y-73485141D01*
X138926610Y-73485139D01*
X139146317Y-73426269D01*
X139146331Y-73426264D01*
X139352478Y-73330136D01*
X139425471Y-73279024D01*
X138746447Y-72600000D01*
X138752661Y-72600000D01*
X138854394Y-72572741D01*
X138945606Y-72520080D01*
X139020080Y-72445606D01*
X139072741Y-72354394D01*
X139100000Y-72252661D01*
X139100000Y-72246447D01*
X139784197Y-72930644D01*
X139833192Y-72940491D01*
X139883375Y-72989106D01*
X139898049Y-73044632D01*
X139899099Y-73044576D01*
X139899146Y-73044571D01*
X139899146Y-73044573D01*
X139899324Y-73044564D01*
X139899501Y-73047876D01*
X139905908Y-73107483D01*
X139956202Y-73242328D01*
X139956206Y-73242335D01*
X140042452Y-73357544D01*
X140042455Y-73357547D01*
X140157665Y-73443794D01*
X140157667Y-73443794D01*
X140157669Y-73443796D01*
X140168830Y-73447958D01*
X140224764Y-73489826D01*
X140249184Y-73555289D01*
X140249500Y-73564141D01*
X140249500Y-75534218D01*
X140229815Y-75601257D01*
X140213181Y-75621899D01*
X138371899Y-77463181D01*
X138310576Y-77496666D01*
X138284218Y-77499500D01*
X130651456Y-77499500D01*
X130458171Y-77537946D01*
X130458167Y-77537948D01*
X130458165Y-77537948D01*
X130458164Y-77537949D01*
X130382745Y-77569188D01*
X130382743Y-77569189D01*
X130276087Y-77613367D01*
X130276083Y-77613369D01*
X130164468Y-77687947D01*
X130164469Y-77687948D01*
X130112215Y-77722862D01*
X130112212Y-77722865D01*
X128893244Y-78941835D01*
X128612220Y-79222859D01*
X128612218Y-79222861D01*
X128547301Y-79287778D01*
X128472859Y-79362219D01*
X128363371Y-79526079D01*
X128363364Y-79526092D01*
X128287950Y-79708160D01*
X128287947Y-79708170D01*
X128249500Y-79901456D01*
X128249500Y-83328827D01*
X128229815Y-83395866D01*
X128227075Y-83399951D01*
X128101269Y-83579619D01*
X128046691Y-83623244D01*
X127977193Y-83630436D01*
X127914838Y-83598914D01*
X127898119Y-83579618D01*
X127846975Y-83506577D01*
X127846975Y-83506576D01*
X127273787Y-84079764D01*
X127262518Y-84037708D01*
X127190110Y-83912292D01*
X127087708Y-83809890D01*
X126962292Y-83737482D01*
X126920234Y-83726212D01*
X127493422Y-83153023D01*
X127415030Y-83098133D01*
X127204909Y-83000152D01*
X127204900Y-83000148D01*
X126980968Y-82940147D01*
X126980958Y-82940145D01*
X126750001Y-82919939D01*
X126749999Y-82919939D01*
X126519041Y-82940145D01*
X126519031Y-82940147D01*
X126295099Y-83000148D01*
X126295090Y-83000152D01*
X126084967Y-83098134D01*
X126006576Y-83153022D01*
X126579766Y-83726212D01*
X126537708Y-83737482D01*
X126412292Y-83809890D01*
X126309890Y-83912292D01*
X126237482Y-84037708D01*
X126226212Y-84079765D01*
X125653023Y-83506576D01*
X125653022Y-83506576D01*
X125598134Y-83584967D01*
X125500152Y-83795090D01*
X125500148Y-83795099D01*
X125440147Y-84019031D01*
X125440145Y-84019041D01*
X125419939Y-84249999D01*
X125419939Y-84250000D01*
X125440145Y-84480958D01*
X125440147Y-84480968D01*
X125500148Y-84704900D01*
X125500152Y-84704909D01*
X125598133Y-84915030D01*
X125653023Y-84993422D01*
X126226212Y-84420233D01*
X126237482Y-84462292D01*
X126309890Y-84587708D01*
X126412292Y-84690110D01*
X126537708Y-84762518D01*
X126579765Y-84773787D01*
X126006576Y-85346975D01*
X126084969Y-85401867D01*
X126295090Y-85499847D01*
X126295099Y-85499851D01*
X126519031Y-85559852D01*
X126519041Y-85559854D01*
X126749999Y-85580061D01*
X126750001Y-85580061D01*
X126980958Y-85559854D01*
X126980968Y-85559852D01*
X127204900Y-85499851D01*
X127204909Y-85499847D01*
X127415030Y-85401867D01*
X127415034Y-85401865D01*
X127493422Y-85346976D01*
X127493422Y-85346975D01*
X126920235Y-84773787D01*
X126962292Y-84762518D01*
X127087708Y-84690110D01*
X127190110Y-84587708D01*
X127262518Y-84462292D01*
X127273787Y-84420234D01*
X127846975Y-84993421D01*
X127898120Y-84920381D01*
X127952698Y-84876756D01*
X128022196Y-84869564D01*
X128084551Y-84901086D01*
X128101266Y-84920377D01*
X128230730Y-85105269D01*
X128394731Y-85269270D01*
X128584718Y-85402301D01*
X128794921Y-85500320D01*
X129018950Y-85560349D01*
X129183985Y-85574787D01*
X129249998Y-85580563D01*
X129250000Y-85580563D01*
X129250002Y-85580563D01*
X129307894Y-85575498D01*
X129481050Y-85560349D01*
X129705079Y-85500320D01*
X129915282Y-85402301D01*
X130105269Y-85269270D01*
X130229590Y-85144948D01*
X130290909Y-85111466D01*
X130360601Y-85116450D01*
X130416535Y-85158321D01*
X130433450Y-85189298D01*
X130481203Y-85317330D01*
X130481206Y-85317335D01*
X130567452Y-85432544D01*
X130567455Y-85432547D01*
X130682664Y-85518793D01*
X130682671Y-85518797D01*
X130817517Y-85569091D01*
X130817516Y-85569091D01*
X130824444Y-85569835D01*
X130877127Y-85575500D01*
X132622872Y-85575499D01*
X132682483Y-85569091D01*
X132817331Y-85518796D01*
X132932546Y-85432546D01*
X133018796Y-85317331D01*
X133018798Y-85317323D01*
X133020027Y-85315076D01*
X133021849Y-85313253D01*
X133024112Y-85310231D01*
X133024546Y-85310556D01*
X133069431Y-85265669D01*
X133128861Y-85250500D01*
X135848542Y-85250500D01*
X135867870Y-85246655D01*
X135945188Y-85231275D01*
X136041836Y-85212051D01*
X136113219Y-85182483D01*
X136223914Y-85136632D01*
X136387782Y-85027139D01*
X136527139Y-84887782D01*
X136527140Y-84887780D01*
X136534206Y-84880714D01*
X136534209Y-84880710D01*
X145887778Y-75527141D01*
X145887782Y-75527139D01*
X146027139Y-75387782D01*
X146136632Y-75223914D01*
X146189961Y-75095165D01*
X146212051Y-75041836D01*
X146250500Y-74848540D01*
X146250500Y-74651460D01*
X146250500Y-51401459D01*
X146250500Y-51401456D01*
X146212052Y-51208170D01*
X146212051Y-51208169D01*
X146212051Y-51208165D01*
X146212049Y-51208160D01*
X146136635Y-51026092D01*
X146136628Y-51026079D01*
X146027139Y-50862218D01*
X146027136Y-50862214D01*
X145884686Y-50719764D01*
X145884655Y-50719735D01*
X142476479Y-47311559D01*
X142476459Y-47311537D01*
X142332785Y-47167863D01*
X142332781Y-47167860D01*
X142168920Y-47058371D01*
X142168911Y-47058366D01*
X142096315Y-47028296D01*
X142040165Y-47005038D01*
X141986836Y-46982949D01*
X141986832Y-46982948D01*
X141986828Y-46982946D01*
X141890188Y-46963724D01*
X141793544Y-46944500D01*
X141793541Y-46944500D01*
X135393214Y-46944500D01*
X135326175Y-46924815D01*
X135305533Y-46908181D01*
X135186568Y-46789216D01*
X135186566Y-46789214D01*
X135001538Y-46654783D01*
X134797755Y-46550950D01*
X134580248Y-46480278D01*
X134394812Y-46450908D01*
X134354354Y-46444500D01*
X134125646Y-46444500D01*
X134085188Y-46450908D01*
X133899753Y-46480278D01*
X133899750Y-46480278D01*
X133682244Y-46550950D01*
X133478461Y-46654783D01*
X133412550Y-46702671D01*
X133293434Y-46789214D01*
X133293432Y-46789216D01*
X133293431Y-46789216D01*
X133131715Y-46950932D01*
X133070318Y-47035438D01*
X133014987Y-47078103D01*
X132945374Y-47084082D01*
X132883579Y-47051476D01*
X132869682Y-47035438D01*
X132831546Y-46982949D01*
X132808286Y-46950934D01*
X132646566Y-46789214D01*
X132461538Y-46654783D01*
X132257755Y-46550950D01*
X132040248Y-46480278D01*
X131854812Y-46450908D01*
X131814354Y-46444500D01*
X131585646Y-46444500D01*
X131545188Y-46450908D01*
X131359753Y-46480278D01*
X131359750Y-46480278D01*
X131142244Y-46550950D01*
X130938461Y-46654783D01*
X130755759Y-46787525D01*
X130689952Y-46811005D01*
X130621898Y-46795180D01*
X130573203Y-46745074D01*
X130566690Y-46730538D01*
X130556296Y-46702669D01*
X130556293Y-46702664D01*
X130470047Y-46587455D01*
X130470044Y-46587452D01*
X130354835Y-46501206D01*
X130354828Y-46501202D01*
X130219982Y-46450908D01*
X130219983Y-46450908D01*
X130160383Y-46444501D01*
X130160381Y-46444500D01*
X130160373Y-46444500D01*
X130160364Y-46444500D01*
X128159629Y-46444500D01*
X128159623Y-46444501D01*
X128100016Y-46450908D01*
X127965171Y-46501202D01*
X127965164Y-46501206D01*
X127849955Y-46587452D01*
X127849952Y-46587455D01*
X127763706Y-46702664D01*
X127763702Y-46702671D01*
X127713408Y-46837517D01*
X127707001Y-46897116D01*
X127707000Y-46897135D01*
X127707000Y-48992870D01*
X127707001Y-48992876D01*
X127713408Y-49052483D01*
X127763702Y-49187328D01*
X127763706Y-49187335D01*
X127849952Y-49302544D01*
X127849955Y-49302547D01*
X127965164Y-49388793D01*
X127965171Y-49388797D01*
X128100017Y-49439091D01*
X128100016Y-49439091D01*
X128106944Y-49439835D01*
X128159627Y-49445500D01*
X130160372Y-49445499D01*
X130219983Y-49439091D01*
X130354831Y-49388796D01*
X130470046Y-49302546D01*
X130556296Y-49187331D01*
X130566690Y-49159460D01*
X130608560Y-49103527D01*
X130674023Y-49079108D01*
X130742297Y-49093958D01*
X130755746Y-49102465D01*
X130938462Y-49235217D01*
X131070599Y-49302544D01*
X131142244Y-49339049D01*
X131359751Y-49409721D01*
X131359752Y-49409721D01*
X131359755Y-49409722D01*
X131585646Y-49445500D01*
X131585647Y-49445500D01*
X131814353Y-49445500D01*
X131814354Y-49445500D01*
X132040245Y-49409722D01*
X132040248Y-49409721D01*
X132040249Y-49409721D01*
X132257755Y-49339049D01*
X132257755Y-49339048D01*
X132257758Y-49339048D01*
X132461538Y-49235217D01*
X132646566Y-49100786D01*
X132808286Y-48939066D01*
X132869683Y-48854559D01*
X132925012Y-48811896D01*
X132994625Y-48805917D01*
X133056420Y-48838523D01*
X133070314Y-48854556D01*
X133131714Y-48939066D01*
X133131715Y-48939067D01*
X133131716Y-48939068D01*
X133203181Y-49010533D01*
X133236666Y-49071856D01*
X133239500Y-49098214D01*
X133239500Y-51394217D01*
X133219815Y-51461256D01*
X133203181Y-51481898D01*
X131321899Y-53363181D01*
X131260576Y-53396666D01*
X131234218Y-53399500D01*
X127744499Y-53399500D01*
X127677460Y-53379815D01*
X127631705Y-53327011D01*
X127620499Y-53275500D01*
X127620499Y-53197016D01*
X127620498Y-53197010D01*
X127620497Y-53197003D01*
X127614091Y-53137404D01*
X127595774Y-53088294D01*
X127563797Y-53002558D01*
X127563793Y-53002551D01*
X127477547Y-52887342D01*
X127477544Y-52887339D01*
X127362335Y-52801093D01*
X127362328Y-52801089D01*
X127227482Y-52750795D01*
X127227483Y-52750795D01*
X127167883Y-52744388D01*
X127167881Y-52744387D01*
X127167873Y-52744387D01*
X127167864Y-52744387D01*
X124872129Y-52744387D01*
X124872123Y-52744388D01*
X124812516Y-52750795D01*
X124677671Y-52801089D01*
X124677664Y-52801093D01*
X124562455Y-52887339D01*
X124562452Y-52887342D01*
X124476206Y-53002551D01*
X124476202Y-53002558D01*
X124425908Y-53137404D01*
X124419767Y-53194532D01*
X124419501Y-53197010D01*
X124419500Y-53197022D01*
X124419500Y-53375500D01*
X124399815Y-53442539D01*
X124347011Y-53488294D01*
X124295500Y-53499500D01*
X121577588Y-53499500D01*
X121510549Y-53479815D01*
X121506465Y-53477075D01*
X121469027Y-53450861D01*
X121352734Y-53369432D01*
X121324367Y-53356204D01*
X121146497Y-53273261D01*
X121146488Y-53273258D01*
X120926697Y-53214366D01*
X120926693Y-53214365D01*
X120926692Y-53214365D01*
X120926691Y-53214364D01*
X120926686Y-53214364D01*
X120700002Y-53194532D01*
X120699998Y-53194532D01*
X120473313Y-53214364D01*
X120473302Y-53214366D01*
X120253511Y-53273258D01*
X120253502Y-53273261D01*
X120047267Y-53369431D01*
X120047265Y-53369432D01*
X119860862Y-53499951D01*
X119837862Y-53522952D01*
X119797631Y-53563182D01*
X119736311Y-53596666D01*
X119709952Y-53599500D01*
X116137180Y-53599500D01*
X116070141Y-53579815D01*
X116037913Y-53549811D01*
X116020845Y-53527011D01*
X115957546Y-53442454D01*
X115902478Y-53401230D01*
X115842335Y-53356206D01*
X115842328Y-53356202D01*
X115707482Y-53305908D01*
X115707483Y-53305908D01*
X115647883Y-53299501D01*
X115647881Y-53299500D01*
X115647873Y-53299500D01*
X115647864Y-53299500D01*
X113952129Y-53299500D01*
X113952123Y-53299501D01*
X113892516Y-53305908D01*
X113757671Y-53356202D01*
X113757664Y-53356206D01*
X113642456Y-53442452D01*
X113642455Y-53442453D01*
X113642454Y-53442454D01*
X113579155Y-53527011D01*
X113562087Y-53549811D01*
X113506153Y-53591682D01*
X113462820Y-53599500D01*
X110607909Y-53599500D01*
X110540870Y-53579815D01*
X110495115Y-53527011D01*
X110493348Y-53522952D01*
X110430468Y-53371144D01*
X110430466Y-53371141D01*
X110323761Y-53197015D01*
X110298836Y-53156341D01*
X110169036Y-53004365D01*
X110132060Y-52961071D01*
X110133332Y-52959984D01*
X110103334Y-52905047D01*
X110100500Y-52878689D01*
X110100500Y-48801456D01*
X110062052Y-48608170D01*
X110062051Y-48608169D01*
X110062051Y-48608165D01*
X110038408Y-48551086D01*
X109986635Y-48426092D01*
X109986628Y-48426079D01*
X109877139Y-48262218D01*
X109877136Y-48262214D01*
X109734686Y-48119764D01*
X109734655Y-48119735D01*
X108926479Y-47311559D01*
X108926470Y-47311549D01*
X108922139Y-47307218D01*
X108829671Y-47214750D01*
X108806871Y-47183368D01*
X108782717Y-47135962D01*
X108648286Y-46950934D01*
X108486566Y-46789214D01*
X108301538Y-46654783D01*
X108097755Y-46550950D01*
X107880248Y-46480278D01*
X107694812Y-46450908D01*
X107654354Y-46444500D01*
X107425646Y-46444500D01*
X107385188Y-46450908D01*
X107199753Y-46480278D01*
X107199750Y-46480278D01*
X106982244Y-46550950D01*
X106778461Y-46654783D01*
X106712550Y-46702671D01*
X106593434Y-46789214D01*
X106593432Y-46789216D01*
X106593431Y-46789216D01*
X106431716Y-46950931D01*
X106431709Y-46950940D01*
X106370007Y-47035864D01*
X106314677Y-47078530D01*
X106245063Y-47084508D01*
X106183269Y-47051901D01*
X106169372Y-47035863D01*
X106107907Y-46951263D01*
X106107902Y-46951257D01*
X105946242Y-46789597D01*
X105761276Y-46655211D01*
X105557568Y-46551417D01*
X105340124Y-46480765D01*
X105250000Y-46466490D01*
X105250000Y-47454252D01*
X105212292Y-47432482D01*
X105072409Y-47395000D01*
X104927591Y-47395000D01*
X104787708Y-47432482D01*
X104750000Y-47454252D01*
X104750000Y-46466490D01*
X104749999Y-46466490D01*
X104659875Y-46480765D01*
X104442431Y-46551417D01*
X104238719Y-46655213D01*
X104055939Y-46788010D01*
X103990132Y-46811490D01*
X103922079Y-46795664D01*
X103873384Y-46745558D01*
X103866875Y-46731033D01*
X103856296Y-46702669D01*
X103856295Y-46702667D01*
X103856293Y-46702664D01*
X103770047Y-46587455D01*
X103770044Y-46587452D01*
X103654835Y-46501206D01*
X103654828Y-46501202D01*
X103519982Y-46450908D01*
X103519983Y-46450908D01*
X103460383Y-46444501D01*
X103460381Y-46444500D01*
X103460373Y-46444500D01*
X103460364Y-46444500D01*
X101459629Y-46444500D01*
X101459623Y-46444501D01*
X101400016Y-46450908D01*
X101265171Y-46501202D01*
X101265164Y-46501206D01*
X101149955Y-46587452D01*
X101149952Y-46587455D01*
X101063706Y-46702664D01*
X101063702Y-46702671D01*
X101013408Y-46837517D01*
X101007001Y-46897116D01*
X101007000Y-46897135D01*
X101007000Y-47931717D01*
X100987315Y-47998756D01*
X100970681Y-48019398D01*
X100742220Y-48247859D01*
X100742218Y-48247861D01*
X100707371Y-48282708D01*
X100602859Y-48387219D01*
X100493371Y-48551079D01*
X100493364Y-48551092D01*
X100417950Y-48733160D01*
X100417947Y-48733170D01*
X100379500Y-48926456D01*
X100379500Y-52375500D01*
X100359815Y-52442539D01*
X100307011Y-52488294D01*
X100255505Y-52499500D01*
X100232132Y-52499500D01*
X100232123Y-52499501D01*
X100172516Y-52505908D01*
X100037671Y-52556202D01*
X100037664Y-52556206D01*
X99922455Y-52642452D01*
X99922452Y-52642455D01*
X99836206Y-52757664D01*
X99836202Y-52757671D01*
X99785908Y-52892517D01*
X99779501Y-52952116D01*
X99779501Y-52952123D01*
X99779500Y-52952135D01*
X99779500Y-52975500D01*
X99759815Y-53042539D01*
X99707011Y-53088294D01*
X99655500Y-53099500D01*
X94765783Y-53099500D01*
X94698744Y-53079815D01*
X94678102Y-53063181D01*
X94636818Y-53021897D01*
X94603333Y-52960574D01*
X94600499Y-52934216D01*
X94600499Y-51852129D01*
X94600498Y-51852123D01*
X94594091Y-51792516D01*
X94543797Y-51657671D01*
X94543793Y-51657664D01*
X94457547Y-51542455D01*
X94457544Y-51542452D01*
X94342335Y-51456206D01*
X94342328Y-51456202D01*
X94207482Y-51405908D01*
X94207483Y-51405908D01*
X94147883Y-51399501D01*
X94147881Y-51399500D01*
X94147873Y-51399500D01*
X94147864Y-51399500D01*
X92052129Y-51399500D01*
X92052123Y-51399501D01*
X91992516Y-51405908D01*
X91857671Y-51456202D01*
X91857664Y-51456206D01*
X91742455Y-51542452D01*
X91742452Y-51542455D01*
X91656206Y-51657664D01*
X91656202Y-51657671D01*
X91605908Y-51792517D01*
X91604126Y-51800062D01*
X91601853Y-51799525D01*
X91579571Y-51853312D01*
X91522177Y-51893157D01*
X91483024Y-51899500D01*
X85704835Y-51899500D01*
X85637796Y-51879815D01*
X85614458Y-51858089D01*
X85613820Y-51858728D01*
X85607548Y-51852457D01*
X85607546Y-51852454D01*
X85607104Y-51852123D01*
X85492335Y-51766206D01*
X85492328Y-51766202D01*
X85357482Y-51715908D01*
X85357483Y-51715908D01*
X85297883Y-51709501D01*
X85297881Y-51709500D01*
X85297873Y-51709500D01*
X85297864Y-51709500D01*
X83502129Y-51709500D01*
X83502123Y-51709501D01*
X83442516Y-51715908D01*
X83307671Y-51766202D01*
X83307664Y-51766206D01*
X83192455Y-51852452D01*
X83192452Y-51852455D01*
X83106206Y-51967664D01*
X83106202Y-51967671D01*
X83055908Y-52102517D01*
X83049501Y-52162116D01*
X83049500Y-52162135D01*
X81250000Y-52162135D01*
X81250000Y-41874000D01*
X81269685Y-41806961D01*
X81322489Y-41761206D01*
X81374000Y-41750000D01*
X141456503Y-41750000D01*
X141523542Y-41769685D01*
G37*
G04 #@! TD.AperFunction*
M02*
