%TF.GenerationSoftware,KiCad,Pcbnew,8.0.2*%
%TF.CreationDate,2024-08-09T17:56:20+09:00*%
%TF.ProjectId,powersupply,706f7765-7273-4757-9070-6c792e6b6963,rev?*%
%TF.SameCoordinates,Original*%
%TF.FileFunction,Drillmap*%
%TF.FilePolarity,Positive*%
%FSLAX45Y45*%
G04 Gerber Fmt 4.5, Leading zero omitted, Abs format (unit mm)*
G04 Created by KiCad (PCBNEW 8.0.2) date 2024-08-09 17:56:20*
%MOMM*%
%LPD*%
G01*
G04 APERTURE LIST*
%ADD10C,0.200000*%
%ADD11C,0.050000*%
%ADD12C,0.100000*%
%ADD13C,0.110000*%
G04 APERTURE END LIST*
D10*
X5835000Y-4425000D02*
G75*
G02*
X5515000Y-4425000I-160000J0D01*
G01*
X5515000Y-4425000D02*
G75*
G02*
X5835000Y-4425000I160000J0D01*
G01*
X14835000Y-8725000D02*
G75*
G02*
X14515000Y-8725000I-160000J0D01*
G01*
X14515000Y-8725000D02*
G75*
G02*
X14835000Y-8725000I160000J0D01*
G01*
X14835000Y-4425000D02*
G75*
G02*
X14515000Y-4425000I-160000J0D01*
G01*
X14515000Y-4425000D02*
G75*
G02*
X14835000Y-4425000I160000J0D01*
G01*
D11*
X5325000Y-4075000D02*
X15025000Y-4075000D01*
X15025000Y-9075000D01*
X5325000Y-9075000D01*
X5325000Y-4075000D01*
D10*
X5810000Y-8725000D02*
G75*
G02*
X5490000Y-8725000I-160000J0D01*
G01*
X5490000Y-8725000D02*
G75*
G02*
X5810000Y-8725000I160000J0D01*
G01*
D12*
X7447500Y-8339500D02*
X7518500Y-8410500D01*
X7518500Y-8339500D02*
X7447500Y-8410500D01*
X7706500Y-7829500D02*
X7777500Y-7900500D01*
X7777500Y-7829500D02*
X7706500Y-7900500D01*
X12736500Y-6684500D02*
X12807500Y-6755500D01*
X12807500Y-6684500D02*
X12736500Y-6755500D01*
X12990500Y-6684500D02*
X13061500Y-6755500D01*
X13061500Y-6684500D02*
X12990500Y-6755500D01*
X13244500Y-6684500D02*
X13315500Y-6755500D01*
X13315500Y-6684500D02*
X13244500Y-6755500D01*
X8323000Y-7719000D02*
G75*
G02*
X8243000Y-7719000I-40000J0D01*
G01*
X8243000Y-7719000D02*
G75*
G02*
X8323000Y-7719000I40000J0D01*
G01*
X8323000Y-8219000D02*
G75*
G02*
X8243000Y-8219000I-40000J0D01*
G01*
X8243000Y-8219000D02*
G75*
G02*
X8323000Y-8219000I40000J0D01*
G01*
X8948000Y-7719000D02*
G75*
G02*
X8868000Y-7719000I-40000J0D01*
G01*
X8868000Y-7719000D02*
G75*
G02*
X8948000Y-7719000I40000J0D01*
G01*
X8948000Y-8219000D02*
G75*
G02*
X8868000Y-8219000I-40000J0D01*
G01*
X8868000Y-8219000D02*
G75*
G02*
X8948000Y-8219000I40000J0D01*
G01*
X9473000Y-7694000D02*
G75*
G02*
X9393000Y-7694000I-40000J0D01*
G01*
X9393000Y-7694000D02*
G75*
G02*
X9473000Y-7694000I40000J0D01*
G01*
X9473000Y-8456000D02*
G75*
G02*
X9393000Y-8456000I-40000J0D01*
G01*
X9393000Y-8456000D02*
G75*
G02*
X9473000Y-8456000I40000J0D01*
G01*
X9998000Y-8195511D02*
G75*
G02*
X9918000Y-8195511I-40000J0D01*
G01*
X9918000Y-8195511D02*
G75*
G02*
X9998000Y-8195511I40000J0D01*
G01*
X9998000Y-8445511D02*
G75*
G02*
X9918000Y-8445511I-40000J0D01*
G01*
X9918000Y-8445511D02*
G75*
G02*
X9998000Y-8445511I40000J0D01*
G01*
X10190000Y-5810000D02*
G75*
G02*
X10110000Y-5810000I-40000J0D01*
G01*
X10110000Y-5810000D02*
G75*
G02*
X10190000Y-5810000I40000J0D01*
G01*
X10190000Y-6310000D02*
G75*
G02*
X10110000Y-6310000I-40000J0D01*
G01*
X10110000Y-6310000D02*
G75*
G02*
X10190000Y-6310000I40000J0D01*
G01*
X10940000Y-5820000D02*
G75*
G02*
X10860000Y-5820000I-40000J0D01*
G01*
X10860000Y-5820000D02*
G75*
G02*
X10940000Y-5820000I40000J0D01*
G01*
X10940000Y-6320000D02*
G75*
G02*
X10860000Y-6320000I-40000J0D01*
G01*
X10860000Y-6320000D02*
G75*
G02*
X10940000Y-6320000I40000J0D01*
G01*
X11520000Y-5460000D02*
G75*
G02*
X11440000Y-5460000I-40000J0D01*
G01*
X11440000Y-5460000D02*
G75*
G02*
X11520000Y-5460000I40000J0D01*
G01*
X11520000Y-5710000D02*
G75*
G02*
X11440000Y-5710000I-40000J0D01*
G01*
X11440000Y-5710000D02*
G75*
G02*
X11520000Y-5710000I40000J0D01*
G01*
X12110000Y-5450000D02*
G75*
G02*
X12030000Y-5450000I-40000J0D01*
G01*
X12030000Y-5450000D02*
G75*
G02*
X12110000Y-5450000I40000J0D01*
G01*
X12110000Y-5950000D02*
G75*
G02*
X12030000Y-5950000I-40000J0D01*
G01*
X12030000Y-5950000D02*
G75*
G02*
X12110000Y-5950000I40000J0D01*
G01*
X12689000Y-7310000D02*
G75*
G02*
X12609000Y-7310000I-40000J0D01*
G01*
X12609000Y-7310000D02*
G75*
G02*
X12689000Y-7310000I40000J0D01*
G01*
X13451000Y-7310000D02*
G75*
G02*
X13371000Y-7310000I-40000J0D01*
G01*
X13371000Y-7310000D02*
G75*
G02*
X13451000Y-7310000I40000J0D01*
G01*
X13910000Y-7220000D02*
G75*
G02*
X13830000Y-7220000I-40000J0D01*
G01*
X13830000Y-7220000D02*
G75*
G02*
X13910000Y-7220000I40000J0D01*
G01*
X14090000Y-5429000D02*
G75*
G02*
X14010000Y-5429000I-40000J0D01*
G01*
X14010000Y-5429000D02*
G75*
G02*
X14090000Y-5429000I40000J0D01*
G01*
X14090000Y-6191000D02*
G75*
G02*
X14010000Y-6191000I-40000J0D01*
G01*
X14010000Y-6191000D02*
G75*
G02*
X14090000Y-6191000I40000J0D01*
G01*
X14160000Y-7220000D02*
G75*
G02*
X14080000Y-7220000I-40000J0D01*
G01*
X14080000Y-7220000D02*
G75*
G02*
X14160000Y-7220000I40000J0D01*
G01*
X8396000Y-7256500D02*
X8396000Y-7343500D01*
X8352500Y-7300000D02*
X8439500Y-7300000D01*
X8650000Y-7256500D02*
X8650000Y-7343500D01*
X8606500Y-7300000D02*
X8693500Y-7300000D01*
X8904000Y-7256500D02*
X8904000Y-7343500D01*
X8860500Y-7300000D02*
X8947500Y-7300000D01*
X6340356Y-5260356D02*
X6340356Y-5189644D01*
X6269644Y-5189644D01*
X6269644Y-5260356D01*
X6340356Y-5260356D01*
X6255000Y-5125000D02*
X6255000Y-5325000D01*
X6355000Y-5325000D02*
G75*
G02*
X6255000Y-5325000I-50000J0D01*
G01*
X6355000Y-5325000D02*
X6355000Y-5125000D01*
X6355000Y-5125000D02*
G75*
G03*
X6255000Y-5125000I-50000J0D01*
G01*
X6681356Y-6185356D02*
X6681356Y-6114644D01*
X6610644Y-6114644D01*
X6610644Y-6185356D01*
X6681356Y-6185356D01*
X6810356Y-4960356D02*
X6810356Y-4889644D01*
X6739644Y-4889644D01*
X6739644Y-4960356D01*
X6810356Y-4960356D01*
X6875000Y-4875000D02*
X6675000Y-4875000D01*
X6675000Y-4975000D02*
G75*
G02*
X6675000Y-4875000I0J50000D01*
G01*
X6675000Y-4975000D02*
X6875000Y-4975000D01*
X6875000Y-4975000D02*
G75*
G03*
X6875000Y-4875000I0J50000D01*
G01*
X6810356Y-5560356D02*
X6810356Y-5489644D01*
X6739644Y-5489644D01*
X6739644Y-5560356D01*
X6810356Y-5560356D01*
X6875000Y-5475000D02*
X6675000Y-5475000D01*
X6675000Y-5575000D02*
G75*
G02*
X6675000Y-5475000I0J50000D01*
G01*
X6675000Y-5575000D02*
X6875000Y-5575000D01*
X6875000Y-5575000D02*
G75*
G03*
X6875000Y-5475000I0J50000D01*
G01*
X6935356Y-6185356D02*
X6935356Y-6114644D01*
X6864644Y-6114644D01*
X6864644Y-6185356D01*
X6935356Y-6185356D01*
X7068356Y-7436356D02*
X7068356Y-7365644D01*
X6997644Y-7365644D01*
X6997644Y-7436356D01*
X7068356Y-7436356D01*
X7068356Y-7690356D02*
X7068356Y-7619644D01*
X6997644Y-7619644D01*
X6997644Y-7690356D01*
X7068356Y-7690356D01*
X7807856Y-5031356D02*
X7807856Y-4960644D01*
X7737144Y-4960644D01*
X7737144Y-5031356D01*
X7807856Y-5031356D01*
X7807856Y-5285356D02*
X7807856Y-5214644D01*
X7737144Y-5214644D01*
X7737144Y-5285356D01*
X7807856Y-5285356D01*
X8475356Y-5341356D02*
X8475356Y-5270644D01*
X8404644Y-5270644D01*
X8404644Y-5341356D01*
X8475356Y-5341356D01*
X8475356Y-5595356D02*
X8475356Y-5524644D01*
X8404644Y-5524644D01*
X8404644Y-5595356D01*
X8475356Y-5595356D01*
X9345356Y-5325356D02*
X9345356Y-5254644D01*
X9274644Y-5254644D01*
X9274644Y-5325356D01*
X9345356Y-5325356D01*
X9345356Y-5825356D02*
X9345356Y-5754644D01*
X9274644Y-5754644D01*
X9274644Y-5825356D01*
X9345356Y-5825356D01*
D13*
X10138000Y-5465000D02*
X10193000Y-5410000D01*
X10138000Y-5355000D01*
X10083000Y-5410000D01*
X10138000Y-5465000D01*
X10246000Y-4849500D02*
X10301000Y-4794500D01*
X10246000Y-4739500D01*
X10191000Y-4794500D01*
X10246000Y-4849500D01*
X10500000Y-4849500D02*
X10555000Y-4794500D01*
X10500000Y-4739500D01*
X10445000Y-4794500D01*
X10500000Y-4849500D01*
X10708000Y-8505000D02*
X10763000Y-8450000D01*
X10708000Y-8395000D01*
X10653000Y-8450000D01*
X10708000Y-8505000D01*
X10754000Y-4849500D02*
X10809000Y-4794500D01*
X10754000Y-4739500D01*
X10699000Y-4794500D01*
X10754000Y-4849500D01*
X10900000Y-5465000D02*
X10955000Y-5410000D01*
X10900000Y-5355000D01*
X10845000Y-5410000D01*
X10900000Y-5465000D01*
X10958000Y-8505000D02*
X11013000Y-8450000D01*
X10958000Y-8395000D01*
X10903000Y-8450000D01*
X10958000Y-8505000D01*
X12602000Y-5489489D02*
X12657000Y-5434489D01*
X12602000Y-5379489D01*
X12547000Y-5434489D01*
X12602000Y-5489489D01*
X12602000Y-5985000D02*
X12657000Y-5930000D01*
X12602000Y-5875000D01*
X12547000Y-5930000D01*
X12602000Y-5985000D01*
X12675000Y-8480000D02*
X12730000Y-8425000D01*
X12675000Y-8370000D01*
X12620000Y-8425000D01*
X12675000Y-8480000D01*
X12916000Y-4849500D02*
X12971000Y-4794500D01*
X12916000Y-4739500D01*
X12861000Y-4794500D01*
X12916000Y-4849500D01*
X12925000Y-8480000D02*
X12980000Y-8425000D01*
X12925000Y-8370000D01*
X12870000Y-8425000D01*
X12925000Y-8480000D01*
X13170000Y-4849500D02*
X13225000Y-4794500D01*
X13170000Y-4739500D01*
X13115000Y-4794500D01*
X13170000Y-4849500D01*
X13175000Y-8480000D02*
X13230000Y-8425000D01*
X13175000Y-8370000D01*
X13120000Y-8425000D01*
X13175000Y-8480000D01*
X13424000Y-4849500D02*
X13479000Y-4794500D01*
X13424000Y-4739500D01*
X13369000Y-4794500D01*
X13424000Y-4849500D01*
X13618000Y-5489489D02*
X13673000Y-5434489D01*
X13618000Y-5379489D01*
X13563000Y-5434489D01*
X13618000Y-5489489D01*
X13618000Y-5985000D02*
X13673000Y-5930000D01*
X13618000Y-5875000D01*
X13563000Y-5930000D01*
X13618000Y-5985000D01*
D10*
X5583277Y-9388984D02*
X5583277Y-9188984D01*
X5583277Y-9188984D02*
X5630896Y-9188984D01*
X5630896Y-9188984D02*
X5659467Y-9198508D01*
X5659467Y-9198508D02*
X5678515Y-9217555D01*
X5678515Y-9217555D02*
X5688039Y-9236603D01*
X5688039Y-9236603D02*
X5697562Y-9274698D01*
X5697562Y-9274698D02*
X5697562Y-9303270D01*
X5697562Y-9303270D02*
X5688039Y-9341365D01*
X5688039Y-9341365D02*
X5678515Y-9360412D01*
X5678515Y-9360412D02*
X5659467Y-9379460D01*
X5659467Y-9379460D02*
X5630896Y-9388984D01*
X5630896Y-9388984D02*
X5583277Y-9388984D01*
X5783277Y-9388984D02*
X5783277Y-9255650D01*
X5783277Y-9293746D02*
X5792801Y-9274698D01*
X5792801Y-9274698D02*
X5802324Y-9265174D01*
X5802324Y-9265174D02*
X5821372Y-9255650D01*
X5821372Y-9255650D02*
X5840420Y-9255650D01*
X5907086Y-9388984D02*
X5907086Y-9255650D01*
X5907086Y-9188984D02*
X5897562Y-9198508D01*
X5897562Y-9198508D02*
X5907086Y-9208031D01*
X5907086Y-9208031D02*
X5916610Y-9198508D01*
X5916610Y-9198508D02*
X5907086Y-9188984D01*
X5907086Y-9188984D02*
X5907086Y-9208031D01*
X6030896Y-9388984D02*
X6011848Y-9379460D01*
X6011848Y-9379460D02*
X6002324Y-9360412D01*
X6002324Y-9360412D02*
X6002324Y-9188984D01*
X6135658Y-9388984D02*
X6116610Y-9379460D01*
X6116610Y-9379460D02*
X6107086Y-9360412D01*
X6107086Y-9360412D02*
X6107086Y-9188984D01*
X6364229Y-9388984D02*
X6364229Y-9188984D01*
X6364229Y-9188984D02*
X6430896Y-9331841D01*
X6430896Y-9331841D02*
X6497562Y-9188984D01*
X6497562Y-9188984D02*
X6497562Y-9388984D01*
X6678515Y-9388984D02*
X6678515Y-9284222D01*
X6678515Y-9284222D02*
X6668991Y-9265174D01*
X6668991Y-9265174D02*
X6649943Y-9255650D01*
X6649943Y-9255650D02*
X6611848Y-9255650D01*
X6611848Y-9255650D02*
X6592801Y-9265174D01*
X6678515Y-9379460D02*
X6659467Y-9388984D01*
X6659467Y-9388984D02*
X6611848Y-9388984D01*
X6611848Y-9388984D02*
X6592801Y-9379460D01*
X6592801Y-9379460D02*
X6583277Y-9360412D01*
X6583277Y-9360412D02*
X6583277Y-9341365D01*
X6583277Y-9341365D02*
X6592801Y-9322317D01*
X6592801Y-9322317D02*
X6611848Y-9312793D01*
X6611848Y-9312793D02*
X6659467Y-9312793D01*
X6659467Y-9312793D02*
X6678515Y-9303270D01*
X6773753Y-9255650D02*
X6773753Y-9455650D01*
X6773753Y-9265174D02*
X6792801Y-9255650D01*
X6792801Y-9255650D02*
X6830896Y-9255650D01*
X6830896Y-9255650D02*
X6849943Y-9265174D01*
X6849943Y-9265174D02*
X6859467Y-9274698D01*
X6859467Y-9274698D02*
X6868991Y-9293746D01*
X6868991Y-9293746D02*
X6868991Y-9350889D01*
X6868991Y-9350889D02*
X6859467Y-9369936D01*
X6859467Y-9369936D02*
X6849943Y-9379460D01*
X6849943Y-9379460D02*
X6830896Y-9388984D01*
X6830896Y-9388984D02*
X6792801Y-9388984D01*
X6792801Y-9388984D02*
X6773753Y-9379460D01*
X6954705Y-9369936D02*
X6964229Y-9379460D01*
X6964229Y-9379460D02*
X6954705Y-9388984D01*
X6954705Y-9388984D02*
X6945182Y-9379460D01*
X6945182Y-9379460D02*
X6954705Y-9369936D01*
X6954705Y-9369936D02*
X6954705Y-9388984D01*
X6954705Y-9265174D02*
X6964229Y-9274698D01*
X6964229Y-9274698D02*
X6954705Y-9284222D01*
X6954705Y-9284222D02*
X6945182Y-9274698D01*
X6945182Y-9274698D02*
X6954705Y-9265174D01*
X6954705Y-9265174D02*
X6954705Y-9284222D01*
D12*
X5251500Y-9682000D02*
X5322500Y-9753000D01*
X5322500Y-9682000D02*
X5251500Y-9753000D01*
D10*
X5621372Y-9608984D02*
X5640420Y-9608984D01*
X5640420Y-9608984D02*
X5659467Y-9618508D01*
X5659467Y-9618508D02*
X5668991Y-9628031D01*
X5668991Y-9628031D02*
X5678515Y-9647079D01*
X5678515Y-9647079D02*
X5688039Y-9685174D01*
X5688039Y-9685174D02*
X5688039Y-9732793D01*
X5688039Y-9732793D02*
X5678515Y-9770889D01*
X5678515Y-9770889D02*
X5668991Y-9789936D01*
X5668991Y-9789936D02*
X5659467Y-9799460D01*
X5659467Y-9799460D02*
X5640420Y-9808984D01*
X5640420Y-9808984D02*
X5621372Y-9808984D01*
X5621372Y-9808984D02*
X5602324Y-9799460D01*
X5602324Y-9799460D02*
X5592801Y-9789936D01*
X5592801Y-9789936D02*
X5583277Y-9770889D01*
X5583277Y-9770889D02*
X5573753Y-9732793D01*
X5573753Y-9732793D02*
X5573753Y-9685174D01*
X5573753Y-9685174D02*
X5583277Y-9647079D01*
X5583277Y-9647079D02*
X5592801Y-9628031D01*
X5592801Y-9628031D02*
X5602324Y-9618508D01*
X5602324Y-9618508D02*
X5621372Y-9608984D01*
X5773753Y-9789936D02*
X5783277Y-9799460D01*
X5783277Y-9799460D02*
X5773753Y-9808984D01*
X5773753Y-9808984D02*
X5764229Y-9799460D01*
X5764229Y-9799460D02*
X5773753Y-9789936D01*
X5773753Y-9789936D02*
X5773753Y-9808984D01*
X5849943Y-9608984D02*
X5983277Y-9608984D01*
X5983277Y-9608984D02*
X5897562Y-9808984D01*
X6164229Y-9808984D02*
X6049943Y-9808984D01*
X6107086Y-9808984D02*
X6107086Y-9608984D01*
X6107086Y-9608984D02*
X6088039Y-9637555D01*
X6088039Y-9637555D02*
X6068991Y-9656603D01*
X6068991Y-9656603D02*
X6049943Y-9666127D01*
X6288039Y-9608984D02*
X6307086Y-9608984D01*
X6307086Y-9608984D02*
X6326134Y-9618508D01*
X6326134Y-9618508D02*
X6335658Y-9628031D01*
X6335658Y-9628031D02*
X6345182Y-9647079D01*
X6345182Y-9647079D02*
X6354705Y-9685174D01*
X6354705Y-9685174D02*
X6354705Y-9732793D01*
X6354705Y-9732793D02*
X6345182Y-9770889D01*
X6345182Y-9770889D02*
X6335658Y-9789936D01*
X6335658Y-9789936D02*
X6326134Y-9799460D01*
X6326134Y-9799460D02*
X6307086Y-9808984D01*
X6307086Y-9808984D02*
X6288039Y-9808984D01*
X6288039Y-9808984D02*
X6268991Y-9799460D01*
X6268991Y-9799460D02*
X6259467Y-9789936D01*
X6259467Y-9789936D02*
X6249943Y-9770889D01*
X6249943Y-9770889D02*
X6240420Y-9732793D01*
X6240420Y-9732793D02*
X6240420Y-9685174D01*
X6240420Y-9685174D02*
X6249943Y-9647079D01*
X6249943Y-9647079D02*
X6259467Y-9628031D01*
X6259467Y-9628031D02*
X6268991Y-9618508D01*
X6268991Y-9618508D02*
X6288039Y-9608984D01*
X6440420Y-9808984D02*
X6440420Y-9675650D01*
X6440420Y-9694698D02*
X6449943Y-9685174D01*
X6449943Y-9685174D02*
X6468991Y-9675650D01*
X6468991Y-9675650D02*
X6497563Y-9675650D01*
X6497563Y-9675650D02*
X6516610Y-9685174D01*
X6516610Y-9685174D02*
X6526134Y-9704222D01*
X6526134Y-9704222D02*
X6526134Y-9808984D01*
X6526134Y-9704222D02*
X6535658Y-9685174D01*
X6535658Y-9685174D02*
X6554705Y-9675650D01*
X6554705Y-9675650D02*
X6583277Y-9675650D01*
X6583277Y-9675650D02*
X6602324Y-9685174D01*
X6602324Y-9685174D02*
X6611848Y-9704222D01*
X6611848Y-9704222D02*
X6611848Y-9808984D01*
X6707086Y-9808984D02*
X6707086Y-9675650D01*
X6707086Y-9694698D02*
X6716610Y-9685174D01*
X6716610Y-9685174D02*
X6735658Y-9675650D01*
X6735658Y-9675650D02*
X6764229Y-9675650D01*
X6764229Y-9675650D02*
X6783277Y-9685174D01*
X6783277Y-9685174D02*
X6792801Y-9704222D01*
X6792801Y-9704222D02*
X6792801Y-9808984D01*
X6792801Y-9704222D02*
X6802324Y-9685174D01*
X6802324Y-9685174D02*
X6821372Y-9675650D01*
X6821372Y-9675650D02*
X6849943Y-9675650D01*
X6849943Y-9675650D02*
X6868991Y-9685174D01*
X6868991Y-9685174D02*
X6878515Y-9704222D01*
X6878515Y-9704222D02*
X6878515Y-9808984D01*
X7268991Y-9599460D02*
X7097563Y-9856603D01*
X7526134Y-9608984D02*
X7545182Y-9608984D01*
X7545182Y-9608984D02*
X7564229Y-9618508D01*
X7564229Y-9618508D02*
X7573753Y-9628031D01*
X7573753Y-9628031D02*
X7583277Y-9647079D01*
X7583277Y-9647079D02*
X7592801Y-9685174D01*
X7592801Y-9685174D02*
X7592801Y-9732793D01*
X7592801Y-9732793D02*
X7583277Y-9770889D01*
X7583277Y-9770889D02*
X7573753Y-9789936D01*
X7573753Y-9789936D02*
X7564229Y-9799460D01*
X7564229Y-9799460D02*
X7545182Y-9808984D01*
X7545182Y-9808984D02*
X7526134Y-9808984D01*
X7526134Y-9808984D02*
X7507086Y-9799460D01*
X7507086Y-9799460D02*
X7497563Y-9789936D01*
X7497563Y-9789936D02*
X7488039Y-9770889D01*
X7488039Y-9770889D02*
X7478515Y-9732793D01*
X7478515Y-9732793D02*
X7478515Y-9685174D01*
X7478515Y-9685174D02*
X7488039Y-9647079D01*
X7488039Y-9647079D02*
X7497563Y-9628031D01*
X7497563Y-9628031D02*
X7507086Y-9618508D01*
X7507086Y-9618508D02*
X7526134Y-9608984D01*
X7678515Y-9789936D02*
X7688039Y-9799460D01*
X7688039Y-9799460D02*
X7678515Y-9808984D01*
X7678515Y-9808984D02*
X7668991Y-9799460D01*
X7668991Y-9799460D02*
X7678515Y-9789936D01*
X7678515Y-9789936D02*
X7678515Y-9808984D01*
X7811848Y-9608984D02*
X7830896Y-9608984D01*
X7830896Y-9608984D02*
X7849944Y-9618508D01*
X7849944Y-9618508D02*
X7859467Y-9628031D01*
X7859467Y-9628031D02*
X7868991Y-9647079D01*
X7868991Y-9647079D02*
X7878515Y-9685174D01*
X7878515Y-9685174D02*
X7878515Y-9732793D01*
X7878515Y-9732793D02*
X7868991Y-9770889D01*
X7868991Y-9770889D02*
X7859467Y-9789936D01*
X7859467Y-9789936D02*
X7849944Y-9799460D01*
X7849944Y-9799460D02*
X7830896Y-9808984D01*
X7830896Y-9808984D02*
X7811848Y-9808984D01*
X7811848Y-9808984D02*
X7792801Y-9799460D01*
X7792801Y-9799460D02*
X7783277Y-9789936D01*
X7783277Y-9789936D02*
X7773753Y-9770889D01*
X7773753Y-9770889D02*
X7764229Y-9732793D01*
X7764229Y-9732793D02*
X7764229Y-9685174D01*
X7764229Y-9685174D02*
X7773753Y-9647079D01*
X7773753Y-9647079D02*
X7783277Y-9628031D01*
X7783277Y-9628031D02*
X7792801Y-9618508D01*
X7792801Y-9618508D02*
X7811848Y-9608984D01*
X7954706Y-9628031D02*
X7964229Y-9618508D01*
X7964229Y-9618508D02*
X7983277Y-9608984D01*
X7983277Y-9608984D02*
X8030896Y-9608984D01*
X8030896Y-9608984D02*
X8049944Y-9618508D01*
X8049944Y-9618508D02*
X8059467Y-9628031D01*
X8059467Y-9628031D02*
X8068991Y-9647079D01*
X8068991Y-9647079D02*
X8068991Y-9666127D01*
X8068991Y-9666127D02*
X8059467Y-9694698D01*
X8059467Y-9694698D02*
X7945182Y-9808984D01*
X7945182Y-9808984D02*
X8068991Y-9808984D01*
X8183277Y-9694698D02*
X8164229Y-9685174D01*
X8164229Y-9685174D02*
X8154706Y-9675650D01*
X8154706Y-9675650D02*
X8145182Y-9656603D01*
X8145182Y-9656603D02*
X8145182Y-9647079D01*
X8145182Y-9647079D02*
X8154706Y-9628031D01*
X8154706Y-9628031D02*
X8164229Y-9618508D01*
X8164229Y-9618508D02*
X8183277Y-9608984D01*
X8183277Y-9608984D02*
X8221372Y-9608984D01*
X8221372Y-9608984D02*
X8240420Y-9618508D01*
X8240420Y-9618508D02*
X8249944Y-9628031D01*
X8249944Y-9628031D02*
X8259467Y-9647079D01*
X8259467Y-9647079D02*
X8259467Y-9656603D01*
X8259467Y-9656603D02*
X8249944Y-9675650D01*
X8249944Y-9675650D02*
X8240420Y-9685174D01*
X8240420Y-9685174D02*
X8221372Y-9694698D01*
X8221372Y-9694698D02*
X8183277Y-9694698D01*
X8183277Y-9694698D02*
X8164229Y-9704222D01*
X8164229Y-9704222D02*
X8154706Y-9713746D01*
X8154706Y-9713746D02*
X8145182Y-9732793D01*
X8145182Y-9732793D02*
X8145182Y-9770889D01*
X8145182Y-9770889D02*
X8154706Y-9789936D01*
X8154706Y-9789936D02*
X8164229Y-9799460D01*
X8164229Y-9799460D02*
X8183277Y-9808984D01*
X8183277Y-9808984D02*
X8221372Y-9808984D01*
X8221372Y-9808984D02*
X8240420Y-9799460D01*
X8240420Y-9799460D02*
X8249944Y-9789936D01*
X8249944Y-9789936D02*
X8259467Y-9770889D01*
X8259467Y-9770889D02*
X8259467Y-9732793D01*
X8259467Y-9732793D02*
X8249944Y-9713746D01*
X8249944Y-9713746D02*
X8240420Y-9704222D01*
X8240420Y-9704222D02*
X8221372Y-9694698D01*
X8383277Y-9608984D02*
X8402325Y-9608984D01*
X8402325Y-9608984D02*
X8421372Y-9618508D01*
X8421372Y-9618508D02*
X8430896Y-9628031D01*
X8430896Y-9628031D02*
X8440420Y-9647079D01*
X8440420Y-9647079D02*
X8449944Y-9685174D01*
X8449944Y-9685174D02*
X8449944Y-9732793D01*
X8449944Y-9732793D02*
X8440420Y-9770889D01*
X8440420Y-9770889D02*
X8430896Y-9789936D01*
X8430896Y-9789936D02*
X8421372Y-9799460D01*
X8421372Y-9799460D02*
X8402325Y-9808984D01*
X8402325Y-9808984D02*
X8383277Y-9808984D01*
X8383277Y-9808984D02*
X8364229Y-9799460D01*
X8364229Y-9799460D02*
X8354706Y-9789936D01*
X8354706Y-9789936D02*
X8345182Y-9770889D01*
X8345182Y-9770889D02*
X8335658Y-9732793D01*
X8335658Y-9732793D02*
X8335658Y-9685174D01*
X8335658Y-9685174D02*
X8345182Y-9647079D01*
X8345182Y-9647079D02*
X8354706Y-9628031D01*
X8354706Y-9628031D02*
X8364229Y-9618508D01*
X8364229Y-9618508D02*
X8383277Y-9608984D01*
X8526134Y-9608984D02*
X8526134Y-9647079D01*
X8602325Y-9608984D02*
X8602325Y-9647079D01*
X8897563Y-9885174D02*
X8888039Y-9875650D01*
X8888039Y-9875650D02*
X8868991Y-9847079D01*
X8868991Y-9847079D02*
X8859468Y-9828031D01*
X8859468Y-9828031D02*
X8849944Y-9799460D01*
X8849944Y-9799460D02*
X8840420Y-9751841D01*
X8840420Y-9751841D02*
X8840420Y-9713746D01*
X8840420Y-9713746D02*
X8849944Y-9666127D01*
X8849944Y-9666127D02*
X8859468Y-9637555D01*
X8859468Y-9637555D02*
X8868991Y-9618508D01*
X8868991Y-9618508D02*
X8888039Y-9589936D01*
X8888039Y-9589936D02*
X8897563Y-9580412D01*
X9068991Y-9608984D02*
X8973753Y-9608984D01*
X8973753Y-9608984D02*
X8964230Y-9704222D01*
X8964230Y-9704222D02*
X8973753Y-9694698D01*
X8973753Y-9694698D02*
X8992801Y-9685174D01*
X8992801Y-9685174D02*
X9040420Y-9685174D01*
X9040420Y-9685174D02*
X9059468Y-9694698D01*
X9059468Y-9694698D02*
X9068991Y-9704222D01*
X9068991Y-9704222D02*
X9078515Y-9723270D01*
X9078515Y-9723270D02*
X9078515Y-9770889D01*
X9078515Y-9770889D02*
X9068991Y-9789936D01*
X9068991Y-9789936D02*
X9059468Y-9799460D01*
X9059468Y-9799460D02*
X9040420Y-9808984D01*
X9040420Y-9808984D02*
X8992801Y-9808984D01*
X8992801Y-9808984D02*
X8973753Y-9799460D01*
X8973753Y-9799460D02*
X8964230Y-9789936D01*
X9316611Y-9808984D02*
X9316611Y-9608984D01*
X9402325Y-9808984D02*
X9402325Y-9704222D01*
X9402325Y-9704222D02*
X9392801Y-9685174D01*
X9392801Y-9685174D02*
X9373753Y-9675650D01*
X9373753Y-9675650D02*
X9345182Y-9675650D01*
X9345182Y-9675650D02*
X9326134Y-9685174D01*
X9326134Y-9685174D02*
X9316611Y-9694698D01*
X9526134Y-9808984D02*
X9507087Y-9799460D01*
X9507087Y-9799460D02*
X9497563Y-9789936D01*
X9497563Y-9789936D02*
X9488039Y-9770889D01*
X9488039Y-9770889D02*
X9488039Y-9713746D01*
X9488039Y-9713746D02*
X9497563Y-9694698D01*
X9497563Y-9694698D02*
X9507087Y-9685174D01*
X9507087Y-9685174D02*
X9526134Y-9675650D01*
X9526134Y-9675650D02*
X9554706Y-9675650D01*
X9554706Y-9675650D02*
X9573753Y-9685174D01*
X9573753Y-9685174D02*
X9583277Y-9694698D01*
X9583277Y-9694698D02*
X9592801Y-9713746D01*
X9592801Y-9713746D02*
X9592801Y-9770889D01*
X9592801Y-9770889D02*
X9583277Y-9789936D01*
X9583277Y-9789936D02*
X9573753Y-9799460D01*
X9573753Y-9799460D02*
X9554706Y-9808984D01*
X9554706Y-9808984D02*
X9526134Y-9808984D01*
X9707087Y-9808984D02*
X9688039Y-9799460D01*
X9688039Y-9799460D02*
X9678515Y-9780412D01*
X9678515Y-9780412D02*
X9678515Y-9608984D01*
X9859468Y-9799460D02*
X9840420Y-9808984D01*
X9840420Y-9808984D02*
X9802325Y-9808984D01*
X9802325Y-9808984D02*
X9783277Y-9799460D01*
X9783277Y-9799460D02*
X9773753Y-9780412D01*
X9773753Y-9780412D02*
X9773753Y-9704222D01*
X9773753Y-9704222D02*
X9783277Y-9685174D01*
X9783277Y-9685174D02*
X9802325Y-9675650D01*
X9802325Y-9675650D02*
X9840420Y-9675650D01*
X9840420Y-9675650D02*
X9859468Y-9685174D01*
X9859468Y-9685174D02*
X9868992Y-9704222D01*
X9868992Y-9704222D02*
X9868992Y-9723270D01*
X9868992Y-9723270D02*
X9773753Y-9742317D01*
X9945182Y-9799460D02*
X9964230Y-9808984D01*
X9964230Y-9808984D02*
X10002325Y-9808984D01*
X10002325Y-9808984D02*
X10021373Y-9799460D01*
X10021373Y-9799460D02*
X10030896Y-9780412D01*
X10030896Y-9780412D02*
X10030896Y-9770889D01*
X10030896Y-9770889D02*
X10021373Y-9751841D01*
X10021373Y-9751841D02*
X10002325Y-9742317D01*
X10002325Y-9742317D02*
X9973753Y-9742317D01*
X9973753Y-9742317D02*
X9954706Y-9732793D01*
X9954706Y-9732793D02*
X9945182Y-9713746D01*
X9945182Y-9713746D02*
X9945182Y-9704222D01*
X9945182Y-9704222D02*
X9954706Y-9685174D01*
X9954706Y-9685174D02*
X9973753Y-9675650D01*
X9973753Y-9675650D02*
X10002325Y-9675650D01*
X10002325Y-9675650D02*
X10021373Y-9685174D01*
X10097563Y-9885174D02*
X10107087Y-9875650D01*
X10107087Y-9875650D02*
X10126134Y-9847079D01*
X10126134Y-9847079D02*
X10135658Y-9828031D01*
X10135658Y-9828031D02*
X10145182Y-9799460D01*
X10145182Y-9799460D02*
X10154706Y-9751841D01*
X10154706Y-9751841D02*
X10154706Y-9713746D01*
X10154706Y-9713746D02*
X10145182Y-9666127D01*
X10145182Y-9666127D02*
X10135658Y-9637555D01*
X10135658Y-9637555D02*
X10126134Y-9618508D01*
X10126134Y-9618508D02*
X10107087Y-9589936D01*
X10107087Y-9589936D02*
X10097563Y-9580412D01*
D12*
X5322500Y-9981500D02*
G75*
G02*
X5242500Y-9981500I-40000J0D01*
G01*
X5242500Y-9981500D02*
G75*
G02*
X5322500Y-9981500I40000J0D01*
G01*
D10*
X5621372Y-9872984D02*
X5640420Y-9872984D01*
X5640420Y-9872984D02*
X5659467Y-9882508D01*
X5659467Y-9882508D02*
X5668991Y-9892031D01*
X5668991Y-9892031D02*
X5678515Y-9911079D01*
X5678515Y-9911079D02*
X5688039Y-9949174D01*
X5688039Y-9949174D02*
X5688039Y-9996793D01*
X5688039Y-9996793D02*
X5678515Y-10034889D01*
X5678515Y-10034889D02*
X5668991Y-10053936D01*
X5668991Y-10053936D02*
X5659467Y-10063460D01*
X5659467Y-10063460D02*
X5640420Y-10072984D01*
X5640420Y-10072984D02*
X5621372Y-10072984D01*
X5621372Y-10072984D02*
X5602324Y-10063460D01*
X5602324Y-10063460D02*
X5592801Y-10053936D01*
X5592801Y-10053936D02*
X5583277Y-10034889D01*
X5583277Y-10034889D02*
X5573753Y-9996793D01*
X5573753Y-9996793D02*
X5573753Y-9949174D01*
X5573753Y-9949174D02*
X5583277Y-9911079D01*
X5583277Y-9911079D02*
X5592801Y-9892031D01*
X5592801Y-9892031D02*
X5602324Y-9882508D01*
X5602324Y-9882508D02*
X5621372Y-9872984D01*
X5773753Y-10053936D02*
X5783277Y-10063460D01*
X5783277Y-10063460D02*
X5773753Y-10072984D01*
X5773753Y-10072984D02*
X5764229Y-10063460D01*
X5764229Y-10063460D02*
X5773753Y-10053936D01*
X5773753Y-10053936D02*
X5773753Y-10072984D01*
X5897562Y-9958698D02*
X5878515Y-9949174D01*
X5878515Y-9949174D02*
X5868991Y-9939650D01*
X5868991Y-9939650D02*
X5859467Y-9920603D01*
X5859467Y-9920603D02*
X5859467Y-9911079D01*
X5859467Y-9911079D02*
X5868991Y-9892031D01*
X5868991Y-9892031D02*
X5878515Y-9882508D01*
X5878515Y-9882508D02*
X5897562Y-9872984D01*
X5897562Y-9872984D02*
X5935658Y-9872984D01*
X5935658Y-9872984D02*
X5954705Y-9882508D01*
X5954705Y-9882508D02*
X5964229Y-9892031D01*
X5964229Y-9892031D02*
X5973753Y-9911079D01*
X5973753Y-9911079D02*
X5973753Y-9920603D01*
X5973753Y-9920603D02*
X5964229Y-9939650D01*
X5964229Y-9939650D02*
X5954705Y-9949174D01*
X5954705Y-9949174D02*
X5935658Y-9958698D01*
X5935658Y-9958698D02*
X5897562Y-9958698D01*
X5897562Y-9958698D02*
X5878515Y-9968222D01*
X5878515Y-9968222D02*
X5868991Y-9977746D01*
X5868991Y-9977746D02*
X5859467Y-9996793D01*
X5859467Y-9996793D02*
X5859467Y-10034889D01*
X5859467Y-10034889D02*
X5868991Y-10053936D01*
X5868991Y-10053936D02*
X5878515Y-10063460D01*
X5878515Y-10063460D02*
X5897562Y-10072984D01*
X5897562Y-10072984D02*
X5935658Y-10072984D01*
X5935658Y-10072984D02*
X5954705Y-10063460D01*
X5954705Y-10063460D02*
X5964229Y-10053936D01*
X5964229Y-10053936D02*
X5973753Y-10034889D01*
X5973753Y-10034889D02*
X5973753Y-9996793D01*
X5973753Y-9996793D02*
X5964229Y-9977746D01*
X5964229Y-9977746D02*
X5954705Y-9968222D01*
X5954705Y-9968222D02*
X5935658Y-9958698D01*
X6097562Y-9872984D02*
X6116610Y-9872984D01*
X6116610Y-9872984D02*
X6135658Y-9882508D01*
X6135658Y-9882508D02*
X6145182Y-9892031D01*
X6145182Y-9892031D02*
X6154705Y-9911079D01*
X6154705Y-9911079D02*
X6164229Y-9949174D01*
X6164229Y-9949174D02*
X6164229Y-9996793D01*
X6164229Y-9996793D02*
X6154705Y-10034889D01*
X6154705Y-10034889D02*
X6145182Y-10053936D01*
X6145182Y-10053936D02*
X6135658Y-10063460D01*
X6135658Y-10063460D02*
X6116610Y-10072984D01*
X6116610Y-10072984D02*
X6097562Y-10072984D01*
X6097562Y-10072984D02*
X6078515Y-10063460D01*
X6078515Y-10063460D02*
X6068991Y-10053936D01*
X6068991Y-10053936D02*
X6059467Y-10034889D01*
X6059467Y-10034889D02*
X6049943Y-9996793D01*
X6049943Y-9996793D02*
X6049943Y-9949174D01*
X6049943Y-9949174D02*
X6059467Y-9911079D01*
X6059467Y-9911079D02*
X6068991Y-9892031D01*
X6068991Y-9892031D02*
X6078515Y-9882508D01*
X6078515Y-9882508D02*
X6097562Y-9872984D01*
X6288039Y-9872984D02*
X6307086Y-9872984D01*
X6307086Y-9872984D02*
X6326134Y-9882508D01*
X6326134Y-9882508D02*
X6335658Y-9892031D01*
X6335658Y-9892031D02*
X6345182Y-9911079D01*
X6345182Y-9911079D02*
X6354705Y-9949174D01*
X6354705Y-9949174D02*
X6354705Y-9996793D01*
X6354705Y-9996793D02*
X6345182Y-10034889D01*
X6345182Y-10034889D02*
X6335658Y-10053936D01*
X6335658Y-10053936D02*
X6326134Y-10063460D01*
X6326134Y-10063460D02*
X6307086Y-10072984D01*
X6307086Y-10072984D02*
X6288039Y-10072984D01*
X6288039Y-10072984D02*
X6268991Y-10063460D01*
X6268991Y-10063460D02*
X6259467Y-10053936D01*
X6259467Y-10053936D02*
X6249943Y-10034889D01*
X6249943Y-10034889D02*
X6240420Y-9996793D01*
X6240420Y-9996793D02*
X6240420Y-9949174D01*
X6240420Y-9949174D02*
X6249943Y-9911079D01*
X6249943Y-9911079D02*
X6259467Y-9892031D01*
X6259467Y-9892031D02*
X6268991Y-9882508D01*
X6268991Y-9882508D02*
X6288039Y-9872984D01*
X6440420Y-10072984D02*
X6440420Y-9939650D01*
X6440420Y-9958698D02*
X6449943Y-9949174D01*
X6449943Y-9949174D02*
X6468991Y-9939650D01*
X6468991Y-9939650D02*
X6497563Y-9939650D01*
X6497563Y-9939650D02*
X6516610Y-9949174D01*
X6516610Y-9949174D02*
X6526134Y-9968222D01*
X6526134Y-9968222D02*
X6526134Y-10072984D01*
X6526134Y-9968222D02*
X6535658Y-9949174D01*
X6535658Y-9949174D02*
X6554705Y-9939650D01*
X6554705Y-9939650D02*
X6583277Y-9939650D01*
X6583277Y-9939650D02*
X6602324Y-9949174D01*
X6602324Y-9949174D02*
X6611848Y-9968222D01*
X6611848Y-9968222D02*
X6611848Y-10072984D01*
X6707086Y-10072984D02*
X6707086Y-9939650D01*
X6707086Y-9958698D02*
X6716610Y-9949174D01*
X6716610Y-9949174D02*
X6735658Y-9939650D01*
X6735658Y-9939650D02*
X6764229Y-9939650D01*
X6764229Y-9939650D02*
X6783277Y-9949174D01*
X6783277Y-9949174D02*
X6792801Y-9968222D01*
X6792801Y-9968222D02*
X6792801Y-10072984D01*
X6792801Y-9968222D02*
X6802324Y-9949174D01*
X6802324Y-9949174D02*
X6821372Y-9939650D01*
X6821372Y-9939650D02*
X6849943Y-9939650D01*
X6849943Y-9939650D02*
X6868991Y-9949174D01*
X6868991Y-9949174D02*
X6878515Y-9968222D01*
X6878515Y-9968222D02*
X6878515Y-10072984D01*
X7268991Y-9863460D02*
X7097563Y-10120603D01*
X7526134Y-9872984D02*
X7545182Y-9872984D01*
X7545182Y-9872984D02*
X7564229Y-9882508D01*
X7564229Y-9882508D02*
X7573753Y-9892031D01*
X7573753Y-9892031D02*
X7583277Y-9911079D01*
X7583277Y-9911079D02*
X7592801Y-9949174D01*
X7592801Y-9949174D02*
X7592801Y-9996793D01*
X7592801Y-9996793D02*
X7583277Y-10034889D01*
X7583277Y-10034889D02*
X7573753Y-10053936D01*
X7573753Y-10053936D02*
X7564229Y-10063460D01*
X7564229Y-10063460D02*
X7545182Y-10072984D01*
X7545182Y-10072984D02*
X7526134Y-10072984D01*
X7526134Y-10072984D02*
X7507086Y-10063460D01*
X7507086Y-10063460D02*
X7497563Y-10053936D01*
X7497563Y-10053936D02*
X7488039Y-10034889D01*
X7488039Y-10034889D02*
X7478515Y-9996793D01*
X7478515Y-9996793D02*
X7478515Y-9949174D01*
X7478515Y-9949174D02*
X7488039Y-9911079D01*
X7488039Y-9911079D02*
X7497563Y-9892031D01*
X7497563Y-9892031D02*
X7507086Y-9882508D01*
X7507086Y-9882508D02*
X7526134Y-9872984D01*
X7678515Y-10053936D02*
X7688039Y-10063460D01*
X7688039Y-10063460D02*
X7678515Y-10072984D01*
X7678515Y-10072984D02*
X7668991Y-10063460D01*
X7668991Y-10063460D02*
X7678515Y-10053936D01*
X7678515Y-10053936D02*
X7678515Y-10072984D01*
X7811848Y-9872984D02*
X7830896Y-9872984D01*
X7830896Y-9872984D02*
X7849944Y-9882508D01*
X7849944Y-9882508D02*
X7859467Y-9892031D01*
X7859467Y-9892031D02*
X7868991Y-9911079D01*
X7868991Y-9911079D02*
X7878515Y-9949174D01*
X7878515Y-9949174D02*
X7878515Y-9996793D01*
X7878515Y-9996793D02*
X7868991Y-10034889D01*
X7868991Y-10034889D02*
X7859467Y-10053936D01*
X7859467Y-10053936D02*
X7849944Y-10063460D01*
X7849944Y-10063460D02*
X7830896Y-10072984D01*
X7830896Y-10072984D02*
X7811848Y-10072984D01*
X7811848Y-10072984D02*
X7792801Y-10063460D01*
X7792801Y-10063460D02*
X7783277Y-10053936D01*
X7783277Y-10053936D02*
X7773753Y-10034889D01*
X7773753Y-10034889D02*
X7764229Y-9996793D01*
X7764229Y-9996793D02*
X7764229Y-9949174D01*
X7764229Y-9949174D02*
X7773753Y-9911079D01*
X7773753Y-9911079D02*
X7783277Y-9892031D01*
X7783277Y-9892031D02*
X7792801Y-9882508D01*
X7792801Y-9882508D02*
X7811848Y-9872984D01*
X7945182Y-9872984D02*
X8068991Y-9872984D01*
X8068991Y-9872984D02*
X8002325Y-9949174D01*
X8002325Y-9949174D02*
X8030896Y-9949174D01*
X8030896Y-9949174D02*
X8049944Y-9958698D01*
X8049944Y-9958698D02*
X8059467Y-9968222D01*
X8059467Y-9968222D02*
X8068991Y-9987270D01*
X8068991Y-9987270D02*
X8068991Y-10034889D01*
X8068991Y-10034889D02*
X8059467Y-10053936D01*
X8059467Y-10053936D02*
X8049944Y-10063460D01*
X8049944Y-10063460D02*
X8030896Y-10072984D01*
X8030896Y-10072984D02*
X7973753Y-10072984D01*
X7973753Y-10072984D02*
X7954706Y-10063460D01*
X7954706Y-10063460D02*
X7945182Y-10053936D01*
X8259467Y-10072984D02*
X8145182Y-10072984D01*
X8202325Y-10072984D02*
X8202325Y-9872984D01*
X8202325Y-9872984D02*
X8183277Y-9901555D01*
X8183277Y-9901555D02*
X8164229Y-9920603D01*
X8164229Y-9920603D02*
X8145182Y-9930127D01*
X8440420Y-9872984D02*
X8345182Y-9872984D01*
X8345182Y-9872984D02*
X8335658Y-9968222D01*
X8335658Y-9968222D02*
X8345182Y-9958698D01*
X8345182Y-9958698D02*
X8364229Y-9949174D01*
X8364229Y-9949174D02*
X8411849Y-9949174D01*
X8411849Y-9949174D02*
X8430896Y-9958698D01*
X8430896Y-9958698D02*
X8440420Y-9968222D01*
X8440420Y-9968222D02*
X8449944Y-9987270D01*
X8449944Y-9987270D02*
X8449944Y-10034889D01*
X8449944Y-10034889D02*
X8440420Y-10053936D01*
X8440420Y-10053936D02*
X8430896Y-10063460D01*
X8430896Y-10063460D02*
X8411849Y-10072984D01*
X8411849Y-10072984D02*
X8364229Y-10072984D01*
X8364229Y-10072984D02*
X8345182Y-10063460D01*
X8345182Y-10063460D02*
X8335658Y-10053936D01*
X8526134Y-9872984D02*
X8526134Y-9911079D01*
X8602325Y-9872984D02*
X8602325Y-9911079D01*
X8897563Y-10149174D02*
X8888039Y-10139650D01*
X8888039Y-10139650D02*
X8868991Y-10111079D01*
X8868991Y-10111079D02*
X8859468Y-10092031D01*
X8859468Y-10092031D02*
X8849944Y-10063460D01*
X8849944Y-10063460D02*
X8840420Y-10015841D01*
X8840420Y-10015841D02*
X8840420Y-9977746D01*
X8840420Y-9977746D02*
X8849944Y-9930127D01*
X8849944Y-9930127D02*
X8859468Y-9901555D01*
X8859468Y-9901555D02*
X8868991Y-9882508D01*
X8868991Y-9882508D02*
X8888039Y-9853936D01*
X8888039Y-9853936D02*
X8897563Y-9844412D01*
X8964230Y-9892031D02*
X8973753Y-9882508D01*
X8973753Y-9882508D02*
X8992801Y-9872984D01*
X8992801Y-9872984D02*
X9040420Y-9872984D01*
X9040420Y-9872984D02*
X9059468Y-9882508D01*
X9059468Y-9882508D02*
X9068991Y-9892031D01*
X9068991Y-9892031D02*
X9078515Y-9911079D01*
X9078515Y-9911079D02*
X9078515Y-9930127D01*
X9078515Y-9930127D02*
X9068991Y-9958698D01*
X9068991Y-9958698D02*
X8954706Y-10072984D01*
X8954706Y-10072984D02*
X9078515Y-10072984D01*
X9154706Y-9892031D02*
X9164230Y-9882508D01*
X9164230Y-9882508D02*
X9183277Y-9872984D01*
X9183277Y-9872984D02*
X9230896Y-9872984D01*
X9230896Y-9872984D02*
X9249944Y-9882508D01*
X9249944Y-9882508D02*
X9259468Y-9892031D01*
X9259468Y-9892031D02*
X9268991Y-9911079D01*
X9268991Y-9911079D02*
X9268991Y-9930127D01*
X9268991Y-9930127D02*
X9259468Y-9958698D01*
X9259468Y-9958698D02*
X9145182Y-10072984D01*
X9145182Y-10072984D02*
X9268991Y-10072984D01*
X9507087Y-10072984D02*
X9507087Y-9872984D01*
X9592801Y-10072984D02*
X9592801Y-9968222D01*
X9592801Y-9968222D02*
X9583277Y-9949174D01*
X9583277Y-9949174D02*
X9564230Y-9939650D01*
X9564230Y-9939650D02*
X9535658Y-9939650D01*
X9535658Y-9939650D02*
X9516611Y-9949174D01*
X9516611Y-9949174D02*
X9507087Y-9958698D01*
X9716611Y-10072984D02*
X9697563Y-10063460D01*
X9697563Y-10063460D02*
X9688039Y-10053936D01*
X9688039Y-10053936D02*
X9678515Y-10034889D01*
X9678515Y-10034889D02*
X9678515Y-9977746D01*
X9678515Y-9977746D02*
X9688039Y-9958698D01*
X9688039Y-9958698D02*
X9697563Y-9949174D01*
X9697563Y-9949174D02*
X9716611Y-9939650D01*
X9716611Y-9939650D02*
X9745182Y-9939650D01*
X9745182Y-9939650D02*
X9764230Y-9949174D01*
X9764230Y-9949174D02*
X9773753Y-9958698D01*
X9773753Y-9958698D02*
X9783277Y-9977746D01*
X9783277Y-9977746D02*
X9783277Y-10034889D01*
X9783277Y-10034889D02*
X9773753Y-10053936D01*
X9773753Y-10053936D02*
X9764230Y-10063460D01*
X9764230Y-10063460D02*
X9745182Y-10072984D01*
X9745182Y-10072984D02*
X9716611Y-10072984D01*
X9897563Y-10072984D02*
X9878515Y-10063460D01*
X9878515Y-10063460D02*
X9868992Y-10044412D01*
X9868992Y-10044412D02*
X9868992Y-9872984D01*
X10049944Y-10063460D02*
X10030896Y-10072984D01*
X10030896Y-10072984D02*
X9992801Y-10072984D01*
X9992801Y-10072984D02*
X9973753Y-10063460D01*
X9973753Y-10063460D02*
X9964230Y-10044412D01*
X9964230Y-10044412D02*
X9964230Y-9968222D01*
X9964230Y-9968222D02*
X9973753Y-9949174D01*
X9973753Y-9949174D02*
X9992801Y-9939650D01*
X9992801Y-9939650D02*
X10030896Y-9939650D01*
X10030896Y-9939650D02*
X10049944Y-9949174D01*
X10049944Y-9949174D02*
X10059468Y-9968222D01*
X10059468Y-9968222D02*
X10059468Y-9987270D01*
X10059468Y-9987270D02*
X9964230Y-10006317D01*
X10135658Y-10063460D02*
X10154706Y-10072984D01*
X10154706Y-10072984D02*
X10192801Y-10072984D01*
X10192801Y-10072984D02*
X10211849Y-10063460D01*
X10211849Y-10063460D02*
X10221373Y-10044412D01*
X10221373Y-10044412D02*
X10221373Y-10034889D01*
X10221373Y-10034889D02*
X10211849Y-10015841D01*
X10211849Y-10015841D02*
X10192801Y-10006317D01*
X10192801Y-10006317D02*
X10164230Y-10006317D01*
X10164230Y-10006317D02*
X10145182Y-9996793D01*
X10145182Y-9996793D02*
X10135658Y-9977746D01*
X10135658Y-9977746D02*
X10135658Y-9968222D01*
X10135658Y-9968222D02*
X10145182Y-9949174D01*
X10145182Y-9949174D02*
X10164230Y-9939650D01*
X10164230Y-9939650D02*
X10192801Y-9939650D01*
X10192801Y-9939650D02*
X10211849Y-9949174D01*
X10288039Y-10149174D02*
X10297563Y-10139650D01*
X10297563Y-10139650D02*
X10316611Y-10111079D01*
X10316611Y-10111079D02*
X10326134Y-10092031D01*
X10326134Y-10092031D02*
X10335658Y-10063460D01*
X10335658Y-10063460D02*
X10345182Y-10015841D01*
X10345182Y-10015841D02*
X10345182Y-9977746D01*
X10345182Y-9977746D02*
X10335658Y-9930127D01*
X10335658Y-9930127D02*
X10326134Y-9901555D01*
X10326134Y-9901555D02*
X10316611Y-9882508D01*
X10316611Y-9882508D02*
X10297563Y-9853936D01*
X10297563Y-9853936D02*
X10288039Y-9844412D01*
D12*
X5279000Y-10202000D02*
X5279000Y-10289000D01*
X5235500Y-10245500D02*
X5322500Y-10245500D01*
D10*
X5621372Y-10136984D02*
X5640420Y-10136984D01*
X5640420Y-10136984D02*
X5659467Y-10146508D01*
X5659467Y-10146508D02*
X5668991Y-10156031D01*
X5668991Y-10156031D02*
X5678515Y-10175079D01*
X5678515Y-10175079D02*
X5688039Y-10213174D01*
X5688039Y-10213174D02*
X5688039Y-10260793D01*
X5688039Y-10260793D02*
X5678515Y-10298889D01*
X5678515Y-10298889D02*
X5668991Y-10317936D01*
X5668991Y-10317936D02*
X5659467Y-10327460D01*
X5659467Y-10327460D02*
X5640420Y-10336984D01*
X5640420Y-10336984D02*
X5621372Y-10336984D01*
X5621372Y-10336984D02*
X5602324Y-10327460D01*
X5602324Y-10327460D02*
X5592801Y-10317936D01*
X5592801Y-10317936D02*
X5583277Y-10298889D01*
X5583277Y-10298889D02*
X5573753Y-10260793D01*
X5573753Y-10260793D02*
X5573753Y-10213174D01*
X5573753Y-10213174D02*
X5583277Y-10175079D01*
X5583277Y-10175079D02*
X5592801Y-10156031D01*
X5592801Y-10156031D02*
X5602324Y-10146508D01*
X5602324Y-10146508D02*
X5621372Y-10136984D01*
X5773753Y-10317936D02*
X5783277Y-10327460D01*
X5783277Y-10327460D02*
X5773753Y-10336984D01*
X5773753Y-10336984D02*
X5764229Y-10327460D01*
X5764229Y-10327460D02*
X5773753Y-10317936D01*
X5773753Y-10317936D02*
X5773753Y-10336984D01*
X5897562Y-10222698D02*
X5878515Y-10213174D01*
X5878515Y-10213174D02*
X5868991Y-10203650D01*
X5868991Y-10203650D02*
X5859467Y-10184603D01*
X5859467Y-10184603D02*
X5859467Y-10175079D01*
X5859467Y-10175079D02*
X5868991Y-10156031D01*
X5868991Y-10156031D02*
X5878515Y-10146508D01*
X5878515Y-10146508D02*
X5897562Y-10136984D01*
X5897562Y-10136984D02*
X5935658Y-10136984D01*
X5935658Y-10136984D02*
X5954705Y-10146508D01*
X5954705Y-10146508D02*
X5964229Y-10156031D01*
X5964229Y-10156031D02*
X5973753Y-10175079D01*
X5973753Y-10175079D02*
X5973753Y-10184603D01*
X5973753Y-10184603D02*
X5964229Y-10203650D01*
X5964229Y-10203650D02*
X5954705Y-10213174D01*
X5954705Y-10213174D02*
X5935658Y-10222698D01*
X5935658Y-10222698D02*
X5897562Y-10222698D01*
X5897562Y-10222698D02*
X5878515Y-10232222D01*
X5878515Y-10232222D02*
X5868991Y-10241746D01*
X5868991Y-10241746D02*
X5859467Y-10260793D01*
X5859467Y-10260793D02*
X5859467Y-10298889D01*
X5859467Y-10298889D02*
X5868991Y-10317936D01*
X5868991Y-10317936D02*
X5878515Y-10327460D01*
X5878515Y-10327460D02*
X5897562Y-10336984D01*
X5897562Y-10336984D02*
X5935658Y-10336984D01*
X5935658Y-10336984D02*
X5954705Y-10327460D01*
X5954705Y-10327460D02*
X5964229Y-10317936D01*
X5964229Y-10317936D02*
X5973753Y-10298889D01*
X5973753Y-10298889D02*
X5973753Y-10260793D01*
X5973753Y-10260793D02*
X5964229Y-10241746D01*
X5964229Y-10241746D02*
X5954705Y-10232222D01*
X5954705Y-10232222D02*
X5935658Y-10222698D01*
X6040420Y-10136984D02*
X6173753Y-10136984D01*
X6173753Y-10136984D02*
X6088039Y-10336984D01*
X6288039Y-10136984D02*
X6307086Y-10136984D01*
X6307086Y-10136984D02*
X6326134Y-10146508D01*
X6326134Y-10146508D02*
X6335658Y-10156031D01*
X6335658Y-10156031D02*
X6345182Y-10175079D01*
X6345182Y-10175079D02*
X6354705Y-10213174D01*
X6354705Y-10213174D02*
X6354705Y-10260793D01*
X6354705Y-10260793D02*
X6345182Y-10298889D01*
X6345182Y-10298889D02*
X6335658Y-10317936D01*
X6335658Y-10317936D02*
X6326134Y-10327460D01*
X6326134Y-10327460D02*
X6307086Y-10336984D01*
X6307086Y-10336984D02*
X6288039Y-10336984D01*
X6288039Y-10336984D02*
X6268991Y-10327460D01*
X6268991Y-10327460D02*
X6259467Y-10317936D01*
X6259467Y-10317936D02*
X6249943Y-10298889D01*
X6249943Y-10298889D02*
X6240420Y-10260793D01*
X6240420Y-10260793D02*
X6240420Y-10213174D01*
X6240420Y-10213174D02*
X6249943Y-10175079D01*
X6249943Y-10175079D02*
X6259467Y-10156031D01*
X6259467Y-10156031D02*
X6268991Y-10146508D01*
X6268991Y-10146508D02*
X6288039Y-10136984D01*
X6440420Y-10336984D02*
X6440420Y-10203650D01*
X6440420Y-10222698D02*
X6449943Y-10213174D01*
X6449943Y-10213174D02*
X6468991Y-10203650D01*
X6468991Y-10203650D02*
X6497563Y-10203650D01*
X6497563Y-10203650D02*
X6516610Y-10213174D01*
X6516610Y-10213174D02*
X6526134Y-10232222D01*
X6526134Y-10232222D02*
X6526134Y-10336984D01*
X6526134Y-10232222D02*
X6535658Y-10213174D01*
X6535658Y-10213174D02*
X6554705Y-10203650D01*
X6554705Y-10203650D02*
X6583277Y-10203650D01*
X6583277Y-10203650D02*
X6602324Y-10213174D01*
X6602324Y-10213174D02*
X6611848Y-10232222D01*
X6611848Y-10232222D02*
X6611848Y-10336984D01*
X6707086Y-10336984D02*
X6707086Y-10203650D01*
X6707086Y-10222698D02*
X6716610Y-10213174D01*
X6716610Y-10213174D02*
X6735658Y-10203650D01*
X6735658Y-10203650D02*
X6764229Y-10203650D01*
X6764229Y-10203650D02*
X6783277Y-10213174D01*
X6783277Y-10213174D02*
X6792801Y-10232222D01*
X6792801Y-10232222D02*
X6792801Y-10336984D01*
X6792801Y-10232222D02*
X6802324Y-10213174D01*
X6802324Y-10213174D02*
X6821372Y-10203650D01*
X6821372Y-10203650D02*
X6849943Y-10203650D01*
X6849943Y-10203650D02*
X6868991Y-10213174D01*
X6868991Y-10213174D02*
X6878515Y-10232222D01*
X6878515Y-10232222D02*
X6878515Y-10336984D01*
X7268991Y-10127460D02*
X7097563Y-10384603D01*
X7526134Y-10136984D02*
X7545182Y-10136984D01*
X7545182Y-10136984D02*
X7564229Y-10146508D01*
X7564229Y-10146508D02*
X7573753Y-10156031D01*
X7573753Y-10156031D02*
X7583277Y-10175079D01*
X7583277Y-10175079D02*
X7592801Y-10213174D01*
X7592801Y-10213174D02*
X7592801Y-10260793D01*
X7592801Y-10260793D02*
X7583277Y-10298889D01*
X7583277Y-10298889D02*
X7573753Y-10317936D01*
X7573753Y-10317936D02*
X7564229Y-10327460D01*
X7564229Y-10327460D02*
X7545182Y-10336984D01*
X7545182Y-10336984D02*
X7526134Y-10336984D01*
X7526134Y-10336984D02*
X7507086Y-10327460D01*
X7507086Y-10327460D02*
X7497563Y-10317936D01*
X7497563Y-10317936D02*
X7488039Y-10298889D01*
X7488039Y-10298889D02*
X7478515Y-10260793D01*
X7478515Y-10260793D02*
X7478515Y-10213174D01*
X7478515Y-10213174D02*
X7488039Y-10175079D01*
X7488039Y-10175079D02*
X7497563Y-10156031D01*
X7497563Y-10156031D02*
X7507086Y-10146508D01*
X7507086Y-10146508D02*
X7526134Y-10136984D01*
X7678515Y-10317936D02*
X7688039Y-10327460D01*
X7688039Y-10327460D02*
X7678515Y-10336984D01*
X7678515Y-10336984D02*
X7668991Y-10327460D01*
X7668991Y-10327460D02*
X7678515Y-10317936D01*
X7678515Y-10317936D02*
X7678515Y-10336984D01*
X7811848Y-10136984D02*
X7830896Y-10136984D01*
X7830896Y-10136984D02*
X7849944Y-10146508D01*
X7849944Y-10146508D02*
X7859467Y-10156031D01*
X7859467Y-10156031D02*
X7868991Y-10175079D01*
X7868991Y-10175079D02*
X7878515Y-10213174D01*
X7878515Y-10213174D02*
X7878515Y-10260793D01*
X7878515Y-10260793D02*
X7868991Y-10298889D01*
X7868991Y-10298889D02*
X7859467Y-10317936D01*
X7859467Y-10317936D02*
X7849944Y-10327460D01*
X7849944Y-10327460D02*
X7830896Y-10336984D01*
X7830896Y-10336984D02*
X7811848Y-10336984D01*
X7811848Y-10336984D02*
X7792801Y-10327460D01*
X7792801Y-10327460D02*
X7783277Y-10317936D01*
X7783277Y-10317936D02*
X7773753Y-10298889D01*
X7773753Y-10298889D02*
X7764229Y-10260793D01*
X7764229Y-10260793D02*
X7764229Y-10213174D01*
X7764229Y-10213174D02*
X7773753Y-10175079D01*
X7773753Y-10175079D02*
X7783277Y-10156031D01*
X7783277Y-10156031D02*
X7792801Y-10146508D01*
X7792801Y-10146508D02*
X7811848Y-10136984D01*
X7945182Y-10136984D02*
X8068991Y-10136984D01*
X8068991Y-10136984D02*
X8002325Y-10213174D01*
X8002325Y-10213174D02*
X8030896Y-10213174D01*
X8030896Y-10213174D02*
X8049944Y-10222698D01*
X8049944Y-10222698D02*
X8059467Y-10232222D01*
X8059467Y-10232222D02*
X8068991Y-10251270D01*
X8068991Y-10251270D02*
X8068991Y-10298889D01*
X8068991Y-10298889D02*
X8059467Y-10317936D01*
X8059467Y-10317936D02*
X8049944Y-10327460D01*
X8049944Y-10327460D02*
X8030896Y-10336984D01*
X8030896Y-10336984D02*
X7973753Y-10336984D01*
X7973753Y-10336984D02*
X7954706Y-10327460D01*
X7954706Y-10327460D02*
X7945182Y-10317936D01*
X8240420Y-10203650D02*
X8240420Y-10336984D01*
X8192801Y-10127460D02*
X8145182Y-10270317D01*
X8145182Y-10270317D02*
X8268991Y-10270317D01*
X8326134Y-10136984D02*
X8449944Y-10136984D01*
X8449944Y-10136984D02*
X8383277Y-10213174D01*
X8383277Y-10213174D02*
X8411849Y-10213174D01*
X8411849Y-10213174D02*
X8430896Y-10222698D01*
X8430896Y-10222698D02*
X8440420Y-10232222D01*
X8440420Y-10232222D02*
X8449944Y-10251270D01*
X8449944Y-10251270D02*
X8449944Y-10298889D01*
X8449944Y-10298889D02*
X8440420Y-10317936D01*
X8440420Y-10317936D02*
X8430896Y-10327460D01*
X8430896Y-10327460D02*
X8411849Y-10336984D01*
X8411849Y-10336984D02*
X8354706Y-10336984D01*
X8354706Y-10336984D02*
X8335658Y-10327460D01*
X8335658Y-10327460D02*
X8326134Y-10317936D01*
X8526134Y-10136984D02*
X8526134Y-10175079D01*
X8602325Y-10136984D02*
X8602325Y-10175079D01*
X8897563Y-10413174D02*
X8888039Y-10403650D01*
X8888039Y-10403650D02*
X8868991Y-10375079D01*
X8868991Y-10375079D02*
X8859468Y-10356031D01*
X8859468Y-10356031D02*
X8849944Y-10327460D01*
X8849944Y-10327460D02*
X8840420Y-10279841D01*
X8840420Y-10279841D02*
X8840420Y-10241746D01*
X8840420Y-10241746D02*
X8849944Y-10194127D01*
X8849944Y-10194127D02*
X8859468Y-10165555D01*
X8859468Y-10165555D02*
X8868991Y-10146508D01*
X8868991Y-10146508D02*
X8888039Y-10117936D01*
X8888039Y-10117936D02*
X8897563Y-10108412D01*
X8954706Y-10136984D02*
X9078515Y-10136984D01*
X9078515Y-10136984D02*
X9011849Y-10213174D01*
X9011849Y-10213174D02*
X9040420Y-10213174D01*
X9040420Y-10213174D02*
X9059468Y-10222698D01*
X9059468Y-10222698D02*
X9068991Y-10232222D01*
X9068991Y-10232222D02*
X9078515Y-10251270D01*
X9078515Y-10251270D02*
X9078515Y-10298889D01*
X9078515Y-10298889D02*
X9068991Y-10317936D01*
X9068991Y-10317936D02*
X9059468Y-10327460D01*
X9059468Y-10327460D02*
X9040420Y-10336984D01*
X9040420Y-10336984D02*
X8983277Y-10336984D01*
X8983277Y-10336984D02*
X8964230Y-10327460D01*
X8964230Y-10327460D02*
X8954706Y-10317936D01*
X9316611Y-10336984D02*
X9316611Y-10136984D01*
X9402325Y-10336984D02*
X9402325Y-10232222D01*
X9402325Y-10232222D02*
X9392801Y-10213174D01*
X9392801Y-10213174D02*
X9373753Y-10203650D01*
X9373753Y-10203650D02*
X9345182Y-10203650D01*
X9345182Y-10203650D02*
X9326134Y-10213174D01*
X9326134Y-10213174D02*
X9316611Y-10222698D01*
X9526134Y-10336984D02*
X9507087Y-10327460D01*
X9507087Y-10327460D02*
X9497563Y-10317936D01*
X9497563Y-10317936D02*
X9488039Y-10298889D01*
X9488039Y-10298889D02*
X9488039Y-10241746D01*
X9488039Y-10241746D02*
X9497563Y-10222698D01*
X9497563Y-10222698D02*
X9507087Y-10213174D01*
X9507087Y-10213174D02*
X9526134Y-10203650D01*
X9526134Y-10203650D02*
X9554706Y-10203650D01*
X9554706Y-10203650D02*
X9573753Y-10213174D01*
X9573753Y-10213174D02*
X9583277Y-10222698D01*
X9583277Y-10222698D02*
X9592801Y-10241746D01*
X9592801Y-10241746D02*
X9592801Y-10298889D01*
X9592801Y-10298889D02*
X9583277Y-10317936D01*
X9583277Y-10317936D02*
X9573753Y-10327460D01*
X9573753Y-10327460D02*
X9554706Y-10336984D01*
X9554706Y-10336984D02*
X9526134Y-10336984D01*
X9707087Y-10336984D02*
X9688039Y-10327460D01*
X9688039Y-10327460D02*
X9678515Y-10308412D01*
X9678515Y-10308412D02*
X9678515Y-10136984D01*
X9859468Y-10327460D02*
X9840420Y-10336984D01*
X9840420Y-10336984D02*
X9802325Y-10336984D01*
X9802325Y-10336984D02*
X9783277Y-10327460D01*
X9783277Y-10327460D02*
X9773753Y-10308412D01*
X9773753Y-10308412D02*
X9773753Y-10232222D01*
X9773753Y-10232222D02*
X9783277Y-10213174D01*
X9783277Y-10213174D02*
X9802325Y-10203650D01*
X9802325Y-10203650D02*
X9840420Y-10203650D01*
X9840420Y-10203650D02*
X9859468Y-10213174D01*
X9859468Y-10213174D02*
X9868992Y-10232222D01*
X9868992Y-10232222D02*
X9868992Y-10251270D01*
X9868992Y-10251270D02*
X9773753Y-10270317D01*
X9945182Y-10327460D02*
X9964230Y-10336984D01*
X9964230Y-10336984D02*
X10002325Y-10336984D01*
X10002325Y-10336984D02*
X10021373Y-10327460D01*
X10021373Y-10327460D02*
X10030896Y-10308412D01*
X10030896Y-10308412D02*
X10030896Y-10298889D01*
X10030896Y-10298889D02*
X10021373Y-10279841D01*
X10021373Y-10279841D02*
X10002325Y-10270317D01*
X10002325Y-10270317D02*
X9973753Y-10270317D01*
X9973753Y-10270317D02*
X9954706Y-10260793D01*
X9954706Y-10260793D02*
X9945182Y-10241746D01*
X9945182Y-10241746D02*
X9945182Y-10232222D01*
X9945182Y-10232222D02*
X9954706Y-10213174D01*
X9954706Y-10213174D02*
X9973753Y-10203650D01*
X9973753Y-10203650D02*
X10002325Y-10203650D01*
X10002325Y-10203650D02*
X10021373Y-10213174D01*
X10097563Y-10413174D02*
X10107087Y-10403650D01*
X10107087Y-10403650D02*
X10126134Y-10375079D01*
X10126134Y-10375079D02*
X10135658Y-10356031D01*
X10135658Y-10356031D02*
X10145182Y-10327460D01*
X10145182Y-10327460D02*
X10154706Y-10279841D01*
X10154706Y-10279841D02*
X10154706Y-10241746D01*
X10154706Y-10241746D02*
X10145182Y-10194127D01*
X10145182Y-10194127D02*
X10135658Y-10165555D01*
X10135658Y-10165555D02*
X10126134Y-10146508D01*
X10126134Y-10146508D02*
X10107087Y-10117936D01*
X10107087Y-10117936D02*
X10097563Y-10108412D01*
D12*
X5307856Y-10544856D02*
X5307856Y-10474144D01*
X5237144Y-10474144D01*
X5237144Y-10544856D01*
X5307856Y-10544856D01*
D10*
X5688039Y-10600984D02*
X5573753Y-10600984D01*
X5630896Y-10600984D02*
X5630896Y-10400984D01*
X5630896Y-10400984D02*
X5611848Y-10429555D01*
X5611848Y-10429555D02*
X5592801Y-10448603D01*
X5592801Y-10448603D02*
X5573753Y-10458127D01*
X5773753Y-10581936D02*
X5783277Y-10591460D01*
X5783277Y-10591460D02*
X5773753Y-10600984D01*
X5773753Y-10600984D02*
X5764229Y-10591460D01*
X5764229Y-10591460D02*
X5773753Y-10581936D01*
X5773753Y-10581936D02*
X5773753Y-10600984D01*
X5907086Y-10400984D02*
X5926134Y-10400984D01*
X5926134Y-10400984D02*
X5945182Y-10410508D01*
X5945182Y-10410508D02*
X5954705Y-10420031D01*
X5954705Y-10420031D02*
X5964229Y-10439079D01*
X5964229Y-10439079D02*
X5973753Y-10477174D01*
X5973753Y-10477174D02*
X5973753Y-10524793D01*
X5973753Y-10524793D02*
X5964229Y-10562889D01*
X5964229Y-10562889D02*
X5954705Y-10581936D01*
X5954705Y-10581936D02*
X5945182Y-10591460D01*
X5945182Y-10591460D02*
X5926134Y-10600984D01*
X5926134Y-10600984D02*
X5907086Y-10600984D01*
X5907086Y-10600984D02*
X5888039Y-10591460D01*
X5888039Y-10591460D02*
X5878515Y-10581936D01*
X5878515Y-10581936D02*
X5868991Y-10562889D01*
X5868991Y-10562889D02*
X5859467Y-10524793D01*
X5859467Y-10524793D02*
X5859467Y-10477174D01*
X5859467Y-10477174D02*
X5868991Y-10439079D01*
X5868991Y-10439079D02*
X5878515Y-10420031D01*
X5878515Y-10420031D02*
X5888039Y-10410508D01*
X5888039Y-10410508D02*
X5907086Y-10400984D01*
X6097562Y-10400984D02*
X6116610Y-10400984D01*
X6116610Y-10400984D02*
X6135658Y-10410508D01*
X6135658Y-10410508D02*
X6145182Y-10420031D01*
X6145182Y-10420031D02*
X6154705Y-10439079D01*
X6154705Y-10439079D02*
X6164229Y-10477174D01*
X6164229Y-10477174D02*
X6164229Y-10524793D01*
X6164229Y-10524793D02*
X6154705Y-10562889D01*
X6154705Y-10562889D02*
X6145182Y-10581936D01*
X6145182Y-10581936D02*
X6135658Y-10591460D01*
X6135658Y-10591460D02*
X6116610Y-10600984D01*
X6116610Y-10600984D02*
X6097562Y-10600984D01*
X6097562Y-10600984D02*
X6078515Y-10591460D01*
X6078515Y-10591460D02*
X6068991Y-10581936D01*
X6068991Y-10581936D02*
X6059467Y-10562889D01*
X6059467Y-10562889D02*
X6049943Y-10524793D01*
X6049943Y-10524793D02*
X6049943Y-10477174D01*
X6049943Y-10477174D02*
X6059467Y-10439079D01*
X6059467Y-10439079D02*
X6068991Y-10420031D01*
X6068991Y-10420031D02*
X6078515Y-10410508D01*
X6078515Y-10410508D02*
X6097562Y-10400984D01*
X6288039Y-10400984D02*
X6307086Y-10400984D01*
X6307086Y-10400984D02*
X6326134Y-10410508D01*
X6326134Y-10410508D02*
X6335658Y-10420031D01*
X6335658Y-10420031D02*
X6345182Y-10439079D01*
X6345182Y-10439079D02*
X6354705Y-10477174D01*
X6354705Y-10477174D02*
X6354705Y-10524793D01*
X6354705Y-10524793D02*
X6345182Y-10562889D01*
X6345182Y-10562889D02*
X6335658Y-10581936D01*
X6335658Y-10581936D02*
X6326134Y-10591460D01*
X6326134Y-10591460D02*
X6307086Y-10600984D01*
X6307086Y-10600984D02*
X6288039Y-10600984D01*
X6288039Y-10600984D02*
X6268991Y-10591460D01*
X6268991Y-10591460D02*
X6259467Y-10581936D01*
X6259467Y-10581936D02*
X6249943Y-10562889D01*
X6249943Y-10562889D02*
X6240420Y-10524793D01*
X6240420Y-10524793D02*
X6240420Y-10477174D01*
X6240420Y-10477174D02*
X6249943Y-10439079D01*
X6249943Y-10439079D02*
X6259467Y-10420031D01*
X6259467Y-10420031D02*
X6268991Y-10410508D01*
X6268991Y-10410508D02*
X6288039Y-10400984D01*
X6440420Y-10600984D02*
X6440420Y-10467650D01*
X6440420Y-10486698D02*
X6449943Y-10477174D01*
X6449943Y-10477174D02*
X6468991Y-10467650D01*
X6468991Y-10467650D02*
X6497563Y-10467650D01*
X6497563Y-10467650D02*
X6516610Y-10477174D01*
X6516610Y-10477174D02*
X6526134Y-10496222D01*
X6526134Y-10496222D02*
X6526134Y-10600984D01*
X6526134Y-10496222D02*
X6535658Y-10477174D01*
X6535658Y-10477174D02*
X6554705Y-10467650D01*
X6554705Y-10467650D02*
X6583277Y-10467650D01*
X6583277Y-10467650D02*
X6602324Y-10477174D01*
X6602324Y-10477174D02*
X6611848Y-10496222D01*
X6611848Y-10496222D02*
X6611848Y-10600984D01*
X6707086Y-10600984D02*
X6707086Y-10467650D01*
X6707086Y-10486698D02*
X6716610Y-10477174D01*
X6716610Y-10477174D02*
X6735658Y-10467650D01*
X6735658Y-10467650D02*
X6764229Y-10467650D01*
X6764229Y-10467650D02*
X6783277Y-10477174D01*
X6783277Y-10477174D02*
X6792801Y-10496222D01*
X6792801Y-10496222D02*
X6792801Y-10600984D01*
X6792801Y-10496222D02*
X6802324Y-10477174D01*
X6802324Y-10477174D02*
X6821372Y-10467650D01*
X6821372Y-10467650D02*
X6849943Y-10467650D01*
X6849943Y-10467650D02*
X6868991Y-10477174D01*
X6868991Y-10477174D02*
X6878515Y-10496222D01*
X6878515Y-10496222D02*
X6878515Y-10600984D01*
X7268991Y-10391460D02*
X7097563Y-10648603D01*
X7526134Y-10400984D02*
X7545182Y-10400984D01*
X7545182Y-10400984D02*
X7564229Y-10410508D01*
X7564229Y-10410508D02*
X7573753Y-10420031D01*
X7573753Y-10420031D02*
X7583277Y-10439079D01*
X7583277Y-10439079D02*
X7592801Y-10477174D01*
X7592801Y-10477174D02*
X7592801Y-10524793D01*
X7592801Y-10524793D02*
X7583277Y-10562889D01*
X7583277Y-10562889D02*
X7573753Y-10581936D01*
X7573753Y-10581936D02*
X7564229Y-10591460D01*
X7564229Y-10591460D02*
X7545182Y-10600984D01*
X7545182Y-10600984D02*
X7526134Y-10600984D01*
X7526134Y-10600984D02*
X7507086Y-10591460D01*
X7507086Y-10591460D02*
X7497563Y-10581936D01*
X7497563Y-10581936D02*
X7488039Y-10562889D01*
X7488039Y-10562889D02*
X7478515Y-10524793D01*
X7478515Y-10524793D02*
X7478515Y-10477174D01*
X7478515Y-10477174D02*
X7488039Y-10439079D01*
X7488039Y-10439079D02*
X7497563Y-10420031D01*
X7497563Y-10420031D02*
X7507086Y-10410508D01*
X7507086Y-10410508D02*
X7526134Y-10400984D01*
X7678515Y-10581936D02*
X7688039Y-10591460D01*
X7688039Y-10591460D02*
X7678515Y-10600984D01*
X7678515Y-10600984D02*
X7668991Y-10591460D01*
X7668991Y-10591460D02*
X7678515Y-10581936D01*
X7678515Y-10581936D02*
X7678515Y-10600984D01*
X7811848Y-10400984D02*
X7830896Y-10400984D01*
X7830896Y-10400984D02*
X7849944Y-10410508D01*
X7849944Y-10410508D02*
X7859467Y-10420031D01*
X7859467Y-10420031D02*
X7868991Y-10439079D01*
X7868991Y-10439079D02*
X7878515Y-10477174D01*
X7878515Y-10477174D02*
X7878515Y-10524793D01*
X7878515Y-10524793D02*
X7868991Y-10562889D01*
X7868991Y-10562889D02*
X7859467Y-10581936D01*
X7859467Y-10581936D02*
X7849944Y-10591460D01*
X7849944Y-10591460D02*
X7830896Y-10600984D01*
X7830896Y-10600984D02*
X7811848Y-10600984D01*
X7811848Y-10600984D02*
X7792801Y-10591460D01*
X7792801Y-10591460D02*
X7783277Y-10581936D01*
X7783277Y-10581936D02*
X7773753Y-10562889D01*
X7773753Y-10562889D02*
X7764229Y-10524793D01*
X7764229Y-10524793D02*
X7764229Y-10477174D01*
X7764229Y-10477174D02*
X7773753Y-10439079D01*
X7773753Y-10439079D02*
X7783277Y-10420031D01*
X7783277Y-10420031D02*
X7792801Y-10410508D01*
X7792801Y-10410508D02*
X7811848Y-10400984D01*
X7945182Y-10400984D02*
X8068991Y-10400984D01*
X8068991Y-10400984D02*
X8002325Y-10477174D01*
X8002325Y-10477174D02*
X8030896Y-10477174D01*
X8030896Y-10477174D02*
X8049944Y-10486698D01*
X8049944Y-10486698D02*
X8059467Y-10496222D01*
X8059467Y-10496222D02*
X8068991Y-10515270D01*
X8068991Y-10515270D02*
X8068991Y-10562889D01*
X8068991Y-10562889D02*
X8059467Y-10581936D01*
X8059467Y-10581936D02*
X8049944Y-10591460D01*
X8049944Y-10591460D02*
X8030896Y-10600984D01*
X8030896Y-10600984D02*
X7973753Y-10600984D01*
X7973753Y-10600984D02*
X7954706Y-10591460D01*
X7954706Y-10591460D02*
X7945182Y-10581936D01*
X8164229Y-10600984D02*
X8202325Y-10600984D01*
X8202325Y-10600984D02*
X8221372Y-10591460D01*
X8221372Y-10591460D02*
X8230896Y-10581936D01*
X8230896Y-10581936D02*
X8249944Y-10553365D01*
X8249944Y-10553365D02*
X8259467Y-10515270D01*
X8259467Y-10515270D02*
X8259467Y-10439079D01*
X8259467Y-10439079D02*
X8249944Y-10420031D01*
X8249944Y-10420031D02*
X8240420Y-10410508D01*
X8240420Y-10410508D02*
X8221372Y-10400984D01*
X8221372Y-10400984D02*
X8183277Y-10400984D01*
X8183277Y-10400984D02*
X8164229Y-10410508D01*
X8164229Y-10410508D02*
X8154706Y-10420031D01*
X8154706Y-10420031D02*
X8145182Y-10439079D01*
X8145182Y-10439079D02*
X8145182Y-10486698D01*
X8145182Y-10486698D02*
X8154706Y-10505746D01*
X8154706Y-10505746D02*
X8164229Y-10515270D01*
X8164229Y-10515270D02*
X8183277Y-10524793D01*
X8183277Y-10524793D02*
X8221372Y-10524793D01*
X8221372Y-10524793D02*
X8240420Y-10515270D01*
X8240420Y-10515270D02*
X8249944Y-10505746D01*
X8249944Y-10505746D02*
X8259467Y-10486698D01*
X8430896Y-10467650D02*
X8430896Y-10600984D01*
X8383277Y-10391460D02*
X8335658Y-10534317D01*
X8335658Y-10534317D02*
X8459468Y-10534317D01*
X8526134Y-10400984D02*
X8526134Y-10439079D01*
X8602325Y-10400984D02*
X8602325Y-10439079D01*
X8897563Y-10677174D02*
X8888039Y-10667650D01*
X8888039Y-10667650D02*
X8868991Y-10639079D01*
X8868991Y-10639079D02*
X8859468Y-10620031D01*
X8859468Y-10620031D02*
X8849944Y-10591460D01*
X8849944Y-10591460D02*
X8840420Y-10543841D01*
X8840420Y-10543841D02*
X8840420Y-10505746D01*
X8840420Y-10505746D02*
X8849944Y-10458127D01*
X8849944Y-10458127D02*
X8859468Y-10429555D01*
X8859468Y-10429555D02*
X8868991Y-10410508D01*
X8868991Y-10410508D02*
X8888039Y-10381936D01*
X8888039Y-10381936D02*
X8897563Y-10372412D01*
X9078515Y-10600984D02*
X8964230Y-10600984D01*
X9021372Y-10600984D02*
X9021372Y-10400984D01*
X9021372Y-10400984D02*
X9002325Y-10429555D01*
X9002325Y-10429555D02*
X8983277Y-10448603D01*
X8983277Y-10448603D02*
X8964230Y-10458127D01*
X9202325Y-10400984D02*
X9221372Y-10400984D01*
X9221372Y-10400984D02*
X9240420Y-10410508D01*
X9240420Y-10410508D02*
X9249944Y-10420031D01*
X9249944Y-10420031D02*
X9259468Y-10439079D01*
X9259468Y-10439079D02*
X9268991Y-10477174D01*
X9268991Y-10477174D02*
X9268991Y-10524793D01*
X9268991Y-10524793D02*
X9259468Y-10562889D01*
X9259468Y-10562889D02*
X9249944Y-10581936D01*
X9249944Y-10581936D02*
X9240420Y-10591460D01*
X9240420Y-10591460D02*
X9221372Y-10600984D01*
X9221372Y-10600984D02*
X9202325Y-10600984D01*
X9202325Y-10600984D02*
X9183277Y-10591460D01*
X9183277Y-10591460D02*
X9173753Y-10581936D01*
X9173753Y-10581936D02*
X9164230Y-10562889D01*
X9164230Y-10562889D02*
X9154706Y-10524793D01*
X9154706Y-10524793D02*
X9154706Y-10477174D01*
X9154706Y-10477174D02*
X9164230Y-10439079D01*
X9164230Y-10439079D02*
X9173753Y-10420031D01*
X9173753Y-10420031D02*
X9183277Y-10410508D01*
X9183277Y-10410508D02*
X9202325Y-10400984D01*
X9507087Y-10600984D02*
X9507087Y-10400984D01*
X9592801Y-10600984D02*
X9592801Y-10496222D01*
X9592801Y-10496222D02*
X9583277Y-10477174D01*
X9583277Y-10477174D02*
X9564230Y-10467650D01*
X9564230Y-10467650D02*
X9535658Y-10467650D01*
X9535658Y-10467650D02*
X9516611Y-10477174D01*
X9516611Y-10477174D02*
X9507087Y-10486698D01*
X9716611Y-10600984D02*
X9697563Y-10591460D01*
X9697563Y-10591460D02*
X9688039Y-10581936D01*
X9688039Y-10581936D02*
X9678515Y-10562889D01*
X9678515Y-10562889D02*
X9678515Y-10505746D01*
X9678515Y-10505746D02*
X9688039Y-10486698D01*
X9688039Y-10486698D02*
X9697563Y-10477174D01*
X9697563Y-10477174D02*
X9716611Y-10467650D01*
X9716611Y-10467650D02*
X9745182Y-10467650D01*
X9745182Y-10467650D02*
X9764230Y-10477174D01*
X9764230Y-10477174D02*
X9773753Y-10486698D01*
X9773753Y-10486698D02*
X9783277Y-10505746D01*
X9783277Y-10505746D02*
X9783277Y-10562889D01*
X9783277Y-10562889D02*
X9773753Y-10581936D01*
X9773753Y-10581936D02*
X9764230Y-10591460D01*
X9764230Y-10591460D02*
X9745182Y-10600984D01*
X9745182Y-10600984D02*
X9716611Y-10600984D01*
X9897563Y-10600984D02*
X9878515Y-10591460D01*
X9878515Y-10591460D02*
X9868992Y-10572412D01*
X9868992Y-10572412D02*
X9868992Y-10400984D01*
X10049944Y-10591460D02*
X10030896Y-10600984D01*
X10030896Y-10600984D02*
X9992801Y-10600984D01*
X9992801Y-10600984D02*
X9973753Y-10591460D01*
X9973753Y-10591460D02*
X9964230Y-10572412D01*
X9964230Y-10572412D02*
X9964230Y-10496222D01*
X9964230Y-10496222D02*
X9973753Y-10477174D01*
X9973753Y-10477174D02*
X9992801Y-10467650D01*
X9992801Y-10467650D02*
X10030896Y-10467650D01*
X10030896Y-10467650D02*
X10049944Y-10477174D01*
X10049944Y-10477174D02*
X10059468Y-10496222D01*
X10059468Y-10496222D02*
X10059468Y-10515270D01*
X10059468Y-10515270D02*
X9964230Y-10534317D01*
X10135658Y-10591460D02*
X10154706Y-10600984D01*
X10154706Y-10600984D02*
X10192801Y-10600984D01*
X10192801Y-10600984D02*
X10211849Y-10591460D01*
X10211849Y-10591460D02*
X10221373Y-10572412D01*
X10221373Y-10572412D02*
X10221373Y-10562889D01*
X10221373Y-10562889D02*
X10211849Y-10543841D01*
X10211849Y-10543841D02*
X10192801Y-10534317D01*
X10192801Y-10534317D02*
X10164230Y-10534317D01*
X10164230Y-10534317D02*
X10145182Y-10524793D01*
X10145182Y-10524793D02*
X10135658Y-10505746D01*
X10135658Y-10505746D02*
X10135658Y-10496222D01*
X10135658Y-10496222D02*
X10145182Y-10477174D01*
X10145182Y-10477174D02*
X10164230Y-10467650D01*
X10164230Y-10467650D02*
X10192801Y-10467650D01*
X10192801Y-10467650D02*
X10211849Y-10477174D01*
X10459468Y-10524793D02*
X10611849Y-10524793D01*
X10535658Y-10600984D02*
X10535658Y-10448603D01*
X10840420Y-10400984D02*
X10964230Y-10400984D01*
X10964230Y-10400984D02*
X10897563Y-10477174D01*
X10897563Y-10477174D02*
X10926135Y-10477174D01*
X10926135Y-10477174D02*
X10945182Y-10486698D01*
X10945182Y-10486698D02*
X10954706Y-10496222D01*
X10954706Y-10496222D02*
X10964230Y-10515270D01*
X10964230Y-10515270D02*
X10964230Y-10562889D01*
X10964230Y-10562889D02*
X10954706Y-10581936D01*
X10954706Y-10581936D02*
X10945182Y-10591460D01*
X10945182Y-10591460D02*
X10926135Y-10600984D01*
X10926135Y-10600984D02*
X10868992Y-10600984D01*
X10868992Y-10600984D02*
X10849944Y-10591460D01*
X10849944Y-10591460D02*
X10840420Y-10581936D01*
X11192801Y-10591460D02*
X11211849Y-10600984D01*
X11211849Y-10600984D02*
X11249944Y-10600984D01*
X11249944Y-10600984D02*
X11268992Y-10591460D01*
X11268992Y-10591460D02*
X11278515Y-10572412D01*
X11278515Y-10572412D02*
X11278515Y-10562889D01*
X11278515Y-10562889D02*
X11268992Y-10543841D01*
X11268992Y-10543841D02*
X11249944Y-10534317D01*
X11249944Y-10534317D02*
X11221373Y-10534317D01*
X11221373Y-10534317D02*
X11202325Y-10524793D01*
X11202325Y-10524793D02*
X11192801Y-10505746D01*
X11192801Y-10505746D02*
X11192801Y-10496222D01*
X11192801Y-10496222D02*
X11202325Y-10477174D01*
X11202325Y-10477174D02*
X11221373Y-10467650D01*
X11221373Y-10467650D02*
X11249944Y-10467650D01*
X11249944Y-10467650D02*
X11268992Y-10477174D01*
X11392801Y-10600984D02*
X11373754Y-10591460D01*
X11373754Y-10591460D02*
X11364230Y-10572412D01*
X11364230Y-10572412D02*
X11364230Y-10400984D01*
X11497563Y-10600984D02*
X11478515Y-10591460D01*
X11478515Y-10591460D02*
X11468992Y-10581936D01*
X11468992Y-10581936D02*
X11459468Y-10562889D01*
X11459468Y-10562889D02*
X11459468Y-10505746D01*
X11459468Y-10505746D02*
X11468992Y-10486698D01*
X11468992Y-10486698D02*
X11478515Y-10477174D01*
X11478515Y-10477174D02*
X11497563Y-10467650D01*
X11497563Y-10467650D02*
X11526135Y-10467650D01*
X11526135Y-10467650D02*
X11545182Y-10477174D01*
X11545182Y-10477174D02*
X11554706Y-10486698D01*
X11554706Y-10486698D02*
X11564230Y-10505746D01*
X11564230Y-10505746D02*
X11564230Y-10562889D01*
X11564230Y-10562889D02*
X11554706Y-10581936D01*
X11554706Y-10581936D02*
X11545182Y-10591460D01*
X11545182Y-10591460D02*
X11526135Y-10600984D01*
X11526135Y-10600984D02*
X11497563Y-10600984D01*
X11621373Y-10467650D02*
X11697563Y-10467650D01*
X11649944Y-10400984D02*
X11649944Y-10572412D01*
X11649944Y-10572412D02*
X11659468Y-10591460D01*
X11659468Y-10591460D02*
X11678515Y-10600984D01*
X11678515Y-10600984D02*
X11697563Y-10600984D01*
X11754706Y-10591460D02*
X11773754Y-10600984D01*
X11773754Y-10600984D02*
X11811849Y-10600984D01*
X11811849Y-10600984D02*
X11830896Y-10591460D01*
X11830896Y-10591460D02*
X11840420Y-10572412D01*
X11840420Y-10572412D02*
X11840420Y-10562889D01*
X11840420Y-10562889D02*
X11830896Y-10543841D01*
X11830896Y-10543841D02*
X11811849Y-10534317D01*
X11811849Y-10534317D02*
X11783277Y-10534317D01*
X11783277Y-10534317D02*
X11764230Y-10524793D01*
X11764230Y-10524793D02*
X11754706Y-10505746D01*
X11754706Y-10505746D02*
X11754706Y-10496222D01*
X11754706Y-10496222D02*
X11764230Y-10477174D01*
X11764230Y-10477174D02*
X11783277Y-10467650D01*
X11783277Y-10467650D02*
X11811849Y-10467650D01*
X11811849Y-10467650D02*
X11830896Y-10477174D01*
X11907087Y-10677174D02*
X11916611Y-10667650D01*
X11916611Y-10667650D02*
X11935658Y-10639079D01*
X11935658Y-10639079D02*
X11945182Y-10620031D01*
X11945182Y-10620031D02*
X11954706Y-10591460D01*
X11954706Y-10591460D02*
X11964230Y-10543841D01*
X11964230Y-10543841D02*
X11964230Y-10505746D01*
X11964230Y-10505746D02*
X11954706Y-10458127D01*
X11954706Y-10458127D02*
X11945182Y-10429555D01*
X11945182Y-10429555D02*
X11935658Y-10410508D01*
X11935658Y-10410508D02*
X11916611Y-10381936D01*
X11916611Y-10381936D02*
X11907087Y-10372412D01*
D13*
X5267500Y-10828500D02*
X5322500Y-10773500D01*
X5267500Y-10718500D01*
X5212500Y-10773500D01*
X5267500Y-10828500D01*
D10*
X5688039Y-10864984D02*
X5573753Y-10864984D01*
X5630896Y-10864984D02*
X5630896Y-10664984D01*
X5630896Y-10664984D02*
X5611848Y-10693555D01*
X5611848Y-10693555D02*
X5592801Y-10712603D01*
X5592801Y-10712603D02*
X5573753Y-10722127D01*
X5773753Y-10845936D02*
X5783277Y-10855460D01*
X5783277Y-10855460D02*
X5773753Y-10864984D01*
X5773753Y-10864984D02*
X5764229Y-10855460D01*
X5764229Y-10855460D02*
X5773753Y-10845936D01*
X5773753Y-10845936D02*
X5773753Y-10864984D01*
X5973753Y-10864984D02*
X5859467Y-10864984D01*
X5916610Y-10864984D02*
X5916610Y-10664984D01*
X5916610Y-10664984D02*
X5897562Y-10693555D01*
X5897562Y-10693555D02*
X5878515Y-10712603D01*
X5878515Y-10712603D02*
X5859467Y-10722127D01*
X6097562Y-10664984D02*
X6116610Y-10664984D01*
X6116610Y-10664984D02*
X6135658Y-10674508D01*
X6135658Y-10674508D02*
X6145182Y-10684031D01*
X6145182Y-10684031D02*
X6154705Y-10703079D01*
X6154705Y-10703079D02*
X6164229Y-10741174D01*
X6164229Y-10741174D02*
X6164229Y-10788793D01*
X6164229Y-10788793D02*
X6154705Y-10826889D01*
X6154705Y-10826889D02*
X6145182Y-10845936D01*
X6145182Y-10845936D02*
X6135658Y-10855460D01*
X6135658Y-10855460D02*
X6116610Y-10864984D01*
X6116610Y-10864984D02*
X6097562Y-10864984D01*
X6097562Y-10864984D02*
X6078515Y-10855460D01*
X6078515Y-10855460D02*
X6068991Y-10845936D01*
X6068991Y-10845936D02*
X6059467Y-10826889D01*
X6059467Y-10826889D02*
X6049943Y-10788793D01*
X6049943Y-10788793D02*
X6049943Y-10741174D01*
X6049943Y-10741174D02*
X6059467Y-10703079D01*
X6059467Y-10703079D02*
X6068991Y-10684031D01*
X6068991Y-10684031D02*
X6078515Y-10674508D01*
X6078515Y-10674508D02*
X6097562Y-10664984D01*
X6288039Y-10664984D02*
X6307086Y-10664984D01*
X6307086Y-10664984D02*
X6326134Y-10674508D01*
X6326134Y-10674508D02*
X6335658Y-10684031D01*
X6335658Y-10684031D02*
X6345182Y-10703079D01*
X6345182Y-10703079D02*
X6354705Y-10741174D01*
X6354705Y-10741174D02*
X6354705Y-10788793D01*
X6354705Y-10788793D02*
X6345182Y-10826889D01*
X6345182Y-10826889D02*
X6335658Y-10845936D01*
X6335658Y-10845936D02*
X6326134Y-10855460D01*
X6326134Y-10855460D02*
X6307086Y-10864984D01*
X6307086Y-10864984D02*
X6288039Y-10864984D01*
X6288039Y-10864984D02*
X6268991Y-10855460D01*
X6268991Y-10855460D02*
X6259467Y-10845936D01*
X6259467Y-10845936D02*
X6249943Y-10826889D01*
X6249943Y-10826889D02*
X6240420Y-10788793D01*
X6240420Y-10788793D02*
X6240420Y-10741174D01*
X6240420Y-10741174D02*
X6249943Y-10703079D01*
X6249943Y-10703079D02*
X6259467Y-10684031D01*
X6259467Y-10684031D02*
X6268991Y-10674508D01*
X6268991Y-10674508D02*
X6288039Y-10664984D01*
X6440420Y-10864984D02*
X6440420Y-10731650D01*
X6440420Y-10750698D02*
X6449943Y-10741174D01*
X6449943Y-10741174D02*
X6468991Y-10731650D01*
X6468991Y-10731650D02*
X6497563Y-10731650D01*
X6497563Y-10731650D02*
X6516610Y-10741174D01*
X6516610Y-10741174D02*
X6526134Y-10760222D01*
X6526134Y-10760222D02*
X6526134Y-10864984D01*
X6526134Y-10760222D02*
X6535658Y-10741174D01*
X6535658Y-10741174D02*
X6554705Y-10731650D01*
X6554705Y-10731650D02*
X6583277Y-10731650D01*
X6583277Y-10731650D02*
X6602324Y-10741174D01*
X6602324Y-10741174D02*
X6611848Y-10760222D01*
X6611848Y-10760222D02*
X6611848Y-10864984D01*
X6707086Y-10864984D02*
X6707086Y-10731650D01*
X6707086Y-10750698D02*
X6716610Y-10741174D01*
X6716610Y-10741174D02*
X6735658Y-10731650D01*
X6735658Y-10731650D02*
X6764229Y-10731650D01*
X6764229Y-10731650D02*
X6783277Y-10741174D01*
X6783277Y-10741174D02*
X6792801Y-10760222D01*
X6792801Y-10760222D02*
X6792801Y-10864984D01*
X6792801Y-10760222D02*
X6802324Y-10741174D01*
X6802324Y-10741174D02*
X6821372Y-10731650D01*
X6821372Y-10731650D02*
X6849943Y-10731650D01*
X6849943Y-10731650D02*
X6868991Y-10741174D01*
X6868991Y-10741174D02*
X6878515Y-10760222D01*
X6878515Y-10760222D02*
X6878515Y-10864984D01*
X7268991Y-10655460D02*
X7097563Y-10912603D01*
X7526134Y-10664984D02*
X7545182Y-10664984D01*
X7545182Y-10664984D02*
X7564229Y-10674508D01*
X7564229Y-10674508D02*
X7573753Y-10684031D01*
X7573753Y-10684031D02*
X7583277Y-10703079D01*
X7583277Y-10703079D02*
X7592801Y-10741174D01*
X7592801Y-10741174D02*
X7592801Y-10788793D01*
X7592801Y-10788793D02*
X7583277Y-10826889D01*
X7583277Y-10826889D02*
X7573753Y-10845936D01*
X7573753Y-10845936D02*
X7564229Y-10855460D01*
X7564229Y-10855460D02*
X7545182Y-10864984D01*
X7545182Y-10864984D02*
X7526134Y-10864984D01*
X7526134Y-10864984D02*
X7507086Y-10855460D01*
X7507086Y-10855460D02*
X7497563Y-10845936D01*
X7497563Y-10845936D02*
X7488039Y-10826889D01*
X7488039Y-10826889D02*
X7478515Y-10788793D01*
X7478515Y-10788793D02*
X7478515Y-10741174D01*
X7478515Y-10741174D02*
X7488039Y-10703079D01*
X7488039Y-10703079D02*
X7497563Y-10684031D01*
X7497563Y-10684031D02*
X7507086Y-10674508D01*
X7507086Y-10674508D02*
X7526134Y-10664984D01*
X7678515Y-10845936D02*
X7688039Y-10855460D01*
X7688039Y-10855460D02*
X7678515Y-10864984D01*
X7678515Y-10864984D02*
X7668991Y-10855460D01*
X7668991Y-10855460D02*
X7678515Y-10845936D01*
X7678515Y-10845936D02*
X7678515Y-10864984D01*
X7811848Y-10664984D02*
X7830896Y-10664984D01*
X7830896Y-10664984D02*
X7849944Y-10674508D01*
X7849944Y-10674508D02*
X7859467Y-10684031D01*
X7859467Y-10684031D02*
X7868991Y-10703079D01*
X7868991Y-10703079D02*
X7878515Y-10741174D01*
X7878515Y-10741174D02*
X7878515Y-10788793D01*
X7878515Y-10788793D02*
X7868991Y-10826889D01*
X7868991Y-10826889D02*
X7859467Y-10845936D01*
X7859467Y-10845936D02*
X7849944Y-10855460D01*
X7849944Y-10855460D02*
X7830896Y-10864984D01*
X7830896Y-10864984D02*
X7811848Y-10864984D01*
X7811848Y-10864984D02*
X7792801Y-10855460D01*
X7792801Y-10855460D02*
X7783277Y-10845936D01*
X7783277Y-10845936D02*
X7773753Y-10826889D01*
X7773753Y-10826889D02*
X7764229Y-10788793D01*
X7764229Y-10788793D02*
X7764229Y-10741174D01*
X7764229Y-10741174D02*
X7773753Y-10703079D01*
X7773753Y-10703079D02*
X7783277Y-10684031D01*
X7783277Y-10684031D02*
X7792801Y-10674508D01*
X7792801Y-10674508D02*
X7811848Y-10664984D01*
X8049944Y-10731650D02*
X8049944Y-10864984D01*
X8002325Y-10655460D02*
X7954706Y-10798317D01*
X7954706Y-10798317D02*
X8078515Y-10798317D01*
X8135658Y-10664984D02*
X8259467Y-10664984D01*
X8259467Y-10664984D02*
X8192801Y-10741174D01*
X8192801Y-10741174D02*
X8221372Y-10741174D01*
X8221372Y-10741174D02*
X8240420Y-10750698D01*
X8240420Y-10750698D02*
X8249944Y-10760222D01*
X8249944Y-10760222D02*
X8259467Y-10779270D01*
X8259467Y-10779270D02*
X8259467Y-10826889D01*
X8259467Y-10826889D02*
X8249944Y-10845936D01*
X8249944Y-10845936D02*
X8240420Y-10855460D01*
X8240420Y-10855460D02*
X8221372Y-10864984D01*
X8221372Y-10864984D02*
X8164229Y-10864984D01*
X8164229Y-10864984D02*
X8145182Y-10855460D01*
X8145182Y-10855460D02*
X8135658Y-10845936D01*
X8326134Y-10664984D02*
X8449944Y-10664984D01*
X8449944Y-10664984D02*
X8383277Y-10741174D01*
X8383277Y-10741174D02*
X8411849Y-10741174D01*
X8411849Y-10741174D02*
X8430896Y-10750698D01*
X8430896Y-10750698D02*
X8440420Y-10760222D01*
X8440420Y-10760222D02*
X8449944Y-10779270D01*
X8449944Y-10779270D02*
X8449944Y-10826889D01*
X8449944Y-10826889D02*
X8440420Y-10845936D01*
X8440420Y-10845936D02*
X8430896Y-10855460D01*
X8430896Y-10855460D02*
X8411849Y-10864984D01*
X8411849Y-10864984D02*
X8354706Y-10864984D01*
X8354706Y-10864984D02*
X8335658Y-10855460D01*
X8335658Y-10855460D02*
X8326134Y-10845936D01*
X8526134Y-10664984D02*
X8526134Y-10703079D01*
X8602325Y-10664984D02*
X8602325Y-10703079D01*
X8897563Y-10941174D02*
X8888039Y-10931650D01*
X8888039Y-10931650D02*
X8868991Y-10903079D01*
X8868991Y-10903079D02*
X8859468Y-10884031D01*
X8859468Y-10884031D02*
X8849944Y-10855460D01*
X8849944Y-10855460D02*
X8840420Y-10807841D01*
X8840420Y-10807841D02*
X8840420Y-10769746D01*
X8840420Y-10769746D02*
X8849944Y-10722127D01*
X8849944Y-10722127D02*
X8859468Y-10693555D01*
X8859468Y-10693555D02*
X8868991Y-10674508D01*
X8868991Y-10674508D02*
X8888039Y-10645936D01*
X8888039Y-10645936D02*
X8897563Y-10636412D01*
X9078515Y-10864984D02*
X8964230Y-10864984D01*
X9021372Y-10864984D02*
X9021372Y-10664984D01*
X9021372Y-10664984D02*
X9002325Y-10693555D01*
X9002325Y-10693555D02*
X8983277Y-10712603D01*
X8983277Y-10712603D02*
X8964230Y-10722127D01*
X9145182Y-10664984D02*
X9278515Y-10664984D01*
X9278515Y-10664984D02*
X9192801Y-10864984D01*
X9507087Y-10864984D02*
X9507087Y-10664984D01*
X9592801Y-10864984D02*
X9592801Y-10760222D01*
X9592801Y-10760222D02*
X9583277Y-10741174D01*
X9583277Y-10741174D02*
X9564230Y-10731650D01*
X9564230Y-10731650D02*
X9535658Y-10731650D01*
X9535658Y-10731650D02*
X9516611Y-10741174D01*
X9516611Y-10741174D02*
X9507087Y-10750698D01*
X9716611Y-10864984D02*
X9697563Y-10855460D01*
X9697563Y-10855460D02*
X9688039Y-10845936D01*
X9688039Y-10845936D02*
X9678515Y-10826889D01*
X9678515Y-10826889D02*
X9678515Y-10769746D01*
X9678515Y-10769746D02*
X9688039Y-10750698D01*
X9688039Y-10750698D02*
X9697563Y-10741174D01*
X9697563Y-10741174D02*
X9716611Y-10731650D01*
X9716611Y-10731650D02*
X9745182Y-10731650D01*
X9745182Y-10731650D02*
X9764230Y-10741174D01*
X9764230Y-10741174D02*
X9773753Y-10750698D01*
X9773753Y-10750698D02*
X9783277Y-10769746D01*
X9783277Y-10769746D02*
X9783277Y-10826889D01*
X9783277Y-10826889D02*
X9773753Y-10845936D01*
X9773753Y-10845936D02*
X9764230Y-10855460D01*
X9764230Y-10855460D02*
X9745182Y-10864984D01*
X9745182Y-10864984D02*
X9716611Y-10864984D01*
X9897563Y-10864984D02*
X9878515Y-10855460D01*
X9878515Y-10855460D02*
X9868992Y-10836412D01*
X9868992Y-10836412D02*
X9868992Y-10664984D01*
X10049944Y-10855460D02*
X10030896Y-10864984D01*
X10030896Y-10864984D02*
X9992801Y-10864984D01*
X9992801Y-10864984D02*
X9973753Y-10855460D01*
X9973753Y-10855460D02*
X9964230Y-10836412D01*
X9964230Y-10836412D02*
X9964230Y-10760222D01*
X9964230Y-10760222D02*
X9973753Y-10741174D01*
X9973753Y-10741174D02*
X9992801Y-10731650D01*
X9992801Y-10731650D02*
X10030896Y-10731650D01*
X10030896Y-10731650D02*
X10049944Y-10741174D01*
X10049944Y-10741174D02*
X10059468Y-10760222D01*
X10059468Y-10760222D02*
X10059468Y-10779270D01*
X10059468Y-10779270D02*
X9964230Y-10798317D01*
X10135658Y-10855460D02*
X10154706Y-10864984D01*
X10154706Y-10864984D02*
X10192801Y-10864984D01*
X10192801Y-10864984D02*
X10211849Y-10855460D01*
X10211849Y-10855460D02*
X10221373Y-10836412D01*
X10221373Y-10836412D02*
X10221373Y-10826889D01*
X10221373Y-10826889D02*
X10211849Y-10807841D01*
X10211849Y-10807841D02*
X10192801Y-10798317D01*
X10192801Y-10798317D02*
X10164230Y-10798317D01*
X10164230Y-10798317D02*
X10145182Y-10788793D01*
X10145182Y-10788793D02*
X10135658Y-10769746D01*
X10135658Y-10769746D02*
X10135658Y-10760222D01*
X10135658Y-10760222D02*
X10145182Y-10741174D01*
X10145182Y-10741174D02*
X10164230Y-10731650D01*
X10164230Y-10731650D02*
X10192801Y-10731650D01*
X10192801Y-10731650D02*
X10211849Y-10741174D01*
X10288039Y-10941174D02*
X10297563Y-10931650D01*
X10297563Y-10931650D02*
X10316611Y-10903079D01*
X10316611Y-10903079D02*
X10326134Y-10884031D01*
X10326134Y-10884031D02*
X10335658Y-10855460D01*
X10335658Y-10855460D02*
X10345182Y-10807841D01*
X10345182Y-10807841D02*
X10345182Y-10769746D01*
X10345182Y-10769746D02*
X10335658Y-10722127D01*
X10335658Y-10722127D02*
X10326134Y-10693555D01*
X10326134Y-10693555D02*
X10316611Y-10674508D01*
X10316611Y-10674508D02*
X10297563Y-10645936D01*
X10297563Y-10645936D02*
X10288039Y-10636412D01*
M02*
