G04 #@! TF.GenerationSoftware,KiCad,Pcbnew,8.0.8*
G04 #@! TF.CreationDate,2025-03-25T19:49:57+09:00*
G04 #@! TF.ProjectId,panelBoard,70616e65-6c42-46f6-9172-642e6b696361,rev?*
G04 #@! TF.SameCoordinates,Original*
G04 #@! TF.FileFunction,Copper,L1,Top*
G04 #@! TF.FilePolarity,Positive*
%FSLAX46Y46*%
G04 Gerber Fmt 4.6, Leading zero omitted, Abs format (unit mm)*
G04 Created by KiCad (PCBNEW 8.0.8) date 2025-03-25 19:49:57*
%MOMM*%
%LPD*%
G01*
G04 APERTURE LIST*
G04 Aperture macros list*
%AMRoundRect*
0 Rectangle with rounded corners*
0 $1 Rounding radius*
0 $2 $3 $4 $5 $6 $7 $8 $9 X,Y pos of 4 corners*
0 Add a 4 corners polygon primitive as box body*
4,1,4,$2,$3,$4,$5,$6,$7,$8,$9,$2,$3,0*
0 Add four circle primitives for the rounded corners*
1,1,$1+$1,$2,$3*
1,1,$1+$1,$4,$5*
1,1,$1+$1,$6,$7*
1,1,$1+$1,$8,$9*
0 Add four rect primitives between the rounded corners*
20,1,$1+$1,$2,$3,$4,$5,0*
20,1,$1+$1,$4,$5,$6,$7,0*
20,1,$1+$1,$6,$7,$8,$9,0*
20,1,$1+$1,$8,$9,$2,$3,0*%
G04 Aperture macros list end*
G04 #@! TA.AperFunction,ComponentPad*
%ADD10C,1.575000*%
G04 #@! TD*
G04 #@! TA.AperFunction,SMDPad,CuDef*
%ADD11RoundRect,0.237500X-0.287500X-0.237500X0.287500X-0.237500X0.287500X0.237500X-0.287500X0.237500X0*%
G04 #@! TD*
G04 #@! TA.AperFunction,SMDPad,CuDef*
%ADD12RoundRect,0.237500X0.250000X0.237500X-0.250000X0.237500X-0.250000X-0.237500X0.250000X-0.237500X0*%
G04 #@! TD*
G04 #@! TA.AperFunction,ComponentPad*
%ADD13R,1.700000X1.700000*%
G04 #@! TD*
G04 #@! TA.AperFunction,ComponentPad*
%ADD14O,1.700000X1.700000*%
G04 #@! TD*
G04 #@! TA.AperFunction,SMDPad,CuDef*
%ADD15RoundRect,0.237500X-0.250000X-0.237500X0.250000X-0.237500X0.250000X0.237500X-0.250000X0.237500X0*%
G04 #@! TD*
G04 #@! TA.AperFunction,SMDPad,CuDef*
%ADD16RoundRect,0.225000X-0.225000X-0.375000X0.225000X-0.375000X0.225000X0.375000X-0.225000X0.375000X0*%
G04 #@! TD*
G04 #@! TA.AperFunction,SMDPad,CuDef*
%ADD17RoundRect,0.237500X0.300000X0.237500X-0.300000X0.237500X-0.300000X-0.237500X0.300000X-0.237500X0*%
G04 #@! TD*
G04 #@! TA.AperFunction,SMDPad,CuDef*
%ADD18R,2.100000X0.650000*%
G04 #@! TD*
G04 #@! TA.AperFunction,ViaPad*
%ADD19C,0.600000*%
G04 #@! TD*
G04 #@! TA.AperFunction,Conductor*
%ADD20C,0.200000*%
G04 #@! TD*
G04 APERTURE END LIST*
D10*
X98960000Y-144659000D03*
X92460000Y-144659000D03*
X98960000Y-140159000D03*
X92460000Y-140159000D03*
D11*
X122053000Y-118533000D03*
X123803000Y-118533000D03*
D12*
X179298500Y-77724000D03*
X177473500Y-77724000D03*
D10*
X120259000Y-144659000D03*
X113759000Y-144659000D03*
X120259000Y-140159000D03*
X113759000Y-140159000D03*
X162956000Y-144659000D03*
X156456000Y-144659000D03*
X162956000Y-140159000D03*
X156456000Y-140159000D03*
D11*
X185172000Y-135932000D03*
X186922000Y-135932000D03*
D10*
X189003000Y-144659000D03*
X182503000Y-144659000D03*
X189003000Y-140159000D03*
X182503000Y-140159000D03*
D11*
X170680000Y-118533000D03*
X172430000Y-118533000D03*
D10*
X126126000Y-127097000D03*
X119626000Y-127097000D03*
X126126000Y-122597000D03*
X119626000Y-122597000D03*
X225163000Y-144496000D03*
X218663000Y-144496000D03*
X225163000Y-139996000D03*
X218663000Y-139996000D03*
D11*
X169309000Y-136186000D03*
X171059000Y-136186000D03*
X84588000Y-118533000D03*
X86338000Y-118533000D03*
D13*
X75819000Y-85979000D03*
D14*
X78359000Y-85979000D03*
X80899000Y-85979000D03*
X83439000Y-85979000D03*
X85979000Y-85979000D03*
D11*
X105543000Y-136186000D03*
X107293000Y-136186000D03*
D10*
X130927000Y-144659000D03*
X124427000Y-144659000D03*
X130927000Y-140159000D03*
X124427000Y-140159000D03*
D12*
X179298500Y-81534000D03*
X177473500Y-81534000D03*
D15*
X195507500Y-84328000D03*
X197332500Y-84328000D03*
D11*
X161818000Y-118533000D03*
X163568000Y-118533000D03*
D10*
X210341000Y-144532000D03*
X203841000Y-144532000D03*
X210341000Y-140032000D03*
X203841000Y-140032000D03*
D11*
X94289000Y-136186000D03*
X96039000Y-136186000D03*
D12*
X179298500Y-79629000D03*
X177473500Y-79629000D03*
D10*
X88788000Y-127097000D03*
X82288000Y-127097000D03*
X88788000Y-122597000D03*
X82288000Y-122597000D03*
D11*
X205864000Y-118406000D03*
X207614000Y-118406000D03*
X63252000Y-118533000D03*
X65002000Y-118533000D03*
D16*
X175974000Y-72136000D03*
X179274000Y-72136000D03*
D10*
X224528000Y-127042000D03*
X218028000Y-127042000D03*
X224528000Y-122542000D03*
X218028000Y-122542000D03*
D15*
X195507500Y-76962000D03*
X197332500Y-76962000D03*
D10*
X78120000Y-127097000D03*
X71620000Y-127097000D03*
X78120000Y-122597000D03*
X71620000Y-122597000D03*
D11*
X206395000Y-135805000D03*
X208145000Y-135805000D03*
D15*
X195507500Y-80772000D03*
X197332500Y-80772000D03*
D10*
X199684000Y-144623000D03*
X193184000Y-144623000D03*
X199684000Y-140123000D03*
X193184000Y-140123000D03*
D11*
X144518000Y-118533000D03*
X146268000Y-118533000D03*
X111775000Y-118533000D03*
X113525000Y-118533000D03*
D10*
X199671000Y-127006000D03*
X193171000Y-127006000D03*
X199671000Y-122506000D03*
X193171000Y-122506000D03*
D15*
X195507500Y-78867000D03*
X197332500Y-78867000D03*
D10*
X99456000Y-127042000D03*
X92956000Y-127042000D03*
X99456000Y-122542000D03*
X92956000Y-122542000D03*
D11*
X181588000Y-118533000D03*
X183338000Y-118533000D03*
D10*
X66981000Y-144659000D03*
X60481000Y-144659000D03*
X66981000Y-140159000D03*
X60481000Y-140159000D03*
X152263000Y-144659000D03*
X145763000Y-144659000D03*
X152263000Y-140159000D03*
X145763000Y-140159000D03*
D11*
X126741000Y-136186000D03*
X128491000Y-136186000D03*
X159047000Y-136186000D03*
X160797000Y-136186000D03*
D15*
X195507500Y-82550000D03*
X197332500Y-82550000D03*
X195507500Y-71628000D03*
X197332500Y-71628000D03*
D10*
X136794000Y-127097000D03*
X130294000Y-127097000D03*
X136794000Y-122597000D03*
X130294000Y-122597000D03*
D12*
X179298500Y-83439000D03*
X177473500Y-83439000D03*
D17*
X188646500Y-63373000D03*
X186921500Y-63373000D03*
D10*
X67302000Y-127097000D03*
X60802000Y-127097000D03*
X67302000Y-122597000D03*
X60802000Y-122597000D03*
D11*
X48130000Y-118533000D03*
X49880000Y-118533000D03*
X185553000Y-118533000D03*
X187303000Y-118533000D03*
D10*
X141595000Y-144659000D03*
X135095000Y-144659000D03*
X141595000Y-140159000D03*
X135095000Y-140159000D03*
X45366000Y-144659000D03*
X38866000Y-144659000D03*
X45366000Y-140159000D03*
X38866000Y-140159000D03*
D11*
X196094000Y-135932000D03*
X197844000Y-135932000D03*
X116209000Y-136186000D03*
X117959000Y-136186000D03*
X195573000Y-118442000D03*
X197323000Y-118442000D03*
X63072000Y-136186000D03*
X64822000Y-136186000D03*
D10*
X88292000Y-144659000D03*
X81792000Y-144659000D03*
X88292000Y-140159000D03*
X81792000Y-140159000D03*
D11*
X148331000Y-136186000D03*
X150081000Y-136186000D03*
D10*
X77647000Y-144659000D03*
X71147000Y-144659000D03*
X77647000Y-140159000D03*
X71147000Y-140159000D03*
D16*
X175974000Y-69596000D03*
X179274000Y-69596000D03*
D15*
X195507500Y-73406000D03*
X197332500Y-73406000D03*
D10*
X210304000Y-126970000D03*
X203804000Y-126970000D03*
X210304000Y-122470000D03*
X203804000Y-122470000D03*
D11*
X137432000Y-136186000D03*
X139182000Y-136186000D03*
D10*
X52062000Y-127097000D03*
X45562000Y-127097000D03*
X52062000Y-122597000D03*
X45562000Y-122597000D03*
D18*
X183007000Y-66167000D03*
X183007000Y-67437000D03*
X183007000Y-68707000D03*
X183007000Y-69977000D03*
X183007000Y-71247000D03*
X183007000Y-72517000D03*
X183007000Y-73787000D03*
X183007000Y-75057000D03*
X183007000Y-76327000D03*
X183007000Y-77597000D03*
X183007000Y-78867000D03*
X183007000Y-80137000D03*
X183007000Y-81407000D03*
X183007000Y-82677000D03*
X192307000Y-82677000D03*
X192307000Y-81407000D03*
X192307000Y-80137000D03*
X192307000Y-78867000D03*
X192307000Y-77597000D03*
X192307000Y-76327000D03*
X192307000Y-75057000D03*
X192307000Y-73787000D03*
X192307000Y-72517000D03*
X192307000Y-71247000D03*
X192307000Y-69977000D03*
X192307000Y-68707000D03*
X192307000Y-67437000D03*
X192307000Y-66167000D03*
D10*
X115481000Y-127097000D03*
X108981000Y-127097000D03*
X115481000Y-122597000D03*
X108981000Y-122597000D03*
D11*
X152914000Y-118533000D03*
X154664000Y-118533000D03*
D16*
X175974000Y-67183000D03*
X179274000Y-67183000D03*
D10*
X173622000Y-144659000D03*
X167122000Y-144659000D03*
X173622000Y-140159000D03*
X167122000Y-140159000D03*
D11*
X73306000Y-136186000D03*
X75056000Y-136186000D03*
D15*
X195507500Y-75057000D03*
X197332500Y-75057000D03*
D10*
X189003000Y-127042000D03*
X182503000Y-127042000D03*
X189003000Y-122542000D03*
X182503000Y-122542000D03*
D11*
X84473000Y-136186000D03*
X86223000Y-136186000D03*
X73793000Y-118533000D03*
X75543000Y-118533000D03*
D12*
X179298500Y-75946000D03*
X177473500Y-75946000D03*
D10*
X56161000Y-144659000D03*
X49661000Y-144659000D03*
X56161000Y-140159000D03*
X49661000Y-140159000D03*
D11*
X132721000Y-118533000D03*
X134471000Y-118533000D03*
X41293000Y-136186000D03*
X43043000Y-136186000D03*
X95256000Y-118533000D03*
X97006000Y-118533000D03*
D10*
X109616000Y-144659000D03*
X103116000Y-144659000D03*
X109616000Y-140159000D03*
X103116000Y-140159000D03*
D11*
X52328000Y-136186000D03*
X54078000Y-136186000D03*
D19*
X157607000Y-80391000D03*
X79756000Y-82804000D03*
X176391800Y-68290900D03*
X185420000Y-110109000D03*
X181102000Y-95504000D03*
X185467800Y-117548400D03*
X180848200Y-68927700D03*
X184142600Y-135752800D03*
X177180700Y-71481800D03*
X175134900Y-72975100D03*
X192659000Y-86233000D03*
X188787200Y-73934700D03*
X192973200Y-112328200D03*
X188615000Y-116686400D03*
X181146700Y-117539700D03*
X179403500Y-131692100D03*
X181448400Y-67437000D03*
X190773700Y-73075900D03*
X185799100Y-134960300D03*
X193861500Y-72517000D03*
X194763400Y-131036900D03*
X205217850Y-78246150D03*
X206248000Y-107950000D03*
X86301800Y-131477100D03*
X80229800Y-118017500D03*
X114895100Y-115168200D03*
X114570000Y-118362300D03*
X96039000Y-135199400D03*
X125649700Y-118735400D03*
X111938800Y-131578800D03*
X159593100Y-91062000D03*
X126429600Y-132151300D03*
X167870500Y-92567700D03*
X129769900Y-117755400D03*
X125334800Y-120583600D03*
X125776200Y-131539800D03*
X157261900Y-93978400D03*
X139182000Y-135204800D03*
X138064900Y-115478000D03*
X149941900Y-116236400D03*
X149866900Y-131690300D03*
X174790600Y-89184300D03*
X160797000Y-121416900D03*
X160797000Y-135186100D03*
X170960100Y-135206600D03*
X165126000Y-120468700D03*
X175922100Y-86130000D03*
X178819600Y-115775000D03*
X178676900Y-80581500D03*
X178165700Y-78589700D03*
X179695500Y-119335300D03*
X182313100Y-117508100D03*
X180411100Y-77597000D03*
X197108400Y-86807900D03*
X198062500Y-79918600D03*
X198705500Y-81301800D03*
X202120500Y-109537500D03*
X198704000Y-115247300D03*
X172391500Y-84746300D03*
X105887600Y-126134400D03*
X173374700Y-83843100D03*
X175520400Y-80457600D03*
X176069800Y-77724000D03*
X176471500Y-76980100D03*
D20*
X174728300Y-66167000D02*
X183007000Y-66167000D01*
X183007000Y-66167000D02*
X184358700Y-66167000D01*
X184358700Y-65935800D02*
X186921500Y-63373000D01*
X85979000Y-85979000D02*
X87130700Y-85979000D01*
X91783000Y-81326700D02*
X159568600Y-81326700D01*
X87130700Y-85979000D02*
X91783000Y-81326700D01*
X184358700Y-66167000D02*
X184358700Y-65935800D01*
X159568600Y-81326700D02*
X174728300Y-66167000D01*
X177626600Y-62559400D02*
X159827400Y-80358600D01*
X78994000Y-82804000D02*
X75819000Y-85979000D01*
X79756000Y-82804000D02*
X78994000Y-82804000D01*
X188646500Y-63373000D02*
X187832900Y-62559400D01*
X190955300Y-65681800D02*
X188646500Y-63373000D01*
X157639400Y-80358600D02*
X157607000Y-80391000D01*
X190955300Y-66167000D02*
X190955300Y-65681800D01*
X159827400Y-80358600D02*
X157639400Y-80358600D01*
X187832900Y-62559400D02*
X177626600Y-62559400D01*
X192307000Y-66167000D02*
X190955300Y-66167000D01*
X56161000Y-144659000D02*
X60481000Y-144659000D01*
X152263000Y-144659000D02*
X145763000Y-144659000D01*
X130927000Y-144659000D02*
X124427000Y-144659000D01*
X45366000Y-144659000D02*
X38866000Y-144659000D01*
X135095000Y-144659000D02*
X130927000Y-144659000D01*
X88292000Y-144659000D02*
X92460000Y-144659000D01*
X176391800Y-67600800D02*
X176391800Y-68290900D01*
X141595000Y-144659000D02*
X135095000Y-144659000D01*
X167122000Y-144659000D02*
X162956000Y-144659000D01*
X77647000Y-144659000D02*
X81792000Y-144659000D01*
X60481000Y-144659000D02*
X66981000Y-144659000D01*
X109616000Y-144659000D02*
X103116000Y-144659000D01*
X71147000Y-144659000D02*
X66981000Y-144659000D01*
X92460000Y-144659000D02*
X98960000Y-144659000D01*
X145763000Y-144659000D02*
X141595000Y-144659000D01*
X77647000Y-144659000D02*
X71147000Y-144659000D01*
X120259000Y-144659000D02*
X113759000Y-144659000D01*
X156456000Y-144659000D02*
X152263000Y-144659000D01*
X113759000Y-144659000D02*
X109616000Y-144659000D01*
X103116000Y-144659000D02*
X98960000Y-144659000D01*
X162956000Y-144659000D02*
X156456000Y-144659000D01*
X124427000Y-144659000D02*
X120259000Y-144659000D01*
X81792000Y-144659000D02*
X88292000Y-144659000D01*
X49661000Y-144659000D02*
X45366000Y-144659000D01*
X49661000Y-144659000D02*
X56161000Y-144659000D01*
X175974000Y-67183000D02*
X176391800Y-67600800D01*
X173622000Y-144659000D02*
X167122000Y-144659000D01*
X184411000Y-116491600D02*
X172721400Y-116491600D01*
X132721000Y-118533000D02*
X127799200Y-118533000D01*
X206395000Y-135805000D02*
X205489800Y-136710200D01*
X185172000Y-135932000D02*
X185949600Y-136709600D01*
X180848200Y-68707000D02*
X180848200Y-68927700D01*
X96041900Y-117747100D02*
X95256000Y-118533000D01*
X127021600Y-117755400D02*
X122830600Y-117755400D01*
X74570600Y-119310600D02*
X73793000Y-118533000D01*
X205489800Y-136710200D02*
X196872200Y-136710200D01*
X179070000Y-104013000D02*
X185166000Y-110109000D01*
X64029600Y-117755400D02*
X63252000Y-118533000D01*
X161040400Y-119310600D02*
X153691600Y-119310600D01*
X48907600Y-117755400D02*
X62474400Y-117755400D01*
X184992800Y-135752800D02*
X185172000Y-135932000D01*
X144518000Y-118533000D02*
X143737900Y-119313100D01*
X48130000Y-118533000D02*
X48907600Y-117755400D01*
X62474400Y-117755400D02*
X63252000Y-118533000D01*
X185553000Y-118533000D02*
X185553000Y-117633600D01*
X182432000Y-68707000D02*
X183007000Y-68707000D01*
X133501100Y-119313100D02*
X132721000Y-118533000D01*
X122830600Y-117755400D02*
X122053000Y-118533000D01*
X121275400Y-117755400D02*
X122053000Y-118533000D01*
X184142600Y-135752800D02*
X184992800Y-135752800D01*
X152134300Y-117753300D02*
X145297700Y-117753300D01*
X95256000Y-118533000D02*
X94473800Y-119315200D01*
X181655300Y-68707000D02*
X180848200Y-68707000D01*
X170680000Y-118533000D02*
X169875400Y-117728400D01*
X185949600Y-136709600D02*
X195316400Y-136709600D01*
X111775000Y-118533000D02*
X112552600Y-117755400D01*
X180848200Y-68707000D02*
X180798000Y-68707000D01*
X110989100Y-117747100D02*
X96041900Y-117747100D01*
X127799200Y-118533000D02*
X127021600Y-117755400D01*
X172721400Y-116491600D02*
X170680000Y-118533000D01*
X169875400Y-117728400D02*
X162622600Y-117728400D01*
X152914000Y-118533000D02*
X152134300Y-117753300D01*
X84588000Y-118533000D02*
X83810400Y-119310600D01*
X145297700Y-117753300D02*
X144518000Y-118533000D01*
X73015400Y-117755400D02*
X64029600Y-117755400D01*
X179070000Y-97536000D02*
X179070000Y-104013000D01*
X195316400Y-136709600D02*
X196094000Y-135932000D01*
X161818000Y-118533000D02*
X161040400Y-119310600D01*
X182432000Y-68707000D02*
X181655300Y-68707000D01*
X111775000Y-118533000D02*
X110989100Y-117747100D01*
X185553000Y-117633600D02*
X185467800Y-117548400D01*
X153691600Y-119310600D02*
X152914000Y-118533000D01*
X94473800Y-119315200D02*
X85370200Y-119315200D01*
X73793000Y-118533000D02*
X73015400Y-117755400D01*
X180798000Y-68707000D02*
X179274000Y-67183000D01*
X196872200Y-136710200D02*
X196094000Y-135932000D01*
X83810400Y-119310600D02*
X74570600Y-119310600D01*
X112552600Y-117755400D02*
X121275400Y-117755400D01*
X143737900Y-119313100D02*
X133501100Y-119313100D01*
X85370200Y-119315200D02*
X84588000Y-118533000D01*
X185467800Y-117548400D02*
X184411000Y-116491600D01*
X181102000Y-95504000D02*
X179070000Y-97536000D01*
X162622600Y-117728400D02*
X161818000Y-118533000D01*
X185166000Y-110109000D02*
X185420000Y-110109000D01*
X181655300Y-69977000D02*
X179655000Y-69977000D01*
X183007000Y-69977000D02*
X181655300Y-69977000D01*
X179655000Y-69977000D02*
X179274000Y-69596000D01*
X175974000Y-69596000D02*
X177180600Y-70802600D01*
X193184000Y-144623000D02*
X193148000Y-144659000D01*
X218627000Y-144532000D02*
X218663000Y-144496000D01*
X199671000Y-127006000D02*
X199707000Y-126970000D01*
X115481000Y-127097000D02*
X108981000Y-127097000D01*
X119626000Y-127097000D02*
X126126000Y-127097000D01*
X130294000Y-127097000D02*
X126126000Y-127097000D01*
X193135000Y-127042000D02*
X193171000Y-127006000D01*
X136849000Y-127042000D02*
X136794000Y-127097000D01*
X136794000Y-127097000D02*
X130294000Y-127097000D01*
X108981000Y-127097000D02*
X107883900Y-128194100D01*
X199684000Y-144623000D02*
X193184000Y-144623000D01*
X115481000Y-127097000D02*
X119626000Y-127097000D01*
X53159100Y-128194100D02*
X52062000Y-127097000D01*
X193171000Y-127006000D02*
X199671000Y-127006000D01*
X193148000Y-144659000D02*
X189003000Y-144659000D01*
X189003000Y-144659000D02*
X182503000Y-144659000D01*
X52062000Y-127097000D02*
X45562000Y-127097000D01*
X210341000Y-144532000D02*
X218627000Y-144532000D01*
X199775000Y-144532000D02*
X199684000Y-144623000D01*
X189003000Y-127042000D02*
X193135000Y-127042000D01*
X107883900Y-128194100D02*
X53159100Y-128194100D01*
X218028000Y-127042000D02*
X224528000Y-127042000D01*
X199707000Y-126970000D02*
X203804000Y-126970000D01*
X182503000Y-127042000D02*
X136849000Y-127042000D01*
X203804000Y-126970000D02*
X210304000Y-126970000D01*
X182503000Y-127042000D02*
X189003000Y-127042000D01*
X177180600Y-70802600D02*
X177180600Y-71481800D01*
X225163000Y-144496000D02*
X218663000Y-144496000D01*
X203841000Y-144532000D02*
X199775000Y-144532000D01*
X177180600Y-71481800D02*
X177180700Y-71481800D01*
X67302000Y-127097000D02*
X71620000Y-127097000D01*
X88788000Y-127097000D02*
X82288000Y-127097000D01*
X71620000Y-127097000D02*
X78120000Y-127097000D01*
X92956000Y-127042000D02*
X88843000Y-127042000D01*
X175974000Y-72136000D02*
X175134900Y-72975100D01*
X99456000Y-127042000D02*
X92956000Y-127042000D01*
X88843000Y-127042000D02*
X88788000Y-127097000D01*
X78120000Y-127097000D02*
X82288000Y-127097000D01*
X60802000Y-127097000D02*
X67302000Y-127097000D01*
X179274000Y-72136000D02*
X180163000Y-71247000D01*
X180163000Y-71247000D02*
X183007000Y-71247000D01*
X192659000Y-86233000D02*
X194945000Y-88519000D01*
X55824500Y-108913500D02*
X71244900Y-108913500D01*
X71244900Y-108913500D02*
X96211400Y-83947000D01*
X169033800Y-82412900D02*
X177084400Y-74362300D01*
X181231700Y-73160300D02*
X187772000Y-73160300D01*
X43043000Y-136186000D02*
X43043000Y-121695000D01*
X194945000Y-110356400D02*
X192973200Y-112328200D01*
X187772000Y-73160300D02*
X187892400Y-73039900D01*
X194945000Y-88519000D02*
X194945000Y-110356400D01*
X178722700Y-74362300D02*
X179090800Y-73994200D01*
X188615000Y-116686400D02*
X187303000Y-117998400D01*
X96211400Y-83947000D02*
X166723000Y-83947000D01*
X187303000Y-117998400D02*
X187303000Y-118533000D01*
X187892400Y-73039900D02*
X188787200Y-73934700D01*
X180397800Y-73994200D02*
X181231700Y-73160300D01*
X43043000Y-121695000D02*
X55824500Y-108913500D01*
X192307000Y-69977000D02*
X190955300Y-69977000D01*
X177084400Y-74362300D02*
X178722700Y-74362300D01*
X168257100Y-82412900D02*
X169033800Y-82412900D01*
X187892400Y-73039900D02*
X190955300Y-69977000D01*
X166723000Y-83947000D02*
X168257100Y-82412900D01*
X179090800Y-73994200D02*
X180397800Y-73994200D01*
X51550400Y-136963600D02*
X52328000Y-136186000D01*
X73306000Y-136186000D02*
X72510700Y-136981300D01*
X195573000Y-118442000D02*
X196368000Y-117647000D01*
X181655300Y-67437000D02*
X181448400Y-67437000D01*
X194704400Y-119310600D02*
X195573000Y-118442000D01*
X93509700Y-136965300D02*
X85252300Y-136965300D01*
X205105000Y-117647000D02*
X205864000Y-118406000D01*
X116209000Y-136186000D02*
X116986600Y-136963600D01*
X125963400Y-136963600D02*
X126741000Y-136186000D01*
X104765400Y-136963600D02*
X105543000Y-136186000D01*
X182365600Y-119310600D02*
X194704400Y-119310600D01*
X149108600Y-136963600D02*
X148331000Y-136186000D01*
X95066600Y-136963600D02*
X104765400Y-136963600D01*
X94289000Y-136186000D02*
X93509700Y-136965300D01*
X173544700Y-131692100D02*
X179403500Y-131692100D01*
X83293000Y-135006000D02*
X74299500Y-135006000D01*
X116986600Y-136963600D02*
X125963400Y-136963600D01*
X127518600Y-136963600D02*
X126741000Y-136186000D01*
X181588000Y-118533000D02*
X181588000Y-117981000D01*
X147553400Y-136963600D02*
X138209600Y-136963600D01*
X169309000Y-135927800D02*
X173544700Y-131692100D01*
X138209600Y-136963600D02*
X137432000Y-136186000D01*
X115431400Y-136963600D02*
X106320600Y-136963600D01*
X73306000Y-135999500D02*
X73306000Y-136186000D01*
X168531400Y-136963600D02*
X159824600Y-136963600D01*
X72510700Y-136981300D02*
X63867300Y-136981300D01*
X137432000Y-136186000D02*
X136654400Y-136963600D01*
X148331000Y-136186000D02*
X147553400Y-136963600D01*
X41293000Y-136186000D02*
X42070600Y-136963600D01*
X94289000Y-136186000D02*
X95066600Y-136963600D01*
X183007000Y-67437000D02*
X181655300Y-67437000D01*
X53111800Y-135402200D02*
X62288200Y-135402200D01*
X136654400Y-136963600D02*
X127518600Y-136963600D01*
X181588000Y-117981000D02*
X181146700Y-117539700D01*
X62288200Y-135402200D02*
X63072000Y-136186000D01*
X63867300Y-136981300D02*
X63072000Y-136186000D01*
X106320600Y-136963600D02*
X105543000Y-136186000D01*
X85252300Y-136965300D02*
X84473000Y-136186000D01*
X84473000Y-136186000D02*
X83293000Y-135006000D01*
X169309000Y-136186000D02*
X169309000Y-135927800D01*
X169309000Y-136186000D02*
X168531400Y-136963600D01*
X159824600Y-136963600D02*
X159047000Y-136186000D01*
X116209000Y-136186000D02*
X115431400Y-136963600D01*
X74299500Y-135006000D02*
X73306000Y-135999500D01*
X158269400Y-136963600D02*
X149108600Y-136963600D01*
X42070600Y-136963600D02*
X51550400Y-136963600D01*
X52328000Y-136186000D02*
X53111800Y-135402200D01*
X181588000Y-118533000D02*
X182365600Y-119310600D01*
X159047000Y-136186000D02*
X158269400Y-136963600D01*
X196368000Y-117647000D02*
X205105000Y-117647000D01*
X186922000Y-135932000D02*
X186131200Y-135141200D01*
X73395700Y-137400800D02*
X55292800Y-137400800D01*
X74531700Y-135408400D02*
X74181000Y-135759100D01*
X190955300Y-71247000D02*
X190955300Y-72894300D01*
X185799100Y-135141200D02*
X176769800Y-135141200D01*
X55292800Y-137400800D02*
X54078000Y-136186000D01*
X77639300Y-137367300D02*
X75680400Y-135408400D01*
X174543700Y-137367300D02*
X77639300Y-137367300D01*
X192307000Y-71247000D02*
X190955300Y-71247000D01*
X176769800Y-135141200D02*
X174543700Y-137367300D01*
X186131200Y-135141200D02*
X185799100Y-135141200D01*
X74181000Y-135759100D02*
X74181000Y-136615500D01*
X75680400Y-135408400D02*
X74531700Y-135408400D01*
X74181000Y-136615500D02*
X73395700Y-137400800D01*
X190955300Y-72894300D02*
X190773700Y-73075900D01*
X185799100Y-134960300D02*
X185799100Y-135141200D01*
X70169000Y-130839000D02*
X64822000Y-136186000D01*
X197844000Y-135932000D02*
X194763400Y-132851400D01*
X194763400Y-131036900D02*
X194565500Y-130839000D01*
X194565500Y-130839000D02*
X70169000Y-130839000D01*
X194763400Y-132851400D02*
X194763400Y-131036900D01*
X193658700Y-72517000D02*
X193861500Y-72517000D01*
X192307000Y-72517000D02*
X193658700Y-72517000D01*
X193658700Y-73787000D02*
X195507500Y-71938200D01*
X211436300Y-118667500D02*
X211436300Y-132513700D01*
X197793000Y-70821300D02*
X205217850Y-78246150D01*
X76640400Y-137770400D02*
X75056000Y-136186000D01*
X192307000Y-73787000D02*
X193658700Y-73787000D01*
X196314200Y-70821300D02*
X197793000Y-70821300D01*
X206248000Y-113479200D02*
X211436300Y-118667500D01*
X206179600Y-137770400D02*
X76640400Y-137770400D01*
X195507500Y-71938200D02*
X195507500Y-71628000D01*
X205217850Y-78246150D02*
X205232400Y-78260700D01*
X211436300Y-132513700D02*
X208145000Y-135805000D01*
X208145000Y-135805000D02*
X206179600Y-137770400D01*
X195507500Y-71628000D02*
X196314200Y-70821300D01*
X206248000Y-107950000D02*
X206248000Y-113479200D01*
X177216300Y-74798400D02*
X178854700Y-74798400D01*
X49079900Y-119333100D02*
X47580800Y-119333100D01*
X86223000Y-131555900D02*
X86223000Y-136186000D01*
X148431300Y-89312700D02*
X162702000Y-89312700D01*
X179222800Y-74430300D02*
X188432000Y-74430300D01*
X49880000Y-118533000D02*
X49079900Y-119333100D01*
X47580800Y-119333100D02*
X47269700Y-119022000D01*
X193856500Y-75057000D02*
X195507500Y-73406000D01*
X77582000Y-115369700D02*
X80229800Y-118017500D01*
X146558000Y-91186000D02*
X148431300Y-89312700D01*
X47269700Y-118091400D02*
X49991400Y-115369700D01*
X86301800Y-131477100D02*
X86223000Y-131555900D01*
X77582000Y-115369700D02*
X77582000Y-104028000D01*
X47269700Y-119022000D02*
X47269700Y-118091400D01*
X189058700Y-75057000D02*
X192307000Y-75057000D01*
X188432000Y-74430300D02*
X189058700Y-75057000D01*
X90424000Y-91186000D02*
X146558000Y-91186000D01*
X178854700Y-74798400D02*
X179222800Y-74430300D01*
X49991400Y-115369700D02*
X77582000Y-115369700D01*
X192307000Y-75057000D02*
X193856500Y-75057000D01*
X162702000Y-89312700D02*
X177216300Y-74798400D01*
X77582000Y-104028000D02*
X90424000Y-91186000D01*
X135128000Y-109982000D02*
X130302000Y-105156000D01*
X190955300Y-76566900D02*
X190955300Y-76327000D01*
X113695700Y-118362300D02*
X113525000Y-118533000D01*
X155448000Y-92456000D02*
X157645400Y-90258600D01*
X132842000Y-92456000D02*
X155448000Y-92456000D01*
X135128000Y-114681000D02*
X135128000Y-109982000D01*
X114570000Y-118362300D02*
X113695700Y-118362300D01*
X192982900Y-76327000D02*
X192307000Y-76327000D01*
X96039000Y-135199400D02*
X96039000Y-136186000D01*
X114895100Y-115168200D02*
X134640800Y-115168200D01*
X130302000Y-105156000D02*
X130302000Y-94996000D01*
X157645400Y-90258600D02*
X177263600Y-90258600D01*
X177263600Y-90258600D02*
X190955300Y-76566900D01*
X193658700Y-76327000D02*
X194928700Y-75057000D01*
X130302000Y-94996000D02*
X132842000Y-92456000D01*
X190955300Y-76327000D02*
X192307000Y-76327000D01*
X192982900Y-76327000D02*
X193658700Y-76327000D01*
X194928700Y-75057000D02*
X195507500Y-75057000D01*
X134640800Y-115168200D02*
X135128000Y-114681000D01*
X194293700Y-76962000D02*
X195507500Y-76962000D01*
X190955300Y-77597000D02*
X177490300Y-91062000D01*
X177490300Y-91062000D02*
X159593100Y-91062000D01*
X125649700Y-118735400D02*
X124005400Y-118735400D01*
X124005400Y-118735400D02*
X123803000Y-118533000D01*
X111900200Y-131578800D02*
X111938800Y-131578800D01*
X192307000Y-77597000D02*
X190955300Y-77597000D01*
X107293000Y-136186000D02*
X111900200Y-131578800D01*
X193658700Y-77597000D02*
X194293700Y-76962000D01*
X192307000Y-77597000D02*
X193658700Y-77597000D01*
X134471000Y-118533000D02*
X133693400Y-117755400D01*
X117959000Y-136186000D02*
X122394900Y-136186000D01*
X195507500Y-78867000D02*
X192307000Y-78867000D01*
X177254600Y-92567700D02*
X167870500Y-92567700D01*
X133693400Y-117755400D02*
X129769900Y-117755400D01*
X192307000Y-78867000D02*
X190955300Y-78867000D01*
X122394900Y-136186000D02*
X126429600Y-132151300D01*
X190955300Y-78867000D02*
X177254600Y-92567700D01*
X125776200Y-131539800D02*
X126761100Y-131539800D01*
X157663600Y-93576700D02*
X157261900Y-93978400D01*
X128491000Y-133269700D02*
X128491000Y-136186000D01*
X177515600Y-93576700D02*
X157663600Y-93576700D01*
X192307000Y-80137000D02*
X190955300Y-80137000D01*
X126761100Y-131539800D02*
X128491000Y-133269700D01*
X65002000Y-118533000D02*
X67052600Y-120583600D01*
X67052600Y-120583600D02*
X125334800Y-120583600D01*
X194872500Y-80137000D02*
X192307000Y-80137000D01*
X190955300Y-80137000D02*
X177515600Y-93576700D01*
X195507500Y-80772000D02*
X194872500Y-80137000D01*
X83323800Y-115774400D02*
X80479000Y-118619200D01*
X80479000Y-118619200D02*
X75629200Y-118619200D01*
X139182000Y-135204800D02*
X139182000Y-136186000D01*
X159564500Y-93978400D02*
X138064900Y-115478000D01*
X75629200Y-118619200D02*
X75543000Y-118533000D01*
X192307000Y-81407000D02*
X190955300Y-81407000D01*
X195507500Y-82550000D02*
X194364500Y-81407000D01*
X178383900Y-93978400D02*
X159564500Y-93978400D01*
X194364500Y-81407000D02*
X192307000Y-81407000D01*
X137768500Y-115774400D02*
X83323800Y-115774400D01*
X190955300Y-81407000D02*
X178383900Y-93978400D01*
X138064900Y-115478000D02*
X137768500Y-115774400D01*
X88634600Y-116236400D02*
X149941900Y-116236400D01*
X86338000Y-118533000D02*
X88634600Y-116236400D01*
X150081000Y-131904400D02*
X150081000Y-136186000D01*
X192982900Y-82677000D02*
X193658700Y-82677000D01*
X149941900Y-116236400D02*
X157038300Y-109140000D01*
X195507500Y-84328000D02*
X195309700Y-84328000D01*
X166519900Y-109140000D02*
X192982900Y-82677000D01*
X149866900Y-131690300D02*
X150081000Y-131904400D01*
X157038300Y-109140000D02*
X166519900Y-109140000D01*
X192307000Y-82677000D02*
X192982900Y-82677000D01*
X195309700Y-84328000D02*
X193658700Y-82677000D01*
X98188500Y-119715500D02*
X125935000Y-119715500D01*
X183007000Y-82677000D02*
X181655300Y-82677000D01*
X127636400Y-121416900D02*
X160797000Y-121416900D01*
X179298500Y-83439000D02*
X179298500Y-84676400D01*
X125935000Y-119715500D02*
X127636400Y-121416900D01*
X97006000Y-118533000D02*
X98188500Y-119715500D01*
X160797000Y-135186100D02*
X160797000Y-136186000D01*
X179298500Y-84676400D02*
X174790600Y-89184300D01*
X180893300Y-83439000D02*
X179298500Y-83439000D01*
X181655300Y-82677000D02*
X180893300Y-83439000D01*
X183007000Y-81407000D02*
X179425500Y-81407000D01*
X179298500Y-81534000D02*
X178508400Y-82324100D01*
X178508400Y-83730400D02*
X176108800Y-86130000D01*
X178508400Y-82324100D02*
X178508400Y-83730400D01*
X171059000Y-135305500D02*
X171059000Y-136186000D01*
X148203700Y-120468700D02*
X165126000Y-120468700D01*
X179425500Y-81407000D02*
X179298500Y-81534000D01*
X176108800Y-86130000D02*
X175922100Y-86130000D01*
X146268000Y-118533000D02*
X148203700Y-120468700D01*
X170960100Y-135206600D02*
X171059000Y-135305500D01*
X179121400Y-80137000D02*
X178676900Y-80581500D01*
X178819600Y-115775000D02*
X178893600Y-115849000D01*
X183007000Y-80137000D02*
X179298500Y-80137000D01*
X179298500Y-80137000D02*
X179121400Y-80137000D01*
X157422000Y-115775000D02*
X178819600Y-115775000D01*
X205057000Y-115849000D02*
X207614000Y-118406000D01*
X179298500Y-80137000D02*
X179298500Y-79629000D01*
X154664000Y-118533000D02*
X157422000Y-115775000D01*
X178893600Y-115849000D02*
X205057000Y-115849000D01*
X181655300Y-78867000D02*
X181378000Y-78589700D01*
X164370300Y-119335300D02*
X179695500Y-119335300D01*
X163568000Y-118533000D02*
X164370300Y-119335300D01*
X179298500Y-78589700D02*
X178165700Y-78589700D01*
X179298500Y-77724000D02*
X179298500Y-78589700D01*
X181378000Y-78589700D02*
X179298500Y-78589700D01*
X196028300Y-119736700D02*
X197323000Y-118442000D01*
X179695500Y-119335300D02*
X180096900Y-119736700D01*
X183007000Y-78867000D02*
X181655300Y-78867000D01*
X180096900Y-119736700D02*
X196028300Y-119736700D01*
X181698400Y-116893400D02*
X182313100Y-117508100D01*
X174069600Y-116893400D02*
X181698400Y-116893400D01*
X180411100Y-77058600D02*
X179298500Y-75946000D01*
X182313100Y-117508100D02*
X183338000Y-118533000D01*
X172430000Y-118533000D02*
X174069600Y-116893400D01*
X183007000Y-77597000D02*
X180411100Y-77597000D01*
X180411100Y-77597000D02*
X180411100Y-77058600D01*
X80899000Y-85979000D02*
X82050700Y-85979000D01*
X83363000Y-87559800D02*
X82050700Y-86247500D01*
X87658400Y-87559800D02*
X83363000Y-87559800D01*
X82050700Y-86247500D02*
X82050700Y-85979000D01*
X168867500Y-82011200D02*
X167536900Y-82011200D01*
X92160800Y-83057400D02*
X87658400Y-87559800D01*
X187788600Y-71873700D02*
X180882400Y-71873700D01*
X180882400Y-71873700D02*
X179716300Y-73039800D01*
X177838900Y-73039800D02*
X168867500Y-82011200D01*
X190955300Y-68707000D02*
X187788600Y-71873700D01*
X166490700Y-83057400D02*
X92160800Y-83057400D01*
X192307000Y-68707000D02*
X190955300Y-68707000D01*
X179716300Y-73039800D02*
X177838900Y-73039800D01*
X167536900Y-82011200D02*
X166490700Y-83057400D01*
X86727300Y-87130700D02*
X85500100Y-87130700D01*
X78359000Y-85979000D02*
X79510700Y-85979000D01*
X178901600Y-70611800D02*
X168045300Y-81468100D01*
X168045300Y-81468100D02*
X167429400Y-81468100D01*
X192307000Y-67437000D02*
X188790800Y-67437000D01*
X83950900Y-84826100D02*
X80395100Y-84826100D01*
X84709000Y-86339600D02*
X84709000Y-85584200D01*
X79510700Y-85710500D02*
X79510700Y-85979000D01*
X85500100Y-87130700D02*
X84709000Y-86339600D01*
X167027700Y-81869800D02*
X91988200Y-81869800D01*
X80395100Y-84826100D02*
X79510700Y-85710500D01*
X185616000Y-70611800D02*
X178901600Y-70611800D01*
X91988200Y-81869800D02*
X86727300Y-87130700D01*
X188790800Y-67437000D02*
X185616000Y-70611800D01*
X84709000Y-85584200D02*
X83950900Y-84826100D01*
X167429400Y-81468100D02*
X167027700Y-81869800D01*
X209375200Y-121541200D02*
X209375200Y-117670200D01*
X209375200Y-117670200D02*
X204830600Y-113125600D01*
X203804000Y-122470000D02*
X201703600Y-124570400D01*
X204830600Y-113125600D02*
X204830600Y-79126100D01*
X60802000Y-122597000D02*
X67302000Y-122597000D01*
X201703600Y-124570400D02*
X69275400Y-124570400D01*
X69275400Y-124570400D02*
X67302000Y-122597000D01*
X38866000Y-140159000D02*
X45366000Y-140159000D01*
X209375200Y-121541200D02*
X208446400Y-122470000D01*
X204830600Y-79126100D02*
X197332500Y-71628000D01*
X210304000Y-122470000D02*
X209375200Y-121541200D01*
X208446400Y-122470000D02*
X203804000Y-122470000D01*
X208014200Y-119878900D02*
X208878400Y-119014700D01*
X208878400Y-117811500D02*
X204415200Y-113348300D01*
X78120000Y-122597000D02*
X79655200Y-124132200D01*
X79655200Y-124132200D02*
X191544800Y-124132200D01*
X191544800Y-124132200D02*
X193171000Y-122506000D01*
X208878400Y-119014700D02*
X208878400Y-117811500D01*
X71620000Y-122597000D02*
X78120000Y-122597000D01*
X202298100Y-119878900D02*
X208014200Y-119878900D01*
X49661000Y-140159000D02*
X56161000Y-140159000D01*
X199671000Y-122506000D02*
X202298100Y-119878900D01*
X199671000Y-122506000D02*
X193171000Y-122506000D01*
X204415200Y-113348300D02*
X204415200Y-80488700D01*
X204415200Y-80488700D02*
X197332500Y-73406000D01*
X207850700Y-119471900D02*
X208441600Y-118881000D01*
X181337500Y-123707500D02*
X89898500Y-123707500D01*
X203187600Y-80912100D02*
X197332500Y-75057000D01*
X82288000Y-122597000D02*
X88788000Y-122597000D01*
X195731100Y-121320600D02*
X197579800Y-119471900D01*
X190224400Y-121320600D02*
X195731100Y-121320600D01*
X189003000Y-122542000D02*
X190224400Y-121320600D01*
X60481000Y-140159000D02*
X66981000Y-140159000D01*
X208441600Y-117944700D02*
X203187600Y-112690700D01*
X203187600Y-112690700D02*
X203187600Y-80912100D01*
X189003000Y-122542000D02*
X182503000Y-122542000D01*
X89898500Y-123707500D02*
X88788000Y-122597000D01*
X197579800Y-119471900D02*
X207850700Y-119471900D01*
X208441600Y-118881000D02*
X208441600Y-117944700D01*
X182503000Y-122542000D02*
X181337500Y-123707500D01*
X196542400Y-86241900D02*
X197108400Y-86807900D01*
X196542400Y-77752100D02*
X196542400Y-86241900D01*
X197332500Y-76962000D02*
X196542400Y-77752100D01*
X71147000Y-140159000D02*
X77647000Y-140159000D01*
X189003000Y-140159000D02*
X182503000Y-140159000D01*
X193184000Y-140123000D02*
X191605600Y-141701400D01*
X89834400Y-141701400D02*
X88292000Y-140159000D01*
X197332500Y-78867000D02*
X197332500Y-79188600D01*
X191605600Y-141701400D02*
X89834400Y-141701400D01*
X88292000Y-140159000D02*
X81792000Y-140159000D01*
X197332500Y-79188600D02*
X198062500Y-79918600D01*
X111069500Y-141249200D02*
X113708200Y-138610500D01*
X225163000Y-139996000D02*
X218663000Y-139996000D01*
X113708200Y-138610500D02*
X217277500Y-138610500D01*
X98960000Y-140159000D02*
X100050200Y-141249200D01*
X100050200Y-141249200D02*
X111069500Y-141249200D01*
X197332500Y-80772000D02*
X198175700Y-80772000D01*
X217277500Y-138610500D02*
X218663000Y-139996000D01*
X198175700Y-80772000D02*
X198705500Y-81301800D01*
X98960000Y-140159000D02*
X92460000Y-140159000D01*
X218028000Y-122542000D02*
X214830900Y-125739100D01*
X214830900Y-130423700D02*
X207064100Y-138190500D01*
X224528000Y-122542000D02*
X218028000Y-122542000D01*
X202120500Y-109537500D02*
X202043000Y-109460000D01*
X109616000Y-140159000D02*
X103116000Y-140159000D01*
X214830900Y-125739100D02*
X214830900Y-130423700D01*
X202043000Y-87260500D02*
X197332500Y-82550000D01*
X111584500Y-138190500D02*
X109616000Y-140159000D01*
X207064100Y-138190500D02*
X111584500Y-138190500D01*
X202043000Y-109460000D02*
X202043000Y-87260500D01*
X120259000Y-140159000D02*
X121384600Y-139033400D01*
X202842400Y-139033400D02*
X203841000Y-140032000D01*
X203841000Y-140032000D02*
X210341000Y-140032000D01*
X121384600Y-139033400D02*
X202842400Y-139033400D01*
X120259000Y-140159000D02*
X113759000Y-140159000D01*
X197332500Y-84328000D02*
X198704000Y-85699500D01*
X198704000Y-85699500D02*
X198704000Y-115247300D01*
X55400000Y-125935000D02*
X105688200Y-125935000D01*
X124427000Y-140159000D02*
X130927000Y-140159000D01*
X105688200Y-125935000D02*
X105887600Y-126134400D01*
X177473500Y-83439000D02*
X176166200Y-84746300D01*
X176166200Y-84746300D02*
X172391500Y-84746300D01*
X52062000Y-122597000D02*
X55400000Y-125935000D01*
X52062000Y-122597000D02*
X45562000Y-122597000D01*
X135095000Y-140159000D02*
X141595000Y-140159000D01*
X177473500Y-81534000D02*
X175164400Y-83843100D01*
X175164400Y-83843100D02*
X173374700Y-83843100D01*
X108981000Y-122597000D02*
X115481000Y-122597000D01*
X145763000Y-140159000D02*
X152263000Y-140159000D01*
X177473500Y-79629000D02*
X176644900Y-80457600D01*
X176644900Y-80457600D02*
X175520400Y-80457600D01*
X119626000Y-122597000D02*
X126126000Y-122597000D01*
X156456000Y-140159000D02*
X162956000Y-140159000D01*
X177473500Y-77724000D02*
X176069800Y-77724000D01*
X177473500Y-75946000D02*
X176471500Y-76948000D01*
X176471500Y-76948000D02*
X176471500Y-76980100D01*
X167122000Y-140159000D02*
X173622000Y-140159000D01*
X130294000Y-122597000D02*
X136794000Y-122597000D01*
M02*
