G04 #@! TF.GenerationSoftware,KiCad,Pcbnew,8.0.8*
G04 #@! TF.CreationDate,2025-03-25T19:49:57+09:00*
G04 #@! TF.ProjectId,panelBoard,70616e65-6c42-46f6-9172-642e6b696361,rev?*
G04 #@! TF.SameCoordinates,Original*
G04 #@! TF.FileFunction,Soldermask,Bot*
G04 #@! TF.FilePolarity,Negative*
%FSLAX46Y46*%
G04 Gerber Fmt 4.6, Leading zero omitted, Abs format (unit mm)*
G04 Created by KiCad (PCBNEW 8.0.8) date 2025-03-25 19:49:57*
%MOMM*%
%LPD*%
G01*
G04 APERTURE LIST*
%ADD10C,1.575000*%
%ADD11R,1.700000X1.700000*%
%ADD12O,1.700000X1.700000*%
G04 APERTURE END LIST*
D10*
X98960000Y-144659000D03*
X92460000Y-144659000D03*
X98960000Y-140159000D03*
X92460000Y-140159000D03*
X120259000Y-144659000D03*
X113759000Y-144659000D03*
X120259000Y-140159000D03*
X113759000Y-140159000D03*
X162956000Y-144659000D03*
X156456000Y-144659000D03*
X162956000Y-140159000D03*
X156456000Y-140159000D03*
X189003000Y-144659000D03*
X182503000Y-144659000D03*
X189003000Y-140159000D03*
X182503000Y-140159000D03*
X126126000Y-127097000D03*
X119626000Y-127097000D03*
X126126000Y-122597000D03*
X119626000Y-122597000D03*
X225163000Y-144496000D03*
X218663000Y-144496000D03*
X225163000Y-139996000D03*
X218663000Y-139996000D03*
D11*
X75819000Y-85979000D03*
D12*
X78359000Y-85979000D03*
X80899000Y-85979000D03*
X83439000Y-85979000D03*
X85979000Y-85979000D03*
D10*
X130927000Y-144659000D03*
X124427000Y-144659000D03*
X130927000Y-140159000D03*
X124427000Y-140159000D03*
X210341000Y-144532000D03*
X203841000Y-144532000D03*
X210341000Y-140032000D03*
X203841000Y-140032000D03*
X88788000Y-127097000D03*
X82288000Y-127097000D03*
X88788000Y-122597000D03*
X82288000Y-122597000D03*
X224528000Y-127042000D03*
X218028000Y-127042000D03*
X224528000Y-122542000D03*
X218028000Y-122542000D03*
X78120000Y-127097000D03*
X71620000Y-127097000D03*
X78120000Y-122597000D03*
X71620000Y-122597000D03*
X199684000Y-144623000D03*
X193184000Y-144623000D03*
X199684000Y-140123000D03*
X193184000Y-140123000D03*
X199671000Y-127006000D03*
X193171000Y-127006000D03*
X199671000Y-122506000D03*
X193171000Y-122506000D03*
X99456000Y-127042000D03*
X92956000Y-127042000D03*
X99456000Y-122542000D03*
X92956000Y-122542000D03*
X66981000Y-144659000D03*
X60481000Y-144659000D03*
X66981000Y-140159000D03*
X60481000Y-140159000D03*
X152263000Y-144659000D03*
X145763000Y-144659000D03*
X152263000Y-140159000D03*
X145763000Y-140159000D03*
X136794000Y-127097000D03*
X130294000Y-127097000D03*
X136794000Y-122597000D03*
X130294000Y-122597000D03*
X67302000Y-127097000D03*
X60802000Y-127097000D03*
X67302000Y-122597000D03*
X60802000Y-122597000D03*
X141595000Y-144659000D03*
X135095000Y-144659000D03*
X141595000Y-140159000D03*
X135095000Y-140159000D03*
X45366000Y-144659000D03*
X38866000Y-144659000D03*
X45366000Y-140159000D03*
X38866000Y-140159000D03*
X88292000Y-144659000D03*
X81792000Y-144659000D03*
X88292000Y-140159000D03*
X81792000Y-140159000D03*
X77647000Y-144659000D03*
X71147000Y-144659000D03*
X77647000Y-140159000D03*
X71147000Y-140159000D03*
X210304000Y-126970000D03*
X203804000Y-126970000D03*
X210304000Y-122470000D03*
X203804000Y-122470000D03*
X52062000Y-127097000D03*
X45562000Y-127097000D03*
X52062000Y-122597000D03*
X45562000Y-122597000D03*
X115481000Y-127097000D03*
X108981000Y-127097000D03*
X115481000Y-122597000D03*
X108981000Y-122597000D03*
X173622000Y-144659000D03*
X167122000Y-144659000D03*
X173622000Y-140159000D03*
X167122000Y-140159000D03*
X189003000Y-127042000D03*
X182503000Y-127042000D03*
X189003000Y-122542000D03*
X182503000Y-122542000D03*
X56161000Y-144659000D03*
X49661000Y-144659000D03*
X56161000Y-140159000D03*
X49661000Y-140159000D03*
X109616000Y-144659000D03*
X103116000Y-144659000D03*
X109616000Y-140159000D03*
X103116000Y-140159000D03*
M02*
