G04 #@! TF.GenerationSoftware,KiCad,Pcbnew,8.0.8*
G04 #@! TF.CreationDate,2025-03-23T17:18:30+09:00*
G04 #@! TF.ProjectId,panelBoard,70616e65-6c42-46f6-9172-642e6b696361,rev?*
G04 #@! TF.SameCoordinates,Original*
G04 #@! TF.FileFunction,Copper,L2,Bot*
G04 #@! TF.FilePolarity,Positive*
%FSLAX46Y46*%
G04 Gerber Fmt 4.6, Leading zero omitted, Abs format (unit mm)*
G04 Created by KiCad (PCBNEW 8.0.8) date 2025-03-23 17:18:30*
%MOMM*%
%LPD*%
G01*
G04 APERTURE LIST*
G04 Aperture macros list*
%AMRoundRect*
0 Rectangle with rounded corners*
0 $1 Rounding radius*
0 $2 $3 $4 $5 $6 $7 $8 $9 X,Y pos of 4 corners*
0 Add a 4 corners polygon primitive as box body*
4,1,4,$2,$3,$4,$5,$6,$7,$8,$9,$2,$3,0*
0 Add four circle primitives for the rounded corners*
1,1,$1+$1,$2,$3*
1,1,$1+$1,$4,$5*
1,1,$1+$1,$6,$7*
1,1,$1+$1,$8,$9*
0 Add four rect primitives between the rounded corners*
20,1,$1+$1,$2,$3,$4,$5,0*
20,1,$1+$1,$4,$5,$6,$7,0*
20,1,$1+$1,$6,$7,$8,$9,0*
20,1,$1+$1,$8,$9,$2,$3,0*%
G04 Aperture macros list end*
G04 #@! TA.AperFunction,ComponentPad*
%ADD10C,1.575000*%
G04 #@! TD*
G04 #@! TA.AperFunction,ComponentPad*
%ADD11RoundRect,0.250000X-0.600000X-0.725000X0.600000X-0.725000X0.600000X0.725000X-0.600000X0.725000X0*%
G04 #@! TD*
G04 #@! TA.AperFunction,ComponentPad*
%ADD12O,1.700000X1.950000*%
G04 #@! TD*
G04 #@! TA.AperFunction,SMDPad,CuDef*
%ADD13RoundRect,0.237500X0.237500X-0.250000X0.237500X0.250000X-0.237500X0.250000X-0.237500X-0.250000X0*%
G04 #@! TD*
G04 #@! TA.AperFunction,SMDPad,CuDef*
%ADD14RoundRect,0.237500X-0.237500X0.250000X-0.237500X-0.250000X0.237500X-0.250000X0.237500X0.250000X0*%
G04 #@! TD*
G04 #@! TA.AperFunction,SMDPad,CuDef*
%ADD15RoundRect,0.225000X-0.375000X0.225000X-0.375000X-0.225000X0.375000X-0.225000X0.375000X0.225000X0*%
G04 #@! TD*
G04 #@! TA.AperFunction,SMDPad,CuDef*
%ADD16RoundRect,0.237500X0.237500X-0.300000X0.237500X0.300000X-0.237500X0.300000X-0.237500X-0.300000X0*%
G04 #@! TD*
G04 #@! TA.AperFunction,SMDPad,CuDef*
%ADD17R,0.650000X2.100000*%
G04 #@! TD*
G04 #@! TA.AperFunction,ViaPad*
%ADD18C,0.600000*%
G04 #@! TD*
G04 #@! TA.AperFunction,Conductor*
%ADD19C,0.400000*%
G04 #@! TD*
G04 #@! TA.AperFunction,Conductor*
%ADD20C,0.200000*%
G04 #@! TD*
G04 APERTURE END LIST*
D10*
X98960000Y-144659000D03*
X92460000Y-144659000D03*
X98960000Y-140159000D03*
X92460000Y-140159000D03*
X120259000Y-144659000D03*
X113759000Y-144659000D03*
X120259000Y-140159000D03*
X113759000Y-140159000D03*
X162956000Y-144659000D03*
X156456000Y-144659000D03*
X162956000Y-140159000D03*
X156456000Y-140159000D03*
X189003000Y-144659000D03*
X182503000Y-144659000D03*
X189003000Y-140159000D03*
X182503000Y-140159000D03*
X126126000Y-127097000D03*
X119626000Y-127097000D03*
X126126000Y-122597000D03*
X119626000Y-122597000D03*
X225163000Y-144496000D03*
X218663000Y-144496000D03*
X225163000Y-139996000D03*
X218663000Y-139996000D03*
X130927000Y-144659000D03*
X124427000Y-144659000D03*
X130927000Y-140159000D03*
X124427000Y-140159000D03*
X210341000Y-144532000D03*
X203841000Y-144532000D03*
X210341000Y-140032000D03*
X203841000Y-140032000D03*
X88788000Y-127097000D03*
X82288000Y-127097000D03*
X88788000Y-122597000D03*
X82288000Y-122597000D03*
X224528000Y-127042000D03*
X218028000Y-127042000D03*
X224528000Y-122542000D03*
X218028000Y-122542000D03*
X78120000Y-127097000D03*
X71620000Y-127097000D03*
X78120000Y-122597000D03*
X71620000Y-122597000D03*
X199684000Y-144623000D03*
X193184000Y-144623000D03*
X199684000Y-140123000D03*
X193184000Y-140123000D03*
X199671000Y-127006000D03*
X193171000Y-127006000D03*
X199671000Y-122506000D03*
X193171000Y-122506000D03*
X99456000Y-127042000D03*
X92956000Y-127042000D03*
X99456000Y-122542000D03*
X92956000Y-122542000D03*
X66981000Y-144659000D03*
X60481000Y-144659000D03*
X66981000Y-140159000D03*
X60481000Y-140159000D03*
X152263000Y-144659000D03*
X145763000Y-144659000D03*
X152263000Y-140159000D03*
X145763000Y-140159000D03*
X136794000Y-127097000D03*
X130294000Y-127097000D03*
X136794000Y-122597000D03*
X130294000Y-122597000D03*
X67302000Y-127097000D03*
X60802000Y-127097000D03*
X67302000Y-122597000D03*
X60802000Y-122597000D03*
X141595000Y-144659000D03*
X135095000Y-144659000D03*
X141595000Y-140159000D03*
X135095000Y-140159000D03*
X45366000Y-144659000D03*
X38866000Y-144659000D03*
X45366000Y-140159000D03*
X38866000Y-140159000D03*
X88292000Y-144659000D03*
X81792000Y-144659000D03*
X88292000Y-140159000D03*
X81792000Y-140159000D03*
D11*
X75971000Y-86021000D03*
D12*
X78471000Y-86021000D03*
X80971000Y-86021000D03*
X83471000Y-86021000D03*
X85971000Y-86021000D03*
D10*
X77647000Y-144659000D03*
X71147000Y-144659000D03*
X77647000Y-140159000D03*
X71147000Y-140159000D03*
X210304000Y-126970000D03*
X203804000Y-126970000D03*
X210304000Y-122470000D03*
X203804000Y-122470000D03*
X52062000Y-127097000D03*
X45562000Y-127097000D03*
X52062000Y-122597000D03*
X45562000Y-122597000D03*
X115481000Y-127097000D03*
X108981000Y-127097000D03*
X115481000Y-122597000D03*
X108981000Y-122597000D03*
X173622000Y-144659000D03*
X167122000Y-144659000D03*
X173622000Y-140159000D03*
X167122000Y-140159000D03*
X189003000Y-127042000D03*
X182503000Y-127042000D03*
X189003000Y-122542000D03*
X182503000Y-122542000D03*
X56161000Y-144659000D03*
X49661000Y-144659000D03*
X56161000Y-140159000D03*
X49661000Y-140159000D03*
X109616000Y-144659000D03*
X103116000Y-144659000D03*
X109616000Y-140159000D03*
X103116000Y-140159000D03*
D13*
X189778000Y-67302500D03*
X189778000Y-65477500D03*
X193588000Y-67302500D03*
X193588000Y-65477500D03*
D14*
X196382000Y-83511500D03*
X196382000Y-85336500D03*
D13*
X191683000Y-67302500D03*
X191683000Y-65477500D03*
D15*
X184190000Y-63978000D03*
X184190000Y-67278000D03*
D14*
X189016000Y-83511500D03*
X189016000Y-85336500D03*
X192826000Y-83511500D03*
X192826000Y-85336500D03*
X190921000Y-83511500D03*
X190921000Y-85336500D03*
X194604000Y-83511500D03*
X194604000Y-85336500D03*
X183682000Y-83511500D03*
X183682000Y-85336500D03*
D13*
X195493000Y-67302500D03*
X195493000Y-65477500D03*
D16*
X175427000Y-76650500D03*
X175427000Y-74925500D03*
D15*
X181650000Y-63978000D03*
X181650000Y-67278000D03*
D14*
X185460000Y-83511500D03*
X185460000Y-85336500D03*
D17*
X178221000Y-71011000D03*
X179491000Y-71011000D03*
X180761000Y-71011000D03*
X182031000Y-71011000D03*
X183301000Y-71011000D03*
X184571000Y-71011000D03*
X185841000Y-71011000D03*
X187111000Y-71011000D03*
X188381000Y-71011000D03*
X189651000Y-71011000D03*
X190921000Y-71011000D03*
X192191000Y-71011000D03*
X193461000Y-71011000D03*
X194731000Y-71011000D03*
X194731000Y-80311000D03*
X193461000Y-80311000D03*
X192191000Y-80311000D03*
X190921000Y-80311000D03*
X189651000Y-80311000D03*
X188381000Y-80311000D03*
X187111000Y-80311000D03*
X185841000Y-80311000D03*
X184571000Y-80311000D03*
X183301000Y-80311000D03*
X182031000Y-80311000D03*
X180761000Y-80311000D03*
X179491000Y-80311000D03*
X178221000Y-80311000D03*
D15*
X179237000Y-63978000D03*
X179237000Y-67278000D03*
D14*
X187111000Y-83511500D03*
X187111000Y-85336500D03*
D13*
X188000000Y-67302500D03*
X188000000Y-65477500D03*
D18*
X149000000Y-79932400D03*
X176415500Y-75013500D03*
X175031000Y-78312600D03*
X173609000Y-75058300D03*
X175962000Y-67562400D03*
X186047000Y-135152000D03*
X176170000Y-117583000D03*
X184759000Y-117739000D03*
X182920000Y-63997500D03*
X171257000Y-140808000D03*
X177700000Y-116966000D03*
X177299000Y-116168000D03*
X180070000Y-137182000D03*
X181622000Y-134541000D03*
X180109000Y-132156000D03*
X185998000Y-82488800D03*
X180205000Y-120666000D03*
X180594000Y-107950000D03*
X113602000Y-119621000D03*
X105453000Y-133577000D03*
X180340000Y-96774000D03*
X108711000Y-136071000D03*
X117015000Y-116180000D03*
X115207000Y-119060000D03*
X189032000Y-82292500D03*
X117150000Y-135376000D03*
X135509000Y-118399000D03*
X188374000Y-84434200D03*
X196857000Y-123136000D03*
X139182000Y-133547000D03*
X192862000Y-82405200D03*
X134005000Y-121418000D03*
X149911000Y-116206000D03*
X193800000Y-84371600D03*
X149942000Y-135177000D03*
X153749000Y-114344000D03*
X147154000Y-121831000D03*
X110058000Y-126095000D03*
X110085000Y-119513000D03*
X159066000Y-120016000D03*
X173000000Y-108000000D03*
X192453000Y-75111500D03*
X170028000Y-134618000D03*
X192626000Y-74087100D03*
X195621000Y-115815000D03*
X178102000Y-118330000D03*
X180551000Y-81873000D03*
X179491000Y-78747400D03*
X193600000Y-119629000D03*
X193040000Y-114046000D03*
X193600000Y-95254700D03*
X171000000Y-107904041D03*
X192570000Y-68737200D03*
X158359000Y-122597000D03*
D19*
X176415500Y-75013500D02*
X175515000Y-75013500D01*
D20*
X149000000Y-79932400D02*
X149000000Y-80037300D01*
D19*
X149000000Y-80037300D02*
X145037300Y-84000000D01*
X176415500Y-74168200D02*
X178221000Y-72362700D01*
D20*
X175515000Y-75013500D02*
X175427000Y-74925500D01*
D19*
X89143700Y-84000000D02*
X87122700Y-86021000D01*
X145037300Y-84000000D02*
X89143700Y-84000000D01*
X176415500Y-75013500D02*
X176415500Y-74168200D01*
X87122700Y-86021000D02*
X85971000Y-86021000D01*
X178221000Y-71011000D02*
X178221000Y-72362700D01*
D20*
X175229000Y-78114400D02*
X175427000Y-78114400D01*
X175427000Y-78114400D02*
X175427000Y-76650500D01*
X175031000Y-78312600D02*
X175229000Y-78114400D01*
X175427000Y-78114400D02*
X177376000Y-78114400D01*
X178221000Y-78959300D02*
X178221000Y-80311000D01*
X177376000Y-78114400D02*
X178221000Y-78959300D01*
X173131000Y-144168000D02*
X173622000Y-144659000D01*
X170636000Y-144168000D02*
X173131000Y-144168000D01*
X179237000Y-64287800D02*
X179237000Y-63978000D01*
X170636000Y-133863000D02*
X173686000Y-130813000D01*
X38866000Y-144659000D02*
X45366000Y-144659000D01*
X173686000Y-130813000D02*
X173686000Y-75134800D01*
X175962000Y-67562400D02*
X179237000Y-64287800D01*
X170636000Y-144168000D02*
X170636000Y-133863000D01*
X167122000Y-144659000D02*
X167613000Y-144168000D01*
X167613000Y-144168000D02*
X170636000Y-144168000D01*
X173686000Y-75134800D02*
X173609000Y-75058300D01*
X179237000Y-68569500D02*
X179237000Y-67278000D01*
X184759000Y-117739000D02*
X184759000Y-133864000D01*
X179237000Y-68569500D02*
X179671000Y-68569500D01*
X180761000Y-69659300D02*
X180761000Y-71011000D01*
X179237000Y-68569500D02*
X178833000Y-68569500D01*
X174394000Y-115807000D02*
X176170000Y-117583000D01*
X178833000Y-68569500D02*
X174394000Y-73009200D01*
X184759000Y-133864000D02*
X186047000Y-135152000D01*
X174394000Y-73009200D02*
X174394000Y-115807000D01*
X179671000Y-68569500D02*
X180761000Y-69659300D01*
X181650000Y-67278000D02*
X182031000Y-67659000D01*
X182031000Y-67659000D02*
X182031000Y-71011000D01*
X102871000Y-120987000D02*
X108981000Y-127097000D01*
X223813000Y-144496000D02*
X225163000Y-144496000D01*
X221913000Y-127042000D02*
X224528000Y-127042000D01*
X181650000Y-63978000D02*
X182900000Y-63978000D01*
X46697700Y-125961000D02*
X45562000Y-127097000D01*
X221913000Y-142596000D02*
X220013000Y-144496000D01*
X221913000Y-142596000D02*
X223813000Y-144496000D01*
X50926300Y-125961000D02*
X50926300Y-122155000D01*
X218028000Y-127042000D02*
X221913000Y-127042000D01*
X220013000Y-144496000D02*
X218663000Y-144496000D01*
X182900000Y-63978000D02*
X182920000Y-63997500D01*
X50926300Y-125961000D02*
X52062000Y-127097000D01*
X203804000Y-126970000D02*
X210304000Y-126970000D01*
X50926300Y-122155000D02*
X52094600Y-120987000D01*
X221913000Y-127042000D02*
X221913000Y-142596000D01*
X52094600Y-120987000D02*
X102871000Y-120987000D01*
X50926300Y-125961000D02*
X46697700Y-125961000D01*
X192636000Y-65776400D02*
X192636000Y-65098000D01*
X194970000Y-66288000D02*
X195942000Y-66288000D01*
X190854000Y-65982200D02*
X191160000Y-66288000D01*
X147504900Y-92302200D02*
X136671883Y-92302200D01*
X184190000Y-63978000D02*
X189530000Y-63978000D01*
X195942000Y-66288000D02*
X196276000Y-65954200D01*
X109389000Y-128257000D02*
X100671000Y-128257000D01*
X100671000Y-128257000D02*
X99456000Y-127042000D01*
X190854000Y-65302500D02*
X190854000Y-65982200D01*
X78120000Y-127097000D02*
X71620000Y-127097000D01*
X178807100Y-61000000D02*
X147504900Y-92302200D01*
X192124000Y-66288000D02*
X192636000Y-65776400D01*
X194026000Y-64664300D02*
X194664000Y-65302500D01*
X193069000Y-64664300D02*
X194026000Y-64664300D01*
X136671883Y-92302200D02*
X110713000Y-118261083D01*
X191160000Y-66288000D02*
X192124000Y-66288000D01*
X189530000Y-63978000D02*
X190854000Y-65302500D01*
X192636000Y-65098000D02*
X193069000Y-64664300D01*
X110713000Y-118261083D02*
X110713000Y-126932000D01*
X192267700Y-61000000D02*
X178807100Y-61000000D01*
X196276000Y-65954200D02*
X196276000Y-65008300D01*
X194664000Y-65982200D02*
X194970000Y-66288000D01*
X196276000Y-65008300D02*
X192267700Y-61000000D01*
X194664000Y-65302500D02*
X194664000Y-65982200D01*
X110713000Y-126932000D02*
X109389000Y-128257000D01*
X184190000Y-67278000D02*
X183301000Y-68167000D01*
X183301000Y-68167000D02*
X183301000Y-71011000D01*
X177700000Y-116966000D02*
X177500000Y-117166000D01*
X177900000Y-85793300D02*
X177900000Y-116766000D01*
X182031000Y-81662700D02*
X177900000Y-85793300D01*
X177900000Y-116766000D02*
X177700000Y-116966000D01*
X182031000Y-80311000D02*
X182031000Y-81662700D01*
X177500000Y-117166000D02*
X177500000Y-134564000D01*
X177500000Y-134564000D02*
X171257000Y-140808000D01*
X178864000Y-81548100D02*
X177299000Y-83113800D01*
X177299000Y-83113800D02*
X177299000Y-116168000D01*
X178864000Y-72989400D02*
X178864000Y-81548100D01*
X179491000Y-72362700D02*
X178864000Y-72989400D01*
X179491000Y-71011000D02*
X179491000Y-72362700D01*
X183301000Y-80311000D02*
X183301000Y-81921800D01*
X178776000Y-135887000D02*
X180070000Y-137182000D01*
X183301000Y-81921800D02*
X178776000Y-86446800D01*
X178776000Y-86446800D02*
X178776000Y-135887000D01*
X184571000Y-81662700D02*
X184205000Y-81662700D01*
X179180000Y-86687200D02*
X179180000Y-132100000D01*
X179180000Y-132100000D02*
X181622000Y-134541000D01*
X184205000Y-81662700D02*
X179180000Y-86687200D01*
X184571000Y-80311000D02*
X184571000Y-81662700D01*
X179585000Y-87608800D02*
X179585000Y-131632000D01*
X179585000Y-131632000D02*
X180109000Y-132156000D01*
X185531000Y-81662700D02*
X185841000Y-81662700D01*
X183682000Y-83511500D02*
X185531000Y-81662700D01*
X185841000Y-81662700D02*
X185841000Y-80311000D01*
X183682000Y-83511500D02*
X179585000Y-87608800D01*
X186824000Y-81662700D02*
X185998000Y-82488800D01*
X185998000Y-82973900D02*
X185460000Y-83511500D01*
X185998000Y-82488800D02*
X185998000Y-82973900D01*
X187111000Y-81662700D02*
X186824000Y-81662700D01*
X187111000Y-80311000D02*
X187111000Y-81662700D01*
X180340000Y-96774000D02*
X179985000Y-96419000D01*
X111375000Y-121847000D02*
X113602000Y-119621000D01*
X183340000Y-84424000D02*
X186198000Y-84424000D01*
X179987000Y-120448000D02*
X180205000Y-120666000D01*
X179985000Y-87779300D02*
X179987000Y-87777300D01*
X179987000Y-108557000D02*
X180594000Y-107950000D01*
X187111000Y-83511500D02*
X188381000Y-82241500D01*
X179985000Y-96419000D02*
X179985000Y-87779300D01*
X186198000Y-84424000D02*
X187111000Y-83511500D01*
X111375000Y-127655000D02*
X111375000Y-121847000D01*
X179987000Y-87777300D02*
X183340000Y-84424000D01*
X105453000Y-133577000D02*
X111375000Y-127655000D01*
X188381000Y-82241500D02*
X188381000Y-80311000D01*
X179987000Y-120448000D02*
X179987000Y-108557000D01*
X189032000Y-82292500D02*
X189016000Y-82308800D01*
X189651000Y-81662700D02*
X189651000Y-80311000D01*
X189032000Y-82281400D02*
X189651000Y-81662700D01*
X189016000Y-82308800D02*
X189016000Y-83511500D01*
X113242000Y-131540000D02*
X113242000Y-121024000D01*
X117015000Y-117252000D02*
X117015000Y-116180000D01*
X108711000Y-136071000D02*
X113242000Y-131540000D01*
X189032000Y-82292500D02*
X189032000Y-82281400D01*
X115207000Y-119060000D02*
X117015000Y-117252000D01*
X113242000Y-121024000D02*
X115207000Y-119060000D01*
X189752000Y-84434200D02*
X188374000Y-84434200D01*
X114392000Y-132619000D02*
X117150000Y-135376000D01*
X190921000Y-80311000D02*
X190921000Y-83511500D01*
X118136000Y-118399000D02*
X114392000Y-122142000D01*
X190921000Y-83511500D02*
X190675000Y-83511500D01*
X114392000Y-122142000D02*
X114392000Y-132619000D01*
X135509000Y-118399000D02*
X118136000Y-118399000D01*
X190675000Y-83511500D02*
X189752000Y-84434200D01*
X192016000Y-84565600D02*
X192506000Y-84075700D01*
X192191000Y-83196600D02*
X192191000Y-80311000D01*
X196857000Y-123136000D02*
X196857000Y-90618900D01*
X196857000Y-90618900D02*
X192016000Y-85777900D01*
X192506000Y-83511500D02*
X192826000Y-83511500D01*
X192506000Y-83511500D02*
X192191000Y-83196600D01*
X192506000Y-84075700D02*
X192506000Y-83511500D01*
X192016000Y-85777900D02*
X192016000Y-84565600D01*
X139265000Y-126678000D02*
X139265000Y-133464000D01*
X139265000Y-133464000D02*
X139182000Y-133547000D01*
X193444000Y-82351700D02*
X193444000Y-81679500D01*
X192915000Y-82351700D02*
X193444000Y-82351700D01*
X192862000Y-82405200D02*
X192915000Y-82351700D01*
X193444000Y-81679500D02*
X193461000Y-81662700D01*
X134005000Y-121418000D02*
X139265000Y-126678000D01*
X149736000Y-116206000D02*
X149911000Y-116206000D01*
X193444000Y-82351700D02*
X194604000Y-83511500D01*
X193461000Y-81662700D02*
X193461000Y-80311000D01*
X139265000Y-126678000D02*
X149736000Y-116206000D01*
X195586000Y-83511500D02*
X195586000Y-83845300D01*
X147154000Y-132389000D02*
X149942000Y-135177000D01*
X147154000Y-121831000D02*
X153749000Y-115236000D01*
X195586000Y-83845300D02*
X195060000Y-84371600D01*
X194731000Y-81662700D02*
X195586000Y-82517700D01*
X147154000Y-121831000D02*
X147154000Y-132389000D01*
X153749000Y-115236000D02*
X153749000Y-114344000D01*
X195586000Y-83511500D02*
X196382000Y-83511500D01*
X195060000Y-84371600D02*
X193800000Y-84371600D01*
X194731000Y-80311000D02*
X194731000Y-81662700D01*
X195586000Y-82517700D02*
X195586000Y-83511500D01*
X196704000Y-64851100D02*
X192105107Y-60252207D01*
X192105107Y-60252207D02*
X178433551Y-60252207D01*
X136099500Y-91900500D02*
X110085000Y-117915000D01*
X196704000Y-66100000D02*
X196704000Y-64851100D01*
X195493000Y-67302500D02*
X195501000Y-67302500D01*
X195501000Y-67302500D02*
X196704000Y-66100000D01*
X195493000Y-68897300D02*
X194731000Y-69659300D01*
X178433551Y-60252207D02*
X146785258Y-91900500D01*
X110085000Y-126068000D02*
X110058000Y-126095000D01*
X110085000Y-117915000D02*
X110085000Y-119513000D01*
X194731000Y-69659300D02*
X194731000Y-71011000D01*
X110085000Y-119513000D02*
X110085000Y-126068000D01*
X146785258Y-91900500D02*
X136099500Y-91900500D01*
X195493000Y-67302500D02*
X195493000Y-68897300D01*
X173000000Y-108000000D02*
X170000000Y-111000000D01*
X192453000Y-75111500D02*
X193461000Y-74103500D01*
X193588000Y-67302500D02*
X193461000Y-67429500D01*
X170000000Y-111000000D02*
X163722000Y-111000000D01*
X170028000Y-130978000D02*
X170028000Y-134618000D01*
X159066000Y-120016000D02*
X170028000Y-130978000D01*
X159066000Y-115656000D02*
X159066000Y-120016000D01*
X193461000Y-74103500D02*
X193461000Y-71011000D01*
X193461000Y-67429500D02*
X193461000Y-71011000D01*
X163722000Y-111000000D02*
X159066000Y-115656000D01*
X192191000Y-71011000D02*
X192191000Y-69659300D01*
X192191000Y-69659300D02*
X191683000Y-69151300D01*
X192626000Y-72798200D02*
X192626000Y-74087100D01*
X191683000Y-69151300D02*
X191683000Y-67302500D01*
X192191000Y-72362700D02*
X192626000Y-72798200D01*
X192191000Y-71011000D02*
X192191000Y-72362700D01*
X195621000Y-91330600D02*
X195621000Y-115815000D01*
X191365000Y-84318600D02*
X190657000Y-84318600D01*
X190921000Y-72362700D02*
X191548000Y-72989400D01*
X189778000Y-67302500D02*
X190921000Y-68445500D01*
X191548000Y-72989400D02*
X191548000Y-82407600D01*
X190921000Y-71011000D02*
X190921000Y-72362700D01*
X191699000Y-82558600D02*
X191699000Y-83985200D01*
X190133000Y-85842700D02*
X195621000Y-91330600D01*
X190133000Y-84842900D02*
X190133000Y-85842700D01*
X190657000Y-84318600D02*
X190133000Y-84842900D01*
X191548000Y-82407600D02*
X191699000Y-82558600D01*
X190921000Y-68445500D02*
X190921000Y-71011000D01*
X191699000Y-83985200D02*
X191365000Y-84318600D01*
X182658000Y-79109400D02*
X182658000Y-81972000D01*
X178302000Y-118130000D02*
X178102000Y-118330000D01*
X178302000Y-86327600D02*
X178302000Y-118130000D01*
X189651000Y-69659300D02*
X189651000Y-71011000D01*
X182658000Y-81972000D02*
X178302000Y-86327600D01*
X189651000Y-72362700D02*
X189404000Y-72362700D01*
X189651000Y-71011000D02*
X189651000Y-72362700D01*
X189404000Y-72362700D02*
X182658000Y-79109400D01*
X188000000Y-67302500D02*
X188000000Y-68008300D01*
X188000000Y-68008300D02*
X189651000Y-69659300D01*
X180761000Y-81662700D02*
X180761000Y-80311000D01*
X180551000Y-81873000D02*
X180761000Y-81662700D01*
X179491000Y-78747400D02*
X179491000Y-80311000D01*
X193040000Y-119069000D02*
X193600000Y-119629000D01*
X193040000Y-114046000D02*
X193040000Y-119069000D01*
X45366000Y-138033000D02*
X45366000Y-140159000D01*
X183682000Y-85336500D02*
X193600000Y-95254700D01*
X60802000Y-122597000D02*
X45366000Y-138033000D01*
X71620000Y-122597000D02*
X71620000Y-124700000D01*
X71620000Y-124700000D02*
X56161000Y-140159000D01*
X194202000Y-121475000D02*
X193171000Y-122506000D01*
X194202000Y-94078400D02*
X194202000Y-121475000D01*
X185460000Y-85336500D02*
X194202000Y-94078400D01*
X82288000Y-122597000D02*
X82288000Y-124852000D01*
X187111000Y-85336500D02*
X194604000Y-92829100D01*
X82288000Y-124852000D02*
X66981000Y-140159000D01*
X190059000Y-123598000D02*
X189003000Y-122542000D01*
X194604000Y-122615000D02*
X193620000Y-123598000D01*
X194604000Y-92829100D02*
X194604000Y-122615000D01*
X193620000Y-123598000D02*
X190059000Y-123598000D01*
X88788000Y-122597000D02*
X82288000Y-122597000D01*
X124944000Y-142274000D02*
X144921000Y-142274000D01*
X195015000Y-91335300D02*
X195015000Y-134147000D01*
X144921000Y-142274000D02*
X148410000Y-145763000D01*
X148410000Y-145763000D02*
X176899000Y-145763000D01*
X195015000Y-134147000D02*
X189003000Y-140159000D01*
X106350000Y-138244000D02*
X120915000Y-138244000D01*
X189003000Y-140159000D02*
X182503000Y-140159000D01*
X92956000Y-124850000D02*
X106350000Y-138244000D01*
X92956000Y-124850000D02*
X92956000Y-122542000D01*
X189016000Y-85336500D02*
X195015000Y-91335300D01*
X120915000Y-138244000D02*
X124944000Y-142274000D01*
X77647000Y-140159000D02*
X92956000Y-124850000D01*
X176899000Y-145763000D02*
X182503000Y-140159000D01*
X196255000Y-90670800D02*
X196255000Y-137035000D01*
X196255000Y-137035000D02*
X196264000Y-137043000D01*
X196264000Y-137043000D02*
X196604000Y-137043000D01*
X193184000Y-140123000D02*
X196264000Y-137043000D01*
X196604000Y-137043000D02*
X199684000Y-140123000D01*
X190921000Y-85336500D02*
X196255000Y-90670800D01*
X101660000Y-142860000D02*
X137014000Y-142860000D01*
X198000000Y-90510500D02*
X192826000Y-85336500D01*
X198000000Y-135748000D02*
X198000000Y-90510500D01*
X137014000Y-142860000D02*
X140337000Y-146182000D01*
X201842000Y-139590000D02*
X198000000Y-135748000D01*
X203374000Y-141122000D02*
X201842000Y-139590000D01*
X217537000Y-141122000D02*
X203374000Y-141122000D01*
X140337000Y-146182000D02*
X195249000Y-146182000D01*
X195249000Y-146182000D02*
X201842000Y-139590000D01*
X98960000Y-140159000D02*
X101660000Y-142860000D01*
X218663000Y-139996000D02*
X217537000Y-141122000D01*
X103116000Y-140159000D02*
X109616000Y-140159000D01*
X202067000Y-106581000D02*
X218028000Y-122542000D01*
X196848000Y-84538100D02*
X202067000Y-89757500D01*
X194689000Y-85336500D02*
X195487000Y-84538100D01*
X195487000Y-84538100D02*
X196848000Y-84538100D01*
X202067000Y-89757500D02*
X202067000Y-106581000D01*
X194604000Y-85336500D02*
X194689000Y-85336500D01*
X203841000Y-140032000D02*
X210341000Y-140032000D01*
X201088000Y-90042700D02*
X201088000Y-137279000D01*
X196382000Y-85336500D02*
X201088000Y-90042700D01*
X201088000Y-137279000D02*
X203841000Y-140032000D01*
X128356000Y-107544000D02*
X128356000Y-101644000D01*
X113990000Y-136734000D02*
X113990000Y-121910000D01*
X94981500Y-123006000D02*
X93372200Y-121397000D01*
X136309500Y-93690500D02*
X147309500Y-93690500D01*
X124427000Y-140159000D02*
X130927000Y-140159000D01*
X191553241Y-61537741D02*
X195493000Y-65477500D01*
X113990000Y-136734000D02*
X107574000Y-136734000D01*
X113990000Y-136734000D02*
X121002000Y-136734000D01*
X94981500Y-124141000D02*
X94981500Y-123006000D01*
X121002000Y-136734000D02*
X124427000Y-140159000D01*
X179462259Y-61537741D02*
X191553241Y-61537741D01*
X113990000Y-121910000D02*
X128356000Y-107544000D01*
X53262000Y-121397000D02*
X52062000Y-122597000D01*
X147309500Y-93690500D02*
X179462259Y-61537741D01*
X128356000Y-101644000D02*
X136309500Y-93690500D01*
X93372200Y-121397000D02*
X53262000Y-121397000D01*
X107574000Y-136734000D02*
X94981500Y-124141000D01*
X192570000Y-68737200D02*
X192570000Y-66496000D01*
X157598000Y-140606000D02*
X156490000Y-141714000D01*
X156490000Y-141714000D02*
X143150000Y-141714000D01*
X157598000Y-116211000D02*
X157598000Y-140606000D01*
X171000000Y-107904041D02*
X165904959Y-107904041D01*
X192570000Y-66496000D02*
X193588000Y-65477500D01*
X143150000Y-141714000D02*
X141595000Y-140159000D01*
X165904959Y-107904041D02*
X157598000Y-116211000D01*
X130976000Y-121484000D02*
X132029000Y-122537000D01*
X115481000Y-122597000D02*
X116594000Y-121484000D01*
X189407000Y-63201700D02*
X178644000Y-63201700D01*
X191683000Y-65477500D02*
X189407000Y-63201700D01*
X137538000Y-131938000D02*
X137538000Y-132786000D01*
X144911000Y-140159000D02*
X145763000Y-140159000D01*
X147000000Y-107766000D02*
X134295000Y-120471000D01*
X134295000Y-120471000D02*
X134095000Y-120471000D01*
X137538000Y-132786000D02*
X144911000Y-140159000D01*
X147000000Y-94845700D02*
X147000000Y-107766000D01*
X116594000Y-121484000D02*
X130976000Y-121484000D01*
X178644000Y-63201700D02*
X147000000Y-94845700D01*
X132029000Y-122537000D02*
X132029000Y-126429000D01*
X132029000Y-126429000D02*
X137538000Y-131938000D01*
X134095000Y-120471000D02*
X132029000Y-122537000D01*
X156103000Y-139806000D02*
X154624000Y-141284000D01*
X155000000Y-138703000D02*
X155000000Y-90141000D01*
X188866000Y-66390000D02*
X189778000Y-65477500D01*
X156103000Y-139806000D02*
X156456000Y-140159000D01*
X154624000Y-141284000D02*
X145296000Y-141284000D01*
X178751000Y-66390000D02*
X188866000Y-66390000D01*
X137137000Y-132337000D02*
X127397000Y-122597000D01*
X145296000Y-141284000D02*
X137137000Y-133125000D01*
X127397000Y-122597000D02*
X126126000Y-122597000D01*
X156103000Y-139806000D02*
X155000000Y-138703000D01*
X137137000Y-133125000D02*
X137137000Y-132337000D01*
X155000000Y-90141000D02*
X178751000Y-66390000D01*
X154000000Y-90570500D02*
X154000000Y-105391000D01*
X179093000Y-65477500D02*
X154000000Y-90570500D01*
X154000000Y-105391000D02*
X136794000Y-122597000D01*
X167122000Y-140159000D02*
X158359000Y-131396000D01*
X158359000Y-131396000D02*
X158359000Y-122597000D01*
X188000000Y-65477500D02*
X179093000Y-65477500D01*
M02*
