G04 #@! TF.GenerationSoftware,KiCad,Pcbnew,8.0.8*
G04 #@! TF.CreationDate,2025-03-23T17:18:30+09:00*
G04 #@! TF.ProjectId,panelBoard,70616e65-6c42-46f6-9172-642e6b696361,rev?*
G04 #@! TF.SameCoordinates,Original*
G04 #@! TF.FileFunction,Legend,Bot*
G04 #@! TF.FilePolarity,Positive*
%FSLAX46Y46*%
G04 Gerber Fmt 4.6, Leading zero omitted, Abs format (unit mm)*
G04 Created by KiCad (PCBNEW 8.0.8) date 2025-03-23 17:18:30*
%MOMM*%
%LPD*%
G01*
G04 APERTURE LIST*
G04 Aperture macros list*
%AMRoundRect*
0 Rectangle with rounded corners*
0 $1 Rounding radius*
0 $2 $3 $4 $5 $6 $7 $8 $9 X,Y pos of 4 corners*
0 Add a 4 corners polygon primitive as box body*
4,1,4,$2,$3,$4,$5,$6,$7,$8,$9,$2,$3,0*
0 Add four circle primitives for the rounded corners*
1,1,$1+$1,$2,$3*
1,1,$1+$1,$4,$5*
1,1,$1+$1,$6,$7*
1,1,$1+$1,$8,$9*
0 Add four rect primitives between the rounded corners*
20,1,$1+$1,$2,$3,$4,$5,0*
20,1,$1+$1,$4,$5,$6,$7,0*
20,1,$1+$1,$6,$7,$8,$9,0*
20,1,$1+$1,$8,$9,$2,$3,0*%
G04 Aperture macros list end*
%ADD10C,0.200000*%
%ADD11C,0.120000*%
%ADD12C,1.575000*%
%ADD13RoundRect,0.250000X-0.600000X-0.725000X0.600000X-0.725000X0.600000X0.725000X-0.600000X0.725000X0*%
%ADD14O,1.700000X1.950000*%
%ADD15RoundRect,0.237500X0.237500X-0.250000X0.237500X0.250000X-0.237500X0.250000X-0.237500X-0.250000X0*%
%ADD16RoundRect,0.237500X-0.237500X0.250000X-0.237500X-0.250000X0.237500X-0.250000X0.237500X0.250000X0*%
%ADD17RoundRect,0.225000X-0.375000X0.225000X-0.375000X-0.225000X0.375000X-0.225000X0.375000X0.225000X0*%
%ADD18RoundRect,0.237500X0.237500X-0.300000X0.237500X0.300000X-0.237500X0.300000X-0.237500X-0.300000X0*%
%ADD19R,0.650000X2.100000*%
G04 APERTURE END LIST*
D10*
G36*
X124954773Y-150947686D02*
G01*
X125542909Y-150947686D01*
X125611297Y-150930101D01*
X125672167Y-150850722D01*
X125682128Y-150779647D01*
X125661329Y-150683973D01*
X125628883Y-150641406D01*
X125542909Y-150608677D01*
X123979755Y-150608677D01*
X123903551Y-150632124D01*
X123847983Y-150716624D01*
X123840537Y-150778182D01*
X123862481Y-150877329D01*
X123896713Y-150918866D01*
X123979755Y-150947686D01*
X124567892Y-150947686D01*
X124567892Y-152524030D01*
X124600462Y-152619483D01*
X124617229Y-152636381D01*
X124709080Y-152679578D01*
X124761821Y-152684253D01*
X124860210Y-152666757D01*
X124932791Y-152604630D01*
X124954773Y-152524030D01*
X124954773Y-150947686D01*
G37*
G36*
X123289269Y-150609782D02*
G01*
X123392272Y-150631050D01*
X123476673Y-150688500D01*
X123525537Y-150781305D01*
X123539141Y-150891510D01*
X123539141Y-152368203D01*
X123538031Y-152402629D01*
X123516653Y-152505632D01*
X123458905Y-152590033D01*
X123365619Y-152638897D01*
X123254842Y-152652501D01*
X122677941Y-152652501D01*
X122565999Y-152648860D01*
X122461717Y-152637938D01*
X122365094Y-152619735D01*
X122262048Y-152589294D01*
X122169427Y-152548942D01*
X122133344Y-152528979D01*
X122039063Y-152461809D01*
X121965733Y-152383716D01*
X121913354Y-152294701D01*
X121881927Y-152194763D01*
X121871451Y-152083904D01*
X121875159Y-152046779D01*
X122285687Y-152046779D01*
X122293961Y-152125211D01*
X122337398Y-152219161D01*
X122418066Y-152284672D01*
X122424658Y-152287887D01*
X122517520Y-152318513D01*
X122614320Y-152332805D01*
X122716531Y-152336939D01*
X123089734Y-152336939D01*
X123162030Y-152267086D01*
X123162030Y-151736591D01*
X122744863Y-151736591D01*
X122652149Y-151740686D01*
X122551950Y-151756817D01*
X122459099Y-151788370D01*
X122448430Y-151793443D01*
X122360369Y-151854828D01*
X122302622Y-151944722D01*
X122285687Y-152046779D01*
X121875159Y-152046779D01*
X121883699Y-151961274D01*
X121920443Y-151855031D01*
X121981682Y-151765174D01*
X122067418Y-151691703D01*
X122153643Y-151644725D01*
X122255546Y-151608233D01*
X122373126Y-151582229D01*
X122347731Y-151576634D01*
X122232848Y-151540172D01*
X122138121Y-151489565D01*
X122063548Y-151424815D01*
X122000665Y-151328444D01*
X121970433Y-151232576D01*
X121963890Y-151161154D01*
X122352609Y-151161154D01*
X122364395Y-151237825D01*
X122416773Y-151322982D01*
X122501598Y-151383904D01*
X122549058Y-151404651D01*
X122647494Y-151429661D01*
X122750237Y-151437149D01*
X123162030Y-151437149D01*
X123162030Y-150958433D01*
X123103412Y-150902745D01*
X122742421Y-150902745D01*
X122687924Y-150904274D01*
X122590471Y-150916501D01*
X122496224Y-150946221D01*
X122433393Y-150984384D01*
X122372805Y-151061091D01*
X122352609Y-151161154D01*
X121963890Y-151161154D01*
X121960355Y-151122564D01*
X121970402Y-151019862D01*
X122007518Y-150913630D01*
X122071982Y-150822031D01*
X122149004Y-150755164D01*
X122246120Y-150699047D01*
X122320469Y-150668335D01*
X122417801Y-150640536D01*
X122526541Y-150621385D01*
X122628825Y-150611854D01*
X122739490Y-150608677D01*
X123254842Y-150608677D01*
X123289269Y-150609782D01*
G37*
G36*
X121386873Y-151502606D02*
G01*
X120442142Y-151502606D01*
X120354703Y-151536800D01*
X120310739Y-151626651D01*
X120307808Y-151665272D01*
X120330374Y-151763572D01*
X120379127Y-151811817D01*
X120442142Y-151828426D01*
X121386873Y-151828426D01*
X121475778Y-151792766D01*
X121520657Y-151703099D01*
X121523649Y-151664295D01*
X121502005Y-151568025D01*
X121446957Y-151516284D01*
X121386873Y-151502606D01*
G37*
G36*
X119165240Y-150560806D02*
G01*
X119066116Y-150565082D01*
X118955506Y-150580880D01*
X118850320Y-150608318D01*
X118750556Y-150647398D01*
X118682616Y-150682438D01*
X118594139Y-150741515D01*
X118519092Y-150818022D01*
X118481173Y-150913735D01*
X118480383Y-150930101D01*
X118512631Y-151025827D01*
X118529232Y-151044895D01*
X118616864Y-151095585D01*
X118663565Y-151101071D01*
X118756711Y-151070987D01*
X118807180Y-151031217D01*
X118889551Y-150964753D01*
X118976929Y-150917278D01*
X119081214Y-150886568D01*
X119166706Y-150879298D01*
X119268474Y-150885763D01*
X119370587Y-150910073D01*
X119423649Y-150934009D01*
X119501120Y-151000366D01*
X119535982Y-151096365D01*
X119536978Y-151118656D01*
X119511332Y-151217697D01*
X119440707Y-151294354D01*
X119434396Y-151298907D01*
X119347132Y-151344405D01*
X119255908Y-151379698D01*
X119154398Y-151413836D01*
X119069497Y-151440080D01*
X118958221Y-151474555D01*
X118858561Y-151508983D01*
X118754302Y-151550233D01*
X118653807Y-151598272D01*
X118566833Y-151653059D01*
X118558053Y-151659898D01*
X118478682Y-151736147D01*
X118418805Y-151821278D01*
X118378424Y-151915291D01*
X118357537Y-152018187D01*
X118354354Y-152080973D01*
X118362820Y-152189194D01*
X118388220Y-152288175D01*
X118430552Y-152377917D01*
X118489817Y-152458420D01*
X118566015Y-152529683D01*
X118595177Y-152551385D01*
X118681262Y-152603013D01*
X118776482Y-152643960D01*
X118880839Y-152674226D01*
X118994331Y-152693809D01*
X119095888Y-152701969D01*
X119159867Y-152703304D01*
X119260412Y-152699428D01*
X119376091Y-152684544D01*
X119486344Y-152658498D01*
X119591170Y-152621289D01*
X119690569Y-152572918D01*
X119738234Y-152544546D01*
X119818582Y-152488418D01*
X119899854Y-152414488D01*
X119955959Y-152332559D01*
X119974661Y-152251943D01*
X119945115Y-152158711D01*
X119936071Y-152146919D01*
X119853775Y-152087904D01*
X119800760Y-152079996D01*
X119705284Y-152108046D01*
X119692805Y-152116632D01*
X119634187Y-152172808D01*
X119554554Y-152241536D01*
X119470628Y-152296044D01*
X119367288Y-152341665D01*
X119258104Y-152367932D01*
X119159867Y-152375041D01*
X119054499Y-152368506D01*
X118954022Y-152346220D01*
X118869706Y-152308119D01*
X118791903Y-152240579D01*
X118752473Y-152146385D01*
X118749539Y-152107351D01*
X118770258Y-152008022D01*
X118832415Y-151925946D01*
X118875080Y-151893883D01*
X118968571Y-151848316D01*
X119063948Y-151811680D01*
X119169091Y-151775516D01*
X119256587Y-151747337D01*
X119350888Y-151716475D01*
X119453470Y-151678969D01*
X119544511Y-151640947D01*
X119636140Y-151595937D01*
X119721625Y-151543639D01*
X119795667Y-151478677D01*
X119858017Y-151388750D01*
X119893090Y-151296339D01*
X119909976Y-151191119D01*
X119911646Y-151142103D01*
X119901999Y-151037232D01*
X119873056Y-150939993D01*
X119824818Y-150850386D01*
X119757285Y-150768412D01*
X119673960Y-150697858D01*
X119577858Y-150641902D01*
X119468979Y-150600543D01*
X119368487Y-150577227D01*
X119259121Y-150564049D01*
X119165240Y-150560806D01*
G37*
G36*
X117574731Y-151762480D02*
G01*
X117574731Y-152270994D01*
X117523928Y-152321796D01*
X116546468Y-152321796D01*
X116455965Y-152358929D01*
X116453656Y-152361364D01*
X116412440Y-152450207D01*
X116409692Y-152487393D01*
X116432722Y-152586947D01*
X116482477Y-152636381D01*
X116546468Y-152652501D01*
X117686594Y-152652501D01*
X117792612Y-152639481D01*
X117881891Y-152592717D01*
X117937158Y-152511941D01*
X117957618Y-152413363D01*
X117958681Y-152380415D01*
X117958681Y-150880764D01*
X117945661Y-150774746D01*
X117898896Y-150685467D01*
X117818120Y-150630200D01*
X117719542Y-150609740D01*
X117686594Y-150608677D01*
X116588967Y-150608677D01*
X116502993Y-150641406D01*
X116456209Y-150727886D01*
X116452191Y-150771343D01*
X116475066Y-150866552D01*
X116524487Y-150914958D01*
X116588967Y-150931566D01*
X117523928Y-150931566D01*
X117574731Y-150984811D01*
X117574731Y-151443988D01*
X116709134Y-151443988D01*
X116630000Y-151474274D01*
X116583746Y-151564766D01*
X116580662Y-151605188D01*
X116603911Y-151701336D01*
X116646608Y-151744895D01*
X116709134Y-151762480D01*
X117574731Y-151762480D01*
G37*
G36*
X115245635Y-150562008D02*
G01*
X115351056Y-150571625D01*
X115451135Y-150590859D01*
X115545870Y-150619710D01*
X115656777Y-150669298D01*
X115759335Y-150733913D01*
X115835371Y-150796424D01*
X115906064Y-150868551D01*
X115967888Y-150945610D01*
X116021468Y-151027798D01*
X116066806Y-151115115D01*
X116103900Y-151207561D01*
X116132752Y-151305136D01*
X116153360Y-151407840D01*
X116165724Y-151515673D01*
X116169846Y-151628635D01*
X116169567Y-151658046D01*
X116164205Y-151758727D01*
X116152016Y-151855903D01*
X116129729Y-151962668D01*
X116098527Y-152064853D01*
X116085241Y-152100228D01*
X116039817Y-152200744D01*
X115986048Y-152292844D01*
X115923932Y-152376530D01*
X115853469Y-152451800D01*
X115774661Y-152518656D01*
X115712005Y-152561933D01*
X115612497Y-152616029D01*
X115506360Y-152657142D01*
X115393595Y-152685272D01*
X115294559Y-152698796D01*
X115190921Y-152703304D01*
X115152080Y-152702603D01*
X115039154Y-152692099D01*
X114931621Y-152668990D01*
X114829479Y-152633275D01*
X114732731Y-152584955D01*
X114641374Y-152524030D01*
X114552726Y-152600726D01*
X114473625Y-152661553D01*
X114383011Y-152717974D01*
X114278918Y-152749710D01*
X114233561Y-152743318D01*
X114151912Y-152684253D01*
X114137469Y-152662998D01*
X114109413Y-152566528D01*
X114134082Y-152482020D01*
X114208087Y-152412166D01*
X114236740Y-152393894D01*
X114320795Y-152336828D01*
X114400551Y-152275390D01*
X114378073Y-152242862D01*
X114328222Y-152156883D01*
X114287436Y-152064250D01*
X114255713Y-151964962D01*
X114233054Y-151859019D01*
X114219458Y-151746422D01*
X114214926Y-151627170D01*
X114214986Y-151624727D01*
X114624766Y-151624727D01*
X114624858Y-151639453D01*
X114630658Y-151739705D01*
X114648335Y-151848210D01*
X114677797Y-151950242D01*
X114719043Y-152045802D01*
X114794759Y-151987489D01*
X114875359Y-151928810D01*
X114960844Y-151869764D01*
X115051214Y-151810352D01*
X115093864Y-151786030D01*
X115190921Y-151760038D01*
X115232059Y-151765100D01*
X115314019Y-151824030D01*
X115343817Y-151916842D01*
X115323745Y-151989785D01*
X115252470Y-152059480D01*
X115172531Y-152111656D01*
X115086382Y-152170312D01*
X115005790Y-152227930D01*
X114921765Y-152291510D01*
X114986586Y-152327875D01*
X115085756Y-152357848D01*
X115189455Y-152366737D01*
X115226330Y-152365707D01*
X115330292Y-152350251D01*
X115424258Y-152316248D01*
X115508230Y-152263697D01*
X115582207Y-152192600D01*
X115646189Y-152102955D01*
X115679260Y-152040205D01*
X115716142Y-151945143D01*
X115742038Y-151841667D01*
X115756948Y-151729775D01*
X115760983Y-151627170D01*
X115759528Y-151563040D01*
X115750634Y-151461787D01*
X115729287Y-151349571D01*
X115696297Y-151247487D01*
X115651664Y-151155535D01*
X115595387Y-151073715D01*
X115554743Y-151028149D01*
X115476675Y-150963027D01*
X115389771Y-150916511D01*
X115294031Y-150888601D01*
X115189455Y-150879298D01*
X115109201Y-150884844D01*
X115005701Y-150911241D01*
X114912532Y-150959376D01*
X114829695Y-151029250D01*
X114766915Y-151106444D01*
X114711527Y-151200868D01*
X114669743Y-151305905D01*
X114644755Y-151404382D01*
X114629763Y-151510656D01*
X114624766Y-151624727D01*
X114214986Y-151624727D01*
X114216785Y-151551581D01*
X114225048Y-151454136D01*
X114244670Y-151337696D01*
X114274621Y-151227219D01*
X114314900Y-151122705D01*
X114365506Y-151024154D01*
X114426441Y-150931566D01*
X114498225Y-150844669D01*
X114576803Y-150769358D01*
X114662173Y-150705634D01*
X114754337Y-150653496D01*
X114853293Y-150612944D01*
X114959043Y-150583978D01*
X115071585Y-150566599D01*
X115190921Y-150560806D01*
X115245635Y-150562008D01*
G37*
G36*
X112153028Y-152165969D02*
G01*
X111626929Y-150704420D01*
X111571537Y-150621273D01*
X111474630Y-150583856D01*
X111450586Y-150582787D01*
X111360216Y-150598907D01*
X111275065Y-150655635D01*
X111236747Y-150746503D01*
X111235652Y-150768412D01*
X111245422Y-150824588D01*
X111886803Y-152484462D01*
X111932019Y-152571871D01*
X112008545Y-152646012D01*
X112107301Y-152681131D01*
X112153028Y-152684253D01*
X112250440Y-152668449D01*
X112337737Y-152613819D01*
X112397462Y-152531288D01*
X112418276Y-152484462D01*
X113059658Y-150824588D01*
X113070404Y-150768412D01*
X113039936Y-150669880D01*
X112962449Y-150607212D01*
X112867347Y-150581726D01*
X112853028Y-150581322D01*
X112756123Y-150604884D01*
X112688610Y-150682421D01*
X112679616Y-150704420D01*
X112153028Y-152165969D01*
G37*
G36*
X110385093Y-151159328D02*
G01*
X110495120Y-151171758D01*
X110596965Y-151197997D01*
X110690628Y-151238047D01*
X110776111Y-151291906D01*
X110853412Y-151359576D01*
X110922533Y-151441057D01*
X110973497Y-151520329D01*
X111019629Y-151620106D01*
X111051409Y-151727737D01*
X111067226Y-151826243D01*
X111072498Y-151930519D01*
X111071458Y-151978099D01*
X111059758Y-152091288D01*
X111035060Y-152196248D01*
X110997362Y-152292979D01*
X110946665Y-152381481D01*
X110882969Y-152461755D01*
X110806273Y-152533799D01*
X110712978Y-152598704D01*
X110610472Y-152647668D01*
X110515281Y-152676948D01*
X110413323Y-152694517D01*
X110304598Y-152700373D01*
X110240987Y-152698728D01*
X110140864Y-152688680D01*
X110030445Y-152664563D01*
X109930640Y-152627291D01*
X109841447Y-152576864D01*
X109762868Y-152513283D01*
X109720038Y-152463789D01*
X109687641Y-152366737D01*
X109689272Y-152342809D01*
X109734047Y-152253408D01*
X109750149Y-152238773D01*
X109844933Y-152202606D01*
X109848248Y-152202647D01*
X109937745Y-152245104D01*
X109994812Y-152296235D01*
X110088334Y-152353096D01*
X110191361Y-152386154D01*
X110290921Y-152395558D01*
X110313389Y-152395121D01*
X110418347Y-152379827D01*
X110510997Y-152342685D01*
X110591339Y-152283695D01*
X110654618Y-152205723D01*
X110694000Y-152112860D01*
X110709064Y-152015516D01*
X109838094Y-152015516D01*
X109787154Y-152011845D01*
X109695945Y-151969110D01*
X109668897Y-151919675D01*
X109656378Y-151820122D01*
X109659049Y-151760671D01*
X109668542Y-151706304D01*
X110017369Y-151706304D01*
X110059867Y-151740498D01*
X110703691Y-151740498D01*
X110701868Y-151730349D01*
X110671147Y-151637460D01*
X110611127Y-151553355D01*
X110532721Y-151493325D01*
X110440764Y-151454124D01*
X110342700Y-151441057D01*
X110244106Y-151452410D01*
X110152623Y-151491126D01*
X110078918Y-151557316D01*
X110043876Y-151608862D01*
X110017369Y-151706304D01*
X109668542Y-151706304D01*
X109676580Y-151660270D01*
X109710474Y-151564497D01*
X109760730Y-151473352D01*
X109827348Y-151386835D01*
X109852873Y-151359151D01*
X109934601Y-151286817D01*
X110024057Y-151230558D01*
X110121241Y-151190372D01*
X110226152Y-151166261D01*
X110338792Y-151158224D01*
X110385093Y-151159328D01*
G37*
G36*
X108948562Y-151874832D02*
G01*
X108948562Y-152532334D01*
X108982050Y-152625499D01*
X108986664Y-152630519D01*
X109075156Y-152679005D01*
X109126371Y-152684253D01*
X109225650Y-152661687D01*
X109278290Y-152612934D01*
X109301249Y-152532334D01*
X109301249Y-151316981D01*
X109267055Y-151223681D01*
X109178720Y-151175997D01*
X109134675Y-151171901D01*
X109035911Y-151196940D01*
X108986664Y-151251036D01*
X108970544Y-151316981D01*
X108970544Y-151460596D01*
X108918154Y-151377867D01*
X108857032Y-151300970D01*
X108830837Y-151274483D01*
X108745629Y-151212402D01*
X108650593Y-151173313D01*
X108545731Y-151157218D01*
X108523579Y-151156758D01*
X108423333Y-151169260D01*
X108327446Y-151211021D01*
X108281290Y-151245662D01*
X108220926Y-151328432D01*
X108208995Y-151392208D01*
X108239288Y-151488806D01*
X108248562Y-151501629D01*
X108329162Y-151561239D01*
X108389246Y-151570994D01*
X108483524Y-151541196D01*
X108576719Y-151503020D01*
X108601249Y-151501629D01*
X108699343Y-151524954D01*
X108779014Y-151583632D01*
X108842727Y-151662354D01*
X108892594Y-151748001D01*
X108939527Y-151851871D01*
X108948562Y-151874832D01*
G37*
G36*
X106977034Y-151570017D02*
G01*
X106879938Y-151585444D01*
X106785804Y-151612663D01*
X106704947Y-151650617D01*
X106620225Y-151711659D01*
X106552295Y-151785485D01*
X106501157Y-151872096D01*
X106492944Y-151890952D01*
X106465295Y-151989973D01*
X106458750Y-152071692D01*
X106467887Y-152184549D01*
X106495295Y-152287549D01*
X106540976Y-152380691D01*
X106604930Y-152463976D01*
X106687156Y-152537404D01*
X106718625Y-152559689D01*
X106815573Y-152614506D01*
X106906375Y-152650776D01*
X107004285Y-152677155D01*
X107109306Y-152693641D01*
X107221436Y-152700235D01*
X107240816Y-152700373D01*
X107340490Y-152696808D01*
X107456904Y-152682328D01*
X107564230Y-152656709D01*
X107662468Y-152619951D01*
X107751619Y-152572054D01*
X107831683Y-152513018D01*
X107875359Y-152472250D01*
X107937870Y-152396687D01*
X107975436Y-152306098D01*
X107977941Y-152276856D01*
X107945947Y-152182265D01*
X107933000Y-152168412D01*
X107844981Y-152122616D01*
X107811367Y-152119563D01*
X107718242Y-152149857D01*
X107707320Y-152159131D01*
X107666287Y-152207002D01*
X107595074Y-152277237D01*
X107511800Y-152330221D01*
X107416464Y-152365954D01*
X107309067Y-152384437D01*
X107242281Y-152387254D01*
X107140492Y-152379519D01*
X107043932Y-152353438D01*
X106981430Y-152321796D01*
X106901056Y-152252274D01*
X106854044Y-152163933D01*
X106840258Y-152067295D01*
X106852210Y-151968171D01*
X106892135Y-151877685D01*
X106925254Y-151836242D01*
X107006709Y-151776524D01*
X107104146Y-151743387D01*
X107111367Y-151741964D01*
X107210278Y-151730880D01*
X107311328Y-151726708D01*
X107376615Y-151725844D01*
X107479238Y-151707719D01*
X107548241Y-151632225D01*
X107556866Y-151572459D01*
X107525989Y-151477893D01*
X107433358Y-151431537D01*
X107369776Y-151426402D01*
X107270180Y-151421298D01*
X107171755Y-151403892D01*
X107084989Y-151374134D01*
X106995602Y-151318540D01*
X106935514Y-151235458D01*
X106915484Y-151129403D01*
X106934091Y-151032698D01*
X106995321Y-150950667D01*
X107012693Y-150936939D01*
X107104469Y-150890190D01*
X107208611Y-150870221D01*
X107253517Y-150868551D01*
X107352288Y-150876990D01*
X107452176Y-150907299D01*
X107538203Y-150959651D01*
X107610369Y-151034046D01*
X107618415Y-151044895D01*
X107698323Y-151105282D01*
X107743956Y-151111817D01*
X107839513Y-151082606D01*
X107854842Y-151070785D01*
X107904802Y-150986122D01*
X107906622Y-150962829D01*
X107877380Y-150866518D01*
X107838722Y-150812376D01*
X107768447Y-150743545D01*
X107684628Y-150683906D01*
X107641374Y-150659480D01*
X107548287Y-150617592D01*
X107450743Y-150587672D01*
X107348741Y-150569720D01*
X107242281Y-150563736D01*
X107137726Y-150568762D01*
X107039482Y-150583839D01*
X106934930Y-150613377D01*
X106838622Y-150656043D01*
X106815833Y-150668761D01*
X106724363Y-150733086D01*
X106651817Y-150808094D01*
X106598196Y-150893783D01*
X106563500Y-150990154D01*
X106547729Y-151097207D01*
X106546678Y-151135265D01*
X106559004Y-151240752D01*
X106595982Y-151334647D01*
X106657613Y-151416950D01*
X106702505Y-151457665D01*
X106786906Y-151512002D01*
X106882573Y-151549714D01*
X106952609Y-151565621D01*
X106977034Y-151570017D01*
G37*
G36*
X104859303Y-150613615D02*
G01*
X104964513Y-150646023D01*
X105047945Y-150720097D01*
X105088741Y-150817320D01*
X105099783Y-150924727D01*
X105099783Y-152529403D01*
X105099629Y-152536835D01*
X105060216Y-152629542D01*
X105008830Y-152664965D01*
X104908785Y-152684253D01*
X104826547Y-152672724D01*
X104743189Y-152614399D01*
X104715833Y-152529403D01*
X104715833Y-151896325D01*
X104328953Y-151896325D01*
X104262804Y-151895102D01*
X104158166Y-151887624D01*
X104041857Y-151869678D01*
X103935645Y-151841943D01*
X103839532Y-151804419D01*
X103753517Y-151757107D01*
X103692265Y-151712189D01*
X103615701Y-151633907D01*
X103557512Y-151542540D01*
X103517698Y-151438086D01*
X103498557Y-151341045D01*
X103492735Y-151244197D01*
X103895666Y-151244197D01*
X103902566Y-151320401D01*
X103938790Y-151417304D01*
X104006064Y-151493325D01*
X104020459Y-151503913D01*
X104112183Y-151549938D01*
X104214002Y-151573847D01*
X104320648Y-151580764D01*
X104715833Y-151580764D01*
X104715833Y-150988719D01*
X104654284Y-150927170D01*
X104306971Y-150927170D01*
X104239321Y-150929858D01*
X104136727Y-150946974D01*
X104044654Y-150983346D01*
X104035488Y-150988569D01*
X103959830Y-151051195D01*
X103910216Y-151141901D01*
X103895666Y-151244197D01*
X103492735Y-151244197D01*
X103492177Y-151234916D01*
X103494663Y-151174347D01*
X103514549Y-151061839D01*
X103554323Y-150960837D01*
X103613983Y-150871341D01*
X103693530Y-150793351D01*
X103775010Y-150737149D01*
X103802775Y-150721592D01*
X103906416Y-150675046D01*
X104003251Y-150644935D01*
X104107470Y-150623858D01*
X104219074Y-150611814D01*
X104317718Y-150608677D01*
X104785687Y-150608677D01*
X104859303Y-150613615D01*
G37*
G36*
X102664163Y-151169856D02*
G01*
X102761639Y-151187327D01*
X102855680Y-151219773D01*
X102920057Y-151251160D01*
X103007993Y-151310154D01*
X103085573Y-151383446D01*
X103145840Y-151460596D01*
X103185103Y-151524595D01*
X103228891Y-151619965D01*
X103259635Y-151722066D01*
X103277337Y-151830899D01*
X103282128Y-151929542D01*
X103278860Y-152016311D01*
X103266312Y-152114954D01*
X103239778Y-152222485D01*
X103200435Y-152321881D01*
X103148283Y-152413143D01*
X103085412Y-152494342D01*
X103014646Y-152561778D01*
X102919305Y-152624535D01*
X102812596Y-152667474D01*
X102714987Y-152688118D01*
X102609483Y-152695000D01*
X102589185Y-152694762D01*
X102475292Y-152683359D01*
X102374931Y-152654851D01*
X102288102Y-152609239D01*
X102203906Y-152534406D01*
X102146399Y-152451734D01*
X102131256Y-152546011D01*
X102126421Y-152570717D01*
X102072626Y-152657793D01*
X101977871Y-152684253D01*
X101923422Y-152677670D01*
X101841584Y-152616842D01*
X101821067Y-152535265D01*
X101821067Y-151843080D01*
X102167892Y-151843080D01*
X102167892Y-151952501D01*
X102173181Y-152028911D01*
X102200951Y-152133995D01*
X102252522Y-152227641D01*
X102318346Y-152301280D01*
X102357587Y-152333320D01*
X102447911Y-152379998D01*
X102545491Y-152395558D01*
X102617276Y-152389169D01*
X102711815Y-152355630D01*
X102790589Y-152293342D01*
X102847376Y-152213841D01*
X102884921Y-152126299D01*
X102906881Y-152027558D01*
X102913321Y-151928077D01*
X102912501Y-151892216D01*
X102900201Y-151791744D01*
X102869222Y-151692615D01*
X102820020Y-151606653D01*
X102813391Y-151597818D01*
X102739851Y-151524888D01*
X102643750Y-151477063D01*
X102542561Y-151463039D01*
X102452925Y-151474249D01*
X102362371Y-151512476D01*
X102280244Y-151577833D01*
X102220996Y-151652642D01*
X102181168Y-151743416D01*
X102167892Y-151843080D01*
X101821067Y-151843080D01*
X101821067Y-151314050D01*
X101834745Y-151250059D01*
X101888132Y-151190102D01*
X101984710Y-151166528D01*
X102085031Y-151191107D01*
X102131256Y-151278391D01*
X102139560Y-151367295D01*
X102202683Y-151299066D01*
X102289567Y-151237306D01*
X102390710Y-151194761D01*
X102488753Y-151173586D01*
X102597271Y-151166528D01*
X102664163Y-151169856D01*
G37*
G36*
X101043398Y-151420540D02*
G01*
X100975455Y-151342383D01*
X100897837Y-151278576D01*
X100858750Y-151253967D01*
X100764059Y-151207856D01*
X100666218Y-151178824D01*
X100565230Y-151166869D01*
X100544654Y-151166528D01*
X100441094Y-151174499D01*
X100334474Y-151203128D01*
X100240372Y-151252580D01*
X100158787Y-151322853D01*
X100149469Y-151333101D01*
X100091980Y-151415411D01*
X100050917Y-151515795D01*
X100028461Y-151618457D01*
X100019221Y-151717467D01*
X100018066Y-151770785D01*
X100018066Y-152532334D01*
X100050795Y-152625146D01*
X100137489Y-152677269D01*
X100197341Y-152684253D01*
X100293943Y-152663298D01*
X100351702Y-152610003D01*
X100373684Y-152532334D01*
X100373684Y-151810352D01*
X100380977Y-151712498D01*
X100409442Y-151613285D01*
X100411786Y-151608119D01*
X100468939Y-151528045D01*
X100555660Y-151483004D01*
X100613042Y-151476716D01*
X100712848Y-151494841D01*
X100800775Y-151542773D01*
X100877626Y-151611527D01*
X100894410Y-151630101D01*
X100955316Y-151713524D01*
X100992926Y-151806374D01*
X101001388Y-151877274D01*
X101001388Y-152532334D01*
X101034876Y-152625499D01*
X101039490Y-152630519D01*
X101127542Y-152679005D01*
X101178709Y-152684253D01*
X101276454Y-152663298D01*
X101334535Y-152610003D01*
X101356517Y-152532334D01*
X101356517Y-151322355D01*
X101330628Y-151230519D01*
X101245751Y-151177497D01*
X101212903Y-151174832D01*
X101117319Y-151204885D01*
X101065956Y-151295045D01*
X101062449Y-151311608D01*
X101043398Y-151420540D01*
G37*
G36*
X98985791Y-151159328D02*
G01*
X99095817Y-151171758D01*
X99197662Y-151197997D01*
X99291326Y-151238047D01*
X99376809Y-151291906D01*
X99454110Y-151359576D01*
X99523230Y-151441057D01*
X99574195Y-151520329D01*
X99620327Y-151620106D01*
X99652107Y-151727737D01*
X99667923Y-151826243D01*
X99673196Y-151930519D01*
X99672156Y-151978099D01*
X99660456Y-152091288D01*
X99635758Y-152196248D01*
X99598060Y-152292979D01*
X99547363Y-152381481D01*
X99483666Y-152461755D01*
X99406971Y-152533799D01*
X99313675Y-152598704D01*
X99211170Y-152647668D01*
X99115978Y-152676948D01*
X99014020Y-152694517D01*
X98905296Y-152700373D01*
X98841685Y-152698728D01*
X98741562Y-152688680D01*
X98631143Y-152664563D01*
X98531337Y-152627291D01*
X98442145Y-152576864D01*
X98363565Y-152513283D01*
X98320736Y-152463789D01*
X98288339Y-152366737D01*
X98289970Y-152342809D01*
X98334745Y-152253408D01*
X98350847Y-152238773D01*
X98445631Y-152202606D01*
X98448945Y-152202647D01*
X98538443Y-152245104D01*
X98595510Y-152296235D01*
X98689032Y-152353096D01*
X98792059Y-152386154D01*
X98891618Y-152395558D01*
X98914087Y-152395121D01*
X99019045Y-152379827D01*
X99111695Y-152342685D01*
X99192037Y-152283695D01*
X99255316Y-152205723D01*
X99294697Y-152112860D01*
X99309762Y-152015516D01*
X98438792Y-152015516D01*
X98387852Y-152011845D01*
X98296643Y-151969110D01*
X98269595Y-151919675D01*
X98257076Y-151820122D01*
X98259747Y-151760671D01*
X98269240Y-151706304D01*
X98618066Y-151706304D01*
X98660565Y-151740498D01*
X99304389Y-151740498D01*
X99302566Y-151730349D01*
X99271844Y-151637460D01*
X99211825Y-151553355D01*
X99133419Y-151493325D01*
X99041461Y-151454124D01*
X98943398Y-151441057D01*
X98844804Y-151452410D01*
X98753321Y-151491126D01*
X98679616Y-151557316D01*
X98644574Y-151608862D01*
X98618066Y-151706304D01*
X98269240Y-151706304D01*
X98277278Y-151660270D01*
X98311172Y-151564497D01*
X98361427Y-151473352D01*
X98428046Y-151386835D01*
X98453571Y-151359151D01*
X98535299Y-151286817D01*
X98624755Y-151230558D01*
X98721938Y-151190372D01*
X98826850Y-151166261D01*
X98939490Y-151158224D01*
X98985791Y-151159328D01*
G37*
G36*
X97496015Y-150728845D02*
G01*
X97496015Y-152529403D01*
X97530209Y-152623681D01*
X97616472Y-152677095D01*
X97676266Y-152684253D01*
X97773525Y-152663022D01*
X97832093Y-152609026D01*
X97854075Y-152529403D01*
X97854075Y-150728845D01*
X97820596Y-150636721D01*
X97783244Y-150607212D01*
X97687001Y-150578644D01*
X97676266Y-150578391D01*
X97579912Y-150600098D01*
X97552191Y-150616981D01*
X97498703Y-150699282D01*
X97496015Y-150728845D01*
G37*
G36*
X95838327Y-150609782D02*
G01*
X95941330Y-150631050D01*
X96025731Y-150688500D01*
X96074595Y-150781305D01*
X96088199Y-150891510D01*
X96088199Y-152368203D01*
X96087089Y-152402629D01*
X96065711Y-152505632D01*
X96007962Y-152590033D01*
X95914677Y-152638897D01*
X95803900Y-152652501D01*
X95226999Y-152652501D01*
X95115057Y-152648860D01*
X95010775Y-152637938D01*
X94914152Y-152619735D01*
X94811106Y-152589294D01*
X94718485Y-152548942D01*
X94682402Y-152528979D01*
X94588121Y-152461809D01*
X94514790Y-152383716D01*
X94462412Y-152294701D01*
X94430985Y-152194763D01*
X94420509Y-152083904D01*
X94424217Y-152046779D01*
X94834745Y-152046779D01*
X94843019Y-152125211D01*
X94886456Y-152219161D01*
X94967124Y-152284672D01*
X94973716Y-152287887D01*
X95066578Y-152318513D01*
X95163378Y-152332805D01*
X95265589Y-152336939D01*
X95638792Y-152336939D01*
X95711088Y-152267086D01*
X95711088Y-151736591D01*
X95293921Y-151736591D01*
X95201207Y-151740686D01*
X95101008Y-151756817D01*
X95008157Y-151788370D01*
X94997488Y-151793443D01*
X94909427Y-151854828D01*
X94851680Y-151944722D01*
X94834745Y-152046779D01*
X94424217Y-152046779D01*
X94432757Y-151961274D01*
X94469501Y-151855031D01*
X94530740Y-151765174D01*
X94616476Y-151691703D01*
X94702701Y-151644725D01*
X94804604Y-151608233D01*
X94922184Y-151582229D01*
X94896789Y-151576634D01*
X94781906Y-151540172D01*
X94687179Y-151489565D01*
X94612606Y-151424815D01*
X94549723Y-151328444D01*
X94519491Y-151232576D01*
X94512948Y-151161154D01*
X94901667Y-151161154D01*
X94913453Y-151237825D01*
X94965831Y-151322982D01*
X95050655Y-151383904D01*
X95098116Y-151404651D01*
X95196552Y-151429661D01*
X95299295Y-151437149D01*
X95711088Y-151437149D01*
X95711088Y-150958433D01*
X95652470Y-150902745D01*
X95291479Y-150902745D01*
X95236982Y-150904274D01*
X95139529Y-150916501D01*
X95045282Y-150946221D01*
X94982451Y-150984384D01*
X94921863Y-151061091D01*
X94901667Y-151161154D01*
X94512948Y-151161154D01*
X94509413Y-151122564D01*
X94519460Y-151019862D01*
X94556576Y-150913630D01*
X94621040Y-150822031D01*
X94698062Y-150755164D01*
X94795177Y-150699047D01*
X94869526Y-150668335D01*
X94966859Y-150640536D01*
X95075599Y-150621385D01*
X95177883Y-150611854D01*
X95288548Y-150608677D01*
X95803900Y-150608677D01*
X95838327Y-150609782D01*
G37*
G36*
X93464653Y-151159031D02*
G01*
X93575490Y-151171138D01*
X93678427Y-151197774D01*
X93773464Y-151238938D01*
X93860601Y-151294631D01*
X93939839Y-151364853D01*
X93988497Y-151419983D01*
X94049319Y-151510664D01*
X94095544Y-151610928D01*
X94127171Y-151720774D01*
X94142377Y-151819633D01*
X94147445Y-151925146D01*
X94146762Y-151965360D01*
X94136516Y-152080576D01*
X94113973Y-152187652D01*
X94079134Y-152286587D01*
X94031999Y-152377383D01*
X93972568Y-152460038D01*
X93920467Y-152516366D01*
X93833788Y-152586777D01*
X93736873Y-152640289D01*
X93629723Y-152676903D01*
X93532613Y-152694505D01*
X93428394Y-152700373D01*
X93379943Y-152699194D01*
X93265492Y-152685927D01*
X93160582Y-152657920D01*
X93065213Y-152615173D01*
X92979385Y-152557685D01*
X92903097Y-152485457D01*
X92836350Y-152398489D01*
X92799339Y-152335062D01*
X92758062Y-152239853D01*
X92729081Y-152137164D01*
X92712395Y-152026995D01*
X92707878Y-151926612D01*
X92707962Y-151923681D01*
X93068869Y-151923681D01*
X93069195Y-151948017D01*
X93078739Y-152050825D01*
X93104843Y-152152186D01*
X93152400Y-152248035D01*
X93158553Y-152257111D01*
X93228582Y-152332025D01*
X93323465Y-152381151D01*
X93425952Y-152395558D01*
X93504417Y-152387967D01*
X93605177Y-152348116D01*
X93685613Y-152274108D01*
X93740048Y-152179647D01*
X93758321Y-152129999D01*
X93780348Y-152028369D01*
X93786943Y-151923681D01*
X93786617Y-151899882D01*
X93777073Y-151799212D01*
X93750969Y-151699683D01*
X93703412Y-151605188D01*
X93697111Y-151595931D01*
X93626128Y-151519529D01*
X93531297Y-151469427D01*
X93429860Y-151454734D01*
X93419154Y-151454875D01*
X93319911Y-151471704D01*
X93227163Y-151522615D01*
X93157773Y-151598349D01*
X93141885Y-151622624D01*
X93100211Y-151712841D01*
X93075901Y-151817369D01*
X93068869Y-151923681D01*
X92707962Y-151923681D01*
X92709720Y-151862396D01*
X92720976Y-151760618D01*
X92747989Y-151647142D01*
X92789738Y-151543112D01*
X92846221Y-151448527D01*
X92917438Y-151363387D01*
X92942781Y-151338543D01*
X93023959Y-151273628D01*
X93112865Y-151223139D01*
X93209499Y-151187075D01*
X93313862Y-151165436D01*
X93425952Y-151158224D01*
X93464653Y-151159031D01*
G37*
G36*
X91866675Y-151169856D02*
G01*
X91964151Y-151187327D01*
X92058192Y-151219773D01*
X92122569Y-151251160D01*
X92210505Y-151310154D01*
X92288086Y-151383446D01*
X92348353Y-151460596D01*
X92387615Y-151524595D01*
X92431403Y-151619965D01*
X92462147Y-151722066D01*
X92479849Y-151830899D01*
X92484640Y-151929542D01*
X92481372Y-152016311D01*
X92468824Y-152114954D01*
X92442291Y-152222485D01*
X92402948Y-152321881D01*
X92350795Y-152413143D01*
X92287924Y-152494342D01*
X92217158Y-152561778D01*
X92121817Y-152624535D01*
X92015108Y-152667474D01*
X91917499Y-152688118D01*
X91811995Y-152695000D01*
X91791697Y-152694762D01*
X91677804Y-152683359D01*
X91577443Y-152654851D01*
X91490615Y-152609239D01*
X91406419Y-152534406D01*
X91348911Y-152451734D01*
X91333768Y-152546011D01*
X91328934Y-152570717D01*
X91275138Y-152657793D01*
X91180383Y-152684253D01*
X91125934Y-152677670D01*
X91044096Y-152616842D01*
X91023579Y-152535265D01*
X91023579Y-151843080D01*
X91370404Y-151843080D01*
X91370404Y-151952501D01*
X91375694Y-152028911D01*
X91403463Y-152133995D01*
X91455034Y-152227641D01*
X91520858Y-152301280D01*
X91560099Y-152333320D01*
X91650423Y-152379998D01*
X91748004Y-152395558D01*
X91819788Y-152389169D01*
X91914327Y-152355630D01*
X91993101Y-152293342D01*
X92049888Y-152213841D01*
X92087433Y-152126299D01*
X92109393Y-152027558D01*
X92115833Y-151928077D01*
X92115013Y-151892216D01*
X92102713Y-151791744D01*
X92071734Y-151692615D01*
X92022533Y-151606653D01*
X92015903Y-151597818D01*
X91942363Y-151524888D01*
X91846262Y-151477063D01*
X91745073Y-151463039D01*
X91655438Y-151474249D01*
X91564883Y-151512476D01*
X91482756Y-151577833D01*
X91423508Y-151652642D01*
X91383680Y-151743416D01*
X91370404Y-151843080D01*
X91023579Y-151843080D01*
X91023579Y-151314050D01*
X91037257Y-151250059D01*
X91090645Y-151190102D01*
X91187222Y-151166528D01*
X91287543Y-151191107D01*
X91333768Y-151278391D01*
X91342072Y-151367295D01*
X91405195Y-151299066D01*
X91492080Y-151237306D01*
X91593222Y-151194761D01*
X91691265Y-151173586D01*
X91799783Y-151166528D01*
X91866675Y-151169856D01*
G37*
G36*
X90206343Y-151874832D02*
G01*
X90206343Y-152532334D01*
X90239831Y-152625499D01*
X90244445Y-152630519D01*
X90332937Y-152679005D01*
X90384152Y-152684253D01*
X90483431Y-152661687D01*
X90536071Y-152612934D01*
X90559030Y-152532334D01*
X90559030Y-151316981D01*
X90524836Y-151223681D01*
X90436501Y-151175997D01*
X90392456Y-151171901D01*
X90293692Y-151196940D01*
X90244445Y-151251036D01*
X90228325Y-151316981D01*
X90228325Y-151460596D01*
X90175935Y-151377867D01*
X90114813Y-151300970D01*
X90088618Y-151274483D01*
X90003409Y-151212402D01*
X89908374Y-151173313D01*
X89803512Y-151157218D01*
X89781360Y-151156758D01*
X89681114Y-151169260D01*
X89585227Y-151211021D01*
X89539071Y-151245662D01*
X89478707Y-151328432D01*
X89466775Y-151392208D01*
X89497069Y-151488806D01*
X89506343Y-151501629D01*
X89586943Y-151561239D01*
X89647027Y-151570994D01*
X89741304Y-151541196D01*
X89834500Y-151503020D01*
X89859030Y-151501629D01*
X89957124Y-151524954D01*
X90036795Y-151583632D01*
X90100508Y-151662354D01*
X90150375Y-151748001D01*
X90197308Y-151851871D01*
X90206343Y-151874832D01*
G37*
G36*
X88127862Y-150585375D02*
G01*
X88212833Y-150637498D01*
X88246050Y-150728845D01*
X88246050Y-151351175D01*
X88295008Y-151297981D01*
X88374689Y-151238656D01*
X88467367Y-151197002D01*
X88573041Y-151173019D01*
X88673963Y-151166528D01*
X88756174Y-151170886D01*
X88871332Y-151193767D01*
X88976702Y-151236259D01*
X89072283Y-151298364D01*
X89144457Y-151365099D01*
X89209832Y-151445453D01*
X89258971Y-151524485D01*
X89303450Y-151623374D01*
X89334091Y-151729462D01*
X89349340Y-151826125D01*
X89354424Y-151928077D01*
X89351156Y-152015267D01*
X89338608Y-152114323D01*
X89312074Y-152222205D01*
X89272731Y-152321811D01*
X89220579Y-152413143D01*
X89170936Y-152479203D01*
X89087085Y-152561778D01*
X88991967Y-152624535D01*
X88885584Y-152667474D01*
X88788326Y-152688118D01*
X88683244Y-152695000D01*
X88649035Y-152694192D01*
X88551353Y-152682085D01*
X88451519Y-152651593D01*
X88360844Y-152603164D01*
X88337893Y-152586861D01*
X88267301Y-152519221D01*
X88211856Y-152435125D01*
X88189874Y-152552850D01*
X88186430Y-152568762D01*
X88135661Y-152655380D01*
X88040886Y-152684253D01*
X88009039Y-152681822D01*
X87923161Y-152633450D01*
X87921327Y-152631107D01*
X87893363Y-152535265D01*
X87893363Y-151843080D01*
X88243119Y-151843080D01*
X88243119Y-151952501D01*
X88246530Y-152014101D01*
X88269860Y-152116926D01*
X88315292Y-152209396D01*
X88382826Y-152291510D01*
X88429535Y-152332052D01*
X88516135Y-152378386D01*
X88619253Y-152395558D01*
X88691587Y-152389015D01*
X88786950Y-152354664D01*
X88866549Y-152290869D01*
X88924068Y-152209445D01*
X88960501Y-152123964D01*
X88981810Y-152026709D01*
X88988060Y-151928077D01*
X88987257Y-151892740D01*
X88975214Y-151793530D01*
X88944884Y-151695260D01*
X88896713Y-151609584D01*
X88883247Y-151591839D01*
X88807617Y-151520283D01*
X88718154Y-151477350D01*
X88614856Y-151463039D01*
X88517159Y-151477083D01*
X88426301Y-151519214D01*
X88364048Y-151566023D01*
X88294818Y-151648279D01*
X88254568Y-151744986D01*
X88243119Y-151843080D01*
X87893363Y-151843080D01*
X87893363Y-150728845D01*
X87914856Y-150652641D01*
X87972401Y-150599346D01*
X88068241Y-150578391D01*
X88127862Y-150585375D01*
G37*
G36*
X86119183Y-152313492D02*
G01*
X85175917Y-152313492D01*
X85083979Y-152349250D01*
X85081639Y-152351594D01*
X85036205Y-152440016D01*
X85032302Y-152482997D01*
X85055332Y-152582533D01*
X85105087Y-152633450D01*
X85175917Y-152652501D01*
X86340956Y-152652501D01*
X86447924Y-152637045D01*
X86531121Y-152576175D01*
X86561375Y-152480768D01*
X86562240Y-152457107D01*
X86545135Y-152357937D01*
X86499404Y-152264013D01*
X86440607Y-152185020D01*
X86372761Y-152110213D01*
X86301005Y-152038534D01*
X86215415Y-151958363D01*
X86136982Y-151888113D01*
X86049696Y-151812428D01*
X85953556Y-151731309D01*
X85875640Y-151666903D01*
X85848562Y-151644755D01*
X85767024Y-151576411D01*
X85687691Y-151506260D01*
X85616104Y-151437485D01*
X85568171Y-151385369D01*
X85512271Y-151304292D01*
X85476122Y-151210705D01*
X85469986Y-151154316D01*
X85489576Y-151051042D01*
X85548347Y-150968246D01*
X85588688Y-150936939D01*
X85681653Y-150893813D01*
X85780815Y-150877384D01*
X85803621Y-150876856D01*
X85904300Y-150887515D01*
X86005279Y-150925800D01*
X86091237Y-150991928D01*
X86154129Y-151072632D01*
X86169986Y-151099605D01*
X86238007Y-151175443D01*
X86329720Y-151200722D01*
X86424487Y-151174832D01*
X86493752Y-151099651D01*
X86505087Y-151038056D01*
X86485914Y-150942069D01*
X86437681Y-150855275D01*
X86428394Y-150842662D01*
X86361487Y-150767511D01*
X86279467Y-150702527D01*
X86216392Y-150664853D01*
X86119061Y-150619332D01*
X86017090Y-150586817D01*
X85910478Y-150567308D01*
X85799225Y-150560806D01*
X85692749Y-150566509D01*
X85592164Y-150583619D01*
X85497470Y-150612137D01*
X85396460Y-150658695D01*
X85360565Y-150679996D01*
X85267102Y-150749199D01*
X85192976Y-150827847D01*
X85138187Y-150915940D01*
X85102736Y-151013479D01*
X85086622Y-151120463D01*
X85085547Y-151158224D01*
X85094951Y-151262912D01*
X85123161Y-151362044D01*
X85170177Y-151455620D01*
X85236001Y-151543639D01*
X85310609Y-151617808D01*
X85384407Y-151682784D01*
X85461801Y-151747035D01*
X85552248Y-151819186D01*
X85602365Y-151858224D01*
X85681927Y-151920368D01*
X85775369Y-151995945D01*
X85862133Y-152069184D01*
X85942218Y-152140086D01*
X86015624Y-152208651D01*
X86094896Y-152287843D01*
X86119183Y-152313492D01*
G37*
G36*
X83859326Y-150562002D02*
G01*
X83970915Y-150575462D01*
X84074870Y-150603876D01*
X84171194Y-150647246D01*
X84259884Y-150705571D01*
X84340942Y-150778851D01*
X84414368Y-150867086D01*
X84427141Y-150885215D01*
X84484922Y-150981186D01*
X84532566Y-151086029D01*
X84570073Y-151199745D01*
X84592780Y-151297106D01*
X84608999Y-151400146D01*
X84618731Y-151508865D01*
X84621974Y-151623262D01*
X84619112Y-151734362D01*
X84610525Y-151840027D01*
X84596214Y-151940259D01*
X84570276Y-152057905D01*
X84535392Y-152167061D01*
X84491564Y-152267725D01*
X84438792Y-152359898D01*
X84395713Y-152420745D01*
X84316854Y-152508856D01*
X84229170Y-152580342D01*
X84132661Y-152635204D01*
X84027326Y-152673441D01*
X83913166Y-152695053D01*
X83815484Y-152700373D01*
X83754149Y-152698175D01*
X83651367Y-152683749D01*
X83554381Y-152655860D01*
X83463193Y-152614506D01*
X83377801Y-152559689D01*
X83335066Y-152525058D01*
X83264333Y-152454369D01*
X83201561Y-152372937D01*
X83146748Y-152280764D01*
X83138273Y-152263971D01*
X83093072Y-152158069D01*
X83062804Y-152063075D01*
X83039263Y-151961950D01*
X83022447Y-151854695D01*
X83012358Y-151741311D01*
X83009187Y-151628635D01*
X83392944Y-151628635D01*
X83394194Y-151700051D01*
X83401829Y-151811634D01*
X83416405Y-151913916D01*
X83443058Y-152024374D01*
X83479705Y-152121438D01*
X83535094Y-152217749D01*
X83549344Y-152236796D01*
X83626776Y-152313599D01*
X83714513Y-152359681D01*
X83812554Y-152375041D01*
X83869531Y-152370645D01*
X83972174Y-152335474D01*
X84049615Y-152275848D01*
X84115508Y-152189295D01*
X84162798Y-152093674D01*
X84180429Y-152045397D01*
X84208639Y-151940556D01*
X84225609Y-151839754D01*
X84235380Y-151730490D01*
X84238025Y-151630101D01*
X84237544Y-151585763D01*
X84232134Y-151480195D01*
X84217709Y-151363462D01*
X84194628Y-151257583D01*
X84162891Y-151162557D01*
X84114926Y-151065411D01*
X84085174Y-151021219D01*
X84010531Y-150943329D01*
X83915085Y-150891771D01*
X83817927Y-150876856D01*
X83761708Y-150881292D01*
X83660004Y-150916784D01*
X83580706Y-150979071D01*
X83519951Y-151058572D01*
X83497253Y-151098445D01*
X83452975Y-151202399D01*
X83424696Y-151303670D01*
X83405347Y-151416173D01*
X83396045Y-151518504D01*
X83392944Y-151628635D01*
X83009187Y-151628635D01*
X83008995Y-151621796D01*
X83011872Y-151514818D01*
X83020505Y-151412725D01*
X83034892Y-151315516D01*
X83060969Y-151200874D01*
X83096039Y-151093866D01*
X83140100Y-150994489D01*
X83193154Y-150902745D01*
X83221734Y-150861339D01*
X83299095Y-150769509D01*
X83384900Y-150694376D01*
X83479148Y-150635939D01*
X83581839Y-150594198D01*
X83692975Y-150569154D01*
X83812554Y-150560806D01*
X83859326Y-150562002D01*
G37*
G36*
X82156587Y-152313492D02*
G01*
X81213321Y-152313492D01*
X81121383Y-152349250D01*
X81119043Y-152351594D01*
X81073609Y-152440016D01*
X81069706Y-152482997D01*
X81092736Y-152582533D01*
X81142491Y-152633450D01*
X81213321Y-152652501D01*
X82378360Y-152652501D01*
X82485328Y-152637045D01*
X82568526Y-152576175D01*
X82598779Y-152480768D01*
X82599644Y-152457107D01*
X82582539Y-152357937D01*
X82536808Y-152264013D01*
X82478011Y-152185020D01*
X82410165Y-152110213D01*
X82338409Y-152038534D01*
X82252819Y-151958363D01*
X82174386Y-151888113D01*
X82087100Y-151812428D01*
X81990960Y-151731309D01*
X81913045Y-151666903D01*
X81885966Y-151644755D01*
X81804428Y-151576411D01*
X81725095Y-151506260D01*
X81653508Y-151437485D01*
X81605575Y-151385369D01*
X81549675Y-151304292D01*
X81513526Y-151210705D01*
X81507390Y-151154316D01*
X81526980Y-151051042D01*
X81585751Y-150968246D01*
X81626092Y-150936939D01*
X81719057Y-150893813D01*
X81818219Y-150877384D01*
X81841025Y-150876856D01*
X81941704Y-150887515D01*
X82042683Y-150925800D01*
X82128641Y-150991928D01*
X82191533Y-151072632D01*
X82207390Y-151099605D01*
X82275411Y-151175443D01*
X82367124Y-151200722D01*
X82461891Y-151174832D01*
X82531156Y-151099651D01*
X82542491Y-151038056D01*
X82523318Y-150942069D01*
X82475085Y-150855275D01*
X82465799Y-150842662D01*
X82398891Y-150767511D01*
X82316871Y-150702527D01*
X82253796Y-150664853D01*
X82156465Y-150619332D01*
X82054494Y-150586817D01*
X81947882Y-150567308D01*
X81836629Y-150560806D01*
X81730153Y-150566509D01*
X81629568Y-150583619D01*
X81534874Y-150612137D01*
X81433864Y-150658695D01*
X81397969Y-150679996D01*
X81304506Y-150749199D01*
X81230380Y-150827847D01*
X81175591Y-150915940D01*
X81140140Y-151013479D01*
X81124026Y-151120463D01*
X81122951Y-151158224D01*
X81132355Y-151262912D01*
X81160565Y-151362044D01*
X81207581Y-151455620D01*
X81273405Y-151543639D01*
X81348014Y-151617808D01*
X81421811Y-151682784D01*
X81499206Y-151747035D01*
X81589652Y-151819186D01*
X81639769Y-151858224D01*
X81719331Y-151920368D01*
X81812773Y-151995945D01*
X81899537Y-152069184D01*
X81979622Y-152140086D01*
X82053028Y-152208651D01*
X82132300Y-152287843D01*
X82156587Y-152313492D01*
G37*
G36*
X80205575Y-151441057D02*
G01*
X80125513Y-151384146D01*
X80025313Y-151336221D01*
X79930023Y-151309263D01*
X79827628Y-151296283D01*
X79781570Y-151295000D01*
X79668860Y-151302853D01*
X79563676Y-151326415D01*
X79466020Y-151365685D01*
X79375890Y-151420662D01*
X79327766Y-151459131D01*
X79252896Y-151535890D01*
X79193517Y-151621819D01*
X79149628Y-151716919D01*
X79121229Y-151821190D01*
X79108320Y-151934631D01*
X79107459Y-151974483D01*
X79113673Y-152081940D01*
X79132313Y-152182051D01*
X79163380Y-152274816D01*
X79217064Y-152376436D01*
X79288642Y-152467478D01*
X79361960Y-152535265D01*
X79443247Y-152592372D01*
X79531404Y-152637663D01*
X79626430Y-152671140D01*
X79728325Y-152692801D01*
X79837089Y-152702647D01*
X79874870Y-152703304D01*
X79975843Y-152698582D01*
X80073169Y-152684417D01*
X80179934Y-152656665D01*
X80281935Y-152616578D01*
X80306692Y-152604630D01*
X80399957Y-152550851D01*
X80478497Y-152484867D01*
X80534596Y-152395604D01*
X80546050Y-152328635D01*
X80514751Y-152234895D01*
X80502086Y-152219214D01*
X80414764Y-152168517D01*
X80385826Y-152165969D01*
X80291331Y-152200833D01*
X80248073Y-152239731D01*
X80165800Y-152308446D01*
X80068458Y-152354672D01*
X79969280Y-152376883D01*
X79887083Y-152381880D01*
X79781424Y-152370520D01*
X79689211Y-152336440D01*
X79602524Y-152271925D01*
X79572498Y-152238265D01*
X79518322Y-152148025D01*
X79490626Y-152052874D01*
X79483593Y-151966179D01*
X79492562Y-151866917D01*
X79523144Y-151773156D01*
X79575429Y-151695558D01*
X79655766Y-151631870D01*
X79755730Y-151594619D01*
X79863635Y-151583695D01*
X79966851Y-151595905D01*
X80062726Y-151632535D01*
X80151258Y-151693587D01*
X80197271Y-151738056D01*
X80276629Y-151795329D01*
X80346259Y-151808886D01*
X80449299Y-151789423D01*
X80522572Y-151714685D01*
X80541653Y-151609584D01*
X80541653Y-151586137D01*
X80510390Y-150841196D01*
X80490484Y-150739469D01*
X80432181Y-150659768D01*
X80335856Y-150616852D01*
X80250516Y-150608677D01*
X79331674Y-150608677D01*
X79270614Y-150625286D01*
X79211168Y-150706069D01*
X79203203Y-150769877D01*
X79223819Y-150866108D01*
X79251074Y-150902745D01*
X79331674Y-150934009D01*
X80104459Y-150934009D01*
X80185860Y-150988105D01*
X80186524Y-150995558D01*
X80205575Y-151441057D01*
G37*
G36*
X77617090Y-150709794D02*
G01*
X78510041Y-153224030D01*
X78578723Y-153297052D01*
X78607250Y-153300722D01*
X78660495Y-153287044D01*
X78717592Y-153206996D01*
X78717648Y-153203513D01*
X78708367Y-153157107D01*
X77815415Y-150642871D01*
X77746733Y-150569849D01*
X77718206Y-150566179D01*
X77664961Y-150579856D01*
X77607864Y-150661457D01*
X77607808Y-150664853D01*
X77617090Y-150709794D01*
G37*
G36*
X76231744Y-151570017D02*
G01*
X76134648Y-151585444D01*
X76040515Y-151612663D01*
X75959658Y-151650617D01*
X75874936Y-151711659D01*
X75807006Y-151785485D01*
X75755867Y-151872096D01*
X75747655Y-151890952D01*
X75720006Y-151989973D01*
X75713461Y-152071692D01*
X75722597Y-152184549D01*
X75750006Y-152287549D01*
X75795687Y-152380691D01*
X75859640Y-152463976D01*
X75941866Y-152537404D01*
X75973335Y-152559689D01*
X76070284Y-152614506D01*
X76161085Y-152650776D01*
X76258996Y-152677155D01*
X76364016Y-152693641D01*
X76476147Y-152700235D01*
X76495526Y-152700373D01*
X76595200Y-152696808D01*
X76711614Y-152682328D01*
X76818940Y-152656709D01*
X76917179Y-152619951D01*
X77006330Y-152572054D01*
X77086393Y-152513018D01*
X77130069Y-152472250D01*
X77192580Y-152396687D01*
X77230147Y-152306098D01*
X77232651Y-152276856D01*
X77200657Y-152182265D01*
X77187711Y-152168412D01*
X77099692Y-152122616D01*
X77066078Y-152119563D01*
X76972952Y-152149857D01*
X76962030Y-152159131D01*
X76920997Y-152207002D01*
X76849784Y-152277237D01*
X76766510Y-152330221D01*
X76671174Y-152365954D01*
X76563777Y-152384437D01*
X76496992Y-152387254D01*
X76395203Y-152379519D01*
X76298643Y-152353438D01*
X76236140Y-152321796D01*
X76155766Y-152252274D01*
X76108754Y-152163933D01*
X76094968Y-152067295D01*
X76106921Y-151968171D01*
X76146846Y-151877685D01*
X76179965Y-151836242D01*
X76261420Y-151776524D01*
X76358857Y-151743387D01*
X76366078Y-151741964D01*
X76464989Y-151730880D01*
X76566038Y-151726708D01*
X76631325Y-151725844D01*
X76733949Y-151707719D01*
X76802951Y-151632225D01*
X76811577Y-151572459D01*
X76780699Y-151477893D01*
X76688068Y-151431537D01*
X76624487Y-151426402D01*
X76524891Y-151421298D01*
X76426465Y-151403892D01*
X76339699Y-151374134D01*
X76250312Y-151318540D01*
X76190224Y-151235458D01*
X76170195Y-151129403D01*
X76188801Y-151032698D01*
X76250031Y-150950667D01*
X76267404Y-150936939D01*
X76359180Y-150890190D01*
X76463321Y-150870221D01*
X76508227Y-150868551D01*
X76606999Y-150876990D01*
X76706887Y-150907299D01*
X76792913Y-150959651D01*
X76865080Y-151034046D01*
X76873126Y-151044895D01*
X76953033Y-151105282D01*
X76998667Y-151111817D01*
X77094223Y-151082606D01*
X77109553Y-151070785D01*
X77159512Y-150986122D01*
X77161332Y-150962829D01*
X77132090Y-150866518D01*
X77093433Y-150812376D01*
X77023158Y-150743545D01*
X76939339Y-150683906D01*
X76896085Y-150659480D01*
X76802998Y-150617592D01*
X76705453Y-150587672D01*
X76603451Y-150569720D01*
X76496992Y-150563736D01*
X76392436Y-150568762D01*
X76294192Y-150583839D01*
X76189641Y-150613377D01*
X76093333Y-150656043D01*
X76070544Y-150668761D01*
X75979073Y-150733086D01*
X75906527Y-150808094D01*
X75852906Y-150893783D01*
X75818210Y-150990154D01*
X75802440Y-151097207D01*
X75801388Y-151135265D01*
X75813714Y-151240752D01*
X75850693Y-151334647D01*
X75912324Y-151416950D01*
X75957215Y-151457665D01*
X76041616Y-151512002D01*
X76137283Y-151549714D01*
X76207320Y-151565621D01*
X76231744Y-151570017D01*
G37*
G36*
X74236769Y-150709794D02*
G01*
X75129720Y-153224030D01*
X75198402Y-153297052D01*
X75226929Y-153300722D01*
X75280174Y-153287044D01*
X75337271Y-153206996D01*
X75337327Y-153203513D01*
X75328046Y-153157107D01*
X74435094Y-150642871D01*
X74366412Y-150569849D01*
X74337885Y-150566179D01*
X74284640Y-150579856D01*
X74227543Y-150661457D01*
X74227487Y-150664853D01*
X74236769Y-150709794D01*
G37*
G36*
X73414647Y-152313492D02*
G01*
X72471381Y-152313492D01*
X72379443Y-152349250D01*
X72377103Y-152351594D01*
X72331669Y-152440016D01*
X72327766Y-152482997D01*
X72350796Y-152582533D01*
X72400551Y-152633450D01*
X72471381Y-152652501D01*
X73636420Y-152652501D01*
X73743388Y-152637045D01*
X73826586Y-152576175D01*
X73856839Y-152480768D01*
X73857704Y-152457107D01*
X73840599Y-152357937D01*
X73794868Y-152264013D01*
X73736071Y-152185020D01*
X73668225Y-152110213D01*
X73596469Y-152038534D01*
X73510879Y-151958363D01*
X73432446Y-151888113D01*
X73345160Y-151812428D01*
X73249020Y-151731309D01*
X73171105Y-151666903D01*
X73144026Y-151644755D01*
X73062488Y-151576411D01*
X72983155Y-151506260D01*
X72911568Y-151437485D01*
X72863635Y-151385369D01*
X72807735Y-151304292D01*
X72771586Y-151210705D01*
X72765450Y-151154316D01*
X72785040Y-151051042D01*
X72843811Y-150968246D01*
X72884152Y-150936939D01*
X72977117Y-150893813D01*
X73076279Y-150877384D01*
X73099085Y-150876856D01*
X73199764Y-150887515D01*
X73300743Y-150925800D01*
X73386701Y-150991928D01*
X73449593Y-151072632D01*
X73465450Y-151099605D01*
X73533471Y-151175443D01*
X73625184Y-151200722D01*
X73719951Y-151174832D01*
X73789216Y-151099651D01*
X73800551Y-151038056D01*
X73781378Y-150942069D01*
X73733145Y-150855275D01*
X73723859Y-150842662D01*
X73656951Y-150767511D01*
X73574931Y-150702527D01*
X73511856Y-150664853D01*
X73414525Y-150619332D01*
X73312554Y-150586817D01*
X73205942Y-150567308D01*
X73094689Y-150560806D01*
X72988213Y-150566509D01*
X72887628Y-150583619D01*
X72792934Y-150612137D01*
X72691924Y-150658695D01*
X72656029Y-150679996D01*
X72562566Y-150749199D01*
X72488440Y-150827847D01*
X72433651Y-150915940D01*
X72398200Y-151013479D01*
X72382086Y-151120463D01*
X72381011Y-151158224D01*
X72390415Y-151262912D01*
X72418625Y-151362044D01*
X72465642Y-151455620D01*
X72531465Y-151543639D01*
X72606074Y-151617808D01*
X72679871Y-151682784D01*
X72757266Y-151747035D01*
X72847712Y-151819186D01*
X72897829Y-151858224D01*
X72977391Y-151920368D01*
X73070833Y-151995945D01*
X73157597Y-152069184D01*
X73237682Y-152140086D01*
X73311088Y-152208651D01*
X73390360Y-152287843D01*
X73414647Y-152313492D01*
G37*
G36*
X70870125Y-151570017D02*
G01*
X70773029Y-151585444D01*
X70678896Y-151612663D01*
X70598039Y-151650617D01*
X70513317Y-151711659D01*
X70445387Y-151785485D01*
X70394248Y-151872096D01*
X70386036Y-151890952D01*
X70358387Y-151989973D01*
X70351842Y-152071692D01*
X70360978Y-152184549D01*
X70388387Y-152287549D01*
X70434068Y-152380691D01*
X70498021Y-152463976D01*
X70580247Y-152537404D01*
X70611716Y-152559689D01*
X70708665Y-152614506D01*
X70799466Y-152650776D01*
X70897377Y-152677155D01*
X71002397Y-152693641D01*
X71114528Y-152700235D01*
X71133907Y-152700373D01*
X71233581Y-152696808D01*
X71349995Y-152682328D01*
X71457321Y-152656709D01*
X71555560Y-152619951D01*
X71644711Y-152572054D01*
X71724774Y-152513018D01*
X71768450Y-152472250D01*
X71830961Y-152396687D01*
X71868528Y-152306098D01*
X71871032Y-152276856D01*
X71839038Y-152182265D01*
X71826092Y-152168412D01*
X71738073Y-152122616D01*
X71704459Y-152119563D01*
X71611333Y-152149857D01*
X71600411Y-152159131D01*
X71559378Y-152207002D01*
X71488165Y-152277237D01*
X71404891Y-152330221D01*
X71309555Y-152365954D01*
X71202158Y-152384437D01*
X71135373Y-152387254D01*
X71033584Y-152379519D01*
X70937024Y-152353438D01*
X70874521Y-152321796D01*
X70794147Y-152252274D01*
X70747135Y-152163933D01*
X70733349Y-152067295D01*
X70745302Y-151968171D01*
X70785227Y-151877685D01*
X70818346Y-151836242D01*
X70899801Y-151776524D01*
X70997238Y-151743387D01*
X71004459Y-151741964D01*
X71103370Y-151730880D01*
X71204419Y-151726708D01*
X71269706Y-151725844D01*
X71372330Y-151707719D01*
X71441332Y-151632225D01*
X71449958Y-151572459D01*
X71419080Y-151477893D01*
X71326449Y-151431537D01*
X71262868Y-151426402D01*
X71163272Y-151421298D01*
X71064846Y-151403892D01*
X70978080Y-151374134D01*
X70888693Y-151318540D01*
X70828605Y-151235458D01*
X70808576Y-151129403D01*
X70827182Y-151032698D01*
X70888412Y-150950667D01*
X70905785Y-150936939D01*
X70997561Y-150890190D01*
X71101702Y-150870221D01*
X71146608Y-150868551D01*
X71245380Y-150876990D01*
X71345268Y-150907299D01*
X71431295Y-150959651D01*
X71503461Y-151034046D01*
X71511507Y-151044895D01*
X71591414Y-151105282D01*
X71637048Y-151111817D01*
X71732604Y-151082606D01*
X71747934Y-151070785D01*
X71797893Y-150986122D01*
X71799713Y-150962829D01*
X71770472Y-150866518D01*
X71731814Y-150812376D01*
X71661539Y-150743545D01*
X71577720Y-150683906D01*
X71534466Y-150659480D01*
X71441379Y-150617592D01*
X71343834Y-150587672D01*
X71241832Y-150569720D01*
X71135373Y-150563736D01*
X71030817Y-150568762D01*
X70932573Y-150583839D01*
X70828022Y-150613377D01*
X70731714Y-150656043D01*
X70708925Y-150668761D01*
X70617454Y-150733086D01*
X70544908Y-150808094D01*
X70491287Y-150893783D01*
X70456591Y-150990154D01*
X70440821Y-151097207D01*
X70439769Y-151135265D01*
X70452095Y-151240752D01*
X70489074Y-151334647D01*
X70550705Y-151416950D01*
X70595596Y-151457665D01*
X70679997Y-151512002D01*
X70775664Y-151549714D01*
X70845701Y-151565621D01*
X70870125Y-151570017D01*
G37*
D11*
X189255500Y-66135276D02*
X189255500Y-66644724D01*
X190300500Y-66135276D02*
X190300500Y-66644724D01*
X193065500Y-66135276D02*
X193065500Y-66644724D01*
X194110500Y-66135276D02*
X194110500Y-66644724D01*
X195859500Y-84678724D02*
X195859500Y-84169276D01*
X196904500Y-84678724D02*
X196904500Y-84169276D01*
X191160500Y-66135276D02*
X191160500Y-66644724D01*
X192205500Y-66135276D02*
X192205500Y-66644724D01*
X183190000Y-67278000D02*
X183190000Y-63268000D01*
X185190000Y-63268000D02*
X183190000Y-63268000D01*
X185190000Y-67278000D02*
X185190000Y-63268000D01*
X188493500Y-84678724D02*
X188493500Y-84169276D01*
X189538500Y-84678724D02*
X189538500Y-84169276D01*
X192303500Y-84678724D02*
X192303500Y-84169276D01*
X193348500Y-84678724D02*
X193348500Y-84169276D01*
X190398500Y-84678724D02*
X190398500Y-84169276D01*
X191443500Y-84678724D02*
X191443500Y-84169276D01*
X194081500Y-84678724D02*
X194081500Y-84169276D01*
X195126500Y-84678724D02*
X195126500Y-84169276D01*
X183159500Y-84678724D02*
X183159500Y-84169276D01*
X184204500Y-84678724D02*
X184204500Y-84169276D01*
X194970500Y-66135276D02*
X194970500Y-66644724D01*
X196015500Y-66135276D02*
X196015500Y-66644724D01*
X174917000Y-75641733D02*
X174917000Y-75934267D01*
X175937000Y-75641733D02*
X175937000Y-75934267D01*
X180650000Y-67278000D02*
X180650000Y-63268000D01*
X182650000Y-63268000D02*
X180650000Y-63268000D01*
X182650000Y-67278000D02*
X182650000Y-63268000D01*
X184937500Y-84678724D02*
X184937500Y-84169276D01*
X185982500Y-84678724D02*
X185982500Y-84169276D01*
D10*
X177524000Y-72411000D02*
X195428000Y-72411000D01*
X177524000Y-78911000D02*
X177524000Y-72411000D01*
X177546000Y-72061000D02*
X177546000Y-69961000D01*
X195428000Y-72411000D02*
X195428000Y-78911000D01*
X195428000Y-78911000D02*
X177524000Y-78911000D01*
D11*
X178237000Y-67278000D02*
X178237000Y-63268000D01*
X180237000Y-63268000D02*
X178237000Y-63268000D01*
X180237000Y-67278000D02*
X180237000Y-63268000D01*
X186588500Y-84678724D02*
X186588500Y-84169276D01*
X187633500Y-84678724D02*
X187633500Y-84169276D01*
X187477500Y-66135276D02*
X187477500Y-66644724D01*
X188522500Y-66135276D02*
X188522500Y-66644724D01*
%LPC*%
D12*
X98960000Y-144659000D03*
X92460000Y-144659000D03*
X98960000Y-140159000D03*
X92460000Y-140159000D03*
X120259000Y-144659000D03*
X113759000Y-144659000D03*
X120259000Y-140159000D03*
X113759000Y-140159000D03*
X162956000Y-144659000D03*
X156456000Y-144659000D03*
X162956000Y-140159000D03*
X156456000Y-140159000D03*
X189003000Y-144659000D03*
X182503000Y-144659000D03*
X189003000Y-140159000D03*
X182503000Y-140159000D03*
X126126000Y-127097000D03*
X119626000Y-127097000D03*
X126126000Y-122597000D03*
X119626000Y-122597000D03*
X225163000Y-144496000D03*
X218663000Y-144496000D03*
X225163000Y-139996000D03*
X218663000Y-139996000D03*
X130927000Y-144659000D03*
X124427000Y-144659000D03*
X130927000Y-140159000D03*
X124427000Y-140159000D03*
X210341000Y-144532000D03*
X203841000Y-144532000D03*
X210341000Y-140032000D03*
X203841000Y-140032000D03*
X88788000Y-127097000D03*
X82288000Y-127097000D03*
X88788000Y-122597000D03*
X82288000Y-122597000D03*
X224528000Y-127042000D03*
X218028000Y-127042000D03*
X224528000Y-122542000D03*
X218028000Y-122542000D03*
X78120000Y-127097000D03*
X71620000Y-127097000D03*
X78120000Y-122597000D03*
X71620000Y-122597000D03*
X199684000Y-144623000D03*
X193184000Y-144623000D03*
X199684000Y-140123000D03*
X193184000Y-140123000D03*
X199671000Y-127006000D03*
X193171000Y-127006000D03*
X199671000Y-122506000D03*
X193171000Y-122506000D03*
X99456000Y-127042000D03*
X92956000Y-127042000D03*
X99456000Y-122542000D03*
X92956000Y-122542000D03*
X66981000Y-144659000D03*
X60481000Y-144659000D03*
X66981000Y-140159000D03*
X60481000Y-140159000D03*
X152263000Y-144659000D03*
X145763000Y-144659000D03*
X152263000Y-140159000D03*
X145763000Y-140159000D03*
X136794000Y-127097000D03*
X130294000Y-127097000D03*
X136794000Y-122597000D03*
X130294000Y-122597000D03*
X67302000Y-127097000D03*
X60802000Y-127097000D03*
X67302000Y-122597000D03*
X60802000Y-122597000D03*
X141595000Y-144659000D03*
X135095000Y-144659000D03*
X141595000Y-140159000D03*
X135095000Y-140159000D03*
X45366000Y-144659000D03*
X38866000Y-144659000D03*
X45366000Y-140159000D03*
X38866000Y-140159000D03*
X88292000Y-144659000D03*
X81792000Y-144659000D03*
X88292000Y-140159000D03*
X81792000Y-140159000D03*
D13*
X75971000Y-86021000D03*
D14*
X78471000Y-86021000D03*
X80971000Y-86021000D03*
X83471000Y-86021000D03*
X85971000Y-86021000D03*
D12*
X77647000Y-144659000D03*
X71147000Y-144659000D03*
X77647000Y-140159000D03*
X71147000Y-140159000D03*
X210304000Y-126970000D03*
X203804000Y-126970000D03*
X210304000Y-122470000D03*
X203804000Y-122470000D03*
X52062000Y-127097000D03*
X45562000Y-127097000D03*
X52062000Y-122597000D03*
X45562000Y-122597000D03*
X115481000Y-127097000D03*
X108981000Y-127097000D03*
X115481000Y-122597000D03*
X108981000Y-122597000D03*
X173622000Y-144659000D03*
X167122000Y-144659000D03*
X173622000Y-140159000D03*
X167122000Y-140159000D03*
X189003000Y-127042000D03*
X182503000Y-127042000D03*
X189003000Y-122542000D03*
X182503000Y-122542000D03*
X56161000Y-144659000D03*
X49661000Y-144659000D03*
X56161000Y-140159000D03*
X49661000Y-140159000D03*
X109616000Y-144659000D03*
X103116000Y-144659000D03*
X109616000Y-140159000D03*
X103116000Y-140159000D03*
D15*
X189778000Y-67302500D03*
X189778000Y-65477500D03*
X193588000Y-67302500D03*
X193588000Y-65477500D03*
D16*
X196382000Y-83511500D03*
X196382000Y-85336500D03*
D15*
X191683000Y-67302500D03*
X191683000Y-65477500D03*
D17*
X184190000Y-63978000D03*
X184190000Y-67278000D03*
D16*
X189016000Y-83511500D03*
X189016000Y-85336500D03*
X192826000Y-83511500D03*
X192826000Y-85336500D03*
X190921000Y-83511500D03*
X190921000Y-85336500D03*
X194604000Y-83511500D03*
X194604000Y-85336500D03*
X183682000Y-83511500D03*
X183682000Y-85336500D03*
D15*
X195493000Y-67302500D03*
X195493000Y-65477500D03*
D18*
X175427000Y-76650500D03*
X175427000Y-74925500D03*
D17*
X181650000Y-63978000D03*
X181650000Y-67278000D03*
D16*
X185460000Y-83511500D03*
X185460000Y-85336500D03*
D19*
X178221000Y-71011000D03*
X179491000Y-71011000D03*
X180761000Y-71011000D03*
X182031000Y-71011000D03*
X183301000Y-71011000D03*
X184571000Y-71011000D03*
X185841000Y-71011000D03*
X187111000Y-71011000D03*
X188381000Y-71011000D03*
X189651000Y-71011000D03*
X190921000Y-71011000D03*
X192191000Y-71011000D03*
X193461000Y-71011000D03*
X194731000Y-71011000D03*
X194731000Y-80311000D03*
X193461000Y-80311000D03*
X192191000Y-80311000D03*
X190921000Y-80311000D03*
X189651000Y-80311000D03*
X188381000Y-80311000D03*
X187111000Y-80311000D03*
X185841000Y-80311000D03*
X184571000Y-80311000D03*
X183301000Y-80311000D03*
X182031000Y-80311000D03*
X180761000Y-80311000D03*
X179491000Y-80311000D03*
X178221000Y-80311000D03*
D17*
X179237000Y-63978000D03*
X179237000Y-67278000D03*
D16*
X187111000Y-83511500D03*
X187111000Y-85336500D03*
D15*
X188000000Y-67302500D03*
X188000000Y-65477500D03*
%LPD*%
M02*
