G04 #@! TF.GenerationSoftware,KiCad,Pcbnew,8.0.8*
G04 #@! TF.CreationDate,2025-03-23T17:18:30+09:00*
G04 #@! TF.ProjectId,panelBoard,70616e65-6c42-46f6-9172-642e6b696361,rev?*
G04 #@! TF.SameCoordinates,Original*
G04 #@! TF.FileFunction,Soldermask,Top*
G04 #@! TF.FilePolarity,Negative*
%FSLAX46Y46*%
G04 Gerber Fmt 4.6, Leading zero omitted, Abs format (unit mm)*
G04 Created by KiCad (PCBNEW 8.0.8) date 2025-03-23 17:18:30*
%MOMM*%
%LPD*%
G01*
G04 APERTURE LIST*
G04 Aperture macros list*
%AMRoundRect*
0 Rectangle with rounded corners*
0 $1 Rounding radius*
0 $2 $3 $4 $5 $6 $7 $8 $9 X,Y pos of 4 corners*
0 Add a 4 corners polygon primitive as box body*
4,1,4,$2,$3,$4,$5,$6,$7,$8,$9,$2,$3,0*
0 Add four circle primitives for the rounded corners*
1,1,$1+$1,$2,$3*
1,1,$1+$1,$4,$5*
1,1,$1+$1,$6,$7*
1,1,$1+$1,$8,$9*
0 Add four rect primitives between the rounded corners*
20,1,$1+$1,$2,$3,$4,$5,0*
20,1,$1+$1,$4,$5,$6,$7,0*
20,1,$1+$1,$6,$7,$8,$9,0*
20,1,$1+$1,$8,$9,$2,$3,0*%
G04 Aperture macros list end*
%ADD10C,1.575000*%
%ADD11RoundRect,0.237500X-0.287500X-0.237500X0.287500X-0.237500X0.287500X0.237500X-0.287500X0.237500X0*%
%ADD12RoundRect,0.250000X-0.600000X-0.725000X0.600000X-0.725000X0.600000X0.725000X-0.600000X0.725000X0*%
%ADD13O,1.700000X1.950000*%
G04 APERTURE END LIST*
D10*
X98960000Y-144659000D03*
X92460000Y-144659000D03*
X98960000Y-140159000D03*
X92460000Y-140159000D03*
D11*
X122053000Y-118533000D03*
X123803000Y-118533000D03*
D10*
X120259000Y-144659000D03*
X113759000Y-144659000D03*
X120259000Y-140159000D03*
X113759000Y-140159000D03*
X162956000Y-144659000D03*
X156456000Y-144659000D03*
X162956000Y-140159000D03*
X156456000Y-140159000D03*
D11*
X185172000Y-135932000D03*
X186922000Y-135932000D03*
D10*
X189003000Y-144659000D03*
X182503000Y-144659000D03*
X189003000Y-140159000D03*
X182503000Y-140159000D03*
D11*
X170680000Y-118533000D03*
X172430000Y-118533000D03*
D10*
X126126000Y-127097000D03*
X119626000Y-127097000D03*
X126126000Y-122597000D03*
X119626000Y-122597000D03*
X225163000Y-144496000D03*
X218663000Y-144496000D03*
X225163000Y-139996000D03*
X218663000Y-139996000D03*
D11*
X169309000Y-136186000D03*
X171059000Y-136186000D03*
X84588000Y-118533000D03*
X86338000Y-118533000D03*
X105543000Y-136186000D03*
X107293000Y-136186000D03*
D10*
X130927000Y-144659000D03*
X124427000Y-144659000D03*
X130927000Y-140159000D03*
X124427000Y-140159000D03*
D11*
X161818000Y-118533000D03*
X163568000Y-118533000D03*
D10*
X210341000Y-144532000D03*
X203841000Y-144532000D03*
X210341000Y-140032000D03*
X203841000Y-140032000D03*
D11*
X94289000Y-136186000D03*
X96039000Y-136186000D03*
D10*
X88788000Y-127097000D03*
X82288000Y-127097000D03*
X88788000Y-122597000D03*
X82288000Y-122597000D03*
D11*
X205864000Y-118406000D03*
X207614000Y-118406000D03*
X63252000Y-118533000D03*
X65002000Y-118533000D03*
D10*
X224528000Y-127042000D03*
X218028000Y-127042000D03*
X224528000Y-122542000D03*
X218028000Y-122542000D03*
X78120000Y-127097000D03*
X71620000Y-127097000D03*
X78120000Y-122597000D03*
X71620000Y-122597000D03*
D11*
X206395000Y-135805000D03*
X208145000Y-135805000D03*
D10*
X199684000Y-144623000D03*
X193184000Y-144623000D03*
X199684000Y-140123000D03*
X193184000Y-140123000D03*
D11*
X144518000Y-118533000D03*
X146268000Y-118533000D03*
X111775000Y-118533000D03*
X113525000Y-118533000D03*
D10*
X199671000Y-127006000D03*
X193171000Y-127006000D03*
X199671000Y-122506000D03*
X193171000Y-122506000D03*
X99456000Y-127042000D03*
X92956000Y-127042000D03*
X99456000Y-122542000D03*
X92956000Y-122542000D03*
D11*
X181588000Y-118533000D03*
X183338000Y-118533000D03*
D10*
X66981000Y-144659000D03*
X60481000Y-144659000D03*
X66981000Y-140159000D03*
X60481000Y-140159000D03*
X152263000Y-144659000D03*
X145763000Y-144659000D03*
X152263000Y-140159000D03*
X145763000Y-140159000D03*
D11*
X126741000Y-136186000D03*
X128491000Y-136186000D03*
X159047000Y-136186000D03*
X160797000Y-136186000D03*
D10*
X136794000Y-127097000D03*
X130294000Y-127097000D03*
X136794000Y-122597000D03*
X130294000Y-122597000D03*
X67302000Y-127097000D03*
X60802000Y-127097000D03*
X67302000Y-122597000D03*
X60802000Y-122597000D03*
D11*
X48130000Y-118533000D03*
X49880000Y-118533000D03*
X185553000Y-118533000D03*
X187303000Y-118533000D03*
D10*
X141595000Y-144659000D03*
X135095000Y-144659000D03*
X141595000Y-140159000D03*
X135095000Y-140159000D03*
X45366000Y-144659000D03*
X38866000Y-144659000D03*
X45366000Y-140159000D03*
X38866000Y-140159000D03*
D11*
X196094000Y-135932000D03*
X197844000Y-135932000D03*
X116209000Y-136186000D03*
X117959000Y-136186000D03*
X195573000Y-118442000D03*
X197323000Y-118442000D03*
X63072000Y-136186000D03*
X64822000Y-136186000D03*
D10*
X88292000Y-144659000D03*
X81792000Y-144659000D03*
X88292000Y-140159000D03*
X81792000Y-140159000D03*
D11*
X148331000Y-136186000D03*
X150081000Y-136186000D03*
D12*
X75971000Y-86021000D03*
D13*
X78471000Y-86021000D03*
X80971000Y-86021000D03*
X83471000Y-86021000D03*
X85971000Y-86021000D03*
D10*
X77647000Y-144659000D03*
X71147000Y-144659000D03*
X77647000Y-140159000D03*
X71147000Y-140159000D03*
X210304000Y-126970000D03*
X203804000Y-126970000D03*
X210304000Y-122470000D03*
X203804000Y-122470000D03*
D11*
X137432000Y-136186000D03*
X139182000Y-136186000D03*
D10*
X52062000Y-127097000D03*
X45562000Y-127097000D03*
X52062000Y-122597000D03*
X45562000Y-122597000D03*
X115481000Y-127097000D03*
X108981000Y-127097000D03*
X115481000Y-122597000D03*
X108981000Y-122597000D03*
D11*
X152914000Y-118533000D03*
X154664000Y-118533000D03*
D10*
X173622000Y-144659000D03*
X167122000Y-144659000D03*
X173622000Y-140159000D03*
X167122000Y-140159000D03*
D11*
X73306000Y-136186000D03*
X75056000Y-136186000D03*
D10*
X189003000Y-127042000D03*
X182503000Y-127042000D03*
X189003000Y-122542000D03*
X182503000Y-122542000D03*
D11*
X84473000Y-136186000D03*
X86223000Y-136186000D03*
X73793000Y-118533000D03*
X75543000Y-118533000D03*
D10*
X56161000Y-144659000D03*
X49661000Y-144659000D03*
X56161000Y-140159000D03*
X49661000Y-140159000D03*
D11*
X132721000Y-118533000D03*
X134471000Y-118533000D03*
X41293000Y-136186000D03*
X43043000Y-136186000D03*
X95256000Y-118533000D03*
X97006000Y-118533000D03*
D10*
X109616000Y-144659000D03*
X103116000Y-144659000D03*
X109616000Y-140159000D03*
X103116000Y-140159000D03*
D11*
X52328000Y-136186000D03*
X54078000Y-136186000D03*
M02*
