%TF.GenerationSoftware,KiCad,Pcbnew,8.0.8*%
%TF.CreationDate,2025-03-25T19:50:02+09:00*%
%TF.ProjectId,panelBoard,70616e65-6c42-46f6-9172-642e6b696361,rev?*%
%TF.SameCoordinates,Original*%
%TF.FileFunction,Drillmap*%
%TF.FilePolarity,Positive*%
%FSLAX45Y45*%
G04 Gerber Fmt 4.5, Leading zero omitted, Abs format (unit mm)*
G04 Created by KiCad (PCBNEW 8.0.8) date 2025-03-25 19:50:02*
%MOMM*%
%LPD*%
G01*
G04 APERTURE LIST*
%ADD10C,0.050000*%
%ADD11C,0.100000*%
%ADD12C,0.200000*%
%ADD13C,0.105000*%
G04 APERTURE END LIST*
D10*
X9778200Y-10113400D02*
G75*
G02*
X8478200Y-10113400I-650000J0D01*
G01*
X8478200Y-10113400D02*
G75*
G02*
X9778200Y-10113400I650000J0D01*
G01*
D11*
X3800000Y-15600000D02*
G75*
G02*
X3500000Y-15300000I0J300000D01*
G01*
X23500000Y-15300000D02*
G75*
G02*
X23200000Y-15600000I-300000J0D01*
G01*
D10*
X4160000Y-15141500D02*
G75*
G02*
X3840000Y-15141500I-160000J0D01*
G01*
X3840000Y-15141500D02*
G75*
G02*
X4160000Y-15141500I160000J0D01*
G01*
X14060000Y-15141500D02*
G75*
G02*
X13740000Y-15141500I-160000J0D01*
G01*
X13740000Y-15141500D02*
G75*
G02*
X14060000Y-15141500I160000J0D01*
G01*
D11*
X23200000Y-15600000D02*
X3800000Y-15600000D01*
X3800000Y-8000000D02*
X14000000Y-8000000D01*
X3500000Y-8300000D02*
X3500000Y-15300000D01*
X15100000Y-5300000D02*
X23200000Y-5300000D01*
D10*
X14060000Y-8741500D02*
G75*
G02*
X13740000Y-8741500I-160000J0D01*
G01*
X13740000Y-8741500D02*
G75*
G02*
X14060000Y-8741500I160000J0D01*
G01*
D11*
X23500000Y-5600000D02*
X23500000Y-15300000D01*
D10*
X22236900Y-6316100D02*
G75*
G02*
X20936900Y-6316100I-650000J0D01*
G01*
X20936900Y-6316100D02*
G75*
G02*
X22236900Y-6316100I650000J0D01*
G01*
X7380200Y-10115700D02*
G75*
G02*
X6080200Y-10115700I-650000J0D01*
G01*
X6080200Y-10115700D02*
G75*
G02*
X7380200Y-10115700I650000J0D01*
G01*
D11*
X14800000Y-5600000D02*
G75*
G02*
X15100000Y-5300000I300000J0D01*
G01*
D10*
X23260000Y-8741500D02*
G75*
G02*
X22940000Y-8741500I-160000J0D01*
G01*
X22940000Y-8741500D02*
G75*
G02*
X23260000Y-8741500I160000J0D01*
G01*
D11*
X3500000Y-8300000D02*
G75*
G02*
X3800000Y-8000000I300000J0D01*
G01*
D10*
X16941000Y-10113400D02*
G75*
G02*
X15641000Y-10113400I-650000J0D01*
G01*
X15641000Y-10113400D02*
G75*
G02*
X16941000Y-10113400I650000J0D01*
G01*
D11*
X14800000Y-7700000D02*
X14800000Y-5600000D01*
D10*
X16407600Y-7078100D02*
G75*
G02*
X15107600Y-7078100I-650000J0D01*
G01*
X15107600Y-7078100D02*
G75*
G02*
X16407600Y-7078100I650000J0D01*
G01*
D11*
X23200000Y-5300000D02*
G75*
G02*
X23500000Y-5600000I0J-300000D01*
G01*
D10*
X21855900Y-10113400D02*
G75*
G02*
X20555900Y-10113400I-650000J0D01*
G01*
X20555900Y-10113400D02*
G75*
G02*
X21855900Y-10113400I650000J0D01*
G01*
X5171470Y-10131950D02*
G75*
G02*
X4531470Y-10131950I-320000J0D01*
G01*
X4531470Y-10131950D02*
G75*
G02*
X5171470Y-10131950I320000J0D01*
G01*
X19328600Y-10113400D02*
G75*
G02*
X18028600Y-10113400I-650000J0D01*
G01*
X18028600Y-10113400D02*
G75*
G02*
X19328600Y-10113400I650000J0D01*
G01*
D11*
X14000000Y-8000000D02*
X14500000Y-8000000D01*
D10*
X14540700Y-10126100D02*
G75*
G02*
X13240700Y-10126100I-650000J0D01*
G01*
X13240700Y-10126100D02*
G75*
G02*
X14540700Y-10126100I650000J0D01*
G01*
X4160000Y-8741500D02*
G75*
G02*
X3840000Y-8741500I-160000J0D01*
G01*
X3840000Y-8741500D02*
G75*
G02*
X4160000Y-8741500I160000J0D01*
G01*
X12165800Y-10100700D02*
G75*
G02*
X10865800Y-10100700I-650000J0D01*
G01*
X10865800Y-10100700D02*
G75*
G02*
X12165800Y-10100700I650000J0D01*
G01*
X23260000Y-15141500D02*
G75*
G02*
X22940000Y-15141500I-160000J0D01*
G01*
X22940000Y-15141500D02*
G75*
G02*
X23260000Y-15141500I160000J0D01*
G01*
D11*
X14800000Y-7700000D02*
G75*
G02*
X14500000Y-8000000I-300000J0D01*
G01*
D12*
D11*
X7960600Y-8265400D02*
X7990600Y-8295400D01*
X7990600Y-8265400D02*
X7960600Y-8295400D01*
X8007980Y-11786750D02*
X8037980Y-11816750D01*
X8037980Y-11786750D02*
X8007980Y-11816750D01*
X8615180Y-13132710D02*
X8645180Y-13162710D01*
X8645180Y-13132710D02*
X8615180Y-13162710D01*
X9588900Y-13504940D02*
X9618900Y-13534940D01*
X9618900Y-13504940D02*
X9588900Y-13534940D01*
X10573760Y-12598440D02*
X10603760Y-12628440D01*
X10603760Y-12598440D02*
X10573760Y-12628440D01*
X11178880Y-13142880D02*
X11208880Y-13172880D01*
X11208880Y-13142880D02*
X11178880Y-13172880D01*
X11442000Y-11821230D02*
X11472000Y-11851230D01*
X11472000Y-11821230D02*
X11442000Y-11851230D01*
X11474510Y-11501820D02*
X11504510Y-11531820D01*
X11504510Y-11501820D02*
X11474510Y-11531820D01*
X12518480Y-12043360D02*
X12548480Y-12073360D01*
X12548480Y-12043360D02*
X12518480Y-12073360D01*
X12549970Y-11858540D02*
X12579970Y-11888540D01*
X12579970Y-11858540D02*
X12549970Y-11888540D01*
X12562620Y-13138980D02*
X12592620Y-13168980D01*
X12592620Y-13138980D02*
X12562620Y-13168980D01*
X12627960Y-13200130D02*
X12657960Y-13230130D01*
X12657960Y-13200130D02*
X12627960Y-13230130D01*
X12961990Y-11760540D02*
X12991990Y-11790540D01*
X12991990Y-11760540D02*
X12961990Y-11790540D01*
X13791490Y-11532800D02*
X13821490Y-11562800D01*
X13821490Y-11532800D02*
X13791490Y-11562800D01*
X13903200Y-13505480D02*
X13933200Y-13535480D01*
X13933200Y-13505480D02*
X13903200Y-13535480D01*
X14971690Y-13154030D02*
X15001690Y-13184030D01*
X15001690Y-13154030D02*
X14971690Y-13184030D01*
X14979190Y-11608640D02*
X15009190Y-11638640D01*
X15009190Y-11608640D02*
X14979190Y-11638640D01*
X15711190Y-9382840D02*
X15741190Y-9412840D01*
X15741190Y-9382840D02*
X15711190Y-9412840D01*
X15745700Y-8024100D02*
X15775700Y-8054100D01*
X15775700Y-8024100D02*
X15745700Y-8054100D01*
X15944310Y-9091200D02*
X15974310Y-9121200D01*
X15974310Y-9091200D02*
X15944310Y-9121200D01*
X16064700Y-12126690D02*
X16094700Y-12156690D01*
X16094700Y-12126690D02*
X16064700Y-12156690D01*
X16064700Y-13503610D02*
X16094700Y-13533610D01*
X16094700Y-13503610D02*
X16064700Y-13533610D01*
X16497600Y-12031870D02*
X16527600Y-12061870D01*
X16527600Y-12031870D02*
X16497600Y-12061870D01*
X16772050Y-9241770D02*
X16802050Y-9271770D01*
X16802050Y-9241770D02*
X16772050Y-9271770D01*
X17081010Y-13505660D02*
X17111010Y-13535660D01*
X17111010Y-13505660D02*
X17081010Y-13535660D01*
X17224150Y-8459630D02*
X17254150Y-8489630D01*
X17254150Y-8459630D02*
X17224150Y-8489630D01*
X17322470Y-8369310D02*
X17352470Y-8399310D01*
X17352470Y-8369310D02*
X17322470Y-8399310D01*
X17464060Y-8903430D02*
X17494060Y-8933430D01*
X17494060Y-8903430D02*
X17464060Y-8933430D01*
X17498490Y-7282510D02*
X17528490Y-7312510D01*
X17528490Y-7282510D02*
X17498490Y-7312510D01*
X17537040Y-8030760D02*
X17567040Y-8060760D01*
X17567040Y-8030760D02*
X17537040Y-8060760D01*
X17577210Y-8598000D02*
X17607210Y-8628000D01*
X17607210Y-8598000D02*
X17577210Y-8628000D01*
X17591980Y-7757400D02*
X17621980Y-7787400D01*
X17621980Y-7757400D02*
X17591980Y-7787400D01*
X17624180Y-6814090D02*
X17654180Y-6844090D01*
X17654180Y-6814090D02*
X17624180Y-6844090D01*
X17632150Y-7683010D02*
X17662150Y-7713010D01*
X17662150Y-7683010D02*
X17632150Y-7713010D01*
X17703070Y-7133180D02*
X17733070Y-7163180D01*
X17733070Y-7133180D02*
X17703070Y-7163180D01*
X17801570Y-7843970D02*
X17831570Y-7873970D01*
X17831570Y-7843970D02*
X17801570Y-7873970D01*
X17852690Y-8043150D02*
X17882690Y-8073150D01*
X17882690Y-8043150D02*
X17852690Y-8073150D01*
X17866960Y-11562500D02*
X17896960Y-11592500D01*
X17896960Y-11562500D02*
X17866960Y-11592500D01*
X17925350Y-13154210D02*
X17955350Y-13184210D01*
X17955350Y-13154210D02*
X17925350Y-13184210D01*
X17954550Y-11918530D02*
X17984550Y-11948530D01*
X17984550Y-11918530D02*
X17954550Y-11948530D01*
X18026110Y-7744700D02*
X18056110Y-7774700D01*
X18056110Y-7744700D02*
X18026110Y-7774700D01*
X18069820Y-6877770D02*
X18099820Y-6907770D01*
X18099820Y-6877770D02*
X18069820Y-6907770D01*
X18095200Y-9535400D02*
X18125200Y-9565400D01*
X18125200Y-9535400D02*
X18095200Y-9565400D01*
X18099670Y-11738970D02*
X18129670Y-11768970D01*
X18129670Y-11738970D02*
X18099670Y-11768970D01*
X18129840Y-6728700D02*
X18159840Y-6758700D01*
X18159840Y-6728700D02*
X18129840Y-6758700D01*
X18216310Y-11735810D02*
X18246310Y-11765810D01*
X18246310Y-11735810D02*
X18216310Y-11765810D01*
X18399260Y-13560280D02*
X18429260Y-13590280D01*
X18429260Y-13560280D02*
X18399260Y-13590280D01*
X18527000Y-10995900D02*
X18557000Y-11025900D01*
X18557000Y-10995900D02*
X18527000Y-11025900D01*
X18531780Y-11739840D02*
X18561780Y-11769840D01*
X18561780Y-11739840D02*
X18531780Y-11769840D01*
X18564910Y-13481030D02*
X18594910Y-13511030D01*
X18594910Y-13481030D02*
X18564910Y-13511030D01*
X18846500Y-11653640D02*
X18876500Y-11683640D01*
X18876500Y-11653640D02*
X18846500Y-11683640D01*
X18863720Y-7378470D02*
X18893720Y-7408470D01*
X18893720Y-7378470D02*
X18863720Y-7408470D01*
X19062370Y-7292590D02*
X19092370Y-7322590D01*
X19092370Y-7292590D02*
X19062370Y-7322590D01*
X19250900Y-8608300D02*
X19280900Y-8638300D01*
X19280900Y-8608300D02*
X19250900Y-8638300D01*
X19282320Y-11217820D02*
X19312320Y-11247820D01*
X19312320Y-11217820D02*
X19282320Y-11247820D01*
X19371150Y-7236700D02*
X19401150Y-7266700D01*
X19401150Y-7236700D02*
X19371150Y-7266700D01*
X19461340Y-13088690D02*
X19491340Y-13118690D01*
X19491340Y-13088690D02*
X19461340Y-13118690D01*
X19695840Y-8665790D02*
X19725840Y-8695790D01*
X19725840Y-8665790D02*
X19695840Y-8695790D01*
X19791250Y-7976860D02*
X19821250Y-8006860D01*
X19821250Y-7976860D02*
X19791250Y-8006860D01*
X19855400Y-11509730D02*
X19885400Y-11539730D01*
X19885400Y-11509730D02*
X19855400Y-11539730D01*
X19855550Y-8115180D02*
X19885550Y-8145180D01*
X19885550Y-8115180D02*
X19855550Y-8145180D01*
X20197050Y-10938750D02*
X20227050Y-10968750D01*
X20227050Y-10938750D02*
X20197050Y-10968750D01*
X20506785Y-7809615D02*
X20536785Y-7839615D01*
X20536785Y-7809615D02*
X20506785Y-7839615D01*
X20609800Y-10780000D02*
X20639800Y-10810000D01*
X20639800Y-10780000D02*
X20609800Y-10810000D01*
X7631900Y-8597900D02*
G75*
G02*
X7531900Y-8597900I-50000J0D01*
G01*
X7531900Y-8597900D02*
G75*
G02*
X7631900Y-8597900I50000J0D01*
G01*
X7885900Y-8597900D02*
G75*
G02*
X7785900Y-8597900I-50000J0D01*
G01*
X7785900Y-8597900D02*
G75*
G02*
X7885900Y-8597900I50000J0D01*
G01*
X8139900Y-8597900D02*
G75*
G02*
X8039900Y-8597900I-50000J0D01*
G01*
X8039900Y-8597900D02*
G75*
G02*
X8139900Y-8597900I50000J0D01*
G01*
X8393900Y-8597900D02*
G75*
G02*
X8293900Y-8597900I-50000J0D01*
G01*
X8293900Y-8597900D02*
G75*
G02*
X8393900Y-8597900I50000J0D01*
G01*
X8647900Y-8597900D02*
G75*
G02*
X8547900Y-8597900I-50000J0D01*
G01*
X8547900Y-8597900D02*
G75*
G02*
X8647900Y-8597900I50000J0D01*
G01*
D13*
X3886600Y-13963400D02*
X3886600Y-14068400D01*
X3834100Y-14015900D02*
X3939100Y-14015900D01*
X3886600Y-14413400D02*
X3886600Y-14518400D01*
X3834100Y-14465900D02*
X3939100Y-14465900D01*
X4536600Y-13963400D02*
X4536600Y-14068400D01*
X4484100Y-14015900D02*
X4589100Y-14015900D01*
X4536600Y-14413400D02*
X4536600Y-14518400D01*
X4484100Y-14465900D02*
X4589100Y-14465900D01*
X4556200Y-12207200D02*
X4556200Y-12312200D01*
X4503700Y-12259700D02*
X4608700Y-12259700D01*
X4556200Y-12657200D02*
X4556200Y-12762200D01*
X4503700Y-12709700D02*
X4608700Y-12709700D01*
X4966100Y-13963400D02*
X4966100Y-14068400D01*
X4913600Y-14015900D02*
X5018600Y-14015900D01*
X4966100Y-14413400D02*
X4966100Y-14518400D01*
X4913600Y-14465900D02*
X5018600Y-14465900D01*
X5206200Y-12207200D02*
X5206200Y-12312200D01*
X5153700Y-12259700D02*
X5258700Y-12259700D01*
X5206200Y-12657200D02*
X5206200Y-12762200D01*
X5153700Y-12709700D02*
X5258700Y-12709700D01*
X5616100Y-13963400D02*
X5616100Y-14068400D01*
X5563600Y-14015900D02*
X5668600Y-14015900D01*
X5616100Y-14413400D02*
X5616100Y-14518400D01*
X5563600Y-14465900D02*
X5668600Y-14465900D01*
X6048100Y-13963400D02*
X6048100Y-14068400D01*
X5995600Y-14015900D02*
X6100600Y-14015900D01*
X6048100Y-14413400D02*
X6048100Y-14518400D01*
X5995600Y-14465900D02*
X6100600Y-14465900D01*
X6080200Y-12207200D02*
X6080200Y-12312200D01*
X6027700Y-12259700D02*
X6132700Y-12259700D01*
X6080200Y-12657200D02*
X6080200Y-12762200D01*
X6027700Y-12709700D02*
X6132700Y-12709700D01*
X6698100Y-13963400D02*
X6698100Y-14068400D01*
X6645600Y-14015900D02*
X6750600Y-14015900D01*
X6698100Y-14413400D02*
X6698100Y-14518400D01*
X6645600Y-14465900D02*
X6750600Y-14465900D01*
X6730200Y-12207200D02*
X6730200Y-12312200D01*
X6677700Y-12259700D02*
X6782700Y-12259700D01*
X6730200Y-12657200D02*
X6730200Y-12762200D01*
X6677700Y-12709700D02*
X6782700Y-12709700D01*
X7114700Y-13963400D02*
X7114700Y-14068400D01*
X7062200Y-14015900D02*
X7167200Y-14015900D01*
X7114700Y-14413400D02*
X7114700Y-14518400D01*
X7062200Y-14465900D02*
X7167200Y-14465900D01*
X7162000Y-12207200D02*
X7162000Y-12312200D01*
X7109500Y-12259700D02*
X7214500Y-12259700D01*
X7162000Y-12657200D02*
X7162000Y-12762200D01*
X7109500Y-12709700D02*
X7214500Y-12709700D01*
X7764700Y-13963400D02*
X7764700Y-14068400D01*
X7712200Y-14015900D02*
X7817200Y-14015900D01*
X7764700Y-14413400D02*
X7764700Y-14518400D01*
X7712200Y-14465900D02*
X7817200Y-14465900D01*
X7812000Y-12207200D02*
X7812000Y-12312200D01*
X7759500Y-12259700D02*
X7864500Y-12259700D01*
X7812000Y-12657200D02*
X7812000Y-12762200D01*
X7759500Y-12709700D02*
X7864500Y-12709700D01*
X8179200Y-13963400D02*
X8179200Y-14068400D01*
X8126700Y-14015900D02*
X8231700Y-14015900D01*
X8179200Y-14413400D02*
X8179200Y-14518400D01*
X8126700Y-14465900D02*
X8231700Y-14465900D01*
X8228800Y-12207200D02*
X8228800Y-12312200D01*
X8176300Y-12259700D02*
X8281300Y-12259700D01*
X8228800Y-12657200D02*
X8228800Y-12762200D01*
X8176300Y-12709700D02*
X8281300Y-12709700D01*
X8829200Y-13963400D02*
X8829200Y-14068400D01*
X8776700Y-14015900D02*
X8881700Y-14015900D01*
X8829200Y-14413400D02*
X8829200Y-14518400D01*
X8776700Y-14465900D02*
X8881700Y-14465900D01*
X8878800Y-12207200D02*
X8878800Y-12312200D01*
X8826300Y-12259700D02*
X8931300Y-12259700D01*
X8878800Y-12657200D02*
X8878800Y-12762200D01*
X8826300Y-12709700D02*
X8931300Y-12709700D01*
X9246000Y-13963400D02*
X9246000Y-14068400D01*
X9193500Y-14015900D02*
X9298500Y-14015900D01*
X9246000Y-14413400D02*
X9246000Y-14518400D01*
X9193500Y-14465900D02*
X9298500Y-14465900D01*
X9295600Y-12201700D02*
X9295600Y-12306700D01*
X9243100Y-12254200D02*
X9348100Y-12254200D01*
X9295600Y-12651700D02*
X9295600Y-12756700D01*
X9243100Y-12704200D02*
X9348100Y-12704200D01*
X9896000Y-13963400D02*
X9896000Y-14068400D01*
X9843500Y-14015900D02*
X9948500Y-14015900D01*
X9896000Y-14413400D02*
X9896000Y-14518400D01*
X9843500Y-14465900D02*
X9948500Y-14465900D01*
X9945600Y-12201700D02*
X9945600Y-12306700D01*
X9893100Y-12254200D02*
X9998100Y-12254200D01*
X9945600Y-12651700D02*
X9945600Y-12756700D01*
X9893100Y-12704200D02*
X9998100Y-12704200D01*
X10311600Y-13963400D02*
X10311600Y-14068400D01*
X10259100Y-14015900D02*
X10364100Y-14015900D01*
X10311600Y-14413400D02*
X10311600Y-14518400D01*
X10259100Y-14465900D02*
X10364100Y-14465900D01*
X10898100Y-12207200D02*
X10898100Y-12312200D01*
X10845600Y-12259700D02*
X10950600Y-12259700D01*
X10898100Y-12657200D02*
X10898100Y-12762200D01*
X10845600Y-12709700D02*
X10950600Y-12709700D01*
X10961600Y-13963400D02*
X10961600Y-14068400D01*
X10909100Y-14015900D02*
X11014100Y-14015900D01*
X10961600Y-14413400D02*
X10961600Y-14518400D01*
X10909100Y-14465900D02*
X11014100Y-14465900D01*
X11375900Y-13963400D02*
X11375900Y-14068400D01*
X11323400Y-14015900D02*
X11428400Y-14015900D01*
X11375900Y-14413400D02*
X11375900Y-14518400D01*
X11323400Y-14465900D02*
X11428400Y-14465900D01*
X11548100Y-12207200D02*
X11548100Y-12312200D01*
X11495600Y-12259700D02*
X11600600Y-12259700D01*
X11548100Y-12657200D02*
X11548100Y-12762200D01*
X11495600Y-12709700D02*
X11600600Y-12709700D01*
X11962600Y-12207200D02*
X11962600Y-12312200D01*
X11910100Y-12259700D02*
X12015100Y-12259700D01*
X11962600Y-12657200D02*
X11962600Y-12762200D01*
X11910100Y-12709700D02*
X12015100Y-12709700D01*
X12025900Y-13963400D02*
X12025900Y-14068400D01*
X11973400Y-14015900D02*
X12078400Y-14015900D01*
X12025900Y-14413400D02*
X12025900Y-14518400D01*
X11973400Y-14465900D02*
X12078400Y-14465900D01*
X12442700Y-13963400D02*
X12442700Y-14068400D01*
X12390200Y-14015900D02*
X12495200Y-14015900D01*
X12442700Y-14413400D02*
X12442700Y-14518400D01*
X12390200Y-14465900D02*
X12495200Y-14465900D01*
X12612600Y-12207200D02*
X12612600Y-12312200D01*
X12560100Y-12259700D02*
X12665100Y-12259700D01*
X12612600Y-12657200D02*
X12612600Y-12762200D01*
X12560100Y-12709700D02*
X12665100Y-12709700D01*
X13029400Y-12207200D02*
X13029400Y-12312200D01*
X12976900Y-12259700D02*
X13081900Y-12259700D01*
X13029400Y-12657200D02*
X13029400Y-12762200D01*
X12976900Y-12709700D02*
X13081900Y-12709700D01*
X13092700Y-13963400D02*
X13092700Y-14068400D01*
X13040200Y-14015900D02*
X13145200Y-14015900D01*
X13092700Y-14413400D02*
X13092700Y-14518400D01*
X13040200Y-14465900D02*
X13145200Y-14465900D01*
X13509500Y-13963400D02*
X13509500Y-14068400D01*
X13457000Y-14015900D02*
X13562000Y-14015900D01*
X13509500Y-14413400D02*
X13509500Y-14518400D01*
X13457000Y-14465900D02*
X13562000Y-14465900D01*
X13679400Y-12207200D02*
X13679400Y-12312200D01*
X13626900Y-12259700D02*
X13731900Y-12259700D01*
X13679400Y-12657200D02*
X13679400Y-12762200D01*
X13626900Y-12709700D02*
X13731900Y-12709700D01*
X14159500Y-13963400D02*
X14159500Y-14068400D01*
X14107000Y-14015900D02*
X14212000Y-14015900D01*
X14159500Y-14413400D02*
X14159500Y-14518400D01*
X14107000Y-14465900D02*
X14212000Y-14465900D01*
X14576300Y-13963400D02*
X14576300Y-14068400D01*
X14523800Y-14015900D02*
X14628800Y-14015900D01*
X14576300Y-14413400D02*
X14576300Y-14518400D01*
X14523800Y-14465900D02*
X14628800Y-14465900D01*
X15226300Y-13963400D02*
X15226300Y-14068400D01*
X15173800Y-14015900D02*
X15278800Y-14015900D01*
X15226300Y-14413400D02*
X15226300Y-14518400D01*
X15173800Y-14465900D02*
X15278800Y-14465900D01*
X15645600Y-13963400D02*
X15645600Y-14068400D01*
X15593100Y-14015900D02*
X15698100Y-14015900D01*
X15645600Y-14413400D02*
X15645600Y-14518400D01*
X15593100Y-14465900D02*
X15698100Y-14465900D01*
X16295600Y-13963400D02*
X16295600Y-14068400D01*
X16243100Y-14015900D02*
X16348100Y-14015900D01*
X16295600Y-14413400D02*
X16295600Y-14518400D01*
X16243100Y-14465900D02*
X16348100Y-14465900D01*
X16712200Y-13963400D02*
X16712200Y-14068400D01*
X16659700Y-14015900D02*
X16764700Y-14015900D01*
X16712200Y-14413400D02*
X16712200Y-14518400D01*
X16659700Y-14465900D02*
X16764700Y-14465900D01*
X17362200Y-13963400D02*
X17362200Y-14068400D01*
X17309700Y-14015900D02*
X17414700Y-14015900D01*
X17362200Y-14413400D02*
X17362200Y-14518400D01*
X17309700Y-14465900D02*
X17414700Y-14465900D01*
X18250300Y-12201700D02*
X18250300Y-12306700D01*
X18197800Y-12254200D02*
X18302800Y-12254200D01*
X18250300Y-12651700D02*
X18250300Y-12756700D01*
X18197800Y-12704200D02*
X18302800Y-12704200D01*
X18250300Y-13963400D02*
X18250300Y-14068400D01*
X18197800Y-14015900D02*
X18302800Y-14015900D01*
X18250300Y-14413400D02*
X18250300Y-14518400D01*
X18197800Y-14465900D02*
X18302800Y-14465900D01*
X18900300Y-12201700D02*
X18900300Y-12306700D01*
X18847800Y-12254200D02*
X18952800Y-12254200D01*
X18900300Y-12651700D02*
X18900300Y-12756700D01*
X18847800Y-12704200D02*
X18952800Y-12704200D01*
X18900300Y-13963400D02*
X18900300Y-14068400D01*
X18847800Y-14015900D02*
X18952800Y-14015900D01*
X18900300Y-14413400D02*
X18900300Y-14518400D01*
X18847800Y-14465900D02*
X18952800Y-14465900D01*
X19317100Y-12198100D02*
X19317100Y-12303100D01*
X19264600Y-12250600D02*
X19369600Y-12250600D01*
X19317100Y-12648100D02*
X19317100Y-12753100D01*
X19264600Y-12700600D02*
X19369600Y-12700600D01*
X19318400Y-13959800D02*
X19318400Y-14064800D01*
X19265900Y-14012300D02*
X19370900Y-14012300D01*
X19318400Y-14409800D02*
X19318400Y-14514800D01*
X19265900Y-14462300D02*
X19370900Y-14462300D01*
X19967100Y-12198100D02*
X19967100Y-12303100D01*
X19914600Y-12250600D02*
X20019600Y-12250600D01*
X19967100Y-12648100D02*
X19967100Y-12753100D01*
X19914600Y-12700600D02*
X20019600Y-12700600D01*
X19968400Y-13959800D02*
X19968400Y-14064800D01*
X19915900Y-14012300D02*
X20020900Y-14012300D01*
X19968400Y-14409800D02*
X19968400Y-14514800D01*
X19915900Y-14462300D02*
X20020900Y-14462300D01*
X20380400Y-12194500D02*
X20380400Y-12299500D01*
X20327900Y-12247000D02*
X20432900Y-12247000D01*
X20380400Y-12644500D02*
X20380400Y-12749500D01*
X20327900Y-12697000D02*
X20432900Y-12697000D01*
X20384100Y-13950700D02*
X20384100Y-14055700D01*
X20331600Y-14003200D02*
X20436600Y-14003200D01*
X20384100Y-14400700D02*
X20384100Y-14505700D01*
X20331600Y-14453200D02*
X20436600Y-14453200D01*
X21030400Y-12194500D02*
X21030400Y-12299500D01*
X20977900Y-12247000D02*
X21082900Y-12247000D01*
X21030400Y-12644500D02*
X21030400Y-12749500D01*
X20977900Y-12697000D02*
X21082900Y-12697000D01*
X21034100Y-13950700D02*
X21034100Y-14055700D01*
X20981600Y-14003200D02*
X21086600Y-14003200D01*
X21034100Y-14400700D02*
X21034100Y-14505700D01*
X20981600Y-14453200D02*
X21086600Y-14453200D01*
X21802800Y-12201700D02*
X21802800Y-12306700D01*
X21750300Y-12254200D02*
X21855300Y-12254200D01*
X21802800Y-12651700D02*
X21802800Y-12756700D01*
X21750300Y-12704200D02*
X21855300Y-12704200D01*
X21866300Y-13947100D02*
X21866300Y-14052100D01*
X21813800Y-13999600D02*
X21918800Y-13999600D01*
X21866300Y-14397100D02*
X21866300Y-14502100D01*
X21813800Y-14449600D02*
X21918800Y-14449600D01*
X22452800Y-12201700D02*
X22452800Y-12306700D01*
X22400300Y-12254200D02*
X22505300Y-12254200D01*
X22452800Y-12651700D02*
X22452800Y-12756700D01*
X22400300Y-12704200D02*
X22505300Y-12704200D01*
X22516300Y-13947100D02*
X22516300Y-14052100D01*
X22463800Y-13999600D02*
X22568800Y-13999600D01*
X22516300Y-14397100D02*
X22516300Y-14502100D01*
X22463800Y-14449600D02*
X22568800Y-14449600D01*
D12*
X3755777Y-15916484D02*
X3755777Y-15716484D01*
X3755777Y-15716484D02*
X3803396Y-15716484D01*
X3803396Y-15716484D02*
X3831967Y-15726008D01*
X3831967Y-15726008D02*
X3851015Y-15745055D01*
X3851015Y-15745055D02*
X3860539Y-15764103D01*
X3860539Y-15764103D02*
X3870062Y-15802198D01*
X3870062Y-15802198D02*
X3870062Y-15830769D01*
X3870062Y-15830769D02*
X3860539Y-15868865D01*
X3860539Y-15868865D02*
X3851015Y-15887912D01*
X3851015Y-15887912D02*
X3831967Y-15906960D01*
X3831967Y-15906960D02*
X3803396Y-15916484D01*
X3803396Y-15916484D02*
X3755777Y-15916484D01*
X3955777Y-15916484D02*
X3955777Y-15783150D01*
X3955777Y-15821246D02*
X3965301Y-15802198D01*
X3965301Y-15802198D02*
X3974824Y-15792674D01*
X3974824Y-15792674D02*
X3993872Y-15783150D01*
X3993872Y-15783150D02*
X4012920Y-15783150D01*
X4079586Y-15916484D02*
X4079586Y-15783150D01*
X4079586Y-15716484D02*
X4070062Y-15726008D01*
X4070062Y-15726008D02*
X4079586Y-15735531D01*
X4079586Y-15735531D02*
X4089110Y-15726008D01*
X4089110Y-15726008D02*
X4079586Y-15716484D01*
X4079586Y-15716484D02*
X4079586Y-15735531D01*
X4203396Y-15916484D02*
X4184348Y-15906960D01*
X4184348Y-15906960D02*
X4174824Y-15887912D01*
X4174824Y-15887912D02*
X4174824Y-15716484D01*
X4308158Y-15916484D02*
X4289110Y-15906960D01*
X4289110Y-15906960D02*
X4279586Y-15887912D01*
X4279586Y-15887912D02*
X4279586Y-15716484D01*
X4536729Y-15916484D02*
X4536729Y-15716484D01*
X4536729Y-15716484D02*
X4603396Y-15859341D01*
X4603396Y-15859341D02*
X4670063Y-15716484D01*
X4670063Y-15716484D02*
X4670063Y-15916484D01*
X4851015Y-15916484D02*
X4851015Y-15811722D01*
X4851015Y-15811722D02*
X4841491Y-15792674D01*
X4841491Y-15792674D02*
X4822444Y-15783150D01*
X4822444Y-15783150D02*
X4784348Y-15783150D01*
X4784348Y-15783150D02*
X4765301Y-15792674D01*
X4851015Y-15906960D02*
X4831967Y-15916484D01*
X4831967Y-15916484D02*
X4784348Y-15916484D01*
X4784348Y-15916484D02*
X4765301Y-15906960D01*
X4765301Y-15906960D02*
X4755777Y-15887912D01*
X4755777Y-15887912D02*
X4755777Y-15868865D01*
X4755777Y-15868865D02*
X4765301Y-15849817D01*
X4765301Y-15849817D02*
X4784348Y-15840293D01*
X4784348Y-15840293D02*
X4831967Y-15840293D01*
X4831967Y-15840293D02*
X4851015Y-15830769D01*
X4946253Y-15783150D02*
X4946253Y-15983150D01*
X4946253Y-15792674D02*
X4965301Y-15783150D01*
X4965301Y-15783150D02*
X5003396Y-15783150D01*
X5003396Y-15783150D02*
X5022444Y-15792674D01*
X5022444Y-15792674D02*
X5031967Y-15802198D01*
X5031967Y-15802198D02*
X5041491Y-15821246D01*
X5041491Y-15821246D02*
X5041491Y-15878388D01*
X5041491Y-15878388D02*
X5031967Y-15897436D01*
X5031967Y-15897436D02*
X5022444Y-15906960D01*
X5022444Y-15906960D02*
X5003396Y-15916484D01*
X5003396Y-15916484D02*
X4965301Y-15916484D01*
X4965301Y-15916484D02*
X4946253Y-15906960D01*
X5127205Y-15897436D02*
X5136729Y-15906960D01*
X5136729Y-15906960D02*
X5127205Y-15916484D01*
X5127205Y-15916484D02*
X5117682Y-15906960D01*
X5117682Y-15906960D02*
X5127205Y-15897436D01*
X5127205Y-15897436D02*
X5127205Y-15916484D01*
X5127205Y-15792674D02*
X5136729Y-15802198D01*
X5136729Y-15802198D02*
X5127205Y-15811722D01*
X5127205Y-15811722D02*
X5117682Y-15802198D01*
X5117682Y-15802198D02*
X5127205Y-15792674D01*
X5127205Y-15792674D02*
X5127205Y-15811722D01*
D11*
X3465000Y-16230000D02*
X3495000Y-16260000D01*
X3495000Y-16230000D02*
X3465000Y-16260000D01*
D12*
X3793872Y-16136484D02*
X3812920Y-16136484D01*
X3812920Y-16136484D02*
X3831967Y-16146008D01*
X3831967Y-16146008D02*
X3841491Y-16155531D01*
X3841491Y-16155531D02*
X3851015Y-16174579D01*
X3851015Y-16174579D02*
X3860539Y-16212674D01*
X3860539Y-16212674D02*
X3860539Y-16260293D01*
X3860539Y-16260293D02*
X3851015Y-16298388D01*
X3851015Y-16298388D02*
X3841491Y-16317436D01*
X3841491Y-16317436D02*
X3831967Y-16326960D01*
X3831967Y-16326960D02*
X3812920Y-16336484D01*
X3812920Y-16336484D02*
X3793872Y-16336484D01*
X3793872Y-16336484D02*
X3774824Y-16326960D01*
X3774824Y-16326960D02*
X3765301Y-16317436D01*
X3765301Y-16317436D02*
X3755777Y-16298388D01*
X3755777Y-16298388D02*
X3746253Y-16260293D01*
X3746253Y-16260293D02*
X3746253Y-16212674D01*
X3746253Y-16212674D02*
X3755777Y-16174579D01*
X3755777Y-16174579D02*
X3765301Y-16155531D01*
X3765301Y-16155531D02*
X3774824Y-16146008D01*
X3774824Y-16146008D02*
X3793872Y-16136484D01*
X3946253Y-16317436D02*
X3955777Y-16326960D01*
X3955777Y-16326960D02*
X3946253Y-16336484D01*
X3946253Y-16336484D02*
X3936729Y-16326960D01*
X3936729Y-16326960D02*
X3946253Y-16317436D01*
X3946253Y-16317436D02*
X3946253Y-16336484D01*
X4022443Y-16136484D02*
X4146253Y-16136484D01*
X4146253Y-16136484D02*
X4079586Y-16212674D01*
X4079586Y-16212674D02*
X4108158Y-16212674D01*
X4108158Y-16212674D02*
X4127205Y-16222198D01*
X4127205Y-16222198D02*
X4136729Y-16231722D01*
X4136729Y-16231722D02*
X4146253Y-16250769D01*
X4146253Y-16250769D02*
X4146253Y-16298388D01*
X4146253Y-16298388D02*
X4136729Y-16317436D01*
X4136729Y-16317436D02*
X4127205Y-16326960D01*
X4127205Y-16326960D02*
X4108158Y-16336484D01*
X4108158Y-16336484D02*
X4051015Y-16336484D01*
X4051015Y-16336484D02*
X4031967Y-16326960D01*
X4031967Y-16326960D02*
X4022443Y-16317436D01*
X4270063Y-16136484D02*
X4289110Y-16136484D01*
X4289110Y-16136484D02*
X4308158Y-16146008D01*
X4308158Y-16146008D02*
X4317682Y-16155531D01*
X4317682Y-16155531D02*
X4327205Y-16174579D01*
X4327205Y-16174579D02*
X4336729Y-16212674D01*
X4336729Y-16212674D02*
X4336729Y-16260293D01*
X4336729Y-16260293D02*
X4327205Y-16298388D01*
X4327205Y-16298388D02*
X4317682Y-16317436D01*
X4317682Y-16317436D02*
X4308158Y-16326960D01*
X4308158Y-16326960D02*
X4289110Y-16336484D01*
X4289110Y-16336484D02*
X4270063Y-16336484D01*
X4270063Y-16336484D02*
X4251015Y-16326960D01*
X4251015Y-16326960D02*
X4241491Y-16317436D01*
X4241491Y-16317436D02*
X4231967Y-16298388D01*
X4231967Y-16298388D02*
X4222444Y-16260293D01*
X4222444Y-16260293D02*
X4222444Y-16212674D01*
X4222444Y-16212674D02*
X4231967Y-16174579D01*
X4231967Y-16174579D02*
X4241491Y-16155531D01*
X4241491Y-16155531D02*
X4251015Y-16146008D01*
X4251015Y-16146008D02*
X4270063Y-16136484D01*
X4460539Y-16136484D02*
X4479586Y-16136484D01*
X4479586Y-16136484D02*
X4498634Y-16146008D01*
X4498634Y-16146008D02*
X4508158Y-16155531D01*
X4508158Y-16155531D02*
X4517682Y-16174579D01*
X4517682Y-16174579D02*
X4527205Y-16212674D01*
X4527205Y-16212674D02*
X4527205Y-16260293D01*
X4527205Y-16260293D02*
X4517682Y-16298388D01*
X4517682Y-16298388D02*
X4508158Y-16317436D01*
X4508158Y-16317436D02*
X4498634Y-16326960D01*
X4498634Y-16326960D02*
X4479586Y-16336484D01*
X4479586Y-16336484D02*
X4460539Y-16336484D01*
X4460539Y-16336484D02*
X4441491Y-16326960D01*
X4441491Y-16326960D02*
X4431967Y-16317436D01*
X4431967Y-16317436D02*
X4422444Y-16298388D01*
X4422444Y-16298388D02*
X4412920Y-16260293D01*
X4412920Y-16260293D02*
X4412920Y-16212674D01*
X4412920Y-16212674D02*
X4422444Y-16174579D01*
X4422444Y-16174579D02*
X4431967Y-16155531D01*
X4431967Y-16155531D02*
X4441491Y-16146008D01*
X4441491Y-16146008D02*
X4460539Y-16136484D01*
X4612920Y-16336484D02*
X4612920Y-16203150D01*
X4612920Y-16222198D02*
X4622444Y-16212674D01*
X4622444Y-16212674D02*
X4641491Y-16203150D01*
X4641491Y-16203150D02*
X4670063Y-16203150D01*
X4670063Y-16203150D02*
X4689110Y-16212674D01*
X4689110Y-16212674D02*
X4698634Y-16231722D01*
X4698634Y-16231722D02*
X4698634Y-16336484D01*
X4698634Y-16231722D02*
X4708158Y-16212674D01*
X4708158Y-16212674D02*
X4727205Y-16203150D01*
X4727205Y-16203150D02*
X4755777Y-16203150D01*
X4755777Y-16203150D02*
X4774825Y-16212674D01*
X4774825Y-16212674D02*
X4784348Y-16231722D01*
X4784348Y-16231722D02*
X4784348Y-16336484D01*
X4879586Y-16336484D02*
X4879586Y-16203150D01*
X4879586Y-16222198D02*
X4889110Y-16212674D01*
X4889110Y-16212674D02*
X4908158Y-16203150D01*
X4908158Y-16203150D02*
X4936729Y-16203150D01*
X4936729Y-16203150D02*
X4955777Y-16212674D01*
X4955777Y-16212674D02*
X4965301Y-16231722D01*
X4965301Y-16231722D02*
X4965301Y-16336484D01*
X4965301Y-16231722D02*
X4974825Y-16212674D01*
X4974825Y-16212674D02*
X4993872Y-16203150D01*
X4993872Y-16203150D02*
X5022444Y-16203150D01*
X5022444Y-16203150D02*
X5041491Y-16212674D01*
X5041491Y-16212674D02*
X5051015Y-16231722D01*
X5051015Y-16231722D02*
X5051015Y-16336484D01*
X5441491Y-16126960D02*
X5270063Y-16384103D01*
X5698634Y-16136484D02*
X5717682Y-16136484D01*
X5717682Y-16136484D02*
X5736729Y-16146008D01*
X5736729Y-16146008D02*
X5746253Y-16155531D01*
X5746253Y-16155531D02*
X5755777Y-16174579D01*
X5755777Y-16174579D02*
X5765301Y-16212674D01*
X5765301Y-16212674D02*
X5765301Y-16260293D01*
X5765301Y-16260293D02*
X5755777Y-16298388D01*
X5755777Y-16298388D02*
X5746253Y-16317436D01*
X5746253Y-16317436D02*
X5736729Y-16326960D01*
X5736729Y-16326960D02*
X5717682Y-16336484D01*
X5717682Y-16336484D02*
X5698634Y-16336484D01*
X5698634Y-16336484D02*
X5679586Y-16326960D01*
X5679586Y-16326960D02*
X5670063Y-16317436D01*
X5670063Y-16317436D02*
X5660539Y-16298388D01*
X5660539Y-16298388D02*
X5651015Y-16260293D01*
X5651015Y-16260293D02*
X5651015Y-16212674D01*
X5651015Y-16212674D02*
X5660539Y-16174579D01*
X5660539Y-16174579D02*
X5670063Y-16155531D01*
X5670063Y-16155531D02*
X5679586Y-16146008D01*
X5679586Y-16146008D02*
X5698634Y-16136484D01*
X5851015Y-16317436D02*
X5860539Y-16326960D01*
X5860539Y-16326960D02*
X5851015Y-16336484D01*
X5851015Y-16336484D02*
X5841491Y-16326960D01*
X5841491Y-16326960D02*
X5851015Y-16317436D01*
X5851015Y-16317436D02*
X5851015Y-16336484D01*
X5984348Y-16136484D02*
X6003396Y-16136484D01*
X6003396Y-16136484D02*
X6022444Y-16146008D01*
X6022444Y-16146008D02*
X6031967Y-16155531D01*
X6031967Y-16155531D02*
X6041491Y-16174579D01*
X6041491Y-16174579D02*
X6051015Y-16212674D01*
X6051015Y-16212674D02*
X6051015Y-16260293D01*
X6051015Y-16260293D02*
X6041491Y-16298388D01*
X6041491Y-16298388D02*
X6031967Y-16317436D01*
X6031967Y-16317436D02*
X6022444Y-16326960D01*
X6022444Y-16326960D02*
X6003396Y-16336484D01*
X6003396Y-16336484D02*
X5984348Y-16336484D01*
X5984348Y-16336484D02*
X5965301Y-16326960D01*
X5965301Y-16326960D02*
X5955777Y-16317436D01*
X5955777Y-16317436D02*
X5946253Y-16298388D01*
X5946253Y-16298388D02*
X5936729Y-16260293D01*
X5936729Y-16260293D02*
X5936729Y-16212674D01*
X5936729Y-16212674D02*
X5946253Y-16174579D01*
X5946253Y-16174579D02*
X5955777Y-16155531D01*
X5955777Y-16155531D02*
X5965301Y-16146008D01*
X5965301Y-16146008D02*
X5984348Y-16136484D01*
X6241491Y-16336484D02*
X6127206Y-16336484D01*
X6184348Y-16336484D02*
X6184348Y-16136484D01*
X6184348Y-16136484D02*
X6165301Y-16165055D01*
X6165301Y-16165055D02*
X6146253Y-16184103D01*
X6146253Y-16184103D02*
X6127206Y-16193627D01*
X6431967Y-16336484D02*
X6317682Y-16336484D01*
X6374825Y-16336484D02*
X6374825Y-16136484D01*
X6374825Y-16136484D02*
X6355777Y-16165055D01*
X6355777Y-16165055D02*
X6336729Y-16184103D01*
X6336729Y-16184103D02*
X6317682Y-16193627D01*
X6546253Y-16222198D02*
X6527206Y-16212674D01*
X6527206Y-16212674D02*
X6517682Y-16203150D01*
X6517682Y-16203150D02*
X6508158Y-16184103D01*
X6508158Y-16184103D02*
X6508158Y-16174579D01*
X6508158Y-16174579D02*
X6517682Y-16155531D01*
X6517682Y-16155531D02*
X6527206Y-16146008D01*
X6527206Y-16146008D02*
X6546253Y-16136484D01*
X6546253Y-16136484D02*
X6584348Y-16136484D01*
X6584348Y-16136484D02*
X6603396Y-16146008D01*
X6603396Y-16146008D02*
X6612920Y-16155531D01*
X6612920Y-16155531D02*
X6622444Y-16174579D01*
X6622444Y-16174579D02*
X6622444Y-16184103D01*
X6622444Y-16184103D02*
X6612920Y-16203150D01*
X6612920Y-16203150D02*
X6603396Y-16212674D01*
X6603396Y-16212674D02*
X6584348Y-16222198D01*
X6584348Y-16222198D02*
X6546253Y-16222198D01*
X6546253Y-16222198D02*
X6527206Y-16231722D01*
X6527206Y-16231722D02*
X6517682Y-16241246D01*
X6517682Y-16241246D02*
X6508158Y-16260293D01*
X6508158Y-16260293D02*
X6508158Y-16298388D01*
X6508158Y-16298388D02*
X6517682Y-16317436D01*
X6517682Y-16317436D02*
X6527206Y-16326960D01*
X6527206Y-16326960D02*
X6546253Y-16336484D01*
X6546253Y-16336484D02*
X6584348Y-16336484D01*
X6584348Y-16336484D02*
X6603396Y-16326960D01*
X6603396Y-16326960D02*
X6612920Y-16317436D01*
X6612920Y-16317436D02*
X6622444Y-16298388D01*
X6622444Y-16298388D02*
X6622444Y-16260293D01*
X6622444Y-16260293D02*
X6612920Y-16241246D01*
X6612920Y-16241246D02*
X6603396Y-16231722D01*
X6603396Y-16231722D02*
X6584348Y-16222198D01*
X6698634Y-16136484D02*
X6698634Y-16174579D01*
X6774825Y-16136484D02*
X6774825Y-16174579D01*
X7070063Y-16412674D02*
X7060539Y-16403150D01*
X7060539Y-16403150D02*
X7041491Y-16374579D01*
X7041491Y-16374579D02*
X7031968Y-16355531D01*
X7031968Y-16355531D02*
X7022444Y-16326960D01*
X7022444Y-16326960D02*
X7012920Y-16279341D01*
X7012920Y-16279341D02*
X7012920Y-16241246D01*
X7012920Y-16241246D02*
X7022444Y-16193627D01*
X7022444Y-16193627D02*
X7031968Y-16165055D01*
X7031968Y-16165055D02*
X7041491Y-16146008D01*
X7041491Y-16146008D02*
X7060539Y-16117436D01*
X7060539Y-16117436D02*
X7070063Y-16107912D01*
X7231968Y-16136484D02*
X7193872Y-16136484D01*
X7193872Y-16136484D02*
X7174825Y-16146008D01*
X7174825Y-16146008D02*
X7165301Y-16155531D01*
X7165301Y-16155531D02*
X7146253Y-16184103D01*
X7146253Y-16184103D02*
X7136729Y-16222198D01*
X7136729Y-16222198D02*
X7136729Y-16298388D01*
X7136729Y-16298388D02*
X7146253Y-16317436D01*
X7146253Y-16317436D02*
X7155777Y-16326960D01*
X7155777Y-16326960D02*
X7174825Y-16336484D01*
X7174825Y-16336484D02*
X7212920Y-16336484D01*
X7212920Y-16336484D02*
X7231968Y-16326960D01*
X7231968Y-16326960D02*
X7241491Y-16317436D01*
X7241491Y-16317436D02*
X7251015Y-16298388D01*
X7251015Y-16298388D02*
X7251015Y-16250769D01*
X7251015Y-16250769D02*
X7241491Y-16231722D01*
X7241491Y-16231722D02*
X7231968Y-16222198D01*
X7231968Y-16222198D02*
X7212920Y-16212674D01*
X7212920Y-16212674D02*
X7174825Y-16212674D01*
X7174825Y-16212674D02*
X7155777Y-16222198D01*
X7155777Y-16222198D02*
X7146253Y-16231722D01*
X7146253Y-16231722D02*
X7136729Y-16250769D01*
X7422444Y-16203150D02*
X7422444Y-16336484D01*
X7374825Y-16126960D02*
X7327206Y-16269817D01*
X7327206Y-16269817D02*
X7451015Y-16269817D01*
X7679587Y-16336484D02*
X7679587Y-16136484D01*
X7765301Y-16336484D02*
X7765301Y-16231722D01*
X7765301Y-16231722D02*
X7755777Y-16212674D01*
X7755777Y-16212674D02*
X7736730Y-16203150D01*
X7736730Y-16203150D02*
X7708158Y-16203150D01*
X7708158Y-16203150D02*
X7689110Y-16212674D01*
X7689110Y-16212674D02*
X7679587Y-16222198D01*
X7889110Y-16336484D02*
X7870063Y-16326960D01*
X7870063Y-16326960D02*
X7860539Y-16317436D01*
X7860539Y-16317436D02*
X7851015Y-16298388D01*
X7851015Y-16298388D02*
X7851015Y-16241246D01*
X7851015Y-16241246D02*
X7860539Y-16222198D01*
X7860539Y-16222198D02*
X7870063Y-16212674D01*
X7870063Y-16212674D02*
X7889110Y-16203150D01*
X7889110Y-16203150D02*
X7917682Y-16203150D01*
X7917682Y-16203150D02*
X7936730Y-16212674D01*
X7936730Y-16212674D02*
X7946253Y-16222198D01*
X7946253Y-16222198D02*
X7955777Y-16241246D01*
X7955777Y-16241246D02*
X7955777Y-16298388D01*
X7955777Y-16298388D02*
X7946253Y-16317436D01*
X7946253Y-16317436D02*
X7936730Y-16326960D01*
X7936730Y-16326960D02*
X7917682Y-16336484D01*
X7917682Y-16336484D02*
X7889110Y-16336484D01*
X8070063Y-16336484D02*
X8051015Y-16326960D01*
X8051015Y-16326960D02*
X8041491Y-16307912D01*
X8041491Y-16307912D02*
X8041491Y-16136484D01*
X8222444Y-16326960D02*
X8203396Y-16336484D01*
X8203396Y-16336484D02*
X8165301Y-16336484D01*
X8165301Y-16336484D02*
X8146253Y-16326960D01*
X8146253Y-16326960D02*
X8136730Y-16307912D01*
X8136730Y-16307912D02*
X8136730Y-16231722D01*
X8136730Y-16231722D02*
X8146253Y-16212674D01*
X8146253Y-16212674D02*
X8165301Y-16203150D01*
X8165301Y-16203150D02*
X8203396Y-16203150D01*
X8203396Y-16203150D02*
X8222444Y-16212674D01*
X8222444Y-16212674D02*
X8231968Y-16231722D01*
X8231968Y-16231722D02*
X8231968Y-16250769D01*
X8231968Y-16250769D02*
X8136730Y-16269817D01*
X8308158Y-16326960D02*
X8327206Y-16336484D01*
X8327206Y-16336484D02*
X8365301Y-16336484D01*
X8365301Y-16336484D02*
X8384349Y-16326960D01*
X8384349Y-16326960D02*
X8393873Y-16307912D01*
X8393873Y-16307912D02*
X8393873Y-16298388D01*
X8393873Y-16298388D02*
X8384349Y-16279341D01*
X8384349Y-16279341D02*
X8365301Y-16269817D01*
X8365301Y-16269817D02*
X8336730Y-16269817D01*
X8336730Y-16269817D02*
X8317682Y-16260293D01*
X8317682Y-16260293D02*
X8308158Y-16241246D01*
X8308158Y-16241246D02*
X8308158Y-16231722D01*
X8308158Y-16231722D02*
X8317682Y-16212674D01*
X8317682Y-16212674D02*
X8336730Y-16203150D01*
X8336730Y-16203150D02*
X8365301Y-16203150D01*
X8365301Y-16203150D02*
X8384349Y-16212674D01*
X8460539Y-16412674D02*
X8470063Y-16403150D01*
X8470063Y-16403150D02*
X8489111Y-16374579D01*
X8489111Y-16374579D02*
X8498634Y-16355531D01*
X8498634Y-16355531D02*
X8508158Y-16326960D01*
X8508158Y-16326960D02*
X8517682Y-16279341D01*
X8517682Y-16279341D02*
X8517682Y-16241246D01*
X8517682Y-16241246D02*
X8508158Y-16193627D01*
X8508158Y-16193627D02*
X8498634Y-16165055D01*
X8498634Y-16165055D02*
X8489111Y-16146008D01*
X8489111Y-16146008D02*
X8470063Y-16117436D01*
X8470063Y-16117436D02*
X8460539Y-16107912D01*
D11*
X3495000Y-16509000D02*
G75*
G02*
X3395000Y-16509000I-50000J0D01*
G01*
X3395000Y-16509000D02*
G75*
G02*
X3495000Y-16509000I50000J0D01*
G01*
D12*
X3860539Y-16600484D02*
X3746253Y-16600484D01*
X3803396Y-16600484D02*
X3803396Y-16400484D01*
X3803396Y-16400484D02*
X3784348Y-16429055D01*
X3784348Y-16429055D02*
X3765301Y-16448103D01*
X3765301Y-16448103D02*
X3746253Y-16457627D01*
X3946253Y-16581436D02*
X3955777Y-16590960D01*
X3955777Y-16590960D02*
X3946253Y-16600484D01*
X3946253Y-16600484D02*
X3936729Y-16590960D01*
X3936729Y-16590960D02*
X3946253Y-16581436D01*
X3946253Y-16581436D02*
X3946253Y-16600484D01*
X4079586Y-16400484D02*
X4098634Y-16400484D01*
X4098634Y-16400484D02*
X4117682Y-16410008D01*
X4117682Y-16410008D02*
X4127205Y-16419531D01*
X4127205Y-16419531D02*
X4136729Y-16438579D01*
X4136729Y-16438579D02*
X4146253Y-16476674D01*
X4146253Y-16476674D02*
X4146253Y-16524293D01*
X4146253Y-16524293D02*
X4136729Y-16562388D01*
X4136729Y-16562388D02*
X4127205Y-16581436D01*
X4127205Y-16581436D02*
X4117682Y-16590960D01*
X4117682Y-16590960D02*
X4098634Y-16600484D01*
X4098634Y-16600484D02*
X4079586Y-16600484D01*
X4079586Y-16600484D02*
X4060539Y-16590960D01*
X4060539Y-16590960D02*
X4051015Y-16581436D01*
X4051015Y-16581436D02*
X4041491Y-16562388D01*
X4041491Y-16562388D02*
X4031967Y-16524293D01*
X4031967Y-16524293D02*
X4031967Y-16476674D01*
X4031967Y-16476674D02*
X4041491Y-16438579D01*
X4041491Y-16438579D02*
X4051015Y-16419531D01*
X4051015Y-16419531D02*
X4060539Y-16410008D01*
X4060539Y-16410008D02*
X4079586Y-16400484D01*
X4270063Y-16400484D02*
X4289110Y-16400484D01*
X4289110Y-16400484D02*
X4308158Y-16410008D01*
X4308158Y-16410008D02*
X4317682Y-16419531D01*
X4317682Y-16419531D02*
X4327205Y-16438579D01*
X4327205Y-16438579D02*
X4336729Y-16476674D01*
X4336729Y-16476674D02*
X4336729Y-16524293D01*
X4336729Y-16524293D02*
X4327205Y-16562388D01*
X4327205Y-16562388D02*
X4317682Y-16581436D01*
X4317682Y-16581436D02*
X4308158Y-16590960D01*
X4308158Y-16590960D02*
X4289110Y-16600484D01*
X4289110Y-16600484D02*
X4270063Y-16600484D01*
X4270063Y-16600484D02*
X4251015Y-16590960D01*
X4251015Y-16590960D02*
X4241491Y-16581436D01*
X4241491Y-16581436D02*
X4231967Y-16562388D01*
X4231967Y-16562388D02*
X4222444Y-16524293D01*
X4222444Y-16524293D02*
X4222444Y-16476674D01*
X4222444Y-16476674D02*
X4231967Y-16438579D01*
X4231967Y-16438579D02*
X4241491Y-16419531D01*
X4241491Y-16419531D02*
X4251015Y-16410008D01*
X4251015Y-16410008D02*
X4270063Y-16400484D01*
X4460539Y-16400484D02*
X4479586Y-16400484D01*
X4479586Y-16400484D02*
X4498634Y-16410008D01*
X4498634Y-16410008D02*
X4508158Y-16419531D01*
X4508158Y-16419531D02*
X4517682Y-16438579D01*
X4517682Y-16438579D02*
X4527205Y-16476674D01*
X4527205Y-16476674D02*
X4527205Y-16524293D01*
X4527205Y-16524293D02*
X4517682Y-16562388D01*
X4517682Y-16562388D02*
X4508158Y-16581436D01*
X4508158Y-16581436D02*
X4498634Y-16590960D01*
X4498634Y-16590960D02*
X4479586Y-16600484D01*
X4479586Y-16600484D02*
X4460539Y-16600484D01*
X4460539Y-16600484D02*
X4441491Y-16590960D01*
X4441491Y-16590960D02*
X4431967Y-16581436D01*
X4431967Y-16581436D02*
X4422444Y-16562388D01*
X4422444Y-16562388D02*
X4412920Y-16524293D01*
X4412920Y-16524293D02*
X4412920Y-16476674D01*
X4412920Y-16476674D02*
X4422444Y-16438579D01*
X4422444Y-16438579D02*
X4431967Y-16419531D01*
X4431967Y-16419531D02*
X4441491Y-16410008D01*
X4441491Y-16410008D02*
X4460539Y-16400484D01*
X4612920Y-16600484D02*
X4612920Y-16467150D01*
X4612920Y-16486198D02*
X4622444Y-16476674D01*
X4622444Y-16476674D02*
X4641491Y-16467150D01*
X4641491Y-16467150D02*
X4670063Y-16467150D01*
X4670063Y-16467150D02*
X4689110Y-16476674D01*
X4689110Y-16476674D02*
X4698634Y-16495722D01*
X4698634Y-16495722D02*
X4698634Y-16600484D01*
X4698634Y-16495722D02*
X4708158Y-16476674D01*
X4708158Y-16476674D02*
X4727205Y-16467150D01*
X4727205Y-16467150D02*
X4755777Y-16467150D01*
X4755777Y-16467150D02*
X4774825Y-16476674D01*
X4774825Y-16476674D02*
X4784348Y-16495722D01*
X4784348Y-16495722D02*
X4784348Y-16600484D01*
X4879586Y-16600484D02*
X4879586Y-16467150D01*
X4879586Y-16486198D02*
X4889110Y-16476674D01*
X4889110Y-16476674D02*
X4908158Y-16467150D01*
X4908158Y-16467150D02*
X4936729Y-16467150D01*
X4936729Y-16467150D02*
X4955777Y-16476674D01*
X4955777Y-16476674D02*
X4965301Y-16495722D01*
X4965301Y-16495722D02*
X4965301Y-16600484D01*
X4965301Y-16495722D02*
X4974825Y-16476674D01*
X4974825Y-16476674D02*
X4993872Y-16467150D01*
X4993872Y-16467150D02*
X5022444Y-16467150D01*
X5022444Y-16467150D02*
X5041491Y-16476674D01*
X5041491Y-16476674D02*
X5051015Y-16495722D01*
X5051015Y-16495722D02*
X5051015Y-16600484D01*
X5441491Y-16390960D02*
X5270063Y-16648103D01*
X5698634Y-16400484D02*
X5717682Y-16400484D01*
X5717682Y-16400484D02*
X5736729Y-16410008D01*
X5736729Y-16410008D02*
X5746253Y-16419531D01*
X5746253Y-16419531D02*
X5755777Y-16438579D01*
X5755777Y-16438579D02*
X5765301Y-16476674D01*
X5765301Y-16476674D02*
X5765301Y-16524293D01*
X5765301Y-16524293D02*
X5755777Y-16562388D01*
X5755777Y-16562388D02*
X5746253Y-16581436D01*
X5746253Y-16581436D02*
X5736729Y-16590960D01*
X5736729Y-16590960D02*
X5717682Y-16600484D01*
X5717682Y-16600484D02*
X5698634Y-16600484D01*
X5698634Y-16600484D02*
X5679586Y-16590960D01*
X5679586Y-16590960D02*
X5670063Y-16581436D01*
X5670063Y-16581436D02*
X5660539Y-16562388D01*
X5660539Y-16562388D02*
X5651015Y-16524293D01*
X5651015Y-16524293D02*
X5651015Y-16476674D01*
X5651015Y-16476674D02*
X5660539Y-16438579D01*
X5660539Y-16438579D02*
X5670063Y-16419531D01*
X5670063Y-16419531D02*
X5679586Y-16410008D01*
X5679586Y-16410008D02*
X5698634Y-16400484D01*
X5851015Y-16581436D02*
X5860539Y-16590960D01*
X5860539Y-16590960D02*
X5851015Y-16600484D01*
X5851015Y-16600484D02*
X5841491Y-16590960D01*
X5841491Y-16590960D02*
X5851015Y-16581436D01*
X5851015Y-16581436D02*
X5851015Y-16600484D01*
X5984348Y-16400484D02*
X6003396Y-16400484D01*
X6003396Y-16400484D02*
X6022444Y-16410008D01*
X6022444Y-16410008D02*
X6031967Y-16419531D01*
X6031967Y-16419531D02*
X6041491Y-16438579D01*
X6041491Y-16438579D02*
X6051015Y-16476674D01*
X6051015Y-16476674D02*
X6051015Y-16524293D01*
X6051015Y-16524293D02*
X6041491Y-16562388D01*
X6041491Y-16562388D02*
X6031967Y-16581436D01*
X6031967Y-16581436D02*
X6022444Y-16590960D01*
X6022444Y-16590960D02*
X6003396Y-16600484D01*
X6003396Y-16600484D02*
X5984348Y-16600484D01*
X5984348Y-16600484D02*
X5965301Y-16590960D01*
X5965301Y-16590960D02*
X5955777Y-16581436D01*
X5955777Y-16581436D02*
X5946253Y-16562388D01*
X5946253Y-16562388D02*
X5936729Y-16524293D01*
X5936729Y-16524293D02*
X5936729Y-16476674D01*
X5936729Y-16476674D02*
X5946253Y-16438579D01*
X5946253Y-16438579D02*
X5955777Y-16419531D01*
X5955777Y-16419531D02*
X5965301Y-16410008D01*
X5965301Y-16410008D02*
X5984348Y-16400484D01*
X6117682Y-16400484D02*
X6241491Y-16400484D01*
X6241491Y-16400484D02*
X6174825Y-16476674D01*
X6174825Y-16476674D02*
X6203396Y-16476674D01*
X6203396Y-16476674D02*
X6222444Y-16486198D01*
X6222444Y-16486198D02*
X6231967Y-16495722D01*
X6231967Y-16495722D02*
X6241491Y-16514769D01*
X6241491Y-16514769D02*
X6241491Y-16562388D01*
X6241491Y-16562388D02*
X6231967Y-16581436D01*
X6231967Y-16581436D02*
X6222444Y-16590960D01*
X6222444Y-16590960D02*
X6203396Y-16600484D01*
X6203396Y-16600484D02*
X6146253Y-16600484D01*
X6146253Y-16600484D02*
X6127206Y-16590960D01*
X6127206Y-16590960D02*
X6117682Y-16581436D01*
X6336729Y-16600484D02*
X6374825Y-16600484D01*
X6374825Y-16600484D02*
X6393872Y-16590960D01*
X6393872Y-16590960D02*
X6403396Y-16581436D01*
X6403396Y-16581436D02*
X6422444Y-16552865D01*
X6422444Y-16552865D02*
X6431967Y-16514769D01*
X6431967Y-16514769D02*
X6431967Y-16438579D01*
X6431967Y-16438579D02*
X6422444Y-16419531D01*
X6422444Y-16419531D02*
X6412920Y-16410008D01*
X6412920Y-16410008D02*
X6393872Y-16400484D01*
X6393872Y-16400484D02*
X6355777Y-16400484D01*
X6355777Y-16400484D02*
X6336729Y-16410008D01*
X6336729Y-16410008D02*
X6327206Y-16419531D01*
X6327206Y-16419531D02*
X6317682Y-16438579D01*
X6317682Y-16438579D02*
X6317682Y-16486198D01*
X6317682Y-16486198D02*
X6327206Y-16505246D01*
X6327206Y-16505246D02*
X6336729Y-16514769D01*
X6336729Y-16514769D02*
X6355777Y-16524293D01*
X6355777Y-16524293D02*
X6393872Y-16524293D01*
X6393872Y-16524293D02*
X6412920Y-16514769D01*
X6412920Y-16514769D02*
X6422444Y-16505246D01*
X6422444Y-16505246D02*
X6431967Y-16486198D01*
X6603396Y-16467150D02*
X6603396Y-16600484D01*
X6555777Y-16390960D02*
X6508158Y-16533817D01*
X6508158Y-16533817D02*
X6631967Y-16533817D01*
X6698634Y-16400484D02*
X6698634Y-16438579D01*
X6774825Y-16400484D02*
X6774825Y-16438579D01*
X7070063Y-16676674D02*
X7060539Y-16667150D01*
X7060539Y-16667150D02*
X7041491Y-16638579D01*
X7041491Y-16638579D02*
X7031968Y-16619531D01*
X7031968Y-16619531D02*
X7022444Y-16590960D01*
X7022444Y-16590960D02*
X7012920Y-16543341D01*
X7012920Y-16543341D02*
X7012920Y-16505246D01*
X7012920Y-16505246D02*
X7022444Y-16457627D01*
X7022444Y-16457627D02*
X7031968Y-16429055D01*
X7031968Y-16429055D02*
X7041491Y-16410008D01*
X7041491Y-16410008D02*
X7060539Y-16381436D01*
X7060539Y-16381436D02*
X7070063Y-16371912D01*
X7241491Y-16400484D02*
X7146253Y-16400484D01*
X7146253Y-16400484D02*
X7136729Y-16495722D01*
X7136729Y-16495722D02*
X7146253Y-16486198D01*
X7146253Y-16486198D02*
X7165301Y-16476674D01*
X7165301Y-16476674D02*
X7212920Y-16476674D01*
X7212920Y-16476674D02*
X7231968Y-16486198D01*
X7231968Y-16486198D02*
X7241491Y-16495722D01*
X7241491Y-16495722D02*
X7251015Y-16514769D01*
X7251015Y-16514769D02*
X7251015Y-16562388D01*
X7251015Y-16562388D02*
X7241491Y-16581436D01*
X7241491Y-16581436D02*
X7231968Y-16590960D01*
X7231968Y-16590960D02*
X7212920Y-16600484D01*
X7212920Y-16600484D02*
X7165301Y-16600484D01*
X7165301Y-16600484D02*
X7146253Y-16590960D01*
X7146253Y-16590960D02*
X7136729Y-16581436D01*
X7489110Y-16600484D02*
X7489110Y-16400484D01*
X7574825Y-16600484D02*
X7574825Y-16495722D01*
X7574825Y-16495722D02*
X7565301Y-16476674D01*
X7565301Y-16476674D02*
X7546253Y-16467150D01*
X7546253Y-16467150D02*
X7517682Y-16467150D01*
X7517682Y-16467150D02*
X7498634Y-16476674D01*
X7498634Y-16476674D02*
X7489110Y-16486198D01*
X7698634Y-16600484D02*
X7679587Y-16590960D01*
X7679587Y-16590960D02*
X7670063Y-16581436D01*
X7670063Y-16581436D02*
X7660539Y-16562388D01*
X7660539Y-16562388D02*
X7660539Y-16505246D01*
X7660539Y-16505246D02*
X7670063Y-16486198D01*
X7670063Y-16486198D02*
X7679587Y-16476674D01*
X7679587Y-16476674D02*
X7698634Y-16467150D01*
X7698634Y-16467150D02*
X7727206Y-16467150D01*
X7727206Y-16467150D02*
X7746253Y-16476674D01*
X7746253Y-16476674D02*
X7755777Y-16486198D01*
X7755777Y-16486198D02*
X7765301Y-16505246D01*
X7765301Y-16505246D02*
X7765301Y-16562388D01*
X7765301Y-16562388D02*
X7755777Y-16581436D01*
X7755777Y-16581436D02*
X7746253Y-16590960D01*
X7746253Y-16590960D02*
X7727206Y-16600484D01*
X7727206Y-16600484D02*
X7698634Y-16600484D01*
X7879587Y-16600484D02*
X7860539Y-16590960D01*
X7860539Y-16590960D02*
X7851015Y-16571912D01*
X7851015Y-16571912D02*
X7851015Y-16400484D01*
X8031968Y-16590960D02*
X8012920Y-16600484D01*
X8012920Y-16600484D02*
X7974825Y-16600484D01*
X7974825Y-16600484D02*
X7955777Y-16590960D01*
X7955777Y-16590960D02*
X7946253Y-16571912D01*
X7946253Y-16571912D02*
X7946253Y-16495722D01*
X7946253Y-16495722D02*
X7955777Y-16476674D01*
X7955777Y-16476674D02*
X7974825Y-16467150D01*
X7974825Y-16467150D02*
X8012920Y-16467150D01*
X8012920Y-16467150D02*
X8031968Y-16476674D01*
X8031968Y-16476674D02*
X8041491Y-16495722D01*
X8041491Y-16495722D02*
X8041491Y-16514769D01*
X8041491Y-16514769D02*
X7946253Y-16533817D01*
X8117682Y-16590960D02*
X8136730Y-16600484D01*
X8136730Y-16600484D02*
X8174825Y-16600484D01*
X8174825Y-16600484D02*
X8193872Y-16590960D01*
X8193872Y-16590960D02*
X8203396Y-16571912D01*
X8203396Y-16571912D02*
X8203396Y-16562388D01*
X8203396Y-16562388D02*
X8193872Y-16543341D01*
X8193872Y-16543341D02*
X8174825Y-16533817D01*
X8174825Y-16533817D02*
X8146253Y-16533817D01*
X8146253Y-16533817D02*
X8127206Y-16524293D01*
X8127206Y-16524293D02*
X8117682Y-16505246D01*
X8117682Y-16505246D02*
X8117682Y-16495722D01*
X8117682Y-16495722D02*
X8127206Y-16476674D01*
X8127206Y-16476674D02*
X8146253Y-16467150D01*
X8146253Y-16467150D02*
X8174825Y-16467150D01*
X8174825Y-16467150D02*
X8193872Y-16476674D01*
X8270063Y-16676674D02*
X8279587Y-16667150D01*
X8279587Y-16667150D02*
X8298634Y-16638579D01*
X8298634Y-16638579D02*
X8308158Y-16619531D01*
X8308158Y-16619531D02*
X8317682Y-16590960D01*
X8317682Y-16590960D02*
X8327206Y-16543341D01*
X8327206Y-16543341D02*
X8327206Y-16505246D01*
X8327206Y-16505246D02*
X8317682Y-16457627D01*
X8317682Y-16457627D02*
X8308158Y-16429055D01*
X8308158Y-16429055D02*
X8298634Y-16410008D01*
X8298634Y-16410008D02*
X8279587Y-16381436D01*
X8279587Y-16381436D02*
X8270063Y-16371912D01*
D13*
X3442500Y-16720500D02*
X3442500Y-16825500D01*
X3390000Y-16773000D02*
X3495000Y-16773000D01*
D12*
X3860539Y-16864484D02*
X3746253Y-16864484D01*
X3803396Y-16864484D02*
X3803396Y-16664484D01*
X3803396Y-16664484D02*
X3784348Y-16693055D01*
X3784348Y-16693055D02*
X3765301Y-16712103D01*
X3765301Y-16712103D02*
X3746253Y-16721627D01*
X3946253Y-16845436D02*
X3955777Y-16854960D01*
X3955777Y-16854960D02*
X3946253Y-16864484D01*
X3946253Y-16864484D02*
X3936729Y-16854960D01*
X3936729Y-16854960D02*
X3946253Y-16845436D01*
X3946253Y-16845436D02*
X3946253Y-16864484D01*
X4079586Y-16664484D02*
X4098634Y-16664484D01*
X4098634Y-16664484D02*
X4117682Y-16674008D01*
X4117682Y-16674008D02*
X4127205Y-16683531D01*
X4127205Y-16683531D02*
X4136729Y-16702579D01*
X4136729Y-16702579D02*
X4146253Y-16740674D01*
X4146253Y-16740674D02*
X4146253Y-16788293D01*
X4146253Y-16788293D02*
X4136729Y-16826389D01*
X4136729Y-16826389D02*
X4127205Y-16845436D01*
X4127205Y-16845436D02*
X4117682Y-16854960D01*
X4117682Y-16854960D02*
X4098634Y-16864484D01*
X4098634Y-16864484D02*
X4079586Y-16864484D01*
X4079586Y-16864484D02*
X4060539Y-16854960D01*
X4060539Y-16854960D02*
X4051015Y-16845436D01*
X4051015Y-16845436D02*
X4041491Y-16826389D01*
X4041491Y-16826389D02*
X4031967Y-16788293D01*
X4031967Y-16788293D02*
X4031967Y-16740674D01*
X4031967Y-16740674D02*
X4041491Y-16702579D01*
X4041491Y-16702579D02*
X4051015Y-16683531D01*
X4051015Y-16683531D02*
X4060539Y-16674008D01*
X4060539Y-16674008D02*
X4079586Y-16664484D01*
X4327205Y-16664484D02*
X4231967Y-16664484D01*
X4231967Y-16664484D02*
X4222444Y-16759722D01*
X4222444Y-16759722D02*
X4231967Y-16750198D01*
X4231967Y-16750198D02*
X4251015Y-16740674D01*
X4251015Y-16740674D02*
X4298634Y-16740674D01*
X4298634Y-16740674D02*
X4317682Y-16750198D01*
X4317682Y-16750198D02*
X4327205Y-16759722D01*
X4327205Y-16759722D02*
X4336729Y-16778770D01*
X4336729Y-16778770D02*
X4336729Y-16826389D01*
X4336729Y-16826389D02*
X4327205Y-16845436D01*
X4327205Y-16845436D02*
X4317682Y-16854960D01*
X4317682Y-16854960D02*
X4298634Y-16864484D01*
X4298634Y-16864484D02*
X4251015Y-16864484D01*
X4251015Y-16864484D02*
X4231967Y-16854960D01*
X4231967Y-16854960D02*
X4222444Y-16845436D01*
X4460539Y-16664484D02*
X4479586Y-16664484D01*
X4479586Y-16664484D02*
X4498634Y-16674008D01*
X4498634Y-16674008D02*
X4508158Y-16683531D01*
X4508158Y-16683531D02*
X4517682Y-16702579D01*
X4517682Y-16702579D02*
X4527205Y-16740674D01*
X4527205Y-16740674D02*
X4527205Y-16788293D01*
X4527205Y-16788293D02*
X4517682Y-16826389D01*
X4517682Y-16826389D02*
X4508158Y-16845436D01*
X4508158Y-16845436D02*
X4498634Y-16854960D01*
X4498634Y-16854960D02*
X4479586Y-16864484D01*
X4479586Y-16864484D02*
X4460539Y-16864484D01*
X4460539Y-16864484D02*
X4441491Y-16854960D01*
X4441491Y-16854960D02*
X4431967Y-16845436D01*
X4431967Y-16845436D02*
X4422444Y-16826389D01*
X4422444Y-16826389D02*
X4412920Y-16788293D01*
X4412920Y-16788293D02*
X4412920Y-16740674D01*
X4412920Y-16740674D02*
X4422444Y-16702579D01*
X4422444Y-16702579D02*
X4431967Y-16683531D01*
X4431967Y-16683531D02*
X4441491Y-16674008D01*
X4441491Y-16674008D02*
X4460539Y-16664484D01*
X4612920Y-16864484D02*
X4612920Y-16731150D01*
X4612920Y-16750198D02*
X4622444Y-16740674D01*
X4622444Y-16740674D02*
X4641491Y-16731150D01*
X4641491Y-16731150D02*
X4670063Y-16731150D01*
X4670063Y-16731150D02*
X4689110Y-16740674D01*
X4689110Y-16740674D02*
X4698634Y-16759722D01*
X4698634Y-16759722D02*
X4698634Y-16864484D01*
X4698634Y-16759722D02*
X4708158Y-16740674D01*
X4708158Y-16740674D02*
X4727205Y-16731150D01*
X4727205Y-16731150D02*
X4755777Y-16731150D01*
X4755777Y-16731150D02*
X4774825Y-16740674D01*
X4774825Y-16740674D02*
X4784348Y-16759722D01*
X4784348Y-16759722D02*
X4784348Y-16864484D01*
X4879586Y-16864484D02*
X4879586Y-16731150D01*
X4879586Y-16750198D02*
X4889110Y-16740674D01*
X4889110Y-16740674D02*
X4908158Y-16731150D01*
X4908158Y-16731150D02*
X4936729Y-16731150D01*
X4936729Y-16731150D02*
X4955777Y-16740674D01*
X4955777Y-16740674D02*
X4965301Y-16759722D01*
X4965301Y-16759722D02*
X4965301Y-16864484D01*
X4965301Y-16759722D02*
X4974825Y-16740674D01*
X4974825Y-16740674D02*
X4993872Y-16731150D01*
X4993872Y-16731150D02*
X5022444Y-16731150D01*
X5022444Y-16731150D02*
X5041491Y-16740674D01*
X5041491Y-16740674D02*
X5051015Y-16759722D01*
X5051015Y-16759722D02*
X5051015Y-16864484D01*
X5441491Y-16654960D02*
X5270063Y-16912103D01*
X5698634Y-16664484D02*
X5717682Y-16664484D01*
X5717682Y-16664484D02*
X5736729Y-16674008D01*
X5736729Y-16674008D02*
X5746253Y-16683531D01*
X5746253Y-16683531D02*
X5755777Y-16702579D01*
X5755777Y-16702579D02*
X5765301Y-16740674D01*
X5765301Y-16740674D02*
X5765301Y-16788293D01*
X5765301Y-16788293D02*
X5755777Y-16826389D01*
X5755777Y-16826389D02*
X5746253Y-16845436D01*
X5746253Y-16845436D02*
X5736729Y-16854960D01*
X5736729Y-16854960D02*
X5717682Y-16864484D01*
X5717682Y-16864484D02*
X5698634Y-16864484D01*
X5698634Y-16864484D02*
X5679586Y-16854960D01*
X5679586Y-16854960D02*
X5670063Y-16845436D01*
X5670063Y-16845436D02*
X5660539Y-16826389D01*
X5660539Y-16826389D02*
X5651015Y-16788293D01*
X5651015Y-16788293D02*
X5651015Y-16740674D01*
X5651015Y-16740674D02*
X5660539Y-16702579D01*
X5660539Y-16702579D02*
X5670063Y-16683531D01*
X5670063Y-16683531D02*
X5679586Y-16674008D01*
X5679586Y-16674008D02*
X5698634Y-16664484D01*
X5851015Y-16845436D02*
X5860539Y-16854960D01*
X5860539Y-16854960D02*
X5851015Y-16864484D01*
X5851015Y-16864484D02*
X5841491Y-16854960D01*
X5841491Y-16854960D02*
X5851015Y-16845436D01*
X5851015Y-16845436D02*
X5851015Y-16864484D01*
X5984348Y-16664484D02*
X6003396Y-16664484D01*
X6003396Y-16664484D02*
X6022444Y-16674008D01*
X6022444Y-16674008D02*
X6031967Y-16683531D01*
X6031967Y-16683531D02*
X6041491Y-16702579D01*
X6041491Y-16702579D02*
X6051015Y-16740674D01*
X6051015Y-16740674D02*
X6051015Y-16788293D01*
X6051015Y-16788293D02*
X6041491Y-16826389D01*
X6041491Y-16826389D02*
X6031967Y-16845436D01*
X6031967Y-16845436D02*
X6022444Y-16854960D01*
X6022444Y-16854960D02*
X6003396Y-16864484D01*
X6003396Y-16864484D02*
X5984348Y-16864484D01*
X5984348Y-16864484D02*
X5965301Y-16854960D01*
X5965301Y-16854960D02*
X5955777Y-16845436D01*
X5955777Y-16845436D02*
X5946253Y-16826389D01*
X5946253Y-16826389D02*
X5936729Y-16788293D01*
X5936729Y-16788293D02*
X5936729Y-16740674D01*
X5936729Y-16740674D02*
X5946253Y-16702579D01*
X5946253Y-16702579D02*
X5955777Y-16683531D01*
X5955777Y-16683531D02*
X5965301Y-16674008D01*
X5965301Y-16674008D02*
X5984348Y-16664484D01*
X6222444Y-16731150D02*
X6222444Y-16864484D01*
X6174825Y-16654960D02*
X6127206Y-16797817D01*
X6127206Y-16797817D02*
X6251015Y-16797817D01*
X6431967Y-16864484D02*
X6317682Y-16864484D01*
X6374825Y-16864484D02*
X6374825Y-16664484D01*
X6374825Y-16664484D02*
X6355777Y-16693055D01*
X6355777Y-16693055D02*
X6336729Y-16712103D01*
X6336729Y-16712103D02*
X6317682Y-16721627D01*
X6498634Y-16664484D02*
X6622444Y-16664484D01*
X6622444Y-16664484D02*
X6555777Y-16740674D01*
X6555777Y-16740674D02*
X6584348Y-16740674D01*
X6584348Y-16740674D02*
X6603396Y-16750198D01*
X6603396Y-16750198D02*
X6612920Y-16759722D01*
X6612920Y-16759722D02*
X6622444Y-16778770D01*
X6622444Y-16778770D02*
X6622444Y-16826389D01*
X6622444Y-16826389D02*
X6612920Y-16845436D01*
X6612920Y-16845436D02*
X6603396Y-16854960D01*
X6603396Y-16854960D02*
X6584348Y-16864484D01*
X6584348Y-16864484D02*
X6527206Y-16864484D01*
X6527206Y-16864484D02*
X6508158Y-16854960D01*
X6508158Y-16854960D02*
X6498634Y-16845436D01*
X6698634Y-16664484D02*
X6698634Y-16702579D01*
X6774825Y-16664484D02*
X6774825Y-16702579D01*
X7070063Y-16940674D02*
X7060539Y-16931150D01*
X7060539Y-16931150D02*
X7041491Y-16902579D01*
X7041491Y-16902579D02*
X7031968Y-16883531D01*
X7031968Y-16883531D02*
X7022444Y-16854960D01*
X7022444Y-16854960D02*
X7012920Y-16807341D01*
X7012920Y-16807341D02*
X7012920Y-16769246D01*
X7012920Y-16769246D02*
X7022444Y-16721627D01*
X7022444Y-16721627D02*
X7031968Y-16693055D01*
X7031968Y-16693055D02*
X7041491Y-16674008D01*
X7041491Y-16674008D02*
X7060539Y-16645436D01*
X7060539Y-16645436D02*
X7070063Y-16635912D01*
X7251015Y-16864484D02*
X7136729Y-16864484D01*
X7193872Y-16864484D02*
X7193872Y-16664484D01*
X7193872Y-16664484D02*
X7174825Y-16693055D01*
X7174825Y-16693055D02*
X7155777Y-16712103D01*
X7155777Y-16712103D02*
X7136729Y-16721627D01*
X7441491Y-16864484D02*
X7327206Y-16864484D01*
X7384348Y-16864484D02*
X7384348Y-16664484D01*
X7384348Y-16664484D02*
X7365301Y-16693055D01*
X7365301Y-16693055D02*
X7346253Y-16712103D01*
X7346253Y-16712103D02*
X7327206Y-16721627D01*
X7612920Y-16664484D02*
X7574825Y-16664484D01*
X7574825Y-16664484D02*
X7555777Y-16674008D01*
X7555777Y-16674008D02*
X7546253Y-16683531D01*
X7546253Y-16683531D02*
X7527206Y-16712103D01*
X7527206Y-16712103D02*
X7517682Y-16750198D01*
X7517682Y-16750198D02*
X7517682Y-16826389D01*
X7517682Y-16826389D02*
X7527206Y-16845436D01*
X7527206Y-16845436D02*
X7536729Y-16854960D01*
X7536729Y-16854960D02*
X7555777Y-16864484D01*
X7555777Y-16864484D02*
X7593872Y-16864484D01*
X7593872Y-16864484D02*
X7612920Y-16854960D01*
X7612920Y-16854960D02*
X7622444Y-16845436D01*
X7622444Y-16845436D02*
X7631968Y-16826389D01*
X7631968Y-16826389D02*
X7631968Y-16778770D01*
X7631968Y-16778770D02*
X7622444Y-16759722D01*
X7622444Y-16759722D02*
X7612920Y-16750198D01*
X7612920Y-16750198D02*
X7593872Y-16740674D01*
X7593872Y-16740674D02*
X7555777Y-16740674D01*
X7555777Y-16740674D02*
X7536729Y-16750198D01*
X7536729Y-16750198D02*
X7527206Y-16759722D01*
X7527206Y-16759722D02*
X7517682Y-16778770D01*
X7870063Y-16864484D02*
X7870063Y-16664484D01*
X7955777Y-16864484D02*
X7955777Y-16759722D01*
X7955777Y-16759722D02*
X7946253Y-16740674D01*
X7946253Y-16740674D02*
X7927206Y-16731150D01*
X7927206Y-16731150D02*
X7898634Y-16731150D01*
X7898634Y-16731150D02*
X7879587Y-16740674D01*
X7879587Y-16740674D02*
X7870063Y-16750198D01*
X8079587Y-16864484D02*
X8060539Y-16854960D01*
X8060539Y-16854960D02*
X8051015Y-16845436D01*
X8051015Y-16845436D02*
X8041491Y-16826389D01*
X8041491Y-16826389D02*
X8041491Y-16769246D01*
X8041491Y-16769246D02*
X8051015Y-16750198D01*
X8051015Y-16750198D02*
X8060539Y-16740674D01*
X8060539Y-16740674D02*
X8079587Y-16731150D01*
X8079587Y-16731150D02*
X8108158Y-16731150D01*
X8108158Y-16731150D02*
X8127206Y-16740674D01*
X8127206Y-16740674D02*
X8136730Y-16750198D01*
X8136730Y-16750198D02*
X8146253Y-16769246D01*
X8146253Y-16769246D02*
X8146253Y-16826389D01*
X8146253Y-16826389D02*
X8136730Y-16845436D01*
X8136730Y-16845436D02*
X8127206Y-16854960D01*
X8127206Y-16854960D02*
X8108158Y-16864484D01*
X8108158Y-16864484D02*
X8079587Y-16864484D01*
X8260539Y-16864484D02*
X8241491Y-16854960D01*
X8241491Y-16854960D02*
X8231968Y-16835912D01*
X8231968Y-16835912D02*
X8231968Y-16664484D01*
X8412920Y-16854960D02*
X8393873Y-16864484D01*
X8393873Y-16864484D02*
X8355777Y-16864484D01*
X8355777Y-16864484D02*
X8336730Y-16854960D01*
X8336730Y-16854960D02*
X8327206Y-16835912D01*
X8327206Y-16835912D02*
X8327206Y-16759722D01*
X8327206Y-16759722D02*
X8336730Y-16740674D01*
X8336730Y-16740674D02*
X8355777Y-16731150D01*
X8355777Y-16731150D02*
X8393873Y-16731150D01*
X8393873Y-16731150D02*
X8412920Y-16740674D01*
X8412920Y-16740674D02*
X8422444Y-16759722D01*
X8422444Y-16759722D02*
X8422444Y-16778770D01*
X8422444Y-16778770D02*
X8327206Y-16797817D01*
X8498634Y-16854960D02*
X8517682Y-16864484D01*
X8517682Y-16864484D02*
X8555777Y-16864484D01*
X8555777Y-16864484D02*
X8574825Y-16854960D01*
X8574825Y-16854960D02*
X8584349Y-16835912D01*
X8584349Y-16835912D02*
X8584349Y-16826389D01*
X8584349Y-16826389D02*
X8574825Y-16807341D01*
X8574825Y-16807341D02*
X8555777Y-16797817D01*
X8555777Y-16797817D02*
X8527206Y-16797817D01*
X8527206Y-16797817D02*
X8508158Y-16788293D01*
X8508158Y-16788293D02*
X8498634Y-16769246D01*
X8498634Y-16769246D02*
X8498634Y-16759722D01*
X8498634Y-16759722D02*
X8508158Y-16740674D01*
X8508158Y-16740674D02*
X8527206Y-16731150D01*
X8527206Y-16731150D02*
X8555777Y-16731150D01*
X8555777Y-16731150D02*
X8574825Y-16740674D01*
X8651015Y-16940674D02*
X8660539Y-16931150D01*
X8660539Y-16931150D02*
X8679587Y-16902579D01*
X8679587Y-16902579D02*
X8689111Y-16883531D01*
X8689111Y-16883531D02*
X8698634Y-16854960D01*
X8698634Y-16854960D02*
X8708158Y-16807341D01*
X8708158Y-16807341D02*
X8708158Y-16769246D01*
X8708158Y-16769246D02*
X8698634Y-16721627D01*
X8698634Y-16721627D02*
X8689111Y-16693055D01*
X8689111Y-16693055D02*
X8679587Y-16674008D01*
X8679587Y-16674008D02*
X8660539Y-16645436D01*
X8660539Y-16645436D02*
X8651015Y-16635912D01*
M02*
