M48
; DRILL file {KiCad 8.0.8} date 2025-03-25T19:50:00+0900
; FORMAT={-:-/ absolute / metric / decimal}
; #@! TF.CreationDate,2025-03-25T19:50:00+09:00
; #@! TF.GenerationSoftware,Kicad,Pcbnew,8.0.8
; #@! TF.FileFunction,Plated,1,2,PTH
FMAT,2
METRIC
; #@! TA.AperFunction,Plated,PTH,ViaDrill
T1C0.300
; #@! TA.AperFunction,Plated,PTH,ComponentDrill
T2C1.000
; #@! TA.AperFunction,Plated,PTH,ComponentDrill
T3C1.050
%
G90
G05
T1
X79.756Y-82.804
X80.23Y-118.017
X86.302Y-131.477
X96.039Y-135.199
X105.888Y-126.134
X111.939Y-131.579
X114.57Y-118.362
X114.895Y-115.168
X125.335Y-120.584
X125.65Y-118.735
X125.776Y-131.54
X126.43Y-132.151
X129.77Y-117.755
X138.065Y-115.478
X139.182Y-135.205
X149.867Y-131.69
X149.942Y-116.236
X157.262Y-93.978
X157.607Y-80.391
X159.593Y-91.062
X160.797Y-121.417
X160.797Y-135.186
X165.126Y-120.469
X167.87Y-92.568
X170.96Y-135.207
X172.391Y-84.746
X173.375Y-83.843
X174.791Y-89.184
X175.135Y-72.975
X175.52Y-80.458
X175.922Y-86.13
X176.07Y-77.724
X176.392Y-68.291
X176.471Y-76.98
X177.181Y-71.482
X178.166Y-78.59
X178.677Y-80.581
X178.82Y-115.775
X179.403Y-131.692
X179.695Y-119.335
X180.411Y-77.597
X180.848Y-68.928
X181.102Y-95.504
X181.147Y-117.54
X181.448Y-67.437
X182.313Y-117.508
X184.143Y-135.753
X185.42Y-110.109
X185.468Y-117.548
X185.799Y-134.96
X188.615Y-116.686
X188.787Y-73.935
X190.774Y-73.076
X192.659Y-86.233
X192.973Y-112.328
X193.861Y-72.517
X194.763Y-131.037
X197.108Y-86.808
X198.062Y-79.919
X198.704Y-115.247
X198.706Y-81.302
X202.12Y-109.537
X205.218Y-78.246
X206.248Y-107.95
T2
X75.819Y-85.979
X78.359Y-85.979
X80.899Y-85.979
X83.439Y-85.979
X85.979Y-85.979
T3
X38.866Y-140.159
X38.866Y-144.659
X45.366Y-140.159
X45.366Y-144.659
X45.562Y-122.597
X45.562Y-127.097
X49.661Y-140.159
X49.661Y-144.659
X52.062Y-122.597
X52.062Y-127.097
X56.161Y-140.159
X56.161Y-144.659
X60.481Y-140.159
X60.481Y-144.659
X60.802Y-122.597
X60.802Y-127.097
X66.981Y-140.159
X66.981Y-144.659
X67.302Y-122.597
X67.302Y-127.097
X71.147Y-140.159
X71.147Y-144.659
X71.62Y-122.597
X71.62Y-127.097
X77.647Y-140.159
X77.647Y-144.659
X78.12Y-122.597
X78.12Y-127.097
X81.792Y-140.159
X81.792Y-144.659
X82.288Y-122.597
X82.288Y-127.097
X88.292Y-140.159
X88.292Y-144.659
X88.788Y-122.597
X88.788Y-127.097
X92.46Y-140.159
X92.46Y-144.659
X92.956Y-122.542
X92.956Y-127.042
X98.96Y-140.159
X98.96Y-144.659
X99.456Y-122.542
X99.456Y-127.042
X103.116Y-140.159
X103.116Y-144.659
X108.981Y-122.597
X108.981Y-127.097
X109.616Y-140.159
X109.616Y-144.659
X113.759Y-140.159
X113.759Y-144.659
X115.481Y-122.597
X115.481Y-127.097
X119.626Y-122.597
X119.626Y-127.097
X120.259Y-140.159
X120.259Y-144.659
X124.427Y-140.159
X124.427Y-144.659
X126.126Y-122.597
X126.126Y-127.097
X130.294Y-122.597
X130.294Y-127.097
X130.927Y-140.159
X130.927Y-144.659
X135.095Y-140.159
X135.095Y-144.659
X136.794Y-122.597
X136.794Y-127.097
X141.595Y-140.159
X141.595Y-144.659
X145.763Y-140.159
X145.763Y-144.659
X152.263Y-140.159
X152.263Y-144.659
X156.456Y-140.159
X156.456Y-144.659
X162.956Y-140.159
X162.956Y-144.659
X167.122Y-140.159
X167.122Y-144.659
X173.622Y-140.159
X173.622Y-144.659
X182.503Y-122.542
X182.503Y-127.042
X182.503Y-140.159
X182.503Y-144.659
X189.003Y-122.542
X189.003Y-127.042
X189.003Y-140.159
X189.003Y-144.659
X193.171Y-122.506
X193.171Y-127.006
X193.184Y-140.123
X193.184Y-144.623
X199.671Y-122.506
X199.671Y-127.006
X199.684Y-140.123
X199.684Y-144.623
X203.804Y-122.47
X203.804Y-126.97
X203.841Y-140.032
X203.841Y-144.532
X210.304Y-122.47
X210.304Y-126.97
X210.341Y-140.032
X210.341Y-144.532
X218.028Y-122.542
X218.028Y-127.042
X218.663Y-139.996
X218.663Y-144.496
X224.528Y-122.542
X224.528Y-127.042
X225.163Y-139.996
X225.163Y-144.496
M30
