M48
; DRILL file {KiCad 8.0.8} date 2025-03-23T17:18:37+0900
; FORMAT={-:-/ absolute / metric / decimal}
; #@! TF.CreationDate,2025-03-23T17:18:37+09:00
; #@! TF.GenerationSoftware,Kicad,Pcbnew,8.0.8
; #@! TF.FileFunction,Plated,1,2,PTH
FMAT,2
METRIC
; #@! TA.AperFunction,Plated,PTH,ViaDrill
T1C0.300
; #@! TA.AperFunction,Plated,PTH,ComponentDrill
T2C0.950
; #@! TA.AperFunction,Plated,PTH,ComponentDrill
T3C1.050
%
G90
G05
T1
X105.453Y-133.577
X108.711Y-136.071
X110.058Y-126.095
X110.085Y-119.513
X113.602Y-119.621
X115.207Y-119.06
X117.015Y-116.18
X117.15Y-135.376
X134.005Y-121.418
X135.509Y-118.399
X139.182Y-133.547
X147.154Y-121.831
X149.0Y-79.932
X149.911Y-116.206
X149.942Y-135.177
X153.749Y-114.344
X158.359Y-122.597
X159.066Y-120.016
X170.028Y-134.618
X171.0Y-107.904
X171.257Y-140.808
X173.0Y-108.0
X173.609Y-75.058
X175.031Y-78.313
X175.962Y-67.562
X176.17Y-117.583
X176.415Y-75.013
X177.299Y-116.168
X177.7Y-116.966
X178.102Y-118.33
X179.491Y-78.747
X180.07Y-137.182
X180.109Y-132.156
X180.205Y-120.666
X180.34Y-96.774
X180.551Y-81.873
X180.594Y-107.95
X181.622Y-134.541
X182.92Y-63.997
X184.759Y-117.739
X185.998Y-82.489
X186.047Y-135.152
X188.374Y-84.434
X189.032Y-82.292
X192.453Y-75.111
X192.57Y-68.737
X192.626Y-74.087
X192.862Y-82.405
X193.04Y-114.046
X193.6Y-95.255
X193.6Y-119.629
X193.8Y-84.372
X195.621Y-115.815
X196.857Y-123.136
T2
X75.971Y-86.021
X78.471Y-86.021
X80.971Y-86.021
X83.471Y-86.021
X85.971Y-86.021
T3
X38.866Y-140.159
X38.866Y-144.659
X45.366Y-140.159
X45.366Y-144.659
X45.562Y-122.597
X45.562Y-127.097
X49.661Y-140.159
X49.661Y-144.659
X52.062Y-122.597
X52.062Y-127.097
X56.161Y-140.159
X56.161Y-144.659
X60.481Y-140.159
X60.481Y-144.659
X60.802Y-122.597
X60.802Y-127.097
X66.981Y-140.159
X66.981Y-144.659
X67.302Y-122.597
X67.302Y-127.097
X71.147Y-140.159
X71.147Y-144.659
X71.62Y-122.597
X71.62Y-127.097
X77.647Y-140.159
X77.647Y-144.659
X78.12Y-122.597
X78.12Y-127.097
X81.792Y-140.159
X81.792Y-144.659
X82.288Y-122.597
X82.288Y-127.097
X88.292Y-140.159
X88.292Y-144.659
X88.788Y-122.597
X88.788Y-127.097
X92.46Y-140.159
X92.46Y-144.659
X92.956Y-122.542
X92.956Y-127.042
X98.96Y-140.159
X98.96Y-144.659
X99.456Y-122.542
X99.456Y-127.042
X103.116Y-140.159
X103.116Y-144.659
X108.981Y-122.597
X108.981Y-127.097
X109.616Y-140.159
X109.616Y-144.659
X113.759Y-140.159
X113.759Y-144.659
X115.481Y-122.597
X115.481Y-127.097
X119.626Y-122.597
X119.626Y-127.097
X120.259Y-140.159
X120.259Y-144.659
X124.427Y-140.159
X124.427Y-144.659
X126.126Y-122.597
X126.126Y-127.097
X130.294Y-122.597
X130.294Y-127.097
X130.927Y-140.159
X130.927Y-144.659
X135.095Y-140.159
X135.095Y-144.659
X136.794Y-122.597
X136.794Y-127.097
X141.595Y-140.159
X141.595Y-144.659
X145.763Y-140.159
X145.763Y-144.659
X152.263Y-140.159
X152.263Y-144.659
X156.456Y-140.159
X156.456Y-144.659
X162.956Y-140.159
X162.956Y-144.659
X167.122Y-140.159
X167.122Y-144.659
X173.622Y-140.159
X173.622Y-144.659
X182.503Y-122.542
X182.503Y-127.042
X182.503Y-140.159
X182.503Y-144.659
X189.003Y-122.542
X189.003Y-127.042
X189.003Y-140.159
X189.003Y-144.659
X193.171Y-122.506
X193.171Y-127.006
X193.184Y-140.123
X193.184Y-144.623
X199.671Y-122.506
X199.671Y-127.006
X199.684Y-140.123
X199.684Y-144.623
X203.804Y-122.47
X203.804Y-126.97
X203.841Y-140.032
X203.841Y-144.532
X210.304Y-122.47
X210.304Y-126.97
X210.341Y-140.032
X210.341Y-144.532
X218.028Y-122.542
X218.028Y-127.042
X218.663Y-139.996
X218.663Y-144.496
X224.528Y-122.542
X224.528Y-127.042
X225.163Y-139.996
X225.163Y-144.496
M30
