G04 #@! TF.GenerationSoftware,KiCad,Pcbnew,8.0.8*
G04 #@! TF.CreationDate,2025-01-25T18:59:26+09:00*
G04 #@! TF.ProjectId,LM13700_VCA,4c4d3133-3730-4305-9f56-43412e6b6963,rev?*
G04 #@! TF.SameCoordinates,Original*
G04 #@! TF.FileFunction,Soldermask,Bot*
G04 #@! TF.FilePolarity,Negative*
%FSLAX46Y46*%
G04 Gerber Fmt 4.6, Leading zero omitted, Abs format (unit mm)*
G04 Created by KiCad (PCBNEW 8.0.8) date 2025-01-25 18:59:26*
%MOMM*%
%LPD*%
G01*
G04 APERTURE LIST*
%ADD10C,1.600000*%
%ADD11O,1.600000X1.600000*%
%ADD12C,1.120000*%
%ADD13R,1.600000X1.600000*%
%ADD14R,1.700000X1.700000*%
%ADD15O,1.700000X1.700000*%
%ADD16C,2.400000*%
%ADD17C,1.635000*%
%ADD18R,1.300000X1.300000*%
%ADD19C,1.300000*%
%ADD20R,1.600000X2.400000*%
%ADD21O,1.600000X2.400000*%
%ADD22C,0.600000*%
G04 APERTURE END LIST*
D10*
X51435000Y-72945000D03*
D11*
X51435000Y-75485000D03*
D10*
X80010000Y-45720000D03*
D11*
X80010000Y-48260000D03*
D10*
X80010000Y-63500000D03*
D11*
X80010000Y-66040000D03*
D12*
X78740000Y-73550000D03*
X81280000Y-71010000D03*
X83820000Y-73550000D03*
D10*
X57150000Y-39370000D03*
X52150000Y-39370000D03*
D13*
X107950000Y-67945000D03*
D11*
X107950000Y-65405000D03*
D10*
X50800000Y-91440000D03*
D11*
X50800000Y-93980000D03*
D12*
X96520000Y-86640000D03*
X99060000Y-84100000D03*
X101600000Y-86640000D03*
D10*
X83820000Y-63500000D03*
D11*
X83820000Y-66040000D03*
D10*
X47625000Y-91440000D03*
D11*
X47625000Y-93980000D03*
D10*
X57785000Y-72945000D03*
D11*
X57785000Y-75485000D03*
D13*
X73500000Y-64000000D03*
D10*
X76000000Y-64000000D03*
D14*
X77470000Y-96520000D03*
D15*
X80010000Y-96520000D03*
D14*
X72390000Y-96520000D03*
D10*
X99060000Y-45720000D03*
D11*
X99060000Y-48260000D03*
D13*
X49530000Y-99695000D03*
D10*
X49530000Y-102195000D03*
X60960000Y-66040000D03*
D11*
X60960000Y-63500000D03*
D10*
X48260000Y-35560000D03*
D11*
X45720000Y-35560000D03*
D13*
X107950000Y-73660000D03*
D11*
X107950000Y-71120000D03*
D10*
X87630000Y-63500000D03*
D11*
X87630000Y-66040000D03*
D12*
X73660000Y-86640000D03*
X76200000Y-84100000D03*
X78740000Y-86640000D03*
D10*
X95250000Y-45720000D03*
D11*
X95250000Y-48260000D03*
D13*
X73700000Y-45085000D03*
D10*
X76200000Y-45085000D03*
X101600000Y-52070000D03*
D11*
X104140000Y-52070000D03*
D10*
X57150000Y-45720000D03*
D11*
X57150000Y-48260000D03*
D14*
X64770000Y-95250000D03*
D13*
X49530000Y-59690000D03*
D11*
X52070000Y-59690000D03*
X54610000Y-59690000D03*
X57150000Y-59690000D03*
X59690000Y-59690000D03*
X62230000Y-59690000D03*
X64770000Y-59690000D03*
X67310000Y-59690000D03*
X67310000Y-52070000D03*
X64770000Y-52070000D03*
X62230000Y-52070000D03*
X59690000Y-52070000D03*
X57150000Y-52070000D03*
X54610000Y-52070000D03*
X52070000Y-52070000D03*
X49530000Y-52070000D03*
D14*
X70470000Y-100990000D03*
D15*
X67930000Y-100990000D03*
X65390000Y-100990000D03*
D13*
X57785000Y-99695000D03*
D10*
X57785000Y-102195000D03*
D13*
X96520000Y-52070000D03*
D11*
X93980000Y-52070000D03*
X91440000Y-52070000D03*
X88900000Y-52070000D03*
X86360000Y-52070000D03*
X83820000Y-52070000D03*
X81280000Y-52070000D03*
X81280000Y-59690000D03*
X83820000Y-59690000D03*
X86360000Y-59690000D03*
X88900000Y-59690000D03*
X91440000Y-59690000D03*
X93980000Y-59690000D03*
X96520000Y-59690000D03*
D10*
X41950000Y-38100000D03*
D11*
X41950000Y-35560000D03*
D16*
X127000000Y-50800000D03*
X127000000Y-34500000D03*
X133300000Y-50800000D03*
X133300000Y-34500000D03*
X120700000Y-50800000D03*
X120700000Y-34500000D03*
D10*
X49530000Y-45720000D03*
D11*
X49530000Y-48260000D03*
D13*
X67310000Y-72945000D03*
D11*
X67310000Y-75485000D03*
D13*
X45680000Y-63500000D03*
D10*
X43180000Y-63500000D03*
X44450000Y-91440000D03*
D11*
X44450000Y-93980000D03*
D10*
X53975000Y-91440000D03*
D11*
X53975000Y-93980000D03*
D12*
X89139500Y-73660000D03*
X91679500Y-71120000D03*
X94219500Y-73660000D03*
D17*
X100965000Y-67310000D03*
X100965000Y-69850000D03*
X100965000Y-72390000D03*
X100965000Y-64770000D03*
X100965000Y-74930000D03*
D13*
X73500000Y-51000000D03*
D10*
X76000000Y-51000000D03*
X63500000Y-45720000D03*
D11*
X63500000Y-48260000D03*
D10*
X91440000Y-63500000D03*
D11*
X91440000Y-66040000D03*
D10*
X83820000Y-45720000D03*
D11*
X83820000Y-48260000D03*
D10*
X57150000Y-91440000D03*
D11*
X57150000Y-93980000D03*
D14*
X82550000Y-100965000D03*
D15*
X80010000Y-100965000D03*
X77470000Y-100965000D03*
D14*
X62865000Y-38665000D03*
D15*
X65405000Y-38665000D03*
X67945000Y-38665000D03*
X70485000Y-38665000D03*
D10*
X54610000Y-72945000D03*
D11*
X54610000Y-75485000D03*
D10*
X53340000Y-45720000D03*
D11*
X53340000Y-48260000D03*
D10*
X57150000Y-66040000D03*
D11*
X57150000Y-63500000D03*
D12*
X76200000Y-36830000D03*
X78740000Y-34290000D03*
X81280000Y-36830000D03*
D10*
X53340000Y-66040000D03*
D11*
X53340000Y-63500000D03*
D13*
X101600000Y-58420000D03*
D10*
X104100000Y-58420000D03*
D18*
X43180000Y-83185000D03*
D19*
X44450000Y-81915000D03*
X45720000Y-83185000D03*
D10*
X60960000Y-72945000D03*
D11*
X60960000Y-75485000D03*
D10*
X64135000Y-72945000D03*
D11*
X64135000Y-75485000D03*
D10*
X57070000Y-35560000D03*
X52070000Y-35560000D03*
D16*
X126950000Y-74930000D03*
X126950000Y-58630000D03*
X133250000Y-74930000D03*
X133250000Y-58630000D03*
X120650000Y-74930000D03*
X120650000Y-58630000D03*
D10*
X60325000Y-91440000D03*
D11*
X60325000Y-93980000D03*
D10*
X48260000Y-39370000D03*
D11*
X45720000Y-39370000D03*
D10*
X67310000Y-45720000D03*
D11*
X67310000Y-48260000D03*
D14*
X64770000Y-91440000D03*
D10*
X91440000Y-45720000D03*
D11*
X91440000Y-48260000D03*
D14*
X89530000Y-38665000D03*
D15*
X92070000Y-38665000D03*
D10*
X95250000Y-63500000D03*
D11*
X95250000Y-66040000D03*
D13*
X73500000Y-57000000D03*
D10*
X76000000Y-57000000D03*
D20*
X66045000Y-79305000D03*
D21*
X63505000Y-79305000D03*
X60965000Y-79305000D03*
X58425000Y-79305000D03*
X55885000Y-79305000D03*
X53345000Y-79305000D03*
X50805000Y-79305000D03*
X50805000Y-86925000D03*
X53345000Y-86925000D03*
X55885000Y-86925000D03*
X58425000Y-86925000D03*
X60965000Y-86925000D03*
X63505000Y-86925000D03*
X66045000Y-86925000D03*
D14*
X99695000Y-38665000D03*
D15*
X102235000Y-38665000D03*
D12*
X85329500Y-86640000D03*
X87869500Y-84100000D03*
X90409500Y-86640000D03*
D10*
X87630000Y-45720000D03*
D11*
X87630000Y-48260000D03*
D10*
X64770000Y-66040000D03*
D11*
X64770000Y-63500000D03*
D10*
X49530000Y-66040000D03*
D11*
X49530000Y-63500000D03*
D10*
X47625000Y-75485000D03*
X47625000Y-70485000D03*
D13*
X70485000Y-72945000D03*
D11*
X70485000Y-75485000D03*
D13*
X44450000Y-48260000D03*
D10*
X41950000Y-48260000D03*
D22*
X62230000Y-64516000D03*
X61468000Y-60960000D03*
X87884000Y-58166000D03*
X46736000Y-87884000D03*
X57658000Y-88900000D03*
X47498000Y-68326000D03*
X53340000Y-97282000D03*
X55118000Y-99568000D03*
X59690000Y-57150000D03*
X58928000Y-61722000D03*
X89408000Y-62484000D03*
M02*
