M48
; DRILL file {KiCad 8.0.8} date 2025-01-25T18:59:31+0900
; FORMAT={-:-/ absolute / metric / decimal}
; #@! TF.CreationDate,2025-01-25T18:59:31+09:00
; #@! TF.GenerationSoftware,Kicad,Pcbnew,8.0.8
; #@! TF.FileFunction,Plated,1,2,PTH
FMAT,2
METRIC
; #@! TA.AperFunction,Plated,PTH,ViaDrill
T1C0.400
; #@! TA.AperFunction,Plated,PTH,ComponentDrill
T2C0.690
; #@! TA.AperFunction,Plated,PTH,ComponentDrill
T3C0.750
; #@! TA.AperFunction,Plated,PTH,ComponentDrill
T4C0.800
; #@! TA.AperFunction,Plated,PTH,ComponentDrill
T5C1.000
; #@! TA.AperFunction,Plated,PTH,ComponentDrill
T6C1.090
; #@! TA.AperFunction,Plated,PTH,ComponentDrill
T7C1.600
%
G90
G05
T1
X46.736Y-87.884
X47.498Y-68.326
X53.34Y-97.282
X55.118Y-99.568
X57.658Y-88.9
X58.928Y-61.722
X59.69Y-57.15
X61.468Y-60.96
X62.23Y-64.516
X87.884Y-58.166
X89.408Y-62.484
T2
X73.66Y-86.64
X76.2Y-36.83
X76.2Y-84.1
X78.74Y-34.29
X78.74Y-73.55
X78.74Y-86.64
X81.28Y-36.83
X81.28Y-71.01
X83.82Y-73.55
X85.329Y-86.64
X87.87Y-84.1
X89.139Y-73.66
X90.409Y-86.64
X91.679Y-71.12
X94.219Y-73.66
X96.52Y-86.64
X99.06Y-84.1
X101.6Y-86.64
T3
X43.18Y-83.185
X44.45Y-81.915
X45.72Y-83.185
T4
X41.95Y-35.56
X41.95Y-38.1
X41.95Y-48.26
X43.18Y-63.5
X44.45Y-48.26
X44.45Y-91.44
X44.45Y-93.98
X45.68Y-63.5
X45.72Y-35.56
X45.72Y-39.37
X47.625Y-70.485
X47.625Y-75.485
X47.625Y-91.44
X47.625Y-93.98
X48.26Y-35.56
X48.26Y-39.37
X49.53Y-45.72
X49.53Y-48.26
X49.53Y-52.07
X49.53Y-59.69
X49.53Y-63.5
X49.53Y-66.04
X49.53Y-99.695
X49.53Y-102.195
X50.8Y-91.44
X50.8Y-93.98
X50.805Y-79.305
X50.805Y-86.925
X51.435Y-72.945
X51.435Y-75.485
X52.07Y-35.56
X52.07Y-52.07
X52.07Y-59.69
X52.15Y-39.37
X53.34Y-45.72
X53.34Y-48.26
X53.34Y-63.5
X53.34Y-66.04
X53.345Y-79.305
X53.345Y-86.925
X53.975Y-91.44
X53.975Y-93.98
X54.61Y-52.07
X54.61Y-59.69
X54.61Y-72.945
X54.61Y-75.485
X55.885Y-79.305
X55.885Y-86.925
X57.07Y-35.56
X57.15Y-39.37
X57.15Y-45.72
X57.15Y-48.26
X57.15Y-52.07
X57.15Y-59.69
X57.15Y-63.5
X57.15Y-66.04
X57.15Y-91.44
X57.15Y-93.98
X57.785Y-72.945
X57.785Y-75.485
X57.785Y-99.695
X57.785Y-102.195
X58.425Y-79.305
X58.425Y-86.925
X59.69Y-52.07
X59.69Y-59.69
X60.325Y-91.44
X60.325Y-93.98
X60.96Y-63.5
X60.96Y-66.04
X60.96Y-72.945
X60.96Y-75.485
X60.965Y-79.305
X60.965Y-86.925
X62.23Y-52.07
X62.23Y-59.69
X63.5Y-45.72
X63.5Y-48.26
X63.505Y-79.305
X63.505Y-86.925
X64.135Y-72.945
X64.135Y-75.485
X64.77Y-52.07
X64.77Y-59.69
X64.77Y-63.5
X64.77Y-66.04
X66.045Y-79.305
X66.045Y-86.925
X67.31Y-45.72
X67.31Y-48.26
X67.31Y-52.07
X67.31Y-59.69
X67.31Y-72.945
X67.31Y-75.485
X70.485Y-72.945
X70.485Y-75.485
X73.5Y-51.0
X73.5Y-57.0
X73.5Y-64.0
X73.7Y-45.085
X76.0Y-51.0
X76.0Y-57.0
X76.0Y-64.0
X76.2Y-45.085
X80.01Y-45.72
X80.01Y-48.26
X80.01Y-63.5
X80.01Y-66.04
X81.28Y-52.07
X81.28Y-59.69
X83.82Y-45.72
X83.82Y-48.26
X83.82Y-52.07
X83.82Y-59.69
X83.82Y-63.5
X83.82Y-66.04
X86.36Y-52.07
X86.36Y-59.69
X87.63Y-45.72
X87.63Y-48.26
X87.63Y-63.5
X87.63Y-66.04
X88.9Y-52.07
X88.9Y-59.69
X91.44Y-45.72
X91.44Y-48.26
X91.44Y-52.07
X91.44Y-59.69
X91.44Y-63.5
X91.44Y-66.04
X93.98Y-52.07
X93.98Y-59.69
X95.25Y-45.72
X95.25Y-48.26
X95.25Y-63.5
X95.25Y-66.04
X96.52Y-52.07
X96.52Y-59.69
X99.06Y-45.72
X99.06Y-48.26
X101.6Y-52.07
X101.6Y-58.42
X104.1Y-58.42
X104.14Y-52.07
X107.95Y-65.405
X107.95Y-67.945
X107.95Y-71.12
X107.95Y-73.66
T5
X62.865Y-38.665
X64.77Y-91.44
X64.77Y-95.25
X65.39Y-100.99
X65.405Y-38.665
X67.93Y-100.99
X67.945Y-38.665
X70.47Y-100.99
X70.485Y-38.665
X72.39Y-96.52
X77.47Y-96.52
X77.47Y-100.965
X80.01Y-96.52
X80.01Y-100.965
X82.55Y-100.965
X89.53Y-38.665
X92.07Y-38.665
X99.695Y-38.665
X102.235Y-38.665
T6
X100.965Y-64.77
X100.965Y-67.31
X100.965Y-69.85
X100.965Y-72.39
X100.965Y-74.93
T7
X120.65Y-58.63
X120.65Y-74.93
X120.7Y-34.5
X120.7Y-50.8
X126.95Y-58.63
X126.95Y-74.93
X127.0Y-34.5
X127.0Y-50.8
X133.25Y-58.63
X133.25Y-74.93
X133.3Y-34.5
X133.3Y-50.8
M30
