M48
; DRILL file {KiCad 8.0.8} date 2025-02-24T17:06:37+0900
; FORMAT={-:-/ absolute / metric / decimal}
; #@! TF.CreationDate,2025-02-24T17:06:37+09:00
; #@! TF.GenerationSoftware,Kicad,Pcbnew,8.0.8
; #@! TF.FileFunction,Plated,1,2,PTH
FMAT,2
METRIC
; #@! TA.AperFunction,Plated,PTH,ViaDrill
T1C0.300
; #@! TA.AperFunction,Plated,PTH,ComponentDrill
T2C0.690
; #@! TA.AperFunction,Plated,PTH,ComponentDrill
T3C0.800
; #@! TA.AperFunction,Plated,PTH,ComponentDrill
T4C1.000
; #@! TA.AperFunction,Plated,PTH,ComponentDrill
T5C1.090
; #@! TA.AperFunction,Plated,PTH,ComponentDrill
T6C1.600
%
G90
G05
T1
X97.79Y-62.23
X127.635Y-60.96
T2
X93.584Y-67.2
X96.124Y-64.66
X98.664Y-67.2
X100.569Y-79.265
X103.109Y-76.725
X105.649Y-79.265
X106.284Y-67.2
X108.825Y-64.66
X111.364Y-67.2
T3
X92.05Y-40.865
X92.075Y-58.42
X94.55Y-40.865
X94.575Y-58.42
X96.52Y-45.945
X96.52Y-53.565
X98.425Y-39.595
X98.425Y-42.135
X98.425Y-56.515
X98.425Y-59.055
X99.06Y-45.945
X99.06Y-53.565
X101.6Y-39.595
X101.6Y-42.135
X101.6Y-45.945
X101.6Y-53.565
X101.6Y-56.515
X101.6Y-59.055
X104.14Y-45.945
X104.14Y-53.565
X104.775Y-39.595
X104.775Y-42.135
X104.775Y-56.515
X104.775Y-59.055
X106.68Y-45.945
X106.68Y-53.565
X107.95Y-39.595
X107.95Y-42.135
X107.95Y-56.515
X107.95Y-59.055
X109.22Y-45.945
X109.22Y-53.565
X111.125Y-39.595
X111.125Y-42.135
X111.125Y-56.515
X111.125Y-59.055
X111.76Y-45.945
X111.76Y-53.565
X114.3Y-37.095
X114.3Y-42.095
X114.3Y-45.945
X114.3Y-53.565
X114.3Y-56.515
X114.3Y-59.055
X116.39Y-71.755
X116.84Y-74.93
X117.475Y-37.055
X117.475Y-42.055
X118.045Y-47.85
X118.045Y-50.39
X118.785Y-61.595
X118.93Y-71.755
X119.38Y-74.93
X121.285Y-47.85
X121.285Y-50.39
X121.285Y-61.595
X122.975Y-69.86
X122.975Y-72.4
X122.975Y-74.94
X122.975Y-77.48
X124.395Y-47.85
X124.395Y-50.39
X125.73Y-57.15
X125.73Y-64.77
X128.27Y-57.15
X128.27Y-64.77
X130.185Y-45.075
X130.185Y-52.695
X130.595Y-69.86
X130.595Y-72.4
X130.595Y-74.94
X130.595Y-77.48
X130.81Y-57.15
X130.81Y-64.77
X132.725Y-45.075
X132.725Y-52.695
X133.35Y-57.15
X133.35Y-64.77
X134.62Y-69.85
X134.62Y-73.025
X134.62Y-76.2
X134.62Y-79.375
X135.03Y-83.185
X135.03Y-85.685
X135.255Y-37.465
X135.255Y-40.005
X135.265Y-45.075
X135.265Y-52.695
X135.89Y-57.15
X135.89Y-64.77
X137.16Y-69.85
X137.16Y-73.025
X137.16Y-76.2
X137.16Y-79.375
X137.805Y-45.075
X137.805Y-52.695
X138.43Y-37.465
X138.43Y-40.005
X138.43Y-57.15
X138.43Y-64.77
X140.97Y-57.15
X140.97Y-64.77
X143.51Y-57.15
X143.51Y-64.77
X144.785Y-34.925
X144.785Y-37.425
T4
X121.93Y-40.57
X124.47Y-40.57
X125.095Y-85.725
X127.01Y-40.57
X127.635Y-85.725
X129.55Y-40.57
X146.05Y-43.18
X146.05Y-46.99
X149.86Y-43.18
X149.865Y-46.99
X152.4Y-43.18
X158.145Y-34.94
X158.145Y-37.48
X158.145Y-40.02
X158.145Y-45.72
X158.145Y-48.26
X158.145Y-50.8
T5
X151.765Y-60.325
X154.305Y-60.325
X156.845Y-60.325
X159.385Y-60.325
X161.925Y-60.325
T6
X151.815Y-70.485
X151.815Y-86.785
X158.115Y-70.485
X158.115Y-86.785
X164.415Y-70.485
X164.415Y-86.785
M30
