G04 #@! TF.GenerationSoftware,KiCad,Pcbnew,8.0.8*
G04 #@! TF.CreationDate,2025-02-24T17:06:16+09:00*
G04 #@! TF.ProjectId,LM13700_Overdrive,4c4d3133-3730-4305-9f4f-766572647269,rev?*
G04 #@! TF.SameCoordinates,Original*
G04 #@! TF.FileFunction,Legend,Top*
G04 #@! TF.FilePolarity,Positive*
%FSLAX46Y46*%
G04 Gerber Fmt 4.6, Leading zero omitted, Abs format (unit mm)*
G04 Created by KiCad (PCBNEW 8.0.8) date 2025-02-24 17:06:16*
%MOMM*%
%LPD*%
G01*
G04 APERTURE LIST*
%ADD10C,0.200000*%
%ADD11C,0.150000*%
%ADD12C,0.254000*%
%ADD13C,0.120000*%
%ADD14C,0.100000*%
%ADD15R,1.600000X1.600000*%
%ADD16O,1.600000X1.600000*%
%ADD17C,1.635000*%
%ADD18C,1.120000*%
%ADD19C,1.600000*%
%ADD20R,1.700000X1.700000*%
%ADD21O,1.700000X1.700000*%
%ADD22C,2.400000*%
G04 APERTURE END LIST*
D10*
X96794435Y-88091196D02*
X97651578Y-88091196D01*
X97223006Y-89591196D02*
X97223006Y-88091196D01*
X98651577Y-88805482D02*
X98865863Y-88876910D01*
X98865863Y-88876910D02*
X98937292Y-88948339D01*
X98937292Y-88948339D02*
X99008720Y-89091196D01*
X99008720Y-89091196D02*
X99008720Y-89305482D01*
X99008720Y-89305482D02*
X98937292Y-89448339D01*
X98937292Y-89448339D02*
X98865863Y-89519768D01*
X98865863Y-89519768D02*
X98723006Y-89591196D01*
X98723006Y-89591196D02*
X98151577Y-89591196D01*
X98151577Y-89591196D02*
X98151577Y-88091196D01*
X98151577Y-88091196D02*
X98651577Y-88091196D01*
X98651577Y-88091196D02*
X98794435Y-88162625D01*
X98794435Y-88162625D02*
X98865863Y-88234053D01*
X98865863Y-88234053D02*
X98937292Y-88376910D01*
X98937292Y-88376910D02*
X98937292Y-88519768D01*
X98937292Y-88519768D02*
X98865863Y-88662625D01*
X98865863Y-88662625D02*
X98794435Y-88734053D01*
X98794435Y-88734053D02*
X98651577Y-88805482D01*
X98651577Y-88805482D02*
X98151577Y-88805482D01*
X99437292Y-88091196D02*
X99937292Y-89591196D01*
X99937292Y-89591196D02*
X100437292Y-88091196D01*
X101794434Y-89448339D02*
X101723006Y-89519768D01*
X101723006Y-89519768D02*
X101508720Y-89591196D01*
X101508720Y-89591196D02*
X101365863Y-89591196D01*
X101365863Y-89591196D02*
X101151577Y-89519768D01*
X101151577Y-89519768D02*
X101008720Y-89376910D01*
X101008720Y-89376910D02*
X100937291Y-89234053D01*
X100937291Y-89234053D02*
X100865863Y-88948339D01*
X100865863Y-88948339D02*
X100865863Y-88734053D01*
X100865863Y-88734053D02*
X100937291Y-88448339D01*
X100937291Y-88448339D02*
X101008720Y-88305482D01*
X101008720Y-88305482D02*
X101151577Y-88162625D01*
X101151577Y-88162625D02*
X101365863Y-88091196D01*
X101365863Y-88091196D02*
X101508720Y-88091196D01*
X101508720Y-88091196D02*
X101723006Y-88162625D01*
X101723006Y-88162625D02*
X101794434Y-88234053D01*
X102365863Y-89162625D02*
X103080149Y-89162625D01*
X102223006Y-89591196D02*
X102723006Y-88091196D01*
X102723006Y-88091196D02*
X103223006Y-89591196D01*
X106080148Y-89591196D02*
X106008720Y-89591196D01*
X106008720Y-89591196D02*
X105865862Y-89519768D01*
X105865862Y-89519768D02*
X105651577Y-89305482D01*
X105651577Y-89305482D02*
X105294434Y-88876910D01*
X105294434Y-88876910D02*
X105151577Y-88662625D01*
X105151577Y-88662625D02*
X105080148Y-88448339D01*
X105080148Y-88448339D02*
X105080148Y-88305482D01*
X105080148Y-88305482D02*
X105151577Y-88162625D01*
X105151577Y-88162625D02*
X105294434Y-88091196D01*
X105294434Y-88091196D02*
X105365862Y-88091196D01*
X105365862Y-88091196D02*
X105508720Y-88162625D01*
X105508720Y-88162625D02*
X105580148Y-88305482D01*
X105580148Y-88305482D02*
X105580148Y-88376910D01*
X105580148Y-88376910D02*
X105508720Y-88519768D01*
X105508720Y-88519768D02*
X105437291Y-88591196D01*
X105437291Y-88591196D02*
X105008720Y-88876910D01*
X105008720Y-88876910D02*
X104937291Y-88948339D01*
X104937291Y-88948339D02*
X104865862Y-89091196D01*
X104865862Y-89091196D02*
X104865862Y-89305482D01*
X104865862Y-89305482D02*
X104937291Y-89448339D01*
X104937291Y-89448339D02*
X105008720Y-89519768D01*
X105008720Y-89519768D02*
X105151577Y-89591196D01*
X105151577Y-89591196D02*
X105365862Y-89591196D01*
X105365862Y-89591196D02*
X105508720Y-89519768D01*
X105508720Y-89519768D02*
X105580148Y-89448339D01*
X105580148Y-89448339D02*
X105794434Y-89162625D01*
X105794434Y-89162625D02*
X105865862Y-88948339D01*
X105865862Y-88948339D02*
X105865862Y-88805482D01*
X97294435Y-90506112D02*
X97580149Y-90506112D01*
X97580149Y-90506112D02*
X97723006Y-90577541D01*
X97723006Y-90577541D02*
X97865863Y-90720398D01*
X97865863Y-90720398D02*
X97937292Y-91006112D01*
X97937292Y-91006112D02*
X97937292Y-91506112D01*
X97937292Y-91506112D02*
X97865863Y-91791826D01*
X97865863Y-91791826D02*
X97723006Y-91934684D01*
X97723006Y-91934684D02*
X97580149Y-92006112D01*
X97580149Y-92006112D02*
X97294435Y-92006112D01*
X97294435Y-92006112D02*
X97151578Y-91934684D01*
X97151578Y-91934684D02*
X97008720Y-91791826D01*
X97008720Y-91791826D02*
X96937292Y-91506112D01*
X96937292Y-91506112D02*
X96937292Y-91006112D01*
X96937292Y-91006112D02*
X97008720Y-90720398D01*
X97008720Y-90720398D02*
X97151578Y-90577541D01*
X97151578Y-90577541D02*
X97294435Y-90506112D01*
X98365864Y-90506112D02*
X99223007Y-90506112D01*
X98794435Y-92006112D02*
X98794435Y-90506112D01*
X99651578Y-91577541D02*
X100365864Y-91577541D01*
X99508721Y-92006112D02*
X100008721Y-90506112D01*
X100008721Y-90506112D02*
X100508721Y-92006112D01*
X102437292Y-90506112D02*
X102723006Y-90506112D01*
X102723006Y-90506112D02*
X102865863Y-90577541D01*
X102865863Y-90577541D02*
X103008720Y-90720398D01*
X103008720Y-90720398D02*
X103080149Y-91006112D01*
X103080149Y-91006112D02*
X103080149Y-91506112D01*
X103080149Y-91506112D02*
X103008720Y-91791826D01*
X103008720Y-91791826D02*
X102865863Y-91934684D01*
X102865863Y-91934684D02*
X102723006Y-92006112D01*
X102723006Y-92006112D02*
X102437292Y-92006112D01*
X102437292Y-92006112D02*
X102294435Y-91934684D01*
X102294435Y-91934684D02*
X102151577Y-91791826D01*
X102151577Y-91791826D02*
X102080149Y-91506112D01*
X102080149Y-91506112D02*
X102080149Y-91006112D01*
X102080149Y-91006112D02*
X102151577Y-90720398D01*
X102151577Y-90720398D02*
X102294435Y-90577541D01*
X102294435Y-90577541D02*
X102437292Y-90506112D01*
X103580149Y-91006112D02*
X103937292Y-92006112D01*
X103937292Y-92006112D02*
X104294435Y-91006112D01*
X105437292Y-91934684D02*
X105294435Y-92006112D01*
X105294435Y-92006112D02*
X105008721Y-92006112D01*
X105008721Y-92006112D02*
X104865863Y-91934684D01*
X104865863Y-91934684D02*
X104794435Y-91791826D01*
X104794435Y-91791826D02*
X104794435Y-91220398D01*
X104794435Y-91220398D02*
X104865863Y-91077541D01*
X104865863Y-91077541D02*
X105008721Y-91006112D01*
X105008721Y-91006112D02*
X105294435Y-91006112D01*
X105294435Y-91006112D02*
X105437292Y-91077541D01*
X105437292Y-91077541D02*
X105508721Y-91220398D01*
X105508721Y-91220398D02*
X105508721Y-91363255D01*
X105508721Y-91363255D02*
X104794435Y-91506112D01*
X106151577Y-92006112D02*
X106151577Y-91006112D01*
X106151577Y-91291826D02*
X106223006Y-91148969D01*
X106223006Y-91148969D02*
X106294435Y-91077541D01*
X106294435Y-91077541D02*
X106437292Y-91006112D01*
X106437292Y-91006112D02*
X106580149Y-91006112D01*
X107080148Y-92006112D02*
X107080148Y-90506112D01*
X107080148Y-90506112D02*
X107437291Y-90506112D01*
X107437291Y-90506112D02*
X107651577Y-90577541D01*
X107651577Y-90577541D02*
X107794434Y-90720398D01*
X107794434Y-90720398D02*
X107865863Y-90863255D01*
X107865863Y-90863255D02*
X107937291Y-91148969D01*
X107937291Y-91148969D02*
X107937291Y-91363255D01*
X107937291Y-91363255D02*
X107865863Y-91648969D01*
X107865863Y-91648969D02*
X107794434Y-91791826D01*
X107794434Y-91791826D02*
X107651577Y-91934684D01*
X107651577Y-91934684D02*
X107437291Y-92006112D01*
X107437291Y-92006112D02*
X107080148Y-92006112D01*
X108580148Y-92006112D02*
X108580148Y-91006112D01*
X108580148Y-91291826D02*
X108651577Y-91148969D01*
X108651577Y-91148969D02*
X108723006Y-91077541D01*
X108723006Y-91077541D02*
X108865863Y-91006112D01*
X108865863Y-91006112D02*
X109008720Y-91006112D01*
X109508719Y-92006112D02*
X109508719Y-91006112D01*
X109508719Y-90506112D02*
X109437291Y-90577541D01*
X109437291Y-90577541D02*
X109508719Y-90648969D01*
X109508719Y-90648969D02*
X109580148Y-90577541D01*
X109580148Y-90577541D02*
X109508719Y-90506112D01*
X109508719Y-90506112D02*
X109508719Y-90648969D01*
X110080148Y-91006112D02*
X110437291Y-92006112D01*
X110437291Y-92006112D02*
X110794434Y-91006112D01*
X111937291Y-91934684D02*
X111794434Y-92006112D01*
X111794434Y-92006112D02*
X111508720Y-92006112D01*
X111508720Y-92006112D02*
X111365862Y-91934684D01*
X111365862Y-91934684D02*
X111294434Y-91791826D01*
X111294434Y-91791826D02*
X111294434Y-91220398D01*
X111294434Y-91220398D02*
X111365862Y-91077541D01*
X111365862Y-91077541D02*
X111508720Y-91006112D01*
X111508720Y-91006112D02*
X111794434Y-91006112D01*
X111794434Y-91006112D02*
X111937291Y-91077541D01*
X111937291Y-91077541D02*
X112008720Y-91220398D01*
X112008720Y-91220398D02*
X112008720Y-91363255D01*
X112008720Y-91363255D02*
X111294434Y-91506112D01*
X114294433Y-91220398D02*
X114508719Y-91291826D01*
X114508719Y-91291826D02*
X114580148Y-91363255D01*
X114580148Y-91363255D02*
X114651576Y-91506112D01*
X114651576Y-91506112D02*
X114651576Y-91720398D01*
X114651576Y-91720398D02*
X114580148Y-91863255D01*
X114580148Y-91863255D02*
X114508719Y-91934684D01*
X114508719Y-91934684D02*
X114365862Y-92006112D01*
X114365862Y-92006112D02*
X113794433Y-92006112D01*
X113794433Y-92006112D02*
X113794433Y-90506112D01*
X113794433Y-90506112D02*
X114294433Y-90506112D01*
X114294433Y-90506112D02*
X114437291Y-90577541D01*
X114437291Y-90577541D02*
X114508719Y-90648969D01*
X114508719Y-90648969D02*
X114580148Y-90791826D01*
X114580148Y-90791826D02*
X114580148Y-90934684D01*
X114580148Y-90934684D02*
X114508719Y-91077541D01*
X114508719Y-91077541D02*
X114437291Y-91148969D01*
X114437291Y-91148969D02*
X114294433Y-91220398D01*
X114294433Y-91220398D02*
X113794433Y-91220398D01*
X115508719Y-92006112D02*
X115365862Y-91934684D01*
X115365862Y-91934684D02*
X115294433Y-91863255D01*
X115294433Y-91863255D02*
X115223005Y-91720398D01*
X115223005Y-91720398D02*
X115223005Y-91291826D01*
X115223005Y-91291826D02*
X115294433Y-91148969D01*
X115294433Y-91148969D02*
X115365862Y-91077541D01*
X115365862Y-91077541D02*
X115508719Y-91006112D01*
X115508719Y-91006112D02*
X115723005Y-91006112D01*
X115723005Y-91006112D02*
X115865862Y-91077541D01*
X115865862Y-91077541D02*
X115937291Y-91148969D01*
X115937291Y-91148969D02*
X116008719Y-91291826D01*
X116008719Y-91291826D02*
X116008719Y-91720398D01*
X116008719Y-91720398D02*
X115937291Y-91863255D01*
X115937291Y-91863255D02*
X115865862Y-91934684D01*
X115865862Y-91934684D02*
X115723005Y-92006112D01*
X115723005Y-92006112D02*
X115508719Y-92006112D01*
X116651576Y-92006112D02*
X116651576Y-91006112D01*
X116651576Y-91291826D02*
X116723005Y-91148969D01*
X116723005Y-91148969D02*
X116794434Y-91077541D01*
X116794434Y-91077541D02*
X116937291Y-91006112D01*
X116937291Y-91006112D02*
X117080148Y-91006112D01*
X118223005Y-92006112D02*
X118223005Y-91220398D01*
X118223005Y-91220398D02*
X118151576Y-91077541D01*
X118151576Y-91077541D02*
X118008719Y-91006112D01*
X118008719Y-91006112D02*
X117723005Y-91006112D01*
X117723005Y-91006112D02*
X117580147Y-91077541D01*
X118223005Y-91934684D02*
X118080147Y-92006112D01*
X118080147Y-92006112D02*
X117723005Y-92006112D01*
X117723005Y-92006112D02*
X117580147Y-91934684D01*
X117580147Y-91934684D02*
X117508719Y-91791826D01*
X117508719Y-91791826D02*
X117508719Y-91648969D01*
X117508719Y-91648969D02*
X117580147Y-91506112D01*
X117580147Y-91506112D02*
X117723005Y-91434684D01*
X117723005Y-91434684D02*
X118080147Y-91434684D01*
X118080147Y-91434684D02*
X118223005Y-91363255D01*
X119580148Y-92006112D02*
X119580148Y-90506112D01*
X119580148Y-91934684D02*
X119437290Y-92006112D01*
X119437290Y-92006112D02*
X119151576Y-92006112D01*
X119151576Y-92006112D02*
X119008719Y-91934684D01*
X119008719Y-91934684D02*
X118937290Y-91863255D01*
X118937290Y-91863255D02*
X118865862Y-91720398D01*
X118865862Y-91720398D02*
X118865862Y-91291826D01*
X118865862Y-91291826D02*
X118937290Y-91148969D01*
X118937290Y-91148969D02*
X119008719Y-91077541D01*
X119008719Y-91077541D02*
X119151576Y-91006112D01*
X119151576Y-91006112D02*
X119437290Y-91006112D01*
X119437290Y-91006112D02*
X119580148Y-91077541D01*
X96937292Y-93063885D02*
X97008720Y-92992457D01*
X97008720Y-92992457D02*
X97151578Y-92921028D01*
X97151578Y-92921028D02*
X97508720Y-92921028D01*
X97508720Y-92921028D02*
X97651578Y-92992457D01*
X97651578Y-92992457D02*
X97723006Y-93063885D01*
X97723006Y-93063885D02*
X97794435Y-93206742D01*
X97794435Y-93206742D02*
X97794435Y-93349600D01*
X97794435Y-93349600D02*
X97723006Y-93563885D01*
X97723006Y-93563885D02*
X96865863Y-94421028D01*
X96865863Y-94421028D02*
X97794435Y-94421028D01*
X98723006Y-92921028D02*
X98865863Y-92921028D01*
X98865863Y-92921028D02*
X99008720Y-92992457D01*
X99008720Y-92992457D02*
X99080149Y-93063885D01*
X99080149Y-93063885D02*
X99151577Y-93206742D01*
X99151577Y-93206742D02*
X99223006Y-93492457D01*
X99223006Y-93492457D02*
X99223006Y-93849600D01*
X99223006Y-93849600D02*
X99151577Y-94135314D01*
X99151577Y-94135314D02*
X99080149Y-94278171D01*
X99080149Y-94278171D02*
X99008720Y-94349600D01*
X99008720Y-94349600D02*
X98865863Y-94421028D01*
X98865863Y-94421028D02*
X98723006Y-94421028D01*
X98723006Y-94421028D02*
X98580149Y-94349600D01*
X98580149Y-94349600D02*
X98508720Y-94278171D01*
X98508720Y-94278171D02*
X98437291Y-94135314D01*
X98437291Y-94135314D02*
X98365863Y-93849600D01*
X98365863Y-93849600D02*
X98365863Y-93492457D01*
X98365863Y-93492457D02*
X98437291Y-93206742D01*
X98437291Y-93206742D02*
X98508720Y-93063885D01*
X98508720Y-93063885D02*
X98580149Y-92992457D01*
X98580149Y-92992457D02*
X98723006Y-92921028D01*
X99794434Y-93063885D02*
X99865862Y-92992457D01*
X99865862Y-92992457D02*
X100008720Y-92921028D01*
X100008720Y-92921028D02*
X100365862Y-92921028D01*
X100365862Y-92921028D02*
X100508720Y-92992457D01*
X100508720Y-92992457D02*
X100580148Y-93063885D01*
X100580148Y-93063885D02*
X100651577Y-93206742D01*
X100651577Y-93206742D02*
X100651577Y-93349600D01*
X100651577Y-93349600D02*
X100580148Y-93563885D01*
X100580148Y-93563885D02*
X99723005Y-94421028D01*
X99723005Y-94421028D02*
X100651577Y-94421028D01*
X102008719Y-92921028D02*
X101294433Y-92921028D01*
X101294433Y-92921028D02*
X101223005Y-93635314D01*
X101223005Y-93635314D02*
X101294433Y-93563885D01*
X101294433Y-93563885D02*
X101437291Y-93492457D01*
X101437291Y-93492457D02*
X101794433Y-93492457D01*
X101794433Y-93492457D02*
X101937291Y-93563885D01*
X101937291Y-93563885D02*
X102008719Y-93635314D01*
X102008719Y-93635314D02*
X102080148Y-93778171D01*
X102080148Y-93778171D02*
X102080148Y-94135314D01*
X102080148Y-94135314D02*
X102008719Y-94278171D01*
X102008719Y-94278171D02*
X101937291Y-94349600D01*
X101937291Y-94349600D02*
X101794433Y-94421028D01*
X101794433Y-94421028D02*
X101437291Y-94421028D01*
X101437291Y-94421028D02*
X101294433Y-94349600D01*
X101294433Y-94349600D02*
X101223005Y-94278171D01*
X103794433Y-92849600D02*
X102508719Y-94778171D01*
X104223005Y-93063885D02*
X104294433Y-92992457D01*
X104294433Y-92992457D02*
X104437291Y-92921028D01*
X104437291Y-92921028D02*
X104794433Y-92921028D01*
X104794433Y-92921028D02*
X104937291Y-92992457D01*
X104937291Y-92992457D02*
X105008719Y-93063885D01*
X105008719Y-93063885D02*
X105080148Y-93206742D01*
X105080148Y-93206742D02*
X105080148Y-93349600D01*
X105080148Y-93349600D02*
X105008719Y-93563885D01*
X105008719Y-93563885D02*
X104151576Y-94421028D01*
X104151576Y-94421028D02*
X105080148Y-94421028D01*
X106794433Y-92849600D02*
X105508719Y-94778171D01*
X107223005Y-93063885D02*
X107294433Y-92992457D01*
X107294433Y-92992457D02*
X107437291Y-92921028D01*
X107437291Y-92921028D02*
X107794433Y-92921028D01*
X107794433Y-92921028D02*
X107937291Y-92992457D01*
X107937291Y-92992457D02*
X108008719Y-93063885D01*
X108008719Y-93063885D02*
X108080148Y-93206742D01*
X108080148Y-93206742D02*
X108080148Y-93349600D01*
X108080148Y-93349600D02*
X108008719Y-93563885D01*
X108008719Y-93563885D02*
X107151576Y-94421028D01*
X107151576Y-94421028D02*
X108080148Y-94421028D01*
X109365862Y-93421028D02*
X109365862Y-94421028D01*
X109008719Y-92849600D02*
X108651576Y-93921028D01*
X108651576Y-93921028D02*
X109580147Y-93921028D01*
D11*
X143164160Y-91024104D02*
X143640350Y-91024104D01*
X143068922Y-91309819D02*
X143402255Y-90309819D01*
X143402255Y-90309819D02*
X143735588Y-91309819D01*
X144497493Y-90643152D02*
X144497493Y-91309819D01*
X144068922Y-90643152D02*
X144068922Y-91166961D01*
X144068922Y-91166961D02*
X144116541Y-91262200D01*
X144116541Y-91262200D02*
X144211779Y-91309819D01*
X144211779Y-91309819D02*
X144354636Y-91309819D01*
X144354636Y-91309819D02*
X144449874Y-91262200D01*
X144449874Y-91262200D02*
X144497493Y-91214580D01*
X145402255Y-91309819D02*
X145402255Y-90309819D01*
X145402255Y-91262200D02*
X145307017Y-91309819D01*
X145307017Y-91309819D02*
X145116541Y-91309819D01*
X145116541Y-91309819D02*
X145021303Y-91262200D01*
X145021303Y-91262200D02*
X144973684Y-91214580D01*
X144973684Y-91214580D02*
X144926065Y-91119342D01*
X144926065Y-91119342D02*
X144926065Y-90833628D01*
X144926065Y-90833628D02*
X144973684Y-90738390D01*
X144973684Y-90738390D02*
X145021303Y-90690771D01*
X145021303Y-90690771D02*
X145116541Y-90643152D01*
X145116541Y-90643152D02*
X145307017Y-90643152D01*
X145307017Y-90643152D02*
X145402255Y-90690771D01*
X145878446Y-91309819D02*
X145878446Y-90643152D01*
X145878446Y-90309819D02*
X145830827Y-90357438D01*
X145830827Y-90357438D02*
X145878446Y-90405057D01*
X145878446Y-90405057D02*
X145926065Y-90357438D01*
X145926065Y-90357438D02*
X145878446Y-90309819D01*
X145878446Y-90309819D02*
X145878446Y-90405057D01*
X146497493Y-91309819D02*
X146402255Y-91262200D01*
X146402255Y-91262200D02*
X146354636Y-91214580D01*
X146354636Y-91214580D02*
X146307017Y-91119342D01*
X146307017Y-91119342D02*
X146307017Y-90833628D01*
X146307017Y-90833628D02*
X146354636Y-90738390D01*
X146354636Y-90738390D02*
X146402255Y-90690771D01*
X146402255Y-90690771D02*
X146497493Y-90643152D01*
X146497493Y-90643152D02*
X146640350Y-90643152D01*
X146640350Y-90643152D02*
X146735588Y-90690771D01*
X146735588Y-90690771D02*
X146783207Y-90738390D01*
X146783207Y-90738390D02*
X146830826Y-90833628D01*
X146830826Y-90833628D02*
X146830826Y-91119342D01*
X146830826Y-91119342D02*
X146783207Y-91214580D01*
X146783207Y-91214580D02*
X146735588Y-91262200D01*
X146735588Y-91262200D02*
X146640350Y-91309819D01*
X146640350Y-91309819D02*
X146497493Y-91309819D01*
X147449874Y-90309819D02*
X147640350Y-90309819D01*
X147640350Y-90309819D02*
X147735588Y-90357438D01*
X147735588Y-90357438D02*
X147830826Y-90452676D01*
X147830826Y-90452676D02*
X147878445Y-90643152D01*
X147878445Y-90643152D02*
X147878445Y-90976485D01*
X147878445Y-90976485D02*
X147830826Y-91166961D01*
X147830826Y-91166961D02*
X147735588Y-91262200D01*
X147735588Y-91262200D02*
X147640350Y-91309819D01*
X147640350Y-91309819D02*
X147449874Y-91309819D01*
X147449874Y-91309819D02*
X147354636Y-91262200D01*
X147354636Y-91262200D02*
X147259398Y-91166961D01*
X147259398Y-91166961D02*
X147211779Y-90976485D01*
X147211779Y-90976485D02*
X147211779Y-90643152D01*
X147211779Y-90643152D02*
X147259398Y-90452676D01*
X147259398Y-90452676D02*
X147354636Y-90357438D01*
X147354636Y-90357438D02*
X147449874Y-90309819D01*
X148735588Y-90643152D02*
X148735588Y-91309819D01*
X148307017Y-90643152D02*
X148307017Y-91166961D01*
X148307017Y-91166961D02*
X148354636Y-91262200D01*
X148354636Y-91262200D02*
X148449874Y-91309819D01*
X148449874Y-91309819D02*
X148592731Y-91309819D01*
X148592731Y-91309819D02*
X148687969Y-91262200D01*
X148687969Y-91262200D02*
X148735588Y-91214580D01*
X149068922Y-90643152D02*
X149449874Y-90643152D01*
X149211779Y-90309819D02*
X149211779Y-91166961D01*
X149211779Y-91166961D02*
X149259398Y-91262200D01*
X149259398Y-91262200D02*
X149354636Y-91309819D01*
X149354636Y-91309819D02*
X149449874Y-91309819D01*
X130394104Y-96230839D02*
X130394104Y-95754649D01*
X130679819Y-96326077D02*
X129679819Y-95992744D01*
X129679819Y-95992744D02*
X130679819Y-95659411D01*
X130013152Y-94897506D02*
X130679819Y-94897506D01*
X130013152Y-95326077D02*
X130536961Y-95326077D01*
X130536961Y-95326077D02*
X130632200Y-95278458D01*
X130632200Y-95278458D02*
X130679819Y-95183220D01*
X130679819Y-95183220D02*
X130679819Y-95040363D01*
X130679819Y-95040363D02*
X130632200Y-94945125D01*
X130632200Y-94945125D02*
X130584580Y-94897506D01*
X130679819Y-93992744D02*
X129679819Y-93992744D01*
X130632200Y-93992744D02*
X130679819Y-94087982D01*
X130679819Y-94087982D02*
X130679819Y-94278458D01*
X130679819Y-94278458D02*
X130632200Y-94373696D01*
X130632200Y-94373696D02*
X130584580Y-94421315D01*
X130584580Y-94421315D02*
X130489342Y-94468934D01*
X130489342Y-94468934D02*
X130203628Y-94468934D01*
X130203628Y-94468934D02*
X130108390Y-94421315D01*
X130108390Y-94421315D02*
X130060771Y-94373696D01*
X130060771Y-94373696D02*
X130013152Y-94278458D01*
X130013152Y-94278458D02*
X130013152Y-94087982D01*
X130013152Y-94087982D02*
X130060771Y-93992744D01*
X130679819Y-93516553D02*
X130013152Y-93516553D01*
X129679819Y-93516553D02*
X129727438Y-93564172D01*
X129727438Y-93564172D02*
X129775057Y-93516553D01*
X129775057Y-93516553D02*
X129727438Y-93468934D01*
X129727438Y-93468934D02*
X129679819Y-93516553D01*
X129679819Y-93516553D02*
X129775057Y-93516553D01*
X130679819Y-92897506D02*
X130632200Y-92992744D01*
X130632200Y-92992744D02*
X130584580Y-93040363D01*
X130584580Y-93040363D02*
X130489342Y-93087982D01*
X130489342Y-93087982D02*
X130203628Y-93087982D01*
X130203628Y-93087982D02*
X130108390Y-93040363D01*
X130108390Y-93040363D02*
X130060771Y-92992744D01*
X130060771Y-92992744D02*
X130013152Y-92897506D01*
X130013152Y-92897506D02*
X130013152Y-92754649D01*
X130013152Y-92754649D02*
X130060771Y-92659411D01*
X130060771Y-92659411D02*
X130108390Y-92611792D01*
X130108390Y-92611792D02*
X130203628Y-92564173D01*
X130203628Y-92564173D02*
X130489342Y-92564173D01*
X130489342Y-92564173D02*
X130584580Y-92611792D01*
X130584580Y-92611792D02*
X130632200Y-92659411D01*
X130632200Y-92659411D02*
X130679819Y-92754649D01*
X130679819Y-92754649D02*
X130679819Y-92897506D01*
X129679819Y-91945125D02*
X129679819Y-91754649D01*
X129679819Y-91754649D02*
X129727438Y-91659411D01*
X129727438Y-91659411D02*
X129822676Y-91564173D01*
X129822676Y-91564173D02*
X130013152Y-91516554D01*
X130013152Y-91516554D02*
X130346485Y-91516554D01*
X130346485Y-91516554D02*
X130536961Y-91564173D01*
X130536961Y-91564173D02*
X130632200Y-91659411D01*
X130632200Y-91659411D02*
X130679819Y-91754649D01*
X130679819Y-91754649D02*
X130679819Y-91945125D01*
X130679819Y-91945125D02*
X130632200Y-92040363D01*
X130632200Y-92040363D02*
X130536961Y-92135601D01*
X130536961Y-92135601D02*
X130346485Y-92183220D01*
X130346485Y-92183220D02*
X130013152Y-92183220D01*
X130013152Y-92183220D02*
X129822676Y-92135601D01*
X129822676Y-92135601D02*
X129727438Y-92040363D01*
X129727438Y-92040363D02*
X129679819Y-91945125D01*
X130013152Y-90659411D02*
X130679819Y-90659411D01*
X130013152Y-91087982D02*
X130536961Y-91087982D01*
X130536961Y-91087982D02*
X130632200Y-91040363D01*
X130632200Y-91040363D02*
X130679819Y-90945125D01*
X130679819Y-90945125D02*
X130679819Y-90802268D01*
X130679819Y-90802268D02*
X130632200Y-90707030D01*
X130632200Y-90707030D02*
X130584580Y-90659411D01*
X130013152Y-90326077D02*
X130013152Y-89945125D01*
X129679819Y-90183220D02*
X130536961Y-90183220D01*
X130536961Y-90183220D02*
X130632200Y-90135601D01*
X130632200Y-90135601D02*
X130679819Y-90040363D01*
X130679819Y-90040363D02*
X130679819Y-89945125D01*
X122107438Y-95659411D02*
X122059819Y-95754649D01*
X122059819Y-95754649D02*
X122059819Y-95897506D01*
X122059819Y-95897506D02*
X122107438Y-96040363D01*
X122107438Y-96040363D02*
X122202676Y-96135601D01*
X122202676Y-96135601D02*
X122297914Y-96183220D01*
X122297914Y-96183220D02*
X122488390Y-96230839D01*
X122488390Y-96230839D02*
X122631247Y-96230839D01*
X122631247Y-96230839D02*
X122821723Y-96183220D01*
X122821723Y-96183220D02*
X122916961Y-96135601D01*
X122916961Y-96135601D02*
X123012200Y-96040363D01*
X123012200Y-96040363D02*
X123059819Y-95897506D01*
X123059819Y-95897506D02*
X123059819Y-95802268D01*
X123059819Y-95802268D02*
X123012200Y-95659411D01*
X123012200Y-95659411D02*
X122964580Y-95611792D01*
X122964580Y-95611792D02*
X122631247Y-95611792D01*
X122631247Y-95611792D02*
X122631247Y-95802268D01*
X123059819Y-95183220D02*
X122059819Y-95183220D01*
X122059819Y-95183220D02*
X123059819Y-94611792D01*
X123059819Y-94611792D02*
X122059819Y-94611792D01*
X123059819Y-94135601D02*
X122059819Y-94135601D01*
X122059819Y-94135601D02*
X122059819Y-93897506D01*
X122059819Y-93897506D02*
X122107438Y-93754649D01*
X122107438Y-93754649D02*
X122202676Y-93659411D01*
X122202676Y-93659411D02*
X122297914Y-93611792D01*
X122297914Y-93611792D02*
X122488390Y-93564173D01*
X122488390Y-93564173D02*
X122631247Y-93564173D01*
X122631247Y-93564173D02*
X122821723Y-93611792D01*
X122821723Y-93611792D02*
X122916961Y-93659411D01*
X122916961Y-93659411D02*
X123012200Y-93754649D01*
X123012200Y-93754649D02*
X123059819Y-93897506D01*
X123059819Y-93897506D02*
X123059819Y-94135601D01*
D10*
X164602219Y-62003183D02*
X165602219Y-61669850D01*
X165602219Y-61669850D02*
X164602219Y-61336517D01*
X165506980Y-60431755D02*
X165554600Y-60479374D01*
X165554600Y-60479374D02*
X165602219Y-60622231D01*
X165602219Y-60622231D02*
X165602219Y-60717469D01*
X165602219Y-60717469D02*
X165554600Y-60860326D01*
X165554600Y-60860326D02*
X165459361Y-60955564D01*
X165459361Y-60955564D02*
X165364123Y-61003183D01*
X165364123Y-61003183D02*
X165173647Y-61050802D01*
X165173647Y-61050802D02*
X165030790Y-61050802D01*
X165030790Y-61050802D02*
X164840314Y-61003183D01*
X164840314Y-61003183D02*
X164745076Y-60955564D01*
X164745076Y-60955564D02*
X164649838Y-60860326D01*
X164649838Y-60860326D02*
X164602219Y-60717469D01*
X164602219Y-60717469D02*
X164602219Y-60622231D01*
X164602219Y-60622231D02*
X164649838Y-60479374D01*
X164649838Y-60479374D02*
X164697457Y-60431755D01*
X165316504Y-60050802D02*
X165316504Y-59574612D01*
X165602219Y-60146040D02*
X164602219Y-59812707D01*
X164602219Y-59812707D02*
X165602219Y-59479374D01*
X147457219Y-61669850D02*
X147457219Y-61479374D01*
X147457219Y-61479374D02*
X147504838Y-61384136D01*
X147504838Y-61384136D02*
X147600076Y-61288898D01*
X147600076Y-61288898D02*
X147790552Y-61241279D01*
X147790552Y-61241279D02*
X148123885Y-61241279D01*
X148123885Y-61241279D02*
X148314361Y-61288898D01*
X148314361Y-61288898D02*
X148409600Y-61384136D01*
X148409600Y-61384136D02*
X148457219Y-61479374D01*
X148457219Y-61479374D02*
X148457219Y-61669850D01*
X148457219Y-61669850D02*
X148409600Y-61765088D01*
X148409600Y-61765088D02*
X148314361Y-61860326D01*
X148314361Y-61860326D02*
X148123885Y-61907945D01*
X148123885Y-61907945D02*
X147790552Y-61907945D01*
X147790552Y-61907945D02*
X147600076Y-61860326D01*
X147600076Y-61860326D02*
X147504838Y-61765088D01*
X147504838Y-61765088D02*
X147457219Y-61669850D01*
X147457219Y-60955564D02*
X148457219Y-60622231D01*
X148457219Y-60622231D02*
X147457219Y-60288898D01*
X148457219Y-59955564D02*
X147457219Y-59955564D01*
X147457219Y-59955564D02*
X147457219Y-59717469D01*
X147457219Y-59717469D02*
X147504838Y-59574612D01*
X147504838Y-59574612D02*
X147600076Y-59479374D01*
X147600076Y-59479374D02*
X147695314Y-59431755D01*
X147695314Y-59431755D02*
X147885790Y-59384136D01*
X147885790Y-59384136D02*
X148028647Y-59384136D01*
X148028647Y-59384136D02*
X148219123Y-59431755D01*
X148219123Y-59431755D02*
X148314361Y-59479374D01*
X148314361Y-59479374D02*
X148409600Y-59574612D01*
X148409600Y-59574612D02*
X148457219Y-59717469D01*
X148457219Y-59717469D02*
X148457219Y-59955564D01*
X160913482Y-34474838D02*
X160818244Y-34427219D01*
X160818244Y-34427219D02*
X160675387Y-34427219D01*
X160675387Y-34427219D02*
X160532530Y-34474838D01*
X160532530Y-34474838D02*
X160437292Y-34570076D01*
X160437292Y-34570076D02*
X160389673Y-34665314D01*
X160389673Y-34665314D02*
X160342054Y-34855790D01*
X160342054Y-34855790D02*
X160342054Y-34998647D01*
X160342054Y-34998647D02*
X160389673Y-35189123D01*
X160389673Y-35189123D02*
X160437292Y-35284361D01*
X160437292Y-35284361D02*
X160532530Y-35379600D01*
X160532530Y-35379600D02*
X160675387Y-35427219D01*
X160675387Y-35427219D02*
X160770625Y-35427219D01*
X160770625Y-35427219D02*
X160913482Y-35379600D01*
X160913482Y-35379600D02*
X160961101Y-35331980D01*
X160961101Y-35331980D02*
X160961101Y-34998647D01*
X160961101Y-34998647D02*
X160770625Y-34998647D01*
X161389673Y-35427219D02*
X161389673Y-34427219D01*
X161389673Y-34427219D02*
X161961101Y-35427219D01*
X161961101Y-35427219D02*
X161961101Y-34427219D01*
X162437292Y-35427219D02*
X162437292Y-34427219D01*
X162437292Y-34427219D02*
X162675387Y-34427219D01*
X162675387Y-34427219D02*
X162818244Y-34474838D01*
X162818244Y-34474838D02*
X162913482Y-34570076D01*
X162913482Y-34570076D02*
X162961101Y-34665314D01*
X162961101Y-34665314D02*
X163008720Y-34855790D01*
X163008720Y-34855790D02*
X163008720Y-34998647D01*
X163008720Y-34998647D02*
X162961101Y-35189123D01*
X162961101Y-35189123D02*
X162913482Y-35284361D01*
X162913482Y-35284361D02*
X162818244Y-35379600D01*
X162818244Y-35379600D02*
X162675387Y-35427219D01*
X162675387Y-35427219D02*
X162437292Y-35427219D01*
X163389673Y-35141504D02*
X163865863Y-35141504D01*
X163294435Y-35427219D02*
X163627768Y-34427219D01*
X163627768Y-34427219D02*
X163961101Y-35427219D01*
X160675387Y-37110076D02*
X160675387Y-37681504D01*
X160389673Y-37395790D02*
X160961101Y-37395790D01*
X161913482Y-36967219D02*
X161437292Y-36967219D01*
X161437292Y-36967219D02*
X161389673Y-37443409D01*
X161389673Y-37443409D02*
X161437292Y-37395790D01*
X161437292Y-37395790D02*
X161532530Y-37348171D01*
X161532530Y-37348171D02*
X161770625Y-37348171D01*
X161770625Y-37348171D02*
X161865863Y-37395790D01*
X161865863Y-37395790D02*
X161913482Y-37443409D01*
X161913482Y-37443409D02*
X161961101Y-37538647D01*
X161961101Y-37538647D02*
X161961101Y-37776742D01*
X161961101Y-37776742D02*
X161913482Y-37871980D01*
X161913482Y-37871980D02*
X161865863Y-37919600D01*
X161865863Y-37919600D02*
X161770625Y-37967219D01*
X161770625Y-37967219D02*
X161532530Y-37967219D01*
X161532530Y-37967219D02*
X161437292Y-37919600D01*
X161437292Y-37919600D02*
X161389673Y-37871980D01*
X162389673Y-37871980D02*
X162437292Y-37919600D01*
X162437292Y-37919600D02*
X162389673Y-37967219D01*
X162389673Y-37967219D02*
X162342054Y-37919600D01*
X162342054Y-37919600D02*
X162389673Y-37871980D01*
X162389673Y-37871980D02*
X162389673Y-37967219D01*
X162770625Y-36967219D02*
X163389672Y-36967219D01*
X163389672Y-36967219D02*
X163056339Y-37348171D01*
X163056339Y-37348171D02*
X163199196Y-37348171D01*
X163199196Y-37348171D02*
X163294434Y-37395790D01*
X163294434Y-37395790D02*
X163342053Y-37443409D01*
X163342053Y-37443409D02*
X163389672Y-37538647D01*
X163389672Y-37538647D02*
X163389672Y-37776742D01*
X163389672Y-37776742D02*
X163342053Y-37871980D01*
X163342053Y-37871980D02*
X163294434Y-37919600D01*
X163294434Y-37919600D02*
X163199196Y-37967219D01*
X163199196Y-37967219D02*
X162913482Y-37967219D01*
X162913482Y-37967219D02*
X162818244Y-37919600D01*
X162818244Y-37919600D02*
X162770625Y-37871980D01*
X163723006Y-36967219D02*
X164342053Y-36967219D01*
X164342053Y-36967219D02*
X164008720Y-37348171D01*
X164008720Y-37348171D02*
X164151577Y-37348171D01*
X164151577Y-37348171D02*
X164246815Y-37395790D01*
X164246815Y-37395790D02*
X164294434Y-37443409D01*
X164294434Y-37443409D02*
X164342053Y-37538647D01*
X164342053Y-37538647D02*
X164342053Y-37776742D01*
X164342053Y-37776742D02*
X164294434Y-37871980D01*
X164294434Y-37871980D02*
X164246815Y-37919600D01*
X164246815Y-37919600D02*
X164151577Y-37967219D01*
X164151577Y-37967219D02*
X163865863Y-37967219D01*
X163865863Y-37967219D02*
X163770625Y-37919600D01*
X163770625Y-37919600D02*
X163723006Y-37871980D01*
X164675387Y-36967219D02*
X165294434Y-36967219D01*
X165294434Y-36967219D02*
X164961101Y-37348171D01*
X164961101Y-37348171D02*
X165103958Y-37348171D01*
X165103958Y-37348171D02*
X165199196Y-37395790D01*
X165199196Y-37395790D02*
X165246815Y-37443409D01*
X165246815Y-37443409D02*
X165294434Y-37538647D01*
X165294434Y-37538647D02*
X165294434Y-37776742D01*
X165294434Y-37776742D02*
X165246815Y-37871980D01*
X165246815Y-37871980D02*
X165199196Y-37919600D01*
X165199196Y-37919600D02*
X165103958Y-37967219D01*
X165103958Y-37967219D02*
X164818244Y-37967219D01*
X164818244Y-37967219D02*
X164723006Y-37919600D01*
X164723006Y-37919600D02*
X164675387Y-37871980D01*
X165580149Y-36967219D02*
X165913482Y-37967219D01*
X165913482Y-37967219D02*
X166246815Y-36967219D01*
X160675387Y-39650076D02*
X160675387Y-40221504D01*
X160389673Y-39935790D02*
X160961101Y-39935790D01*
X161961101Y-40507219D02*
X161389673Y-40507219D01*
X161675387Y-40507219D02*
X161675387Y-39507219D01*
X161675387Y-39507219D02*
X161580149Y-39650076D01*
X161580149Y-39650076D02*
X161484911Y-39745314D01*
X161484911Y-39745314D02*
X161389673Y-39792933D01*
X162342054Y-39602457D02*
X162389673Y-39554838D01*
X162389673Y-39554838D02*
X162484911Y-39507219D01*
X162484911Y-39507219D02*
X162723006Y-39507219D01*
X162723006Y-39507219D02*
X162818244Y-39554838D01*
X162818244Y-39554838D02*
X162865863Y-39602457D01*
X162865863Y-39602457D02*
X162913482Y-39697695D01*
X162913482Y-39697695D02*
X162913482Y-39792933D01*
X162913482Y-39792933D02*
X162865863Y-39935790D01*
X162865863Y-39935790D02*
X162294435Y-40507219D01*
X162294435Y-40507219D02*
X162913482Y-40507219D01*
X163199197Y-39507219D02*
X163532530Y-40507219D01*
X163532530Y-40507219D02*
X163865863Y-39507219D01*
X160913482Y-45269838D02*
X160818244Y-45222219D01*
X160818244Y-45222219D02*
X160675387Y-45222219D01*
X160675387Y-45222219D02*
X160532530Y-45269838D01*
X160532530Y-45269838D02*
X160437292Y-45365076D01*
X160437292Y-45365076D02*
X160389673Y-45460314D01*
X160389673Y-45460314D02*
X160342054Y-45650790D01*
X160342054Y-45650790D02*
X160342054Y-45793647D01*
X160342054Y-45793647D02*
X160389673Y-45984123D01*
X160389673Y-45984123D02*
X160437292Y-46079361D01*
X160437292Y-46079361D02*
X160532530Y-46174600D01*
X160532530Y-46174600D02*
X160675387Y-46222219D01*
X160675387Y-46222219D02*
X160770625Y-46222219D01*
X160770625Y-46222219D02*
X160913482Y-46174600D01*
X160913482Y-46174600D02*
X160961101Y-46126980D01*
X160961101Y-46126980D02*
X160961101Y-45793647D01*
X160961101Y-45793647D02*
X160770625Y-45793647D01*
X161389673Y-46222219D02*
X161389673Y-45222219D01*
X161389673Y-45222219D02*
X161961101Y-46222219D01*
X161961101Y-46222219D02*
X161961101Y-45222219D01*
X162437292Y-46222219D02*
X162437292Y-45222219D01*
X162437292Y-45222219D02*
X162675387Y-45222219D01*
X162675387Y-45222219D02*
X162818244Y-45269838D01*
X162818244Y-45269838D02*
X162913482Y-45365076D01*
X162913482Y-45365076D02*
X162961101Y-45460314D01*
X162961101Y-45460314D02*
X163008720Y-45650790D01*
X163008720Y-45650790D02*
X163008720Y-45793647D01*
X163008720Y-45793647D02*
X162961101Y-45984123D01*
X162961101Y-45984123D02*
X162913482Y-46079361D01*
X162913482Y-46079361D02*
X162818244Y-46174600D01*
X162818244Y-46174600D02*
X162675387Y-46222219D01*
X162675387Y-46222219D02*
X162437292Y-46222219D01*
X163389673Y-45936504D02*
X163865863Y-45936504D01*
X163294435Y-46222219D02*
X163627768Y-45222219D01*
X163627768Y-45222219D02*
X163961101Y-46222219D01*
X160675387Y-47905076D02*
X160675387Y-48476504D01*
X160389673Y-48190790D02*
X160961101Y-48190790D01*
X161913482Y-47762219D02*
X161437292Y-47762219D01*
X161437292Y-47762219D02*
X161389673Y-48238409D01*
X161389673Y-48238409D02*
X161437292Y-48190790D01*
X161437292Y-48190790D02*
X161532530Y-48143171D01*
X161532530Y-48143171D02*
X161770625Y-48143171D01*
X161770625Y-48143171D02*
X161865863Y-48190790D01*
X161865863Y-48190790D02*
X161913482Y-48238409D01*
X161913482Y-48238409D02*
X161961101Y-48333647D01*
X161961101Y-48333647D02*
X161961101Y-48571742D01*
X161961101Y-48571742D02*
X161913482Y-48666980D01*
X161913482Y-48666980D02*
X161865863Y-48714600D01*
X161865863Y-48714600D02*
X161770625Y-48762219D01*
X161770625Y-48762219D02*
X161532530Y-48762219D01*
X161532530Y-48762219D02*
X161437292Y-48714600D01*
X161437292Y-48714600D02*
X161389673Y-48666980D01*
X162389673Y-48666980D02*
X162437292Y-48714600D01*
X162437292Y-48714600D02*
X162389673Y-48762219D01*
X162389673Y-48762219D02*
X162342054Y-48714600D01*
X162342054Y-48714600D02*
X162389673Y-48666980D01*
X162389673Y-48666980D02*
X162389673Y-48762219D01*
X162770625Y-47762219D02*
X163389672Y-47762219D01*
X163389672Y-47762219D02*
X163056339Y-48143171D01*
X163056339Y-48143171D02*
X163199196Y-48143171D01*
X163199196Y-48143171D02*
X163294434Y-48190790D01*
X163294434Y-48190790D02*
X163342053Y-48238409D01*
X163342053Y-48238409D02*
X163389672Y-48333647D01*
X163389672Y-48333647D02*
X163389672Y-48571742D01*
X163389672Y-48571742D02*
X163342053Y-48666980D01*
X163342053Y-48666980D02*
X163294434Y-48714600D01*
X163294434Y-48714600D02*
X163199196Y-48762219D01*
X163199196Y-48762219D02*
X162913482Y-48762219D01*
X162913482Y-48762219D02*
X162818244Y-48714600D01*
X162818244Y-48714600D02*
X162770625Y-48666980D01*
X163723006Y-47762219D02*
X164342053Y-47762219D01*
X164342053Y-47762219D02*
X164008720Y-48143171D01*
X164008720Y-48143171D02*
X164151577Y-48143171D01*
X164151577Y-48143171D02*
X164246815Y-48190790D01*
X164246815Y-48190790D02*
X164294434Y-48238409D01*
X164294434Y-48238409D02*
X164342053Y-48333647D01*
X164342053Y-48333647D02*
X164342053Y-48571742D01*
X164342053Y-48571742D02*
X164294434Y-48666980D01*
X164294434Y-48666980D02*
X164246815Y-48714600D01*
X164246815Y-48714600D02*
X164151577Y-48762219D01*
X164151577Y-48762219D02*
X163865863Y-48762219D01*
X163865863Y-48762219D02*
X163770625Y-48714600D01*
X163770625Y-48714600D02*
X163723006Y-48666980D01*
X164675387Y-47762219D02*
X165294434Y-47762219D01*
X165294434Y-47762219D02*
X164961101Y-48143171D01*
X164961101Y-48143171D02*
X165103958Y-48143171D01*
X165103958Y-48143171D02*
X165199196Y-48190790D01*
X165199196Y-48190790D02*
X165246815Y-48238409D01*
X165246815Y-48238409D02*
X165294434Y-48333647D01*
X165294434Y-48333647D02*
X165294434Y-48571742D01*
X165294434Y-48571742D02*
X165246815Y-48666980D01*
X165246815Y-48666980D02*
X165199196Y-48714600D01*
X165199196Y-48714600D02*
X165103958Y-48762219D01*
X165103958Y-48762219D02*
X164818244Y-48762219D01*
X164818244Y-48762219D02*
X164723006Y-48714600D01*
X164723006Y-48714600D02*
X164675387Y-48666980D01*
X165580149Y-47762219D02*
X165913482Y-48762219D01*
X165913482Y-48762219D02*
X166246815Y-47762219D01*
X160675387Y-50445076D02*
X160675387Y-51016504D01*
X160389673Y-50730790D02*
X160961101Y-50730790D01*
X161961101Y-51302219D02*
X161389673Y-51302219D01*
X161675387Y-51302219D02*
X161675387Y-50302219D01*
X161675387Y-50302219D02*
X161580149Y-50445076D01*
X161580149Y-50445076D02*
X161484911Y-50540314D01*
X161484911Y-50540314D02*
X161389673Y-50587933D01*
X162342054Y-50397457D02*
X162389673Y-50349838D01*
X162389673Y-50349838D02*
X162484911Y-50302219D01*
X162484911Y-50302219D02*
X162723006Y-50302219D01*
X162723006Y-50302219D02*
X162818244Y-50349838D01*
X162818244Y-50349838D02*
X162865863Y-50397457D01*
X162865863Y-50397457D02*
X162913482Y-50492695D01*
X162913482Y-50492695D02*
X162913482Y-50587933D01*
X162913482Y-50587933D02*
X162865863Y-50730790D01*
X162865863Y-50730790D02*
X162294435Y-51302219D01*
X162294435Y-51302219D02*
X162913482Y-51302219D01*
X163199197Y-50302219D02*
X163532530Y-51302219D01*
X163532530Y-51302219D02*
X163865863Y-50302219D01*
X117612219Y-32158183D02*
X118612219Y-31824850D01*
X118612219Y-31824850D02*
X117612219Y-31491517D01*
X118516980Y-30586755D02*
X118564600Y-30634374D01*
X118564600Y-30634374D02*
X118612219Y-30777231D01*
X118612219Y-30777231D02*
X118612219Y-30872469D01*
X118612219Y-30872469D02*
X118564600Y-31015326D01*
X118564600Y-31015326D02*
X118469361Y-31110564D01*
X118469361Y-31110564D02*
X118374123Y-31158183D01*
X118374123Y-31158183D02*
X118183647Y-31205802D01*
X118183647Y-31205802D02*
X118040790Y-31205802D01*
X118040790Y-31205802D02*
X117850314Y-31158183D01*
X117850314Y-31158183D02*
X117755076Y-31110564D01*
X117755076Y-31110564D02*
X117659838Y-31015326D01*
X117659838Y-31015326D02*
X117612219Y-30872469D01*
X117612219Y-30872469D02*
X117612219Y-30777231D01*
X117612219Y-30777231D02*
X117659838Y-30634374D01*
X117659838Y-30634374D02*
X117707457Y-30586755D01*
X118326504Y-30205802D02*
X118326504Y-29729612D01*
X118612219Y-30301040D02*
X117612219Y-29967707D01*
X117612219Y-29967707D02*
X118612219Y-29634374D01*
X118612219Y-28539135D02*
X117612219Y-28539135D01*
X118612219Y-28062945D02*
X117612219Y-28062945D01*
X117612219Y-28062945D02*
X118612219Y-27491517D01*
X118612219Y-27491517D02*
X117612219Y-27491517D01*
D11*
X129092438Y-28984411D02*
X129044819Y-29079649D01*
X129044819Y-29079649D02*
X129044819Y-29222506D01*
X129044819Y-29222506D02*
X129092438Y-29365363D01*
X129092438Y-29365363D02*
X129187676Y-29460601D01*
X129187676Y-29460601D02*
X129282914Y-29508220D01*
X129282914Y-29508220D02*
X129473390Y-29555839D01*
X129473390Y-29555839D02*
X129616247Y-29555839D01*
X129616247Y-29555839D02*
X129806723Y-29508220D01*
X129806723Y-29508220D02*
X129901961Y-29460601D01*
X129901961Y-29460601D02*
X129997200Y-29365363D01*
X129997200Y-29365363D02*
X130044819Y-29222506D01*
X130044819Y-29222506D02*
X130044819Y-29127268D01*
X130044819Y-29127268D02*
X129997200Y-28984411D01*
X129997200Y-28984411D02*
X129949580Y-28936792D01*
X129949580Y-28936792D02*
X129616247Y-28936792D01*
X129616247Y-28936792D02*
X129616247Y-29127268D01*
X130044819Y-28508220D02*
X129044819Y-28508220D01*
X129044819Y-28508220D02*
X130044819Y-27936792D01*
X130044819Y-27936792D02*
X129044819Y-27936792D01*
X130044819Y-27460601D02*
X129044819Y-27460601D01*
X129044819Y-27460601D02*
X129044819Y-27222506D01*
X129044819Y-27222506D02*
X129092438Y-27079649D01*
X129092438Y-27079649D02*
X129187676Y-26984411D01*
X129187676Y-26984411D02*
X129282914Y-26936792D01*
X129282914Y-26936792D02*
X129473390Y-26889173D01*
X129473390Y-26889173D02*
X129616247Y-26889173D01*
X129616247Y-26889173D02*
X129806723Y-26936792D01*
X129806723Y-26936792D02*
X129901961Y-26984411D01*
X129901961Y-26984411D02*
X129997200Y-27079649D01*
X129997200Y-27079649D02*
X130044819Y-27222506D01*
X130044819Y-27222506D02*
X130044819Y-27460601D01*
X127409580Y-28936792D02*
X127457200Y-28984411D01*
X127457200Y-28984411D02*
X127504819Y-29127268D01*
X127504819Y-29127268D02*
X127504819Y-29222506D01*
X127504819Y-29222506D02*
X127457200Y-29365363D01*
X127457200Y-29365363D02*
X127361961Y-29460601D01*
X127361961Y-29460601D02*
X127266723Y-29508220D01*
X127266723Y-29508220D02*
X127076247Y-29555839D01*
X127076247Y-29555839D02*
X126933390Y-29555839D01*
X126933390Y-29555839D02*
X126742914Y-29508220D01*
X126742914Y-29508220D02*
X126647676Y-29460601D01*
X126647676Y-29460601D02*
X126552438Y-29365363D01*
X126552438Y-29365363D02*
X126504819Y-29222506D01*
X126504819Y-29222506D02*
X126504819Y-29127268D01*
X126504819Y-29127268D02*
X126552438Y-28984411D01*
X126552438Y-28984411D02*
X126600057Y-28936792D01*
X126838152Y-28651077D02*
X126838152Y-28270125D01*
X126504819Y-28508220D02*
X127361961Y-28508220D01*
X127361961Y-28508220D02*
X127457200Y-28460601D01*
X127457200Y-28460601D02*
X127504819Y-28365363D01*
X127504819Y-28365363D02*
X127504819Y-28270125D01*
X127504819Y-27793934D02*
X127457200Y-27889172D01*
X127457200Y-27889172D02*
X127361961Y-27936791D01*
X127361961Y-27936791D02*
X126504819Y-27936791D01*
X124869819Y-28936792D02*
X124393628Y-29270125D01*
X124869819Y-29508220D02*
X123869819Y-29508220D01*
X123869819Y-29508220D02*
X123869819Y-29127268D01*
X123869819Y-29127268D02*
X123917438Y-29032030D01*
X123917438Y-29032030D02*
X123965057Y-28984411D01*
X123965057Y-28984411D02*
X124060295Y-28936792D01*
X124060295Y-28936792D02*
X124203152Y-28936792D01*
X124203152Y-28936792D02*
X124298390Y-28984411D01*
X124298390Y-28984411D02*
X124346009Y-29032030D01*
X124346009Y-29032030D02*
X124393628Y-29127268D01*
X124393628Y-29127268D02*
X124393628Y-29508220D01*
X124822200Y-28555839D02*
X124869819Y-28460601D01*
X124869819Y-28460601D02*
X124869819Y-28270125D01*
X124869819Y-28270125D02*
X124822200Y-28174887D01*
X124822200Y-28174887D02*
X124726961Y-28127268D01*
X124726961Y-28127268D02*
X124679342Y-28127268D01*
X124679342Y-28127268D02*
X124584104Y-28174887D01*
X124584104Y-28174887D02*
X124536485Y-28270125D01*
X124536485Y-28270125D02*
X124536485Y-28412982D01*
X124536485Y-28412982D02*
X124488866Y-28508220D01*
X124488866Y-28508220D02*
X124393628Y-28555839D01*
X124393628Y-28555839D02*
X124346009Y-28555839D01*
X124346009Y-28555839D02*
X124250771Y-28508220D01*
X124250771Y-28508220D02*
X124203152Y-28412982D01*
X124203152Y-28412982D02*
X124203152Y-28270125D01*
X124203152Y-28270125D02*
X124250771Y-28174887D01*
X124869819Y-27555839D02*
X124822200Y-27651077D01*
X124822200Y-27651077D02*
X124774580Y-27698696D01*
X124774580Y-27698696D02*
X124679342Y-27746315D01*
X124679342Y-27746315D02*
X124393628Y-27746315D01*
X124393628Y-27746315D02*
X124298390Y-27698696D01*
X124298390Y-27698696D02*
X124250771Y-27651077D01*
X124250771Y-27651077D02*
X124203152Y-27555839D01*
X124203152Y-27555839D02*
X124203152Y-27412982D01*
X124203152Y-27412982D02*
X124250771Y-27317744D01*
X124250771Y-27317744D02*
X124298390Y-27270125D01*
X124298390Y-27270125D02*
X124393628Y-27222506D01*
X124393628Y-27222506D02*
X124679342Y-27222506D01*
X124679342Y-27222506D02*
X124774580Y-27270125D01*
X124774580Y-27270125D02*
X124822200Y-27317744D01*
X124822200Y-27317744D02*
X124869819Y-27412982D01*
X124869819Y-27412982D02*
X124869819Y-27555839D01*
X122377200Y-29555839D02*
X122424819Y-29412982D01*
X122424819Y-29412982D02*
X122424819Y-29174887D01*
X122424819Y-29174887D02*
X122377200Y-29079649D01*
X122377200Y-29079649D02*
X122329580Y-29032030D01*
X122329580Y-29032030D02*
X122234342Y-28984411D01*
X122234342Y-28984411D02*
X122139104Y-28984411D01*
X122139104Y-28984411D02*
X122043866Y-29032030D01*
X122043866Y-29032030D02*
X121996247Y-29079649D01*
X121996247Y-29079649D02*
X121948628Y-29174887D01*
X121948628Y-29174887D02*
X121901009Y-29365363D01*
X121901009Y-29365363D02*
X121853390Y-29460601D01*
X121853390Y-29460601D02*
X121805771Y-29508220D01*
X121805771Y-29508220D02*
X121710533Y-29555839D01*
X121710533Y-29555839D02*
X121615295Y-29555839D01*
X121615295Y-29555839D02*
X121520057Y-29508220D01*
X121520057Y-29508220D02*
X121472438Y-29460601D01*
X121472438Y-29460601D02*
X121424819Y-29365363D01*
X121424819Y-29365363D02*
X121424819Y-29127268D01*
X121424819Y-29127268D02*
X121472438Y-28984411D01*
X122424819Y-28555839D02*
X121758152Y-28555839D01*
X121424819Y-28555839D02*
X121472438Y-28603458D01*
X121472438Y-28603458D02*
X121520057Y-28555839D01*
X121520057Y-28555839D02*
X121472438Y-28508220D01*
X121472438Y-28508220D02*
X121424819Y-28555839D01*
X121424819Y-28555839D02*
X121520057Y-28555839D01*
X121758152Y-27651078D02*
X122567676Y-27651078D01*
X122567676Y-27651078D02*
X122662914Y-27698697D01*
X122662914Y-27698697D02*
X122710533Y-27746316D01*
X122710533Y-27746316D02*
X122758152Y-27841554D01*
X122758152Y-27841554D02*
X122758152Y-27984411D01*
X122758152Y-27984411D02*
X122710533Y-28079649D01*
X122377200Y-27651078D02*
X122424819Y-27746316D01*
X122424819Y-27746316D02*
X122424819Y-27936792D01*
X122424819Y-27936792D02*
X122377200Y-28032030D01*
X122377200Y-28032030D02*
X122329580Y-28079649D01*
X122329580Y-28079649D02*
X122234342Y-28127268D01*
X122234342Y-28127268D02*
X121948628Y-28127268D01*
X121948628Y-28127268D02*
X121853390Y-28079649D01*
X121853390Y-28079649D02*
X121805771Y-28032030D01*
X121805771Y-28032030D02*
X121758152Y-27936792D01*
X121758152Y-27936792D02*
X121758152Y-27746316D01*
X121758152Y-27746316D02*
X121805771Y-27651078D01*
X100193922Y-84869819D02*
X100527255Y-85869819D01*
X100527255Y-85869819D02*
X100860588Y-84869819D01*
X101384398Y-84869819D02*
X101574874Y-84869819D01*
X101574874Y-84869819D02*
X101670112Y-84917438D01*
X101670112Y-84917438D02*
X101765350Y-85012676D01*
X101765350Y-85012676D02*
X101812969Y-85203152D01*
X101812969Y-85203152D02*
X101812969Y-85536485D01*
X101812969Y-85536485D02*
X101765350Y-85726961D01*
X101765350Y-85726961D02*
X101670112Y-85822200D01*
X101670112Y-85822200D02*
X101574874Y-85869819D01*
X101574874Y-85869819D02*
X101384398Y-85869819D01*
X101384398Y-85869819D02*
X101289160Y-85822200D01*
X101289160Y-85822200D02*
X101193922Y-85726961D01*
X101193922Y-85726961D02*
X101146303Y-85536485D01*
X101146303Y-85536485D02*
X101146303Y-85203152D01*
X101146303Y-85203152D02*
X101193922Y-85012676D01*
X101193922Y-85012676D02*
X101289160Y-84917438D01*
X101289160Y-84917438D02*
X101384398Y-84869819D01*
X102717731Y-85869819D02*
X102241541Y-85869819D01*
X102241541Y-85869819D02*
X102241541Y-84869819D01*
X103051065Y-84869819D02*
X103051065Y-85679342D01*
X103051065Y-85679342D02*
X103098684Y-85774580D01*
X103098684Y-85774580D02*
X103146303Y-85822200D01*
X103146303Y-85822200D02*
X103241541Y-85869819D01*
X103241541Y-85869819D02*
X103432017Y-85869819D01*
X103432017Y-85869819D02*
X103527255Y-85822200D01*
X103527255Y-85822200D02*
X103574874Y-85774580D01*
X103574874Y-85774580D02*
X103622493Y-85679342D01*
X103622493Y-85679342D02*
X103622493Y-84869819D01*
X104098684Y-85869819D02*
X104098684Y-84869819D01*
X104098684Y-84869819D02*
X104432017Y-85584104D01*
X104432017Y-85584104D02*
X104765350Y-84869819D01*
X104765350Y-84869819D02*
X104765350Y-85869819D01*
X105241541Y-85346009D02*
X105574874Y-85346009D01*
X105717731Y-85869819D02*
X105241541Y-85869819D01*
X105241541Y-85869819D02*
X105241541Y-84869819D01*
X105241541Y-84869819D02*
X105717731Y-84869819D01*
X105527255Y-72869819D02*
X105717731Y-72869819D01*
X105717731Y-72869819D02*
X105812969Y-72917438D01*
X105812969Y-72917438D02*
X105908207Y-73012676D01*
X105908207Y-73012676D02*
X105955826Y-73203152D01*
X105955826Y-73203152D02*
X105955826Y-73536485D01*
X105955826Y-73536485D02*
X105908207Y-73726961D01*
X105908207Y-73726961D02*
X105812969Y-73822200D01*
X105812969Y-73822200D02*
X105717731Y-73869819D01*
X105717731Y-73869819D02*
X105527255Y-73869819D01*
X105527255Y-73869819D02*
X105432017Y-73822200D01*
X105432017Y-73822200D02*
X105336779Y-73726961D01*
X105336779Y-73726961D02*
X105289160Y-73536485D01*
X105289160Y-73536485D02*
X105289160Y-73203152D01*
X105289160Y-73203152D02*
X105336779Y-73012676D01*
X105336779Y-73012676D02*
X105432017Y-72917438D01*
X105432017Y-72917438D02*
X105527255Y-72869819D01*
X106241541Y-72869819D02*
X106574874Y-73869819D01*
X106574874Y-73869819D02*
X106908207Y-72869819D01*
X107241541Y-73869819D02*
X107241541Y-72869819D01*
X107241541Y-72869819D02*
X107479636Y-72869819D01*
X107479636Y-72869819D02*
X107622493Y-72917438D01*
X107622493Y-72917438D02*
X107717731Y-73012676D01*
X107717731Y-73012676D02*
X107765350Y-73107914D01*
X107765350Y-73107914D02*
X107812969Y-73298390D01*
X107812969Y-73298390D02*
X107812969Y-73441247D01*
X107812969Y-73441247D02*
X107765350Y-73631723D01*
X107765350Y-73631723D02*
X107717731Y-73726961D01*
X107717731Y-73726961D02*
X107622493Y-73822200D01*
X107622493Y-73822200D02*
X107479636Y-73869819D01*
X107479636Y-73869819D02*
X107241541Y-73869819D01*
X108955827Y-73584104D02*
X109432017Y-73584104D01*
X108860589Y-73869819D02*
X109193922Y-72869819D01*
X109193922Y-72869819D02*
X109527255Y-73869819D01*
X109717732Y-72869819D02*
X110289160Y-72869819D01*
X110003446Y-73869819D02*
X110003446Y-72869819D01*
X110479637Y-72869819D02*
X111051065Y-72869819D01*
X110765351Y-73869819D02*
X110765351Y-72869819D01*
D10*
X92560149Y-72867219D02*
X92750625Y-72867219D01*
X92750625Y-72867219D02*
X92845863Y-72914838D01*
X92845863Y-72914838D02*
X92941101Y-73010076D01*
X92941101Y-73010076D02*
X92988720Y-73200552D01*
X92988720Y-73200552D02*
X92988720Y-73533885D01*
X92988720Y-73533885D02*
X92941101Y-73724361D01*
X92941101Y-73724361D02*
X92845863Y-73819600D01*
X92845863Y-73819600D02*
X92750625Y-73867219D01*
X92750625Y-73867219D02*
X92560149Y-73867219D01*
X92560149Y-73867219D02*
X92464911Y-73819600D01*
X92464911Y-73819600D02*
X92369673Y-73724361D01*
X92369673Y-73724361D02*
X92322054Y-73533885D01*
X92322054Y-73533885D02*
X92322054Y-73200552D01*
X92322054Y-73200552D02*
X92369673Y-73010076D01*
X92369673Y-73010076D02*
X92464911Y-72914838D01*
X92464911Y-72914838D02*
X92560149Y-72867219D01*
X93274435Y-72867219D02*
X93607768Y-73867219D01*
X93607768Y-73867219D02*
X93941101Y-72867219D01*
X94274435Y-73867219D02*
X94274435Y-72867219D01*
X94274435Y-72867219D02*
X94512530Y-72867219D01*
X94512530Y-72867219D02*
X94655387Y-72914838D01*
X94655387Y-72914838D02*
X94750625Y-73010076D01*
X94750625Y-73010076D02*
X94798244Y-73105314D01*
X94798244Y-73105314D02*
X94845863Y-73295790D01*
X94845863Y-73295790D02*
X94845863Y-73438647D01*
X94845863Y-73438647D02*
X94798244Y-73629123D01*
X94798244Y-73629123D02*
X94750625Y-73724361D01*
X94750625Y-73724361D02*
X94655387Y-73819600D01*
X94655387Y-73819600D02*
X94512530Y-73867219D01*
X94512530Y-73867219D02*
X94274435Y-73867219D01*
X96560149Y-72914838D02*
X96464911Y-72867219D01*
X96464911Y-72867219D02*
X96322054Y-72867219D01*
X96322054Y-72867219D02*
X96179197Y-72914838D01*
X96179197Y-72914838D02*
X96083959Y-73010076D01*
X96083959Y-73010076D02*
X96036340Y-73105314D01*
X96036340Y-73105314D02*
X95988721Y-73295790D01*
X95988721Y-73295790D02*
X95988721Y-73438647D01*
X95988721Y-73438647D02*
X96036340Y-73629123D01*
X96036340Y-73629123D02*
X96083959Y-73724361D01*
X96083959Y-73724361D02*
X96179197Y-73819600D01*
X96179197Y-73819600D02*
X96322054Y-73867219D01*
X96322054Y-73867219D02*
X96417292Y-73867219D01*
X96417292Y-73867219D02*
X96560149Y-73819600D01*
X96560149Y-73819600D02*
X96607768Y-73771980D01*
X96607768Y-73771980D02*
X96607768Y-73438647D01*
X96607768Y-73438647D02*
X96417292Y-73438647D01*
X96988721Y-73581504D02*
X97464911Y-73581504D01*
X96893483Y-73867219D02*
X97226816Y-72867219D01*
X97226816Y-72867219D02*
X97560149Y-73867219D01*
X97893483Y-73867219D02*
X97893483Y-72867219D01*
X98369673Y-73867219D02*
X98369673Y-72867219D01*
X98369673Y-72867219D02*
X98941101Y-73867219D01*
X98941101Y-73867219D02*
X98941101Y-72867219D01*
D11*
X127309819Y-49646904D02*
X128119342Y-49646904D01*
X128119342Y-49646904D02*
X128214580Y-49599285D01*
X128214580Y-49599285D02*
X128262200Y-49551666D01*
X128262200Y-49551666D02*
X128309819Y-49456428D01*
X128309819Y-49456428D02*
X128309819Y-49265952D01*
X128309819Y-49265952D02*
X128262200Y-49170714D01*
X128262200Y-49170714D02*
X128214580Y-49123095D01*
X128214580Y-49123095D02*
X128119342Y-49075476D01*
X128119342Y-49075476D02*
X127309819Y-49075476D01*
X127643152Y-48170714D02*
X128309819Y-48170714D01*
X127262200Y-48408809D02*
X127976485Y-48646904D01*
X127976485Y-48646904D02*
X127976485Y-48027857D01*
X126023095Y-66984819D02*
X126023095Y-67794342D01*
X126023095Y-67794342D02*
X126070714Y-67889580D01*
X126070714Y-67889580D02*
X126118333Y-67937200D01*
X126118333Y-67937200D02*
X126213571Y-67984819D01*
X126213571Y-67984819D02*
X126404047Y-67984819D01*
X126404047Y-67984819D02*
X126499285Y-67937200D01*
X126499285Y-67937200D02*
X126546904Y-67889580D01*
X126546904Y-67889580D02*
X126594523Y-67794342D01*
X126594523Y-67794342D02*
X126594523Y-66984819D01*
X126975476Y-66984819D02*
X127594523Y-66984819D01*
X127594523Y-66984819D02*
X127261190Y-67365771D01*
X127261190Y-67365771D02*
X127404047Y-67365771D01*
X127404047Y-67365771D02*
X127499285Y-67413390D01*
X127499285Y-67413390D02*
X127546904Y-67461009D01*
X127546904Y-67461009D02*
X127594523Y-67556247D01*
X127594523Y-67556247D02*
X127594523Y-67794342D01*
X127594523Y-67794342D02*
X127546904Y-67889580D01*
X127546904Y-67889580D02*
X127499285Y-67937200D01*
X127499285Y-67937200D02*
X127404047Y-67984819D01*
X127404047Y-67984819D02*
X127118333Y-67984819D01*
X127118333Y-67984819D02*
X127023095Y-67937200D01*
X127023095Y-67937200D02*
X126975476Y-67889580D01*
D12*
X155605237Y-65979318D02*
X155605237Y-64709318D01*
X156935714Y-65858365D02*
X156875238Y-65918842D01*
X156875238Y-65918842D02*
X156693809Y-65979318D01*
X156693809Y-65979318D02*
X156572857Y-65979318D01*
X156572857Y-65979318D02*
X156391428Y-65918842D01*
X156391428Y-65918842D02*
X156270476Y-65797889D01*
X156270476Y-65797889D02*
X156209999Y-65676937D01*
X156209999Y-65676937D02*
X156149523Y-65435032D01*
X156149523Y-65435032D02*
X156149523Y-65253603D01*
X156149523Y-65253603D02*
X156209999Y-65011699D01*
X156209999Y-65011699D02*
X156270476Y-64890746D01*
X156270476Y-64890746D02*
X156391428Y-64769794D01*
X156391428Y-64769794D02*
X156572857Y-64709318D01*
X156572857Y-64709318D02*
X156693809Y-64709318D01*
X156693809Y-64709318D02*
X156875238Y-64769794D01*
X156875238Y-64769794D02*
X156935714Y-64830270D01*
X158145238Y-65979318D02*
X157419523Y-65979318D01*
X157782380Y-65979318D02*
X157782380Y-64709318D01*
X157782380Y-64709318D02*
X157661428Y-64890746D01*
X157661428Y-64890746D02*
X157540476Y-65011699D01*
X157540476Y-65011699D02*
X157419523Y-65072175D01*
X106921905Y-71059318D02*
X107345238Y-72329318D01*
X107345238Y-72329318D02*
X107768572Y-71059318D01*
X108917619Y-72329318D02*
X108494285Y-71724556D01*
X108191904Y-72329318D02*
X108191904Y-71059318D01*
X108191904Y-71059318D02*
X108675714Y-71059318D01*
X108675714Y-71059318D02*
X108796666Y-71119794D01*
X108796666Y-71119794D02*
X108857143Y-71180270D01*
X108857143Y-71180270D02*
X108917619Y-71301222D01*
X108917619Y-71301222D02*
X108917619Y-71482651D01*
X108917619Y-71482651D02*
X108857143Y-71603603D01*
X108857143Y-71603603D02*
X108796666Y-71664080D01*
X108796666Y-71664080D02*
X108675714Y-71724556D01*
X108675714Y-71724556D02*
X108191904Y-71724556D01*
X109340952Y-71059318D02*
X110127143Y-71059318D01*
X110127143Y-71059318D02*
X109703809Y-71543127D01*
X109703809Y-71543127D02*
X109885238Y-71543127D01*
X109885238Y-71543127D02*
X110006190Y-71603603D01*
X110006190Y-71603603D02*
X110066666Y-71664080D01*
X110066666Y-71664080D02*
X110127143Y-71785032D01*
X110127143Y-71785032D02*
X110127143Y-72087413D01*
X110127143Y-72087413D02*
X110066666Y-72208365D01*
X110066666Y-72208365D02*
X110006190Y-72268842D01*
X110006190Y-72268842D02*
X109885238Y-72329318D01*
X109885238Y-72329318D02*
X109522381Y-72329318D01*
X109522381Y-72329318D02*
X109401428Y-72268842D01*
X109401428Y-72268842D02*
X109340952Y-72208365D01*
X101206905Y-83124318D02*
X101630238Y-84394318D01*
X101630238Y-84394318D02*
X102053572Y-83124318D01*
X103202619Y-84394318D02*
X102779285Y-83789556D01*
X102476904Y-84394318D02*
X102476904Y-83124318D01*
X102476904Y-83124318D02*
X102960714Y-83124318D01*
X102960714Y-83124318D02*
X103081666Y-83184794D01*
X103081666Y-83184794D02*
X103142143Y-83245270D01*
X103142143Y-83245270D02*
X103202619Y-83366222D01*
X103202619Y-83366222D02*
X103202619Y-83547651D01*
X103202619Y-83547651D02*
X103142143Y-83668603D01*
X103142143Y-83668603D02*
X103081666Y-83729080D01*
X103081666Y-83729080D02*
X102960714Y-83789556D01*
X102960714Y-83789556D02*
X102476904Y-83789556D01*
X103686428Y-83245270D02*
X103746904Y-83184794D01*
X103746904Y-83184794D02*
X103867857Y-83124318D01*
X103867857Y-83124318D02*
X104170238Y-83124318D01*
X104170238Y-83124318D02*
X104291190Y-83184794D01*
X104291190Y-83184794D02*
X104351666Y-83245270D01*
X104351666Y-83245270D02*
X104412143Y-83366222D01*
X104412143Y-83366222D02*
X104412143Y-83487175D01*
X104412143Y-83487175D02*
X104351666Y-83668603D01*
X104351666Y-83668603D02*
X103625952Y-84394318D01*
X103625952Y-84394318D02*
X104412143Y-84394318D01*
X94461405Y-71059318D02*
X94884738Y-72329318D01*
X94884738Y-72329318D02*
X95308072Y-71059318D01*
X96457119Y-72329318D02*
X96033785Y-71724556D01*
X95731404Y-72329318D02*
X95731404Y-71059318D01*
X95731404Y-71059318D02*
X96215214Y-71059318D01*
X96215214Y-71059318D02*
X96336166Y-71119794D01*
X96336166Y-71119794D02*
X96396643Y-71180270D01*
X96396643Y-71180270D02*
X96457119Y-71301222D01*
X96457119Y-71301222D02*
X96457119Y-71482651D01*
X96457119Y-71482651D02*
X96396643Y-71603603D01*
X96396643Y-71603603D02*
X96336166Y-71664080D01*
X96336166Y-71664080D02*
X96215214Y-71724556D01*
X96215214Y-71724556D02*
X95731404Y-71724556D01*
X97666643Y-72329318D02*
X96940928Y-72329318D01*
X97303785Y-72329318D02*
X97303785Y-71059318D01*
X97303785Y-71059318D02*
X97182833Y-71240746D01*
X97182833Y-71240746D02*
X97061881Y-71361699D01*
X97061881Y-71361699D02*
X96940928Y-71422175D01*
D11*
X122854819Y-61721904D02*
X123664342Y-61721904D01*
X123664342Y-61721904D02*
X123759580Y-61674285D01*
X123759580Y-61674285D02*
X123807200Y-61626666D01*
X123807200Y-61626666D02*
X123854819Y-61531428D01*
X123854819Y-61531428D02*
X123854819Y-61340952D01*
X123854819Y-61340952D02*
X123807200Y-61245714D01*
X123807200Y-61245714D02*
X123759580Y-61198095D01*
X123759580Y-61198095D02*
X123664342Y-61150476D01*
X123664342Y-61150476D02*
X122854819Y-61150476D01*
X122950057Y-60721904D02*
X122902438Y-60674285D01*
X122902438Y-60674285D02*
X122854819Y-60579047D01*
X122854819Y-60579047D02*
X122854819Y-60340952D01*
X122854819Y-60340952D02*
X122902438Y-60245714D01*
X122902438Y-60245714D02*
X122950057Y-60198095D01*
X122950057Y-60198095D02*
X123045295Y-60150476D01*
X123045295Y-60150476D02*
X123140533Y-60150476D01*
X123140533Y-60150476D02*
X123283390Y-60198095D01*
X123283390Y-60198095D02*
X123854819Y-60769523D01*
X123854819Y-60769523D02*
X123854819Y-60150476D01*
X93644819Y-50516904D02*
X94454342Y-50516904D01*
X94454342Y-50516904D02*
X94549580Y-50469285D01*
X94549580Y-50469285D02*
X94597200Y-50421666D01*
X94597200Y-50421666D02*
X94644819Y-50326428D01*
X94644819Y-50326428D02*
X94644819Y-50135952D01*
X94644819Y-50135952D02*
X94597200Y-50040714D01*
X94597200Y-50040714D02*
X94549580Y-49993095D01*
X94549580Y-49993095D02*
X94454342Y-49945476D01*
X94454342Y-49945476D02*
X93644819Y-49945476D01*
X94644819Y-48945476D02*
X94644819Y-49516904D01*
X94644819Y-49231190D02*
X93644819Y-49231190D01*
X93644819Y-49231190D02*
X93787676Y-49326428D01*
X93787676Y-49326428D02*
X93882914Y-49421666D01*
X93882914Y-49421666D02*
X93930533Y-49516904D01*
X137787142Y-36014819D02*
X137453809Y-35538628D01*
X137215714Y-36014819D02*
X137215714Y-35014819D01*
X137215714Y-35014819D02*
X137596666Y-35014819D01*
X137596666Y-35014819D02*
X137691904Y-35062438D01*
X137691904Y-35062438D02*
X137739523Y-35110057D01*
X137739523Y-35110057D02*
X137787142Y-35205295D01*
X137787142Y-35205295D02*
X137787142Y-35348152D01*
X137787142Y-35348152D02*
X137739523Y-35443390D01*
X137739523Y-35443390D02*
X137691904Y-35491009D01*
X137691904Y-35491009D02*
X137596666Y-35538628D01*
X137596666Y-35538628D02*
X137215714Y-35538628D01*
X138168095Y-35110057D02*
X138215714Y-35062438D01*
X138215714Y-35062438D02*
X138310952Y-35014819D01*
X138310952Y-35014819D02*
X138549047Y-35014819D01*
X138549047Y-35014819D02*
X138644285Y-35062438D01*
X138644285Y-35062438D02*
X138691904Y-35110057D01*
X138691904Y-35110057D02*
X138739523Y-35205295D01*
X138739523Y-35205295D02*
X138739523Y-35300533D01*
X138739523Y-35300533D02*
X138691904Y-35443390D01*
X138691904Y-35443390D02*
X138120476Y-36014819D01*
X138120476Y-36014819D02*
X138739523Y-36014819D01*
X139120476Y-35110057D02*
X139168095Y-35062438D01*
X139168095Y-35062438D02*
X139263333Y-35014819D01*
X139263333Y-35014819D02*
X139501428Y-35014819D01*
X139501428Y-35014819D02*
X139596666Y-35062438D01*
X139596666Y-35062438D02*
X139644285Y-35110057D01*
X139644285Y-35110057D02*
X139691904Y-35205295D01*
X139691904Y-35205295D02*
X139691904Y-35300533D01*
X139691904Y-35300533D02*
X139644285Y-35443390D01*
X139644285Y-35443390D02*
X139072857Y-36014819D01*
X139072857Y-36014819D02*
X139691904Y-36014819D01*
X134612142Y-36014819D02*
X134278809Y-35538628D01*
X134040714Y-36014819D02*
X134040714Y-35014819D01*
X134040714Y-35014819D02*
X134421666Y-35014819D01*
X134421666Y-35014819D02*
X134516904Y-35062438D01*
X134516904Y-35062438D02*
X134564523Y-35110057D01*
X134564523Y-35110057D02*
X134612142Y-35205295D01*
X134612142Y-35205295D02*
X134612142Y-35348152D01*
X134612142Y-35348152D02*
X134564523Y-35443390D01*
X134564523Y-35443390D02*
X134516904Y-35491009D01*
X134516904Y-35491009D02*
X134421666Y-35538628D01*
X134421666Y-35538628D02*
X134040714Y-35538628D01*
X134993095Y-35110057D02*
X135040714Y-35062438D01*
X135040714Y-35062438D02*
X135135952Y-35014819D01*
X135135952Y-35014819D02*
X135374047Y-35014819D01*
X135374047Y-35014819D02*
X135469285Y-35062438D01*
X135469285Y-35062438D02*
X135516904Y-35110057D01*
X135516904Y-35110057D02*
X135564523Y-35205295D01*
X135564523Y-35205295D02*
X135564523Y-35300533D01*
X135564523Y-35300533D02*
X135516904Y-35443390D01*
X135516904Y-35443390D02*
X134945476Y-36014819D01*
X134945476Y-36014819D02*
X135564523Y-36014819D01*
X136516904Y-36014819D02*
X135945476Y-36014819D01*
X136231190Y-36014819D02*
X136231190Y-35014819D01*
X136231190Y-35014819D02*
X136135952Y-35157676D01*
X136135952Y-35157676D02*
X136040714Y-35252914D01*
X136040714Y-35252914D02*
X135945476Y-35300533D01*
X139467142Y-79829819D02*
X139133809Y-79353628D01*
X138895714Y-79829819D02*
X138895714Y-78829819D01*
X138895714Y-78829819D02*
X139276666Y-78829819D01*
X139276666Y-78829819D02*
X139371904Y-78877438D01*
X139371904Y-78877438D02*
X139419523Y-78925057D01*
X139419523Y-78925057D02*
X139467142Y-79020295D01*
X139467142Y-79020295D02*
X139467142Y-79163152D01*
X139467142Y-79163152D02*
X139419523Y-79258390D01*
X139419523Y-79258390D02*
X139371904Y-79306009D01*
X139371904Y-79306009D02*
X139276666Y-79353628D01*
X139276666Y-79353628D02*
X138895714Y-79353628D01*
X139848095Y-78925057D02*
X139895714Y-78877438D01*
X139895714Y-78877438D02*
X139990952Y-78829819D01*
X139990952Y-78829819D02*
X140229047Y-78829819D01*
X140229047Y-78829819D02*
X140324285Y-78877438D01*
X140324285Y-78877438D02*
X140371904Y-78925057D01*
X140371904Y-78925057D02*
X140419523Y-79020295D01*
X140419523Y-79020295D02*
X140419523Y-79115533D01*
X140419523Y-79115533D02*
X140371904Y-79258390D01*
X140371904Y-79258390D02*
X139800476Y-79829819D01*
X139800476Y-79829819D02*
X140419523Y-79829819D01*
X141038571Y-78829819D02*
X141133809Y-78829819D01*
X141133809Y-78829819D02*
X141229047Y-78877438D01*
X141229047Y-78877438D02*
X141276666Y-78925057D01*
X141276666Y-78925057D02*
X141324285Y-79020295D01*
X141324285Y-79020295D02*
X141371904Y-79210771D01*
X141371904Y-79210771D02*
X141371904Y-79448866D01*
X141371904Y-79448866D02*
X141324285Y-79639342D01*
X141324285Y-79639342D02*
X141276666Y-79734580D01*
X141276666Y-79734580D02*
X141229047Y-79782200D01*
X141229047Y-79782200D02*
X141133809Y-79829819D01*
X141133809Y-79829819D02*
X141038571Y-79829819D01*
X141038571Y-79829819D02*
X140943333Y-79782200D01*
X140943333Y-79782200D02*
X140895714Y-79734580D01*
X140895714Y-79734580D02*
X140848095Y-79639342D01*
X140848095Y-79639342D02*
X140800476Y-79448866D01*
X140800476Y-79448866D02*
X140800476Y-79210771D01*
X140800476Y-79210771D02*
X140848095Y-79020295D01*
X140848095Y-79020295D02*
X140895714Y-78925057D01*
X140895714Y-78925057D02*
X140943333Y-78877438D01*
X140943333Y-78877438D02*
X141038571Y-78829819D01*
X139467142Y-70304819D02*
X139133809Y-69828628D01*
X138895714Y-70304819D02*
X138895714Y-69304819D01*
X138895714Y-69304819D02*
X139276666Y-69304819D01*
X139276666Y-69304819D02*
X139371904Y-69352438D01*
X139371904Y-69352438D02*
X139419523Y-69400057D01*
X139419523Y-69400057D02*
X139467142Y-69495295D01*
X139467142Y-69495295D02*
X139467142Y-69638152D01*
X139467142Y-69638152D02*
X139419523Y-69733390D01*
X139419523Y-69733390D02*
X139371904Y-69781009D01*
X139371904Y-69781009D02*
X139276666Y-69828628D01*
X139276666Y-69828628D02*
X138895714Y-69828628D01*
X140419523Y-70304819D02*
X139848095Y-70304819D01*
X140133809Y-70304819D02*
X140133809Y-69304819D01*
X140133809Y-69304819D02*
X140038571Y-69447676D01*
X140038571Y-69447676D02*
X139943333Y-69542914D01*
X139943333Y-69542914D02*
X139848095Y-69590533D01*
X140895714Y-70304819D02*
X141086190Y-70304819D01*
X141086190Y-70304819D02*
X141181428Y-70257200D01*
X141181428Y-70257200D02*
X141229047Y-70209580D01*
X141229047Y-70209580D02*
X141324285Y-70066723D01*
X141324285Y-70066723D02*
X141371904Y-69876247D01*
X141371904Y-69876247D02*
X141371904Y-69495295D01*
X141371904Y-69495295D02*
X141324285Y-69400057D01*
X141324285Y-69400057D02*
X141276666Y-69352438D01*
X141276666Y-69352438D02*
X141181428Y-69304819D01*
X141181428Y-69304819D02*
X140990952Y-69304819D01*
X140990952Y-69304819D02*
X140895714Y-69352438D01*
X140895714Y-69352438D02*
X140848095Y-69400057D01*
X140848095Y-69400057D02*
X140800476Y-69495295D01*
X140800476Y-69495295D02*
X140800476Y-69733390D01*
X140800476Y-69733390D02*
X140848095Y-69828628D01*
X140848095Y-69828628D02*
X140895714Y-69876247D01*
X140895714Y-69876247D02*
X140990952Y-69923866D01*
X140990952Y-69923866D02*
X141181428Y-69923866D01*
X141181428Y-69923866D02*
X141276666Y-69876247D01*
X141276666Y-69876247D02*
X141324285Y-69828628D01*
X141324285Y-69828628D02*
X141371904Y-69733390D01*
X139467142Y-76654819D02*
X139133809Y-76178628D01*
X138895714Y-76654819D02*
X138895714Y-75654819D01*
X138895714Y-75654819D02*
X139276666Y-75654819D01*
X139276666Y-75654819D02*
X139371904Y-75702438D01*
X139371904Y-75702438D02*
X139419523Y-75750057D01*
X139419523Y-75750057D02*
X139467142Y-75845295D01*
X139467142Y-75845295D02*
X139467142Y-75988152D01*
X139467142Y-75988152D02*
X139419523Y-76083390D01*
X139419523Y-76083390D02*
X139371904Y-76131009D01*
X139371904Y-76131009D02*
X139276666Y-76178628D01*
X139276666Y-76178628D02*
X138895714Y-76178628D01*
X140419523Y-76654819D02*
X139848095Y-76654819D01*
X140133809Y-76654819D02*
X140133809Y-75654819D01*
X140133809Y-75654819D02*
X140038571Y-75797676D01*
X140038571Y-75797676D02*
X139943333Y-75892914D01*
X139943333Y-75892914D02*
X139848095Y-75940533D01*
X140990952Y-76083390D02*
X140895714Y-76035771D01*
X140895714Y-76035771D02*
X140848095Y-75988152D01*
X140848095Y-75988152D02*
X140800476Y-75892914D01*
X140800476Y-75892914D02*
X140800476Y-75845295D01*
X140800476Y-75845295D02*
X140848095Y-75750057D01*
X140848095Y-75750057D02*
X140895714Y-75702438D01*
X140895714Y-75702438D02*
X140990952Y-75654819D01*
X140990952Y-75654819D02*
X141181428Y-75654819D01*
X141181428Y-75654819D02*
X141276666Y-75702438D01*
X141276666Y-75702438D02*
X141324285Y-75750057D01*
X141324285Y-75750057D02*
X141371904Y-75845295D01*
X141371904Y-75845295D02*
X141371904Y-75892914D01*
X141371904Y-75892914D02*
X141324285Y-75988152D01*
X141324285Y-75988152D02*
X141276666Y-76035771D01*
X141276666Y-76035771D02*
X141181428Y-76083390D01*
X141181428Y-76083390D02*
X140990952Y-76083390D01*
X140990952Y-76083390D02*
X140895714Y-76131009D01*
X140895714Y-76131009D02*
X140848095Y-76178628D01*
X140848095Y-76178628D02*
X140800476Y-76273866D01*
X140800476Y-76273866D02*
X140800476Y-76464342D01*
X140800476Y-76464342D02*
X140848095Y-76559580D01*
X140848095Y-76559580D02*
X140895714Y-76607200D01*
X140895714Y-76607200D02*
X140990952Y-76654819D01*
X140990952Y-76654819D02*
X141181428Y-76654819D01*
X141181428Y-76654819D02*
X141276666Y-76607200D01*
X141276666Y-76607200D02*
X141324285Y-76559580D01*
X141324285Y-76559580D02*
X141371904Y-76464342D01*
X141371904Y-76464342D02*
X141371904Y-76273866D01*
X141371904Y-76273866D02*
X141324285Y-76178628D01*
X141324285Y-76178628D02*
X141276666Y-76131009D01*
X141276666Y-76131009D02*
X141181428Y-76083390D01*
X139467142Y-73479819D02*
X139133809Y-73003628D01*
X138895714Y-73479819D02*
X138895714Y-72479819D01*
X138895714Y-72479819D02*
X139276666Y-72479819D01*
X139276666Y-72479819D02*
X139371904Y-72527438D01*
X139371904Y-72527438D02*
X139419523Y-72575057D01*
X139419523Y-72575057D02*
X139467142Y-72670295D01*
X139467142Y-72670295D02*
X139467142Y-72813152D01*
X139467142Y-72813152D02*
X139419523Y-72908390D01*
X139419523Y-72908390D02*
X139371904Y-72956009D01*
X139371904Y-72956009D02*
X139276666Y-73003628D01*
X139276666Y-73003628D02*
X138895714Y-73003628D01*
X140419523Y-73479819D02*
X139848095Y-73479819D01*
X140133809Y-73479819D02*
X140133809Y-72479819D01*
X140133809Y-72479819D02*
X140038571Y-72622676D01*
X140038571Y-72622676D02*
X139943333Y-72717914D01*
X139943333Y-72717914D02*
X139848095Y-72765533D01*
X140752857Y-72479819D02*
X141419523Y-72479819D01*
X141419523Y-72479819D02*
X140990952Y-73479819D01*
X112797142Y-75554819D02*
X112463809Y-75078628D01*
X112225714Y-75554819D02*
X112225714Y-74554819D01*
X112225714Y-74554819D02*
X112606666Y-74554819D01*
X112606666Y-74554819D02*
X112701904Y-74602438D01*
X112701904Y-74602438D02*
X112749523Y-74650057D01*
X112749523Y-74650057D02*
X112797142Y-74745295D01*
X112797142Y-74745295D02*
X112797142Y-74888152D01*
X112797142Y-74888152D02*
X112749523Y-74983390D01*
X112749523Y-74983390D02*
X112701904Y-75031009D01*
X112701904Y-75031009D02*
X112606666Y-75078628D01*
X112606666Y-75078628D02*
X112225714Y-75078628D01*
X113749523Y-75554819D02*
X113178095Y-75554819D01*
X113463809Y-75554819D02*
X113463809Y-74554819D01*
X113463809Y-74554819D02*
X113368571Y-74697676D01*
X113368571Y-74697676D02*
X113273333Y-74792914D01*
X113273333Y-74792914D02*
X113178095Y-74840533D01*
X114606666Y-74554819D02*
X114416190Y-74554819D01*
X114416190Y-74554819D02*
X114320952Y-74602438D01*
X114320952Y-74602438D02*
X114273333Y-74650057D01*
X114273333Y-74650057D02*
X114178095Y-74792914D01*
X114178095Y-74792914D02*
X114130476Y-74983390D01*
X114130476Y-74983390D02*
X114130476Y-75364342D01*
X114130476Y-75364342D02*
X114178095Y-75459580D01*
X114178095Y-75459580D02*
X114225714Y-75507200D01*
X114225714Y-75507200D02*
X114320952Y-75554819D01*
X114320952Y-75554819D02*
X114511428Y-75554819D01*
X114511428Y-75554819D02*
X114606666Y-75507200D01*
X114606666Y-75507200D02*
X114654285Y-75459580D01*
X114654285Y-75459580D02*
X114701904Y-75364342D01*
X114701904Y-75364342D02*
X114701904Y-75126247D01*
X114701904Y-75126247D02*
X114654285Y-75031009D01*
X114654285Y-75031009D02*
X114606666Y-74983390D01*
X114606666Y-74983390D02*
X114511428Y-74935771D01*
X114511428Y-74935771D02*
X114320952Y-74935771D01*
X114320952Y-74935771D02*
X114225714Y-74983390D01*
X114225714Y-74983390D02*
X114178095Y-75031009D01*
X114178095Y-75031009D02*
X114130476Y-75126247D01*
X112797142Y-72209819D02*
X112463809Y-71733628D01*
X112225714Y-72209819D02*
X112225714Y-71209819D01*
X112225714Y-71209819D02*
X112606666Y-71209819D01*
X112606666Y-71209819D02*
X112701904Y-71257438D01*
X112701904Y-71257438D02*
X112749523Y-71305057D01*
X112749523Y-71305057D02*
X112797142Y-71400295D01*
X112797142Y-71400295D02*
X112797142Y-71543152D01*
X112797142Y-71543152D02*
X112749523Y-71638390D01*
X112749523Y-71638390D02*
X112701904Y-71686009D01*
X112701904Y-71686009D02*
X112606666Y-71733628D01*
X112606666Y-71733628D02*
X112225714Y-71733628D01*
X113749523Y-72209819D02*
X113178095Y-72209819D01*
X113463809Y-72209819D02*
X113463809Y-71209819D01*
X113463809Y-71209819D02*
X113368571Y-71352676D01*
X113368571Y-71352676D02*
X113273333Y-71447914D01*
X113273333Y-71447914D02*
X113178095Y-71495533D01*
X114654285Y-71209819D02*
X114178095Y-71209819D01*
X114178095Y-71209819D02*
X114130476Y-71686009D01*
X114130476Y-71686009D02*
X114178095Y-71638390D01*
X114178095Y-71638390D02*
X114273333Y-71590771D01*
X114273333Y-71590771D02*
X114511428Y-71590771D01*
X114511428Y-71590771D02*
X114606666Y-71638390D01*
X114606666Y-71638390D02*
X114654285Y-71686009D01*
X114654285Y-71686009D02*
X114701904Y-71781247D01*
X114701904Y-71781247D02*
X114701904Y-72019342D01*
X114701904Y-72019342D02*
X114654285Y-72114580D01*
X114654285Y-72114580D02*
X114606666Y-72162200D01*
X114606666Y-72162200D02*
X114511428Y-72209819D01*
X114511428Y-72209819D02*
X114273333Y-72209819D01*
X114273333Y-72209819D02*
X114178095Y-72162200D01*
X114178095Y-72162200D02*
X114130476Y-72114580D01*
X110482142Y-62049819D02*
X110148809Y-61573628D01*
X109910714Y-62049819D02*
X109910714Y-61049819D01*
X109910714Y-61049819D02*
X110291666Y-61049819D01*
X110291666Y-61049819D02*
X110386904Y-61097438D01*
X110386904Y-61097438D02*
X110434523Y-61145057D01*
X110434523Y-61145057D02*
X110482142Y-61240295D01*
X110482142Y-61240295D02*
X110482142Y-61383152D01*
X110482142Y-61383152D02*
X110434523Y-61478390D01*
X110434523Y-61478390D02*
X110386904Y-61526009D01*
X110386904Y-61526009D02*
X110291666Y-61573628D01*
X110291666Y-61573628D02*
X109910714Y-61573628D01*
X111434523Y-62049819D02*
X110863095Y-62049819D01*
X111148809Y-62049819D02*
X111148809Y-61049819D01*
X111148809Y-61049819D02*
X111053571Y-61192676D01*
X111053571Y-61192676D02*
X110958333Y-61287914D01*
X110958333Y-61287914D02*
X110863095Y-61335533D01*
X112291666Y-61383152D02*
X112291666Y-62049819D01*
X112053571Y-61002200D02*
X111815476Y-61716485D01*
X111815476Y-61716485D02*
X112434523Y-61716485D01*
X113657142Y-62049819D02*
X113323809Y-61573628D01*
X113085714Y-62049819D02*
X113085714Y-61049819D01*
X113085714Y-61049819D02*
X113466666Y-61049819D01*
X113466666Y-61049819D02*
X113561904Y-61097438D01*
X113561904Y-61097438D02*
X113609523Y-61145057D01*
X113609523Y-61145057D02*
X113657142Y-61240295D01*
X113657142Y-61240295D02*
X113657142Y-61383152D01*
X113657142Y-61383152D02*
X113609523Y-61478390D01*
X113609523Y-61478390D02*
X113561904Y-61526009D01*
X113561904Y-61526009D02*
X113466666Y-61573628D01*
X113466666Y-61573628D02*
X113085714Y-61573628D01*
X114609523Y-62049819D02*
X114038095Y-62049819D01*
X114323809Y-62049819D02*
X114323809Y-61049819D01*
X114323809Y-61049819D02*
X114228571Y-61192676D01*
X114228571Y-61192676D02*
X114133333Y-61287914D01*
X114133333Y-61287914D02*
X114038095Y-61335533D01*
X114942857Y-61049819D02*
X115561904Y-61049819D01*
X115561904Y-61049819D02*
X115228571Y-61430771D01*
X115228571Y-61430771D02*
X115371428Y-61430771D01*
X115371428Y-61430771D02*
X115466666Y-61478390D01*
X115466666Y-61478390D02*
X115514285Y-61526009D01*
X115514285Y-61526009D02*
X115561904Y-61621247D01*
X115561904Y-61621247D02*
X115561904Y-61859342D01*
X115561904Y-61859342D02*
X115514285Y-61954580D01*
X115514285Y-61954580D02*
X115466666Y-62002200D01*
X115466666Y-62002200D02*
X115371428Y-62049819D01*
X115371428Y-62049819D02*
X115085714Y-62049819D01*
X115085714Y-62049819D02*
X114990476Y-62002200D01*
X114990476Y-62002200D02*
X114942857Y-61954580D01*
X107307142Y-62049819D02*
X106973809Y-61573628D01*
X106735714Y-62049819D02*
X106735714Y-61049819D01*
X106735714Y-61049819D02*
X107116666Y-61049819D01*
X107116666Y-61049819D02*
X107211904Y-61097438D01*
X107211904Y-61097438D02*
X107259523Y-61145057D01*
X107259523Y-61145057D02*
X107307142Y-61240295D01*
X107307142Y-61240295D02*
X107307142Y-61383152D01*
X107307142Y-61383152D02*
X107259523Y-61478390D01*
X107259523Y-61478390D02*
X107211904Y-61526009D01*
X107211904Y-61526009D02*
X107116666Y-61573628D01*
X107116666Y-61573628D02*
X106735714Y-61573628D01*
X108259523Y-62049819D02*
X107688095Y-62049819D01*
X107973809Y-62049819D02*
X107973809Y-61049819D01*
X107973809Y-61049819D02*
X107878571Y-61192676D01*
X107878571Y-61192676D02*
X107783333Y-61287914D01*
X107783333Y-61287914D02*
X107688095Y-61335533D01*
X108640476Y-61145057D02*
X108688095Y-61097438D01*
X108688095Y-61097438D02*
X108783333Y-61049819D01*
X108783333Y-61049819D02*
X109021428Y-61049819D01*
X109021428Y-61049819D02*
X109116666Y-61097438D01*
X109116666Y-61097438D02*
X109164285Y-61145057D01*
X109164285Y-61145057D02*
X109211904Y-61240295D01*
X109211904Y-61240295D02*
X109211904Y-61335533D01*
X109211904Y-61335533D02*
X109164285Y-61478390D01*
X109164285Y-61478390D02*
X108592857Y-62049819D01*
X108592857Y-62049819D02*
X109211904Y-62049819D01*
X97782142Y-62049819D02*
X97448809Y-61573628D01*
X97210714Y-62049819D02*
X97210714Y-61049819D01*
X97210714Y-61049819D02*
X97591666Y-61049819D01*
X97591666Y-61049819D02*
X97686904Y-61097438D01*
X97686904Y-61097438D02*
X97734523Y-61145057D01*
X97734523Y-61145057D02*
X97782142Y-61240295D01*
X97782142Y-61240295D02*
X97782142Y-61383152D01*
X97782142Y-61383152D02*
X97734523Y-61478390D01*
X97734523Y-61478390D02*
X97686904Y-61526009D01*
X97686904Y-61526009D02*
X97591666Y-61573628D01*
X97591666Y-61573628D02*
X97210714Y-61573628D01*
X98734523Y-62049819D02*
X98163095Y-62049819D01*
X98448809Y-62049819D02*
X98448809Y-61049819D01*
X98448809Y-61049819D02*
X98353571Y-61192676D01*
X98353571Y-61192676D02*
X98258333Y-61287914D01*
X98258333Y-61287914D02*
X98163095Y-61335533D01*
X99686904Y-62049819D02*
X99115476Y-62049819D01*
X99401190Y-62049819D02*
X99401190Y-61049819D01*
X99401190Y-61049819D02*
X99305952Y-61192676D01*
X99305952Y-61192676D02*
X99210714Y-61287914D01*
X99210714Y-61287914D02*
X99115476Y-61335533D01*
X100957142Y-62049819D02*
X100623809Y-61573628D01*
X100385714Y-62049819D02*
X100385714Y-61049819D01*
X100385714Y-61049819D02*
X100766666Y-61049819D01*
X100766666Y-61049819D02*
X100861904Y-61097438D01*
X100861904Y-61097438D02*
X100909523Y-61145057D01*
X100909523Y-61145057D02*
X100957142Y-61240295D01*
X100957142Y-61240295D02*
X100957142Y-61383152D01*
X100957142Y-61383152D02*
X100909523Y-61478390D01*
X100909523Y-61478390D02*
X100861904Y-61526009D01*
X100861904Y-61526009D02*
X100766666Y-61573628D01*
X100766666Y-61573628D02*
X100385714Y-61573628D01*
X101909523Y-62049819D02*
X101338095Y-62049819D01*
X101623809Y-62049819D02*
X101623809Y-61049819D01*
X101623809Y-61049819D02*
X101528571Y-61192676D01*
X101528571Y-61192676D02*
X101433333Y-61287914D01*
X101433333Y-61287914D02*
X101338095Y-61335533D01*
X102528571Y-61049819D02*
X102623809Y-61049819D01*
X102623809Y-61049819D02*
X102719047Y-61097438D01*
X102719047Y-61097438D02*
X102766666Y-61145057D01*
X102766666Y-61145057D02*
X102814285Y-61240295D01*
X102814285Y-61240295D02*
X102861904Y-61430771D01*
X102861904Y-61430771D02*
X102861904Y-61668866D01*
X102861904Y-61668866D02*
X102814285Y-61859342D01*
X102814285Y-61859342D02*
X102766666Y-61954580D01*
X102766666Y-61954580D02*
X102719047Y-62002200D01*
X102719047Y-62002200D02*
X102623809Y-62049819D01*
X102623809Y-62049819D02*
X102528571Y-62049819D01*
X102528571Y-62049819D02*
X102433333Y-62002200D01*
X102433333Y-62002200D02*
X102385714Y-61954580D01*
X102385714Y-61954580D02*
X102338095Y-61859342D01*
X102338095Y-61859342D02*
X102290476Y-61668866D01*
X102290476Y-61668866D02*
X102290476Y-61430771D01*
X102290476Y-61430771D02*
X102338095Y-61240295D01*
X102338095Y-61240295D02*
X102385714Y-61145057D01*
X102385714Y-61145057D02*
X102433333Y-61097438D01*
X102433333Y-61097438D02*
X102528571Y-61049819D01*
X104608333Y-62049819D02*
X104275000Y-61573628D01*
X104036905Y-62049819D02*
X104036905Y-61049819D01*
X104036905Y-61049819D02*
X104417857Y-61049819D01*
X104417857Y-61049819D02*
X104513095Y-61097438D01*
X104513095Y-61097438D02*
X104560714Y-61145057D01*
X104560714Y-61145057D02*
X104608333Y-61240295D01*
X104608333Y-61240295D02*
X104608333Y-61383152D01*
X104608333Y-61383152D02*
X104560714Y-61478390D01*
X104560714Y-61478390D02*
X104513095Y-61526009D01*
X104513095Y-61526009D02*
X104417857Y-61573628D01*
X104417857Y-61573628D02*
X104036905Y-61573628D01*
X105084524Y-62049819D02*
X105275000Y-62049819D01*
X105275000Y-62049819D02*
X105370238Y-62002200D01*
X105370238Y-62002200D02*
X105417857Y-61954580D01*
X105417857Y-61954580D02*
X105513095Y-61811723D01*
X105513095Y-61811723D02*
X105560714Y-61621247D01*
X105560714Y-61621247D02*
X105560714Y-61240295D01*
X105560714Y-61240295D02*
X105513095Y-61145057D01*
X105513095Y-61145057D02*
X105465476Y-61097438D01*
X105465476Y-61097438D02*
X105370238Y-61049819D01*
X105370238Y-61049819D02*
X105179762Y-61049819D01*
X105179762Y-61049819D02*
X105084524Y-61097438D01*
X105084524Y-61097438D02*
X105036905Y-61145057D01*
X105036905Y-61145057D02*
X104989286Y-61240295D01*
X104989286Y-61240295D02*
X104989286Y-61478390D01*
X104989286Y-61478390D02*
X105036905Y-61573628D01*
X105036905Y-61573628D02*
X105084524Y-61621247D01*
X105084524Y-61621247D02*
X105179762Y-61668866D01*
X105179762Y-61668866D02*
X105370238Y-61668866D01*
X105370238Y-61668866D02*
X105465476Y-61621247D01*
X105465476Y-61621247D02*
X105513095Y-61573628D01*
X105513095Y-61573628D02*
X105560714Y-61478390D01*
X121118333Y-45764819D02*
X120785000Y-45288628D01*
X120546905Y-45764819D02*
X120546905Y-44764819D01*
X120546905Y-44764819D02*
X120927857Y-44764819D01*
X120927857Y-44764819D02*
X121023095Y-44812438D01*
X121023095Y-44812438D02*
X121070714Y-44860057D01*
X121070714Y-44860057D02*
X121118333Y-44955295D01*
X121118333Y-44955295D02*
X121118333Y-45098152D01*
X121118333Y-45098152D02*
X121070714Y-45193390D01*
X121070714Y-45193390D02*
X121023095Y-45241009D01*
X121023095Y-45241009D02*
X120927857Y-45288628D01*
X120927857Y-45288628D02*
X120546905Y-45288628D01*
X121689762Y-45193390D02*
X121594524Y-45145771D01*
X121594524Y-45145771D02*
X121546905Y-45098152D01*
X121546905Y-45098152D02*
X121499286Y-45002914D01*
X121499286Y-45002914D02*
X121499286Y-44955295D01*
X121499286Y-44955295D02*
X121546905Y-44860057D01*
X121546905Y-44860057D02*
X121594524Y-44812438D01*
X121594524Y-44812438D02*
X121689762Y-44764819D01*
X121689762Y-44764819D02*
X121880238Y-44764819D01*
X121880238Y-44764819D02*
X121975476Y-44812438D01*
X121975476Y-44812438D02*
X122023095Y-44860057D01*
X122023095Y-44860057D02*
X122070714Y-44955295D01*
X122070714Y-44955295D02*
X122070714Y-45002914D01*
X122070714Y-45002914D02*
X122023095Y-45098152D01*
X122023095Y-45098152D02*
X121975476Y-45145771D01*
X121975476Y-45145771D02*
X121880238Y-45193390D01*
X121880238Y-45193390D02*
X121689762Y-45193390D01*
X121689762Y-45193390D02*
X121594524Y-45241009D01*
X121594524Y-45241009D02*
X121546905Y-45288628D01*
X121546905Y-45288628D02*
X121499286Y-45383866D01*
X121499286Y-45383866D02*
X121499286Y-45574342D01*
X121499286Y-45574342D02*
X121546905Y-45669580D01*
X121546905Y-45669580D02*
X121594524Y-45717200D01*
X121594524Y-45717200D02*
X121689762Y-45764819D01*
X121689762Y-45764819D02*
X121880238Y-45764819D01*
X121880238Y-45764819D02*
X121975476Y-45717200D01*
X121975476Y-45717200D02*
X122023095Y-45669580D01*
X122023095Y-45669580D02*
X122070714Y-45574342D01*
X122070714Y-45574342D02*
X122070714Y-45383866D01*
X122070714Y-45383866D02*
X122023095Y-45288628D01*
X122023095Y-45288628D02*
X121975476Y-45241009D01*
X121975476Y-45241009D02*
X121880238Y-45193390D01*
X117878433Y-45764819D02*
X117545100Y-45288628D01*
X117307005Y-45764819D02*
X117307005Y-44764819D01*
X117307005Y-44764819D02*
X117687957Y-44764819D01*
X117687957Y-44764819D02*
X117783195Y-44812438D01*
X117783195Y-44812438D02*
X117830814Y-44860057D01*
X117830814Y-44860057D02*
X117878433Y-44955295D01*
X117878433Y-44955295D02*
X117878433Y-45098152D01*
X117878433Y-45098152D02*
X117830814Y-45193390D01*
X117830814Y-45193390D02*
X117783195Y-45241009D01*
X117783195Y-45241009D02*
X117687957Y-45288628D01*
X117687957Y-45288628D02*
X117307005Y-45288628D01*
X118211767Y-44764819D02*
X118878433Y-44764819D01*
X118878433Y-44764819D02*
X118449862Y-45764819D01*
X124228433Y-45764819D02*
X123895100Y-45288628D01*
X123657005Y-45764819D02*
X123657005Y-44764819D01*
X123657005Y-44764819D02*
X124037957Y-44764819D01*
X124037957Y-44764819D02*
X124133195Y-44812438D01*
X124133195Y-44812438D02*
X124180814Y-44860057D01*
X124180814Y-44860057D02*
X124228433Y-44955295D01*
X124228433Y-44955295D02*
X124228433Y-45098152D01*
X124228433Y-45098152D02*
X124180814Y-45193390D01*
X124180814Y-45193390D02*
X124133195Y-45241009D01*
X124133195Y-45241009D02*
X124037957Y-45288628D01*
X124037957Y-45288628D02*
X123657005Y-45288628D01*
X125085576Y-44764819D02*
X124895100Y-44764819D01*
X124895100Y-44764819D02*
X124799862Y-44812438D01*
X124799862Y-44812438D02*
X124752243Y-44860057D01*
X124752243Y-44860057D02*
X124657005Y-45002914D01*
X124657005Y-45002914D02*
X124609386Y-45193390D01*
X124609386Y-45193390D02*
X124609386Y-45574342D01*
X124609386Y-45574342D02*
X124657005Y-45669580D01*
X124657005Y-45669580D02*
X124704624Y-45717200D01*
X124704624Y-45717200D02*
X124799862Y-45764819D01*
X124799862Y-45764819D02*
X124990338Y-45764819D01*
X124990338Y-45764819D02*
X125085576Y-45717200D01*
X125085576Y-45717200D02*
X125133195Y-45669580D01*
X125133195Y-45669580D02*
X125180814Y-45574342D01*
X125180814Y-45574342D02*
X125180814Y-45336247D01*
X125180814Y-45336247D02*
X125133195Y-45241009D01*
X125133195Y-45241009D02*
X125085576Y-45193390D01*
X125085576Y-45193390D02*
X124990338Y-45145771D01*
X124990338Y-45145771D02*
X124799862Y-45145771D01*
X124799862Y-45145771D02*
X124704624Y-45193390D01*
X124704624Y-45193390D02*
X124657005Y-45241009D01*
X124657005Y-45241009D02*
X124609386Y-45336247D01*
X101658333Y-37509819D02*
X101325000Y-37033628D01*
X101086905Y-37509819D02*
X101086905Y-36509819D01*
X101086905Y-36509819D02*
X101467857Y-36509819D01*
X101467857Y-36509819D02*
X101563095Y-36557438D01*
X101563095Y-36557438D02*
X101610714Y-36605057D01*
X101610714Y-36605057D02*
X101658333Y-36700295D01*
X101658333Y-36700295D02*
X101658333Y-36843152D01*
X101658333Y-36843152D02*
X101610714Y-36938390D01*
X101610714Y-36938390D02*
X101563095Y-36986009D01*
X101563095Y-36986009D02*
X101467857Y-37033628D01*
X101467857Y-37033628D02*
X101086905Y-37033628D01*
X102563095Y-36509819D02*
X102086905Y-36509819D01*
X102086905Y-36509819D02*
X102039286Y-36986009D01*
X102039286Y-36986009D02*
X102086905Y-36938390D01*
X102086905Y-36938390D02*
X102182143Y-36890771D01*
X102182143Y-36890771D02*
X102420238Y-36890771D01*
X102420238Y-36890771D02*
X102515476Y-36938390D01*
X102515476Y-36938390D02*
X102563095Y-36986009D01*
X102563095Y-36986009D02*
X102610714Y-37081247D01*
X102610714Y-37081247D02*
X102610714Y-37319342D01*
X102610714Y-37319342D02*
X102563095Y-37414580D01*
X102563095Y-37414580D02*
X102515476Y-37462200D01*
X102515476Y-37462200D02*
X102420238Y-37509819D01*
X102420238Y-37509819D02*
X102182143Y-37509819D01*
X102182143Y-37509819D02*
X102086905Y-37462200D01*
X102086905Y-37462200D02*
X102039286Y-37414580D01*
X104608333Y-37509819D02*
X104275000Y-37033628D01*
X104036905Y-37509819D02*
X104036905Y-36509819D01*
X104036905Y-36509819D02*
X104417857Y-36509819D01*
X104417857Y-36509819D02*
X104513095Y-36557438D01*
X104513095Y-36557438D02*
X104560714Y-36605057D01*
X104560714Y-36605057D02*
X104608333Y-36700295D01*
X104608333Y-36700295D02*
X104608333Y-36843152D01*
X104608333Y-36843152D02*
X104560714Y-36938390D01*
X104560714Y-36938390D02*
X104513095Y-36986009D01*
X104513095Y-36986009D02*
X104417857Y-37033628D01*
X104417857Y-37033628D02*
X104036905Y-37033628D01*
X105465476Y-36843152D02*
X105465476Y-37509819D01*
X105227381Y-36462200D02*
X104989286Y-37176485D01*
X104989286Y-37176485D02*
X105608333Y-37176485D01*
X107783333Y-37509819D02*
X107450000Y-37033628D01*
X107211905Y-37509819D02*
X107211905Y-36509819D01*
X107211905Y-36509819D02*
X107592857Y-36509819D01*
X107592857Y-36509819D02*
X107688095Y-36557438D01*
X107688095Y-36557438D02*
X107735714Y-36605057D01*
X107735714Y-36605057D02*
X107783333Y-36700295D01*
X107783333Y-36700295D02*
X107783333Y-36843152D01*
X107783333Y-36843152D02*
X107735714Y-36938390D01*
X107735714Y-36938390D02*
X107688095Y-36986009D01*
X107688095Y-36986009D02*
X107592857Y-37033628D01*
X107592857Y-37033628D02*
X107211905Y-37033628D01*
X108116667Y-36509819D02*
X108735714Y-36509819D01*
X108735714Y-36509819D02*
X108402381Y-36890771D01*
X108402381Y-36890771D02*
X108545238Y-36890771D01*
X108545238Y-36890771D02*
X108640476Y-36938390D01*
X108640476Y-36938390D02*
X108688095Y-36986009D01*
X108688095Y-36986009D02*
X108735714Y-37081247D01*
X108735714Y-37081247D02*
X108735714Y-37319342D01*
X108735714Y-37319342D02*
X108688095Y-37414580D01*
X108688095Y-37414580D02*
X108640476Y-37462200D01*
X108640476Y-37462200D02*
X108545238Y-37509819D01*
X108545238Y-37509819D02*
X108259524Y-37509819D01*
X108259524Y-37509819D02*
X108164286Y-37462200D01*
X108164286Y-37462200D02*
X108116667Y-37414580D01*
X110958333Y-37509819D02*
X110625000Y-37033628D01*
X110386905Y-37509819D02*
X110386905Y-36509819D01*
X110386905Y-36509819D02*
X110767857Y-36509819D01*
X110767857Y-36509819D02*
X110863095Y-36557438D01*
X110863095Y-36557438D02*
X110910714Y-36605057D01*
X110910714Y-36605057D02*
X110958333Y-36700295D01*
X110958333Y-36700295D02*
X110958333Y-36843152D01*
X110958333Y-36843152D02*
X110910714Y-36938390D01*
X110910714Y-36938390D02*
X110863095Y-36986009D01*
X110863095Y-36986009D02*
X110767857Y-37033628D01*
X110767857Y-37033628D02*
X110386905Y-37033628D01*
X111339286Y-36605057D02*
X111386905Y-36557438D01*
X111386905Y-36557438D02*
X111482143Y-36509819D01*
X111482143Y-36509819D02*
X111720238Y-36509819D01*
X111720238Y-36509819D02*
X111815476Y-36557438D01*
X111815476Y-36557438D02*
X111863095Y-36605057D01*
X111863095Y-36605057D02*
X111910714Y-36700295D01*
X111910714Y-36700295D02*
X111910714Y-36795533D01*
X111910714Y-36795533D02*
X111863095Y-36938390D01*
X111863095Y-36938390D02*
X111291667Y-37509819D01*
X111291667Y-37509819D02*
X111910714Y-37509819D01*
X98258333Y-37509819D02*
X97925000Y-37033628D01*
X97686905Y-37509819D02*
X97686905Y-36509819D01*
X97686905Y-36509819D02*
X98067857Y-36509819D01*
X98067857Y-36509819D02*
X98163095Y-36557438D01*
X98163095Y-36557438D02*
X98210714Y-36605057D01*
X98210714Y-36605057D02*
X98258333Y-36700295D01*
X98258333Y-36700295D02*
X98258333Y-36843152D01*
X98258333Y-36843152D02*
X98210714Y-36938390D01*
X98210714Y-36938390D02*
X98163095Y-36986009D01*
X98163095Y-36986009D02*
X98067857Y-37033628D01*
X98067857Y-37033628D02*
X97686905Y-37033628D01*
X99210714Y-37509819D02*
X98639286Y-37509819D01*
X98925000Y-37509819D02*
X98925000Y-36509819D01*
X98925000Y-36509819D02*
X98829762Y-36652676D01*
X98829762Y-36652676D02*
X98734524Y-36747914D01*
X98734524Y-36747914D02*
X98639286Y-36795533D01*
X145716666Y-48984819D02*
X145716666Y-49699104D01*
X145716666Y-49699104D02*
X145669047Y-49841961D01*
X145669047Y-49841961D02*
X145573809Y-49937200D01*
X145573809Y-49937200D02*
X145430952Y-49984819D01*
X145430952Y-49984819D02*
X145335714Y-49984819D01*
X146240476Y-49984819D02*
X146430952Y-49984819D01*
X146430952Y-49984819D02*
X146526190Y-49937200D01*
X146526190Y-49937200D02*
X146573809Y-49889580D01*
X146573809Y-49889580D02*
X146669047Y-49746723D01*
X146669047Y-49746723D02*
X146716666Y-49556247D01*
X146716666Y-49556247D02*
X146716666Y-49175295D01*
X146716666Y-49175295D02*
X146669047Y-49080057D01*
X146669047Y-49080057D02*
X146621428Y-49032438D01*
X146621428Y-49032438D02*
X146526190Y-48984819D01*
X146526190Y-48984819D02*
X146335714Y-48984819D01*
X146335714Y-48984819D02*
X146240476Y-49032438D01*
X146240476Y-49032438D02*
X146192857Y-49080057D01*
X146192857Y-49080057D02*
X146145238Y-49175295D01*
X146145238Y-49175295D02*
X146145238Y-49413390D01*
X146145238Y-49413390D02*
X146192857Y-49508628D01*
X146192857Y-49508628D02*
X146240476Y-49556247D01*
X146240476Y-49556247D02*
X146335714Y-49603866D01*
X146335714Y-49603866D02*
X146526190Y-49603866D01*
X146526190Y-49603866D02*
X146621428Y-49556247D01*
X146621428Y-49556247D02*
X146669047Y-49508628D01*
X146669047Y-49508628D02*
X146716666Y-49413390D01*
X145716666Y-39459819D02*
X145716666Y-40174104D01*
X145716666Y-40174104D02*
X145669047Y-40316961D01*
X145669047Y-40316961D02*
X145573809Y-40412200D01*
X145573809Y-40412200D02*
X145430952Y-40459819D01*
X145430952Y-40459819D02*
X145335714Y-40459819D01*
X146335714Y-39888390D02*
X146240476Y-39840771D01*
X146240476Y-39840771D02*
X146192857Y-39793152D01*
X146192857Y-39793152D02*
X146145238Y-39697914D01*
X146145238Y-39697914D02*
X146145238Y-39650295D01*
X146145238Y-39650295D02*
X146192857Y-39555057D01*
X146192857Y-39555057D02*
X146240476Y-39507438D01*
X146240476Y-39507438D02*
X146335714Y-39459819D01*
X146335714Y-39459819D02*
X146526190Y-39459819D01*
X146526190Y-39459819D02*
X146621428Y-39507438D01*
X146621428Y-39507438D02*
X146669047Y-39555057D01*
X146669047Y-39555057D02*
X146716666Y-39650295D01*
X146716666Y-39650295D02*
X146716666Y-39697914D01*
X146716666Y-39697914D02*
X146669047Y-39793152D01*
X146669047Y-39793152D02*
X146621428Y-39840771D01*
X146621428Y-39840771D02*
X146526190Y-39888390D01*
X146526190Y-39888390D02*
X146335714Y-39888390D01*
X146335714Y-39888390D02*
X146240476Y-39936009D01*
X146240476Y-39936009D02*
X146192857Y-39983628D01*
X146192857Y-39983628D02*
X146145238Y-40078866D01*
X146145238Y-40078866D02*
X146145238Y-40269342D01*
X146145238Y-40269342D02*
X146192857Y-40364580D01*
X146192857Y-40364580D02*
X146240476Y-40412200D01*
X146240476Y-40412200D02*
X146335714Y-40459819D01*
X146335714Y-40459819D02*
X146526190Y-40459819D01*
X146526190Y-40459819D02*
X146621428Y-40412200D01*
X146621428Y-40412200D02*
X146669047Y-40364580D01*
X146669047Y-40364580D02*
X146716666Y-40269342D01*
X146716666Y-40269342D02*
X146716666Y-40078866D01*
X146716666Y-40078866D02*
X146669047Y-39983628D01*
X146669047Y-39983628D02*
X146621428Y-39936009D01*
X146621428Y-39936009D02*
X146526190Y-39888390D01*
D12*
X158519318Y-79058332D02*
X159426461Y-79058332D01*
X159426461Y-79058332D02*
X159607889Y-79118809D01*
X159607889Y-79118809D02*
X159728842Y-79239761D01*
X159728842Y-79239761D02*
X159789318Y-79421190D01*
X159789318Y-79421190D02*
X159789318Y-79542142D01*
X158519318Y-77909285D02*
X158519318Y-78151190D01*
X158519318Y-78151190D02*
X158579794Y-78272142D01*
X158579794Y-78272142D02*
X158640270Y-78332618D01*
X158640270Y-78332618D02*
X158821699Y-78453571D01*
X158821699Y-78453571D02*
X159063603Y-78514047D01*
X159063603Y-78514047D02*
X159547413Y-78514047D01*
X159547413Y-78514047D02*
X159668365Y-78453571D01*
X159668365Y-78453571D02*
X159728842Y-78393094D01*
X159728842Y-78393094D02*
X159789318Y-78272142D01*
X159789318Y-78272142D02*
X159789318Y-78030237D01*
X159789318Y-78030237D02*
X159728842Y-77909285D01*
X159728842Y-77909285D02*
X159668365Y-77848809D01*
X159668365Y-77848809D02*
X159547413Y-77788332D01*
X159547413Y-77788332D02*
X159245032Y-77788332D01*
X159245032Y-77788332D02*
X159124080Y-77848809D01*
X159124080Y-77848809D02*
X159063603Y-77909285D01*
X159063603Y-77909285D02*
X159003127Y-78030237D01*
X159003127Y-78030237D02*
X159003127Y-78272142D01*
X159003127Y-78272142D02*
X159063603Y-78393094D01*
X159063603Y-78393094D02*
X159124080Y-78453571D01*
X159124080Y-78453571D02*
X159245032Y-78514047D01*
D11*
X150801666Y-39459819D02*
X150801666Y-40174104D01*
X150801666Y-40174104D02*
X150754047Y-40316961D01*
X150754047Y-40316961D02*
X150658809Y-40412200D01*
X150658809Y-40412200D02*
X150515952Y-40459819D01*
X150515952Y-40459819D02*
X150420714Y-40459819D01*
X151754047Y-39459819D02*
X151277857Y-39459819D01*
X151277857Y-39459819D02*
X151230238Y-39936009D01*
X151230238Y-39936009D02*
X151277857Y-39888390D01*
X151277857Y-39888390D02*
X151373095Y-39840771D01*
X151373095Y-39840771D02*
X151611190Y-39840771D01*
X151611190Y-39840771D02*
X151706428Y-39888390D01*
X151706428Y-39888390D02*
X151754047Y-39936009D01*
X151754047Y-39936009D02*
X151801666Y-40031247D01*
X151801666Y-40031247D02*
X151801666Y-40269342D01*
X151801666Y-40269342D02*
X151754047Y-40364580D01*
X151754047Y-40364580D02*
X151706428Y-40412200D01*
X151706428Y-40412200D02*
X151611190Y-40459819D01*
X151611190Y-40459819D02*
X151373095Y-40459819D01*
X151373095Y-40459819D02*
X151277857Y-40412200D01*
X151277857Y-40412200D02*
X151230238Y-40364580D01*
X157811666Y-31624819D02*
X157811666Y-32339104D01*
X157811666Y-32339104D02*
X157764047Y-32481961D01*
X157764047Y-32481961D02*
X157668809Y-32577200D01*
X157668809Y-32577200D02*
X157525952Y-32624819D01*
X157525952Y-32624819D02*
X157430714Y-32624819D01*
X158716428Y-31958152D02*
X158716428Y-32624819D01*
X158478333Y-31577200D02*
X158240238Y-32291485D01*
X158240238Y-32291485D02*
X158859285Y-32291485D01*
X149531666Y-48984819D02*
X149531666Y-49699104D01*
X149531666Y-49699104D02*
X149484047Y-49841961D01*
X149484047Y-49841961D02*
X149388809Y-49937200D01*
X149388809Y-49937200D02*
X149245952Y-49984819D01*
X149245952Y-49984819D02*
X149150714Y-49984819D01*
X149912619Y-48984819D02*
X150531666Y-48984819D01*
X150531666Y-48984819D02*
X150198333Y-49365771D01*
X150198333Y-49365771D02*
X150341190Y-49365771D01*
X150341190Y-49365771D02*
X150436428Y-49413390D01*
X150436428Y-49413390D02*
X150484047Y-49461009D01*
X150484047Y-49461009D02*
X150531666Y-49556247D01*
X150531666Y-49556247D02*
X150531666Y-49794342D01*
X150531666Y-49794342D02*
X150484047Y-49889580D01*
X150484047Y-49889580D02*
X150436428Y-49937200D01*
X150436428Y-49937200D02*
X150341190Y-49984819D01*
X150341190Y-49984819D02*
X150055476Y-49984819D01*
X150055476Y-49984819D02*
X149960238Y-49937200D01*
X149960238Y-49937200D02*
X149912619Y-49889580D01*
X157811666Y-53429819D02*
X157811666Y-54144104D01*
X157811666Y-54144104D02*
X157764047Y-54286961D01*
X157764047Y-54286961D02*
X157668809Y-54382200D01*
X157668809Y-54382200D02*
X157525952Y-54429819D01*
X157525952Y-54429819D02*
X157430714Y-54429819D01*
X158240238Y-53525057D02*
X158287857Y-53477438D01*
X158287857Y-53477438D02*
X158383095Y-53429819D01*
X158383095Y-53429819D02*
X158621190Y-53429819D01*
X158621190Y-53429819D02*
X158716428Y-53477438D01*
X158716428Y-53477438D02*
X158764047Y-53525057D01*
X158764047Y-53525057D02*
X158811666Y-53620295D01*
X158811666Y-53620295D02*
X158811666Y-53715533D01*
X158811666Y-53715533D02*
X158764047Y-53858390D01*
X158764047Y-53858390D02*
X158192619Y-54429819D01*
X158192619Y-54429819D02*
X158811666Y-54429819D01*
X125396666Y-42634819D02*
X125396666Y-43349104D01*
X125396666Y-43349104D02*
X125349047Y-43491961D01*
X125349047Y-43491961D02*
X125253809Y-43587200D01*
X125253809Y-43587200D02*
X125110952Y-43634819D01*
X125110952Y-43634819D02*
X125015714Y-43634819D01*
X126396666Y-43634819D02*
X125825238Y-43634819D01*
X126110952Y-43634819D02*
X126110952Y-42634819D01*
X126110952Y-42634819D02*
X126015714Y-42777676D01*
X126015714Y-42777676D02*
X125920476Y-42872914D01*
X125920476Y-42872914D02*
X125825238Y-42920533D01*
X144618333Y-32769468D02*
X144570714Y-32817088D01*
X144570714Y-32817088D02*
X144427857Y-32864707D01*
X144427857Y-32864707D02*
X144332619Y-32864707D01*
X144332619Y-32864707D02*
X144189762Y-32817088D01*
X144189762Y-32817088D02*
X144094524Y-32721849D01*
X144094524Y-32721849D02*
X144046905Y-32626611D01*
X144046905Y-32626611D02*
X143999286Y-32436135D01*
X143999286Y-32436135D02*
X143999286Y-32293278D01*
X143999286Y-32293278D02*
X144046905Y-32102802D01*
X144046905Y-32102802D02*
X144094524Y-32007564D01*
X144094524Y-32007564D02*
X144189762Y-31912326D01*
X144189762Y-31912326D02*
X144332619Y-31864707D01*
X144332619Y-31864707D02*
X144427857Y-31864707D01*
X144427857Y-31864707D02*
X144570714Y-31912326D01*
X144570714Y-31912326D02*
X144618333Y-31959945D01*
X144951667Y-31864707D02*
X145618333Y-31864707D01*
X145618333Y-31864707D02*
X145189762Y-32864707D01*
X139308333Y-84794580D02*
X139260714Y-84842200D01*
X139260714Y-84842200D02*
X139117857Y-84889819D01*
X139117857Y-84889819D02*
X139022619Y-84889819D01*
X139022619Y-84889819D02*
X138879762Y-84842200D01*
X138879762Y-84842200D02*
X138784524Y-84746961D01*
X138784524Y-84746961D02*
X138736905Y-84651723D01*
X138736905Y-84651723D02*
X138689286Y-84461247D01*
X138689286Y-84461247D02*
X138689286Y-84318390D01*
X138689286Y-84318390D02*
X138736905Y-84127914D01*
X138736905Y-84127914D02*
X138784524Y-84032676D01*
X138784524Y-84032676D02*
X138879762Y-83937438D01*
X138879762Y-83937438D02*
X139022619Y-83889819D01*
X139022619Y-83889819D02*
X139117857Y-83889819D01*
X139117857Y-83889819D02*
X139260714Y-83937438D01*
X139260714Y-83937438D02*
X139308333Y-83985057D01*
X140165476Y-83889819D02*
X139975000Y-83889819D01*
X139975000Y-83889819D02*
X139879762Y-83937438D01*
X139879762Y-83937438D02*
X139832143Y-83985057D01*
X139832143Y-83985057D02*
X139736905Y-84127914D01*
X139736905Y-84127914D02*
X139689286Y-84318390D01*
X139689286Y-84318390D02*
X139689286Y-84699342D01*
X139689286Y-84699342D02*
X139736905Y-84794580D01*
X139736905Y-84794580D02*
X139784524Y-84842200D01*
X139784524Y-84842200D02*
X139879762Y-84889819D01*
X139879762Y-84889819D02*
X140070238Y-84889819D01*
X140070238Y-84889819D02*
X140165476Y-84842200D01*
X140165476Y-84842200D02*
X140213095Y-84794580D01*
X140213095Y-84794580D02*
X140260714Y-84699342D01*
X140260714Y-84699342D02*
X140260714Y-84461247D01*
X140260714Y-84461247D02*
X140213095Y-84366009D01*
X140213095Y-84366009D02*
X140165476Y-84318390D01*
X140165476Y-84318390D02*
X140070238Y-84270771D01*
X140070238Y-84270771D02*
X139879762Y-84270771D01*
X139879762Y-84270771D02*
X139784524Y-84318390D01*
X139784524Y-84318390D02*
X139736905Y-84366009D01*
X139736905Y-84366009D02*
X139689286Y-84461247D01*
X119848333Y-58144580D02*
X119800714Y-58192200D01*
X119800714Y-58192200D02*
X119657857Y-58239819D01*
X119657857Y-58239819D02*
X119562619Y-58239819D01*
X119562619Y-58239819D02*
X119419762Y-58192200D01*
X119419762Y-58192200D02*
X119324524Y-58096961D01*
X119324524Y-58096961D02*
X119276905Y-58001723D01*
X119276905Y-58001723D02*
X119229286Y-57811247D01*
X119229286Y-57811247D02*
X119229286Y-57668390D01*
X119229286Y-57668390D02*
X119276905Y-57477914D01*
X119276905Y-57477914D02*
X119324524Y-57382676D01*
X119324524Y-57382676D02*
X119419762Y-57287438D01*
X119419762Y-57287438D02*
X119562619Y-57239819D01*
X119562619Y-57239819D02*
X119657857Y-57239819D01*
X119657857Y-57239819D02*
X119800714Y-57287438D01*
X119800714Y-57287438D02*
X119848333Y-57335057D01*
X120753095Y-57239819D02*
X120276905Y-57239819D01*
X120276905Y-57239819D02*
X120229286Y-57716009D01*
X120229286Y-57716009D02*
X120276905Y-57668390D01*
X120276905Y-57668390D02*
X120372143Y-57620771D01*
X120372143Y-57620771D02*
X120610238Y-57620771D01*
X120610238Y-57620771D02*
X120705476Y-57668390D01*
X120705476Y-57668390D02*
X120753095Y-57716009D01*
X120753095Y-57716009D02*
X120800714Y-57811247D01*
X120800714Y-57811247D02*
X120800714Y-58049342D01*
X120800714Y-58049342D02*
X120753095Y-58144580D01*
X120753095Y-58144580D02*
X120705476Y-58192200D01*
X120705476Y-58192200D02*
X120610238Y-58239819D01*
X120610238Y-58239819D02*
X120372143Y-58239819D01*
X120372143Y-58239819D02*
X120276905Y-58192200D01*
X120276905Y-58192200D02*
X120229286Y-58144580D01*
X93158333Y-62529580D02*
X93110714Y-62577200D01*
X93110714Y-62577200D02*
X92967857Y-62624819D01*
X92967857Y-62624819D02*
X92872619Y-62624819D01*
X92872619Y-62624819D02*
X92729762Y-62577200D01*
X92729762Y-62577200D02*
X92634524Y-62481961D01*
X92634524Y-62481961D02*
X92586905Y-62386723D01*
X92586905Y-62386723D02*
X92539286Y-62196247D01*
X92539286Y-62196247D02*
X92539286Y-62053390D01*
X92539286Y-62053390D02*
X92586905Y-61862914D01*
X92586905Y-61862914D02*
X92634524Y-61767676D01*
X92634524Y-61767676D02*
X92729762Y-61672438D01*
X92729762Y-61672438D02*
X92872619Y-61624819D01*
X92872619Y-61624819D02*
X92967857Y-61624819D01*
X92967857Y-61624819D02*
X93110714Y-61672438D01*
X93110714Y-61672438D02*
X93158333Y-61720057D01*
X94015476Y-61958152D02*
X94015476Y-62624819D01*
X93777381Y-61577200D02*
X93539286Y-62291485D01*
X93539286Y-62291485D02*
X94158333Y-62291485D01*
X93178321Y-37414580D02*
X93130702Y-37462200D01*
X93130702Y-37462200D02*
X92987845Y-37509819D01*
X92987845Y-37509819D02*
X92892607Y-37509819D01*
X92892607Y-37509819D02*
X92749750Y-37462200D01*
X92749750Y-37462200D02*
X92654512Y-37366961D01*
X92654512Y-37366961D02*
X92606893Y-37271723D01*
X92606893Y-37271723D02*
X92559274Y-37081247D01*
X92559274Y-37081247D02*
X92559274Y-36938390D01*
X92559274Y-36938390D02*
X92606893Y-36747914D01*
X92606893Y-36747914D02*
X92654512Y-36652676D01*
X92654512Y-36652676D02*
X92749750Y-36557438D01*
X92749750Y-36557438D02*
X92892607Y-36509819D01*
X92892607Y-36509819D02*
X92987845Y-36509819D01*
X92987845Y-36509819D02*
X93130702Y-36557438D01*
X93130702Y-36557438D02*
X93178321Y-36605057D01*
X93511655Y-36509819D02*
X94130702Y-36509819D01*
X94130702Y-36509819D02*
X93797369Y-36890771D01*
X93797369Y-36890771D02*
X93940226Y-36890771D01*
X93940226Y-36890771D02*
X94035464Y-36938390D01*
X94035464Y-36938390D02*
X94083083Y-36986009D01*
X94083083Y-36986009D02*
X94130702Y-37081247D01*
X94130702Y-37081247D02*
X94130702Y-37319342D01*
X94130702Y-37319342D02*
X94083083Y-37414580D01*
X94083083Y-37414580D02*
X94035464Y-37462200D01*
X94035464Y-37462200D02*
X93940226Y-37509819D01*
X93940226Y-37509819D02*
X93654512Y-37509819D01*
X93654512Y-37509819D02*
X93559274Y-37462200D01*
X93559274Y-37462200D02*
X93511655Y-37414580D01*
X114133333Y-34874580D02*
X114085714Y-34922200D01*
X114085714Y-34922200D02*
X113942857Y-34969819D01*
X113942857Y-34969819D02*
X113847619Y-34969819D01*
X113847619Y-34969819D02*
X113704762Y-34922200D01*
X113704762Y-34922200D02*
X113609524Y-34826961D01*
X113609524Y-34826961D02*
X113561905Y-34731723D01*
X113561905Y-34731723D02*
X113514286Y-34541247D01*
X113514286Y-34541247D02*
X113514286Y-34398390D01*
X113514286Y-34398390D02*
X113561905Y-34207914D01*
X113561905Y-34207914D02*
X113609524Y-34112676D01*
X113609524Y-34112676D02*
X113704762Y-34017438D01*
X113704762Y-34017438D02*
X113847619Y-33969819D01*
X113847619Y-33969819D02*
X113942857Y-33969819D01*
X113942857Y-33969819D02*
X114085714Y-34017438D01*
X114085714Y-34017438D02*
X114133333Y-34065057D01*
X114514286Y-34065057D02*
X114561905Y-34017438D01*
X114561905Y-34017438D02*
X114657143Y-33969819D01*
X114657143Y-33969819D02*
X114895238Y-33969819D01*
X114895238Y-33969819D02*
X114990476Y-34017438D01*
X114990476Y-34017438D02*
X115038095Y-34065057D01*
X115038095Y-34065057D02*
X115085714Y-34160295D01*
X115085714Y-34160295D02*
X115085714Y-34255533D01*
X115085714Y-34255533D02*
X115038095Y-34398390D01*
X115038095Y-34398390D02*
X114466667Y-34969819D01*
X114466667Y-34969819D02*
X115085714Y-34969819D01*
X117308333Y-34874580D02*
X117260714Y-34922200D01*
X117260714Y-34922200D02*
X117117857Y-34969819D01*
X117117857Y-34969819D02*
X117022619Y-34969819D01*
X117022619Y-34969819D02*
X116879762Y-34922200D01*
X116879762Y-34922200D02*
X116784524Y-34826961D01*
X116784524Y-34826961D02*
X116736905Y-34731723D01*
X116736905Y-34731723D02*
X116689286Y-34541247D01*
X116689286Y-34541247D02*
X116689286Y-34398390D01*
X116689286Y-34398390D02*
X116736905Y-34207914D01*
X116736905Y-34207914D02*
X116784524Y-34112676D01*
X116784524Y-34112676D02*
X116879762Y-34017438D01*
X116879762Y-34017438D02*
X117022619Y-33969819D01*
X117022619Y-33969819D02*
X117117857Y-33969819D01*
X117117857Y-33969819D02*
X117260714Y-34017438D01*
X117260714Y-34017438D02*
X117308333Y-34065057D01*
X118260714Y-34969819D02*
X117689286Y-34969819D01*
X117975000Y-34969819D02*
X117975000Y-33969819D01*
X117975000Y-33969819D02*
X117879762Y-34112676D01*
X117879762Y-34112676D02*
X117784524Y-34207914D01*
X117784524Y-34207914D02*
X117689286Y-34255533D01*
D13*
X128795000Y-54025000D02*
X139195000Y-54025000D01*
X139195000Y-54025000D02*
X139195000Y-43745000D01*
X128855000Y-51535000D02*
X139135000Y-51535000D01*
X139135000Y-51535000D02*
X139135000Y-46235000D01*
X128855000Y-49885000D02*
X128855000Y-51535000D01*
X128855000Y-46235000D02*
X128855000Y-47885000D01*
X139135000Y-46235000D02*
X128855000Y-46235000D01*
X128795000Y-43745000D02*
X128795000Y-54025000D01*
X139195000Y-43745000D02*
X128795000Y-43745000D01*
X128855000Y-47885000D02*
G75*
G02*
X128855000Y-49885000I0J-1000000D01*
G01*
X121645000Y-68470000D02*
X121645000Y-78870000D01*
X121645000Y-78870000D02*
X131925000Y-78870000D01*
X124135000Y-68530000D02*
X124135000Y-78810000D01*
X124135000Y-78810000D02*
X129435000Y-78810000D01*
X125785000Y-68530000D02*
X124135000Y-68530000D01*
X129435000Y-68530000D02*
X127785000Y-68530000D01*
X129435000Y-78810000D02*
X129435000Y-68530000D01*
X131925000Y-68470000D02*
X121645000Y-68470000D01*
X131925000Y-78870000D02*
X131925000Y-68470000D01*
X127785000Y-68530000D02*
G75*
G02*
X125785000Y-68530000I-1000000J0D01*
G01*
D14*
X151765000Y-59325000D02*
X151765000Y-57785000D01*
X151765000Y-57785000D02*
X161925000Y-57785000D01*
X161925000Y-57785000D02*
X161925000Y-59325000D01*
X151765000Y-61325000D02*
X151765000Y-62865000D01*
X151765000Y-62865000D02*
X161925000Y-62865000D01*
X161925000Y-62865000D02*
X161925000Y-61325000D01*
D10*
X105524500Y-63740000D02*
X105524500Y-70730000D01*
X105524500Y-70730000D02*
X112124500Y-70730000D01*
X112124500Y-70730000D02*
X112124500Y-63740000D01*
X112124500Y-63740000D02*
X105524500Y-63740000D01*
X105159500Y-67198000D02*
G75*
G02*
X105045500Y-67198000I-57000J0D01*
G01*
X105045500Y-67198000D02*
G75*
G02*
X105159500Y-67198000I57000J0D01*
G01*
X99809500Y-75805000D02*
X99809500Y-82795000D01*
X99809500Y-82795000D02*
X106409500Y-82795000D01*
X106409500Y-82795000D02*
X106409500Y-75805000D01*
X106409500Y-75805000D02*
X99809500Y-75805000D01*
X99444500Y-79263000D02*
G75*
G02*
X99330500Y-79263000I-57000J0D01*
G01*
X99330500Y-79263000D02*
G75*
G02*
X99444500Y-79263000I57000J0D01*
G01*
X92824500Y-63740000D02*
X92824500Y-70730000D01*
X92824500Y-70730000D02*
X99424500Y-70730000D01*
X99424500Y-70730000D02*
X99424500Y-63740000D01*
X99424500Y-63740000D02*
X92824500Y-63740000D01*
X92459500Y-67198000D02*
G75*
G02*
X92345500Y-67198000I-57000J0D01*
G01*
X92345500Y-67198000D02*
G75*
G02*
X92459500Y-67198000I57000J0D01*
G01*
D13*
X124340000Y-66100000D02*
X144900000Y-66100000D01*
X144900000Y-66100000D02*
X144900000Y-55820000D01*
X124400000Y-63610000D02*
X144840000Y-63610000D01*
X144840000Y-63610000D02*
X144840000Y-58310000D01*
X124400000Y-61960000D02*
X124400000Y-63610000D01*
X124400000Y-58310000D02*
X124400000Y-59960000D01*
X144840000Y-58310000D02*
X124400000Y-58310000D01*
X124340000Y-55820000D02*
X124340000Y-66100000D01*
X144900000Y-55820000D02*
X124340000Y-55820000D01*
X124400000Y-59960000D02*
G75*
G02*
X124400000Y-61960000I0J-1000000D01*
G01*
X95130000Y-54895000D02*
X115690000Y-54895000D01*
X115690000Y-54895000D02*
X115690000Y-44615000D01*
X95190000Y-52405000D02*
X115630000Y-52405000D01*
X115630000Y-52405000D02*
X115630000Y-47105000D01*
X95190000Y-50755000D02*
X95190000Y-52405000D01*
X95190000Y-47105000D02*
X95190000Y-48755000D01*
X115630000Y-47105000D02*
X95190000Y-47105000D01*
X95130000Y-44615000D02*
X95130000Y-54895000D01*
X115690000Y-44615000D02*
X95130000Y-44615000D01*
X95190000Y-48755000D02*
G75*
G02*
X95190000Y-50755000I0J-1000000D01*
G01*
X138430000Y-38635000D02*
X138430000Y-38565000D01*
X139800000Y-40005000D02*
G75*
G02*
X137060000Y-40005000I-1370000J0D01*
G01*
X137060000Y-40005000D02*
G75*
G02*
X139800000Y-40005000I1370000J0D01*
G01*
X135255000Y-38635000D02*
X135255000Y-38565000D01*
X136625000Y-40005000D02*
G75*
G02*
X133885000Y-40005000I-1370000J0D01*
G01*
X133885000Y-40005000D02*
G75*
G02*
X136625000Y-40005000I1370000J0D01*
G01*
X135990000Y-79375000D02*
X136060000Y-79375000D01*
X135990000Y-79375000D02*
G75*
G02*
X133250000Y-79375000I-1370000J0D01*
G01*
X133250000Y-79375000D02*
G75*
G02*
X135990000Y-79375000I1370000J0D01*
G01*
X135990000Y-69850000D02*
X136060000Y-69850000D01*
X135990000Y-69850000D02*
G75*
G02*
X133250000Y-69850000I-1370000J0D01*
G01*
X133250000Y-69850000D02*
G75*
G02*
X135990000Y-69850000I1370000J0D01*
G01*
X135990000Y-76200000D02*
X136060000Y-76200000D01*
X135990000Y-76200000D02*
G75*
G02*
X133250000Y-76200000I-1370000J0D01*
G01*
X133250000Y-76200000D02*
G75*
G02*
X135990000Y-76200000I1370000J0D01*
G01*
X135990000Y-73025000D02*
X136060000Y-73025000D01*
X135990000Y-73025000D02*
G75*
G02*
X133250000Y-73025000I-1370000J0D01*
G01*
X133250000Y-73025000D02*
G75*
G02*
X135990000Y-73025000I1370000J0D01*
G01*
X118210000Y-74930000D02*
X118280000Y-74930000D01*
X118210000Y-74930000D02*
G75*
G02*
X115470000Y-74930000I-1370000J0D01*
G01*
X115470000Y-74930000D02*
G75*
G02*
X118210000Y-74930000I1370000J0D01*
G01*
X117560000Y-71755000D02*
X117490000Y-71755000D01*
X120300000Y-71755000D02*
G75*
G02*
X117560000Y-71755000I-1370000J0D01*
G01*
X117560000Y-71755000D02*
G75*
G02*
X120300000Y-71755000I1370000J0D01*
G01*
X112495000Y-59055000D02*
G75*
G02*
X109755000Y-59055000I-1370000J0D01*
G01*
X109755000Y-59055000D02*
G75*
G02*
X112495000Y-59055000I1370000J0D01*
G01*
X111125000Y-57685000D02*
X111125000Y-57615000D01*
X115670000Y-59055000D02*
G75*
G02*
X112930000Y-59055000I-1370000J0D01*
G01*
X112930000Y-59055000D02*
G75*
G02*
X115670000Y-59055000I1370000J0D01*
G01*
X114300000Y-57685000D02*
X114300000Y-57615000D01*
X109320000Y-59055000D02*
G75*
G02*
X106580000Y-59055000I-1370000J0D01*
G01*
X106580000Y-59055000D02*
G75*
G02*
X109320000Y-59055000I1370000J0D01*
G01*
X107950000Y-57685000D02*
X107950000Y-57615000D01*
X99795000Y-59055000D02*
G75*
G02*
X97055000Y-59055000I-1370000J0D01*
G01*
X97055000Y-59055000D02*
G75*
G02*
X99795000Y-59055000I1370000J0D01*
G01*
X98425000Y-57685000D02*
X98425000Y-57615000D01*
X102970000Y-59055000D02*
G75*
G02*
X100230000Y-59055000I-1370000J0D01*
G01*
X100230000Y-59055000D02*
G75*
G02*
X102970000Y-59055000I1370000J0D01*
G01*
X101600000Y-57685000D02*
X101600000Y-57615000D01*
X106145000Y-59055000D02*
G75*
G02*
X103405000Y-59055000I-1370000J0D01*
G01*
X103405000Y-59055000D02*
G75*
G02*
X106145000Y-59055000I1370000J0D01*
G01*
X104775000Y-57685000D02*
X104775000Y-57615000D01*
X121285000Y-49220000D02*
X121285000Y-49290000D01*
X122655000Y-47850000D02*
G75*
G02*
X119915000Y-47850000I-1370000J0D01*
G01*
X119915000Y-47850000D02*
G75*
G02*
X122655000Y-47850000I1370000J0D01*
G01*
X118045100Y-49220000D02*
X118045100Y-49290000D01*
X119415100Y-47850000D02*
G75*
G02*
X116675100Y-47850000I-1370000J0D01*
G01*
X116675100Y-47850000D02*
G75*
G02*
X119415100Y-47850000I1370000J0D01*
G01*
X124395100Y-49220000D02*
X124395100Y-49290000D01*
X125765100Y-47850000D02*
G75*
G02*
X123025100Y-47850000I-1370000J0D01*
G01*
X123025100Y-47850000D02*
G75*
G02*
X125765100Y-47850000I1370000J0D01*
G01*
X101600000Y-40965000D02*
X101600000Y-41035000D01*
X102970000Y-39595000D02*
G75*
G02*
X100230000Y-39595000I-1370000J0D01*
G01*
X100230000Y-39595000D02*
G75*
G02*
X102970000Y-39595000I1370000J0D01*
G01*
X104775000Y-40965000D02*
X104775000Y-41035000D01*
X106145000Y-39595000D02*
G75*
G02*
X103405000Y-39595000I-1370000J0D01*
G01*
X103405000Y-39595000D02*
G75*
G02*
X106145000Y-39595000I1370000J0D01*
G01*
X107950000Y-40965000D02*
X107950000Y-41035000D01*
X109320000Y-39595000D02*
G75*
G02*
X106580000Y-39595000I-1370000J0D01*
G01*
X106580000Y-39595000D02*
G75*
G02*
X109320000Y-39595000I1370000J0D01*
G01*
X111125000Y-40965000D02*
X111125000Y-41035000D01*
X112495000Y-39595000D02*
G75*
G02*
X109755000Y-39595000I-1370000J0D01*
G01*
X109755000Y-39595000D02*
G75*
G02*
X112495000Y-39595000I1370000J0D01*
G01*
X98425000Y-40965000D02*
X98425000Y-41035000D01*
X99795000Y-39595000D02*
G75*
G02*
X97055000Y-39595000I-1370000J0D01*
G01*
X97055000Y-39595000D02*
G75*
G02*
X99795000Y-39595000I1370000J0D01*
G01*
X144720000Y-48200000D02*
X144720000Y-48320000D01*
X144720000Y-48320000D02*
X147380000Y-48320000D01*
X146050000Y-45660000D02*
X147380000Y-45660000D01*
X147380000Y-45660000D02*
X147380000Y-46990000D01*
X147380000Y-48200000D02*
X147380000Y-48320000D01*
X144720000Y-44390000D02*
X144720000Y-44510000D01*
X144720000Y-44510000D02*
X147380000Y-44510000D01*
X146050000Y-41850000D02*
X147380000Y-41850000D01*
X147380000Y-41850000D02*
X147380000Y-43180000D01*
X147380000Y-44390000D02*
X147380000Y-44510000D01*
X128905000Y-84455000D02*
X128905000Y-85725000D01*
X127635000Y-84455000D02*
X128905000Y-84455000D01*
X125475000Y-86767929D02*
X125475000Y-87165000D01*
X124715000Y-86767929D02*
X124715000Y-87165000D01*
X128015000Y-86835000D02*
X128015000Y-87165000D01*
X127255000Y-86835000D02*
X127255000Y-87165000D01*
X128965000Y-87165000D02*
X123765000Y-87165000D01*
X126365000Y-87165000D02*
X126365000Y-89825000D01*
X123765000Y-87165000D02*
X123765000Y-89825000D01*
X128965000Y-89825000D02*
X128965000Y-87165000D01*
X128015000Y-89825000D02*
X128015000Y-95825000D01*
X127955000Y-89825000D02*
X127955000Y-95825000D01*
X127835000Y-89825000D02*
X127835000Y-95825000D01*
X127715000Y-89825000D02*
X127715000Y-95825000D01*
X127595000Y-89825000D02*
X127595000Y-95825000D01*
X127475000Y-89825000D02*
X127475000Y-95825000D01*
X127355000Y-89825000D02*
X127355000Y-95825000D01*
X125475000Y-89825000D02*
X125475000Y-95825000D01*
X123765000Y-89825000D02*
X128965000Y-89825000D01*
X128015000Y-95825000D02*
X127255000Y-95825000D01*
X127255000Y-95825000D02*
X127255000Y-89825000D01*
X125475000Y-95825000D02*
X124715000Y-95825000D01*
X124715000Y-95825000D02*
X124715000Y-89825000D01*
D10*
X146415000Y-88635000D02*
X146415000Y-68635000D01*
X146415000Y-68635000D02*
X167415000Y-68635000D01*
X167415000Y-68635000D02*
X167415000Y-88635000D01*
X167415000Y-88635000D02*
X146415000Y-88635000D01*
D14*
X158115000Y-88985000D02*
X158115000Y-88985000D01*
X158115000Y-89085000D02*
X158115000Y-89085000D01*
D10*
X146415000Y-81875000D02*
X142615000Y-81875000D01*
X142615000Y-81875000D02*
X142615000Y-75395000D01*
X142615000Y-75395000D02*
X146415000Y-75395000D01*
X167415000Y-81875000D02*
X175815000Y-81875000D01*
X175815000Y-81875000D02*
X175815000Y-75395000D01*
X175815000Y-75395000D02*
X167415000Y-75395000D01*
D14*
X158115000Y-89085000D02*
G75*
G02*
X158115000Y-88985000I0J50000D01*
G01*
X158115000Y-88985000D02*
G75*
G02*
X158115000Y-89085000I0J-50000D01*
G01*
D13*
X148530000Y-44510000D02*
X148530000Y-43180000D01*
X149860000Y-44510000D02*
X148530000Y-44510000D01*
X151130000Y-44510000D02*
X153730000Y-44510000D01*
X151130000Y-44510000D02*
X151130000Y-41850000D01*
X153730000Y-44510000D02*
X153730000Y-41850000D01*
X151130000Y-41850000D02*
X153730000Y-41850000D01*
X156815000Y-36210000D02*
X156815000Y-41350000D01*
X156815000Y-36210000D02*
X159475000Y-36210000D01*
X156815000Y-41350000D02*
X159475000Y-41350000D01*
X158145000Y-33610000D02*
X159475000Y-33610000D01*
X159475000Y-33610000D02*
X159475000Y-34940000D01*
X159475000Y-36210000D02*
X159475000Y-41350000D01*
X148535000Y-45660000D02*
X149865000Y-45660000D01*
X148535000Y-46990000D02*
X148535000Y-45660000D01*
X148535000Y-48260000D02*
X148535000Y-48320000D01*
X148535000Y-48260000D02*
X151195000Y-48260000D01*
X148535000Y-48320000D02*
X151195000Y-48320000D01*
X151195000Y-48260000D02*
X151195000Y-48320000D01*
X156815000Y-46990000D02*
X156815000Y-52130000D01*
X156815000Y-46990000D02*
X159475000Y-46990000D01*
X156815000Y-52130000D02*
X159475000Y-52130000D01*
X158145000Y-44390000D02*
X159475000Y-44390000D01*
X159475000Y-44390000D02*
X159475000Y-45720000D01*
X159475000Y-46990000D02*
X159475000Y-52130000D01*
X120660000Y-41840000D02*
X120660000Y-40570000D01*
X121930000Y-41840000D02*
X120660000Y-41840000D01*
X124090000Y-39527071D02*
X124090000Y-39130000D01*
X124850000Y-39527071D02*
X124850000Y-39130000D01*
X126630000Y-39527071D02*
X126630000Y-39130000D01*
X127390000Y-39527071D02*
X127390000Y-39130000D01*
X129170000Y-39527071D02*
X129170000Y-39130000D01*
X129930000Y-39527071D02*
X129930000Y-39130000D01*
X121550000Y-39460000D02*
X121550000Y-39130000D01*
X122310000Y-39460000D02*
X122310000Y-39130000D01*
X120600000Y-39130000D02*
X130880000Y-39130000D01*
X123200000Y-39130000D02*
X123200000Y-36470000D01*
X125740000Y-39130000D02*
X125740000Y-36470000D01*
X128280000Y-39130000D02*
X128280000Y-36470000D01*
X130880000Y-39130000D02*
X130880000Y-36470000D01*
X120600000Y-36470000D02*
X120600000Y-39130000D01*
X121550000Y-36470000D02*
X121550000Y-30470000D01*
X121610000Y-36470000D02*
X121610000Y-30470000D01*
X121730000Y-36470000D02*
X121730000Y-30470000D01*
X121850000Y-36470000D02*
X121850000Y-30470000D01*
X121970000Y-36470000D02*
X121970000Y-30470000D01*
X122090000Y-36470000D02*
X122090000Y-30470000D01*
X122210000Y-36470000D02*
X122210000Y-30470000D01*
X124090000Y-36470000D02*
X124090000Y-30470000D01*
X126630000Y-36470000D02*
X126630000Y-30470000D01*
X129170000Y-36470000D02*
X129170000Y-30470000D01*
X130880000Y-36470000D02*
X120600000Y-36470000D01*
X121550000Y-30470000D02*
X122310000Y-30470000D01*
X122310000Y-30470000D02*
X122310000Y-36470000D01*
X124090000Y-30470000D02*
X124850000Y-30470000D01*
X124850000Y-30470000D02*
X124850000Y-36470000D01*
X126630000Y-30470000D02*
X127390000Y-30470000D01*
X127390000Y-30470000D02*
X127390000Y-36470000D01*
X129170000Y-30470000D02*
X129930000Y-30470000D01*
X129930000Y-30470000D02*
X129930000Y-36470000D01*
X143310000Y-38979775D02*
X143310000Y-38479775D01*
X143060000Y-38729775D02*
X143560000Y-38729775D01*
X142205000Y-36175000D02*
X147365000Y-36175000D01*
X142205000Y-36135000D02*
X147365000Y-36135000D01*
X142206000Y-36095000D02*
X147364000Y-36095000D01*
X142207000Y-36055000D02*
X147363000Y-36055000D01*
X142209000Y-36015000D02*
X147361000Y-36015000D01*
X142212000Y-35975000D02*
X147358000Y-35975000D01*
X142216000Y-35935000D02*
X143745000Y-35935000D01*
X145825000Y-35935000D02*
X147354000Y-35935000D01*
X142220000Y-35895000D02*
X143745000Y-35895000D01*
X145825000Y-35895000D02*
X147350000Y-35895000D01*
X142224000Y-35855000D02*
X143745000Y-35855000D01*
X145825000Y-35855000D02*
X147346000Y-35855000D01*
X142229000Y-35815000D02*
X143745000Y-35815000D01*
X145825000Y-35815000D02*
X147341000Y-35815000D01*
X142235000Y-35775000D02*
X143745000Y-35775000D01*
X145825000Y-35775000D02*
X147335000Y-35775000D01*
X142242000Y-35735000D02*
X143745000Y-35735000D01*
X145825000Y-35735000D02*
X147328000Y-35735000D01*
X142249000Y-35695000D02*
X143745000Y-35695000D01*
X145825000Y-35695000D02*
X147321000Y-35695000D01*
X142257000Y-35655000D02*
X143745000Y-35655000D01*
X145825000Y-35655000D02*
X147313000Y-35655000D01*
X142265000Y-35615000D02*
X143745000Y-35615000D01*
X145825000Y-35615000D02*
X147305000Y-35615000D01*
X142274000Y-35575000D02*
X143745000Y-35575000D01*
X145825000Y-35575000D02*
X147296000Y-35575000D01*
X142284000Y-35535000D02*
X143745000Y-35535000D01*
X145825000Y-35535000D02*
X147286000Y-35535000D01*
X142294000Y-35495000D02*
X143745000Y-35495000D01*
X145825000Y-35495000D02*
X147276000Y-35495000D01*
X142305000Y-35454000D02*
X143745000Y-35454000D01*
X145825000Y-35454000D02*
X147265000Y-35454000D01*
X142317000Y-35414000D02*
X143745000Y-35414000D01*
X145825000Y-35414000D02*
X147253000Y-35414000D01*
X142330000Y-35374000D02*
X143745000Y-35374000D01*
X145825000Y-35374000D02*
X147240000Y-35374000D01*
X142343000Y-35334000D02*
X143745000Y-35334000D01*
X145825000Y-35334000D02*
X147227000Y-35334000D01*
X142357000Y-35294000D02*
X143745000Y-35294000D01*
X145825000Y-35294000D02*
X147213000Y-35294000D01*
X142371000Y-35254000D02*
X143745000Y-35254000D01*
X145825000Y-35254000D02*
X147199000Y-35254000D01*
X142387000Y-35214000D02*
X143745000Y-35214000D01*
X145825000Y-35214000D02*
X147183000Y-35214000D01*
X142403000Y-35174000D02*
X143745000Y-35174000D01*
X145825000Y-35174000D02*
X147167000Y-35174000D01*
X142420000Y-35134000D02*
X143745000Y-35134000D01*
X145825000Y-35134000D02*
X147150000Y-35134000D01*
X142437000Y-35094000D02*
X143745000Y-35094000D01*
X145825000Y-35094000D02*
X147133000Y-35094000D01*
X142456000Y-35054000D02*
X143745000Y-35054000D01*
X145825000Y-35054000D02*
X147114000Y-35054000D01*
X142475000Y-35014000D02*
X143745000Y-35014000D01*
X145825000Y-35014000D02*
X147095000Y-35014000D01*
X142495000Y-34974000D02*
X143745000Y-34974000D01*
X145825000Y-34974000D02*
X147075000Y-34974000D01*
X142517000Y-34934000D02*
X143745000Y-34934000D01*
X145825000Y-34934000D02*
X147053000Y-34934000D01*
X142538000Y-34894000D02*
X143745000Y-34894000D01*
X145825000Y-34894000D02*
X147032000Y-34894000D01*
X142561000Y-34854000D02*
X143745000Y-34854000D01*
X145825000Y-34854000D02*
X147009000Y-34854000D01*
X142585000Y-34814000D02*
X143745000Y-34814000D01*
X145825000Y-34814000D02*
X146985000Y-34814000D01*
X142610000Y-34774000D02*
X143745000Y-34774000D01*
X145825000Y-34774000D02*
X146960000Y-34774000D01*
X142636000Y-34734000D02*
X143745000Y-34734000D01*
X145825000Y-34734000D02*
X146934000Y-34734000D01*
X142663000Y-34694000D02*
X143745000Y-34694000D01*
X145825000Y-34694000D02*
X146907000Y-34694000D01*
X142690000Y-34654000D02*
X143745000Y-34654000D01*
X145825000Y-34654000D02*
X146880000Y-34654000D01*
X142720000Y-34614000D02*
X143745000Y-34614000D01*
X145825000Y-34614000D02*
X146850000Y-34614000D01*
X142750000Y-34574000D02*
X143745000Y-34574000D01*
X145825000Y-34574000D02*
X146820000Y-34574000D01*
X142781000Y-34534000D02*
X143745000Y-34534000D01*
X145825000Y-34534000D02*
X146789000Y-34534000D01*
X142814000Y-34494000D02*
X143745000Y-34494000D01*
X145825000Y-34494000D02*
X146756000Y-34494000D01*
X142848000Y-34454000D02*
X143745000Y-34454000D01*
X145825000Y-34454000D02*
X146722000Y-34454000D01*
X142884000Y-34414000D02*
X143745000Y-34414000D01*
X145825000Y-34414000D02*
X146686000Y-34414000D01*
X142921000Y-34374000D02*
X143745000Y-34374000D01*
X145825000Y-34374000D02*
X146649000Y-34374000D01*
X142959000Y-34334000D02*
X143745000Y-34334000D01*
X145825000Y-34334000D02*
X146611000Y-34334000D01*
X143000000Y-34294000D02*
X143745000Y-34294000D01*
X145825000Y-34294000D02*
X146570000Y-34294000D01*
X143042000Y-34254000D02*
X143745000Y-34254000D01*
X145825000Y-34254000D02*
X146528000Y-34254000D01*
X143086000Y-34214000D02*
X143745000Y-34214000D01*
X145825000Y-34214000D02*
X146484000Y-34214000D01*
X143132000Y-34174000D02*
X143745000Y-34174000D01*
X145825000Y-34174000D02*
X146438000Y-34174000D01*
X143180000Y-34134000D02*
X143745000Y-34134000D01*
X145825000Y-34134000D02*
X146390000Y-34134000D01*
X143231000Y-34094000D02*
X143745000Y-34094000D01*
X145825000Y-34094000D02*
X146339000Y-34094000D01*
X143285000Y-34054000D02*
X143745000Y-34054000D01*
X145825000Y-34054000D02*
X146285000Y-34054000D01*
X143342000Y-34014000D02*
X143745000Y-34014000D01*
X145825000Y-34014000D02*
X146228000Y-34014000D01*
X143402000Y-33974000D02*
X143745000Y-33974000D01*
X145825000Y-33974000D02*
X146168000Y-33974000D01*
X143466000Y-33934000D02*
X143745000Y-33934000D01*
X145825000Y-33934000D02*
X146104000Y-33934000D01*
X143534000Y-33894000D02*
X143745000Y-33894000D01*
X145825000Y-33894000D02*
X146036000Y-33894000D01*
X143607000Y-33854000D02*
X145963000Y-33854000D01*
X143687000Y-33814000D02*
X145883000Y-33814000D01*
X143774000Y-33774000D02*
X145796000Y-33774000D01*
X143870000Y-33734000D02*
X145700000Y-33734000D01*
X143980000Y-33694000D02*
X145590000Y-33694000D01*
X144108000Y-33654000D02*
X145462000Y-33654000D01*
X144267000Y-33614000D02*
X145303000Y-33614000D01*
X144501000Y-33574000D02*
X145069000Y-33574000D01*
X147405000Y-36175000D02*
G75*
G02*
X142165000Y-36175000I-2620000J0D01*
G01*
X142165000Y-36175000D02*
G75*
G02*
X147405000Y-36175000I2620000J0D01*
G01*
X136505000Y-81630225D02*
X136505000Y-82130225D01*
X136755000Y-81880225D02*
X136255000Y-81880225D01*
X137610000Y-84435000D02*
X132450000Y-84435000D01*
X137610000Y-84475000D02*
X132450000Y-84475000D01*
X137609000Y-84515000D02*
X132451000Y-84515000D01*
X137608000Y-84555000D02*
X132452000Y-84555000D01*
X137606000Y-84595000D02*
X132454000Y-84595000D01*
X137603000Y-84635000D02*
X132457000Y-84635000D01*
X137599000Y-84675000D02*
X136070000Y-84675000D01*
X133990000Y-84675000D02*
X132461000Y-84675000D01*
X137595000Y-84715000D02*
X136070000Y-84715000D01*
X133990000Y-84715000D02*
X132465000Y-84715000D01*
X137591000Y-84755000D02*
X136070000Y-84755000D01*
X133990000Y-84755000D02*
X132469000Y-84755000D01*
X137586000Y-84795000D02*
X136070000Y-84795000D01*
X133990000Y-84795000D02*
X132474000Y-84795000D01*
X137580000Y-84835000D02*
X136070000Y-84835000D01*
X133990000Y-84835000D02*
X132480000Y-84835000D01*
X137573000Y-84875000D02*
X136070000Y-84875000D01*
X133990000Y-84875000D02*
X132487000Y-84875000D01*
X137566000Y-84915000D02*
X136070000Y-84915000D01*
X133990000Y-84915000D02*
X132494000Y-84915000D01*
X137558000Y-84955000D02*
X136070000Y-84955000D01*
X133990000Y-84955000D02*
X132502000Y-84955000D01*
X137550000Y-84995000D02*
X136070000Y-84995000D01*
X133990000Y-84995000D02*
X132510000Y-84995000D01*
X137541000Y-85035000D02*
X136070000Y-85035000D01*
X133990000Y-85035000D02*
X132519000Y-85035000D01*
X137531000Y-85075000D02*
X136070000Y-85075000D01*
X133990000Y-85075000D02*
X132529000Y-85075000D01*
X137521000Y-85115000D02*
X136070000Y-85115000D01*
X133990000Y-85115000D02*
X132539000Y-85115000D01*
X137510000Y-85156000D02*
X136070000Y-85156000D01*
X133990000Y-85156000D02*
X132550000Y-85156000D01*
X137498000Y-85196000D02*
X136070000Y-85196000D01*
X133990000Y-85196000D02*
X132562000Y-85196000D01*
X137485000Y-85236000D02*
X136070000Y-85236000D01*
X133990000Y-85236000D02*
X132575000Y-85236000D01*
X137472000Y-85276000D02*
X136070000Y-85276000D01*
X133990000Y-85276000D02*
X132588000Y-85276000D01*
X137458000Y-85316000D02*
X136070000Y-85316000D01*
X133990000Y-85316000D02*
X132602000Y-85316000D01*
X137444000Y-85356000D02*
X136070000Y-85356000D01*
X133990000Y-85356000D02*
X132616000Y-85356000D01*
X137428000Y-85396000D02*
X136070000Y-85396000D01*
X133990000Y-85396000D02*
X132632000Y-85396000D01*
X137412000Y-85436000D02*
X136070000Y-85436000D01*
X133990000Y-85436000D02*
X132648000Y-85436000D01*
X137395000Y-85476000D02*
X136070000Y-85476000D01*
X133990000Y-85476000D02*
X132665000Y-85476000D01*
X137378000Y-85516000D02*
X136070000Y-85516000D01*
X133990000Y-85516000D02*
X132682000Y-85516000D01*
X137359000Y-85556000D02*
X136070000Y-85556000D01*
X133990000Y-85556000D02*
X132701000Y-85556000D01*
X137340000Y-85596000D02*
X136070000Y-85596000D01*
X133990000Y-85596000D02*
X132720000Y-85596000D01*
X137320000Y-85636000D02*
X136070000Y-85636000D01*
X133990000Y-85636000D02*
X132740000Y-85636000D01*
X137298000Y-85676000D02*
X136070000Y-85676000D01*
X133990000Y-85676000D02*
X132762000Y-85676000D01*
X137277000Y-85716000D02*
X136070000Y-85716000D01*
X133990000Y-85716000D02*
X132783000Y-85716000D01*
X137254000Y-85756000D02*
X136070000Y-85756000D01*
X133990000Y-85756000D02*
X132806000Y-85756000D01*
X137230000Y-85796000D02*
X136070000Y-85796000D01*
X133990000Y-85796000D02*
X132830000Y-85796000D01*
X137205000Y-85836000D02*
X136070000Y-85836000D01*
X133990000Y-85836000D02*
X132855000Y-85836000D01*
X137179000Y-85876000D02*
X136070000Y-85876000D01*
X133990000Y-85876000D02*
X132881000Y-85876000D01*
X137152000Y-85916000D02*
X136070000Y-85916000D01*
X133990000Y-85916000D02*
X132908000Y-85916000D01*
X137125000Y-85956000D02*
X136070000Y-85956000D01*
X133990000Y-85956000D02*
X132935000Y-85956000D01*
X137095000Y-85996000D02*
X136070000Y-85996000D01*
X133990000Y-85996000D02*
X132965000Y-85996000D01*
X137065000Y-86036000D02*
X136070000Y-86036000D01*
X133990000Y-86036000D02*
X132995000Y-86036000D01*
X137034000Y-86076000D02*
X136070000Y-86076000D01*
X133990000Y-86076000D02*
X133026000Y-86076000D01*
X137001000Y-86116000D02*
X136070000Y-86116000D01*
X133990000Y-86116000D02*
X133059000Y-86116000D01*
X136967000Y-86156000D02*
X136070000Y-86156000D01*
X133990000Y-86156000D02*
X133093000Y-86156000D01*
X136931000Y-86196000D02*
X136070000Y-86196000D01*
X133990000Y-86196000D02*
X133129000Y-86196000D01*
X136894000Y-86236000D02*
X136070000Y-86236000D01*
X133990000Y-86236000D02*
X133166000Y-86236000D01*
X136856000Y-86276000D02*
X136070000Y-86276000D01*
X133990000Y-86276000D02*
X133204000Y-86276000D01*
X136815000Y-86316000D02*
X136070000Y-86316000D01*
X133990000Y-86316000D02*
X133245000Y-86316000D01*
X136773000Y-86356000D02*
X136070000Y-86356000D01*
X133990000Y-86356000D02*
X133287000Y-86356000D01*
X136729000Y-86396000D02*
X136070000Y-86396000D01*
X133990000Y-86396000D02*
X133331000Y-86396000D01*
X136683000Y-86436000D02*
X136070000Y-86436000D01*
X133990000Y-86436000D02*
X133377000Y-86436000D01*
X136635000Y-86476000D02*
X136070000Y-86476000D01*
X133990000Y-86476000D02*
X133425000Y-86476000D01*
X136584000Y-86516000D02*
X136070000Y-86516000D01*
X133990000Y-86516000D02*
X133476000Y-86516000D01*
X136530000Y-86556000D02*
X136070000Y-86556000D01*
X133990000Y-86556000D02*
X133530000Y-86556000D01*
X136473000Y-86596000D02*
X136070000Y-86596000D01*
X133990000Y-86596000D02*
X133587000Y-86596000D01*
X136413000Y-86636000D02*
X136070000Y-86636000D01*
X133990000Y-86636000D02*
X133647000Y-86636000D01*
X136349000Y-86676000D02*
X136070000Y-86676000D01*
X133990000Y-86676000D02*
X133711000Y-86676000D01*
X136281000Y-86716000D02*
X136070000Y-86716000D01*
X133990000Y-86716000D02*
X133779000Y-86716000D01*
X136208000Y-86756000D02*
X133852000Y-86756000D01*
X136128000Y-86796000D02*
X133932000Y-86796000D01*
X136041000Y-86836000D02*
X134019000Y-86836000D01*
X135945000Y-86876000D02*
X134115000Y-86876000D01*
X135835000Y-86916000D02*
X134225000Y-86916000D01*
X135707000Y-86956000D02*
X134353000Y-86956000D01*
X135548000Y-86996000D02*
X134512000Y-86996000D01*
X135314000Y-87036000D02*
X134746000Y-87036000D01*
X137650000Y-84435000D02*
G75*
G02*
X132410000Y-84435000I-2620000J0D01*
G01*
X132410000Y-84435000D02*
G75*
G02*
X137650000Y-84435000I2620000J0D01*
G01*
X122839775Y-63070000D02*
X122339775Y-63070000D01*
X122589775Y-63320000D02*
X122589775Y-62820000D01*
X120035000Y-64175000D02*
X120035000Y-59015000D01*
X119995000Y-64175000D02*
X119995000Y-59015000D01*
X119955000Y-64174000D02*
X119955000Y-59016000D01*
X119915000Y-64173000D02*
X119915000Y-59017000D01*
X119875000Y-64171000D02*
X119875000Y-59019000D01*
X119835000Y-64168000D02*
X119835000Y-59022000D01*
X119795000Y-64164000D02*
X119795000Y-62635000D01*
X119795000Y-60555000D02*
X119795000Y-59026000D01*
X119755000Y-64160000D02*
X119755000Y-62635000D01*
X119755000Y-60555000D02*
X119755000Y-59030000D01*
X119715000Y-64156000D02*
X119715000Y-62635000D01*
X119715000Y-60555000D02*
X119715000Y-59034000D01*
X119675000Y-64151000D02*
X119675000Y-62635000D01*
X119675000Y-60555000D02*
X119675000Y-59039000D01*
X119635000Y-64145000D02*
X119635000Y-62635000D01*
X119635000Y-60555000D02*
X119635000Y-59045000D01*
X119595000Y-64138000D02*
X119595000Y-62635000D01*
X119595000Y-60555000D02*
X119595000Y-59052000D01*
X119555000Y-64131000D02*
X119555000Y-62635000D01*
X119555000Y-60555000D02*
X119555000Y-59059000D01*
X119515000Y-64123000D02*
X119515000Y-62635000D01*
X119515000Y-60555000D02*
X119515000Y-59067000D01*
X119475000Y-64115000D02*
X119475000Y-62635000D01*
X119475000Y-60555000D02*
X119475000Y-59075000D01*
X119435000Y-64106000D02*
X119435000Y-62635000D01*
X119435000Y-60555000D02*
X119435000Y-59084000D01*
X119395000Y-64096000D02*
X119395000Y-62635000D01*
X119395000Y-60555000D02*
X119395000Y-59094000D01*
X119355000Y-64086000D02*
X119355000Y-62635000D01*
X119355000Y-60555000D02*
X119355000Y-59104000D01*
X119314000Y-64075000D02*
X119314000Y-62635000D01*
X119314000Y-60555000D02*
X119314000Y-59115000D01*
X119274000Y-64063000D02*
X119274000Y-62635000D01*
X119274000Y-60555000D02*
X119274000Y-59127000D01*
X119234000Y-64050000D02*
X119234000Y-62635000D01*
X119234000Y-60555000D02*
X119234000Y-59140000D01*
X119194000Y-64037000D02*
X119194000Y-62635000D01*
X119194000Y-60555000D02*
X119194000Y-59153000D01*
X119154000Y-64023000D02*
X119154000Y-62635000D01*
X119154000Y-60555000D02*
X119154000Y-59167000D01*
X119114000Y-64009000D02*
X119114000Y-62635000D01*
X119114000Y-60555000D02*
X119114000Y-59181000D01*
X119074000Y-63993000D02*
X119074000Y-62635000D01*
X119074000Y-60555000D02*
X119074000Y-59197000D01*
X119034000Y-63977000D02*
X119034000Y-62635000D01*
X119034000Y-60555000D02*
X119034000Y-59213000D01*
X118994000Y-63960000D02*
X118994000Y-62635000D01*
X118994000Y-60555000D02*
X118994000Y-59230000D01*
X118954000Y-63943000D02*
X118954000Y-62635000D01*
X118954000Y-60555000D02*
X118954000Y-59247000D01*
X118914000Y-63924000D02*
X118914000Y-62635000D01*
X118914000Y-60555000D02*
X118914000Y-59266000D01*
X118874000Y-63905000D02*
X118874000Y-62635000D01*
X118874000Y-60555000D02*
X118874000Y-59285000D01*
X118834000Y-63885000D02*
X118834000Y-62635000D01*
X118834000Y-60555000D02*
X118834000Y-59305000D01*
X118794000Y-63863000D02*
X118794000Y-62635000D01*
X118794000Y-60555000D02*
X118794000Y-59327000D01*
X118754000Y-63842000D02*
X118754000Y-62635000D01*
X118754000Y-60555000D02*
X118754000Y-59348000D01*
X118714000Y-63819000D02*
X118714000Y-62635000D01*
X118714000Y-60555000D02*
X118714000Y-59371000D01*
X118674000Y-63795000D02*
X118674000Y-62635000D01*
X118674000Y-60555000D02*
X118674000Y-59395000D01*
X118634000Y-63770000D02*
X118634000Y-62635000D01*
X118634000Y-60555000D02*
X118634000Y-59420000D01*
X118594000Y-63744000D02*
X118594000Y-62635000D01*
X118594000Y-60555000D02*
X118594000Y-59446000D01*
X118554000Y-63717000D02*
X118554000Y-62635000D01*
X118554000Y-60555000D02*
X118554000Y-59473000D01*
X118514000Y-63690000D02*
X118514000Y-62635000D01*
X118514000Y-60555000D02*
X118514000Y-59500000D01*
X118474000Y-63660000D02*
X118474000Y-62635000D01*
X118474000Y-60555000D02*
X118474000Y-59530000D01*
X118434000Y-63630000D02*
X118434000Y-62635000D01*
X118434000Y-60555000D02*
X118434000Y-59560000D01*
X118394000Y-63599000D02*
X118394000Y-62635000D01*
X118394000Y-60555000D02*
X118394000Y-59591000D01*
X118354000Y-63566000D02*
X118354000Y-62635000D01*
X118354000Y-60555000D02*
X118354000Y-59624000D01*
X118314000Y-63532000D02*
X118314000Y-62635000D01*
X118314000Y-60555000D02*
X118314000Y-59658000D01*
X118274000Y-63496000D02*
X118274000Y-62635000D01*
X118274000Y-60555000D02*
X118274000Y-59694000D01*
X118234000Y-63459000D02*
X118234000Y-62635000D01*
X118234000Y-60555000D02*
X118234000Y-59731000D01*
X118194000Y-63421000D02*
X118194000Y-62635000D01*
X118194000Y-60555000D02*
X118194000Y-59769000D01*
X118154000Y-63380000D02*
X118154000Y-62635000D01*
X118154000Y-60555000D02*
X118154000Y-59810000D01*
X118114000Y-63338000D02*
X118114000Y-62635000D01*
X118114000Y-60555000D02*
X118114000Y-59852000D01*
X118074000Y-63294000D02*
X118074000Y-62635000D01*
X118074000Y-60555000D02*
X118074000Y-59896000D01*
X118034000Y-63248000D02*
X118034000Y-62635000D01*
X118034000Y-60555000D02*
X118034000Y-59942000D01*
X117994000Y-63200000D02*
X117994000Y-62635000D01*
X117994000Y-60555000D02*
X117994000Y-59990000D01*
X117954000Y-63149000D02*
X117954000Y-62635000D01*
X117954000Y-60555000D02*
X117954000Y-60041000D01*
X117914000Y-63095000D02*
X117914000Y-62635000D01*
X117914000Y-60555000D02*
X117914000Y-60095000D01*
X117874000Y-63038000D02*
X117874000Y-62635000D01*
X117874000Y-60555000D02*
X117874000Y-60152000D01*
X117834000Y-62978000D02*
X117834000Y-62635000D01*
X117834000Y-60555000D02*
X117834000Y-60212000D01*
X117794000Y-62914000D02*
X117794000Y-62635000D01*
X117794000Y-60555000D02*
X117794000Y-60276000D01*
X117754000Y-62846000D02*
X117754000Y-62635000D01*
X117754000Y-60555000D02*
X117754000Y-60344000D01*
X117714000Y-62773000D02*
X117714000Y-60417000D01*
X117674000Y-62693000D02*
X117674000Y-60497000D01*
X117634000Y-62606000D02*
X117634000Y-60584000D01*
X117594000Y-62510000D02*
X117594000Y-60680000D01*
X117554000Y-62400000D02*
X117554000Y-60790000D01*
X117514000Y-62272000D02*
X117514000Y-60918000D01*
X117474000Y-62113000D02*
X117474000Y-61077000D01*
X117434000Y-61879000D02*
X117434000Y-61311000D01*
X122655000Y-61595000D02*
G75*
G02*
X117415000Y-61595000I-2620000J0D01*
G01*
X117415000Y-61595000D02*
G75*
G02*
X122655000Y-61595000I2620000J0D01*
G01*
X96129775Y-59895000D02*
X95629775Y-59895000D01*
X95879775Y-60145000D02*
X95879775Y-59645000D01*
X93325000Y-61000000D02*
X93325000Y-55840000D01*
X93285000Y-61000000D02*
X93285000Y-55840000D01*
X93245000Y-60999000D02*
X93245000Y-55841000D01*
X93205000Y-60998000D02*
X93205000Y-55842000D01*
X93165000Y-60996000D02*
X93165000Y-55844000D01*
X93125000Y-60993000D02*
X93125000Y-55847000D01*
X93085000Y-60989000D02*
X93085000Y-59460000D01*
X93085000Y-57380000D02*
X93085000Y-55851000D01*
X93045000Y-60985000D02*
X93045000Y-59460000D01*
X93045000Y-57380000D02*
X93045000Y-55855000D01*
X93005000Y-60981000D02*
X93005000Y-59460000D01*
X93005000Y-57380000D02*
X93005000Y-55859000D01*
X92965000Y-60976000D02*
X92965000Y-59460000D01*
X92965000Y-57380000D02*
X92965000Y-55864000D01*
X92925000Y-60970000D02*
X92925000Y-59460000D01*
X92925000Y-57380000D02*
X92925000Y-55870000D01*
X92885000Y-60963000D02*
X92885000Y-59460000D01*
X92885000Y-57380000D02*
X92885000Y-55877000D01*
X92845000Y-60956000D02*
X92845000Y-59460000D01*
X92845000Y-57380000D02*
X92845000Y-55884000D01*
X92805000Y-60948000D02*
X92805000Y-59460000D01*
X92805000Y-57380000D02*
X92805000Y-55892000D01*
X92765000Y-60940000D02*
X92765000Y-59460000D01*
X92765000Y-57380000D02*
X92765000Y-55900000D01*
X92725000Y-60931000D02*
X92725000Y-59460000D01*
X92725000Y-57380000D02*
X92725000Y-55909000D01*
X92685000Y-60921000D02*
X92685000Y-59460000D01*
X92685000Y-57380000D02*
X92685000Y-55919000D01*
X92645000Y-60911000D02*
X92645000Y-59460000D01*
X92645000Y-57380000D02*
X92645000Y-55929000D01*
X92604000Y-60900000D02*
X92604000Y-59460000D01*
X92604000Y-57380000D02*
X92604000Y-55940000D01*
X92564000Y-60888000D02*
X92564000Y-59460000D01*
X92564000Y-57380000D02*
X92564000Y-55952000D01*
X92524000Y-60875000D02*
X92524000Y-59460000D01*
X92524000Y-57380000D02*
X92524000Y-55965000D01*
X92484000Y-60862000D02*
X92484000Y-59460000D01*
X92484000Y-57380000D02*
X92484000Y-55978000D01*
X92444000Y-60848000D02*
X92444000Y-59460000D01*
X92444000Y-57380000D02*
X92444000Y-55992000D01*
X92404000Y-60834000D02*
X92404000Y-59460000D01*
X92404000Y-57380000D02*
X92404000Y-56006000D01*
X92364000Y-60818000D02*
X92364000Y-59460000D01*
X92364000Y-57380000D02*
X92364000Y-56022000D01*
X92324000Y-60802000D02*
X92324000Y-59460000D01*
X92324000Y-57380000D02*
X92324000Y-56038000D01*
X92284000Y-60785000D02*
X92284000Y-59460000D01*
X92284000Y-57380000D02*
X92284000Y-56055000D01*
X92244000Y-60768000D02*
X92244000Y-59460000D01*
X92244000Y-57380000D02*
X92244000Y-56072000D01*
X92204000Y-60749000D02*
X92204000Y-59460000D01*
X92204000Y-57380000D02*
X92204000Y-56091000D01*
X92164000Y-60730000D02*
X92164000Y-59460000D01*
X92164000Y-57380000D02*
X92164000Y-56110000D01*
X92124000Y-60710000D02*
X92124000Y-59460000D01*
X92124000Y-57380000D02*
X92124000Y-56130000D01*
X92084000Y-60688000D02*
X92084000Y-59460000D01*
X92084000Y-57380000D02*
X92084000Y-56152000D01*
X92044000Y-60667000D02*
X92044000Y-59460000D01*
X92044000Y-57380000D02*
X92044000Y-56173000D01*
X92004000Y-60644000D02*
X92004000Y-59460000D01*
X92004000Y-57380000D02*
X92004000Y-56196000D01*
X91964000Y-60620000D02*
X91964000Y-59460000D01*
X91964000Y-57380000D02*
X91964000Y-56220000D01*
X91924000Y-60595000D02*
X91924000Y-59460000D01*
X91924000Y-57380000D02*
X91924000Y-56245000D01*
X91884000Y-60569000D02*
X91884000Y-59460000D01*
X91884000Y-57380000D02*
X91884000Y-56271000D01*
X91844000Y-60542000D02*
X91844000Y-59460000D01*
X91844000Y-57380000D02*
X91844000Y-56298000D01*
X91804000Y-60515000D02*
X91804000Y-59460000D01*
X91804000Y-57380000D02*
X91804000Y-56325000D01*
X91764000Y-60485000D02*
X91764000Y-59460000D01*
X91764000Y-57380000D02*
X91764000Y-56355000D01*
X91724000Y-60455000D02*
X91724000Y-59460000D01*
X91724000Y-57380000D02*
X91724000Y-56385000D01*
X91684000Y-60424000D02*
X91684000Y-59460000D01*
X91684000Y-57380000D02*
X91684000Y-56416000D01*
X91644000Y-60391000D02*
X91644000Y-59460000D01*
X91644000Y-57380000D02*
X91644000Y-56449000D01*
X91604000Y-60357000D02*
X91604000Y-59460000D01*
X91604000Y-57380000D02*
X91604000Y-56483000D01*
X91564000Y-60321000D02*
X91564000Y-59460000D01*
X91564000Y-57380000D02*
X91564000Y-56519000D01*
X91524000Y-60284000D02*
X91524000Y-59460000D01*
X91524000Y-57380000D02*
X91524000Y-56556000D01*
X91484000Y-60246000D02*
X91484000Y-59460000D01*
X91484000Y-57380000D02*
X91484000Y-56594000D01*
X91444000Y-60205000D02*
X91444000Y-59460000D01*
X91444000Y-57380000D02*
X91444000Y-56635000D01*
X91404000Y-60163000D02*
X91404000Y-59460000D01*
X91404000Y-57380000D02*
X91404000Y-56677000D01*
X91364000Y-60119000D02*
X91364000Y-59460000D01*
X91364000Y-57380000D02*
X91364000Y-56721000D01*
X91324000Y-60073000D02*
X91324000Y-59460000D01*
X91324000Y-57380000D02*
X91324000Y-56767000D01*
X91284000Y-60025000D02*
X91284000Y-59460000D01*
X91284000Y-57380000D02*
X91284000Y-56815000D01*
X91244000Y-59974000D02*
X91244000Y-59460000D01*
X91244000Y-57380000D02*
X91244000Y-56866000D01*
X91204000Y-59920000D02*
X91204000Y-59460000D01*
X91204000Y-57380000D02*
X91204000Y-56920000D01*
X91164000Y-59863000D02*
X91164000Y-59460000D01*
X91164000Y-57380000D02*
X91164000Y-56977000D01*
X91124000Y-59803000D02*
X91124000Y-59460000D01*
X91124000Y-57380000D02*
X91124000Y-57037000D01*
X91084000Y-59739000D02*
X91084000Y-59460000D01*
X91084000Y-57380000D02*
X91084000Y-57101000D01*
X91044000Y-59671000D02*
X91044000Y-59460000D01*
X91044000Y-57380000D02*
X91044000Y-57169000D01*
X91004000Y-59598000D02*
X91004000Y-57242000D01*
X90964000Y-59518000D02*
X90964000Y-57322000D01*
X90924000Y-59431000D02*
X90924000Y-57409000D01*
X90884000Y-59335000D02*
X90884000Y-57505000D01*
X90844000Y-59225000D02*
X90844000Y-57615000D01*
X90804000Y-59097000D02*
X90804000Y-57743000D01*
X90764000Y-58938000D02*
X90764000Y-57902000D01*
X90724000Y-58704000D02*
X90724000Y-58136000D01*
X95945000Y-58420000D02*
G75*
G02*
X90705000Y-58420000I-2620000J0D01*
G01*
X90705000Y-58420000D02*
G75*
G02*
X95945000Y-58420000I2620000J0D01*
G01*
X96104875Y-42340000D02*
X95604875Y-42340000D01*
X95854875Y-42590000D02*
X95854875Y-42090000D01*
X93300100Y-43445000D02*
X93300100Y-38285000D01*
X93260100Y-43445000D02*
X93260100Y-38285000D01*
X93220100Y-43444000D02*
X93220100Y-38286000D01*
X93180100Y-43443000D02*
X93180100Y-38287000D01*
X93140100Y-43441000D02*
X93140100Y-38289000D01*
X93100100Y-43438000D02*
X93100100Y-38292000D01*
X93060100Y-43434000D02*
X93060100Y-41905000D01*
X93060100Y-39825000D02*
X93060100Y-38296000D01*
X93020100Y-43430000D02*
X93020100Y-41905000D01*
X93020100Y-39825000D02*
X93020100Y-38300000D01*
X92980100Y-43426000D02*
X92980100Y-41905000D01*
X92980100Y-39825000D02*
X92980100Y-38304000D01*
X92940100Y-43421000D02*
X92940100Y-41905000D01*
X92940100Y-39825000D02*
X92940100Y-38309000D01*
X92900100Y-43415000D02*
X92900100Y-41905000D01*
X92900100Y-39825000D02*
X92900100Y-38315000D01*
X92860100Y-43408000D02*
X92860100Y-41905000D01*
X92860100Y-39825000D02*
X92860100Y-38322000D01*
X92820100Y-43401000D02*
X92820100Y-41905000D01*
X92820100Y-39825000D02*
X92820100Y-38329000D01*
X92780100Y-43393000D02*
X92780100Y-41905000D01*
X92780100Y-39825000D02*
X92780100Y-38337000D01*
X92740100Y-43385000D02*
X92740100Y-41905000D01*
X92740100Y-39825000D02*
X92740100Y-38345000D01*
X92700100Y-43376000D02*
X92700100Y-41905000D01*
X92700100Y-39825000D02*
X92700100Y-38354000D01*
X92660100Y-43366000D02*
X92660100Y-41905000D01*
X92660100Y-39825000D02*
X92660100Y-38364000D01*
X92620100Y-43356000D02*
X92620100Y-41905000D01*
X92620100Y-39825000D02*
X92620100Y-38374000D01*
X92579100Y-43345000D02*
X92579100Y-41905000D01*
X92579100Y-39825000D02*
X92579100Y-38385000D01*
X92539100Y-43333000D02*
X92539100Y-41905000D01*
X92539100Y-39825000D02*
X92539100Y-38397000D01*
X92499100Y-43320000D02*
X92499100Y-41905000D01*
X92499100Y-39825000D02*
X92499100Y-38410000D01*
X92459100Y-43307000D02*
X92459100Y-41905000D01*
X92459100Y-39825000D02*
X92459100Y-38423000D01*
X92419100Y-43293000D02*
X92419100Y-41905000D01*
X92419100Y-39825000D02*
X92419100Y-38437000D01*
X92379100Y-43279000D02*
X92379100Y-41905000D01*
X92379100Y-39825000D02*
X92379100Y-38451000D01*
X92339100Y-43263000D02*
X92339100Y-41905000D01*
X92339100Y-39825000D02*
X92339100Y-38467000D01*
X92299100Y-43247000D02*
X92299100Y-41905000D01*
X92299100Y-39825000D02*
X92299100Y-38483000D01*
X92259100Y-43230000D02*
X92259100Y-41905000D01*
X92259100Y-39825000D02*
X92259100Y-38500000D01*
X92219100Y-43213000D02*
X92219100Y-41905000D01*
X92219100Y-39825000D02*
X92219100Y-38517000D01*
X92179100Y-43194000D02*
X92179100Y-41905000D01*
X92179100Y-39825000D02*
X92179100Y-38536000D01*
X92139100Y-43175000D02*
X92139100Y-41905000D01*
X92139100Y-39825000D02*
X92139100Y-38555000D01*
X92099100Y-43155000D02*
X92099100Y-41905000D01*
X92099100Y-39825000D02*
X92099100Y-38575000D01*
X92059100Y-43133000D02*
X92059100Y-41905000D01*
X92059100Y-39825000D02*
X92059100Y-38597000D01*
X92019100Y-43112000D02*
X92019100Y-41905000D01*
X92019100Y-39825000D02*
X92019100Y-38618000D01*
X91979100Y-43089000D02*
X91979100Y-41905000D01*
X91979100Y-39825000D02*
X91979100Y-38641000D01*
X91939100Y-43065000D02*
X91939100Y-41905000D01*
X91939100Y-39825000D02*
X91939100Y-38665000D01*
X91899100Y-43040000D02*
X91899100Y-41905000D01*
X91899100Y-39825000D02*
X91899100Y-38690000D01*
X91859100Y-43014000D02*
X91859100Y-41905000D01*
X91859100Y-39825000D02*
X91859100Y-38716000D01*
X91819100Y-42987000D02*
X91819100Y-41905000D01*
X91819100Y-39825000D02*
X91819100Y-38743000D01*
X91779100Y-42960000D02*
X91779100Y-41905000D01*
X91779100Y-39825000D02*
X91779100Y-38770000D01*
X91739100Y-42930000D02*
X91739100Y-41905000D01*
X91739100Y-39825000D02*
X91739100Y-38800000D01*
X91699100Y-42900000D02*
X91699100Y-41905000D01*
X91699100Y-39825000D02*
X91699100Y-38830000D01*
X91659100Y-42869000D02*
X91659100Y-41905000D01*
X91659100Y-39825000D02*
X91659100Y-38861000D01*
X91619100Y-42836000D02*
X91619100Y-41905000D01*
X91619100Y-39825000D02*
X91619100Y-38894000D01*
X91579100Y-42802000D02*
X91579100Y-41905000D01*
X91579100Y-39825000D02*
X91579100Y-38928000D01*
X91539100Y-42766000D02*
X91539100Y-41905000D01*
X91539100Y-39825000D02*
X91539100Y-38964000D01*
X91499100Y-42729000D02*
X91499100Y-41905000D01*
X91499100Y-39825000D02*
X91499100Y-39001000D01*
X91459100Y-42691000D02*
X91459100Y-41905000D01*
X91459100Y-39825000D02*
X91459100Y-39039000D01*
X91419100Y-42650000D02*
X91419100Y-41905000D01*
X91419100Y-39825000D02*
X91419100Y-39080000D01*
X91379100Y-42608000D02*
X91379100Y-41905000D01*
X91379100Y-39825000D02*
X91379100Y-39122000D01*
X91339100Y-42564000D02*
X91339100Y-41905000D01*
X91339100Y-39825000D02*
X91339100Y-39166000D01*
X91299100Y-42518000D02*
X91299100Y-41905000D01*
X91299100Y-39825000D02*
X91299100Y-39212000D01*
X91259100Y-42470000D02*
X91259100Y-41905000D01*
X91259100Y-39825000D02*
X91259100Y-39260000D01*
X91219100Y-42419000D02*
X91219100Y-41905000D01*
X91219100Y-39825000D02*
X91219100Y-39311000D01*
X91179100Y-42365000D02*
X91179100Y-41905000D01*
X91179100Y-39825000D02*
X91179100Y-39365000D01*
X91139100Y-42308000D02*
X91139100Y-41905000D01*
X91139100Y-39825000D02*
X91139100Y-39422000D01*
X91099100Y-42248000D02*
X91099100Y-41905000D01*
X91099100Y-39825000D02*
X91099100Y-39482000D01*
X91059100Y-42184000D02*
X91059100Y-41905000D01*
X91059100Y-39825000D02*
X91059100Y-39546000D01*
X91019100Y-42116000D02*
X91019100Y-41905000D01*
X91019100Y-39825000D02*
X91019100Y-39614000D01*
X90979100Y-42043000D02*
X90979100Y-39687000D01*
X90939100Y-41963000D02*
X90939100Y-39767000D01*
X90899100Y-41876000D02*
X90899100Y-39854000D01*
X90859100Y-41780000D02*
X90859100Y-39950000D01*
X90819100Y-41670000D02*
X90819100Y-40060000D01*
X90779100Y-41542000D02*
X90779100Y-40188000D01*
X90739100Y-41383000D02*
X90739100Y-40347000D01*
X90699100Y-41149000D02*
X90699100Y-40581000D01*
X95920100Y-40865000D02*
G75*
G02*
X90680100Y-40865000I-2620000J0D01*
G01*
X90680100Y-40865000D02*
G75*
G02*
X95920100Y-40865000I2620000J0D01*
G01*
X115420000Y-35975000D02*
X113180000Y-35975000D01*
X115420000Y-35975000D02*
X115420000Y-43215000D01*
X113180000Y-35975000D02*
X113180000Y-43215000D01*
X115420000Y-43215000D02*
X113180000Y-43215000D01*
X118595000Y-35935000D02*
X116355000Y-35935000D01*
X118595000Y-35935000D02*
X118595000Y-43175000D01*
X116355000Y-35935000D02*
X116355000Y-43175000D01*
X118595000Y-43175000D02*
X116355000Y-43175000D01*
%LPC*%
D15*
X130185000Y-52695000D03*
D16*
X132725000Y-52695000D03*
X135265000Y-52695000D03*
X137805000Y-52695000D03*
X137805000Y-45075000D03*
X135265000Y-45075000D03*
X132725000Y-45075000D03*
X130185000Y-45075000D03*
D15*
X122975000Y-69860000D03*
D16*
X122975000Y-72400000D03*
X122975000Y-74940000D03*
X122975000Y-77480000D03*
X130595000Y-77480000D03*
X130595000Y-74940000D03*
X130595000Y-72400000D03*
X130595000Y-69860000D03*
D17*
X154305000Y-60325000D03*
X156845000Y-60325000D03*
X159385000Y-60325000D03*
X151765000Y-60325000D03*
X161925000Y-60325000D03*
D18*
X106284500Y-67200000D03*
X108824500Y-64660000D03*
X111364500Y-67200000D03*
X100569500Y-79265000D03*
X103109500Y-76725000D03*
X105649500Y-79265000D03*
X93584500Y-67200000D03*
X96124500Y-64660000D03*
X98664500Y-67200000D03*
D15*
X125730000Y-64770000D03*
D16*
X128270000Y-64770000D03*
X130810000Y-64770000D03*
X133350000Y-64770000D03*
X135890000Y-64770000D03*
X138430000Y-64770000D03*
X140970000Y-64770000D03*
X143510000Y-64770000D03*
X143510000Y-57150000D03*
X140970000Y-57150000D03*
X138430000Y-57150000D03*
X135890000Y-57150000D03*
X133350000Y-57150000D03*
X130810000Y-57150000D03*
X128270000Y-57150000D03*
X125730000Y-57150000D03*
D15*
X96520000Y-53565000D03*
D16*
X99060000Y-53565000D03*
X101600000Y-53565000D03*
X104140000Y-53565000D03*
X106680000Y-53565000D03*
X109220000Y-53565000D03*
X111760000Y-53565000D03*
X114300000Y-53565000D03*
X114300000Y-45945000D03*
X111760000Y-45945000D03*
X109220000Y-45945000D03*
X106680000Y-45945000D03*
X104140000Y-45945000D03*
X101600000Y-45945000D03*
X99060000Y-45945000D03*
X96520000Y-45945000D03*
D19*
X138430000Y-40005000D03*
D16*
X138430000Y-37465000D03*
D19*
X135255000Y-40005000D03*
D16*
X135255000Y-37465000D03*
D19*
X134620000Y-79375000D03*
D16*
X137160000Y-79375000D03*
D19*
X134620000Y-69850000D03*
D16*
X137160000Y-69850000D03*
D19*
X134620000Y-76200000D03*
D16*
X137160000Y-76200000D03*
D19*
X134620000Y-73025000D03*
D16*
X137160000Y-73025000D03*
D19*
X116840000Y-74930000D03*
D16*
X119380000Y-74930000D03*
D19*
X118930000Y-71755000D03*
D16*
X116390000Y-71755000D03*
X111125000Y-56515000D03*
D19*
X111125000Y-59055000D03*
D16*
X114300000Y-56515000D03*
D19*
X114300000Y-59055000D03*
D16*
X107950000Y-56515000D03*
D19*
X107950000Y-59055000D03*
D16*
X98425000Y-56515000D03*
D19*
X98425000Y-59055000D03*
D16*
X101600000Y-56515000D03*
D19*
X101600000Y-59055000D03*
D16*
X104775000Y-56515000D03*
D19*
X104775000Y-59055000D03*
X121285000Y-47850000D03*
D16*
X121285000Y-50390000D03*
D19*
X118045100Y-47850000D03*
D16*
X118045100Y-50390000D03*
D19*
X124395100Y-47850000D03*
D16*
X124395100Y-50390000D03*
D19*
X101600000Y-39595000D03*
D16*
X101600000Y-42135000D03*
D19*
X104775000Y-39595000D03*
D16*
X104775000Y-42135000D03*
D19*
X107950000Y-39595000D03*
D16*
X107950000Y-42135000D03*
D19*
X111125000Y-39595000D03*
D16*
X111125000Y-42135000D03*
D19*
X98425000Y-39595000D03*
D16*
X98425000Y-42135000D03*
D20*
X146050000Y-46990000D03*
X146050000Y-43180000D03*
X127635000Y-85725000D03*
D21*
X125095000Y-85725000D03*
D22*
X158115000Y-86785000D03*
X164415000Y-86785000D03*
X151815000Y-86785000D03*
X158115000Y-70485000D03*
X164415000Y-70485000D03*
X151815000Y-70485000D03*
D20*
X149860000Y-43180000D03*
D21*
X152400000Y-43180000D03*
D20*
X158145000Y-34940000D03*
D21*
X158145000Y-37480000D03*
X158145000Y-40020000D03*
D20*
X149865000Y-46990000D03*
X158145000Y-45720000D03*
D21*
X158145000Y-48260000D03*
X158145000Y-50800000D03*
D20*
X121930000Y-40570000D03*
D21*
X124470000Y-40570000D03*
X127010000Y-40570000D03*
X129550000Y-40570000D03*
D15*
X144785000Y-37425000D03*
D19*
X144785000Y-34925000D03*
D15*
X135030000Y-83185000D03*
D19*
X135030000Y-85685000D03*
D15*
X121285000Y-61595000D03*
D19*
X118785000Y-61595000D03*
D15*
X94575000Y-58420000D03*
D19*
X92075000Y-58420000D03*
D15*
X94550100Y-40865000D03*
D19*
X92050100Y-40865000D03*
X114300000Y-37095000D03*
X114300000Y-42095000D03*
X117475000Y-37055000D03*
X117475000Y-42055000D03*
%LPD*%
M02*
