%TF.GenerationSoftware,KiCad,Pcbnew,8.0.8*%
%TF.CreationDate,2025-02-24T17:06:38+09:00*%
%TF.ProjectId,LM13700_Overdrive,4c4d3133-3730-4305-9f4f-766572647269,rev?*%
%TF.SameCoordinates,Original*%
%TF.FileFunction,Drillmap*%
%TF.FilePolarity,Positive*%
%FSLAX45Y45*%
G04 Gerber Fmt 4.5, Leading zero omitted, Abs format (unit mm)*
G04 Created by KiCad (PCBNEW 8.0.8) date 2025-02-24 17:06:38*
%MOMM*%
%LPD*%
G01*
G04 APERTURE LIST*
%ADD10C,0.050000*%
%ADD11C,0.200000*%
G04 APERTURE END LIST*
D10*
X9360000Y-9400000D02*
G75*
G02*
X9040000Y-9400000I-160000J0D01*
G01*
X9040000Y-9400000D02*
G75*
G02*
X9360000Y-9400000I160000J0D01*
G01*
X16660000Y-9400000D02*
G75*
G02*
X16340000Y-9400000I-160000J0D01*
G01*
X16340000Y-9400000D02*
G75*
G02*
X16660000Y-9400000I160000J0D01*
G01*
X9360000Y-3000000D02*
G75*
G02*
X9040000Y-3000000I-160000J0D01*
G01*
X9040000Y-3000000D02*
G75*
G02*
X9360000Y-3000000I160000J0D01*
G01*
X16660000Y-3000000D02*
G75*
G02*
X16340000Y-3000000I-160000J0D01*
G01*
X16340000Y-3000000D02*
G75*
G02*
X16660000Y-3000000I160000J0D01*
G01*
X8800000Y-2653000D02*
X16800000Y-2653000D01*
X16800000Y-9700000D01*
X8800000Y-9700000D01*
X8800000Y-2653000D01*
D11*
X9058277Y-10013984D02*
X9058277Y-9813984D01*
X9058277Y-9813984D02*
X9105896Y-9813984D01*
X9105896Y-9813984D02*
X9134467Y-9823508D01*
X9134467Y-9823508D02*
X9153515Y-9842555D01*
X9153515Y-9842555D02*
X9163039Y-9861603D01*
X9163039Y-9861603D02*
X9172563Y-9899698D01*
X9172563Y-9899698D02*
X9172563Y-9928270D01*
X9172563Y-9928270D02*
X9163039Y-9966365D01*
X9163039Y-9966365D02*
X9153515Y-9985412D01*
X9153515Y-9985412D02*
X9134467Y-10004460D01*
X9134467Y-10004460D02*
X9105896Y-10013984D01*
X9105896Y-10013984D02*
X9058277Y-10013984D01*
X9258277Y-10013984D02*
X9258277Y-9880650D01*
X9258277Y-9918746D02*
X9267801Y-9899698D01*
X9267801Y-9899698D02*
X9277324Y-9890174D01*
X9277324Y-9890174D02*
X9296372Y-9880650D01*
X9296372Y-9880650D02*
X9315420Y-9880650D01*
X9382086Y-10013984D02*
X9382086Y-9880650D01*
X9382086Y-9813984D02*
X9372563Y-9823508D01*
X9372563Y-9823508D02*
X9382086Y-9833031D01*
X9382086Y-9833031D02*
X9391610Y-9823508D01*
X9391610Y-9823508D02*
X9382086Y-9813984D01*
X9382086Y-9813984D02*
X9382086Y-9833031D01*
X9505896Y-10013984D02*
X9486848Y-10004460D01*
X9486848Y-10004460D02*
X9477324Y-9985412D01*
X9477324Y-9985412D02*
X9477324Y-9813984D01*
X9610658Y-10013984D02*
X9591610Y-10004460D01*
X9591610Y-10004460D02*
X9582086Y-9985412D01*
X9582086Y-9985412D02*
X9582086Y-9813984D01*
X9839229Y-10013984D02*
X9839229Y-9813984D01*
X9839229Y-9813984D02*
X9905896Y-9956841D01*
X9905896Y-9956841D02*
X9972563Y-9813984D01*
X9972563Y-9813984D02*
X9972563Y-10013984D01*
X10153515Y-10013984D02*
X10153515Y-9909222D01*
X10153515Y-9909222D02*
X10143991Y-9890174D01*
X10143991Y-9890174D02*
X10124944Y-9880650D01*
X10124944Y-9880650D02*
X10086848Y-9880650D01*
X10086848Y-9880650D02*
X10067801Y-9890174D01*
X10153515Y-10004460D02*
X10134467Y-10013984D01*
X10134467Y-10013984D02*
X10086848Y-10013984D01*
X10086848Y-10013984D02*
X10067801Y-10004460D01*
X10067801Y-10004460D02*
X10058277Y-9985412D01*
X10058277Y-9985412D02*
X10058277Y-9966365D01*
X10058277Y-9966365D02*
X10067801Y-9947317D01*
X10067801Y-9947317D02*
X10086848Y-9937793D01*
X10086848Y-9937793D02*
X10134467Y-9937793D01*
X10134467Y-9937793D02*
X10153515Y-9928270D01*
X10248753Y-9880650D02*
X10248753Y-10080650D01*
X10248753Y-9890174D02*
X10267801Y-9880650D01*
X10267801Y-9880650D02*
X10305896Y-9880650D01*
X10305896Y-9880650D02*
X10324944Y-9890174D01*
X10324944Y-9890174D02*
X10334467Y-9899698D01*
X10334467Y-9899698D02*
X10343991Y-9918746D01*
X10343991Y-9918746D02*
X10343991Y-9975889D01*
X10343991Y-9975889D02*
X10334467Y-9994936D01*
X10334467Y-9994936D02*
X10324944Y-10004460D01*
X10324944Y-10004460D02*
X10305896Y-10013984D01*
X10305896Y-10013984D02*
X10267801Y-10013984D01*
X10267801Y-10013984D02*
X10248753Y-10004460D01*
X10429705Y-9994936D02*
X10439229Y-10004460D01*
X10439229Y-10004460D02*
X10429705Y-10013984D01*
X10429705Y-10013984D02*
X10420182Y-10004460D01*
X10420182Y-10004460D02*
X10429705Y-9994936D01*
X10429705Y-9994936D02*
X10429705Y-10013984D01*
X10429705Y-9890174D02*
X10439229Y-9899698D01*
X10439229Y-9899698D02*
X10429705Y-9909222D01*
X10429705Y-9909222D02*
X10420182Y-9899698D01*
X10420182Y-9899698D02*
X10429705Y-9890174D01*
X10429705Y-9890174D02*
X10429705Y-9909222D01*
M02*
