%TF.GenerationSoftware,KiCad,Pcbnew,8.0.8*%
%TF.CreationDate,2025-02-24T17:06:38+09:00*%
%TF.ProjectId,LM13700_Overdrive,4c4d3133-3730-4305-9f4f-766572647269,rev?*%
%TF.SameCoordinates,Original*%
%TF.FileFunction,Drillmap*%
%TF.FilePolarity,Positive*%
%FSLAX45Y45*%
G04 Gerber Fmt 4.5, Leading zero omitted, Abs format (unit mm)*
G04 Created by KiCad (PCBNEW 8.0.8) date 2025-02-24 17:06:38*
%MOMM*%
%LPD*%
G01*
G04 APERTURE LIST*
%ADD10C,0.050000*%
%ADD11C,0.200000*%
%ADD12C,0.100000*%
%ADD13C,0.109000*%
%ADD14C,0.160000*%
G04 APERTURE END LIST*
D10*
X9360000Y-9400000D02*
G75*
G02*
X9040000Y-9400000I-160000J0D01*
G01*
X9040000Y-9400000D02*
G75*
G02*
X9360000Y-9400000I160000J0D01*
G01*
X16660000Y-9400000D02*
G75*
G02*
X16340000Y-9400000I-160000J0D01*
G01*
X16340000Y-9400000D02*
G75*
G02*
X16660000Y-9400000I160000J0D01*
G01*
X9360000Y-3000000D02*
G75*
G02*
X9040000Y-3000000I-160000J0D01*
G01*
X9040000Y-3000000D02*
G75*
G02*
X9360000Y-3000000I160000J0D01*
G01*
X16660000Y-3000000D02*
G75*
G02*
X16340000Y-3000000I-160000J0D01*
G01*
X16340000Y-3000000D02*
G75*
G02*
X16660000Y-3000000I160000J0D01*
G01*
X8800000Y-2653000D02*
X16800000Y-2653000D01*
X16800000Y-9700000D01*
X8800000Y-9700000D01*
X8800000Y-2653000D01*
D11*
D12*
X9764000Y-6208000D02*
X9794000Y-6238000D01*
X9794000Y-6208000D02*
X9764000Y-6238000D01*
X12748500Y-6081000D02*
X12778500Y-6111000D01*
X12778500Y-6081000D02*
X12748500Y-6111000D01*
X9392950Y-6720000D02*
G75*
G02*
X9323950Y-6720000I-34500J0D01*
G01*
X9323950Y-6720000D02*
G75*
G02*
X9392950Y-6720000I34500J0D01*
G01*
X9646950Y-6466000D02*
G75*
G02*
X9577950Y-6466000I-34500J0D01*
G01*
X9577950Y-6466000D02*
G75*
G02*
X9646950Y-6466000I34500J0D01*
G01*
X9900950Y-6720000D02*
G75*
G02*
X9831950Y-6720000I-34500J0D01*
G01*
X9831950Y-6720000D02*
G75*
G02*
X9900950Y-6720000I34500J0D01*
G01*
X10091450Y-7926500D02*
G75*
G02*
X10022450Y-7926500I-34500J0D01*
G01*
X10022450Y-7926500D02*
G75*
G02*
X10091450Y-7926500I34500J0D01*
G01*
X10345450Y-7672500D02*
G75*
G02*
X10276450Y-7672500I-34500J0D01*
G01*
X10276450Y-7672500D02*
G75*
G02*
X10345450Y-7672500I34500J0D01*
G01*
X10599450Y-7926500D02*
G75*
G02*
X10530450Y-7926500I-34500J0D01*
G01*
X10530450Y-7926500D02*
G75*
G02*
X10599450Y-7926500I34500J0D01*
G01*
X10662950Y-6720000D02*
G75*
G02*
X10593950Y-6720000I-34500J0D01*
G01*
X10593950Y-6720000D02*
G75*
G02*
X10662950Y-6720000I34500J0D01*
G01*
X10916950Y-6466000D02*
G75*
G02*
X10847950Y-6466000I-34500J0D01*
G01*
X10847950Y-6466000D02*
G75*
G02*
X10916950Y-6466000I34500J0D01*
G01*
X11170950Y-6720000D02*
G75*
G02*
X11101950Y-6720000I-34500J0D01*
G01*
X11101950Y-6720000D02*
G75*
G02*
X11170950Y-6720000I34500J0D01*
G01*
X9205010Y-4046500D02*
X9205010Y-4126500D01*
X9165010Y-4086500D02*
X9245010Y-4086500D01*
X9207500Y-5802000D02*
X9207500Y-5882000D01*
X9167500Y-5842000D02*
X9247500Y-5842000D01*
X9455010Y-4046500D02*
X9455010Y-4126500D01*
X9415010Y-4086500D02*
X9495010Y-4086500D01*
X9457500Y-5802000D02*
X9457500Y-5882000D01*
X9417500Y-5842000D02*
X9497500Y-5842000D01*
X9652000Y-4554500D02*
X9652000Y-4634500D01*
X9612000Y-4594500D02*
X9692000Y-4594500D01*
X9652000Y-5316500D02*
X9652000Y-5396500D01*
X9612000Y-5356500D02*
X9692000Y-5356500D01*
X9842500Y-3919500D02*
X9842500Y-3999500D01*
X9802500Y-3959500D02*
X9882500Y-3959500D01*
X9842500Y-4173500D02*
X9842500Y-4253500D01*
X9802500Y-4213500D02*
X9882500Y-4213500D01*
X9842500Y-5611500D02*
X9842500Y-5691500D01*
X9802500Y-5651500D02*
X9882500Y-5651500D01*
X9842500Y-5865500D02*
X9842500Y-5945500D01*
X9802500Y-5905500D02*
X9882500Y-5905500D01*
X9906000Y-4554500D02*
X9906000Y-4634500D01*
X9866000Y-4594500D02*
X9946000Y-4594500D01*
X9906000Y-5316500D02*
X9906000Y-5396500D01*
X9866000Y-5356500D02*
X9946000Y-5356500D01*
X10160000Y-3919500D02*
X10160000Y-3999500D01*
X10120000Y-3959500D02*
X10200000Y-3959500D01*
X10160000Y-4173500D02*
X10160000Y-4253500D01*
X10120000Y-4213500D02*
X10200000Y-4213500D01*
X10160000Y-4554500D02*
X10160000Y-4634500D01*
X10120000Y-4594500D02*
X10200000Y-4594500D01*
X10160000Y-5316500D02*
X10160000Y-5396500D01*
X10120000Y-5356500D02*
X10200000Y-5356500D01*
X10160000Y-5611500D02*
X10160000Y-5691500D01*
X10120000Y-5651500D02*
X10200000Y-5651500D01*
X10160000Y-5865500D02*
X10160000Y-5945500D01*
X10120000Y-5905500D02*
X10200000Y-5905500D01*
X10414000Y-4554500D02*
X10414000Y-4634500D01*
X10374000Y-4594500D02*
X10454000Y-4594500D01*
X10414000Y-5316500D02*
X10414000Y-5396500D01*
X10374000Y-5356500D02*
X10454000Y-5356500D01*
X10477500Y-3919500D02*
X10477500Y-3999500D01*
X10437500Y-3959500D02*
X10517500Y-3959500D01*
X10477500Y-4173500D02*
X10477500Y-4253500D01*
X10437500Y-4213500D02*
X10517500Y-4213500D01*
X10477500Y-5611500D02*
X10477500Y-5691500D01*
X10437500Y-5651500D02*
X10517500Y-5651500D01*
X10477500Y-5865500D02*
X10477500Y-5945500D01*
X10437500Y-5905500D02*
X10517500Y-5905500D01*
X10668000Y-4554500D02*
X10668000Y-4634500D01*
X10628000Y-4594500D02*
X10708000Y-4594500D01*
X10668000Y-5316500D02*
X10668000Y-5396500D01*
X10628000Y-5356500D02*
X10708000Y-5356500D01*
X10795000Y-3919500D02*
X10795000Y-3999500D01*
X10755000Y-3959500D02*
X10835000Y-3959500D01*
X10795000Y-4173500D02*
X10795000Y-4253500D01*
X10755000Y-4213500D02*
X10835000Y-4213500D01*
X10795000Y-5611500D02*
X10795000Y-5691500D01*
X10755000Y-5651500D02*
X10835000Y-5651500D01*
X10795000Y-5865500D02*
X10795000Y-5945500D01*
X10755000Y-5905500D02*
X10835000Y-5905500D01*
X10922000Y-4554500D02*
X10922000Y-4634500D01*
X10882000Y-4594500D02*
X10962000Y-4594500D01*
X10922000Y-5316500D02*
X10922000Y-5396500D01*
X10882000Y-5356500D02*
X10962000Y-5356500D01*
X11112500Y-3919500D02*
X11112500Y-3999500D01*
X11072500Y-3959500D02*
X11152500Y-3959500D01*
X11112500Y-4173500D02*
X11112500Y-4253500D01*
X11072500Y-4213500D02*
X11152500Y-4213500D01*
X11112500Y-5611500D02*
X11112500Y-5691500D01*
X11072500Y-5651500D02*
X11152500Y-5651500D01*
X11112500Y-5865500D02*
X11112500Y-5945500D01*
X11072500Y-5905500D02*
X11152500Y-5905500D01*
X11176000Y-4554500D02*
X11176000Y-4634500D01*
X11136000Y-4594500D02*
X11216000Y-4594500D01*
X11176000Y-5316500D02*
X11176000Y-5396500D01*
X11136000Y-5356500D02*
X11216000Y-5356500D01*
X11430000Y-3669500D02*
X11430000Y-3749500D01*
X11390000Y-3709500D02*
X11470000Y-3709500D01*
X11430000Y-4169500D02*
X11430000Y-4249500D01*
X11390000Y-4209500D02*
X11470000Y-4209500D01*
X11430000Y-4554500D02*
X11430000Y-4634500D01*
X11390000Y-4594500D02*
X11470000Y-4594500D01*
X11430000Y-5316500D02*
X11430000Y-5396500D01*
X11390000Y-5356500D02*
X11470000Y-5356500D01*
X11430000Y-5611500D02*
X11430000Y-5691500D01*
X11390000Y-5651500D02*
X11470000Y-5651500D01*
X11430000Y-5865500D02*
X11430000Y-5945500D01*
X11390000Y-5905500D02*
X11470000Y-5905500D01*
X11639000Y-7135500D02*
X11639000Y-7215500D01*
X11599000Y-7175500D02*
X11679000Y-7175500D01*
X11684000Y-7453000D02*
X11684000Y-7533000D01*
X11644000Y-7493000D02*
X11724000Y-7493000D01*
X11747500Y-3665500D02*
X11747500Y-3745500D01*
X11707500Y-3705500D02*
X11787500Y-3705500D01*
X11747500Y-4165500D02*
X11747500Y-4245500D01*
X11707500Y-4205500D02*
X11787500Y-4205500D01*
X11804510Y-4745000D02*
X11804510Y-4825000D01*
X11764510Y-4785000D02*
X11844510Y-4785000D01*
X11804510Y-4999000D02*
X11804510Y-5079000D01*
X11764510Y-5039000D02*
X11844510Y-5039000D01*
X11878500Y-6119500D02*
X11878500Y-6199500D01*
X11838500Y-6159500D02*
X11918500Y-6159500D01*
X11893000Y-7135500D02*
X11893000Y-7215500D01*
X11853000Y-7175500D02*
X11933000Y-7175500D01*
X11938000Y-7453000D02*
X11938000Y-7533000D01*
X11898000Y-7493000D02*
X11978000Y-7493000D01*
X12128500Y-4745000D02*
X12128500Y-4825000D01*
X12088500Y-4785000D02*
X12168500Y-4785000D01*
X12128500Y-4999000D02*
X12128500Y-5079000D01*
X12088500Y-5039000D02*
X12168500Y-5039000D01*
X12128500Y-6119500D02*
X12128500Y-6199500D01*
X12088500Y-6159500D02*
X12168500Y-6159500D01*
X12297500Y-6946000D02*
X12297500Y-7026000D01*
X12257500Y-6986000D02*
X12337500Y-6986000D01*
X12297500Y-7200000D02*
X12297500Y-7280000D01*
X12257500Y-7240000D02*
X12337500Y-7240000D01*
X12297500Y-7454000D02*
X12297500Y-7534000D01*
X12257500Y-7494000D02*
X12337500Y-7494000D01*
X12297500Y-7708000D02*
X12297500Y-7788000D01*
X12257500Y-7748000D02*
X12337500Y-7748000D01*
X12439510Y-4745000D02*
X12439510Y-4825000D01*
X12399510Y-4785000D02*
X12479510Y-4785000D01*
X12439510Y-4999000D02*
X12439510Y-5079000D01*
X12399510Y-5039000D02*
X12479510Y-5039000D01*
X12573000Y-5675000D02*
X12573000Y-5755000D01*
X12533000Y-5715000D02*
X12613000Y-5715000D01*
X12573000Y-6437000D02*
X12573000Y-6517000D01*
X12533000Y-6477000D02*
X12613000Y-6477000D01*
X12827000Y-5675000D02*
X12827000Y-5755000D01*
X12787000Y-5715000D02*
X12867000Y-5715000D01*
X12827000Y-6437000D02*
X12827000Y-6517000D01*
X12787000Y-6477000D02*
X12867000Y-6477000D01*
X13018500Y-4467500D02*
X13018500Y-4547500D01*
X12978500Y-4507500D02*
X13058500Y-4507500D01*
X13018500Y-5229500D02*
X13018500Y-5309500D01*
X12978500Y-5269500D02*
X13058500Y-5269500D01*
X13059500Y-6946000D02*
X13059500Y-7026000D01*
X13019500Y-6986000D02*
X13099500Y-6986000D01*
X13059500Y-7200000D02*
X13059500Y-7280000D01*
X13019500Y-7240000D02*
X13099500Y-7240000D01*
X13059500Y-7454000D02*
X13059500Y-7534000D01*
X13019500Y-7494000D02*
X13099500Y-7494000D01*
X13059500Y-7708000D02*
X13059500Y-7788000D01*
X13019500Y-7748000D02*
X13099500Y-7748000D01*
X13081000Y-5675000D02*
X13081000Y-5755000D01*
X13041000Y-5715000D02*
X13121000Y-5715000D01*
X13081000Y-6437000D02*
X13081000Y-6517000D01*
X13041000Y-6477000D02*
X13121000Y-6477000D01*
X13272500Y-4467500D02*
X13272500Y-4547500D01*
X13232500Y-4507500D02*
X13312500Y-4507500D01*
X13272500Y-5229500D02*
X13272500Y-5309500D01*
X13232500Y-5269500D02*
X13312500Y-5269500D01*
X13335000Y-5675000D02*
X13335000Y-5755000D01*
X13295000Y-5715000D02*
X13375000Y-5715000D01*
X13335000Y-6437000D02*
X13335000Y-6517000D01*
X13295000Y-6477000D02*
X13375000Y-6477000D01*
X13462000Y-6945000D02*
X13462000Y-7025000D01*
X13422000Y-6985000D02*
X13502000Y-6985000D01*
X13462000Y-7262500D02*
X13462000Y-7342500D01*
X13422000Y-7302500D02*
X13502000Y-7302500D01*
X13462000Y-7580000D02*
X13462000Y-7660000D01*
X13422000Y-7620000D02*
X13502000Y-7620000D01*
X13462000Y-7897500D02*
X13462000Y-7977500D01*
X13422000Y-7937500D02*
X13502000Y-7937500D01*
X13503000Y-8278500D02*
X13503000Y-8358500D01*
X13463000Y-8318500D02*
X13543000Y-8318500D01*
X13503000Y-8528500D02*
X13503000Y-8608500D01*
X13463000Y-8568500D02*
X13543000Y-8568500D01*
X13525500Y-3706500D02*
X13525500Y-3786500D01*
X13485500Y-3746500D02*
X13565500Y-3746500D01*
X13525500Y-3960500D02*
X13525500Y-4040500D01*
X13485500Y-4000500D02*
X13565500Y-4000500D01*
X13526500Y-4467500D02*
X13526500Y-4547500D01*
X13486500Y-4507500D02*
X13566500Y-4507500D01*
X13526500Y-5229500D02*
X13526500Y-5309500D01*
X13486500Y-5269500D02*
X13566500Y-5269500D01*
X13589000Y-5675000D02*
X13589000Y-5755000D01*
X13549000Y-5715000D02*
X13629000Y-5715000D01*
X13589000Y-6437000D02*
X13589000Y-6517000D01*
X13549000Y-6477000D02*
X13629000Y-6477000D01*
X13716000Y-6945000D02*
X13716000Y-7025000D01*
X13676000Y-6985000D02*
X13756000Y-6985000D01*
X13716000Y-7262500D02*
X13716000Y-7342500D01*
X13676000Y-7302500D02*
X13756000Y-7302500D01*
X13716000Y-7580000D02*
X13716000Y-7660000D01*
X13676000Y-7620000D02*
X13756000Y-7620000D01*
X13716000Y-7897500D02*
X13716000Y-7977500D01*
X13676000Y-7937500D02*
X13756000Y-7937500D01*
X13780500Y-4467500D02*
X13780500Y-4547500D01*
X13740500Y-4507500D02*
X13820500Y-4507500D01*
X13780500Y-5229500D02*
X13780500Y-5309500D01*
X13740500Y-5269500D02*
X13820500Y-5269500D01*
X13843000Y-3706500D02*
X13843000Y-3786500D01*
X13803000Y-3746500D02*
X13883000Y-3746500D01*
X13843000Y-3960500D02*
X13843000Y-4040500D01*
X13803000Y-4000500D02*
X13883000Y-4000500D01*
X13843000Y-5675000D02*
X13843000Y-5755000D01*
X13803000Y-5715000D02*
X13883000Y-5715000D01*
X13843000Y-6437000D02*
X13843000Y-6517000D01*
X13803000Y-6477000D02*
X13883000Y-6477000D01*
X14097000Y-5675000D02*
X14097000Y-5755000D01*
X14057000Y-5715000D02*
X14137000Y-5715000D01*
X14097000Y-6437000D02*
X14097000Y-6517000D01*
X14057000Y-6477000D02*
X14137000Y-6477000D01*
X14351000Y-5675000D02*
X14351000Y-5755000D01*
X14311000Y-5715000D02*
X14391000Y-5715000D01*
X14351000Y-6437000D02*
X14351000Y-6517000D01*
X14311000Y-6477000D02*
X14391000Y-6477000D01*
X14478500Y-3452500D02*
X14478500Y-3532500D01*
X14438500Y-3492500D02*
X14518500Y-3492500D01*
X14478500Y-3702500D02*
X14478500Y-3782500D01*
X14438500Y-3742500D02*
X14518500Y-3742500D01*
X12228356Y-4092356D02*
X12228356Y-4021644D01*
X12157644Y-4021644D01*
X12157644Y-4092356D01*
X12228356Y-4092356D01*
X12482356Y-4092356D02*
X12482356Y-4021644D01*
X12411644Y-4021644D01*
X12411644Y-4092356D01*
X12482356Y-4092356D01*
X12544856Y-8607856D02*
X12544856Y-8537144D01*
X12474144Y-8537144D01*
X12474144Y-8607856D01*
X12544856Y-8607856D01*
X12736356Y-4092356D02*
X12736356Y-4021644D01*
X12665644Y-4021644D01*
X12665644Y-4092356D01*
X12736356Y-4092356D01*
X12798856Y-8607856D02*
X12798856Y-8537144D01*
X12728144Y-8537144D01*
X12728144Y-8607856D01*
X12798856Y-8607856D01*
X12990356Y-4092356D02*
X12990356Y-4021644D01*
X12919644Y-4021644D01*
X12919644Y-4092356D01*
X12990356Y-4092356D01*
X14640356Y-4353356D02*
X14640356Y-4282644D01*
X14569644Y-4282644D01*
X14569644Y-4353356D01*
X14640356Y-4353356D01*
X14640356Y-4734356D02*
X14640356Y-4663644D01*
X14569644Y-4663644D01*
X14569644Y-4734356D01*
X14640356Y-4734356D01*
X15021356Y-4353356D02*
X15021356Y-4282644D01*
X14950644Y-4282644D01*
X14950644Y-4353356D01*
X15021356Y-4353356D01*
X15021856Y-4734356D02*
X15021856Y-4663644D01*
X14951144Y-4663644D01*
X14951144Y-4734356D01*
X15021856Y-4734356D01*
X15275356Y-4353356D02*
X15275356Y-4282644D01*
X15204644Y-4282644D01*
X15204644Y-4353356D01*
X15275356Y-4353356D01*
X15849856Y-3529356D02*
X15849856Y-3458644D01*
X15779144Y-3458644D01*
X15779144Y-3529356D01*
X15849856Y-3529356D01*
X15849856Y-3783356D02*
X15849856Y-3712644D01*
X15779144Y-3712644D01*
X15779144Y-3783356D01*
X15849856Y-3783356D01*
X15849856Y-4037356D02*
X15849856Y-3966644D01*
X15779144Y-3966644D01*
X15779144Y-4037356D01*
X15849856Y-4037356D01*
X15849856Y-4607356D02*
X15849856Y-4536644D01*
X15779144Y-4536644D01*
X15779144Y-4607356D01*
X15849856Y-4607356D01*
X15849856Y-4861356D02*
X15849856Y-4790644D01*
X15779144Y-4790644D01*
X15779144Y-4861356D01*
X15849856Y-4861356D01*
X15849856Y-5115356D02*
X15849856Y-5044644D01*
X15779144Y-5044644D01*
X15779144Y-5115356D01*
X15849856Y-5115356D01*
D13*
X15176500Y-6087000D02*
X15231000Y-6032500D01*
X15176500Y-5978000D01*
X15122000Y-6032500D01*
X15176500Y-6087000D01*
X15430500Y-6087000D02*
X15485000Y-6032500D01*
X15430500Y-5978000D01*
X15376000Y-6032500D01*
X15430500Y-6087000D01*
X15684500Y-6087000D02*
X15739000Y-6032500D01*
X15684500Y-5978000D01*
X15630000Y-6032500D01*
X15684500Y-6087000D01*
X15938500Y-6087000D02*
X15993000Y-6032500D01*
X15938500Y-5978000D01*
X15884000Y-6032500D01*
X15938500Y-6087000D01*
X16192500Y-6087000D02*
X16247000Y-6032500D01*
X16192500Y-5978000D01*
X16138000Y-6032500D01*
X16192500Y-6087000D01*
D14*
X15101500Y-6968500D02*
X15261500Y-7128500D01*
X15261500Y-6968500D02*
X15101500Y-7128500D01*
X15261500Y-7048500D02*
G75*
G02*
X15101500Y-7048500I-80000J0D01*
G01*
X15101500Y-7048500D02*
G75*
G02*
X15261500Y-7048500I80000J0D01*
G01*
X15101500Y-8598500D02*
X15261500Y-8758500D01*
X15261500Y-8598500D02*
X15101500Y-8758500D01*
X15261500Y-8678500D02*
G75*
G02*
X15101500Y-8678500I-80000J0D01*
G01*
X15101500Y-8678500D02*
G75*
G02*
X15261500Y-8678500I80000J0D01*
G01*
X15731500Y-6968500D02*
X15891500Y-7128500D01*
X15891500Y-6968500D02*
X15731500Y-7128500D01*
X15891500Y-7048500D02*
G75*
G02*
X15731500Y-7048500I-80000J0D01*
G01*
X15731500Y-7048500D02*
G75*
G02*
X15891500Y-7048500I80000J0D01*
G01*
X15731500Y-8598500D02*
X15891500Y-8758500D01*
X15891500Y-8598500D02*
X15731500Y-8758500D01*
X15891500Y-8678500D02*
G75*
G02*
X15731500Y-8678500I-80000J0D01*
G01*
X15731500Y-8678500D02*
G75*
G02*
X15891500Y-8678500I80000J0D01*
G01*
X16361500Y-6968500D02*
X16521500Y-7128500D01*
X16521500Y-6968500D02*
X16361500Y-7128500D01*
X16521500Y-7048500D02*
G75*
G02*
X16361500Y-7048500I-80000J0D01*
G01*
X16361500Y-7048500D02*
G75*
G02*
X16521500Y-7048500I80000J0D01*
G01*
X16361500Y-8598500D02*
X16521500Y-8758500D01*
X16521500Y-8598500D02*
X16361500Y-8758500D01*
X16521500Y-8678500D02*
G75*
G02*
X16361500Y-8678500I-80000J0D01*
G01*
X16361500Y-8678500D02*
G75*
G02*
X16521500Y-8678500I80000J0D01*
G01*
D11*
X9058277Y-10013984D02*
X9058277Y-9813984D01*
X9058277Y-9813984D02*
X9105896Y-9813984D01*
X9105896Y-9813984D02*
X9134467Y-9823508D01*
X9134467Y-9823508D02*
X9153515Y-9842555D01*
X9153515Y-9842555D02*
X9163039Y-9861603D01*
X9163039Y-9861603D02*
X9172563Y-9899698D01*
X9172563Y-9899698D02*
X9172563Y-9928270D01*
X9172563Y-9928270D02*
X9163039Y-9966365D01*
X9163039Y-9966365D02*
X9153515Y-9985412D01*
X9153515Y-9985412D02*
X9134467Y-10004460D01*
X9134467Y-10004460D02*
X9105896Y-10013984D01*
X9105896Y-10013984D02*
X9058277Y-10013984D01*
X9258277Y-10013984D02*
X9258277Y-9880650D01*
X9258277Y-9918746D02*
X9267801Y-9899698D01*
X9267801Y-9899698D02*
X9277324Y-9890174D01*
X9277324Y-9890174D02*
X9296372Y-9880650D01*
X9296372Y-9880650D02*
X9315420Y-9880650D01*
X9382086Y-10013984D02*
X9382086Y-9880650D01*
X9382086Y-9813984D02*
X9372563Y-9823508D01*
X9372563Y-9823508D02*
X9382086Y-9833031D01*
X9382086Y-9833031D02*
X9391610Y-9823508D01*
X9391610Y-9823508D02*
X9382086Y-9813984D01*
X9382086Y-9813984D02*
X9382086Y-9833031D01*
X9505896Y-10013984D02*
X9486848Y-10004460D01*
X9486848Y-10004460D02*
X9477324Y-9985412D01*
X9477324Y-9985412D02*
X9477324Y-9813984D01*
X9610658Y-10013984D02*
X9591610Y-10004460D01*
X9591610Y-10004460D02*
X9582086Y-9985412D01*
X9582086Y-9985412D02*
X9582086Y-9813984D01*
X9839229Y-10013984D02*
X9839229Y-9813984D01*
X9839229Y-9813984D02*
X9905896Y-9956841D01*
X9905896Y-9956841D02*
X9972563Y-9813984D01*
X9972563Y-9813984D02*
X9972563Y-10013984D01*
X10153515Y-10013984D02*
X10153515Y-9909222D01*
X10153515Y-9909222D02*
X10143991Y-9890174D01*
X10143991Y-9890174D02*
X10124944Y-9880650D01*
X10124944Y-9880650D02*
X10086848Y-9880650D01*
X10086848Y-9880650D02*
X10067801Y-9890174D01*
X10153515Y-10004460D02*
X10134467Y-10013984D01*
X10134467Y-10013984D02*
X10086848Y-10013984D01*
X10086848Y-10013984D02*
X10067801Y-10004460D01*
X10067801Y-10004460D02*
X10058277Y-9985412D01*
X10058277Y-9985412D02*
X10058277Y-9966365D01*
X10058277Y-9966365D02*
X10067801Y-9947317D01*
X10067801Y-9947317D02*
X10086848Y-9937793D01*
X10086848Y-9937793D02*
X10134467Y-9937793D01*
X10134467Y-9937793D02*
X10153515Y-9928270D01*
X10248753Y-9880650D02*
X10248753Y-10080650D01*
X10248753Y-9890174D02*
X10267801Y-9880650D01*
X10267801Y-9880650D02*
X10305896Y-9880650D01*
X10305896Y-9880650D02*
X10324944Y-9890174D01*
X10324944Y-9890174D02*
X10334467Y-9899698D01*
X10334467Y-9899698D02*
X10343991Y-9918746D01*
X10343991Y-9918746D02*
X10343991Y-9975889D01*
X10343991Y-9975889D02*
X10334467Y-9994936D01*
X10334467Y-9994936D02*
X10324944Y-10004460D01*
X10324944Y-10004460D02*
X10305896Y-10013984D01*
X10305896Y-10013984D02*
X10267801Y-10013984D01*
X10267801Y-10013984D02*
X10248753Y-10004460D01*
X10429705Y-9994936D02*
X10439229Y-10004460D01*
X10439229Y-10004460D02*
X10429705Y-10013984D01*
X10429705Y-10013984D02*
X10420182Y-10004460D01*
X10420182Y-10004460D02*
X10429705Y-9994936D01*
X10429705Y-9994936D02*
X10429705Y-10013984D01*
X10429705Y-9890174D02*
X10439229Y-9899698D01*
X10439229Y-9899698D02*
X10429705Y-9909222D01*
X10429705Y-9909222D02*
X10420182Y-9899698D01*
X10420182Y-9899698D02*
X10429705Y-9890174D01*
X10429705Y-9890174D02*
X10429705Y-9909222D01*
D12*
X8767500Y-10327500D02*
X8797500Y-10357500D01*
X8797500Y-10327500D02*
X8767500Y-10357500D01*
D11*
X9096372Y-10233984D02*
X9115420Y-10233984D01*
X9115420Y-10233984D02*
X9134467Y-10243508D01*
X9134467Y-10243508D02*
X9143991Y-10253031D01*
X9143991Y-10253031D02*
X9153515Y-10272079D01*
X9153515Y-10272079D02*
X9163039Y-10310174D01*
X9163039Y-10310174D02*
X9163039Y-10357793D01*
X9163039Y-10357793D02*
X9153515Y-10395889D01*
X9153515Y-10395889D02*
X9143991Y-10414936D01*
X9143991Y-10414936D02*
X9134467Y-10424460D01*
X9134467Y-10424460D02*
X9115420Y-10433984D01*
X9115420Y-10433984D02*
X9096372Y-10433984D01*
X9096372Y-10433984D02*
X9077324Y-10424460D01*
X9077324Y-10424460D02*
X9067801Y-10414936D01*
X9067801Y-10414936D02*
X9058277Y-10395889D01*
X9058277Y-10395889D02*
X9048753Y-10357793D01*
X9048753Y-10357793D02*
X9048753Y-10310174D01*
X9048753Y-10310174D02*
X9058277Y-10272079D01*
X9058277Y-10272079D02*
X9067801Y-10253031D01*
X9067801Y-10253031D02*
X9077324Y-10243508D01*
X9077324Y-10243508D02*
X9096372Y-10233984D01*
X9248753Y-10414936D02*
X9258277Y-10424460D01*
X9258277Y-10424460D02*
X9248753Y-10433984D01*
X9248753Y-10433984D02*
X9239229Y-10424460D01*
X9239229Y-10424460D02*
X9248753Y-10414936D01*
X9248753Y-10414936D02*
X9248753Y-10433984D01*
X9324944Y-10233984D02*
X9448753Y-10233984D01*
X9448753Y-10233984D02*
X9382086Y-10310174D01*
X9382086Y-10310174D02*
X9410658Y-10310174D01*
X9410658Y-10310174D02*
X9429705Y-10319698D01*
X9429705Y-10319698D02*
X9439229Y-10329222D01*
X9439229Y-10329222D02*
X9448753Y-10348270D01*
X9448753Y-10348270D02*
X9448753Y-10395889D01*
X9448753Y-10395889D02*
X9439229Y-10414936D01*
X9439229Y-10414936D02*
X9429705Y-10424460D01*
X9429705Y-10424460D02*
X9410658Y-10433984D01*
X9410658Y-10433984D02*
X9353515Y-10433984D01*
X9353515Y-10433984D02*
X9334467Y-10424460D01*
X9334467Y-10424460D02*
X9324944Y-10414936D01*
X9572563Y-10233984D02*
X9591610Y-10233984D01*
X9591610Y-10233984D02*
X9610658Y-10243508D01*
X9610658Y-10243508D02*
X9620182Y-10253031D01*
X9620182Y-10253031D02*
X9629705Y-10272079D01*
X9629705Y-10272079D02*
X9639229Y-10310174D01*
X9639229Y-10310174D02*
X9639229Y-10357793D01*
X9639229Y-10357793D02*
X9629705Y-10395889D01*
X9629705Y-10395889D02*
X9620182Y-10414936D01*
X9620182Y-10414936D02*
X9610658Y-10424460D01*
X9610658Y-10424460D02*
X9591610Y-10433984D01*
X9591610Y-10433984D02*
X9572563Y-10433984D01*
X9572563Y-10433984D02*
X9553515Y-10424460D01*
X9553515Y-10424460D02*
X9543991Y-10414936D01*
X9543991Y-10414936D02*
X9534467Y-10395889D01*
X9534467Y-10395889D02*
X9524944Y-10357793D01*
X9524944Y-10357793D02*
X9524944Y-10310174D01*
X9524944Y-10310174D02*
X9534467Y-10272079D01*
X9534467Y-10272079D02*
X9543991Y-10253031D01*
X9543991Y-10253031D02*
X9553515Y-10243508D01*
X9553515Y-10243508D02*
X9572563Y-10233984D01*
X9763039Y-10233984D02*
X9782086Y-10233984D01*
X9782086Y-10233984D02*
X9801134Y-10243508D01*
X9801134Y-10243508D02*
X9810658Y-10253031D01*
X9810658Y-10253031D02*
X9820182Y-10272079D01*
X9820182Y-10272079D02*
X9829705Y-10310174D01*
X9829705Y-10310174D02*
X9829705Y-10357793D01*
X9829705Y-10357793D02*
X9820182Y-10395889D01*
X9820182Y-10395889D02*
X9810658Y-10414936D01*
X9810658Y-10414936D02*
X9801134Y-10424460D01*
X9801134Y-10424460D02*
X9782086Y-10433984D01*
X9782086Y-10433984D02*
X9763039Y-10433984D01*
X9763039Y-10433984D02*
X9743991Y-10424460D01*
X9743991Y-10424460D02*
X9734467Y-10414936D01*
X9734467Y-10414936D02*
X9724944Y-10395889D01*
X9724944Y-10395889D02*
X9715420Y-10357793D01*
X9715420Y-10357793D02*
X9715420Y-10310174D01*
X9715420Y-10310174D02*
X9724944Y-10272079D01*
X9724944Y-10272079D02*
X9734467Y-10253031D01*
X9734467Y-10253031D02*
X9743991Y-10243508D01*
X9743991Y-10243508D02*
X9763039Y-10233984D01*
X9915420Y-10433984D02*
X9915420Y-10300650D01*
X9915420Y-10319698D02*
X9924944Y-10310174D01*
X9924944Y-10310174D02*
X9943991Y-10300650D01*
X9943991Y-10300650D02*
X9972563Y-10300650D01*
X9972563Y-10300650D02*
X9991610Y-10310174D01*
X9991610Y-10310174D02*
X10001134Y-10329222D01*
X10001134Y-10329222D02*
X10001134Y-10433984D01*
X10001134Y-10329222D02*
X10010658Y-10310174D01*
X10010658Y-10310174D02*
X10029705Y-10300650D01*
X10029705Y-10300650D02*
X10058277Y-10300650D01*
X10058277Y-10300650D02*
X10077325Y-10310174D01*
X10077325Y-10310174D02*
X10086848Y-10329222D01*
X10086848Y-10329222D02*
X10086848Y-10433984D01*
X10182086Y-10433984D02*
X10182086Y-10300650D01*
X10182086Y-10319698D02*
X10191610Y-10310174D01*
X10191610Y-10310174D02*
X10210658Y-10300650D01*
X10210658Y-10300650D02*
X10239229Y-10300650D01*
X10239229Y-10300650D02*
X10258277Y-10310174D01*
X10258277Y-10310174D02*
X10267801Y-10329222D01*
X10267801Y-10329222D02*
X10267801Y-10433984D01*
X10267801Y-10329222D02*
X10277325Y-10310174D01*
X10277325Y-10310174D02*
X10296372Y-10300650D01*
X10296372Y-10300650D02*
X10324944Y-10300650D01*
X10324944Y-10300650D02*
X10343991Y-10310174D01*
X10343991Y-10310174D02*
X10353515Y-10329222D01*
X10353515Y-10329222D02*
X10353515Y-10433984D01*
X10743991Y-10224460D02*
X10572563Y-10481603D01*
X11001134Y-10233984D02*
X11020182Y-10233984D01*
X11020182Y-10233984D02*
X11039229Y-10243508D01*
X11039229Y-10243508D02*
X11048753Y-10253031D01*
X11048753Y-10253031D02*
X11058277Y-10272079D01*
X11058277Y-10272079D02*
X11067801Y-10310174D01*
X11067801Y-10310174D02*
X11067801Y-10357793D01*
X11067801Y-10357793D02*
X11058277Y-10395889D01*
X11058277Y-10395889D02*
X11048753Y-10414936D01*
X11048753Y-10414936D02*
X11039229Y-10424460D01*
X11039229Y-10424460D02*
X11020182Y-10433984D01*
X11020182Y-10433984D02*
X11001134Y-10433984D01*
X11001134Y-10433984D02*
X10982087Y-10424460D01*
X10982087Y-10424460D02*
X10972563Y-10414936D01*
X10972563Y-10414936D02*
X10963039Y-10395889D01*
X10963039Y-10395889D02*
X10953515Y-10357793D01*
X10953515Y-10357793D02*
X10953515Y-10310174D01*
X10953515Y-10310174D02*
X10963039Y-10272079D01*
X10963039Y-10272079D02*
X10972563Y-10253031D01*
X10972563Y-10253031D02*
X10982087Y-10243508D01*
X10982087Y-10243508D02*
X11001134Y-10233984D01*
X11153515Y-10414936D02*
X11163039Y-10424460D01*
X11163039Y-10424460D02*
X11153515Y-10433984D01*
X11153515Y-10433984D02*
X11143991Y-10424460D01*
X11143991Y-10424460D02*
X11153515Y-10414936D01*
X11153515Y-10414936D02*
X11153515Y-10433984D01*
X11286848Y-10233984D02*
X11305896Y-10233984D01*
X11305896Y-10233984D02*
X11324944Y-10243508D01*
X11324944Y-10243508D02*
X11334467Y-10253031D01*
X11334467Y-10253031D02*
X11343991Y-10272079D01*
X11343991Y-10272079D02*
X11353515Y-10310174D01*
X11353515Y-10310174D02*
X11353515Y-10357793D01*
X11353515Y-10357793D02*
X11343991Y-10395889D01*
X11343991Y-10395889D02*
X11334467Y-10414936D01*
X11334467Y-10414936D02*
X11324944Y-10424460D01*
X11324944Y-10424460D02*
X11305896Y-10433984D01*
X11305896Y-10433984D02*
X11286848Y-10433984D01*
X11286848Y-10433984D02*
X11267801Y-10424460D01*
X11267801Y-10424460D02*
X11258277Y-10414936D01*
X11258277Y-10414936D02*
X11248753Y-10395889D01*
X11248753Y-10395889D02*
X11239229Y-10357793D01*
X11239229Y-10357793D02*
X11239229Y-10310174D01*
X11239229Y-10310174D02*
X11248753Y-10272079D01*
X11248753Y-10272079D02*
X11258277Y-10253031D01*
X11258277Y-10253031D02*
X11267801Y-10243508D01*
X11267801Y-10243508D02*
X11286848Y-10233984D01*
X11543991Y-10433984D02*
X11429706Y-10433984D01*
X11486848Y-10433984D02*
X11486848Y-10233984D01*
X11486848Y-10233984D02*
X11467801Y-10262555D01*
X11467801Y-10262555D02*
X11448753Y-10281603D01*
X11448753Y-10281603D02*
X11429706Y-10291127D01*
X11734467Y-10433984D02*
X11620182Y-10433984D01*
X11677325Y-10433984D02*
X11677325Y-10233984D01*
X11677325Y-10233984D02*
X11658277Y-10262555D01*
X11658277Y-10262555D02*
X11639229Y-10281603D01*
X11639229Y-10281603D02*
X11620182Y-10291127D01*
X11848753Y-10319698D02*
X11829706Y-10310174D01*
X11829706Y-10310174D02*
X11820182Y-10300650D01*
X11820182Y-10300650D02*
X11810658Y-10281603D01*
X11810658Y-10281603D02*
X11810658Y-10272079D01*
X11810658Y-10272079D02*
X11820182Y-10253031D01*
X11820182Y-10253031D02*
X11829706Y-10243508D01*
X11829706Y-10243508D02*
X11848753Y-10233984D01*
X11848753Y-10233984D02*
X11886848Y-10233984D01*
X11886848Y-10233984D02*
X11905896Y-10243508D01*
X11905896Y-10243508D02*
X11915420Y-10253031D01*
X11915420Y-10253031D02*
X11924944Y-10272079D01*
X11924944Y-10272079D02*
X11924944Y-10281603D01*
X11924944Y-10281603D02*
X11915420Y-10300650D01*
X11915420Y-10300650D02*
X11905896Y-10310174D01*
X11905896Y-10310174D02*
X11886848Y-10319698D01*
X11886848Y-10319698D02*
X11848753Y-10319698D01*
X11848753Y-10319698D02*
X11829706Y-10329222D01*
X11829706Y-10329222D02*
X11820182Y-10338746D01*
X11820182Y-10338746D02*
X11810658Y-10357793D01*
X11810658Y-10357793D02*
X11810658Y-10395889D01*
X11810658Y-10395889D02*
X11820182Y-10414936D01*
X11820182Y-10414936D02*
X11829706Y-10424460D01*
X11829706Y-10424460D02*
X11848753Y-10433984D01*
X11848753Y-10433984D02*
X11886848Y-10433984D01*
X11886848Y-10433984D02*
X11905896Y-10424460D01*
X11905896Y-10424460D02*
X11915420Y-10414936D01*
X11915420Y-10414936D02*
X11924944Y-10395889D01*
X11924944Y-10395889D02*
X11924944Y-10357793D01*
X11924944Y-10357793D02*
X11915420Y-10338746D01*
X11915420Y-10338746D02*
X11905896Y-10329222D01*
X11905896Y-10329222D02*
X11886848Y-10319698D01*
X12001134Y-10233984D02*
X12001134Y-10272079D01*
X12077325Y-10233984D02*
X12077325Y-10272079D01*
X12372563Y-10510174D02*
X12363039Y-10500650D01*
X12363039Y-10500650D02*
X12343991Y-10472079D01*
X12343991Y-10472079D02*
X12334468Y-10453031D01*
X12334468Y-10453031D02*
X12324944Y-10424460D01*
X12324944Y-10424460D02*
X12315420Y-10376841D01*
X12315420Y-10376841D02*
X12315420Y-10338746D01*
X12315420Y-10338746D02*
X12324944Y-10291127D01*
X12324944Y-10291127D02*
X12334468Y-10262555D01*
X12334468Y-10262555D02*
X12343991Y-10243508D01*
X12343991Y-10243508D02*
X12363039Y-10214936D01*
X12363039Y-10214936D02*
X12372563Y-10205412D01*
X12439229Y-10253031D02*
X12448753Y-10243508D01*
X12448753Y-10243508D02*
X12467801Y-10233984D01*
X12467801Y-10233984D02*
X12515420Y-10233984D01*
X12515420Y-10233984D02*
X12534468Y-10243508D01*
X12534468Y-10243508D02*
X12543991Y-10253031D01*
X12543991Y-10253031D02*
X12553515Y-10272079D01*
X12553515Y-10272079D02*
X12553515Y-10291127D01*
X12553515Y-10291127D02*
X12543991Y-10319698D01*
X12543991Y-10319698D02*
X12429706Y-10433984D01*
X12429706Y-10433984D02*
X12553515Y-10433984D01*
X12791610Y-10433984D02*
X12791610Y-10233984D01*
X12877325Y-10433984D02*
X12877325Y-10329222D01*
X12877325Y-10329222D02*
X12867801Y-10310174D01*
X12867801Y-10310174D02*
X12848753Y-10300650D01*
X12848753Y-10300650D02*
X12820182Y-10300650D01*
X12820182Y-10300650D02*
X12801134Y-10310174D01*
X12801134Y-10310174D02*
X12791610Y-10319698D01*
X13001134Y-10433984D02*
X12982087Y-10424460D01*
X12982087Y-10424460D02*
X12972563Y-10414936D01*
X12972563Y-10414936D02*
X12963039Y-10395889D01*
X12963039Y-10395889D02*
X12963039Y-10338746D01*
X12963039Y-10338746D02*
X12972563Y-10319698D01*
X12972563Y-10319698D02*
X12982087Y-10310174D01*
X12982087Y-10310174D02*
X13001134Y-10300650D01*
X13001134Y-10300650D02*
X13029706Y-10300650D01*
X13029706Y-10300650D02*
X13048753Y-10310174D01*
X13048753Y-10310174D02*
X13058277Y-10319698D01*
X13058277Y-10319698D02*
X13067801Y-10338746D01*
X13067801Y-10338746D02*
X13067801Y-10395889D01*
X13067801Y-10395889D02*
X13058277Y-10414936D01*
X13058277Y-10414936D02*
X13048753Y-10424460D01*
X13048753Y-10424460D02*
X13029706Y-10433984D01*
X13029706Y-10433984D02*
X13001134Y-10433984D01*
X13182087Y-10433984D02*
X13163039Y-10424460D01*
X13163039Y-10424460D02*
X13153515Y-10405412D01*
X13153515Y-10405412D02*
X13153515Y-10233984D01*
X13334468Y-10424460D02*
X13315420Y-10433984D01*
X13315420Y-10433984D02*
X13277325Y-10433984D01*
X13277325Y-10433984D02*
X13258277Y-10424460D01*
X13258277Y-10424460D02*
X13248753Y-10405412D01*
X13248753Y-10405412D02*
X13248753Y-10329222D01*
X13248753Y-10329222D02*
X13258277Y-10310174D01*
X13258277Y-10310174D02*
X13277325Y-10300650D01*
X13277325Y-10300650D02*
X13315420Y-10300650D01*
X13315420Y-10300650D02*
X13334468Y-10310174D01*
X13334468Y-10310174D02*
X13343991Y-10329222D01*
X13343991Y-10329222D02*
X13343991Y-10348270D01*
X13343991Y-10348270D02*
X13248753Y-10367317D01*
X13420182Y-10424460D02*
X13439230Y-10433984D01*
X13439230Y-10433984D02*
X13477325Y-10433984D01*
X13477325Y-10433984D02*
X13496372Y-10424460D01*
X13496372Y-10424460D02*
X13505896Y-10405412D01*
X13505896Y-10405412D02*
X13505896Y-10395889D01*
X13505896Y-10395889D02*
X13496372Y-10376841D01*
X13496372Y-10376841D02*
X13477325Y-10367317D01*
X13477325Y-10367317D02*
X13448753Y-10367317D01*
X13448753Y-10367317D02*
X13429706Y-10357793D01*
X13429706Y-10357793D02*
X13420182Y-10338746D01*
X13420182Y-10338746D02*
X13420182Y-10329222D01*
X13420182Y-10329222D02*
X13429706Y-10310174D01*
X13429706Y-10310174D02*
X13448753Y-10300650D01*
X13448753Y-10300650D02*
X13477325Y-10300650D01*
X13477325Y-10300650D02*
X13496372Y-10310174D01*
X13572563Y-10510174D02*
X13582087Y-10500650D01*
X13582087Y-10500650D02*
X13601134Y-10472079D01*
X13601134Y-10472079D02*
X13610658Y-10453031D01*
X13610658Y-10453031D02*
X13620182Y-10424460D01*
X13620182Y-10424460D02*
X13629706Y-10376841D01*
X13629706Y-10376841D02*
X13629706Y-10338746D01*
X13629706Y-10338746D02*
X13620182Y-10291127D01*
X13620182Y-10291127D02*
X13610658Y-10262555D01*
X13610658Y-10262555D02*
X13601134Y-10243508D01*
X13601134Y-10243508D02*
X13582087Y-10214936D01*
X13582087Y-10214936D02*
X13572563Y-10205412D01*
D12*
X8797500Y-10606500D02*
G75*
G02*
X8728500Y-10606500I-34500J0D01*
G01*
X8728500Y-10606500D02*
G75*
G02*
X8797500Y-10606500I34500J0D01*
G01*
D11*
X9096372Y-10497984D02*
X9115420Y-10497984D01*
X9115420Y-10497984D02*
X9134467Y-10507508D01*
X9134467Y-10507508D02*
X9143991Y-10517031D01*
X9143991Y-10517031D02*
X9153515Y-10536079D01*
X9153515Y-10536079D02*
X9163039Y-10574174D01*
X9163039Y-10574174D02*
X9163039Y-10621793D01*
X9163039Y-10621793D02*
X9153515Y-10659889D01*
X9153515Y-10659889D02*
X9143991Y-10678936D01*
X9143991Y-10678936D02*
X9134467Y-10688460D01*
X9134467Y-10688460D02*
X9115420Y-10697984D01*
X9115420Y-10697984D02*
X9096372Y-10697984D01*
X9096372Y-10697984D02*
X9077324Y-10688460D01*
X9077324Y-10688460D02*
X9067801Y-10678936D01*
X9067801Y-10678936D02*
X9058277Y-10659889D01*
X9058277Y-10659889D02*
X9048753Y-10621793D01*
X9048753Y-10621793D02*
X9048753Y-10574174D01*
X9048753Y-10574174D02*
X9058277Y-10536079D01*
X9058277Y-10536079D02*
X9067801Y-10517031D01*
X9067801Y-10517031D02*
X9077324Y-10507508D01*
X9077324Y-10507508D02*
X9096372Y-10497984D01*
X9248753Y-10678936D02*
X9258277Y-10688460D01*
X9258277Y-10688460D02*
X9248753Y-10697984D01*
X9248753Y-10697984D02*
X9239229Y-10688460D01*
X9239229Y-10688460D02*
X9248753Y-10678936D01*
X9248753Y-10678936D02*
X9248753Y-10697984D01*
X9429705Y-10497984D02*
X9391610Y-10497984D01*
X9391610Y-10497984D02*
X9372563Y-10507508D01*
X9372563Y-10507508D02*
X9363039Y-10517031D01*
X9363039Y-10517031D02*
X9343991Y-10545603D01*
X9343991Y-10545603D02*
X9334467Y-10583698D01*
X9334467Y-10583698D02*
X9334467Y-10659889D01*
X9334467Y-10659889D02*
X9343991Y-10678936D01*
X9343991Y-10678936D02*
X9353515Y-10688460D01*
X9353515Y-10688460D02*
X9372563Y-10697984D01*
X9372563Y-10697984D02*
X9410658Y-10697984D01*
X9410658Y-10697984D02*
X9429705Y-10688460D01*
X9429705Y-10688460D02*
X9439229Y-10678936D01*
X9439229Y-10678936D02*
X9448753Y-10659889D01*
X9448753Y-10659889D02*
X9448753Y-10612270D01*
X9448753Y-10612270D02*
X9439229Y-10593222D01*
X9439229Y-10593222D02*
X9429705Y-10583698D01*
X9429705Y-10583698D02*
X9410658Y-10574174D01*
X9410658Y-10574174D02*
X9372563Y-10574174D01*
X9372563Y-10574174D02*
X9353515Y-10583698D01*
X9353515Y-10583698D02*
X9343991Y-10593222D01*
X9343991Y-10593222D02*
X9334467Y-10612270D01*
X9543991Y-10697984D02*
X9582086Y-10697984D01*
X9582086Y-10697984D02*
X9601134Y-10688460D01*
X9601134Y-10688460D02*
X9610658Y-10678936D01*
X9610658Y-10678936D02*
X9629705Y-10650365D01*
X9629705Y-10650365D02*
X9639229Y-10612270D01*
X9639229Y-10612270D02*
X9639229Y-10536079D01*
X9639229Y-10536079D02*
X9629705Y-10517031D01*
X9629705Y-10517031D02*
X9620182Y-10507508D01*
X9620182Y-10507508D02*
X9601134Y-10497984D01*
X9601134Y-10497984D02*
X9563039Y-10497984D01*
X9563039Y-10497984D02*
X9543991Y-10507508D01*
X9543991Y-10507508D02*
X9534467Y-10517031D01*
X9534467Y-10517031D02*
X9524944Y-10536079D01*
X9524944Y-10536079D02*
X9524944Y-10583698D01*
X9524944Y-10583698D02*
X9534467Y-10602746D01*
X9534467Y-10602746D02*
X9543991Y-10612270D01*
X9543991Y-10612270D02*
X9563039Y-10621793D01*
X9563039Y-10621793D02*
X9601134Y-10621793D01*
X9601134Y-10621793D02*
X9620182Y-10612270D01*
X9620182Y-10612270D02*
X9629705Y-10602746D01*
X9629705Y-10602746D02*
X9639229Y-10583698D01*
X9763039Y-10497984D02*
X9782086Y-10497984D01*
X9782086Y-10497984D02*
X9801134Y-10507508D01*
X9801134Y-10507508D02*
X9810658Y-10517031D01*
X9810658Y-10517031D02*
X9820182Y-10536079D01*
X9820182Y-10536079D02*
X9829705Y-10574174D01*
X9829705Y-10574174D02*
X9829705Y-10621793D01*
X9829705Y-10621793D02*
X9820182Y-10659889D01*
X9820182Y-10659889D02*
X9810658Y-10678936D01*
X9810658Y-10678936D02*
X9801134Y-10688460D01*
X9801134Y-10688460D02*
X9782086Y-10697984D01*
X9782086Y-10697984D02*
X9763039Y-10697984D01*
X9763039Y-10697984D02*
X9743991Y-10688460D01*
X9743991Y-10688460D02*
X9734467Y-10678936D01*
X9734467Y-10678936D02*
X9724944Y-10659889D01*
X9724944Y-10659889D02*
X9715420Y-10621793D01*
X9715420Y-10621793D02*
X9715420Y-10574174D01*
X9715420Y-10574174D02*
X9724944Y-10536079D01*
X9724944Y-10536079D02*
X9734467Y-10517031D01*
X9734467Y-10517031D02*
X9743991Y-10507508D01*
X9743991Y-10507508D02*
X9763039Y-10497984D01*
X9915420Y-10697984D02*
X9915420Y-10564650D01*
X9915420Y-10583698D02*
X9924944Y-10574174D01*
X9924944Y-10574174D02*
X9943991Y-10564650D01*
X9943991Y-10564650D02*
X9972563Y-10564650D01*
X9972563Y-10564650D02*
X9991610Y-10574174D01*
X9991610Y-10574174D02*
X10001134Y-10593222D01*
X10001134Y-10593222D02*
X10001134Y-10697984D01*
X10001134Y-10593222D02*
X10010658Y-10574174D01*
X10010658Y-10574174D02*
X10029705Y-10564650D01*
X10029705Y-10564650D02*
X10058277Y-10564650D01*
X10058277Y-10564650D02*
X10077325Y-10574174D01*
X10077325Y-10574174D02*
X10086848Y-10593222D01*
X10086848Y-10593222D02*
X10086848Y-10697984D01*
X10182086Y-10697984D02*
X10182086Y-10564650D01*
X10182086Y-10583698D02*
X10191610Y-10574174D01*
X10191610Y-10574174D02*
X10210658Y-10564650D01*
X10210658Y-10564650D02*
X10239229Y-10564650D01*
X10239229Y-10564650D02*
X10258277Y-10574174D01*
X10258277Y-10574174D02*
X10267801Y-10593222D01*
X10267801Y-10593222D02*
X10267801Y-10697984D01*
X10267801Y-10593222D02*
X10277325Y-10574174D01*
X10277325Y-10574174D02*
X10296372Y-10564650D01*
X10296372Y-10564650D02*
X10324944Y-10564650D01*
X10324944Y-10564650D02*
X10343991Y-10574174D01*
X10343991Y-10574174D02*
X10353515Y-10593222D01*
X10353515Y-10593222D02*
X10353515Y-10697984D01*
X10743991Y-10488460D02*
X10572563Y-10745603D01*
X11001134Y-10497984D02*
X11020182Y-10497984D01*
X11020182Y-10497984D02*
X11039229Y-10507508D01*
X11039229Y-10507508D02*
X11048753Y-10517031D01*
X11048753Y-10517031D02*
X11058277Y-10536079D01*
X11058277Y-10536079D02*
X11067801Y-10574174D01*
X11067801Y-10574174D02*
X11067801Y-10621793D01*
X11067801Y-10621793D02*
X11058277Y-10659889D01*
X11058277Y-10659889D02*
X11048753Y-10678936D01*
X11048753Y-10678936D02*
X11039229Y-10688460D01*
X11039229Y-10688460D02*
X11020182Y-10697984D01*
X11020182Y-10697984D02*
X11001134Y-10697984D01*
X11001134Y-10697984D02*
X10982087Y-10688460D01*
X10982087Y-10688460D02*
X10972563Y-10678936D01*
X10972563Y-10678936D02*
X10963039Y-10659889D01*
X10963039Y-10659889D02*
X10953515Y-10621793D01*
X10953515Y-10621793D02*
X10953515Y-10574174D01*
X10953515Y-10574174D02*
X10963039Y-10536079D01*
X10963039Y-10536079D02*
X10972563Y-10517031D01*
X10972563Y-10517031D02*
X10982087Y-10507508D01*
X10982087Y-10507508D02*
X11001134Y-10497984D01*
X11153515Y-10678936D02*
X11163039Y-10688460D01*
X11163039Y-10688460D02*
X11153515Y-10697984D01*
X11153515Y-10697984D02*
X11143991Y-10688460D01*
X11143991Y-10688460D02*
X11153515Y-10678936D01*
X11153515Y-10678936D02*
X11153515Y-10697984D01*
X11286848Y-10497984D02*
X11305896Y-10497984D01*
X11305896Y-10497984D02*
X11324944Y-10507508D01*
X11324944Y-10507508D02*
X11334467Y-10517031D01*
X11334467Y-10517031D02*
X11343991Y-10536079D01*
X11343991Y-10536079D02*
X11353515Y-10574174D01*
X11353515Y-10574174D02*
X11353515Y-10621793D01*
X11353515Y-10621793D02*
X11343991Y-10659889D01*
X11343991Y-10659889D02*
X11334467Y-10678936D01*
X11334467Y-10678936D02*
X11324944Y-10688460D01*
X11324944Y-10688460D02*
X11305896Y-10697984D01*
X11305896Y-10697984D02*
X11286848Y-10697984D01*
X11286848Y-10697984D02*
X11267801Y-10688460D01*
X11267801Y-10688460D02*
X11258277Y-10678936D01*
X11258277Y-10678936D02*
X11248753Y-10659889D01*
X11248753Y-10659889D02*
X11239229Y-10621793D01*
X11239229Y-10621793D02*
X11239229Y-10574174D01*
X11239229Y-10574174D02*
X11248753Y-10536079D01*
X11248753Y-10536079D02*
X11258277Y-10517031D01*
X11258277Y-10517031D02*
X11267801Y-10507508D01*
X11267801Y-10507508D02*
X11286848Y-10497984D01*
X11429706Y-10517031D02*
X11439229Y-10507508D01*
X11439229Y-10507508D02*
X11458277Y-10497984D01*
X11458277Y-10497984D02*
X11505896Y-10497984D01*
X11505896Y-10497984D02*
X11524944Y-10507508D01*
X11524944Y-10507508D02*
X11534467Y-10517031D01*
X11534467Y-10517031D02*
X11543991Y-10536079D01*
X11543991Y-10536079D02*
X11543991Y-10555127D01*
X11543991Y-10555127D02*
X11534467Y-10583698D01*
X11534467Y-10583698D02*
X11420182Y-10697984D01*
X11420182Y-10697984D02*
X11543991Y-10697984D01*
X11610658Y-10497984D02*
X11743991Y-10497984D01*
X11743991Y-10497984D02*
X11658277Y-10697984D01*
X11810658Y-10517031D02*
X11820182Y-10507508D01*
X11820182Y-10507508D02*
X11839229Y-10497984D01*
X11839229Y-10497984D02*
X11886848Y-10497984D01*
X11886848Y-10497984D02*
X11905896Y-10507508D01*
X11905896Y-10507508D02*
X11915420Y-10517031D01*
X11915420Y-10517031D02*
X11924944Y-10536079D01*
X11924944Y-10536079D02*
X11924944Y-10555127D01*
X11924944Y-10555127D02*
X11915420Y-10583698D01*
X11915420Y-10583698D02*
X11801134Y-10697984D01*
X11801134Y-10697984D02*
X11924944Y-10697984D01*
X12001134Y-10497984D02*
X12001134Y-10536079D01*
X12077325Y-10497984D02*
X12077325Y-10536079D01*
X12372563Y-10774174D02*
X12363039Y-10764650D01*
X12363039Y-10764650D02*
X12343991Y-10736079D01*
X12343991Y-10736079D02*
X12334468Y-10717031D01*
X12334468Y-10717031D02*
X12324944Y-10688460D01*
X12324944Y-10688460D02*
X12315420Y-10640841D01*
X12315420Y-10640841D02*
X12315420Y-10602746D01*
X12315420Y-10602746D02*
X12324944Y-10555127D01*
X12324944Y-10555127D02*
X12334468Y-10526555D01*
X12334468Y-10526555D02*
X12343991Y-10507508D01*
X12343991Y-10507508D02*
X12363039Y-10478936D01*
X12363039Y-10478936D02*
X12372563Y-10469412D01*
X12458277Y-10697984D02*
X12496372Y-10697984D01*
X12496372Y-10697984D02*
X12515420Y-10688460D01*
X12515420Y-10688460D02*
X12524944Y-10678936D01*
X12524944Y-10678936D02*
X12543991Y-10650365D01*
X12543991Y-10650365D02*
X12553515Y-10612270D01*
X12553515Y-10612270D02*
X12553515Y-10536079D01*
X12553515Y-10536079D02*
X12543991Y-10517031D01*
X12543991Y-10517031D02*
X12534468Y-10507508D01*
X12534468Y-10507508D02*
X12515420Y-10497984D01*
X12515420Y-10497984D02*
X12477325Y-10497984D01*
X12477325Y-10497984D02*
X12458277Y-10507508D01*
X12458277Y-10507508D02*
X12448753Y-10517031D01*
X12448753Y-10517031D02*
X12439229Y-10536079D01*
X12439229Y-10536079D02*
X12439229Y-10583698D01*
X12439229Y-10583698D02*
X12448753Y-10602746D01*
X12448753Y-10602746D02*
X12458277Y-10612270D01*
X12458277Y-10612270D02*
X12477325Y-10621793D01*
X12477325Y-10621793D02*
X12515420Y-10621793D01*
X12515420Y-10621793D02*
X12534468Y-10612270D01*
X12534468Y-10612270D02*
X12543991Y-10602746D01*
X12543991Y-10602746D02*
X12553515Y-10583698D01*
X12791610Y-10697984D02*
X12791610Y-10497984D01*
X12877325Y-10697984D02*
X12877325Y-10593222D01*
X12877325Y-10593222D02*
X12867801Y-10574174D01*
X12867801Y-10574174D02*
X12848753Y-10564650D01*
X12848753Y-10564650D02*
X12820182Y-10564650D01*
X12820182Y-10564650D02*
X12801134Y-10574174D01*
X12801134Y-10574174D02*
X12791610Y-10583698D01*
X13001134Y-10697984D02*
X12982087Y-10688460D01*
X12982087Y-10688460D02*
X12972563Y-10678936D01*
X12972563Y-10678936D02*
X12963039Y-10659889D01*
X12963039Y-10659889D02*
X12963039Y-10602746D01*
X12963039Y-10602746D02*
X12972563Y-10583698D01*
X12972563Y-10583698D02*
X12982087Y-10574174D01*
X12982087Y-10574174D02*
X13001134Y-10564650D01*
X13001134Y-10564650D02*
X13029706Y-10564650D01*
X13029706Y-10564650D02*
X13048753Y-10574174D01*
X13048753Y-10574174D02*
X13058277Y-10583698D01*
X13058277Y-10583698D02*
X13067801Y-10602746D01*
X13067801Y-10602746D02*
X13067801Y-10659889D01*
X13067801Y-10659889D02*
X13058277Y-10678936D01*
X13058277Y-10678936D02*
X13048753Y-10688460D01*
X13048753Y-10688460D02*
X13029706Y-10697984D01*
X13029706Y-10697984D02*
X13001134Y-10697984D01*
X13182087Y-10697984D02*
X13163039Y-10688460D01*
X13163039Y-10688460D02*
X13153515Y-10669412D01*
X13153515Y-10669412D02*
X13153515Y-10497984D01*
X13334468Y-10688460D02*
X13315420Y-10697984D01*
X13315420Y-10697984D02*
X13277325Y-10697984D01*
X13277325Y-10697984D02*
X13258277Y-10688460D01*
X13258277Y-10688460D02*
X13248753Y-10669412D01*
X13248753Y-10669412D02*
X13248753Y-10593222D01*
X13248753Y-10593222D02*
X13258277Y-10574174D01*
X13258277Y-10574174D02*
X13277325Y-10564650D01*
X13277325Y-10564650D02*
X13315420Y-10564650D01*
X13315420Y-10564650D02*
X13334468Y-10574174D01*
X13334468Y-10574174D02*
X13343991Y-10593222D01*
X13343991Y-10593222D02*
X13343991Y-10612270D01*
X13343991Y-10612270D02*
X13248753Y-10631317D01*
X13420182Y-10688460D02*
X13439230Y-10697984D01*
X13439230Y-10697984D02*
X13477325Y-10697984D01*
X13477325Y-10697984D02*
X13496372Y-10688460D01*
X13496372Y-10688460D02*
X13505896Y-10669412D01*
X13505896Y-10669412D02*
X13505896Y-10659889D01*
X13505896Y-10659889D02*
X13496372Y-10640841D01*
X13496372Y-10640841D02*
X13477325Y-10631317D01*
X13477325Y-10631317D02*
X13448753Y-10631317D01*
X13448753Y-10631317D02*
X13429706Y-10621793D01*
X13429706Y-10621793D02*
X13420182Y-10602746D01*
X13420182Y-10602746D02*
X13420182Y-10593222D01*
X13420182Y-10593222D02*
X13429706Y-10574174D01*
X13429706Y-10574174D02*
X13448753Y-10564650D01*
X13448753Y-10564650D02*
X13477325Y-10564650D01*
X13477325Y-10564650D02*
X13496372Y-10574174D01*
X13572563Y-10774174D02*
X13582087Y-10764650D01*
X13582087Y-10764650D02*
X13601134Y-10736079D01*
X13601134Y-10736079D02*
X13610658Y-10717031D01*
X13610658Y-10717031D02*
X13620182Y-10688460D01*
X13620182Y-10688460D02*
X13629706Y-10640841D01*
X13629706Y-10640841D02*
X13629706Y-10602746D01*
X13629706Y-10602746D02*
X13620182Y-10555127D01*
X13620182Y-10555127D02*
X13610658Y-10526555D01*
X13610658Y-10526555D02*
X13601134Y-10507508D01*
X13601134Y-10507508D02*
X13582087Y-10478936D01*
X13582087Y-10478936D02*
X13572563Y-10469412D01*
D12*
X8757500Y-10830500D02*
X8757500Y-10910500D01*
X8717500Y-10870500D02*
X8797500Y-10870500D01*
D11*
X9096372Y-10761984D02*
X9115420Y-10761984D01*
X9115420Y-10761984D02*
X9134467Y-10771508D01*
X9134467Y-10771508D02*
X9143991Y-10781031D01*
X9143991Y-10781031D02*
X9153515Y-10800079D01*
X9153515Y-10800079D02*
X9163039Y-10838174D01*
X9163039Y-10838174D02*
X9163039Y-10885793D01*
X9163039Y-10885793D02*
X9153515Y-10923889D01*
X9153515Y-10923889D02*
X9143991Y-10942936D01*
X9143991Y-10942936D02*
X9134467Y-10952460D01*
X9134467Y-10952460D02*
X9115420Y-10961984D01*
X9115420Y-10961984D02*
X9096372Y-10961984D01*
X9096372Y-10961984D02*
X9077324Y-10952460D01*
X9077324Y-10952460D02*
X9067801Y-10942936D01*
X9067801Y-10942936D02*
X9058277Y-10923889D01*
X9058277Y-10923889D02*
X9048753Y-10885793D01*
X9048753Y-10885793D02*
X9048753Y-10838174D01*
X9048753Y-10838174D02*
X9058277Y-10800079D01*
X9058277Y-10800079D02*
X9067801Y-10781031D01*
X9067801Y-10781031D02*
X9077324Y-10771508D01*
X9077324Y-10771508D02*
X9096372Y-10761984D01*
X9248753Y-10942936D02*
X9258277Y-10952460D01*
X9258277Y-10952460D02*
X9248753Y-10961984D01*
X9248753Y-10961984D02*
X9239229Y-10952460D01*
X9239229Y-10952460D02*
X9248753Y-10942936D01*
X9248753Y-10942936D02*
X9248753Y-10961984D01*
X9372563Y-10847698D02*
X9353515Y-10838174D01*
X9353515Y-10838174D02*
X9343991Y-10828650D01*
X9343991Y-10828650D02*
X9334467Y-10809603D01*
X9334467Y-10809603D02*
X9334467Y-10800079D01*
X9334467Y-10800079D02*
X9343991Y-10781031D01*
X9343991Y-10781031D02*
X9353515Y-10771508D01*
X9353515Y-10771508D02*
X9372563Y-10761984D01*
X9372563Y-10761984D02*
X9410658Y-10761984D01*
X9410658Y-10761984D02*
X9429705Y-10771508D01*
X9429705Y-10771508D02*
X9439229Y-10781031D01*
X9439229Y-10781031D02*
X9448753Y-10800079D01*
X9448753Y-10800079D02*
X9448753Y-10809603D01*
X9448753Y-10809603D02*
X9439229Y-10828650D01*
X9439229Y-10828650D02*
X9429705Y-10838174D01*
X9429705Y-10838174D02*
X9410658Y-10847698D01*
X9410658Y-10847698D02*
X9372563Y-10847698D01*
X9372563Y-10847698D02*
X9353515Y-10857222D01*
X9353515Y-10857222D02*
X9343991Y-10866746D01*
X9343991Y-10866746D02*
X9334467Y-10885793D01*
X9334467Y-10885793D02*
X9334467Y-10923889D01*
X9334467Y-10923889D02*
X9343991Y-10942936D01*
X9343991Y-10942936D02*
X9353515Y-10952460D01*
X9353515Y-10952460D02*
X9372563Y-10961984D01*
X9372563Y-10961984D02*
X9410658Y-10961984D01*
X9410658Y-10961984D02*
X9429705Y-10952460D01*
X9429705Y-10952460D02*
X9439229Y-10942936D01*
X9439229Y-10942936D02*
X9448753Y-10923889D01*
X9448753Y-10923889D02*
X9448753Y-10885793D01*
X9448753Y-10885793D02*
X9439229Y-10866746D01*
X9439229Y-10866746D02*
X9429705Y-10857222D01*
X9429705Y-10857222D02*
X9410658Y-10847698D01*
X9572563Y-10761984D02*
X9591610Y-10761984D01*
X9591610Y-10761984D02*
X9610658Y-10771508D01*
X9610658Y-10771508D02*
X9620182Y-10781031D01*
X9620182Y-10781031D02*
X9629705Y-10800079D01*
X9629705Y-10800079D02*
X9639229Y-10838174D01*
X9639229Y-10838174D02*
X9639229Y-10885793D01*
X9639229Y-10885793D02*
X9629705Y-10923889D01*
X9629705Y-10923889D02*
X9620182Y-10942936D01*
X9620182Y-10942936D02*
X9610658Y-10952460D01*
X9610658Y-10952460D02*
X9591610Y-10961984D01*
X9591610Y-10961984D02*
X9572563Y-10961984D01*
X9572563Y-10961984D02*
X9553515Y-10952460D01*
X9553515Y-10952460D02*
X9543991Y-10942936D01*
X9543991Y-10942936D02*
X9534467Y-10923889D01*
X9534467Y-10923889D02*
X9524944Y-10885793D01*
X9524944Y-10885793D02*
X9524944Y-10838174D01*
X9524944Y-10838174D02*
X9534467Y-10800079D01*
X9534467Y-10800079D02*
X9543991Y-10781031D01*
X9543991Y-10781031D02*
X9553515Y-10771508D01*
X9553515Y-10771508D02*
X9572563Y-10761984D01*
X9763039Y-10761984D02*
X9782086Y-10761984D01*
X9782086Y-10761984D02*
X9801134Y-10771508D01*
X9801134Y-10771508D02*
X9810658Y-10781031D01*
X9810658Y-10781031D02*
X9820182Y-10800079D01*
X9820182Y-10800079D02*
X9829705Y-10838174D01*
X9829705Y-10838174D02*
X9829705Y-10885793D01*
X9829705Y-10885793D02*
X9820182Y-10923889D01*
X9820182Y-10923889D02*
X9810658Y-10942936D01*
X9810658Y-10942936D02*
X9801134Y-10952460D01*
X9801134Y-10952460D02*
X9782086Y-10961984D01*
X9782086Y-10961984D02*
X9763039Y-10961984D01*
X9763039Y-10961984D02*
X9743991Y-10952460D01*
X9743991Y-10952460D02*
X9734467Y-10942936D01*
X9734467Y-10942936D02*
X9724944Y-10923889D01*
X9724944Y-10923889D02*
X9715420Y-10885793D01*
X9715420Y-10885793D02*
X9715420Y-10838174D01*
X9715420Y-10838174D02*
X9724944Y-10800079D01*
X9724944Y-10800079D02*
X9734467Y-10781031D01*
X9734467Y-10781031D02*
X9743991Y-10771508D01*
X9743991Y-10771508D02*
X9763039Y-10761984D01*
X9915420Y-10961984D02*
X9915420Y-10828650D01*
X9915420Y-10847698D02*
X9924944Y-10838174D01*
X9924944Y-10838174D02*
X9943991Y-10828650D01*
X9943991Y-10828650D02*
X9972563Y-10828650D01*
X9972563Y-10828650D02*
X9991610Y-10838174D01*
X9991610Y-10838174D02*
X10001134Y-10857222D01*
X10001134Y-10857222D02*
X10001134Y-10961984D01*
X10001134Y-10857222D02*
X10010658Y-10838174D01*
X10010658Y-10838174D02*
X10029705Y-10828650D01*
X10029705Y-10828650D02*
X10058277Y-10828650D01*
X10058277Y-10828650D02*
X10077325Y-10838174D01*
X10077325Y-10838174D02*
X10086848Y-10857222D01*
X10086848Y-10857222D02*
X10086848Y-10961984D01*
X10182086Y-10961984D02*
X10182086Y-10828650D01*
X10182086Y-10847698D02*
X10191610Y-10838174D01*
X10191610Y-10838174D02*
X10210658Y-10828650D01*
X10210658Y-10828650D02*
X10239229Y-10828650D01*
X10239229Y-10828650D02*
X10258277Y-10838174D01*
X10258277Y-10838174D02*
X10267801Y-10857222D01*
X10267801Y-10857222D02*
X10267801Y-10961984D01*
X10267801Y-10857222D02*
X10277325Y-10838174D01*
X10277325Y-10838174D02*
X10296372Y-10828650D01*
X10296372Y-10828650D02*
X10324944Y-10828650D01*
X10324944Y-10828650D02*
X10343991Y-10838174D01*
X10343991Y-10838174D02*
X10353515Y-10857222D01*
X10353515Y-10857222D02*
X10353515Y-10961984D01*
X10743991Y-10752460D02*
X10572563Y-11009603D01*
X11001134Y-10761984D02*
X11020182Y-10761984D01*
X11020182Y-10761984D02*
X11039229Y-10771508D01*
X11039229Y-10771508D02*
X11048753Y-10781031D01*
X11048753Y-10781031D02*
X11058277Y-10800079D01*
X11058277Y-10800079D02*
X11067801Y-10838174D01*
X11067801Y-10838174D02*
X11067801Y-10885793D01*
X11067801Y-10885793D02*
X11058277Y-10923889D01*
X11058277Y-10923889D02*
X11048753Y-10942936D01*
X11048753Y-10942936D02*
X11039229Y-10952460D01*
X11039229Y-10952460D02*
X11020182Y-10961984D01*
X11020182Y-10961984D02*
X11001134Y-10961984D01*
X11001134Y-10961984D02*
X10982087Y-10952460D01*
X10982087Y-10952460D02*
X10972563Y-10942936D01*
X10972563Y-10942936D02*
X10963039Y-10923889D01*
X10963039Y-10923889D02*
X10953515Y-10885793D01*
X10953515Y-10885793D02*
X10953515Y-10838174D01*
X10953515Y-10838174D02*
X10963039Y-10800079D01*
X10963039Y-10800079D02*
X10972563Y-10781031D01*
X10972563Y-10781031D02*
X10982087Y-10771508D01*
X10982087Y-10771508D02*
X11001134Y-10761984D01*
X11153515Y-10942936D02*
X11163039Y-10952460D01*
X11163039Y-10952460D02*
X11153515Y-10961984D01*
X11153515Y-10961984D02*
X11143991Y-10952460D01*
X11143991Y-10952460D02*
X11153515Y-10942936D01*
X11153515Y-10942936D02*
X11153515Y-10961984D01*
X11286848Y-10761984D02*
X11305896Y-10761984D01*
X11305896Y-10761984D02*
X11324944Y-10771508D01*
X11324944Y-10771508D02*
X11334467Y-10781031D01*
X11334467Y-10781031D02*
X11343991Y-10800079D01*
X11343991Y-10800079D02*
X11353515Y-10838174D01*
X11353515Y-10838174D02*
X11353515Y-10885793D01*
X11353515Y-10885793D02*
X11343991Y-10923889D01*
X11343991Y-10923889D02*
X11334467Y-10942936D01*
X11334467Y-10942936D02*
X11324944Y-10952460D01*
X11324944Y-10952460D02*
X11305896Y-10961984D01*
X11305896Y-10961984D02*
X11286848Y-10961984D01*
X11286848Y-10961984D02*
X11267801Y-10952460D01*
X11267801Y-10952460D02*
X11258277Y-10942936D01*
X11258277Y-10942936D02*
X11248753Y-10923889D01*
X11248753Y-10923889D02*
X11239229Y-10885793D01*
X11239229Y-10885793D02*
X11239229Y-10838174D01*
X11239229Y-10838174D02*
X11248753Y-10800079D01*
X11248753Y-10800079D02*
X11258277Y-10781031D01*
X11258277Y-10781031D02*
X11267801Y-10771508D01*
X11267801Y-10771508D02*
X11286848Y-10761984D01*
X11420182Y-10761984D02*
X11543991Y-10761984D01*
X11543991Y-10761984D02*
X11477325Y-10838174D01*
X11477325Y-10838174D02*
X11505896Y-10838174D01*
X11505896Y-10838174D02*
X11524944Y-10847698D01*
X11524944Y-10847698D02*
X11534467Y-10857222D01*
X11534467Y-10857222D02*
X11543991Y-10876270D01*
X11543991Y-10876270D02*
X11543991Y-10923889D01*
X11543991Y-10923889D02*
X11534467Y-10942936D01*
X11534467Y-10942936D02*
X11524944Y-10952460D01*
X11524944Y-10952460D02*
X11505896Y-10961984D01*
X11505896Y-10961984D02*
X11448753Y-10961984D01*
X11448753Y-10961984D02*
X11429706Y-10952460D01*
X11429706Y-10952460D02*
X11420182Y-10942936D01*
X11734467Y-10961984D02*
X11620182Y-10961984D01*
X11677325Y-10961984D02*
X11677325Y-10761984D01*
X11677325Y-10761984D02*
X11658277Y-10790555D01*
X11658277Y-10790555D02*
X11639229Y-10809603D01*
X11639229Y-10809603D02*
X11620182Y-10819127D01*
X11915420Y-10761984D02*
X11820182Y-10761984D01*
X11820182Y-10761984D02*
X11810658Y-10857222D01*
X11810658Y-10857222D02*
X11820182Y-10847698D01*
X11820182Y-10847698D02*
X11839229Y-10838174D01*
X11839229Y-10838174D02*
X11886848Y-10838174D01*
X11886848Y-10838174D02*
X11905896Y-10847698D01*
X11905896Y-10847698D02*
X11915420Y-10857222D01*
X11915420Y-10857222D02*
X11924944Y-10876270D01*
X11924944Y-10876270D02*
X11924944Y-10923889D01*
X11924944Y-10923889D02*
X11915420Y-10942936D01*
X11915420Y-10942936D02*
X11905896Y-10952460D01*
X11905896Y-10952460D02*
X11886848Y-10961984D01*
X11886848Y-10961984D02*
X11839229Y-10961984D01*
X11839229Y-10961984D02*
X11820182Y-10952460D01*
X11820182Y-10952460D02*
X11810658Y-10942936D01*
X12001134Y-10761984D02*
X12001134Y-10800079D01*
X12077325Y-10761984D02*
X12077325Y-10800079D01*
X12372563Y-11038174D02*
X12363039Y-11028650D01*
X12363039Y-11028650D02*
X12343991Y-11000079D01*
X12343991Y-11000079D02*
X12334468Y-10981031D01*
X12334468Y-10981031D02*
X12324944Y-10952460D01*
X12324944Y-10952460D02*
X12315420Y-10904841D01*
X12315420Y-10904841D02*
X12315420Y-10866746D01*
X12315420Y-10866746D02*
X12324944Y-10819127D01*
X12324944Y-10819127D02*
X12334468Y-10790555D01*
X12334468Y-10790555D02*
X12343991Y-10771508D01*
X12343991Y-10771508D02*
X12363039Y-10742936D01*
X12363039Y-10742936D02*
X12372563Y-10733412D01*
X12553515Y-10961984D02*
X12439229Y-10961984D01*
X12496372Y-10961984D02*
X12496372Y-10761984D01*
X12496372Y-10761984D02*
X12477325Y-10790555D01*
X12477325Y-10790555D02*
X12458277Y-10809603D01*
X12458277Y-10809603D02*
X12439229Y-10819127D01*
X12677325Y-10761984D02*
X12696372Y-10761984D01*
X12696372Y-10761984D02*
X12715420Y-10771508D01*
X12715420Y-10771508D02*
X12724944Y-10781031D01*
X12724944Y-10781031D02*
X12734468Y-10800079D01*
X12734468Y-10800079D02*
X12743991Y-10838174D01*
X12743991Y-10838174D02*
X12743991Y-10885793D01*
X12743991Y-10885793D02*
X12734468Y-10923889D01*
X12734468Y-10923889D02*
X12724944Y-10942936D01*
X12724944Y-10942936D02*
X12715420Y-10952460D01*
X12715420Y-10952460D02*
X12696372Y-10961984D01*
X12696372Y-10961984D02*
X12677325Y-10961984D01*
X12677325Y-10961984D02*
X12658277Y-10952460D01*
X12658277Y-10952460D02*
X12648753Y-10942936D01*
X12648753Y-10942936D02*
X12639229Y-10923889D01*
X12639229Y-10923889D02*
X12629706Y-10885793D01*
X12629706Y-10885793D02*
X12629706Y-10838174D01*
X12629706Y-10838174D02*
X12639229Y-10800079D01*
X12639229Y-10800079D02*
X12648753Y-10781031D01*
X12648753Y-10781031D02*
X12658277Y-10771508D01*
X12658277Y-10771508D02*
X12677325Y-10761984D01*
X12915420Y-10761984D02*
X12877325Y-10761984D01*
X12877325Y-10761984D02*
X12858277Y-10771508D01*
X12858277Y-10771508D02*
X12848753Y-10781031D01*
X12848753Y-10781031D02*
X12829706Y-10809603D01*
X12829706Y-10809603D02*
X12820182Y-10847698D01*
X12820182Y-10847698D02*
X12820182Y-10923889D01*
X12820182Y-10923889D02*
X12829706Y-10942936D01*
X12829706Y-10942936D02*
X12839229Y-10952460D01*
X12839229Y-10952460D02*
X12858277Y-10961984D01*
X12858277Y-10961984D02*
X12896372Y-10961984D01*
X12896372Y-10961984D02*
X12915420Y-10952460D01*
X12915420Y-10952460D02*
X12924944Y-10942936D01*
X12924944Y-10942936D02*
X12934468Y-10923889D01*
X12934468Y-10923889D02*
X12934468Y-10876270D01*
X12934468Y-10876270D02*
X12924944Y-10857222D01*
X12924944Y-10857222D02*
X12915420Y-10847698D01*
X12915420Y-10847698D02*
X12896372Y-10838174D01*
X12896372Y-10838174D02*
X12858277Y-10838174D01*
X12858277Y-10838174D02*
X12839229Y-10847698D01*
X12839229Y-10847698D02*
X12829706Y-10857222D01*
X12829706Y-10857222D02*
X12820182Y-10876270D01*
X13172563Y-10961984D02*
X13172563Y-10761984D01*
X13258277Y-10961984D02*
X13258277Y-10857222D01*
X13258277Y-10857222D02*
X13248753Y-10838174D01*
X13248753Y-10838174D02*
X13229706Y-10828650D01*
X13229706Y-10828650D02*
X13201134Y-10828650D01*
X13201134Y-10828650D02*
X13182087Y-10838174D01*
X13182087Y-10838174D02*
X13172563Y-10847698D01*
X13382087Y-10961984D02*
X13363039Y-10952460D01*
X13363039Y-10952460D02*
X13353515Y-10942936D01*
X13353515Y-10942936D02*
X13343991Y-10923889D01*
X13343991Y-10923889D02*
X13343991Y-10866746D01*
X13343991Y-10866746D02*
X13353515Y-10847698D01*
X13353515Y-10847698D02*
X13363039Y-10838174D01*
X13363039Y-10838174D02*
X13382087Y-10828650D01*
X13382087Y-10828650D02*
X13410658Y-10828650D01*
X13410658Y-10828650D02*
X13429706Y-10838174D01*
X13429706Y-10838174D02*
X13439230Y-10847698D01*
X13439230Y-10847698D02*
X13448753Y-10866746D01*
X13448753Y-10866746D02*
X13448753Y-10923889D01*
X13448753Y-10923889D02*
X13439230Y-10942936D01*
X13439230Y-10942936D02*
X13429706Y-10952460D01*
X13429706Y-10952460D02*
X13410658Y-10961984D01*
X13410658Y-10961984D02*
X13382087Y-10961984D01*
X13563039Y-10961984D02*
X13543991Y-10952460D01*
X13543991Y-10952460D02*
X13534468Y-10933412D01*
X13534468Y-10933412D02*
X13534468Y-10761984D01*
X13715420Y-10952460D02*
X13696372Y-10961984D01*
X13696372Y-10961984D02*
X13658277Y-10961984D01*
X13658277Y-10961984D02*
X13639230Y-10952460D01*
X13639230Y-10952460D02*
X13629706Y-10933412D01*
X13629706Y-10933412D02*
X13629706Y-10857222D01*
X13629706Y-10857222D02*
X13639230Y-10838174D01*
X13639230Y-10838174D02*
X13658277Y-10828650D01*
X13658277Y-10828650D02*
X13696372Y-10828650D01*
X13696372Y-10828650D02*
X13715420Y-10838174D01*
X13715420Y-10838174D02*
X13724944Y-10857222D01*
X13724944Y-10857222D02*
X13724944Y-10876270D01*
X13724944Y-10876270D02*
X13629706Y-10895317D01*
X13801134Y-10952460D02*
X13820182Y-10961984D01*
X13820182Y-10961984D02*
X13858277Y-10961984D01*
X13858277Y-10961984D02*
X13877325Y-10952460D01*
X13877325Y-10952460D02*
X13886849Y-10933412D01*
X13886849Y-10933412D02*
X13886849Y-10923889D01*
X13886849Y-10923889D02*
X13877325Y-10904841D01*
X13877325Y-10904841D02*
X13858277Y-10895317D01*
X13858277Y-10895317D02*
X13829706Y-10895317D01*
X13829706Y-10895317D02*
X13810658Y-10885793D01*
X13810658Y-10885793D02*
X13801134Y-10866746D01*
X13801134Y-10866746D02*
X13801134Y-10857222D01*
X13801134Y-10857222D02*
X13810658Y-10838174D01*
X13810658Y-10838174D02*
X13829706Y-10828650D01*
X13829706Y-10828650D02*
X13858277Y-10828650D01*
X13858277Y-10828650D02*
X13877325Y-10838174D01*
X13953515Y-11038174D02*
X13963039Y-11028650D01*
X13963039Y-11028650D02*
X13982087Y-11000079D01*
X13982087Y-11000079D02*
X13991611Y-10981031D01*
X13991611Y-10981031D02*
X14001134Y-10952460D01*
X14001134Y-10952460D02*
X14010658Y-10904841D01*
X14010658Y-10904841D02*
X14010658Y-10866746D01*
X14010658Y-10866746D02*
X14001134Y-10819127D01*
X14001134Y-10819127D02*
X13991611Y-10790555D01*
X13991611Y-10790555D02*
X13982087Y-10771508D01*
X13982087Y-10771508D02*
X13963039Y-10742936D01*
X13963039Y-10742936D02*
X13953515Y-10733412D01*
D12*
X8782856Y-11169856D02*
X8782856Y-11099144D01*
X8712144Y-11099144D01*
X8712144Y-11169856D01*
X8782856Y-11169856D01*
D11*
X9163039Y-11225984D02*
X9048753Y-11225984D01*
X9105896Y-11225984D02*
X9105896Y-11025984D01*
X9105896Y-11025984D02*
X9086848Y-11054555D01*
X9086848Y-11054555D02*
X9067801Y-11073603D01*
X9067801Y-11073603D02*
X9048753Y-11083127D01*
X9248753Y-11206936D02*
X9258277Y-11216460D01*
X9258277Y-11216460D02*
X9248753Y-11225984D01*
X9248753Y-11225984D02*
X9239229Y-11216460D01*
X9239229Y-11216460D02*
X9248753Y-11206936D01*
X9248753Y-11206936D02*
X9248753Y-11225984D01*
X9382086Y-11025984D02*
X9401134Y-11025984D01*
X9401134Y-11025984D02*
X9420182Y-11035508D01*
X9420182Y-11035508D02*
X9429705Y-11045031D01*
X9429705Y-11045031D02*
X9439229Y-11064079D01*
X9439229Y-11064079D02*
X9448753Y-11102174D01*
X9448753Y-11102174D02*
X9448753Y-11149793D01*
X9448753Y-11149793D02*
X9439229Y-11187888D01*
X9439229Y-11187888D02*
X9429705Y-11206936D01*
X9429705Y-11206936D02*
X9420182Y-11216460D01*
X9420182Y-11216460D02*
X9401134Y-11225984D01*
X9401134Y-11225984D02*
X9382086Y-11225984D01*
X9382086Y-11225984D02*
X9363039Y-11216460D01*
X9363039Y-11216460D02*
X9353515Y-11206936D01*
X9353515Y-11206936D02*
X9343991Y-11187888D01*
X9343991Y-11187888D02*
X9334467Y-11149793D01*
X9334467Y-11149793D02*
X9334467Y-11102174D01*
X9334467Y-11102174D02*
X9343991Y-11064079D01*
X9343991Y-11064079D02*
X9353515Y-11045031D01*
X9353515Y-11045031D02*
X9363039Y-11035508D01*
X9363039Y-11035508D02*
X9382086Y-11025984D01*
X9572563Y-11025984D02*
X9591610Y-11025984D01*
X9591610Y-11025984D02*
X9610658Y-11035508D01*
X9610658Y-11035508D02*
X9620182Y-11045031D01*
X9620182Y-11045031D02*
X9629705Y-11064079D01*
X9629705Y-11064079D02*
X9639229Y-11102174D01*
X9639229Y-11102174D02*
X9639229Y-11149793D01*
X9639229Y-11149793D02*
X9629705Y-11187888D01*
X9629705Y-11187888D02*
X9620182Y-11206936D01*
X9620182Y-11206936D02*
X9610658Y-11216460D01*
X9610658Y-11216460D02*
X9591610Y-11225984D01*
X9591610Y-11225984D02*
X9572563Y-11225984D01*
X9572563Y-11225984D02*
X9553515Y-11216460D01*
X9553515Y-11216460D02*
X9543991Y-11206936D01*
X9543991Y-11206936D02*
X9534467Y-11187888D01*
X9534467Y-11187888D02*
X9524944Y-11149793D01*
X9524944Y-11149793D02*
X9524944Y-11102174D01*
X9524944Y-11102174D02*
X9534467Y-11064079D01*
X9534467Y-11064079D02*
X9543991Y-11045031D01*
X9543991Y-11045031D02*
X9553515Y-11035508D01*
X9553515Y-11035508D02*
X9572563Y-11025984D01*
X9763039Y-11025984D02*
X9782086Y-11025984D01*
X9782086Y-11025984D02*
X9801134Y-11035508D01*
X9801134Y-11035508D02*
X9810658Y-11045031D01*
X9810658Y-11045031D02*
X9820182Y-11064079D01*
X9820182Y-11064079D02*
X9829705Y-11102174D01*
X9829705Y-11102174D02*
X9829705Y-11149793D01*
X9829705Y-11149793D02*
X9820182Y-11187888D01*
X9820182Y-11187888D02*
X9810658Y-11206936D01*
X9810658Y-11206936D02*
X9801134Y-11216460D01*
X9801134Y-11216460D02*
X9782086Y-11225984D01*
X9782086Y-11225984D02*
X9763039Y-11225984D01*
X9763039Y-11225984D02*
X9743991Y-11216460D01*
X9743991Y-11216460D02*
X9734467Y-11206936D01*
X9734467Y-11206936D02*
X9724944Y-11187888D01*
X9724944Y-11187888D02*
X9715420Y-11149793D01*
X9715420Y-11149793D02*
X9715420Y-11102174D01*
X9715420Y-11102174D02*
X9724944Y-11064079D01*
X9724944Y-11064079D02*
X9734467Y-11045031D01*
X9734467Y-11045031D02*
X9743991Y-11035508D01*
X9743991Y-11035508D02*
X9763039Y-11025984D01*
X9915420Y-11225984D02*
X9915420Y-11092650D01*
X9915420Y-11111698D02*
X9924944Y-11102174D01*
X9924944Y-11102174D02*
X9943991Y-11092650D01*
X9943991Y-11092650D02*
X9972563Y-11092650D01*
X9972563Y-11092650D02*
X9991610Y-11102174D01*
X9991610Y-11102174D02*
X10001134Y-11121222D01*
X10001134Y-11121222D02*
X10001134Y-11225984D01*
X10001134Y-11121222D02*
X10010658Y-11102174D01*
X10010658Y-11102174D02*
X10029705Y-11092650D01*
X10029705Y-11092650D02*
X10058277Y-11092650D01*
X10058277Y-11092650D02*
X10077325Y-11102174D01*
X10077325Y-11102174D02*
X10086848Y-11121222D01*
X10086848Y-11121222D02*
X10086848Y-11225984D01*
X10182086Y-11225984D02*
X10182086Y-11092650D01*
X10182086Y-11111698D02*
X10191610Y-11102174D01*
X10191610Y-11102174D02*
X10210658Y-11092650D01*
X10210658Y-11092650D02*
X10239229Y-11092650D01*
X10239229Y-11092650D02*
X10258277Y-11102174D01*
X10258277Y-11102174D02*
X10267801Y-11121222D01*
X10267801Y-11121222D02*
X10267801Y-11225984D01*
X10267801Y-11121222D02*
X10277325Y-11102174D01*
X10277325Y-11102174D02*
X10296372Y-11092650D01*
X10296372Y-11092650D02*
X10324944Y-11092650D01*
X10324944Y-11092650D02*
X10343991Y-11102174D01*
X10343991Y-11102174D02*
X10353515Y-11121222D01*
X10353515Y-11121222D02*
X10353515Y-11225984D01*
X10743991Y-11016460D02*
X10572563Y-11273603D01*
X11001134Y-11025984D02*
X11020182Y-11025984D01*
X11020182Y-11025984D02*
X11039229Y-11035508D01*
X11039229Y-11035508D02*
X11048753Y-11045031D01*
X11048753Y-11045031D02*
X11058277Y-11064079D01*
X11058277Y-11064079D02*
X11067801Y-11102174D01*
X11067801Y-11102174D02*
X11067801Y-11149793D01*
X11067801Y-11149793D02*
X11058277Y-11187888D01*
X11058277Y-11187888D02*
X11048753Y-11206936D01*
X11048753Y-11206936D02*
X11039229Y-11216460D01*
X11039229Y-11216460D02*
X11020182Y-11225984D01*
X11020182Y-11225984D02*
X11001134Y-11225984D01*
X11001134Y-11225984D02*
X10982087Y-11216460D01*
X10982087Y-11216460D02*
X10972563Y-11206936D01*
X10972563Y-11206936D02*
X10963039Y-11187888D01*
X10963039Y-11187888D02*
X10953515Y-11149793D01*
X10953515Y-11149793D02*
X10953515Y-11102174D01*
X10953515Y-11102174D02*
X10963039Y-11064079D01*
X10963039Y-11064079D02*
X10972563Y-11045031D01*
X10972563Y-11045031D02*
X10982087Y-11035508D01*
X10982087Y-11035508D02*
X11001134Y-11025984D01*
X11153515Y-11206936D02*
X11163039Y-11216460D01*
X11163039Y-11216460D02*
X11153515Y-11225984D01*
X11153515Y-11225984D02*
X11143991Y-11216460D01*
X11143991Y-11216460D02*
X11153515Y-11206936D01*
X11153515Y-11206936D02*
X11153515Y-11225984D01*
X11286848Y-11025984D02*
X11305896Y-11025984D01*
X11305896Y-11025984D02*
X11324944Y-11035508D01*
X11324944Y-11035508D02*
X11334467Y-11045031D01*
X11334467Y-11045031D02*
X11343991Y-11064079D01*
X11343991Y-11064079D02*
X11353515Y-11102174D01*
X11353515Y-11102174D02*
X11353515Y-11149793D01*
X11353515Y-11149793D02*
X11343991Y-11187888D01*
X11343991Y-11187888D02*
X11334467Y-11206936D01*
X11334467Y-11206936D02*
X11324944Y-11216460D01*
X11324944Y-11216460D02*
X11305896Y-11225984D01*
X11305896Y-11225984D02*
X11286848Y-11225984D01*
X11286848Y-11225984D02*
X11267801Y-11216460D01*
X11267801Y-11216460D02*
X11258277Y-11206936D01*
X11258277Y-11206936D02*
X11248753Y-11187888D01*
X11248753Y-11187888D02*
X11239229Y-11149793D01*
X11239229Y-11149793D02*
X11239229Y-11102174D01*
X11239229Y-11102174D02*
X11248753Y-11064079D01*
X11248753Y-11064079D02*
X11258277Y-11045031D01*
X11258277Y-11045031D02*
X11267801Y-11035508D01*
X11267801Y-11035508D02*
X11286848Y-11025984D01*
X11420182Y-11025984D02*
X11543991Y-11025984D01*
X11543991Y-11025984D02*
X11477325Y-11102174D01*
X11477325Y-11102174D02*
X11505896Y-11102174D01*
X11505896Y-11102174D02*
X11524944Y-11111698D01*
X11524944Y-11111698D02*
X11534467Y-11121222D01*
X11534467Y-11121222D02*
X11543991Y-11140270D01*
X11543991Y-11140270D02*
X11543991Y-11187888D01*
X11543991Y-11187888D02*
X11534467Y-11206936D01*
X11534467Y-11206936D02*
X11524944Y-11216460D01*
X11524944Y-11216460D02*
X11505896Y-11225984D01*
X11505896Y-11225984D02*
X11448753Y-11225984D01*
X11448753Y-11225984D02*
X11429706Y-11216460D01*
X11429706Y-11216460D02*
X11420182Y-11206936D01*
X11639229Y-11225984D02*
X11677325Y-11225984D01*
X11677325Y-11225984D02*
X11696372Y-11216460D01*
X11696372Y-11216460D02*
X11705896Y-11206936D01*
X11705896Y-11206936D02*
X11724944Y-11178365D01*
X11724944Y-11178365D02*
X11734467Y-11140270D01*
X11734467Y-11140270D02*
X11734467Y-11064079D01*
X11734467Y-11064079D02*
X11724944Y-11045031D01*
X11724944Y-11045031D02*
X11715420Y-11035508D01*
X11715420Y-11035508D02*
X11696372Y-11025984D01*
X11696372Y-11025984D02*
X11658277Y-11025984D01*
X11658277Y-11025984D02*
X11639229Y-11035508D01*
X11639229Y-11035508D02*
X11629706Y-11045031D01*
X11629706Y-11045031D02*
X11620182Y-11064079D01*
X11620182Y-11064079D02*
X11620182Y-11111698D01*
X11620182Y-11111698D02*
X11629706Y-11130746D01*
X11629706Y-11130746D02*
X11639229Y-11140270D01*
X11639229Y-11140270D02*
X11658277Y-11149793D01*
X11658277Y-11149793D02*
X11696372Y-11149793D01*
X11696372Y-11149793D02*
X11715420Y-11140270D01*
X11715420Y-11140270D02*
X11724944Y-11130746D01*
X11724944Y-11130746D02*
X11734467Y-11111698D01*
X11905896Y-11092650D02*
X11905896Y-11225984D01*
X11858277Y-11016460D02*
X11810658Y-11159317D01*
X11810658Y-11159317D02*
X11934467Y-11159317D01*
X12001134Y-11025984D02*
X12001134Y-11064079D01*
X12077325Y-11025984D02*
X12077325Y-11064079D01*
X12372563Y-11302174D02*
X12363039Y-11292650D01*
X12363039Y-11292650D02*
X12343991Y-11264079D01*
X12343991Y-11264079D02*
X12334468Y-11245031D01*
X12334468Y-11245031D02*
X12324944Y-11216460D01*
X12324944Y-11216460D02*
X12315420Y-11168841D01*
X12315420Y-11168841D02*
X12315420Y-11130746D01*
X12315420Y-11130746D02*
X12324944Y-11083127D01*
X12324944Y-11083127D02*
X12334468Y-11054555D01*
X12334468Y-11054555D02*
X12343991Y-11035508D01*
X12343991Y-11035508D02*
X12363039Y-11006936D01*
X12363039Y-11006936D02*
X12372563Y-10997412D01*
X12553515Y-11225984D02*
X12439229Y-11225984D01*
X12496372Y-11225984D02*
X12496372Y-11025984D01*
X12496372Y-11025984D02*
X12477325Y-11054555D01*
X12477325Y-11054555D02*
X12458277Y-11073603D01*
X12458277Y-11073603D02*
X12439229Y-11083127D01*
X12620182Y-11025984D02*
X12753515Y-11025984D01*
X12753515Y-11025984D02*
X12667801Y-11225984D01*
X12982087Y-11225984D02*
X12982087Y-11025984D01*
X13067801Y-11225984D02*
X13067801Y-11121222D01*
X13067801Y-11121222D02*
X13058277Y-11102174D01*
X13058277Y-11102174D02*
X13039230Y-11092650D01*
X13039230Y-11092650D02*
X13010658Y-11092650D01*
X13010658Y-11092650D02*
X12991610Y-11102174D01*
X12991610Y-11102174D02*
X12982087Y-11111698D01*
X13191610Y-11225984D02*
X13172563Y-11216460D01*
X13172563Y-11216460D02*
X13163039Y-11206936D01*
X13163039Y-11206936D02*
X13153515Y-11187888D01*
X13153515Y-11187888D02*
X13153515Y-11130746D01*
X13153515Y-11130746D02*
X13163039Y-11111698D01*
X13163039Y-11111698D02*
X13172563Y-11102174D01*
X13172563Y-11102174D02*
X13191610Y-11092650D01*
X13191610Y-11092650D02*
X13220182Y-11092650D01*
X13220182Y-11092650D02*
X13239230Y-11102174D01*
X13239230Y-11102174D02*
X13248753Y-11111698D01*
X13248753Y-11111698D02*
X13258277Y-11130746D01*
X13258277Y-11130746D02*
X13258277Y-11187888D01*
X13258277Y-11187888D02*
X13248753Y-11206936D01*
X13248753Y-11206936D02*
X13239230Y-11216460D01*
X13239230Y-11216460D02*
X13220182Y-11225984D01*
X13220182Y-11225984D02*
X13191610Y-11225984D01*
X13372563Y-11225984D02*
X13353515Y-11216460D01*
X13353515Y-11216460D02*
X13343991Y-11197412D01*
X13343991Y-11197412D02*
X13343991Y-11025984D01*
X13524944Y-11216460D02*
X13505896Y-11225984D01*
X13505896Y-11225984D02*
X13467801Y-11225984D01*
X13467801Y-11225984D02*
X13448753Y-11216460D01*
X13448753Y-11216460D02*
X13439230Y-11197412D01*
X13439230Y-11197412D02*
X13439230Y-11121222D01*
X13439230Y-11121222D02*
X13448753Y-11102174D01*
X13448753Y-11102174D02*
X13467801Y-11092650D01*
X13467801Y-11092650D02*
X13505896Y-11092650D01*
X13505896Y-11092650D02*
X13524944Y-11102174D01*
X13524944Y-11102174D02*
X13534468Y-11121222D01*
X13534468Y-11121222D02*
X13534468Y-11140270D01*
X13534468Y-11140270D02*
X13439230Y-11159317D01*
X13610658Y-11216460D02*
X13629706Y-11225984D01*
X13629706Y-11225984D02*
X13667801Y-11225984D01*
X13667801Y-11225984D02*
X13686849Y-11216460D01*
X13686849Y-11216460D02*
X13696372Y-11197412D01*
X13696372Y-11197412D02*
X13696372Y-11187888D01*
X13696372Y-11187888D02*
X13686849Y-11168841D01*
X13686849Y-11168841D02*
X13667801Y-11159317D01*
X13667801Y-11159317D02*
X13639230Y-11159317D01*
X13639230Y-11159317D02*
X13620182Y-11149793D01*
X13620182Y-11149793D02*
X13610658Y-11130746D01*
X13610658Y-11130746D02*
X13610658Y-11121222D01*
X13610658Y-11121222D02*
X13620182Y-11102174D01*
X13620182Y-11102174D02*
X13639230Y-11092650D01*
X13639230Y-11092650D02*
X13667801Y-11092650D01*
X13667801Y-11092650D02*
X13686849Y-11102174D01*
X13763039Y-11302174D02*
X13772563Y-11292650D01*
X13772563Y-11292650D02*
X13791611Y-11264079D01*
X13791611Y-11264079D02*
X13801134Y-11245031D01*
X13801134Y-11245031D02*
X13810658Y-11216460D01*
X13810658Y-11216460D02*
X13820182Y-11168841D01*
X13820182Y-11168841D02*
X13820182Y-11130746D01*
X13820182Y-11130746D02*
X13810658Y-11083127D01*
X13810658Y-11083127D02*
X13801134Y-11054555D01*
X13801134Y-11054555D02*
X13791611Y-11035508D01*
X13791611Y-11035508D02*
X13772563Y-11006936D01*
X13772563Y-11006936D02*
X13763039Y-10997412D01*
D13*
X8743000Y-11453000D02*
X8797500Y-11398500D01*
X8743000Y-11344000D01*
X8688500Y-11398500D01*
X8743000Y-11453000D01*
D11*
X9163039Y-11489984D02*
X9048753Y-11489984D01*
X9105896Y-11489984D02*
X9105896Y-11289984D01*
X9105896Y-11289984D02*
X9086848Y-11318555D01*
X9086848Y-11318555D02*
X9067801Y-11337603D01*
X9067801Y-11337603D02*
X9048753Y-11347127D01*
X9248753Y-11470936D02*
X9258277Y-11480460D01*
X9258277Y-11480460D02*
X9248753Y-11489984D01*
X9248753Y-11489984D02*
X9239229Y-11480460D01*
X9239229Y-11480460D02*
X9248753Y-11470936D01*
X9248753Y-11470936D02*
X9248753Y-11489984D01*
X9382086Y-11289984D02*
X9401134Y-11289984D01*
X9401134Y-11289984D02*
X9420182Y-11299508D01*
X9420182Y-11299508D02*
X9429705Y-11309031D01*
X9429705Y-11309031D02*
X9439229Y-11328079D01*
X9439229Y-11328079D02*
X9448753Y-11366174D01*
X9448753Y-11366174D02*
X9448753Y-11413793D01*
X9448753Y-11413793D02*
X9439229Y-11451888D01*
X9439229Y-11451888D02*
X9429705Y-11470936D01*
X9429705Y-11470936D02*
X9420182Y-11480460D01*
X9420182Y-11480460D02*
X9401134Y-11489984D01*
X9401134Y-11489984D02*
X9382086Y-11489984D01*
X9382086Y-11489984D02*
X9363039Y-11480460D01*
X9363039Y-11480460D02*
X9353515Y-11470936D01*
X9353515Y-11470936D02*
X9343991Y-11451888D01*
X9343991Y-11451888D02*
X9334467Y-11413793D01*
X9334467Y-11413793D02*
X9334467Y-11366174D01*
X9334467Y-11366174D02*
X9343991Y-11328079D01*
X9343991Y-11328079D02*
X9353515Y-11309031D01*
X9353515Y-11309031D02*
X9363039Y-11299508D01*
X9363039Y-11299508D02*
X9382086Y-11289984D01*
X9543991Y-11489984D02*
X9582086Y-11489984D01*
X9582086Y-11489984D02*
X9601134Y-11480460D01*
X9601134Y-11480460D02*
X9610658Y-11470936D01*
X9610658Y-11470936D02*
X9629705Y-11442365D01*
X9629705Y-11442365D02*
X9639229Y-11404269D01*
X9639229Y-11404269D02*
X9639229Y-11328079D01*
X9639229Y-11328079D02*
X9629705Y-11309031D01*
X9629705Y-11309031D02*
X9620182Y-11299508D01*
X9620182Y-11299508D02*
X9601134Y-11289984D01*
X9601134Y-11289984D02*
X9563039Y-11289984D01*
X9563039Y-11289984D02*
X9543991Y-11299508D01*
X9543991Y-11299508D02*
X9534467Y-11309031D01*
X9534467Y-11309031D02*
X9524944Y-11328079D01*
X9524944Y-11328079D02*
X9524944Y-11375698D01*
X9524944Y-11375698D02*
X9534467Y-11394746D01*
X9534467Y-11394746D02*
X9543991Y-11404269D01*
X9543991Y-11404269D02*
X9563039Y-11413793D01*
X9563039Y-11413793D02*
X9601134Y-11413793D01*
X9601134Y-11413793D02*
X9620182Y-11404269D01*
X9620182Y-11404269D02*
X9629705Y-11394746D01*
X9629705Y-11394746D02*
X9639229Y-11375698D01*
X9763039Y-11289984D02*
X9782086Y-11289984D01*
X9782086Y-11289984D02*
X9801134Y-11299508D01*
X9801134Y-11299508D02*
X9810658Y-11309031D01*
X9810658Y-11309031D02*
X9820182Y-11328079D01*
X9820182Y-11328079D02*
X9829705Y-11366174D01*
X9829705Y-11366174D02*
X9829705Y-11413793D01*
X9829705Y-11413793D02*
X9820182Y-11451888D01*
X9820182Y-11451888D02*
X9810658Y-11470936D01*
X9810658Y-11470936D02*
X9801134Y-11480460D01*
X9801134Y-11480460D02*
X9782086Y-11489984D01*
X9782086Y-11489984D02*
X9763039Y-11489984D01*
X9763039Y-11489984D02*
X9743991Y-11480460D01*
X9743991Y-11480460D02*
X9734467Y-11470936D01*
X9734467Y-11470936D02*
X9724944Y-11451888D01*
X9724944Y-11451888D02*
X9715420Y-11413793D01*
X9715420Y-11413793D02*
X9715420Y-11366174D01*
X9715420Y-11366174D02*
X9724944Y-11328079D01*
X9724944Y-11328079D02*
X9734467Y-11309031D01*
X9734467Y-11309031D02*
X9743991Y-11299508D01*
X9743991Y-11299508D02*
X9763039Y-11289984D01*
X9915420Y-11489984D02*
X9915420Y-11356650D01*
X9915420Y-11375698D02*
X9924944Y-11366174D01*
X9924944Y-11366174D02*
X9943991Y-11356650D01*
X9943991Y-11356650D02*
X9972563Y-11356650D01*
X9972563Y-11356650D02*
X9991610Y-11366174D01*
X9991610Y-11366174D02*
X10001134Y-11385222D01*
X10001134Y-11385222D02*
X10001134Y-11489984D01*
X10001134Y-11385222D02*
X10010658Y-11366174D01*
X10010658Y-11366174D02*
X10029705Y-11356650D01*
X10029705Y-11356650D02*
X10058277Y-11356650D01*
X10058277Y-11356650D02*
X10077325Y-11366174D01*
X10077325Y-11366174D02*
X10086848Y-11385222D01*
X10086848Y-11385222D02*
X10086848Y-11489984D01*
X10182086Y-11489984D02*
X10182086Y-11356650D01*
X10182086Y-11375698D02*
X10191610Y-11366174D01*
X10191610Y-11366174D02*
X10210658Y-11356650D01*
X10210658Y-11356650D02*
X10239229Y-11356650D01*
X10239229Y-11356650D02*
X10258277Y-11366174D01*
X10258277Y-11366174D02*
X10267801Y-11385222D01*
X10267801Y-11385222D02*
X10267801Y-11489984D01*
X10267801Y-11385222D02*
X10277325Y-11366174D01*
X10277325Y-11366174D02*
X10296372Y-11356650D01*
X10296372Y-11356650D02*
X10324944Y-11356650D01*
X10324944Y-11356650D02*
X10343991Y-11366174D01*
X10343991Y-11366174D02*
X10353515Y-11385222D01*
X10353515Y-11385222D02*
X10353515Y-11489984D01*
X10743991Y-11280460D02*
X10572563Y-11537603D01*
X11001134Y-11289984D02*
X11020182Y-11289984D01*
X11020182Y-11289984D02*
X11039229Y-11299508D01*
X11039229Y-11299508D02*
X11048753Y-11309031D01*
X11048753Y-11309031D02*
X11058277Y-11328079D01*
X11058277Y-11328079D02*
X11067801Y-11366174D01*
X11067801Y-11366174D02*
X11067801Y-11413793D01*
X11067801Y-11413793D02*
X11058277Y-11451888D01*
X11058277Y-11451888D02*
X11048753Y-11470936D01*
X11048753Y-11470936D02*
X11039229Y-11480460D01*
X11039229Y-11480460D02*
X11020182Y-11489984D01*
X11020182Y-11489984D02*
X11001134Y-11489984D01*
X11001134Y-11489984D02*
X10982087Y-11480460D01*
X10982087Y-11480460D02*
X10972563Y-11470936D01*
X10972563Y-11470936D02*
X10963039Y-11451888D01*
X10963039Y-11451888D02*
X10953515Y-11413793D01*
X10953515Y-11413793D02*
X10953515Y-11366174D01*
X10953515Y-11366174D02*
X10963039Y-11328079D01*
X10963039Y-11328079D02*
X10972563Y-11309031D01*
X10972563Y-11309031D02*
X10982087Y-11299508D01*
X10982087Y-11299508D02*
X11001134Y-11289984D01*
X11153515Y-11470936D02*
X11163039Y-11480460D01*
X11163039Y-11480460D02*
X11153515Y-11489984D01*
X11153515Y-11489984D02*
X11143991Y-11480460D01*
X11143991Y-11480460D02*
X11153515Y-11470936D01*
X11153515Y-11470936D02*
X11153515Y-11489984D01*
X11286848Y-11289984D02*
X11305896Y-11289984D01*
X11305896Y-11289984D02*
X11324944Y-11299508D01*
X11324944Y-11299508D02*
X11334467Y-11309031D01*
X11334467Y-11309031D02*
X11343991Y-11328079D01*
X11343991Y-11328079D02*
X11353515Y-11366174D01*
X11353515Y-11366174D02*
X11353515Y-11413793D01*
X11353515Y-11413793D02*
X11343991Y-11451888D01*
X11343991Y-11451888D02*
X11334467Y-11470936D01*
X11334467Y-11470936D02*
X11324944Y-11480460D01*
X11324944Y-11480460D02*
X11305896Y-11489984D01*
X11305896Y-11489984D02*
X11286848Y-11489984D01*
X11286848Y-11489984D02*
X11267801Y-11480460D01*
X11267801Y-11480460D02*
X11258277Y-11470936D01*
X11258277Y-11470936D02*
X11248753Y-11451888D01*
X11248753Y-11451888D02*
X11239229Y-11413793D01*
X11239229Y-11413793D02*
X11239229Y-11366174D01*
X11239229Y-11366174D02*
X11248753Y-11328079D01*
X11248753Y-11328079D02*
X11258277Y-11309031D01*
X11258277Y-11309031D02*
X11267801Y-11299508D01*
X11267801Y-11299508D02*
X11286848Y-11289984D01*
X11524944Y-11356650D02*
X11524944Y-11489984D01*
X11477325Y-11280460D02*
X11429706Y-11423317D01*
X11429706Y-11423317D02*
X11553515Y-11423317D01*
X11620182Y-11309031D02*
X11629706Y-11299508D01*
X11629706Y-11299508D02*
X11648753Y-11289984D01*
X11648753Y-11289984D02*
X11696372Y-11289984D01*
X11696372Y-11289984D02*
X11715420Y-11299508D01*
X11715420Y-11299508D02*
X11724944Y-11309031D01*
X11724944Y-11309031D02*
X11734467Y-11328079D01*
X11734467Y-11328079D02*
X11734467Y-11347127D01*
X11734467Y-11347127D02*
X11724944Y-11375698D01*
X11724944Y-11375698D02*
X11610658Y-11489984D01*
X11610658Y-11489984D02*
X11734467Y-11489984D01*
X11829706Y-11489984D02*
X11867801Y-11489984D01*
X11867801Y-11489984D02*
X11886848Y-11480460D01*
X11886848Y-11480460D02*
X11896372Y-11470936D01*
X11896372Y-11470936D02*
X11915420Y-11442365D01*
X11915420Y-11442365D02*
X11924944Y-11404269D01*
X11924944Y-11404269D02*
X11924944Y-11328079D01*
X11924944Y-11328079D02*
X11915420Y-11309031D01*
X11915420Y-11309031D02*
X11905896Y-11299508D01*
X11905896Y-11299508D02*
X11886848Y-11289984D01*
X11886848Y-11289984D02*
X11848753Y-11289984D01*
X11848753Y-11289984D02*
X11829706Y-11299508D01*
X11829706Y-11299508D02*
X11820182Y-11309031D01*
X11820182Y-11309031D02*
X11810658Y-11328079D01*
X11810658Y-11328079D02*
X11810658Y-11375698D01*
X11810658Y-11375698D02*
X11820182Y-11394746D01*
X11820182Y-11394746D02*
X11829706Y-11404269D01*
X11829706Y-11404269D02*
X11848753Y-11413793D01*
X11848753Y-11413793D02*
X11886848Y-11413793D01*
X11886848Y-11413793D02*
X11905896Y-11404269D01*
X11905896Y-11404269D02*
X11915420Y-11394746D01*
X11915420Y-11394746D02*
X11924944Y-11375698D01*
X12001134Y-11289984D02*
X12001134Y-11328079D01*
X12077325Y-11289984D02*
X12077325Y-11328079D01*
X12372563Y-11566174D02*
X12363039Y-11556650D01*
X12363039Y-11556650D02*
X12343991Y-11528079D01*
X12343991Y-11528079D02*
X12334468Y-11509031D01*
X12334468Y-11509031D02*
X12324944Y-11480460D01*
X12324944Y-11480460D02*
X12315420Y-11432841D01*
X12315420Y-11432841D02*
X12315420Y-11394746D01*
X12315420Y-11394746D02*
X12324944Y-11347127D01*
X12324944Y-11347127D02*
X12334468Y-11318555D01*
X12334468Y-11318555D02*
X12343991Y-11299508D01*
X12343991Y-11299508D02*
X12363039Y-11270936D01*
X12363039Y-11270936D02*
X12372563Y-11261412D01*
X12543991Y-11289984D02*
X12448753Y-11289984D01*
X12448753Y-11289984D02*
X12439229Y-11385222D01*
X12439229Y-11385222D02*
X12448753Y-11375698D01*
X12448753Y-11375698D02*
X12467801Y-11366174D01*
X12467801Y-11366174D02*
X12515420Y-11366174D01*
X12515420Y-11366174D02*
X12534468Y-11375698D01*
X12534468Y-11375698D02*
X12543991Y-11385222D01*
X12543991Y-11385222D02*
X12553515Y-11404269D01*
X12553515Y-11404269D02*
X12553515Y-11451888D01*
X12553515Y-11451888D02*
X12543991Y-11470936D01*
X12543991Y-11470936D02*
X12534468Y-11480460D01*
X12534468Y-11480460D02*
X12515420Y-11489984D01*
X12515420Y-11489984D02*
X12467801Y-11489984D01*
X12467801Y-11489984D02*
X12448753Y-11480460D01*
X12448753Y-11480460D02*
X12439229Y-11470936D01*
X12791610Y-11489984D02*
X12791610Y-11289984D01*
X12877325Y-11489984D02*
X12877325Y-11385222D01*
X12877325Y-11385222D02*
X12867801Y-11366174D01*
X12867801Y-11366174D02*
X12848753Y-11356650D01*
X12848753Y-11356650D02*
X12820182Y-11356650D01*
X12820182Y-11356650D02*
X12801134Y-11366174D01*
X12801134Y-11366174D02*
X12791610Y-11375698D01*
X13001134Y-11489984D02*
X12982087Y-11480460D01*
X12982087Y-11480460D02*
X12972563Y-11470936D01*
X12972563Y-11470936D02*
X12963039Y-11451888D01*
X12963039Y-11451888D02*
X12963039Y-11394746D01*
X12963039Y-11394746D02*
X12972563Y-11375698D01*
X12972563Y-11375698D02*
X12982087Y-11366174D01*
X12982087Y-11366174D02*
X13001134Y-11356650D01*
X13001134Y-11356650D02*
X13029706Y-11356650D01*
X13029706Y-11356650D02*
X13048753Y-11366174D01*
X13048753Y-11366174D02*
X13058277Y-11375698D01*
X13058277Y-11375698D02*
X13067801Y-11394746D01*
X13067801Y-11394746D02*
X13067801Y-11451888D01*
X13067801Y-11451888D02*
X13058277Y-11470936D01*
X13058277Y-11470936D02*
X13048753Y-11480460D01*
X13048753Y-11480460D02*
X13029706Y-11489984D01*
X13029706Y-11489984D02*
X13001134Y-11489984D01*
X13182087Y-11489984D02*
X13163039Y-11480460D01*
X13163039Y-11480460D02*
X13153515Y-11461412D01*
X13153515Y-11461412D02*
X13153515Y-11289984D01*
X13334468Y-11480460D02*
X13315420Y-11489984D01*
X13315420Y-11489984D02*
X13277325Y-11489984D01*
X13277325Y-11489984D02*
X13258277Y-11480460D01*
X13258277Y-11480460D02*
X13248753Y-11461412D01*
X13248753Y-11461412D02*
X13248753Y-11385222D01*
X13248753Y-11385222D02*
X13258277Y-11366174D01*
X13258277Y-11366174D02*
X13277325Y-11356650D01*
X13277325Y-11356650D02*
X13315420Y-11356650D01*
X13315420Y-11356650D02*
X13334468Y-11366174D01*
X13334468Y-11366174D02*
X13343991Y-11385222D01*
X13343991Y-11385222D02*
X13343991Y-11404269D01*
X13343991Y-11404269D02*
X13248753Y-11423317D01*
X13420182Y-11480460D02*
X13439230Y-11489984D01*
X13439230Y-11489984D02*
X13477325Y-11489984D01*
X13477325Y-11489984D02*
X13496372Y-11480460D01*
X13496372Y-11480460D02*
X13505896Y-11461412D01*
X13505896Y-11461412D02*
X13505896Y-11451888D01*
X13505896Y-11451888D02*
X13496372Y-11432841D01*
X13496372Y-11432841D02*
X13477325Y-11423317D01*
X13477325Y-11423317D02*
X13448753Y-11423317D01*
X13448753Y-11423317D02*
X13429706Y-11413793D01*
X13429706Y-11413793D02*
X13420182Y-11394746D01*
X13420182Y-11394746D02*
X13420182Y-11385222D01*
X13420182Y-11385222D02*
X13429706Y-11366174D01*
X13429706Y-11366174D02*
X13448753Y-11356650D01*
X13448753Y-11356650D02*
X13477325Y-11356650D01*
X13477325Y-11356650D02*
X13496372Y-11366174D01*
X13572563Y-11566174D02*
X13582087Y-11556650D01*
X13582087Y-11556650D02*
X13601134Y-11528079D01*
X13601134Y-11528079D02*
X13610658Y-11509031D01*
X13610658Y-11509031D02*
X13620182Y-11480460D01*
X13620182Y-11480460D02*
X13629706Y-11432841D01*
X13629706Y-11432841D02*
X13629706Y-11394746D01*
X13629706Y-11394746D02*
X13620182Y-11347127D01*
X13620182Y-11347127D02*
X13610658Y-11318555D01*
X13610658Y-11318555D02*
X13601134Y-11299508D01*
X13601134Y-11299508D02*
X13582087Y-11270936D01*
X13582087Y-11270936D02*
X13572563Y-11261412D01*
D14*
X8637500Y-11582500D02*
X8797500Y-11742500D01*
X8797500Y-11582500D02*
X8637500Y-11742500D01*
X8797500Y-11662500D02*
G75*
G02*
X8637500Y-11662500I-80000J0D01*
G01*
X8637500Y-11662500D02*
G75*
G02*
X8797500Y-11662500I80000J0D01*
G01*
D11*
X9163039Y-11753984D02*
X9048753Y-11753984D01*
X9105896Y-11753984D02*
X9105896Y-11553984D01*
X9105896Y-11553984D02*
X9086848Y-11582555D01*
X9086848Y-11582555D02*
X9067801Y-11601603D01*
X9067801Y-11601603D02*
X9048753Y-11611127D01*
X9248753Y-11734936D02*
X9258277Y-11744460D01*
X9258277Y-11744460D02*
X9248753Y-11753984D01*
X9248753Y-11753984D02*
X9239229Y-11744460D01*
X9239229Y-11744460D02*
X9248753Y-11734936D01*
X9248753Y-11734936D02*
X9248753Y-11753984D01*
X9429705Y-11553984D02*
X9391610Y-11553984D01*
X9391610Y-11553984D02*
X9372563Y-11563508D01*
X9372563Y-11563508D02*
X9363039Y-11573031D01*
X9363039Y-11573031D02*
X9343991Y-11601603D01*
X9343991Y-11601603D02*
X9334467Y-11639698D01*
X9334467Y-11639698D02*
X9334467Y-11715888D01*
X9334467Y-11715888D02*
X9343991Y-11734936D01*
X9343991Y-11734936D02*
X9353515Y-11744460D01*
X9353515Y-11744460D02*
X9372563Y-11753984D01*
X9372563Y-11753984D02*
X9410658Y-11753984D01*
X9410658Y-11753984D02*
X9429705Y-11744460D01*
X9429705Y-11744460D02*
X9439229Y-11734936D01*
X9439229Y-11734936D02*
X9448753Y-11715888D01*
X9448753Y-11715888D02*
X9448753Y-11668269D01*
X9448753Y-11668269D02*
X9439229Y-11649222D01*
X9439229Y-11649222D02*
X9429705Y-11639698D01*
X9429705Y-11639698D02*
X9410658Y-11630174D01*
X9410658Y-11630174D02*
X9372563Y-11630174D01*
X9372563Y-11630174D02*
X9353515Y-11639698D01*
X9353515Y-11639698D02*
X9343991Y-11649222D01*
X9343991Y-11649222D02*
X9334467Y-11668269D01*
X9572563Y-11553984D02*
X9591610Y-11553984D01*
X9591610Y-11553984D02*
X9610658Y-11563508D01*
X9610658Y-11563508D02*
X9620182Y-11573031D01*
X9620182Y-11573031D02*
X9629705Y-11592079D01*
X9629705Y-11592079D02*
X9639229Y-11630174D01*
X9639229Y-11630174D02*
X9639229Y-11677793D01*
X9639229Y-11677793D02*
X9629705Y-11715888D01*
X9629705Y-11715888D02*
X9620182Y-11734936D01*
X9620182Y-11734936D02*
X9610658Y-11744460D01*
X9610658Y-11744460D02*
X9591610Y-11753984D01*
X9591610Y-11753984D02*
X9572563Y-11753984D01*
X9572563Y-11753984D02*
X9553515Y-11744460D01*
X9553515Y-11744460D02*
X9543991Y-11734936D01*
X9543991Y-11734936D02*
X9534467Y-11715888D01*
X9534467Y-11715888D02*
X9524944Y-11677793D01*
X9524944Y-11677793D02*
X9524944Y-11630174D01*
X9524944Y-11630174D02*
X9534467Y-11592079D01*
X9534467Y-11592079D02*
X9543991Y-11573031D01*
X9543991Y-11573031D02*
X9553515Y-11563508D01*
X9553515Y-11563508D02*
X9572563Y-11553984D01*
X9763039Y-11553984D02*
X9782086Y-11553984D01*
X9782086Y-11553984D02*
X9801134Y-11563508D01*
X9801134Y-11563508D02*
X9810658Y-11573031D01*
X9810658Y-11573031D02*
X9820182Y-11592079D01*
X9820182Y-11592079D02*
X9829705Y-11630174D01*
X9829705Y-11630174D02*
X9829705Y-11677793D01*
X9829705Y-11677793D02*
X9820182Y-11715888D01*
X9820182Y-11715888D02*
X9810658Y-11734936D01*
X9810658Y-11734936D02*
X9801134Y-11744460D01*
X9801134Y-11744460D02*
X9782086Y-11753984D01*
X9782086Y-11753984D02*
X9763039Y-11753984D01*
X9763039Y-11753984D02*
X9743991Y-11744460D01*
X9743991Y-11744460D02*
X9734467Y-11734936D01*
X9734467Y-11734936D02*
X9724944Y-11715888D01*
X9724944Y-11715888D02*
X9715420Y-11677793D01*
X9715420Y-11677793D02*
X9715420Y-11630174D01*
X9715420Y-11630174D02*
X9724944Y-11592079D01*
X9724944Y-11592079D02*
X9734467Y-11573031D01*
X9734467Y-11573031D02*
X9743991Y-11563508D01*
X9743991Y-11563508D02*
X9763039Y-11553984D01*
X9915420Y-11753984D02*
X9915420Y-11620650D01*
X9915420Y-11639698D02*
X9924944Y-11630174D01*
X9924944Y-11630174D02*
X9943991Y-11620650D01*
X9943991Y-11620650D02*
X9972563Y-11620650D01*
X9972563Y-11620650D02*
X9991610Y-11630174D01*
X9991610Y-11630174D02*
X10001134Y-11649222D01*
X10001134Y-11649222D02*
X10001134Y-11753984D01*
X10001134Y-11649222D02*
X10010658Y-11630174D01*
X10010658Y-11630174D02*
X10029705Y-11620650D01*
X10029705Y-11620650D02*
X10058277Y-11620650D01*
X10058277Y-11620650D02*
X10077325Y-11630174D01*
X10077325Y-11630174D02*
X10086848Y-11649222D01*
X10086848Y-11649222D02*
X10086848Y-11753984D01*
X10182086Y-11753984D02*
X10182086Y-11620650D01*
X10182086Y-11639698D02*
X10191610Y-11630174D01*
X10191610Y-11630174D02*
X10210658Y-11620650D01*
X10210658Y-11620650D02*
X10239229Y-11620650D01*
X10239229Y-11620650D02*
X10258277Y-11630174D01*
X10258277Y-11630174D02*
X10267801Y-11649222D01*
X10267801Y-11649222D02*
X10267801Y-11753984D01*
X10267801Y-11649222D02*
X10277325Y-11630174D01*
X10277325Y-11630174D02*
X10296372Y-11620650D01*
X10296372Y-11620650D02*
X10324944Y-11620650D01*
X10324944Y-11620650D02*
X10343991Y-11630174D01*
X10343991Y-11630174D02*
X10353515Y-11649222D01*
X10353515Y-11649222D02*
X10353515Y-11753984D01*
X10743991Y-11544460D02*
X10572563Y-11801603D01*
X11001134Y-11553984D02*
X11020182Y-11553984D01*
X11020182Y-11553984D02*
X11039229Y-11563508D01*
X11039229Y-11563508D02*
X11048753Y-11573031D01*
X11048753Y-11573031D02*
X11058277Y-11592079D01*
X11058277Y-11592079D02*
X11067801Y-11630174D01*
X11067801Y-11630174D02*
X11067801Y-11677793D01*
X11067801Y-11677793D02*
X11058277Y-11715888D01*
X11058277Y-11715888D02*
X11048753Y-11734936D01*
X11048753Y-11734936D02*
X11039229Y-11744460D01*
X11039229Y-11744460D02*
X11020182Y-11753984D01*
X11020182Y-11753984D02*
X11001134Y-11753984D01*
X11001134Y-11753984D02*
X10982087Y-11744460D01*
X10982087Y-11744460D02*
X10972563Y-11734936D01*
X10972563Y-11734936D02*
X10963039Y-11715888D01*
X10963039Y-11715888D02*
X10953515Y-11677793D01*
X10953515Y-11677793D02*
X10953515Y-11630174D01*
X10953515Y-11630174D02*
X10963039Y-11592079D01*
X10963039Y-11592079D02*
X10972563Y-11573031D01*
X10972563Y-11573031D02*
X10982087Y-11563508D01*
X10982087Y-11563508D02*
X11001134Y-11553984D01*
X11153515Y-11734936D02*
X11163039Y-11744460D01*
X11163039Y-11744460D02*
X11153515Y-11753984D01*
X11153515Y-11753984D02*
X11143991Y-11744460D01*
X11143991Y-11744460D02*
X11153515Y-11734936D01*
X11153515Y-11734936D02*
X11153515Y-11753984D01*
X11286848Y-11553984D02*
X11305896Y-11553984D01*
X11305896Y-11553984D02*
X11324944Y-11563508D01*
X11324944Y-11563508D02*
X11334467Y-11573031D01*
X11334467Y-11573031D02*
X11343991Y-11592079D01*
X11343991Y-11592079D02*
X11353515Y-11630174D01*
X11353515Y-11630174D02*
X11353515Y-11677793D01*
X11353515Y-11677793D02*
X11343991Y-11715888D01*
X11343991Y-11715888D02*
X11334467Y-11734936D01*
X11334467Y-11734936D02*
X11324944Y-11744460D01*
X11324944Y-11744460D02*
X11305896Y-11753984D01*
X11305896Y-11753984D02*
X11286848Y-11753984D01*
X11286848Y-11753984D02*
X11267801Y-11744460D01*
X11267801Y-11744460D02*
X11258277Y-11734936D01*
X11258277Y-11734936D02*
X11248753Y-11715888D01*
X11248753Y-11715888D02*
X11239229Y-11677793D01*
X11239229Y-11677793D02*
X11239229Y-11630174D01*
X11239229Y-11630174D02*
X11248753Y-11592079D01*
X11248753Y-11592079D02*
X11258277Y-11573031D01*
X11258277Y-11573031D02*
X11267801Y-11563508D01*
X11267801Y-11563508D02*
X11286848Y-11553984D01*
X11524944Y-11553984D02*
X11486848Y-11553984D01*
X11486848Y-11553984D02*
X11467801Y-11563508D01*
X11467801Y-11563508D02*
X11458277Y-11573031D01*
X11458277Y-11573031D02*
X11439229Y-11601603D01*
X11439229Y-11601603D02*
X11429706Y-11639698D01*
X11429706Y-11639698D02*
X11429706Y-11715888D01*
X11429706Y-11715888D02*
X11439229Y-11734936D01*
X11439229Y-11734936D02*
X11448753Y-11744460D01*
X11448753Y-11744460D02*
X11467801Y-11753984D01*
X11467801Y-11753984D02*
X11505896Y-11753984D01*
X11505896Y-11753984D02*
X11524944Y-11744460D01*
X11524944Y-11744460D02*
X11534467Y-11734936D01*
X11534467Y-11734936D02*
X11543991Y-11715888D01*
X11543991Y-11715888D02*
X11543991Y-11668269D01*
X11543991Y-11668269D02*
X11534467Y-11649222D01*
X11534467Y-11649222D02*
X11524944Y-11639698D01*
X11524944Y-11639698D02*
X11505896Y-11630174D01*
X11505896Y-11630174D02*
X11467801Y-11630174D01*
X11467801Y-11630174D02*
X11448753Y-11639698D01*
X11448753Y-11639698D02*
X11439229Y-11649222D01*
X11439229Y-11649222D02*
X11429706Y-11668269D01*
X11610658Y-11553984D02*
X11734467Y-11553984D01*
X11734467Y-11553984D02*
X11667801Y-11630174D01*
X11667801Y-11630174D02*
X11696372Y-11630174D01*
X11696372Y-11630174D02*
X11715420Y-11639698D01*
X11715420Y-11639698D02*
X11724944Y-11649222D01*
X11724944Y-11649222D02*
X11734467Y-11668269D01*
X11734467Y-11668269D02*
X11734467Y-11715888D01*
X11734467Y-11715888D02*
X11724944Y-11734936D01*
X11724944Y-11734936D02*
X11715420Y-11744460D01*
X11715420Y-11744460D02*
X11696372Y-11753984D01*
X11696372Y-11753984D02*
X11639229Y-11753984D01*
X11639229Y-11753984D02*
X11620182Y-11744460D01*
X11620182Y-11744460D02*
X11610658Y-11734936D01*
X11858277Y-11553984D02*
X11877325Y-11553984D01*
X11877325Y-11553984D02*
X11896372Y-11563508D01*
X11896372Y-11563508D02*
X11905896Y-11573031D01*
X11905896Y-11573031D02*
X11915420Y-11592079D01*
X11915420Y-11592079D02*
X11924944Y-11630174D01*
X11924944Y-11630174D02*
X11924944Y-11677793D01*
X11924944Y-11677793D02*
X11915420Y-11715888D01*
X11915420Y-11715888D02*
X11905896Y-11734936D01*
X11905896Y-11734936D02*
X11896372Y-11744460D01*
X11896372Y-11744460D02*
X11877325Y-11753984D01*
X11877325Y-11753984D02*
X11858277Y-11753984D01*
X11858277Y-11753984D02*
X11839229Y-11744460D01*
X11839229Y-11744460D02*
X11829706Y-11734936D01*
X11829706Y-11734936D02*
X11820182Y-11715888D01*
X11820182Y-11715888D02*
X11810658Y-11677793D01*
X11810658Y-11677793D02*
X11810658Y-11630174D01*
X11810658Y-11630174D02*
X11820182Y-11592079D01*
X11820182Y-11592079D02*
X11829706Y-11573031D01*
X11829706Y-11573031D02*
X11839229Y-11563508D01*
X11839229Y-11563508D02*
X11858277Y-11553984D01*
X12001134Y-11553984D02*
X12001134Y-11592079D01*
X12077325Y-11553984D02*
X12077325Y-11592079D01*
X12372563Y-11830174D02*
X12363039Y-11820650D01*
X12363039Y-11820650D02*
X12343991Y-11792079D01*
X12343991Y-11792079D02*
X12334468Y-11773031D01*
X12334468Y-11773031D02*
X12324944Y-11744460D01*
X12324944Y-11744460D02*
X12315420Y-11696841D01*
X12315420Y-11696841D02*
X12315420Y-11658746D01*
X12315420Y-11658746D02*
X12324944Y-11611127D01*
X12324944Y-11611127D02*
X12334468Y-11582555D01*
X12334468Y-11582555D02*
X12343991Y-11563508D01*
X12343991Y-11563508D02*
X12363039Y-11534936D01*
X12363039Y-11534936D02*
X12372563Y-11525412D01*
X12534468Y-11553984D02*
X12496372Y-11553984D01*
X12496372Y-11553984D02*
X12477325Y-11563508D01*
X12477325Y-11563508D02*
X12467801Y-11573031D01*
X12467801Y-11573031D02*
X12448753Y-11601603D01*
X12448753Y-11601603D02*
X12439229Y-11639698D01*
X12439229Y-11639698D02*
X12439229Y-11715888D01*
X12439229Y-11715888D02*
X12448753Y-11734936D01*
X12448753Y-11734936D02*
X12458277Y-11744460D01*
X12458277Y-11744460D02*
X12477325Y-11753984D01*
X12477325Y-11753984D02*
X12515420Y-11753984D01*
X12515420Y-11753984D02*
X12534468Y-11744460D01*
X12534468Y-11744460D02*
X12543991Y-11734936D01*
X12543991Y-11734936D02*
X12553515Y-11715888D01*
X12553515Y-11715888D02*
X12553515Y-11668269D01*
X12553515Y-11668269D02*
X12543991Y-11649222D01*
X12543991Y-11649222D02*
X12534468Y-11639698D01*
X12534468Y-11639698D02*
X12515420Y-11630174D01*
X12515420Y-11630174D02*
X12477325Y-11630174D01*
X12477325Y-11630174D02*
X12458277Y-11639698D01*
X12458277Y-11639698D02*
X12448753Y-11649222D01*
X12448753Y-11649222D02*
X12439229Y-11668269D01*
X12791610Y-11753984D02*
X12791610Y-11553984D01*
X12877325Y-11753984D02*
X12877325Y-11649222D01*
X12877325Y-11649222D02*
X12867801Y-11630174D01*
X12867801Y-11630174D02*
X12848753Y-11620650D01*
X12848753Y-11620650D02*
X12820182Y-11620650D01*
X12820182Y-11620650D02*
X12801134Y-11630174D01*
X12801134Y-11630174D02*
X12791610Y-11639698D01*
X13001134Y-11753984D02*
X12982087Y-11744460D01*
X12982087Y-11744460D02*
X12972563Y-11734936D01*
X12972563Y-11734936D02*
X12963039Y-11715888D01*
X12963039Y-11715888D02*
X12963039Y-11658746D01*
X12963039Y-11658746D02*
X12972563Y-11639698D01*
X12972563Y-11639698D02*
X12982087Y-11630174D01*
X12982087Y-11630174D02*
X13001134Y-11620650D01*
X13001134Y-11620650D02*
X13029706Y-11620650D01*
X13029706Y-11620650D02*
X13048753Y-11630174D01*
X13048753Y-11630174D02*
X13058277Y-11639698D01*
X13058277Y-11639698D02*
X13067801Y-11658746D01*
X13067801Y-11658746D02*
X13067801Y-11715888D01*
X13067801Y-11715888D02*
X13058277Y-11734936D01*
X13058277Y-11734936D02*
X13048753Y-11744460D01*
X13048753Y-11744460D02*
X13029706Y-11753984D01*
X13029706Y-11753984D02*
X13001134Y-11753984D01*
X13182087Y-11753984D02*
X13163039Y-11744460D01*
X13163039Y-11744460D02*
X13153515Y-11725412D01*
X13153515Y-11725412D02*
X13153515Y-11553984D01*
X13334468Y-11744460D02*
X13315420Y-11753984D01*
X13315420Y-11753984D02*
X13277325Y-11753984D01*
X13277325Y-11753984D02*
X13258277Y-11744460D01*
X13258277Y-11744460D02*
X13248753Y-11725412D01*
X13248753Y-11725412D02*
X13248753Y-11649222D01*
X13248753Y-11649222D02*
X13258277Y-11630174D01*
X13258277Y-11630174D02*
X13277325Y-11620650D01*
X13277325Y-11620650D02*
X13315420Y-11620650D01*
X13315420Y-11620650D02*
X13334468Y-11630174D01*
X13334468Y-11630174D02*
X13343991Y-11649222D01*
X13343991Y-11649222D02*
X13343991Y-11668269D01*
X13343991Y-11668269D02*
X13248753Y-11687317D01*
X13420182Y-11744460D02*
X13439230Y-11753984D01*
X13439230Y-11753984D02*
X13477325Y-11753984D01*
X13477325Y-11753984D02*
X13496372Y-11744460D01*
X13496372Y-11744460D02*
X13505896Y-11725412D01*
X13505896Y-11725412D02*
X13505896Y-11715888D01*
X13505896Y-11715888D02*
X13496372Y-11696841D01*
X13496372Y-11696841D02*
X13477325Y-11687317D01*
X13477325Y-11687317D02*
X13448753Y-11687317D01*
X13448753Y-11687317D02*
X13429706Y-11677793D01*
X13429706Y-11677793D02*
X13420182Y-11658746D01*
X13420182Y-11658746D02*
X13420182Y-11649222D01*
X13420182Y-11649222D02*
X13429706Y-11630174D01*
X13429706Y-11630174D02*
X13448753Y-11620650D01*
X13448753Y-11620650D02*
X13477325Y-11620650D01*
X13477325Y-11620650D02*
X13496372Y-11630174D01*
X13572563Y-11830174D02*
X13582087Y-11820650D01*
X13582087Y-11820650D02*
X13601134Y-11792079D01*
X13601134Y-11792079D02*
X13610658Y-11773031D01*
X13610658Y-11773031D02*
X13620182Y-11744460D01*
X13620182Y-11744460D02*
X13629706Y-11696841D01*
X13629706Y-11696841D02*
X13629706Y-11658746D01*
X13629706Y-11658746D02*
X13620182Y-11611127D01*
X13620182Y-11611127D02*
X13610658Y-11582555D01*
X13610658Y-11582555D02*
X13601134Y-11563508D01*
X13601134Y-11563508D02*
X13582087Y-11534936D01*
X13582087Y-11534936D02*
X13572563Y-11525412D01*
M02*
