G04 #@! TF.GenerationSoftware,KiCad,Pcbnew,8.0.8*
G04 #@! TF.CreationDate,2025-01-26T13:14:25+09:00*
G04 #@! TF.ProjectId,SyncBoard,53796e63-426f-4617-9264-2e6b69636164,rev?*
G04 #@! TF.SameCoordinates,Original*
G04 #@! TF.FileFunction,Copper,L2,Bot*
G04 #@! TF.FilePolarity,Positive*
%FSLAX46Y46*%
G04 Gerber Fmt 4.6, Leading zero omitted, Abs format (unit mm)*
G04 Created by KiCad (PCBNEW 8.0.8) date 2025-01-26 13:14:25*
%MOMM*%
%LPD*%
G01*
G04 APERTURE LIST*
G04 #@! TA.AperFunction,ComponentPad*
%ADD10R,1.700000X1.700000*%
G04 #@! TD*
G04 #@! TA.AperFunction,ComponentPad*
%ADD11O,1.700000X1.700000*%
G04 #@! TD*
G04 #@! TA.AperFunction,ComponentPad*
%ADD12O,1.600000X1.600000*%
G04 #@! TD*
G04 #@! TA.AperFunction,ComponentPad*
%ADD13R,1.600000X1.600000*%
G04 #@! TD*
G04 #@! TA.AperFunction,ComponentPad*
%ADD14C,1.400000*%
G04 #@! TD*
G04 #@! TA.AperFunction,ComponentPad*
%ADD15O,2.100000X3.100000*%
G04 #@! TD*
G04 #@! TA.AperFunction,ComponentPad*
%ADD16O,3.500000X2.500000*%
G04 #@! TD*
G04 #@! TA.AperFunction,ComponentPad*
%ADD17O,2.500000X3.500000*%
G04 #@! TD*
G04 #@! TA.AperFunction,ComponentPad*
%ADD18O,3.000000X1.500000*%
G04 #@! TD*
G04 #@! TA.AperFunction,ViaPad*
%ADD19C,0.600000*%
G04 #@! TD*
G04 #@! TA.AperFunction,Conductor*
%ADD20C,0.200000*%
G04 #@! TD*
G04 #@! TA.AperFunction,Conductor*
%ADD21C,0.500000*%
G04 #@! TD*
G04 APERTURE END LIST*
D10*
X111125000Y-65925000D03*
D11*
X113665000Y-65925000D03*
X116205000Y-65925000D03*
X118745000Y-65925000D03*
X121285000Y-65925000D03*
X123825000Y-65925000D03*
D10*
X111125000Y-48615000D03*
D11*
X113665000Y-48615000D03*
X116205000Y-48615000D03*
X118745000Y-48615000D03*
X121285000Y-48615000D03*
X123825000Y-48615000D03*
D10*
X111125000Y-86360000D03*
D11*
X113665000Y-86360000D03*
X116205000Y-86360000D03*
X118745000Y-86360000D03*
X121285000Y-86360000D03*
X123825000Y-86360000D03*
D10*
X111125000Y-70925000D03*
D11*
X113665000Y-70925000D03*
X116205000Y-70925000D03*
X118745000Y-70925000D03*
X121285000Y-70925000D03*
X123825000Y-70925000D03*
D12*
X103900000Y-44530000D03*
X103900000Y-47070000D03*
X103900000Y-49610000D03*
X103900000Y-52150000D03*
X103900000Y-54690000D03*
X103900000Y-57230000D03*
X103900000Y-59770000D03*
X103900000Y-62310000D03*
X103900000Y-64850000D03*
X103900000Y-67390000D03*
X103900000Y-69930000D03*
X103900000Y-72470000D03*
X103900000Y-75010000D03*
X103900000Y-77550000D03*
X103900000Y-80090000D03*
X103900000Y-82630000D03*
X103900000Y-85170000D03*
X103900000Y-87710000D03*
X103900000Y-90250000D03*
X103900000Y-92790000D03*
X86100000Y-92790000D03*
X86100000Y-90250000D03*
X86100000Y-87710000D03*
X86100000Y-85170000D03*
X86100000Y-82630000D03*
X86100000Y-80090000D03*
X86100000Y-77550000D03*
X86100000Y-75010000D03*
X86100000Y-72470000D03*
X86100000Y-69930000D03*
X86100000Y-67390000D03*
X86100000Y-64850000D03*
X86100000Y-62310000D03*
X86100000Y-59770000D03*
X86100000Y-57230000D03*
X86100000Y-54690000D03*
X86100000Y-52150000D03*
X86100000Y-49610000D03*
X86100000Y-47070000D03*
D13*
X86100000Y-44530000D03*
D14*
X93000000Y-103000000D03*
X90500000Y-103000000D03*
X88000000Y-103000000D03*
D15*
X110185000Y-94225000D03*
D16*
X117785000Y-93925000D03*
D17*
X121285000Y-98425000D03*
D16*
X114685000Y-100925000D03*
D18*
X112985000Y-103425000D03*
D15*
X111070000Y-35170000D03*
D16*
X118670000Y-34870000D03*
D17*
X122170000Y-39370000D03*
D16*
X115570000Y-41870000D03*
D18*
X113870000Y-44370000D03*
D19*
X113030000Y-58420000D03*
X118110000Y-84455000D03*
X117475000Y-88265000D03*
X120750000Y-78250000D03*
X112000000Y-80000000D03*
X116812000Y-58118000D03*
X120676000Y-79983600D03*
X95250000Y-88265000D03*
X106045000Y-85090000D03*
X117475000Y-77470000D03*
X110490000Y-79375000D03*
X98425000Y-62230000D03*
X99060000Y-74930000D03*
X106680000Y-76835000D03*
D20*
X117475000Y-85090000D02*
X118110000Y-84455000D01*
X117475000Y-88265000D02*
X117475000Y-85090000D01*
X111537000Y-94225000D02*
X110185000Y-94225000D01*
X111837000Y-93925000D02*
X111537000Y-94225000D01*
X117785000Y-93925000D02*
X111837000Y-93925000D01*
X114685000Y-102477000D02*
X114685000Y-101225000D01*
X113737000Y-103425000D02*
X114685000Y-102477000D01*
X112985000Y-103425000D02*
X113737000Y-103425000D01*
X122455000Y-93455200D02*
X114685000Y-101225000D01*
X122455000Y-79954800D02*
X122455000Y-93455200D01*
X120750000Y-78250000D02*
X122455000Y-79954800D01*
X114685000Y-100925000D02*
X114685000Y-101225000D01*
X87201700Y-85170000D02*
X86100000Y-85170000D01*
X88303400Y-84068300D02*
X87201700Y-85170000D01*
X108861000Y-84068300D02*
X88303400Y-84068300D01*
X112000000Y-80929700D02*
X108861000Y-84068300D01*
X112000000Y-80000000D02*
X112000000Y-80929700D01*
X113870000Y-44370000D02*
X114771000Y-44370000D01*
X114771000Y-44220800D02*
X114771000Y-44370000D01*
X115570000Y-43421700D02*
X114771000Y-44220800D01*
X115570000Y-41870000D02*
X115570000Y-43421700D01*
X114846000Y-56151000D02*
X116812000Y-58118000D01*
X114846000Y-44444600D02*
X114846000Y-56151000D01*
X114771000Y-44370000D02*
X114846000Y-44444600D01*
D21*
X115109000Y-79983600D02*
X114261000Y-80832300D01*
X120676000Y-79983600D02*
X115109000Y-79983600D01*
X107315000Y-58105000D02*
X103900000Y-54690000D01*
X107315000Y-73886600D02*
X107315000Y-58105000D01*
X114261000Y-80832300D02*
X107315000Y-73886600D01*
X109584000Y-85509500D02*
X114261000Y-80832300D01*
X109584000Y-86344900D02*
X109584000Y-85509500D01*
X104408000Y-91520000D02*
X109584000Y-86344900D01*
X102776000Y-91520000D02*
X104408000Y-91520000D01*
X93331500Y-100965000D02*
X102776000Y-91520000D01*
X90035000Y-100965000D02*
X93331500Y-100965000D01*
X88000000Y-103000000D02*
X90035000Y-100965000D01*
G04 #@! TA.AperFunction,Conductor*
G36*
X92426266Y-101735185D02*
G01*
X92472021Y-101787989D01*
X92481965Y-101857147D01*
X92452940Y-101920703D01*
X92424504Y-101944928D01*
X92346671Y-101993118D01*
X92911415Y-102557861D01*
X92826306Y-102580667D01*
X92723694Y-102639910D01*
X92639910Y-102723694D01*
X92580667Y-102826306D01*
X92557861Y-102911414D01*
X91991138Y-102344691D01*
X91991137Y-102344691D01*
X91975369Y-102365571D01*
X91876239Y-102564651D01*
X91876238Y-102564652D01*
X91869525Y-102588248D01*
X91832245Y-102647340D01*
X91768935Y-102676898D01*
X91699696Y-102667535D01*
X91646510Y-102622224D01*
X91630995Y-102588253D01*
X91624229Y-102564472D01*
X91617023Y-102550000D01*
X91525061Y-102365316D01*
X91525056Y-102365308D01*
X91390979Y-102187761D01*
X91226562Y-102037876D01*
X91226560Y-102037874D01*
X91076444Y-101944927D01*
X91029808Y-101892899D01*
X91018704Y-101823918D01*
X91046657Y-101759883D01*
X91104792Y-101721127D01*
X91141721Y-101715500D01*
X92359227Y-101715500D01*
X92426266Y-101735185D01*
G37*
G04 #@! TD.AperFunction*
G04 #@! TA.AperFunction,Conductor*
G36*
X109141101Y-84635316D02*
G01*
X109198961Y-84674482D01*
X109226461Y-84738713D01*
X109214870Y-84807614D01*
X109191020Y-84841105D01*
X109047916Y-84984216D01*
X109047914Y-84984218D01*
X109001062Y-85031069D01*
X109001039Y-85031094D01*
X109001034Y-85031100D01*
X108957216Y-85096683D01*
X108918917Y-85154003D01*
X108918908Y-85154019D01*
X108918903Y-85154029D01*
X108889300Y-85225497D01*
X108889301Y-85225498D01*
X108862343Y-85290583D01*
X108862338Y-85290596D01*
X108849855Y-85353359D01*
X108833499Y-85435587D01*
X108833500Y-85462128D01*
X108833500Y-85982624D01*
X108813815Y-86049663D01*
X108797174Y-86070313D01*
X105231798Y-89635068D01*
X105170472Y-89668548D01*
X105100780Y-89663557D01*
X105044850Y-89621681D01*
X105031743Y-89599785D01*
X105030571Y-89597272D01*
X105030567Y-89597265D01*
X104900045Y-89410858D01*
X104739141Y-89249954D01*
X104552734Y-89119432D01*
X104552732Y-89119431D01*
X104541275Y-89114088D01*
X104494132Y-89092105D01*
X104441694Y-89045934D01*
X104422542Y-88978740D01*
X104442758Y-88911859D01*
X104494134Y-88867341D01*
X104552484Y-88840132D01*
X104738820Y-88709657D01*
X104899657Y-88548820D01*
X105030134Y-88362482D01*
X105126265Y-88156326D01*
X105126269Y-88156317D01*
X105178872Y-87960000D01*
X104215686Y-87960000D01*
X104220080Y-87955606D01*
X104272741Y-87864394D01*
X104300000Y-87762661D01*
X104300000Y-87657339D01*
X104272741Y-87555606D01*
X104220080Y-87464394D01*
X104215686Y-87460000D01*
X105178872Y-87460000D01*
X105178872Y-87459999D01*
X105126269Y-87263682D01*
X105126265Y-87263673D01*
X105030134Y-87057517D01*
X104899657Y-86871179D01*
X104738820Y-86710342D01*
X104552482Y-86579865D01*
X104494133Y-86552657D01*
X104441694Y-86506484D01*
X104422542Y-86439291D01*
X104442758Y-86372410D01*
X104494129Y-86327895D01*
X104552734Y-86300568D01*
X104739139Y-86170047D01*
X104900047Y-86009139D01*
X105030568Y-85822734D01*
X105126739Y-85616496D01*
X105185635Y-85396692D01*
X105205468Y-85170000D01*
X105205385Y-85169057D01*
X105198128Y-85086099D01*
X105185635Y-84943308D01*
X105153906Y-84824893D01*
X105155569Y-84755043D01*
X105194732Y-84697181D01*
X105258960Y-84669677D01*
X105273681Y-84668800D01*
X108853774Y-84668800D01*
X108940012Y-84668806D01*
X108940012Y-84668805D01*
X108940019Y-84668806D01*
X108940025Y-84668804D01*
X108940051Y-84668801D01*
X108940055Y-84668800D01*
X108940057Y-84668800D01*
X108990379Y-84655315D01*
X109012570Y-84649370D01*
X109012571Y-84649369D01*
X109071254Y-84633649D01*
X109141101Y-84635316D01*
G37*
G04 #@! TD.AperFunction*
G04 #@! TA.AperFunction,Conductor*
G36*
X105407431Y-57258798D02*
G01*
X106528181Y-58379548D01*
X106561666Y-58440871D01*
X106564500Y-58467229D01*
X106564500Y-73807565D01*
X106564499Y-73807591D01*
X106564500Y-73861978D01*
X106564500Y-73960520D01*
X106564501Y-73960532D01*
X106564502Y-73960536D01*
X106580015Y-74038518D01*
X106593339Y-74105498D01*
X106593343Y-74105517D01*
X106593345Y-74105524D01*
X106593349Y-74105535D01*
X106621711Y-74174004D01*
X106621712Y-74174007D01*
X106649916Y-74242096D01*
X106649921Y-74242103D01*
X106649924Y-74242109D01*
X106683268Y-74292011D01*
X106732051Y-74365020D01*
X106732058Y-74365027D01*
X106732059Y-74365028D01*
X106778444Y-74411411D01*
X106778446Y-74411413D01*
X106840191Y-74473158D01*
X106840210Y-74473175D01*
X109811599Y-77444435D01*
X111534982Y-79167744D01*
X111568469Y-79229066D01*
X111563486Y-79298758D01*
X111521616Y-79354693D01*
X111513278Y-79360419D01*
X111497739Y-79370183D01*
X111497737Y-79370184D01*
X111370184Y-79497737D01*
X111274211Y-79650476D01*
X111214631Y-79820745D01*
X111214630Y-79820750D01*
X111194435Y-79999996D01*
X111194435Y-80000003D01*
X111214630Y-80179249D01*
X111214631Y-80179254D01*
X111274211Y-80349523D01*
X111370185Y-80502263D01*
X111372445Y-80505097D01*
X111373334Y-80507275D01*
X111373889Y-80508158D01*
X111373734Y-80508255D01*
X111398855Y-80569783D01*
X111399500Y-80582412D01*
X111399500Y-80629574D01*
X111379815Y-80696613D01*
X111363176Y-80717261D01*
X110717202Y-81363153D01*
X108684787Y-83395311D01*
X108648606Y-83431487D01*
X108587280Y-83464968D01*
X108560930Y-83467800D01*
X105138494Y-83467800D01*
X105071455Y-83448115D01*
X105025700Y-83395311D01*
X105015756Y-83326153D01*
X105028973Y-83287963D01*
X105028280Y-83287640D01*
X105030569Y-83282732D01*
X105126739Y-83076496D01*
X105185635Y-82856692D01*
X105205468Y-82630000D01*
X105185635Y-82403308D01*
X105126739Y-82183504D01*
X105030568Y-81977266D01*
X104900047Y-81790861D01*
X104900045Y-81790858D01*
X104739141Y-81629954D01*
X104552734Y-81499432D01*
X104552728Y-81499429D01*
X104494725Y-81472382D01*
X104442285Y-81426210D01*
X104423133Y-81359017D01*
X104443348Y-81292135D01*
X104494725Y-81247618D01*
X104499057Y-81245598D01*
X104552734Y-81220568D01*
X104739139Y-81090047D01*
X104900047Y-80929139D01*
X105030568Y-80742734D01*
X105126739Y-80536496D01*
X105185635Y-80316692D01*
X105205468Y-80090000D01*
X105185635Y-79863308D01*
X105126739Y-79643504D01*
X105030568Y-79437266D01*
X104900047Y-79250861D01*
X104900045Y-79250858D01*
X104739141Y-79089954D01*
X104552734Y-78959432D01*
X104552728Y-78959429D01*
X104494725Y-78932382D01*
X104442285Y-78886210D01*
X104423133Y-78819017D01*
X104443348Y-78752135D01*
X104494725Y-78707618D01*
X104552734Y-78680568D01*
X104739139Y-78550047D01*
X104900047Y-78389139D01*
X105030568Y-78202734D01*
X105126739Y-77996496D01*
X105185635Y-77776692D01*
X105205468Y-77550000D01*
X105185635Y-77323308D01*
X105126739Y-77103504D01*
X105030568Y-76897266D01*
X104900047Y-76710861D01*
X104900045Y-76710858D01*
X104739141Y-76549954D01*
X104552734Y-76419432D01*
X104552732Y-76419431D01*
X104541275Y-76414088D01*
X104494132Y-76392105D01*
X104441694Y-76345934D01*
X104422542Y-76278740D01*
X104442758Y-76211859D01*
X104494134Y-76167341D01*
X104552484Y-76140132D01*
X104738820Y-76009657D01*
X104899657Y-75848820D01*
X105030134Y-75662482D01*
X105126265Y-75456326D01*
X105126269Y-75456317D01*
X105178872Y-75260000D01*
X104215686Y-75260000D01*
X104220080Y-75255606D01*
X104272741Y-75164394D01*
X104300000Y-75062661D01*
X104300000Y-74957339D01*
X104272741Y-74855606D01*
X104220080Y-74764394D01*
X104215686Y-74760000D01*
X105178872Y-74760000D01*
X105178872Y-74759999D01*
X105126269Y-74563682D01*
X105126265Y-74563673D01*
X105030134Y-74357517D01*
X104899657Y-74171179D01*
X104738820Y-74010342D01*
X104552482Y-73879865D01*
X104494133Y-73852657D01*
X104441694Y-73806484D01*
X104422542Y-73739291D01*
X104442758Y-73672410D01*
X104494129Y-73627895D01*
X104552734Y-73600568D01*
X104739139Y-73470047D01*
X104900047Y-73309139D01*
X105030568Y-73122734D01*
X105126739Y-72916496D01*
X105185635Y-72696692D01*
X105205468Y-72470000D01*
X105185635Y-72243308D01*
X105126739Y-72023504D01*
X105030568Y-71817266D01*
X104900047Y-71630861D01*
X104900045Y-71630858D01*
X104739141Y-71469954D01*
X104552734Y-71339432D01*
X104552728Y-71339429D01*
X104494725Y-71312382D01*
X104442285Y-71266210D01*
X104423133Y-71199017D01*
X104443348Y-71132135D01*
X104494725Y-71087618D01*
X104552734Y-71060568D01*
X104739139Y-70930047D01*
X104900047Y-70769139D01*
X105030568Y-70582734D01*
X105126739Y-70376496D01*
X105185635Y-70156692D01*
X105205468Y-69930000D01*
X105185635Y-69703308D01*
X105126739Y-69483504D01*
X105030568Y-69277266D01*
X104900047Y-69090861D01*
X104900045Y-69090858D01*
X104739141Y-68929954D01*
X104552734Y-68799432D01*
X104552728Y-68799429D01*
X104494725Y-68772382D01*
X104442285Y-68726210D01*
X104423133Y-68659017D01*
X104443348Y-68592135D01*
X104494725Y-68547618D01*
X104552734Y-68520568D01*
X104739139Y-68390047D01*
X104900047Y-68229139D01*
X105030568Y-68042734D01*
X105126739Y-67836496D01*
X105185635Y-67616692D01*
X105205468Y-67390000D01*
X105185635Y-67163308D01*
X105126739Y-66943504D01*
X105030568Y-66737266D01*
X104913213Y-66569664D01*
X104900045Y-66550858D01*
X104739141Y-66389954D01*
X104552734Y-66259432D01*
X104552728Y-66259429D01*
X104494725Y-66232382D01*
X104442285Y-66186210D01*
X104423133Y-66119017D01*
X104443348Y-66052135D01*
X104494725Y-66007618D01*
X104552734Y-65980568D01*
X104739139Y-65850047D01*
X104900047Y-65689139D01*
X105030568Y-65502734D01*
X105126739Y-65296496D01*
X105185635Y-65076692D01*
X105205468Y-64850000D01*
X105185635Y-64623308D01*
X105126739Y-64403504D01*
X105030568Y-64197266D01*
X104900047Y-64010861D01*
X104900045Y-64010858D01*
X104739141Y-63849954D01*
X104552734Y-63719432D01*
X104552732Y-63719431D01*
X104541275Y-63714088D01*
X104494132Y-63692105D01*
X104441694Y-63645934D01*
X104422542Y-63578740D01*
X104442758Y-63511859D01*
X104494134Y-63467341D01*
X104552484Y-63440132D01*
X104738820Y-63309657D01*
X104899657Y-63148820D01*
X105030134Y-62962482D01*
X105126265Y-62756326D01*
X105126269Y-62756317D01*
X105178872Y-62560000D01*
X104215686Y-62560000D01*
X104220080Y-62555606D01*
X104272741Y-62464394D01*
X104300000Y-62362661D01*
X104300000Y-62257339D01*
X104272741Y-62155606D01*
X104220080Y-62064394D01*
X104215686Y-62060000D01*
X105178872Y-62060000D01*
X105178872Y-62059999D01*
X105126269Y-61863682D01*
X105126265Y-61863673D01*
X105030134Y-61657517D01*
X104899657Y-61471179D01*
X104738820Y-61310342D01*
X104552482Y-61179865D01*
X104494133Y-61152657D01*
X104441694Y-61106484D01*
X104422542Y-61039291D01*
X104442758Y-60972410D01*
X104494129Y-60927895D01*
X104552734Y-60900568D01*
X104739139Y-60770047D01*
X104900047Y-60609139D01*
X105030568Y-60422734D01*
X105126739Y-60216496D01*
X105185635Y-59996692D01*
X105205468Y-59770000D01*
X105185635Y-59543308D01*
X105126739Y-59323504D01*
X105030568Y-59117266D01*
X104900047Y-58930861D01*
X104900045Y-58930858D01*
X104739141Y-58769954D01*
X104552734Y-58639432D01*
X104552728Y-58639429D01*
X104494725Y-58612382D01*
X104442285Y-58566210D01*
X104423133Y-58499017D01*
X104443348Y-58432135D01*
X104494725Y-58387618D01*
X104552734Y-58360568D01*
X104739139Y-58230047D01*
X104900047Y-58069139D01*
X105030568Y-57882734D01*
X105126739Y-57676496D01*
X105185635Y-57456692D01*
X105196223Y-57335669D01*
X105221674Y-57270604D01*
X105278265Y-57229625D01*
X105348026Y-57225746D01*
X105407431Y-57258798D01*
G37*
G04 #@! TD.AperFunction*
G04 #@! TA.AperFunction,Conductor*
G36*
X128943039Y-31019685D02*
G01*
X128988794Y-31072489D01*
X129000000Y-31124000D01*
X129000000Y-108876000D01*
X128980315Y-108943039D01*
X128927511Y-108988794D01*
X128876000Y-109000000D01*
X81124000Y-109000000D01*
X81056961Y-108980315D01*
X81011206Y-108927511D01*
X81000000Y-108876000D01*
X81000000Y-47069998D01*
X84794532Y-47069998D01*
X84794532Y-47070001D01*
X84814364Y-47296686D01*
X84814366Y-47296697D01*
X84873258Y-47516488D01*
X84873261Y-47516497D01*
X84969431Y-47722732D01*
X84969432Y-47722734D01*
X85099954Y-47909141D01*
X85260858Y-48070045D01*
X85260861Y-48070047D01*
X85447266Y-48200568D01*
X85505275Y-48227618D01*
X85557714Y-48273791D01*
X85576866Y-48340984D01*
X85556650Y-48407865D01*
X85505275Y-48452382D01*
X85447267Y-48479431D01*
X85447265Y-48479432D01*
X85260858Y-48609954D01*
X85099954Y-48770858D01*
X84969432Y-48957265D01*
X84969431Y-48957267D01*
X84873261Y-49163502D01*
X84873258Y-49163511D01*
X84814366Y-49383302D01*
X84814364Y-49383313D01*
X84794532Y-49609998D01*
X84794532Y-49610001D01*
X84814364Y-49836686D01*
X84814366Y-49836697D01*
X84873258Y-50056488D01*
X84873261Y-50056497D01*
X84969431Y-50262732D01*
X84969432Y-50262734D01*
X85099954Y-50449141D01*
X85260858Y-50610045D01*
X85260861Y-50610047D01*
X85447266Y-50740568D01*
X85504681Y-50767341D01*
X85505275Y-50767618D01*
X85557714Y-50813791D01*
X85576866Y-50880984D01*
X85556650Y-50947865D01*
X85505275Y-50992382D01*
X85447267Y-51019431D01*
X85447265Y-51019432D01*
X85260858Y-51149954D01*
X85099954Y-51310858D01*
X84969432Y-51497265D01*
X84969431Y-51497267D01*
X84873261Y-51703502D01*
X84873258Y-51703511D01*
X84814366Y-51923302D01*
X84814364Y-51923313D01*
X84794532Y-52149998D01*
X84794532Y-52150001D01*
X84814364Y-52376686D01*
X84814366Y-52376697D01*
X84873258Y-52596488D01*
X84873261Y-52596497D01*
X84969431Y-52802732D01*
X84969432Y-52802734D01*
X85099954Y-52989141D01*
X85260858Y-53150045D01*
X85260861Y-53150047D01*
X85447266Y-53280568D01*
X85505275Y-53307618D01*
X85557714Y-53353791D01*
X85576866Y-53420984D01*
X85556650Y-53487865D01*
X85505275Y-53532382D01*
X85447267Y-53559431D01*
X85447265Y-53559432D01*
X85260858Y-53689954D01*
X85099954Y-53850858D01*
X84969432Y-54037265D01*
X84969431Y-54037267D01*
X84873261Y-54243502D01*
X84873258Y-54243511D01*
X84814366Y-54463302D01*
X84814364Y-54463313D01*
X84794532Y-54689998D01*
X84794532Y-54690001D01*
X84814364Y-54916686D01*
X84814366Y-54916697D01*
X84873258Y-55136488D01*
X84873261Y-55136497D01*
X84969431Y-55342732D01*
X84969432Y-55342734D01*
X85099954Y-55529141D01*
X85260858Y-55690045D01*
X85260861Y-55690047D01*
X85447266Y-55820568D01*
X85505275Y-55847618D01*
X85557714Y-55893791D01*
X85576866Y-55960984D01*
X85556650Y-56027865D01*
X85505275Y-56072382D01*
X85447267Y-56099431D01*
X85447265Y-56099432D01*
X85260858Y-56229954D01*
X85099954Y-56390858D01*
X84969432Y-56577265D01*
X84969431Y-56577267D01*
X84873261Y-56783502D01*
X84873258Y-56783511D01*
X84814366Y-57003302D01*
X84814364Y-57003313D01*
X84794532Y-57229998D01*
X84794532Y-57230001D01*
X84814364Y-57456686D01*
X84814366Y-57456697D01*
X84873258Y-57676488D01*
X84873261Y-57676497D01*
X84969431Y-57882732D01*
X84969432Y-57882734D01*
X85099954Y-58069141D01*
X85260858Y-58230045D01*
X85260861Y-58230047D01*
X85447266Y-58360568D01*
X85505275Y-58387618D01*
X85557714Y-58433791D01*
X85576866Y-58500984D01*
X85556650Y-58567865D01*
X85505275Y-58612382D01*
X85447267Y-58639431D01*
X85447265Y-58639432D01*
X85260858Y-58769954D01*
X85099954Y-58930858D01*
X84969432Y-59117265D01*
X84969431Y-59117267D01*
X84873261Y-59323502D01*
X84873258Y-59323511D01*
X84814366Y-59543302D01*
X84814364Y-59543313D01*
X84794532Y-59769998D01*
X84794532Y-59770001D01*
X84814364Y-59996686D01*
X84814366Y-59996697D01*
X84873258Y-60216488D01*
X84873261Y-60216497D01*
X84969431Y-60422732D01*
X84969432Y-60422734D01*
X85099954Y-60609141D01*
X85260858Y-60770045D01*
X85260861Y-60770047D01*
X85447266Y-60900568D01*
X85505865Y-60927893D01*
X85558305Y-60974065D01*
X85577457Y-61041258D01*
X85557242Y-61108139D01*
X85505867Y-61152657D01*
X85447515Y-61179867D01*
X85261179Y-61310342D01*
X85100342Y-61471179D01*
X84969865Y-61657517D01*
X84873734Y-61863673D01*
X84873730Y-61863682D01*
X84821127Y-62059999D01*
X84821128Y-62060000D01*
X85784314Y-62060000D01*
X85779920Y-62064394D01*
X85727259Y-62155606D01*
X85700000Y-62257339D01*
X85700000Y-62362661D01*
X85727259Y-62464394D01*
X85779920Y-62555606D01*
X85784314Y-62560000D01*
X84821128Y-62560000D01*
X84873730Y-62756317D01*
X84873734Y-62756326D01*
X84969865Y-62962482D01*
X85100342Y-63148820D01*
X85261179Y-63309657D01*
X85447518Y-63440134D01*
X85447520Y-63440135D01*
X85505865Y-63467342D01*
X85558305Y-63513514D01*
X85577457Y-63580707D01*
X85557242Y-63647589D01*
X85505867Y-63692105D01*
X85447268Y-63719431D01*
X85447264Y-63719433D01*
X85260858Y-63849954D01*
X85099954Y-64010858D01*
X84969432Y-64197265D01*
X84969431Y-64197267D01*
X84873261Y-64403502D01*
X84873258Y-64403511D01*
X84814366Y-64623302D01*
X84814364Y-64623313D01*
X84794532Y-64849998D01*
X84794532Y-64850001D01*
X84814364Y-65076686D01*
X84814366Y-65076697D01*
X84873258Y-65296488D01*
X84873261Y-65296497D01*
X84969431Y-65502732D01*
X84969432Y-65502734D01*
X85099954Y-65689141D01*
X85260858Y-65850045D01*
X85260861Y-65850047D01*
X85447266Y-65980568D01*
X85505275Y-66007618D01*
X85557714Y-66053791D01*
X85576866Y-66120984D01*
X85556650Y-66187865D01*
X85505275Y-66232382D01*
X85447267Y-66259431D01*
X85447265Y-66259432D01*
X85260858Y-66389954D01*
X85099954Y-66550858D01*
X84969432Y-66737265D01*
X84969431Y-66737267D01*
X84873261Y-66943502D01*
X84873258Y-66943511D01*
X84814366Y-67163302D01*
X84814364Y-67163313D01*
X84794532Y-67389998D01*
X84794532Y-67390001D01*
X84814364Y-67616686D01*
X84814366Y-67616697D01*
X84873258Y-67836488D01*
X84873261Y-67836497D01*
X84969431Y-68042732D01*
X84969432Y-68042734D01*
X85099954Y-68229141D01*
X85260858Y-68390045D01*
X85260861Y-68390047D01*
X85447266Y-68520568D01*
X85505275Y-68547618D01*
X85557714Y-68593791D01*
X85576866Y-68660984D01*
X85556650Y-68727865D01*
X85505275Y-68772382D01*
X85447267Y-68799431D01*
X85447265Y-68799432D01*
X85260858Y-68929954D01*
X85099954Y-69090858D01*
X84969432Y-69277265D01*
X84969431Y-69277267D01*
X84873261Y-69483502D01*
X84873258Y-69483511D01*
X84814366Y-69703302D01*
X84814364Y-69703313D01*
X84794532Y-69929998D01*
X84794532Y-69930001D01*
X84814364Y-70156686D01*
X84814366Y-70156697D01*
X84873258Y-70376488D01*
X84873261Y-70376497D01*
X84969431Y-70582732D01*
X84969432Y-70582734D01*
X85099954Y-70769141D01*
X85260858Y-70930045D01*
X85260861Y-70930047D01*
X85447266Y-71060568D01*
X85505275Y-71087618D01*
X85557714Y-71133791D01*
X85576866Y-71200984D01*
X85556650Y-71267865D01*
X85505275Y-71312382D01*
X85447267Y-71339431D01*
X85447265Y-71339432D01*
X85260858Y-71469954D01*
X85099954Y-71630858D01*
X84969432Y-71817265D01*
X84969431Y-71817267D01*
X84873261Y-72023502D01*
X84873258Y-72023511D01*
X84814366Y-72243302D01*
X84814364Y-72243313D01*
X84794532Y-72469998D01*
X84794532Y-72470001D01*
X84814364Y-72696686D01*
X84814366Y-72696697D01*
X84873258Y-72916488D01*
X84873261Y-72916497D01*
X84969431Y-73122732D01*
X84969432Y-73122734D01*
X85099954Y-73309141D01*
X85260858Y-73470045D01*
X85260861Y-73470047D01*
X85447266Y-73600568D01*
X85505865Y-73627893D01*
X85558305Y-73674065D01*
X85577457Y-73741258D01*
X85557242Y-73808139D01*
X85505867Y-73852657D01*
X85447515Y-73879867D01*
X85261179Y-74010342D01*
X85100342Y-74171179D01*
X84969865Y-74357517D01*
X84873734Y-74563673D01*
X84873730Y-74563682D01*
X84821127Y-74759999D01*
X84821128Y-74760000D01*
X85784314Y-74760000D01*
X85779920Y-74764394D01*
X85727259Y-74855606D01*
X85700000Y-74957339D01*
X85700000Y-75062661D01*
X85727259Y-75164394D01*
X85779920Y-75255606D01*
X85784314Y-75260000D01*
X84821128Y-75260000D01*
X84873730Y-75456317D01*
X84873734Y-75456326D01*
X84969865Y-75662482D01*
X85100342Y-75848820D01*
X85261179Y-76009657D01*
X85447518Y-76140134D01*
X85447520Y-76140135D01*
X85505865Y-76167342D01*
X85558305Y-76213514D01*
X85577457Y-76280707D01*
X85557242Y-76347589D01*
X85505867Y-76392105D01*
X85447268Y-76419431D01*
X85447264Y-76419433D01*
X85260858Y-76549954D01*
X85099954Y-76710858D01*
X84969432Y-76897265D01*
X84969431Y-76897267D01*
X84873261Y-77103502D01*
X84873258Y-77103511D01*
X84814366Y-77323302D01*
X84814364Y-77323313D01*
X84794532Y-77549998D01*
X84794532Y-77550001D01*
X84814364Y-77776686D01*
X84814366Y-77776697D01*
X84873258Y-77996488D01*
X84873261Y-77996497D01*
X84969431Y-78202732D01*
X84969432Y-78202734D01*
X85099954Y-78389141D01*
X85260858Y-78550045D01*
X85260861Y-78550047D01*
X85447266Y-78680568D01*
X85505275Y-78707618D01*
X85557714Y-78753791D01*
X85576866Y-78820984D01*
X85556650Y-78887865D01*
X85505275Y-78932382D01*
X85447267Y-78959431D01*
X85447265Y-78959432D01*
X85260858Y-79089954D01*
X85099954Y-79250858D01*
X84969432Y-79437265D01*
X84969431Y-79437267D01*
X84873261Y-79643502D01*
X84873258Y-79643511D01*
X84814366Y-79863302D01*
X84814364Y-79863313D01*
X84794532Y-80089998D01*
X84794532Y-80090001D01*
X84814364Y-80316686D01*
X84814366Y-80316697D01*
X84873258Y-80536488D01*
X84873261Y-80536497D01*
X84969431Y-80742732D01*
X84969432Y-80742734D01*
X85099954Y-80929141D01*
X85260858Y-81090045D01*
X85260861Y-81090047D01*
X85447266Y-81220568D01*
X85500943Y-81245598D01*
X85505275Y-81247618D01*
X85557714Y-81293791D01*
X85576866Y-81360984D01*
X85556650Y-81427865D01*
X85505275Y-81472382D01*
X85447267Y-81499431D01*
X85447265Y-81499432D01*
X85260858Y-81629954D01*
X85099954Y-81790858D01*
X84969432Y-81977265D01*
X84969431Y-81977267D01*
X84873261Y-82183502D01*
X84873258Y-82183511D01*
X84814366Y-82403302D01*
X84814364Y-82403313D01*
X84794532Y-82629998D01*
X84794532Y-82630001D01*
X84814364Y-82856686D01*
X84814366Y-82856697D01*
X84873258Y-83076488D01*
X84873261Y-83076497D01*
X84969431Y-83282732D01*
X84969432Y-83282734D01*
X85099954Y-83469141D01*
X85260858Y-83630045D01*
X85260861Y-83630047D01*
X85447266Y-83760568D01*
X85505275Y-83787618D01*
X85557714Y-83833791D01*
X85576866Y-83900984D01*
X85556650Y-83967865D01*
X85505275Y-84012382D01*
X85447267Y-84039431D01*
X85447265Y-84039432D01*
X85260858Y-84169954D01*
X85099954Y-84330858D01*
X84969432Y-84517265D01*
X84969431Y-84517267D01*
X84873261Y-84723502D01*
X84873258Y-84723511D01*
X84814366Y-84943302D01*
X84814364Y-84943313D01*
X84794532Y-85169998D01*
X84794532Y-85170001D01*
X84814364Y-85396686D01*
X84814366Y-85396697D01*
X84873258Y-85616488D01*
X84873261Y-85616497D01*
X84969431Y-85822732D01*
X84969432Y-85822734D01*
X85099954Y-86009141D01*
X85260858Y-86170045D01*
X85260861Y-86170047D01*
X85447266Y-86300568D01*
X85505865Y-86327893D01*
X85558305Y-86374065D01*
X85577457Y-86441258D01*
X85557242Y-86508139D01*
X85505867Y-86552657D01*
X85447515Y-86579867D01*
X85261179Y-86710342D01*
X85100342Y-86871179D01*
X84969865Y-87057517D01*
X84873734Y-87263673D01*
X84873730Y-87263682D01*
X84821127Y-87459999D01*
X84821128Y-87460000D01*
X85784314Y-87460000D01*
X85779920Y-87464394D01*
X85727259Y-87555606D01*
X85700000Y-87657339D01*
X85700000Y-87762661D01*
X85727259Y-87864394D01*
X85779920Y-87955606D01*
X85784314Y-87960000D01*
X84821128Y-87960000D01*
X84873730Y-88156317D01*
X84873734Y-88156326D01*
X84969865Y-88362482D01*
X85100342Y-88548820D01*
X85261179Y-88709657D01*
X85447518Y-88840134D01*
X85447520Y-88840135D01*
X85505865Y-88867342D01*
X85558305Y-88913514D01*
X85577457Y-88980707D01*
X85557242Y-89047589D01*
X85505867Y-89092105D01*
X85447268Y-89119431D01*
X85447264Y-89119433D01*
X85260858Y-89249954D01*
X85099954Y-89410858D01*
X84969432Y-89597265D01*
X84969431Y-89597267D01*
X84873261Y-89803502D01*
X84873258Y-89803511D01*
X84814366Y-90023302D01*
X84814364Y-90023313D01*
X84794532Y-90249998D01*
X84794532Y-90250001D01*
X84814364Y-90476686D01*
X84814366Y-90476697D01*
X84873258Y-90696488D01*
X84873261Y-90696497D01*
X84969431Y-90902732D01*
X84969432Y-90902734D01*
X85099954Y-91089141D01*
X85260858Y-91250045D01*
X85260861Y-91250047D01*
X85447266Y-91380568D01*
X85505275Y-91407618D01*
X85557714Y-91453791D01*
X85576866Y-91520984D01*
X85556650Y-91587865D01*
X85505275Y-91632382D01*
X85447267Y-91659431D01*
X85447265Y-91659432D01*
X85260858Y-91789954D01*
X85099954Y-91950858D01*
X84969432Y-92137265D01*
X84969431Y-92137267D01*
X84873261Y-92343502D01*
X84873258Y-92343511D01*
X84814366Y-92563302D01*
X84814364Y-92563313D01*
X84794532Y-92789998D01*
X84794532Y-92790001D01*
X84814364Y-93016686D01*
X84814366Y-93016697D01*
X84873258Y-93236488D01*
X84873261Y-93236497D01*
X84969431Y-93442732D01*
X84969432Y-93442734D01*
X85099954Y-93629141D01*
X85260858Y-93790045D01*
X85260861Y-93790047D01*
X85447266Y-93920568D01*
X85653504Y-94016739D01*
X85873308Y-94075635D01*
X86035230Y-94089801D01*
X86099998Y-94095468D01*
X86100000Y-94095468D01*
X86100002Y-94095468D01*
X86156673Y-94090509D01*
X86326692Y-94075635D01*
X86546496Y-94016739D01*
X86752734Y-93920568D01*
X86939139Y-93790047D01*
X87100047Y-93629139D01*
X87230568Y-93442734D01*
X87326739Y-93236496D01*
X87385635Y-93016692D01*
X87405468Y-92790000D01*
X87385635Y-92563308D01*
X87326739Y-92343504D01*
X87230568Y-92137266D01*
X87100047Y-91950861D01*
X87100045Y-91950858D01*
X86939141Y-91789954D01*
X86752734Y-91659432D01*
X86752728Y-91659429D01*
X86694725Y-91632382D01*
X86642285Y-91586210D01*
X86623133Y-91519017D01*
X86643348Y-91452135D01*
X86694725Y-91407618D01*
X86752734Y-91380568D01*
X86939139Y-91250047D01*
X87100047Y-91089139D01*
X87230568Y-90902734D01*
X87326739Y-90696496D01*
X87385635Y-90476692D01*
X87405468Y-90250000D01*
X87385635Y-90023308D01*
X87326739Y-89803504D01*
X87230568Y-89597266D01*
X87100047Y-89410861D01*
X87100045Y-89410858D01*
X86939141Y-89249954D01*
X86752734Y-89119432D01*
X86752732Y-89119431D01*
X86741275Y-89114088D01*
X86694132Y-89092105D01*
X86641694Y-89045934D01*
X86622542Y-88978740D01*
X86642758Y-88911859D01*
X86694134Y-88867341D01*
X86752484Y-88840132D01*
X86938820Y-88709657D01*
X87099657Y-88548820D01*
X87230134Y-88362482D01*
X87326265Y-88156326D01*
X87326269Y-88156317D01*
X87378872Y-87960000D01*
X86415686Y-87960000D01*
X86420080Y-87955606D01*
X86472741Y-87864394D01*
X86500000Y-87762661D01*
X86500000Y-87657339D01*
X86472741Y-87555606D01*
X86420080Y-87464394D01*
X86415686Y-87460000D01*
X87378872Y-87460000D01*
X87378872Y-87459999D01*
X87326269Y-87263682D01*
X87326265Y-87263673D01*
X87230134Y-87057517D01*
X87099657Y-86871179D01*
X86938820Y-86710342D01*
X86752482Y-86579865D01*
X86694133Y-86552657D01*
X86641694Y-86506484D01*
X86622542Y-86439291D01*
X86642758Y-86372410D01*
X86694129Y-86327895D01*
X86752734Y-86300568D01*
X86939139Y-86170047D01*
X87100047Y-86009139D01*
X87230568Y-85822734D01*
X87230576Y-85822716D01*
X87231372Y-85821339D01*
X87231890Y-85820844D01*
X87233673Y-85818299D01*
X87234184Y-85818657D01*
X87281935Y-85773120D01*
X87306660Y-85763560D01*
X87433485Y-85729577D01*
X87515594Y-85682171D01*
X87515598Y-85682169D01*
X87570409Y-85650524D01*
X87570408Y-85650524D01*
X87570416Y-85650520D01*
X87682220Y-85538716D01*
X87682220Y-85538714D01*
X87692424Y-85528511D01*
X87692427Y-85528506D01*
X88515816Y-84705119D01*
X88577139Y-84671634D01*
X88603497Y-84668800D01*
X102526319Y-84668800D01*
X102593358Y-84688485D01*
X102639113Y-84741289D01*
X102649057Y-84810447D01*
X102646094Y-84824893D01*
X102614366Y-84943302D01*
X102614364Y-84943313D01*
X102594532Y-85169998D01*
X102594532Y-85170001D01*
X102614364Y-85396686D01*
X102614366Y-85396697D01*
X102673258Y-85616488D01*
X102673261Y-85616497D01*
X102769431Y-85822732D01*
X102769432Y-85822734D01*
X102899954Y-86009141D01*
X103060858Y-86170045D01*
X103060861Y-86170047D01*
X103247266Y-86300568D01*
X103305865Y-86327893D01*
X103358305Y-86374065D01*
X103377457Y-86441258D01*
X103357242Y-86508139D01*
X103305867Y-86552657D01*
X103247515Y-86579867D01*
X103061179Y-86710342D01*
X102900342Y-86871179D01*
X102769865Y-87057517D01*
X102673734Y-87263673D01*
X102673730Y-87263682D01*
X102621127Y-87459999D01*
X102621128Y-87460000D01*
X103584314Y-87460000D01*
X103579920Y-87464394D01*
X103527259Y-87555606D01*
X103500000Y-87657339D01*
X103500000Y-87762661D01*
X103527259Y-87864394D01*
X103579920Y-87955606D01*
X103584314Y-87960000D01*
X102621128Y-87960000D01*
X102673730Y-88156317D01*
X102673734Y-88156326D01*
X102769865Y-88362482D01*
X102900342Y-88548820D01*
X103061179Y-88709657D01*
X103247518Y-88840134D01*
X103247520Y-88840135D01*
X103305865Y-88867342D01*
X103358305Y-88913514D01*
X103377457Y-88980707D01*
X103357242Y-89047589D01*
X103305867Y-89092105D01*
X103247268Y-89119431D01*
X103247264Y-89119433D01*
X103060858Y-89249954D01*
X102899954Y-89410858D01*
X102769432Y-89597265D01*
X102769431Y-89597267D01*
X102673261Y-89803502D01*
X102673258Y-89803511D01*
X102614366Y-90023302D01*
X102614364Y-90023313D01*
X102594532Y-90249998D01*
X102594532Y-90250001D01*
X102614364Y-90476686D01*
X102614366Y-90476697D01*
X102659025Y-90643368D01*
X102657362Y-90713218D01*
X102618199Y-90771080D01*
X102563446Y-90797077D01*
X102557087Y-90798342D01*
X102557077Y-90798344D01*
X102557072Y-90798345D01*
X102507950Y-90818693D01*
X102481082Y-90829823D01*
X102420496Y-90854919D01*
X102353620Y-90899606D01*
X102353619Y-90899607D01*
X102297587Y-90937047D01*
X102297568Y-90937062D01*
X102240954Y-90993678D01*
X102240953Y-90993677D01*
X102193042Y-91041590D01*
X102193043Y-91041591D01*
X93056941Y-100178179D01*
X92995618Y-100211666D01*
X92969257Y-100214500D01*
X89961076Y-100214500D01*
X89932242Y-100220234D01*
X89932243Y-100220235D01*
X89816093Y-100243339D01*
X89816083Y-100243342D01*
X89736081Y-100276479D01*
X89736082Y-100276480D01*
X89679505Y-100299915D01*
X89597372Y-100354795D01*
X89556585Y-100382047D01*
X89556581Y-100382050D01*
X88175450Y-101763181D01*
X88114127Y-101796666D01*
X88087769Y-101799500D01*
X87888757Y-101799500D01*
X87670060Y-101840382D01*
X87626785Y-101857147D01*
X87462601Y-101920752D01*
X87462595Y-101920754D01*
X87273439Y-102037874D01*
X87273437Y-102037876D01*
X87109020Y-102187761D01*
X86974943Y-102365308D01*
X86974938Y-102365316D01*
X86875775Y-102564461D01*
X86875769Y-102564476D01*
X86814885Y-102778462D01*
X86814884Y-102778464D01*
X86794357Y-102999999D01*
X86794357Y-103000000D01*
X86814884Y-103221535D01*
X86814885Y-103221537D01*
X86875769Y-103435523D01*
X86875775Y-103435538D01*
X86974938Y-103634683D01*
X86974943Y-103634691D01*
X87109020Y-103812238D01*
X87273437Y-103962123D01*
X87273439Y-103962125D01*
X87462595Y-104079245D01*
X87462596Y-104079245D01*
X87462599Y-104079247D01*
X87670060Y-104159618D01*
X87888757Y-104200500D01*
X87888759Y-104200500D01*
X88111241Y-104200500D01*
X88111243Y-104200500D01*
X88329940Y-104159618D01*
X88537401Y-104079247D01*
X88726562Y-103962124D01*
X88890981Y-103812236D01*
X89025058Y-103634689D01*
X89124229Y-103435528D01*
X89130734Y-103412661D01*
X89168012Y-103353571D01*
X89231322Y-103324013D01*
X89300561Y-103333375D01*
X89353748Y-103378684D01*
X89369264Y-103412658D01*
X89375770Y-103435523D01*
X89375772Y-103435530D01*
X89375775Y-103435538D01*
X89474938Y-103634683D01*
X89474943Y-103634691D01*
X89609020Y-103812238D01*
X89773437Y-103962123D01*
X89773439Y-103962125D01*
X89962595Y-104079245D01*
X89962596Y-104079245D01*
X89962599Y-104079247D01*
X90170060Y-104159618D01*
X90388757Y-104200500D01*
X90388759Y-104200500D01*
X90611241Y-104200500D01*
X90611243Y-104200500D01*
X90829940Y-104159618D01*
X91037401Y-104079247D01*
X91226562Y-103962124D01*
X91390981Y-103812236D01*
X91525058Y-103634689D01*
X91624229Y-103435528D01*
X91630994Y-103411750D01*
X91668271Y-103352661D01*
X91731580Y-103323102D01*
X91800820Y-103332463D01*
X91854007Y-103377772D01*
X91869525Y-103411753D01*
X91876236Y-103435342D01*
X91876239Y-103435348D01*
X91975364Y-103634419D01*
X91975366Y-103634421D01*
X91991138Y-103655306D01*
X92557861Y-103088584D01*
X92580667Y-103173694D01*
X92639910Y-103276306D01*
X92723694Y-103360090D01*
X92826306Y-103419333D01*
X92911415Y-103442138D01*
X92346671Y-104006880D01*
X92462823Y-104078798D01*
X92462824Y-104078799D01*
X92670195Y-104159134D01*
X92888807Y-104200000D01*
X93111193Y-104200000D01*
X93329804Y-104159134D01*
X93537177Y-104078798D01*
X93537178Y-104078797D01*
X93653327Y-104006880D01*
X93088585Y-103442138D01*
X93173694Y-103419333D01*
X93276306Y-103360090D01*
X93360090Y-103276306D01*
X93419333Y-103173694D01*
X93442138Y-103088584D01*
X94008860Y-103655306D01*
X94008861Y-103655306D01*
X94024631Y-103634425D01*
X94024632Y-103634422D01*
X94123759Y-103435350D01*
X94184621Y-103221439D01*
X94205141Y-103000000D01*
X99894592Y-103000000D01*
X99914201Y-103286680D01*
X99914201Y-103286684D01*
X99914202Y-103286686D01*
X99933130Y-103377772D01*
X99972666Y-103568034D01*
X99972667Y-103568037D01*
X100068894Y-103838793D01*
X100068893Y-103838793D01*
X100201098Y-104093935D01*
X100366812Y-104328700D01*
X100413626Y-104378825D01*
X100562947Y-104538708D01*
X100785853Y-104720055D01*
X101031382Y-104869365D01*
X101218237Y-104950526D01*
X101294942Y-104983844D01*
X101571642Y-105061371D01*
X101821920Y-105095771D01*
X101856321Y-105100500D01*
X101856322Y-105100500D01*
X102143679Y-105100500D01*
X102174370Y-105096281D01*
X102428358Y-105061371D01*
X102705058Y-104983844D01*
X102818015Y-104934779D01*
X102968617Y-104869365D01*
X102968620Y-104869363D01*
X102968625Y-104869361D01*
X103214147Y-104720055D01*
X103437053Y-104538708D01*
X103633189Y-104328698D01*
X103798901Y-104093936D01*
X103931104Y-103838797D01*
X104027334Y-103568032D01*
X104085798Y-103286686D01*
X104105408Y-103000000D01*
X104085798Y-102713314D01*
X104027334Y-102431968D01*
X104010146Y-102383607D01*
X103931105Y-102161206D01*
X103931106Y-102161206D01*
X103798901Y-101906064D01*
X103633187Y-101671299D01*
X103517981Y-101547945D01*
X103437053Y-101461292D01*
X103214147Y-101279945D01*
X103214146Y-101279944D01*
X102968617Y-101130634D01*
X102705063Y-101016158D01*
X102705061Y-101016157D01*
X102705058Y-101016156D01*
X102575578Y-100979877D01*
X102428364Y-100938630D01*
X102428359Y-100938629D01*
X102428358Y-100938629D01*
X102286018Y-100919064D01*
X102143679Y-100899500D01*
X102143678Y-100899500D01*
X101856322Y-100899500D01*
X101856321Y-100899500D01*
X101571642Y-100938629D01*
X101571635Y-100938630D01*
X101363861Y-100996845D01*
X101294942Y-101016156D01*
X101294939Y-101016156D01*
X101294936Y-101016158D01*
X101294935Y-101016158D01*
X101031382Y-101130634D01*
X100785853Y-101279944D01*
X100562950Y-101461289D01*
X100366812Y-101671299D01*
X100201098Y-101906064D01*
X100068894Y-102161206D01*
X99972667Y-102431962D01*
X99972666Y-102431965D01*
X99914201Y-102713319D01*
X99894592Y-103000000D01*
X94205141Y-103000000D01*
X94205141Y-102999999D01*
X94184621Y-102778560D01*
X94123759Y-102564649D01*
X94024633Y-102365577D01*
X94024631Y-102365574D01*
X94008860Y-102344691D01*
X93442137Y-102911414D01*
X93419333Y-102826306D01*
X93360090Y-102723694D01*
X93276306Y-102639910D01*
X93173694Y-102580667D01*
X93088584Y-102557861D01*
X93653327Y-101993118D01*
X93653326Y-101993117D01*
X93537181Y-101921203D01*
X93532041Y-101918644D01*
X93532831Y-101917057D01*
X93483886Y-101879450D01*
X93460293Y-101813684D01*
X93476000Y-101745603D01*
X93526022Y-101696822D01*
X93540830Y-101691555D01*
X93540428Y-101690512D01*
X93544554Y-101688919D01*
X93546531Y-101688268D01*
X93549088Y-101687209D01*
X93551924Y-101686074D01*
X93556864Y-101684167D01*
X93558864Y-101683159D01*
X93631615Y-101653022D01*
X93681240Y-101632467D01*
X93684066Y-101631461D01*
X93684303Y-101631350D01*
X93686893Y-101630204D01*
X93689094Y-101628794D01*
X93690863Y-101627707D01*
X93693148Y-101625975D01*
X93707848Y-101616151D01*
X93753880Y-101585392D01*
X93807495Y-101549568D01*
X93810029Y-101547963D01*
X93811673Y-101546404D01*
X93813859Y-101544010D01*
X93868980Y-101488887D01*
X93914451Y-101443416D01*
X93914452Y-101443413D01*
X93919410Y-101438456D01*
X93919423Y-101438440D01*
X102404912Y-92952501D01*
X102466233Y-92919016D01*
X102535924Y-92923999D01*
X102591859Y-92965869D01*
X102611741Y-93011790D01*
X102612964Y-93011463D01*
X102673258Y-93236488D01*
X102673261Y-93236497D01*
X102769431Y-93442732D01*
X102769432Y-93442734D01*
X102899954Y-93629141D01*
X103060858Y-93790045D01*
X103060861Y-93790047D01*
X103247266Y-93920568D01*
X103453504Y-94016739D01*
X103673308Y-94075635D01*
X103835230Y-94089801D01*
X103899998Y-94095468D01*
X103900000Y-94095468D01*
X103900002Y-94095468D01*
X103956673Y-94090509D01*
X104126692Y-94075635D01*
X104346496Y-94016739D01*
X104552734Y-93920568D01*
X104739139Y-93790047D01*
X104900047Y-93629139D01*
X104918368Y-93602973D01*
X108634500Y-93602973D01*
X108634500Y-94847027D01*
X108672679Y-95088076D01*
X108748096Y-95320185D01*
X108838872Y-95498344D01*
X108858896Y-95537642D01*
X109002339Y-95735076D01*
X109002343Y-95735081D01*
X109174918Y-95907656D01*
X109174923Y-95907660D01*
X109329387Y-96019884D01*
X109372361Y-96051106D01*
X109589815Y-96161904D01*
X109821924Y-96237321D01*
X110062973Y-96275500D01*
X110062974Y-96275500D01*
X110307026Y-96275500D01*
X110307027Y-96275500D01*
X110548076Y-96237321D01*
X110780185Y-96161904D01*
X110997639Y-96051106D01*
X111195083Y-95907655D01*
X111367655Y-95735083D01*
X111511106Y-95537639D01*
X111621904Y-95320185D01*
X111697321Y-95088076D01*
X111733784Y-94857856D01*
X111763713Y-94794723D01*
X111794250Y-94769873D01*
X111818904Y-94755639D01*
X111905716Y-94705520D01*
X112017520Y-94593716D01*
X112017520Y-94593714D01*
X112027728Y-94583507D01*
X112027732Y-94583502D01*
X112049418Y-94561817D01*
X112110742Y-94528333D01*
X112137097Y-94525500D01*
X115556154Y-94525500D01*
X115623193Y-94545185D01*
X115668948Y-94597989D01*
X115670715Y-94602048D01*
X115711650Y-94700876D01*
X115711657Y-94700890D01*
X115826392Y-94899617D01*
X115966081Y-95081661D01*
X115966089Y-95081670D01*
X116128330Y-95243911D01*
X116128338Y-95243918D01*
X116310382Y-95383607D01*
X116310385Y-95383608D01*
X116310388Y-95383611D01*
X116509112Y-95498344D01*
X116509117Y-95498346D01*
X116509123Y-95498349D01*
X116600480Y-95536190D01*
X116721113Y-95586158D01*
X116942762Y-95645548D01*
X117170266Y-95675500D01*
X117170273Y-95675500D01*
X118399727Y-95675500D01*
X118399734Y-95675500D01*
X118627238Y-95645548D01*
X118848887Y-95586158D01*
X119060888Y-95498344D01*
X119259612Y-95383611D01*
X119441661Y-95243919D01*
X119441665Y-95243914D01*
X119441670Y-95243911D01*
X119603911Y-95081670D01*
X119603914Y-95081665D01*
X119603919Y-95081661D01*
X119743611Y-94899612D01*
X119858344Y-94700888D01*
X119946158Y-94488887D01*
X120005548Y-94267238D01*
X120035500Y-94039734D01*
X120035500Y-93810266D01*
X120005548Y-93582762D01*
X119946158Y-93361113D01*
X119888592Y-93222136D01*
X119858349Y-93149123D01*
X119858346Y-93149117D01*
X119858344Y-93149112D01*
X119743611Y-92950388D01*
X119743608Y-92950385D01*
X119743607Y-92950382D01*
X119603918Y-92768338D01*
X119603911Y-92768330D01*
X119441670Y-92606089D01*
X119441661Y-92606081D01*
X119259617Y-92466392D01*
X119060890Y-92351657D01*
X119060876Y-92351650D01*
X118848887Y-92263842D01*
X118627238Y-92204452D01*
X118589215Y-92199446D01*
X118399741Y-92174500D01*
X118399734Y-92174500D01*
X117170266Y-92174500D01*
X117170258Y-92174500D01*
X116953715Y-92203009D01*
X116942762Y-92204452D01*
X116849076Y-92229554D01*
X116721112Y-92263842D01*
X116509123Y-92351650D01*
X116509109Y-92351657D01*
X116310382Y-92466392D01*
X116128338Y-92606081D01*
X115966081Y-92768338D01*
X115826392Y-92950382D01*
X115711657Y-93149109D01*
X115711650Y-93149123D01*
X115670715Y-93247952D01*
X115626875Y-93302356D01*
X115560580Y-93324421D01*
X115556154Y-93324500D01*
X111775252Y-93324500D01*
X111708213Y-93304815D01*
X111662458Y-93252011D01*
X111657321Y-93238818D01*
X111651901Y-93222136D01*
X111621904Y-93129815D01*
X111511106Y-92912361D01*
X111422206Y-92790000D01*
X111367660Y-92714923D01*
X111367656Y-92714918D01*
X111195081Y-92542343D01*
X111195076Y-92542339D01*
X110997642Y-92398896D01*
X110997641Y-92398895D01*
X110997639Y-92398894D01*
X110780185Y-92288096D01*
X110548076Y-92212679D01*
X110548074Y-92212678D01*
X110548072Y-92212678D01*
X110379769Y-92186021D01*
X110307027Y-92174500D01*
X110062973Y-92174500D01*
X110007093Y-92183350D01*
X109821927Y-92212678D01*
X109589812Y-92288097D01*
X109372357Y-92398896D01*
X109174923Y-92542339D01*
X109174918Y-92542343D01*
X109002343Y-92714918D01*
X109002339Y-92714923D01*
X108858896Y-92912357D01*
X108748097Y-93129812D01*
X108672678Y-93361927D01*
X108645382Y-93534265D01*
X108634500Y-93602973D01*
X104918368Y-93602973D01*
X105030568Y-93442734D01*
X105126739Y-93236496D01*
X105185635Y-93016692D01*
X105205468Y-92790000D01*
X105185635Y-92563308D01*
X105126739Y-92343504D01*
X105030568Y-92137266D01*
X105016753Y-92117536D01*
X104994427Y-92051332D01*
X105011437Y-91983565D01*
X105030652Y-91958729D01*
X109615085Y-87375092D01*
X109676409Y-87341615D01*
X109746101Y-87346605D01*
X109802031Y-87388481D01*
X109818938Y-87419448D01*
X109831201Y-87452325D01*
X109831206Y-87452335D01*
X109917452Y-87567544D01*
X109917455Y-87567547D01*
X110032664Y-87653793D01*
X110032671Y-87653797D01*
X110167517Y-87704091D01*
X110167516Y-87704091D01*
X110174444Y-87704835D01*
X110227127Y-87710500D01*
X112022872Y-87710499D01*
X112082483Y-87704091D01*
X112217331Y-87653796D01*
X112332546Y-87567546D01*
X112418796Y-87452331D01*
X112467810Y-87320916D01*
X112509681Y-87264984D01*
X112575145Y-87240566D01*
X112643418Y-87255417D01*
X112671673Y-87276569D01*
X112793599Y-87398495D01*
X112881436Y-87459999D01*
X112987165Y-87534032D01*
X112987167Y-87534033D01*
X112987170Y-87534035D01*
X113201337Y-87633903D01*
X113201343Y-87633904D01*
X113201344Y-87633905D01*
X113221031Y-87639180D01*
X113429592Y-87695063D01*
X113606034Y-87710500D01*
X113664999Y-87715659D01*
X113665000Y-87715659D01*
X113665001Y-87715659D01*
X113723966Y-87710500D01*
X113900408Y-87695063D01*
X114128663Y-87633903D01*
X114342830Y-87534035D01*
X114536401Y-87398495D01*
X114703495Y-87231401D01*
X114833425Y-87045842D01*
X114888002Y-87002217D01*
X114957500Y-86995023D01*
X115019855Y-87026546D01*
X115036575Y-87045842D01*
X115166500Y-87231395D01*
X115166505Y-87231401D01*
X115333599Y-87398495D01*
X115421436Y-87459999D01*
X115527165Y-87534032D01*
X115527167Y-87534033D01*
X115527170Y-87534035D01*
X115741337Y-87633903D01*
X115741343Y-87633904D01*
X115741344Y-87633905D01*
X115761031Y-87639180D01*
X115969592Y-87695063D01*
X116146034Y-87710500D01*
X116204999Y-87715659D01*
X116205000Y-87715659D01*
X116205001Y-87715659D01*
X116263966Y-87710500D01*
X116440408Y-87695063D01*
X116668663Y-87633903D01*
X116668665Y-87633901D01*
X116673080Y-87632719D01*
X116742930Y-87634382D01*
X116800792Y-87673545D01*
X116828296Y-87737773D01*
X116816709Y-87806675D01*
X116810167Y-87818466D01*
X116749211Y-87915476D01*
X116689631Y-88085745D01*
X116689630Y-88085750D01*
X116669435Y-88264996D01*
X116669435Y-88265003D01*
X116689630Y-88444249D01*
X116689631Y-88444254D01*
X116749211Y-88614523D01*
X116808988Y-88709657D01*
X116845184Y-88767262D01*
X116972738Y-88894816D01*
X117063080Y-88951582D01*
X117109432Y-88980707D01*
X117125478Y-88990789D01*
X117218278Y-89023261D01*
X117295745Y-89050368D01*
X117295750Y-89050369D01*
X117474996Y-89070565D01*
X117475000Y-89070565D01*
X117475004Y-89070565D01*
X117654249Y-89050369D01*
X117654252Y-89050368D01*
X117654255Y-89050368D01*
X117824522Y-88990789D01*
X117977262Y-88894816D01*
X118104816Y-88767262D01*
X118200789Y-88614522D01*
X118260368Y-88444255D01*
X118280565Y-88265000D01*
X118268320Y-88156326D01*
X118260369Y-88085750D01*
X118260368Y-88085745D01*
X118240890Y-88030080D01*
X118200789Y-87915478D01*
X118139831Y-87818465D01*
X118120832Y-87751230D01*
X118141199Y-87684394D01*
X118194467Y-87639180D01*
X118263723Y-87629942D01*
X118276919Y-87632719D01*
X118281335Y-87633902D01*
X118281337Y-87633903D01*
X118509592Y-87695063D01*
X118686034Y-87710500D01*
X118744999Y-87715659D01*
X118745000Y-87715659D01*
X118745001Y-87715659D01*
X118803966Y-87710500D01*
X118980408Y-87695063D01*
X119208663Y-87633903D01*
X119422830Y-87534035D01*
X119616401Y-87398495D01*
X119783495Y-87231401D01*
X119913425Y-87045842D01*
X119968002Y-87002217D01*
X120037500Y-86995023D01*
X120099855Y-87026546D01*
X120116575Y-87045842D01*
X120246500Y-87231395D01*
X120246505Y-87231401D01*
X120413599Y-87398495D01*
X120501436Y-87459999D01*
X120607165Y-87534032D01*
X120607167Y-87534033D01*
X120607170Y-87534035D01*
X120821337Y-87633903D01*
X120821343Y-87633904D01*
X120821344Y-87633905D01*
X120841031Y-87639180D01*
X121049592Y-87695063D01*
X121226034Y-87710500D01*
X121284999Y-87715659D01*
X121285000Y-87715659D01*
X121285001Y-87715659D01*
X121343966Y-87710500D01*
X121520408Y-87695063D01*
X121698407Y-87647369D01*
X121768257Y-87649032D01*
X121826119Y-87688195D01*
X121853623Y-87752423D01*
X121854500Y-87767144D01*
X121854500Y-93155097D01*
X121834815Y-93222136D01*
X121818180Y-93242779D01*
X115837423Y-99223379D01*
X115776100Y-99256864D01*
X115717650Y-99255472D01*
X115667581Y-99242056D01*
X115527238Y-99204452D01*
X115489215Y-99199446D01*
X115299741Y-99174500D01*
X115299734Y-99174500D01*
X114070266Y-99174500D01*
X114070258Y-99174500D01*
X113853715Y-99203009D01*
X113842762Y-99204452D01*
X113772125Y-99223379D01*
X113621112Y-99263842D01*
X113409123Y-99351650D01*
X113409109Y-99351657D01*
X113210382Y-99466392D01*
X113028338Y-99606081D01*
X112866081Y-99768338D01*
X112726392Y-99950382D01*
X112611657Y-100149109D01*
X112611650Y-100149123D01*
X112523842Y-100361112D01*
X112464453Y-100582759D01*
X112464451Y-100582770D01*
X112434500Y-100810258D01*
X112434500Y-101039741D01*
X112446467Y-101130634D01*
X112464452Y-101267238D01*
X112464453Y-101267240D01*
X112523842Y-101488887D01*
X112611650Y-101700876D01*
X112611656Y-101700888D01*
X112726389Y-101899612D01*
X112761161Y-101944928D01*
X112784247Y-101975013D01*
X112809441Y-102040183D01*
X112795403Y-102108627D01*
X112746589Y-102158617D01*
X112685871Y-102174500D01*
X112136578Y-102174500D01*
X111942173Y-102205290D01*
X111754970Y-102266117D01*
X111579594Y-102355476D01*
X111489151Y-102421188D01*
X111420354Y-102471172D01*
X111420352Y-102471174D01*
X111420351Y-102471174D01*
X111281174Y-102610351D01*
X111281174Y-102610352D01*
X111281172Y-102610354D01*
X111254300Y-102647340D01*
X111165476Y-102769594D01*
X111076117Y-102944970D01*
X111015290Y-103132173D01*
X110984500Y-103326577D01*
X110984500Y-103523422D01*
X111015290Y-103717826D01*
X111076117Y-103905029D01*
X111128013Y-104006880D01*
X111165476Y-104080405D01*
X111281172Y-104239646D01*
X111420354Y-104378828D01*
X111579595Y-104494524D01*
X111662455Y-104536743D01*
X111754970Y-104583882D01*
X111754972Y-104583882D01*
X111754975Y-104583884D01*
X111855317Y-104616487D01*
X111942173Y-104644709D01*
X112136578Y-104675500D01*
X112136583Y-104675500D01*
X113833422Y-104675500D01*
X114027826Y-104644709D01*
X114215025Y-104583884D01*
X114390405Y-104494524D01*
X114549646Y-104378828D01*
X114688828Y-104239646D01*
X114804524Y-104080405D01*
X114893884Y-103905025D01*
X114954709Y-103717826D01*
X114967876Y-103634691D01*
X114985500Y-103523422D01*
X114985500Y-103326577D01*
X114954249Y-103129271D01*
X114963203Y-103059978D01*
X114989038Y-103022195D01*
X115043506Y-102967728D01*
X115043511Y-102967724D01*
X115053714Y-102957520D01*
X115053716Y-102957520D01*
X115165520Y-102845716D01*
X115230262Y-102733577D01*
X115280828Y-102685363D01*
X115321463Y-102672639D01*
X115527238Y-102645548D01*
X115748887Y-102586158D01*
X115960888Y-102498344D01*
X116159612Y-102383611D01*
X116341661Y-102243919D01*
X116341665Y-102243914D01*
X116341670Y-102243911D01*
X116503911Y-102081670D01*
X116503914Y-102081665D01*
X116503919Y-102081661D01*
X116643611Y-101899612D01*
X116758344Y-101700888D01*
X116846158Y-101488887D01*
X116905548Y-101267238D01*
X116935500Y-101039734D01*
X116935500Y-100810266D01*
X116905548Y-100582762D01*
X116846158Y-100361113D01*
X116797457Y-100243538D01*
X116758348Y-100149120D01*
X116758342Y-100149109D01*
X116751680Y-100137569D01*
X116735208Y-100069669D01*
X116758061Y-100003642D01*
X116771383Y-99987892D01*
X119379901Y-97379442D01*
X119441222Y-97345959D01*
X119510914Y-97350945D01*
X119566847Y-97392817D01*
X119591263Y-97458282D01*
X119587354Y-97499219D01*
X119564942Y-97582860D01*
X119535001Y-97810289D01*
X119535000Y-97810305D01*
X119535000Y-98175000D01*
X120785000Y-98175000D01*
X120785000Y-98675000D01*
X119535000Y-98675000D01*
X119535000Y-99039694D01*
X119535001Y-99039710D01*
X119564942Y-99267137D01*
X119624318Y-99488730D01*
X119712102Y-99700659D01*
X119712106Y-99700668D01*
X119826809Y-99899338D01*
X119966455Y-100081329D01*
X119966461Y-100081336D01*
X120128663Y-100243538D01*
X120128670Y-100243544D01*
X120310661Y-100383190D01*
X120509331Y-100497893D01*
X120509340Y-100497897D01*
X120721269Y-100585681D01*
X120942859Y-100645056D01*
X120942864Y-100645057D01*
X121034999Y-100657186D01*
X121035000Y-100657186D01*
X121035000Y-99358012D01*
X121092007Y-99390925D01*
X121219174Y-99425000D01*
X121350826Y-99425000D01*
X121477993Y-99390925D01*
X121535000Y-99358012D01*
X121535000Y-100657186D01*
X121627135Y-100645057D01*
X121627140Y-100645056D01*
X121848730Y-100585681D01*
X122060659Y-100497897D01*
X122060668Y-100497893D01*
X122259338Y-100383190D01*
X122441329Y-100243544D01*
X122441336Y-100243538D01*
X122603538Y-100081336D01*
X122603544Y-100081329D01*
X122743190Y-99899338D01*
X122857893Y-99700668D01*
X122857897Y-99700659D01*
X122945681Y-99488730D01*
X123005057Y-99267137D01*
X123034998Y-99039710D01*
X123035000Y-99039694D01*
X123035000Y-98675000D01*
X121785000Y-98675000D01*
X121785000Y-98175000D01*
X123035000Y-98175000D01*
X123035000Y-97810305D01*
X123034998Y-97810289D01*
X123005057Y-97582862D01*
X122945681Y-97361269D01*
X122857897Y-97149340D01*
X122857893Y-97149331D01*
X122743190Y-96950661D01*
X122603544Y-96768670D01*
X122603538Y-96768663D01*
X122441336Y-96606461D01*
X122441329Y-96606455D01*
X122259338Y-96466809D01*
X122060668Y-96352106D01*
X122060659Y-96352102D01*
X121848730Y-96264318D01*
X121627137Y-96204942D01*
X121535000Y-96192811D01*
X121535000Y-97491988D01*
X121477993Y-97459075D01*
X121350826Y-97425000D01*
X121219174Y-97425000D01*
X121092007Y-97459075D01*
X121035000Y-97491988D01*
X121035000Y-96192811D01*
X121034999Y-96192811D01*
X120942857Y-96204943D01*
X120859265Y-96227341D01*
X120789415Y-96225678D01*
X120731553Y-96186515D01*
X120704050Y-96122286D01*
X120715637Y-96053384D01*
X120739487Y-96019891D01*
X122814805Y-93944627D01*
X122814819Y-93944616D01*
X122823714Y-93935720D01*
X122823716Y-93935720D01*
X122913493Y-93845943D01*
X122929294Y-93830142D01*
X122932340Y-93827500D01*
X122933039Y-93826713D01*
X122935342Y-93824267D01*
X122936523Y-93822290D01*
X122940612Y-93815674D01*
X122941786Y-93813062D01*
X122981382Y-93744480D01*
X123014574Y-93686992D01*
X123014574Y-93686987D01*
X123015049Y-93686166D01*
X123016120Y-93681223D01*
X123028998Y-93633165D01*
X123055500Y-93534265D01*
X123055502Y-93376150D01*
X123055500Y-93376145D01*
X123055501Y-93368564D01*
X123055500Y-93368530D01*
X123055500Y-87685929D01*
X123075185Y-87618890D01*
X123127989Y-87573135D01*
X123197147Y-87563191D01*
X123231900Y-87573545D01*
X123361337Y-87633903D01*
X123361342Y-87633904D01*
X123361344Y-87633905D01*
X123381031Y-87639180D01*
X123589592Y-87695063D01*
X123766034Y-87710500D01*
X123824999Y-87715659D01*
X123825000Y-87715659D01*
X123825001Y-87715659D01*
X123883966Y-87710500D01*
X124060408Y-87695063D01*
X124288663Y-87633903D01*
X124502830Y-87534035D01*
X124696401Y-87398495D01*
X124863495Y-87231401D01*
X124999035Y-87037830D01*
X125098903Y-86823663D01*
X125160063Y-86595408D01*
X125180659Y-86360000D01*
X125160063Y-86124592D01*
X125098903Y-85896337D01*
X124999035Y-85682171D01*
X124999034Y-85682169D01*
X124863494Y-85488597D01*
X124696402Y-85321506D01*
X124696395Y-85321501D01*
X124502834Y-85185967D01*
X124502830Y-85185965D01*
X124434324Y-85154020D01*
X124288663Y-85086097D01*
X124288659Y-85086096D01*
X124288655Y-85086094D01*
X124060413Y-85024938D01*
X124060403Y-85024936D01*
X123825001Y-85004341D01*
X123824999Y-85004341D01*
X123589596Y-85024936D01*
X123589586Y-85024938D01*
X123361344Y-85086094D01*
X123361330Y-85086099D01*
X123231904Y-85146452D01*
X123162827Y-85156944D01*
X123099043Y-85128424D01*
X123060804Y-85069947D01*
X123055500Y-85034070D01*
X123055500Y-80042265D01*
X123055504Y-80042192D01*
X123055503Y-80033826D01*
X123055505Y-80033822D01*
X123055500Y-79945980D01*
X123055500Y-79875743D01*
X123055499Y-79875740D01*
X123055496Y-79875717D01*
X123055496Y-79875708D01*
X123034601Y-79797747D01*
X123014739Y-79723623D01*
X123014585Y-79723028D01*
X123014576Y-79723006D01*
X123010809Y-79716483D01*
X122977869Y-79659437D01*
X122935520Y-79586084D01*
X122935518Y-79586082D01*
X122935500Y-79586059D01*
X122935499Y-79586058D01*
X122935498Y-79586056D01*
X122884320Y-79534884D01*
X122823716Y-79474280D01*
X122818183Y-79468747D01*
X122818119Y-79468690D01*
X122103136Y-78753791D01*
X121580698Y-78231414D01*
X121547210Y-78170095D01*
X121545158Y-78157638D01*
X121535368Y-78070745D01*
X121475789Y-77900478D01*
X121379816Y-77747738D01*
X121252262Y-77620184D01*
X121140567Y-77550001D01*
X121099523Y-77524211D01*
X120929254Y-77464631D01*
X120929249Y-77464630D01*
X120750004Y-77444435D01*
X120749996Y-77444435D01*
X120570750Y-77464630D01*
X120570745Y-77464631D01*
X120400476Y-77524211D01*
X120247737Y-77620184D01*
X120120184Y-77747737D01*
X120024211Y-77900476D01*
X119964631Y-78070745D01*
X119964630Y-78070750D01*
X119944435Y-78249996D01*
X119944435Y-78250003D01*
X119964630Y-78429249D01*
X119964631Y-78429254D01*
X120024211Y-78599523D01*
X120075137Y-78680570D01*
X120120184Y-78752262D01*
X120247738Y-78879816D01*
X120400478Y-78975789D01*
X120430890Y-78986430D01*
X120431977Y-78986811D01*
X120488753Y-79027533D01*
X120514500Y-79092486D01*
X120501044Y-79161048D01*
X120452656Y-79211450D01*
X120431979Y-79220894D01*
X120416985Y-79226141D01*
X120376028Y-79233100D01*
X115188990Y-79233100D01*
X115188319Y-79233067D01*
X115109953Y-79233099D01*
X115109902Y-79233100D01*
X115035063Y-79233100D01*
X115034790Y-79233127D01*
X114962869Y-79247464D01*
X114962820Y-79247474D01*
X114890070Y-79261945D01*
X114889803Y-79262026D01*
X114822052Y-79290122D01*
X114822007Y-79290141D01*
X114753479Y-79318526D01*
X114753257Y-79318645D01*
X114692298Y-79359412D01*
X114692258Y-79359438D01*
X114630568Y-79400658D01*
X114630358Y-79400831D01*
X114578233Y-79452998D01*
X114522111Y-79509120D01*
X114521652Y-79509625D01*
X114348447Y-79682973D01*
X114287138Y-79716483D01*
X114217444Y-79711528D01*
X114173051Y-79683011D01*
X114133549Y-79643511D01*
X110909331Y-76419431D01*
X108101821Y-73612042D01*
X108068334Y-73550720D01*
X108065500Y-73524359D01*
X108065500Y-70027135D01*
X109774500Y-70027135D01*
X109774500Y-71822870D01*
X109774501Y-71822876D01*
X109780908Y-71882483D01*
X109831202Y-72017328D01*
X109831206Y-72017335D01*
X109917452Y-72132544D01*
X109917455Y-72132547D01*
X110032664Y-72218793D01*
X110032671Y-72218797D01*
X110167517Y-72269091D01*
X110167516Y-72269091D01*
X110174444Y-72269835D01*
X110227127Y-72275500D01*
X112022872Y-72275499D01*
X112082483Y-72269091D01*
X112217331Y-72218796D01*
X112332546Y-72132546D01*
X112418796Y-72017331D01*
X112467810Y-71885916D01*
X112509681Y-71829984D01*
X112575145Y-71805566D01*
X112643418Y-71820417D01*
X112671673Y-71841569D01*
X112793599Y-71963495D01*
X112879298Y-72023502D01*
X112987165Y-72099032D01*
X112987167Y-72099033D01*
X112987170Y-72099035D01*
X113201337Y-72198903D01*
X113429592Y-72260063D01*
X113606034Y-72275500D01*
X113664999Y-72280659D01*
X113665000Y-72280659D01*
X113665001Y-72280659D01*
X113723966Y-72275500D01*
X113900408Y-72260063D01*
X114128663Y-72198903D01*
X114342830Y-72099035D01*
X114536401Y-71963495D01*
X114703495Y-71796401D01*
X114833425Y-71610842D01*
X114888002Y-71567217D01*
X114957500Y-71560023D01*
X115019855Y-71591546D01*
X115036575Y-71610842D01*
X115166500Y-71796395D01*
X115166505Y-71796401D01*
X115333599Y-71963495D01*
X115419298Y-72023502D01*
X115527165Y-72099032D01*
X115527167Y-72099033D01*
X115527170Y-72099035D01*
X115741337Y-72198903D01*
X115969592Y-72260063D01*
X116146034Y-72275500D01*
X116204999Y-72280659D01*
X116205000Y-72280659D01*
X116205001Y-72280659D01*
X116263966Y-72275500D01*
X116440408Y-72260063D01*
X116668663Y-72198903D01*
X116882830Y-72099035D01*
X117076401Y-71963495D01*
X117243495Y-71796401D01*
X117373425Y-71610842D01*
X117428002Y-71567217D01*
X117497500Y-71560023D01*
X117559855Y-71591546D01*
X117576575Y-71610842D01*
X117706500Y-71796395D01*
X117706505Y-71796401D01*
X117873599Y-71963495D01*
X117959298Y-72023502D01*
X118067165Y-72099032D01*
X118067167Y-72099033D01*
X118067170Y-72099035D01*
X118281337Y-72198903D01*
X118509592Y-72260063D01*
X118686034Y-72275500D01*
X118744999Y-72280659D01*
X118745000Y-72280659D01*
X118745001Y-72280659D01*
X118803966Y-72275500D01*
X118980408Y-72260063D01*
X119208663Y-72198903D01*
X119422830Y-72099035D01*
X119616401Y-71963495D01*
X119783495Y-71796401D01*
X119913425Y-71610842D01*
X119968002Y-71567217D01*
X120037500Y-71560023D01*
X120099855Y-71591546D01*
X120116575Y-71610842D01*
X120246500Y-71796395D01*
X120246505Y-71796401D01*
X120413599Y-71963495D01*
X120499298Y-72023502D01*
X120607165Y-72099032D01*
X120607167Y-72099033D01*
X120607170Y-72099035D01*
X120821337Y-72198903D01*
X121049592Y-72260063D01*
X121226034Y-72275500D01*
X121284999Y-72280659D01*
X121285000Y-72280659D01*
X121285001Y-72280659D01*
X121343966Y-72275500D01*
X121520408Y-72260063D01*
X121748663Y-72198903D01*
X121962830Y-72099035D01*
X122156401Y-71963495D01*
X122323495Y-71796401D01*
X122453425Y-71610842D01*
X122508002Y-71567217D01*
X122577500Y-71560023D01*
X122639855Y-71591546D01*
X122656575Y-71610842D01*
X122786500Y-71796395D01*
X122786505Y-71796401D01*
X122953599Y-71963495D01*
X123039298Y-72023502D01*
X123147165Y-72099032D01*
X123147167Y-72099033D01*
X123147170Y-72099035D01*
X123361337Y-72198903D01*
X123589592Y-72260063D01*
X123766034Y-72275500D01*
X123824999Y-72280659D01*
X123825000Y-72280659D01*
X123825001Y-72280659D01*
X123883966Y-72275500D01*
X124060408Y-72260063D01*
X124288663Y-72198903D01*
X124502830Y-72099035D01*
X124696401Y-71963495D01*
X124863495Y-71796401D01*
X124999035Y-71602830D01*
X125098903Y-71388663D01*
X125160063Y-71160408D01*
X125180659Y-70925000D01*
X125160063Y-70689592D01*
X125098903Y-70461337D01*
X124999035Y-70247171D01*
X124993425Y-70239158D01*
X124863494Y-70053597D01*
X124696402Y-69886506D01*
X124696395Y-69886501D01*
X124502834Y-69750967D01*
X124502830Y-69750965D01*
X124502828Y-69750964D01*
X124288663Y-69651097D01*
X124288659Y-69651096D01*
X124288655Y-69651094D01*
X124060413Y-69589938D01*
X124060403Y-69589936D01*
X123825001Y-69569341D01*
X123824999Y-69569341D01*
X123589596Y-69589936D01*
X123589586Y-69589938D01*
X123361344Y-69651094D01*
X123361335Y-69651098D01*
X123147171Y-69750964D01*
X123147169Y-69750965D01*
X122953597Y-69886505D01*
X122786505Y-70053597D01*
X122656575Y-70239158D01*
X122601998Y-70282783D01*
X122532500Y-70289977D01*
X122470145Y-70258454D01*
X122453425Y-70239158D01*
X122323494Y-70053597D01*
X122156402Y-69886506D01*
X122156395Y-69886501D01*
X121962834Y-69750967D01*
X121962830Y-69750965D01*
X121962828Y-69750964D01*
X121748663Y-69651097D01*
X121748659Y-69651096D01*
X121748655Y-69651094D01*
X121520413Y-69589938D01*
X121520403Y-69589936D01*
X121285001Y-69569341D01*
X121284999Y-69569341D01*
X121049596Y-69589936D01*
X121049586Y-69589938D01*
X120821344Y-69651094D01*
X120821335Y-69651098D01*
X120607171Y-69750964D01*
X120607169Y-69750965D01*
X120413597Y-69886505D01*
X120246505Y-70053597D01*
X120116575Y-70239158D01*
X120061998Y-70282783D01*
X119992500Y-70289977D01*
X119930145Y-70258454D01*
X119913425Y-70239158D01*
X119783494Y-70053597D01*
X119616402Y-69886506D01*
X119616395Y-69886501D01*
X119422834Y-69750967D01*
X119422830Y-69750965D01*
X119422828Y-69750964D01*
X119208663Y-69651097D01*
X119208659Y-69651096D01*
X119208655Y-69651094D01*
X118980413Y-69589938D01*
X118980403Y-69589936D01*
X118745001Y-69569341D01*
X118744999Y-69569341D01*
X118509596Y-69589936D01*
X118509586Y-69589938D01*
X118281344Y-69651094D01*
X118281335Y-69651098D01*
X118067171Y-69750964D01*
X118067169Y-69750965D01*
X117873597Y-69886505D01*
X117706505Y-70053597D01*
X117576575Y-70239158D01*
X117521998Y-70282783D01*
X117452500Y-70289977D01*
X117390145Y-70258454D01*
X117373425Y-70239158D01*
X117243494Y-70053597D01*
X117076402Y-69886506D01*
X117076395Y-69886501D01*
X116882834Y-69750967D01*
X116882830Y-69750965D01*
X116882828Y-69750964D01*
X116668663Y-69651097D01*
X116668659Y-69651096D01*
X116668655Y-69651094D01*
X116440413Y-69589938D01*
X116440403Y-69589936D01*
X116205001Y-69569341D01*
X116204999Y-69569341D01*
X115969596Y-69589936D01*
X115969586Y-69589938D01*
X115741344Y-69651094D01*
X115741335Y-69651098D01*
X115527171Y-69750964D01*
X115527169Y-69750965D01*
X115333597Y-69886505D01*
X115166505Y-70053597D01*
X115036575Y-70239158D01*
X114981998Y-70282783D01*
X114912500Y-70289977D01*
X114850145Y-70258454D01*
X114833425Y-70239158D01*
X114703494Y-70053597D01*
X114536402Y-69886506D01*
X114536395Y-69886501D01*
X114342834Y-69750967D01*
X114342830Y-69750965D01*
X114342828Y-69750964D01*
X114128663Y-69651097D01*
X114128659Y-69651096D01*
X114128655Y-69651094D01*
X113900413Y-69589938D01*
X113900403Y-69589936D01*
X113665001Y-69569341D01*
X113664999Y-69569341D01*
X113429596Y-69589936D01*
X113429586Y-69589938D01*
X113201344Y-69651094D01*
X113201335Y-69651098D01*
X112987171Y-69750964D01*
X112987169Y-69750965D01*
X112793600Y-69886503D01*
X112671673Y-70008430D01*
X112610350Y-70041914D01*
X112540658Y-70036930D01*
X112484725Y-69995058D01*
X112467810Y-69964081D01*
X112418797Y-69832671D01*
X112418793Y-69832664D01*
X112332547Y-69717455D01*
X112332544Y-69717452D01*
X112217335Y-69631206D01*
X112217328Y-69631202D01*
X112082482Y-69580908D01*
X112082483Y-69580908D01*
X112022883Y-69574501D01*
X112022881Y-69574500D01*
X112022873Y-69574500D01*
X112022864Y-69574500D01*
X110227129Y-69574500D01*
X110227123Y-69574501D01*
X110167516Y-69580908D01*
X110032671Y-69631202D01*
X110032664Y-69631206D01*
X109917455Y-69717452D01*
X109917452Y-69717455D01*
X109831206Y-69832664D01*
X109831202Y-69832671D01*
X109780908Y-69967517D01*
X109774501Y-70027116D01*
X109774500Y-70027135D01*
X108065500Y-70027135D01*
X108065500Y-65027135D01*
X109774500Y-65027135D01*
X109774500Y-66822870D01*
X109774501Y-66822876D01*
X109780908Y-66882483D01*
X109831202Y-67017328D01*
X109831206Y-67017335D01*
X109917452Y-67132544D01*
X109917455Y-67132547D01*
X110032664Y-67218793D01*
X110032671Y-67218797D01*
X110167517Y-67269091D01*
X110167516Y-67269091D01*
X110174444Y-67269835D01*
X110227127Y-67275500D01*
X112022872Y-67275499D01*
X112082483Y-67269091D01*
X112217331Y-67218796D01*
X112332546Y-67132546D01*
X112418796Y-67017331D01*
X112467810Y-66885916D01*
X112509681Y-66829984D01*
X112575145Y-66805566D01*
X112643418Y-66820417D01*
X112671673Y-66841569D01*
X112793599Y-66963495D01*
X112890384Y-67031265D01*
X112987165Y-67099032D01*
X112987167Y-67099033D01*
X112987170Y-67099035D01*
X113201337Y-67198903D01*
X113429592Y-67260063D01*
X113606034Y-67275500D01*
X113664999Y-67280659D01*
X113665000Y-67280659D01*
X113665001Y-67280659D01*
X113723966Y-67275500D01*
X113900408Y-67260063D01*
X114128663Y-67198903D01*
X114342830Y-67099035D01*
X114536401Y-66963495D01*
X114703495Y-66796401D01*
X114833425Y-66610842D01*
X114888002Y-66567217D01*
X114957500Y-66560023D01*
X115019855Y-66591546D01*
X115036575Y-66610842D01*
X115166500Y-66796395D01*
X115166505Y-66796401D01*
X115333599Y-66963495D01*
X115430384Y-67031265D01*
X115527165Y-67099032D01*
X115527167Y-67099033D01*
X115527170Y-67099035D01*
X115741337Y-67198903D01*
X115969592Y-67260063D01*
X116146034Y-67275500D01*
X116204999Y-67280659D01*
X116205000Y-67280659D01*
X116205001Y-67280659D01*
X116263966Y-67275500D01*
X116440408Y-67260063D01*
X116668663Y-67198903D01*
X116882830Y-67099035D01*
X117076401Y-66963495D01*
X117243495Y-66796401D01*
X117373425Y-66610842D01*
X117428002Y-66567217D01*
X117497500Y-66560023D01*
X117559855Y-66591546D01*
X117576575Y-66610842D01*
X117706500Y-66796395D01*
X117706505Y-66796401D01*
X117873599Y-66963495D01*
X117970384Y-67031265D01*
X118067165Y-67099032D01*
X118067167Y-67099033D01*
X118067170Y-67099035D01*
X118281337Y-67198903D01*
X118509592Y-67260063D01*
X118686034Y-67275500D01*
X118744999Y-67280659D01*
X118745000Y-67280659D01*
X118745001Y-67280659D01*
X118803966Y-67275500D01*
X118980408Y-67260063D01*
X119208663Y-67198903D01*
X119422830Y-67099035D01*
X119616401Y-66963495D01*
X119783495Y-66796401D01*
X119913425Y-66610842D01*
X119968002Y-66567217D01*
X120037500Y-66560023D01*
X120099855Y-66591546D01*
X120116575Y-66610842D01*
X120246500Y-66796395D01*
X120246505Y-66796401D01*
X120413599Y-66963495D01*
X120510384Y-67031265D01*
X120607165Y-67099032D01*
X120607167Y-67099033D01*
X120607170Y-67099035D01*
X120821337Y-67198903D01*
X121049592Y-67260063D01*
X121226034Y-67275500D01*
X121284999Y-67280659D01*
X121285000Y-67280659D01*
X121285001Y-67280659D01*
X121343966Y-67275500D01*
X121520408Y-67260063D01*
X121748663Y-67198903D01*
X121962830Y-67099035D01*
X122156401Y-66963495D01*
X122323495Y-66796401D01*
X122453425Y-66610842D01*
X122508002Y-66567217D01*
X122577500Y-66560023D01*
X122639855Y-66591546D01*
X122656575Y-66610842D01*
X122786500Y-66796395D01*
X122786505Y-66796401D01*
X122953599Y-66963495D01*
X123050384Y-67031265D01*
X123147165Y-67099032D01*
X123147167Y-67099033D01*
X123147170Y-67099035D01*
X123361337Y-67198903D01*
X123589592Y-67260063D01*
X123766034Y-67275500D01*
X123824999Y-67280659D01*
X123825000Y-67280659D01*
X123825001Y-67280659D01*
X123883966Y-67275500D01*
X124060408Y-67260063D01*
X124288663Y-67198903D01*
X124502830Y-67099035D01*
X124696401Y-66963495D01*
X124863495Y-66796401D01*
X124999035Y-66602830D01*
X125098903Y-66388663D01*
X125160063Y-66160408D01*
X125180659Y-65925000D01*
X125160063Y-65689592D01*
X125098903Y-65461337D01*
X124999035Y-65247171D01*
X124993425Y-65239158D01*
X124863494Y-65053597D01*
X124696402Y-64886506D01*
X124696395Y-64886501D01*
X124502834Y-64750967D01*
X124502830Y-64750965D01*
X124502828Y-64750964D01*
X124288663Y-64651097D01*
X124288659Y-64651096D01*
X124288655Y-64651094D01*
X124060413Y-64589938D01*
X124060403Y-64589936D01*
X123825001Y-64569341D01*
X123824999Y-64569341D01*
X123589596Y-64589936D01*
X123589586Y-64589938D01*
X123361344Y-64651094D01*
X123361335Y-64651098D01*
X123147171Y-64750964D01*
X123147169Y-64750965D01*
X122953597Y-64886505D01*
X122786505Y-65053597D01*
X122656575Y-65239158D01*
X122601998Y-65282783D01*
X122532500Y-65289977D01*
X122470145Y-65258454D01*
X122453425Y-65239158D01*
X122323494Y-65053597D01*
X122156402Y-64886506D01*
X122156395Y-64886501D01*
X121962834Y-64750967D01*
X121962830Y-64750965D01*
X121962828Y-64750964D01*
X121748663Y-64651097D01*
X121748659Y-64651096D01*
X121748655Y-64651094D01*
X121520413Y-64589938D01*
X121520403Y-64589936D01*
X121285001Y-64569341D01*
X121284999Y-64569341D01*
X121049596Y-64589936D01*
X121049586Y-64589938D01*
X120821344Y-64651094D01*
X120821335Y-64651098D01*
X120607171Y-64750964D01*
X120607169Y-64750965D01*
X120413597Y-64886505D01*
X120246505Y-65053597D01*
X120116575Y-65239158D01*
X120061998Y-65282783D01*
X119992500Y-65289977D01*
X119930145Y-65258454D01*
X119913425Y-65239158D01*
X119783494Y-65053597D01*
X119616402Y-64886506D01*
X119616395Y-64886501D01*
X119422834Y-64750967D01*
X119422830Y-64750965D01*
X119422828Y-64750964D01*
X119208663Y-64651097D01*
X119208659Y-64651096D01*
X119208655Y-64651094D01*
X118980413Y-64589938D01*
X118980403Y-64589936D01*
X118745001Y-64569341D01*
X118744999Y-64569341D01*
X118509596Y-64589936D01*
X118509586Y-64589938D01*
X118281344Y-64651094D01*
X118281335Y-64651098D01*
X118067171Y-64750964D01*
X118067169Y-64750965D01*
X117873597Y-64886505D01*
X117706505Y-65053597D01*
X117576575Y-65239158D01*
X117521998Y-65282783D01*
X117452500Y-65289977D01*
X117390145Y-65258454D01*
X117373425Y-65239158D01*
X117243494Y-65053597D01*
X117076402Y-64886506D01*
X117076395Y-64886501D01*
X116882834Y-64750967D01*
X116882830Y-64750965D01*
X116882828Y-64750964D01*
X116668663Y-64651097D01*
X116668659Y-64651096D01*
X116668655Y-64651094D01*
X116440413Y-64589938D01*
X116440403Y-64589936D01*
X116205001Y-64569341D01*
X116204999Y-64569341D01*
X115969596Y-64589936D01*
X115969586Y-64589938D01*
X115741344Y-64651094D01*
X115741335Y-64651098D01*
X115527171Y-64750964D01*
X115527169Y-64750965D01*
X115333597Y-64886505D01*
X115166505Y-65053597D01*
X115036575Y-65239158D01*
X114981998Y-65282783D01*
X114912500Y-65289977D01*
X114850145Y-65258454D01*
X114833425Y-65239158D01*
X114703494Y-65053597D01*
X114536402Y-64886506D01*
X114536395Y-64886501D01*
X114342834Y-64750967D01*
X114342830Y-64750965D01*
X114342828Y-64750964D01*
X114128663Y-64651097D01*
X114128659Y-64651096D01*
X114128655Y-64651094D01*
X113900413Y-64589938D01*
X113900403Y-64589936D01*
X113665001Y-64569341D01*
X113664999Y-64569341D01*
X113429596Y-64589936D01*
X113429586Y-64589938D01*
X113201344Y-64651094D01*
X113201335Y-64651098D01*
X112987171Y-64750964D01*
X112987169Y-64750965D01*
X112793600Y-64886503D01*
X112671673Y-65008430D01*
X112610350Y-65041914D01*
X112540658Y-65036930D01*
X112484725Y-64995058D01*
X112467810Y-64964081D01*
X112418797Y-64832671D01*
X112418793Y-64832664D01*
X112332547Y-64717455D01*
X112332544Y-64717452D01*
X112217335Y-64631206D01*
X112217328Y-64631202D01*
X112082482Y-64580908D01*
X112082483Y-64580908D01*
X112022883Y-64574501D01*
X112022881Y-64574500D01*
X112022873Y-64574500D01*
X112022864Y-64574500D01*
X110227129Y-64574500D01*
X110227123Y-64574501D01*
X110167516Y-64580908D01*
X110032671Y-64631202D01*
X110032664Y-64631206D01*
X109917455Y-64717452D01*
X109917452Y-64717455D01*
X109831206Y-64832664D01*
X109831202Y-64832671D01*
X109780908Y-64967517D01*
X109774501Y-65027116D01*
X109774500Y-65027135D01*
X108065500Y-65027135D01*
X108065500Y-58031079D01*
X108036659Y-57886092D01*
X108036658Y-57886091D01*
X108036658Y-57886087D01*
X107987942Y-57768476D01*
X107980087Y-57749511D01*
X107980080Y-57749498D01*
X107897952Y-57626585D01*
X107887104Y-57615737D01*
X107793416Y-57522049D01*
X106575344Y-56303977D01*
X105226716Y-54955348D01*
X105193231Y-54894025D01*
X105190869Y-54856863D01*
X105205468Y-54690000D01*
X105185635Y-54463308D01*
X105126739Y-54243504D01*
X105030568Y-54037266D01*
X104900047Y-53850861D01*
X104900045Y-53850858D01*
X104739141Y-53689954D01*
X104552734Y-53559432D01*
X104552728Y-53559429D01*
X104494725Y-53532382D01*
X104442285Y-53486210D01*
X104423133Y-53419017D01*
X104443348Y-53352135D01*
X104494725Y-53307618D01*
X104552734Y-53280568D01*
X104739139Y-53150047D01*
X104900047Y-52989139D01*
X105030568Y-52802734D01*
X105126739Y-52596496D01*
X105185635Y-52376692D01*
X105205468Y-52150000D01*
X105185635Y-51923308D01*
X105126739Y-51703504D01*
X105030568Y-51497266D01*
X104900047Y-51310861D01*
X104900045Y-51310858D01*
X104739141Y-51149954D01*
X104552734Y-51019432D01*
X104552732Y-51019431D01*
X104494725Y-50992382D01*
X104494132Y-50992105D01*
X104441694Y-50945934D01*
X104422542Y-50878740D01*
X104442758Y-50811859D01*
X104494134Y-50767341D01*
X104552484Y-50740132D01*
X104738820Y-50609657D01*
X104899657Y-50448820D01*
X105030134Y-50262482D01*
X105126265Y-50056326D01*
X105126269Y-50056317D01*
X105178872Y-49860000D01*
X104215686Y-49860000D01*
X104220080Y-49855606D01*
X104272741Y-49764394D01*
X104300000Y-49662661D01*
X104300000Y-49557339D01*
X104272741Y-49455606D01*
X104220080Y-49364394D01*
X104215686Y-49360000D01*
X105178872Y-49360000D01*
X105178872Y-49359999D01*
X105126269Y-49163682D01*
X105126265Y-49163673D01*
X105030134Y-48957517D01*
X104899657Y-48771179D01*
X104738820Y-48610342D01*
X104552482Y-48479865D01*
X104494133Y-48452657D01*
X104441694Y-48406484D01*
X104422542Y-48339291D01*
X104442758Y-48272410D01*
X104494129Y-48227895D01*
X104552734Y-48200568D01*
X104739139Y-48070047D01*
X104900047Y-47909139D01*
X105030568Y-47722734D01*
X105033179Y-47717135D01*
X109774500Y-47717135D01*
X109774500Y-49512870D01*
X109774501Y-49512876D01*
X109780908Y-49572483D01*
X109831202Y-49707328D01*
X109831206Y-49707335D01*
X109917452Y-49822544D01*
X109917455Y-49822547D01*
X110032664Y-49908793D01*
X110032671Y-49908797D01*
X110167517Y-49959091D01*
X110167516Y-49959091D01*
X110174444Y-49959835D01*
X110227127Y-49965500D01*
X112022872Y-49965499D01*
X112082483Y-49959091D01*
X112217331Y-49908796D01*
X112332546Y-49822546D01*
X112418796Y-49707331D01*
X112467810Y-49575916D01*
X112509681Y-49519984D01*
X112575145Y-49495566D01*
X112643418Y-49510417D01*
X112671673Y-49531569D01*
X112793599Y-49653495D01*
X112890384Y-49721265D01*
X112987165Y-49789032D01*
X112987167Y-49789033D01*
X112987170Y-49789035D01*
X113201337Y-49888903D01*
X113429592Y-49950063D01*
X113606034Y-49965500D01*
X113664999Y-49970659D01*
X113665000Y-49970659D01*
X113665001Y-49970659D01*
X113723966Y-49965500D01*
X113900408Y-49950063D01*
X114089408Y-49899421D01*
X114159256Y-49901084D01*
X114217119Y-49940247D01*
X114244623Y-50004475D01*
X114245500Y-50019196D01*
X114245500Y-56148951D01*
X114245479Y-56229909D01*
X114245496Y-56230044D01*
X114265306Y-56303977D01*
X114265313Y-56304004D01*
X114286363Y-56382642D01*
X114286395Y-56382717D01*
X114286421Y-56382782D01*
X114291084Y-56390858D01*
X114326223Y-56451721D01*
X114326231Y-56451752D01*
X114326239Y-56451748D01*
X114365389Y-56519598D01*
X114365481Y-56519717D01*
X114422370Y-56576606D01*
X114422386Y-56576635D01*
X114422393Y-56576629D01*
X115876106Y-58031082D01*
X115981295Y-58136324D01*
X116014764Y-58197656D01*
X116016811Y-58210099D01*
X116026630Y-58297249D01*
X116086210Y-58467521D01*
X116133801Y-58543261D01*
X116182184Y-58620262D01*
X116309738Y-58747816D01*
X116462478Y-58843789D01*
X116632745Y-58903368D01*
X116632750Y-58903369D01*
X116811996Y-58923565D01*
X116812000Y-58923565D01*
X116812004Y-58923565D01*
X116991249Y-58903369D01*
X116991252Y-58903368D01*
X116991255Y-58903368D01*
X117161522Y-58843789D01*
X117314262Y-58747816D01*
X117441816Y-58620262D01*
X117537789Y-58467522D01*
X117597368Y-58297255D01*
X117597369Y-58297249D01*
X117617565Y-58118003D01*
X117617565Y-58117996D01*
X117597369Y-57938750D01*
X117597368Y-57938745D01*
X117537788Y-57768476D01*
X117479988Y-57676488D01*
X117441816Y-57615738D01*
X117314262Y-57488184D01*
X117264133Y-57456686D01*
X117161521Y-57392210D01*
X116991249Y-57332630D01*
X116904564Y-57322863D01*
X116840150Y-57295796D01*
X116830744Y-57287302D01*
X115482796Y-55938667D01*
X115449327Y-55877335D01*
X115446500Y-55851008D01*
X115446500Y-49946059D01*
X115466185Y-49879020D01*
X115518989Y-49833265D01*
X115588147Y-49823321D01*
X115622904Y-49833676D01*
X115741337Y-49888903D01*
X115969592Y-49950063D01*
X116146034Y-49965500D01*
X116204999Y-49970659D01*
X116205000Y-49970659D01*
X116205001Y-49970659D01*
X116263966Y-49965500D01*
X116440408Y-49950063D01*
X116668663Y-49888903D01*
X116882830Y-49789035D01*
X117076401Y-49653495D01*
X117243495Y-49486401D01*
X117373425Y-49300842D01*
X117428002Y-49257217D01*
X117497500Y-49250023D01*
X117559855Y-49281546D01*
X117576575Y-49300842D01*
X117706500Y-49486395D01*
X117706505Y-49486401D01*
X117873599Y-49653495D01*
X117970384Y-49721265D01*
X118067165Y-49789032D01*
X118067167Y-49789033D01*
X118067170Y-49789035D01*
X118281337Y-49888903D01*
X118509592Y-49950063D01*
X118686034Y-49965500D01*
X118744999Y-49970659D01*
X118745000Y-49970659D01*
X118745001Y-49970659D01*
X118803966Y-49965500D01*
X118980408Y-49950063D01*
X119208663Y-49888903D01*
X119422830Y-49789035D01*
X119616401Y-49653495D01*
X119783495Y-49486401D01*
X119913425Y-49300842D01*
X119968002Y-49257217D01*
X120037500Y-49250023D01*
X120099855Y-49281546D01*
X120116575Y-49300842D01*
X120246500Y-49486395D01*
X120246505Y-49486401D01*
X120413599Y-49653495D01*
X120510384Y-49721265D01*
X120607165Y-49789032D01*
X120607167Y-49789033D01*
X120607170Y-49789035D01*
X120821337Y-49888903D01*
X121049592Y-49950063D01*
X121226034Y-49965500D01*
X121284999Y-49970659D01*
X121285000Y-49970659D01*
X121285001Y-49970659D01*
X121343966Y-49965500D01*
X121520408Y-49950063D01*
X121748663Y-49888903D01*
X121962830Y-49789035D01*
X122156401Y-49653495D01*
X122323495Y-49486401D01*
X122453425Y-49300842D01*
X122508002Y-49257217D01*
X122577500Y-49250023D01*
X122639855Y-49281546D01*
X122656575Y-49300842D01*
X122786500Y-49486395D01*
X122786505Y-49486401D01*
X122953599Y-49653495D01*
X123050384Y-49721265D01*
X123147165Y-49789032D01*
X123147167Y-49789033D01*
X123147170Y-49789035D01*
X123361337Y-49888903D01*
X123589592Y-49950063D01*
X123766034Y-49965500D01*
X123824999Y-49970659D01*
X123825000Y-49970659D01*
X123825001Y-49970659D01*
X123883966Y-49965500D01*
X124060408Y-49950063D01*
X124288663Y-49888903D01*
X124502830Y-49789035D01*
X124696401Y-49653495D01*
X124863495Y-49486401D01*
X124999035Y-49292830D01*
X125098903Y-49078663D01*
X125160063Y-48850408D01*
X125180659Y-48615000D01*
X125180251Y-48610342D01*
X125168798Y-48479429D01*
X125160063Y-48379592D01*
X125098903Y-48151337D01*
X124999035Y-47937171D01*
X124993425Y-47929158D01*
X124863494Y-47743597D01*
X124696402Y-47576506D01*
X124696395Y-47576501D01*
X124502834Y-47440967D01*
X124502830Y-47440965D01*
X124502828Y-47440964D01*
X124288663Y-47341097D01*
X124288659Y-47341096D01*
X124288655Y-47341094D01*
X124060413Y-47279938D01*
X124060403Y-47279936D01*
X123825001Y-47259341D01*
X123824999Y-47259341D01*
X123589596Y-47279936D01*
X123589586Y-47279938D01*
X123361344Y-47341094D01*
X123361335Y-47341098D01*
X123147171Y-47440964D01*
X123147169Y-47440965D01*
X122953597Y-47576505D01*
X122786505Y-47743597D01*
X122656575Y-47929158D01*
X122601998Y-47972783D01*
X122532500Y-47979977D01*
X122470145Y-47948454D01*
X122453425Y-47929158D01*
X122323494Y-47743597D01*
X122156402Y-47576506D01*
X122156395Y-47576501D01*
X121962834Y-47440967D01*
X121962830Y-47440965D01*
X121962828Y-47440964D01*
X121748663Y-47341097D01*
X121748659Y-47341096D01*
X121748655Y-47341094D01*
X121520413Y-47279938D01*
X121520403Y-47279936D01*
X121285001Y-47259341D01*
X121284999Y-47259341D01*
X121049596Y-47279936D01*
X121049586Y-47279938D01*
X120821344Y-47341094D01*
X120821335Y-47341098D01*
X120607171Y-47440964D01*
X120607169Y-47440965D01*
X120413597Y-47576505D01*
X120246505Y-47743597D01*
X120116575Y-47929158D01*
X120061998Y-47972783D01*
X119992500Y-47979977D01*
X119930145Y-47948454D01*
X119913425Y-47929158D01*
X119783494Y-47743597D01*
X119616402Y-47576506D01*
X119616395Y-47576501D01*
X119422834Y-47440967D01*
X119422830Y-47440965D01*
X119422828Y-47440964D01*
X119208663Y-47341097D01*
X119208659Y-47341096D01*
X119208655Y-47341094D01*
X118980413Y-47279938D01*
X118980403Y-47279936D01*
X118745001Y-47259341D01*
X118744999Y-47259341D01*
X118509596Y-47279936D01*
X118509586Y-47279938D01*
X118281344Y-47341094D01*
X118281335Y-47341098D01*
X118067171Y-47440964D01*
X118067169Y-47440965D01*
X117873597Y-47576505D01*
X117706505Y-47743597D01*
X117576575Y-47929158D01*
X117521998Y-47972783D01*
X117452500Y-47979977D01*
X117390145Y-47948454D01*
X117373425Y-47929158D01*
X117243494Y-47743597D01*
X117076402Y-47576506D01*
X117076395Y-47576501D01*
X116882834Y-47440967D01*
X116882830Y-47440965D01*
X116882828Y-47440964D01*
X116668663Y-47341097D01*
X116668659Y-47341096D01*
X116668655Y-47341094D01*
X116440413Y-47279938D01*
X116440403Y-47279936D01*
X116205001Y-47259341D01*
X116204999Y-47259341D01*
X115969596Y-47279936D01*
X115969586Y-47279938D01*
X115741344Y-47341094D01*
X115741335Y-47341098D01*
X115622905Y-47396323D01*
X115553827Y-47406815D01*
X115490043Y-47378295D01*
X115451804Y-47319819D01*
X115446500Y-47283941D01*
X115446500Y-45363336D01*
X115466185Y-45296297D01*
X115482819Y-45275655D01*
X115573828Y-45184646D01*
X115689524Y-45025405D01*
X115778884Y-44850025D01*
X115839709Y-44662826D01*
X115870500Y-44468422D01*
X115870500Y-44271577D01*
X115845793Y-44115592D01*
X115839709Y-44077174D01*
X115839708Y-44077172D01*
X115839210Y-44074025D01*
X115848164Y-44004732D01*
X115873992Y-43966956D01*
X115988852Y-43852084D01*
X116048739Y-43792197D01*
X116050548Y-43790463D01*
X116050552Y-43790459D01*
X116051687Y-43788402D01*
X116086420Y-43728234D01*
X116086423Y-43728229D01*
X116107997Y-43690861D01*
X116115075Y-43678602D01*
X116165639Y-43630387D01*
X116206271Y-43617664D01*
X116412238Y-43590548D01*
X116633887Y-43531158D01*
X116845888Y-43443344D01*
X117044612Y-43328611D01*
X117226661Y-43188919D01*
X117226665Y-43188914D01*
X117226670Y-43188911D01*
X117388911Y-43026670D01*
X117388914Y-43026665D01*
X117388919Y-43026661D01*
X117528611Y-42844612D01*
X117643344Y-42645888D01*
X117731158Y-42433887D01*
X117790548Y-42212238D01*
X117820500Y-41984734D01*
X117820500Y-41755266D01*
X117790548Y-41527762D01*
X117731158Y-41306113D01*
X117643344Y-41094112D01*
X117528611Y-40895388D01*
X117528608Y-40895385D01*
X117528607Y-40895382D01*
X117388918Y-40713338D01*
X117388911Y-40713330D01*
X117226670Y-40551089D01*
X117226661Y-40551081D01*
X117044617Y-40411392D01*
X116845890Y-40296657D01*
X116845876Y-40296650D01*
X116633887Y-40208842D01*
X116412238Y-40149452D01*
X116374215Y-40144446D01*
X116184741Y-40119500D01*
X116184734Y-40119500D01*
X114955266Y-40119500D01*
X114955258Y-40119500D01*
X114738715Y-40148009D01*
X114727762Y-40149452D01*
X114634076Y-40174554D01*
X114506112Y-40208842D01*
X114294123Y-40296650D01*
X114294109Y-40296657D01*
X114095382Y-40411392D01*
X113913338Y-40551081D01*
X113751081Y-40713338D01*
X113611392Y-40895382D01*
X113496657Y-41094109D01*
X113496650Y-41094123D01*
X113408842Y-41306112D01*
X113349453Y-41527759D01*
X113349451Y-41527770D01*
X113319500Y-41755258D01*
X113319500Y-41984741D01*
X113344446Y-42174215D01*
X113349452Y-42212238D01*
X113349453Y-42212240D01*
X113408842Y-42433887D01*
X113496650Y-42645876D01*
X113496657Y-42645890D01*
X113611389Y-42844612D01*
X113669247Y-42920013D01*
X113694441Y-42985183D01*
X113680403Y-43053627D01*
X113631589Y-43103617D01*
X113570871Y-43119500D01*
X113021578Y-43119500D01*
X112827173Y-43150290D01*
X112639970Y-43211117D01*
X112464594Y-43300476D01*
X112373741Y-43366485D01*
X112305354Y-43416172D01*
X112305352Y-43416174D01*
X112305351Y-43416174D01*
X112166174Y-43555351D01*
X112166174Y-43555352D01*
X112166172Y-43555354D01*
X112140602Y-43590548D01*
X112050476Y-43714594D01*
X111961117Y-43889970D01*
X111900290Y-44077173D01*
X111869500Y-44271577D01*
X111869500Y-44468422D01*
X111900290Y-44662826D01*
X111961117Y-44850029D01*
X112025556Y-44976497D01*
X112050476Y-45025405D01*
X112166172Y-45184646D01*
X112305354Y-45323828D01*
X112464595Y-45439524D01*
X112547455Y-45481743D01*
X112639970Y-45528882D01*
X112639972Y-45528882D01*
X112639975Y-45528884D01*
X112740317Y-45561487D01*
X112827173Y-45589709D01*
X113021578Y-45620500D01*
X113021583Y-45620500D01*
X114121500Y-45620500D01*
X114188539Y-45640185D01*
X114234294Y-45692989D01*
X114245500Y-45744500D01*
X114245500Y-47210803D01*
X114225815Y-47277842D01*
X114173011Y-47323597D01*
X114103853Y-47333541D01*
X114089407Y-47330578D01*
X113900413Y-47279938D01*
X113900403Y-47279936D01*
X113665001Y-47259341D01*
X113664999Y-47259341D01*
X113429596Y-47279936D01*
X113429586Y-47279938D01*
X113201344Y-47341094D01*
X113201335Y-47341098D01*
X112987171Y-47440964D01*
X112987169Y-47440965D01*
X112793600Y-47576503D01*
X112671673Y-47698430D01*
X112610350Y-47731914D01*
X112540658Y-47726930D01*
X112484725Y-47685058D01*
X112467810Y-47654081D01*
X112418797Y-47522671D01*
X112418793Y-47522664D01*
X112332547Y-47407455D01*
X112332544Y-47407452D01*
X112217335Y-47321206D01*
X112217328Y-47321202D01*
X112082482Y-47270908D01*
X112082483Y-47270908D01*
X112022883Y-47264501D01*
X112022881Y-47264500D01*
X112022873Y-47264500D01*
X112022864Y-47264500D01*
X110227129Y-47264500D01*
X110227123Y-47264501D01*
X110167516Y-47270908D01*
X110032671Y-47321202D01*
X110032664Y-47321206D01*
X109917455Y-47407452D01*
X109917452Y-47407455D01*
X109831206Y-47522664D01*
X109831202Y-47522671D01*
X109780908Y-47657517D01*
X109774501Y-47717116D01*
X109774500Y-47717135D01*
X105033179Y-47717135D01*
X105126739Y-47516496D01*
X105185635Y-47296692D01*
X105205468Y-47070000D01*
X105185635Y-46843308D01*
X105126739Y-46623504D01*
X105030568Y-46417266D01*
X104900047Y-46230861D01*
X104900045Y-46230858D01*
X104739141Y-46069954D01*
X104552734Y-45939432D01*
X104552728Y-45939429D01*
X104494725Y-45912382D01*
X104442285Y-45866210D01*
X104423133Y-45799017D01*
X104443348Y-45732135D01*
X104494725Y-45687618D01*
X104552734Y-45660568D01*
X104739139Y-45530047D01*
X104900047Y-45369139D01*
X105030568Y-45182734D01*
X105126739Y-44976496D01*
X105185635Y-44756692D01*
X105205468Y-44530000D01*
X105185635Y-44303308D01*
X105126739Y-44083504D01*
X105030568Y-43877266D01*
X104900047Y-43690861D01*
X104900045Y-43690858D01*
X104739141Y-43529954D01*
X104552734Y-43399432D01*
X104552732Y-43399431D01*
X104346497Y-43303261D01*
X104346488Y-43303258D01*
X104126697Y-43244366D01*
X104126693Y-43244365D01*
X104126692Y-43244365D01*
X104126691Y-43244364D01*
X104126686Y-43244364D01*
X103900002Y-43224532D01*
X103899998Y-43224532D01*
X103673313Y-43244364D01*
X103673302Y-43244366D01*
X103453511Y-43303258D01*
X103453502Y-43303261D01*
X103247267Y-43399431D01*
X103247265Y-43399432D01*
X103060858Y-43529954D01*
X102899954Y-43690858D01*
X102769432Y-43877265D01*
X102769431Y-43877267D01*
X102673261Y-44083502D01*
X102673258Y-44083511D01*
X102614366Y-44303302D01*
X102614364Y-44303313D01*
X102594532Y-44529998D01*
X102594532Y-44530001D01*
X102614364Y-44756686D01*
X102614366Y-44756697D01*
X102673258Y-44976488D01*
X102673261Y-44976497D01*
X102769431Y-45182732D01*
X102769432Y-45182734D01*
X102899954Y-45369141D01*
X103060858Y-45530045D01*
X103060861Y-45530047D01*
X103247266Y-45660568D01*
X103305275Y-45687618D01*
X103357714Y-45733791D01*
X103376866Y-45800984D01*
X103356650Y-45867865D01*
X103305275Y-45912382D01*
X103247267Y-45939431D01*
X103247265Y-45939432D01*
X103060858Y-46069954D01*
X102899954Y-46230858D01*
X102769432Y-46417265D01*
X102769431Y-46417267D01*
X102673261Y-46623502D01*
X102673258Y-46623511D01*
X102614366Y-46843302D01*
X102614364Y-46843313D01*
X102594532Y-47069998D01*
X102594532Y-47070001D01*
X102614364Y-47296686D01*
X102614366Y-47296697D01*
X102673258Y-47516488D01*
X102673261Y-47516497D01*
X102769431Y-47722732D01*
X102769432Y-47722734D01*
X102899954Y-47909141D01*
X103060858Y-48070045D01*
X103060861Y-48070047D01*
X103247266Y-48200568D01*
X103305865Y-48227893D01*
X103358305Y-48274065D01*
X103377457Y-48341258D01*
X103357242Y-48408139D01*
X103305867Y-48452657D01*
X103247515Y-48479867D01*
X103061179Y-48610342D01*
X102900342Y-48771179D01*
X102769865Y-48957517D01*
X102673734Y-49163673D01*
X102673730Y-49163682D01*
X102621127Y-49359999D01*
X102621128Y-49360000D01*
X103584314Y-49360000D01*
X103579920Y-49364394D01*
X103527259Y-49455606D01*
X103500000Y-49557339D01*
X103500000Y-49662661D01*
X103527259Y-49764394D01*
X103579920Y-49855606D01*
X103584314Y-49860000D01*
X102621128Y-49860000D01*
X102673730Y-50056317D01*
X102673734Y-50056326D01*
X102769865Y-50262482D01*
X102900342Y-50448820D01*
X103061179Y-50609657D01*
X103247518Y-50740134D01*
X103247520Y-50740135D01*
X103305865Y-50767342D01*
X103358305Y-50813514D01*
X103377457Y-50880707D01*
X103357242Y-50947589D01*
X103305867Y-50992105D01*
X103247268Y-51019431D01*
X103247264Y-51019433D01*
X103060858Y-51149954D01*
X102899954Y-51310858D01*
X102769432Y-51497265D01*
X102769431Y-51497267D01*
X102673261Y-51703502D01*
X102673258Y-51703511D01*
X102614366Y-51923302D01*
X102614364Y-51923313D01*
X102594532Y-52149998D01*
X102594532Y-52150001D01*
X102614364Y-52376686D01*
X102614366Y-52376697D01*
X102673258Y-52596488D01*
X102673261Y-52596497D01*
X102769431Y-52802732D01*
X102769432Y-52802734D01*
X102899954Y-52989141D01*
X103060858Y-53150045D01*
X103060861Y-53150047D01*
X103247266Y-53280568D01*
X103305275Y-53307618D01*
X103357714Y-53353791D01*
X103376866Y-53420984D01*
X103356650Y-53487865D01*
X103305275Y-53532382D01*
X103247267Y-53559431D01*
X103247265Y-53559432D01*
X103060858Y-53689954D01*
X102899954Y-53850858D01*
X102769432Y-54037265D01*
X102769431Y-54037267D01*
X102673261Y-54243502D01*
X102673258Y-54243511D01*
X102614366Y-54463302D01*
X102614364Y-54463313D01*
X102594532Y-54689998D01*
X102594532Y-54690001D01*
X102614364Y-54916686D01*
X102614366Y-54916697D01*
X102673258Y-55136488D01*
X102673261Y-55136497D01*
X102769431Y-55342732D01*
X102769432Y-55342734D01*
X102899954Y-55529141D01*
X103060858Y-55690045D01*
X103060861Y-55690047D01*
X103247266Y-55820568D01*
X103305275Y-55847618D01*
X103357714Y-55893791D01*
X103376866Y-55960984D01*
X103356650Y-56027865D01*
X103305275Y-56072382D01*
X103247267Y-56099431D01*
X103247265Y-56099432D01*
X103060858Y-56229954D01*
X102899954Y-56390858D01*
X102769432Y-56577265D01*
X102769431Y-56577267D01*
X102673261Y-56783502D01*
X102673258Y-56783511D01*
X102614366Y-57003302D01*
X102614364Y-57003313D01*
X102594532Y-57229998D01*
X102594532Y-57230001D01*
X102614364Y-57456686D01*
X102614366Y-57456697D01*
X102673258Y-57676488D01*
X102673261Y-57676497D01*
X102769431Y-57882732D01*
X102769432Y-57882734D01*
X102899954Y-58069141D01*
X103060858Y-58230045D01*
X103060861Y-58230047D01*
X103247266Y-58360568D01*
X103305275Y-58387618D01*
X103357714Y-58433791D01*
X103376866Y-58500984D01*
X103356650Y-58567865D01*
X103305275Y-58612382D01*
X103247267Y-58639431D01*
X103247265Y-58639432D01*
X103060858Y-58769954D01*
X102899954Y-58930858D01*
X102769432Y-59117265D01*
X102769431Y-59117267D01*
X102673261Y-59323502D01*
X102673258Y-59323511D01*
X102614366Y-59543302D01*
X102614364Y-59543313D01*
X102594532Y-59769998D01*
X102594532Y-59770001D01*
X102614364Y-59996686D01*
X102614366Y-59996697D01*
X102673258Y-60216488D01*
X102673261Y-60216497D01*
X102769431Y-60422732D01*
X102769432Y-60422734D01*
X102899954Y-60609141D01*
X103060858Y-60770045D01*
X103060861Y-60770047D01*
X103247266Y-60900568D01*
X103305865Y-60927893D01*
X103358305Y-60974065D01*
X103377457Y-61041258D01*
X103357242Y-61108139D01*
X103305867Y-61152657D01*
X103247515Y-61179867D01*
X103061179Y-61310342D01*
X102900342Y-61471179D01*
X102769865Y-61657517D01*
X102673734Y-61863673D01*
X102673730Y-61863682D01*
X102621127Y-62059999D01*
X102621128Y-62060000D01*
X103584314Y-62060000D01*
X103579920Y-62064394D01*
X103527259Y-62155606D01*
X103500000Y-62257339D01*
X103500000Y-62362661D01*
X103527259Y-62464394D01*
X103579920Y-62555606D01*
X103584314Y-62560000D01*
X102621128Y-62560000D01*
X102673730Y-62756317D01*
X102673734Y-62756326D01*
X102769865Y-62962482D01*
X102900342Y-63148820D01*
X103061179Y-63309657D01*
X103247518Y-63440134D01*
X103247520Y-63440135D01*
X103305865Y-63467342D01*
X103358305Y-63513514D01*
X103377457Y-63580707D01*
X103357242Y-63647589D01*
X103305867Y-63692105D01*
X103247268Y-63719431D01*
X103247264Y-63719433D01*
X103060858Y-63849954D01*
X102899954Y-64010858D01*
X102769432Y-64197265D01*
X102769431Y-64197267D01*
X102673261Y-64403502D01*
X102673258Y-64403511D01*
X102614366Y-64623302D01*
X102614364Y-64623313D01*
X102594532Y-64849998D01*
X102594532Y-64850001D01*
X102614364Y-65076686D01*
X102614366Y-65076697D01*
X102673258Y-65296488D01*
X102673261Y-65296497D01*
X102769431Y-65502732D01*
X102769432Y-65502734D01*
X102899954Y-65689141D01*
X103060858Y-65850045D01*
X103060861Y-65850047D01*
X103247266Y-65980568D01*
X103305275Y-66007618D01*
X103357714Y-66053791D01*
X103376866Y-66120984D01*
X103356650Y-66187865D01*
X103305275Y-66232382D01*
X103247267Y-66259431D01*
X103247265Y-66259432D01*
X103060858Y-66389954D01*
X102899954Y-66550858D01*
X102769432Y-66737265D01*
X102769431Y-66737267D01*
X102673261Y-66943502D01*
X102673258Y-66943511D01*
X102614366Y-67163302D01*
X102614364Y-67163313D01*
X102594532Y-67389998D01*
X102594532Y-67390001D01*
X102614364Y-67616686D01*
X102614366Y-67616697D01*
X102673258Y-67836488D01*
X102673261Y-67836497D01*
X102769431Y-68042732D01*
X102769432Y-68042734D01*
X102899954Y-68229141D01*
X103060858Y-68390045D01*
X103060861Y-68390047D01*
X103247266Y-68520568D01*
X103305275Y-68547618D01*
X103357714Y-68593791D01*
X103376866Y-68660984D01*
X103356650Y-68727865D01*
X103305275Y-68772382D01*
X103247267Y-68799431D01*
X103247265Y-68799432D01*
X103060858Y-68929954D01*
X102899954Y-69090858D01*
X102769432Y-69277265D01*
X102769431Y-69277267D01*
X102673261Y-69483502D01*
X102673258Y-69483511D01*
X102614366Y-69703302D01*
X102614364Y-69703313D01*
X102594532Y-69929998D01*
X102594532Y-69930001D01*
X102614364Y-70156686D01*
X102614366Y-70156697D01*
X102673258Y-70376488D01*
X102673261Y-70376497D01*
X102769431Y-70582732D01*
X102769432Y-70582734D01*
X102899954Y-70769141D01*
X103060858Y-70930045D01*
X103060861Y-70930047D01*
X103247266Y-71060568D01*
X103305275Y-71087618D01*
X103357714Y-71133791D01*
X103376866Y-71200984D01*
X103356650Y-71267865D01*
X103305275Y-71312382D01*
X103247267Y-71339431D01*
X103247265Y-71339432D01*
X103060858Y-71469954D01*
X102899954Y-71630858D01*
X102769432Y-71817265D01*
X102769431Y-71817267D01*
X102673261Y-72023502D01*
X102673258Y-72023511D01*
X102614366Y-72243302D01*
X102614364Y-72243313D01*
X102594532Y-72469998D01*
X102594532Y-72470001D01*
X102614364Y-72696686D01*
X102614366Y-72696697D01*
X102673258Y-72916488D01*
X102673261Y-72916497D01*
X102769431Y-73122732D01*
X102769432Y-73122734D01*
X102899954Y-73309141D01*
X103060858Y-73470045D01*
X103060861Y-73470047D01*
X103247266Y-73600568D01*
X103305865Y-73627893D01*
X103358305Y-73674065D01*
X103377457Y-73741258D01*
X103357242Y-73808139D01*
X103305867Y-73852657D01*
X103247515Y-73879867D01*
X103061179Y-74010342D01*
X102900342Y-74171179D01*
X102769865Y-74357517D01*
X102673734Y-74563673D01*
X102673730Y-74563682D01*
X102621127Y-74759999D01*
X102621128Y-74760000D01*
X103584314Y-74760000D01*
X103579920Y-74764394D01*
X103527259Y-74855606D01*
X103500000Y-74957339D01*
X103500000Y-75062661D01*
X103527259Y-75164394D01*
X103579920Y-75255606D01*
X103584314Y-75260000D01*
X102621128Y-75260000D01*
X102673730Y-75456317D01*
X102673734Y-75456326D01*
X102769865Y-75662482D01*
X102900342Y-75848820D01*
X103061179Y-76009657D01*
X103247518Y-76140134D01*
X103247520Y-76140135D01*
X103305865Y-76167342D01*
X103358305Y-76213514D01*
X103377457Y-76280707D01*
X103357242Y-76347589D01*
X103305867Y-76392105D01*
X103247268Y-76419431D01*
X103247264Y-76419433D01*
X103060858Y-76549954D01*
X102899954Y-76710858D01*
X102769432Y-76897265D01*
X102769431Y-76897267D01*
X102673261Y-77103502D01*
X102673258Y-77103511D01*
X102614366Y-77323302D01*
X102614364Y-77323313D01*
X102594532Y-77549998D01*
X102594532Y-77550001D01*
X102614364Y-77776686D01*
X102614366Y-77776697D01*
X102673258Y-77996488D01*
X102673261Y-77996497D01*
X102769431Y-78202732D01*
X102769432Y-78202734D01*
X102899954Y-78389141D01*
X103060858Y-78550045D01*
X103060861Y-78550047D01*
X103247266Y-78680568D01*
X103305275Y-78707618D01*
X103357714Y-78753791D01*
X103376866Y-78820984D01*
X103356650Y-78887865D01*
X103305275Y-78932382D01*
X103247267Y-78959431D01*
X103247265Y-78959432D01*
X103060858Y-79089954D01*
X102899954Y-79250858D01*
X102769432Y-79437265D01*
X102769431Y-79437267D01*
X102673261Y-79643502D01*
X102673258Y-79643511D01*
X102614366Y-79863302D01*
X102614364Y-79863313D01*
X102594532Y-80089998D01*
X102594532Y-80090001D01*
X102614364Y-80316686D01*
X102614366Y-80316697D01*
X102673258Y-80536488D01*
X102673261Y-80536497D01*
X102769431Y-80742732D01*
X102769432Y-80742734D01*
X102899954Y-80929141D01*
X103060858Y-81090045D01*
X103060861Y-81090047D01*
X103247266Y-81220568D01*
X103300943Y-81245598D01*
X103305275Y-81247618D01*
X103357714Y-81293791D01*
X103376866Y-81360984D01*
X103356650Y-81427865D01*
X103305275Y-81472382D01*
X103247267Y-81499431D01*
X103247265Y-81499432D01*
X103060858Y-81629954D01*
X102899954Y-81790858D01*
X102769432Y-81977265D01*
X102769431Y-81977267D01*
X102673261Y-82183502D01*
X102673258Y-82183511D01*
X102614366Y-82403302D01*
X102614364Y-82403313D01*
X102594532Y-82629998D01*
X102594532Y-82630001D01*
X102614364Y-82856686D01*
X102614366Y-82856697D01*
X102673258Y-83076488D01*
X102673261Y-83076497D01*
X102771720Y-83287640D01*
X102770453Y-83288230D01*
X102785366Y-83349699D01*
X102762514Y-83415726D01*
X102707593Y-83458917D01*
X102661506Y-83467800D01*
X88382457Y-83467800D01*
X88224343Y-83467800D01*
X88071615Y-83508723D01*
X88041867Y-83525898D01*
X88033895Y-83530501D01*
X88033894Y-83530500D01*
X87934687Y-83587777D01*
X87934682Y-83587781D01*
X87822878Y-83699586D01*
X87233506Y-84288957D01*
X87172183Y-84322442D01*
X87102491Y-84317458D01*
X87058144Y-84288957D01*
X86939141Y-84169954D01*
X86752734Y-84039432D01*
X86752728Y-84039429D01*
X86694725Y-84012382D01*
X86642285Y-83966210D01*
X86623133Y-83899017D01*
X86643348Y-83832135D01*
X86694725Y-83787618D01*
X86752734Y-83760568D01*
X86939139Y-83630047D01*
X87100047Y-83469139D01*
X87230568Y-83282734D01*
X87326739Y-83076496D01*
X87385635Y-82856692D01*
X87405468Y-82630000D01*
X87385635Y-82403308D01*
X87326739Y-82183504D01*
X87230568Y-81977266D01*
X87100047Y-81790861D01*
X87100045Y-81790858D01*
X86939141Y-81629954D01*
X86752734Y-81499432D01*
X86752728Y-81499429D01*
X86694725Y-81472382D01*
X86642285Y-81426210D01*
X86623133Y-81359017D01*
X86643348Y-81292135D01*
X86694725Y-81247618D01*
X86699057Y-81245598D01*
X86752734Y-81220568D01*
X86939139Y-81090047D01*
X87100047Y-80929139D01*
X87230568Y-80742734D01*
X87326739Y-80536496D01*
X87385635Y-80316692D01*
X87405468Y-80090000D01*
X87385635Y-79863308D01*
X87326739Y-79643504D01*
X87230568Y-79437266D01*
X87100047Y-79250861D01*
X87100045Y-79250858D01*
X86939141Y-79089954D01*
X86752734Y-78959432D01*
X86752728Y-78959429D01*
X86694725Y-78932382D01*
X86642285Y-78886210D01*
X86623133Y-78819017D01*
X86643348Y-78752135D01*
X86694725Y-78707618D01*
X86752734Y-78680568D01*
X86939139Y-78550047D01*
X87100047Y-78389139D01*
X87230568Y-78202734D01*
X87326739Y-77996496D01*
X87385635Y-77776692D01*
X87405468Y-77550000D01*
X87385635Y-77323308D01*
X87326739Y-77103504D01*
X87230568Y-76897266D01*
X87100047Y-76710861D01*
X87100045Y-76710858D01*
X86939141Y-76549954D01*
X86752734Y-76419432D01*
X86752732Y-76419431D01*
X86741275Y-76414088D01*
X86694132Y-76392105D01*
X86641694Y-76345934D01*
X86622542Y-76278740D01*
X86642758Y-76211859D01*
X86694134Y-76167341D01*
X86752484Y-76140132D01*
X86938820Y-76009657D01*
X87099657Y-75848820D01*
X87230134Y-75662482D01*
X87326265Y-75456326D01*
X87326269Y-75456317D01*
X87378872Y-75260000D01*
X86415686Y-75260000D01*
X86420080Y-75255606D01*
X86472741Y-75164394D01*
X86500000Y-75062661D01*
X86500000Y-74957339D01*
X86472741Y-74855606D01*
X86420080Y-74764394D01*
X86415686Y-74760000D01*
X87378872Y-74760000D01*
X87378872Y-74759999D01*
X87326269Y-74563682D01*
X87326265Y-74563673D01*
X87230134Y-74357517D01*
X87099657Y-74171179D01*
X86938820Y-74010342D01*
X86752482Y-73879865D01*
X86694133Y-73852657D01*
X86641694Y-73806484D01*
X86622542Y-73739291D01*
X86642758Y-73672410D01*
X86694129Y-73627895D01*
X86752734Y-73600568D01*
X86939139Y-73470047D01*
X87100047Y-73309139D01*
X87230568Y-73122734D01*
X87326739Y-72916496D01*
X87385635Y-72696692D01*
X87405468Y-72470000D01*
X87385635Y-72243308D01*
X87326739Y-72023504D01*
X87230568Y-71817266D01*
X87100047Y-71630861D01*
X87100045Y-71630858D01*
X86939141Y-71469954D01*
X86752734Y-71339432D01*
X86752728Y-71339429D01*
X86694725Y-71312382D01*
X86642285Y-71266210D01*
X86623133Y-71199017D01*
X86643348Y-71132135D01*
X86694725Y-71087618D01*
X86752734Y-71060568D01*
X86939139Y-70930047D01*
X87100047Y-70769139D01*
X87230568Y-70582734D01*
X87326739Y-70376496D01*
X87385635Y-70156692D01*
X87405468Y-69930000D01*
X87385635Y-69703308D01*
X87326739Y-69483504D01*
X87230568Y-69277266D01*
X87100047Y-69090861D01*
X87100045Y-69090858D01*
X86939141Y-68929954D01*
X86752734Y-68799432D01*
X86752728Y-68799429D01*
X86694725Y-68772382D01*
X86642285Y-68726210D01*
X86623133Y-68659017D01*
X86643348Y-68592135D01*
X86694725Y-68547618D01*
X86752734Y-68520568D01*
X86939139Y-68390047D01*
X87100047Y-68229139D01*
X87230568Y-68042734D01*
X87326739Y-67836496D01*
X87385635Y-67616692D01*
X87405468Y-67390000D01*
X87385635Y-67163308D01*
X87326739Y-66943504D01*
X87230568Y-66737266D01*
X87113213Y-66569664D01*
X87100045Y-66550858D01*
X86939141Y-66389954D01*
X86752734Y-66259432D01*
X86752728Y-66259429D01*
X86694725Y-66232382D01*
X86642285Y-66186210D01*
X86623133Y-66119017D01*
X86643348Y-66052135D01*
X86694725Y-66007618D01*
X86752734Y-65980568D01*
X86939139Y-65850047D01*
X87100047Y-65689139D01*
X87230568Y-65502734D01*
X87326739Y-65296496D01*
X87385635Y-65076692D01*
X87405468Y-64850000D01*
X87385635Y-64623308D01*
X87326739Y-64403504D01*
X87230568Y-64197266D01*
X87100047Y-64010861D01*
X87100045Y-64010858D01*
X86939141Y-63849954D01*
X86752734Y-63719432D01*
X86752732Y-63719431D01*
X86741275Y-63714088D01*
X86694132Y-63692105D01*
X86641694Y-63645934D01*
X86622542Y-63578740D01*
X86642758Y-63511859D01*
X86694134Y-63467341D01*
X86752484Y-63440132D01*
X86938820Y-63309657D01*
X87099657Y-63148820D01*
X87230134Y-62962482D01*
X87326265Y-62756326D01*
X87326269Y-62756317D01*
X87378872Y-62560000D01*
X86415686Y-62560000D01*
X86420080Y-62555606D01*
X86472741Y-62464394D01*
X86500000Y-62362661D01*
X86500000Y-62257339D01*
X86472741Y-62155606D01*
X86420080Y-62064394D01*
X86415686Y-62060000D01*
X87378872Y-62060000D01*
X87378872Y-62059999D01*
X87326269Y-61863682D01*
X87326265Y-61863673D01*
X87230134Y-61657517D01*
X87099657Y-61471179D01*
X86938820Y-61310342D01*
X86752482Y-61179865D01*
X86694133Y-61152657D01*
X86641694Y-61106484D01*
X86622542Y-61039291D01*
X86642758Y-60972410D01*
X86694129Y-60927895D01*
X86752734Y-60900568D01*
X86939139Y-60770047D01*
X87100047Y-60609139D01*
X87230568Y-60422734D01*
X87326739Y-60216496D01*
X87385635Y-59996692D01*
X87405468Y-59770000D01*
X87385635Y-59543308D01*
X87326739Y-59323504D01*
X87230568Y-59117266D01*
X87100047Y-58930861D01*
X87100045Y-58930858D01*
X86939141Y-58769954D01*
X86752734Y-58639432D01*
X86752728Y-58639429D01*
X86694725Y-58612382D01*
X86642285Y-58566210D01*
X86623133Y-58499017D01*
X86643348Y-58432135D01*
X86694725Y-58387618D01*
X86752734Y-58360568D01*
X86939139Y-58230047D01*
X87100047Y-58069139D01*
X87230568Y-57882734D01*
X87326739Y-57676496D01*
X87385635Y-57456692D01*
X87402634Y-57262384D01*
X87405468Y-57230001D01*
X87405468Y-57229998D01*
X87385635Y-57003313D01*
X87385635Y-57003308D01*
X87326739Y-56783504D01*
X87230568Y-56577266D01*
X87100047Y-56390861D01*
X87100045Y-56390858D01*
X86939141Y-56229954D01*
X86752734Y-56099432D01*
X86752728Y-56099429D01*
X86694725Y-56072382D01*
X86642285Y-56026210D01*
X86623133Y-55959017D01*
X86643348Y-55892135D01*
X86694725Y-55847618D01*
X86752734Y-55820568D01*
X86939139Y-55690047D01*
X87100047Y-55529139D01*
X87230568Y-55342734D01*
X87326739Y-55136496D01*
X87385635Y-54916692D01*
X87405468Y-54690000D01*
X87385635Y-54463308D01*
X87326739Y-54243504D01*
X87230568Y-54037266D01*
X87100047Y-53850861D01*
X87100045Y-53850858D01*
X86939141Y-53689954D01*
X86752734Y-53559432D01*
X86752728Y-53559429D01*
X86694725Y-53532382D01*
X86642285Y-53486210D01*
X86623133Y-53419017D01*
X86643348Y-53352135D01*
X86694725Y-53307618D01*
X86752734Y-53280568D01*
X86939139Y-53150047D01*
X87100047Y-52989139D01*
X87230568Y-52802734D01*
X87326739Y-52596496D01*
X87385635Y-52376692D01*
X87405468Y-52150000D01*
X87385635Y-51923308D01*
X87326739Y-51703504D01*
X87230568Y-51497266D01*
X87100047Y-51310861D01*
X87100045Y-51310858D01*
X86939141Y-51149954D01*
X86752734Y-51019432D01*
X86752728Y-51019429D01*
X86694725Y-50992382D01*
X86642285Y-50946210D01*
X86623133Y-50879017D01*
X86643348Y-50812135D01*
X86694725Y-50767618D01*
X86695319Y-50767341D01*
X86752734Y-50740568D01*
X86939139Y-50610047D01*
X87100047Y-50449139D01*
X87230568Y-50262734D01*
X87326739Y-50056496D01*
X87385635Y-49836692D01*
X87405468Y-49610000D01*
X87385635Y-49383308D01*
X87326739Y-49163504D01*
X87230568Y-48957266D01*
X87100047Y-48770861D01*
X87100045Y-48770858D01*
X86939141Y-48609954D01*
X86752734Y-48479432D01*
X86752728Y-48479429D01*
X86694725Y-48452382D01*
X86642285Y-48406210D01*
X86623133Y-48339017D01*
X86643348Y-48272135D01*
X86694725Y-48227618D01*
X86752734Y-48200568D01*
X86939139Y-48070047D01*
X87100047Y-47909139D01*
X87230568Y-47722734D01*
X87326739Y-47516496D01*
X87385635Y-47296692D01*
X87405468Y-47070000D01*
X87385635Y-46843308D01*
X87326739Y-46623504D01*
X87230568Y-46417266D01*
X87100047Y-46230861D01*
X87100045Y-46230858D01*
X86939143Y-46069956D01*
X86914536Y-46052726D01*
X86870912Y-45998149D01*
X86863719Y-45928650D01*
X86895241Y-45866296D01*
X86955471Y-45830882D01*
X86972404Y-45827861D01*
X87007483Y-45824091D01*
X87142331Y-45773796D01*
X87257546Y-45687546D01*
X87343796Y-45572331D01*
X87394091Y-45437483D01*
X87400500Y-45377873D01*
X87400499Y-43682128D01*
X87394091Y-43622517D01*
X87382167Y-43590548D01*
X87343797Y-43487671D01*
X87343793Y-43487664D01*
X87257547Y-43372455D01*
X87257544Y-43372452D01*
X87142335Y-43286206D01*
X87142328Y-43286202D01*
X87007482Y-43235908D01*
X87007483Y-43235908D01*
X86947883Y-43229501D01*
X86947881Y-43229500D01*
X86947873Y-43229500D01*
X86947864Y-43229500D01*
X85252129Y-43229500D01*
X85252123Y-43229501D01*
X85192516Y-43235908D01*
X85057671Y-43286202D01*
X85057664Y-43286206D01*
X84942455Y-43372452D01*
X84942452Y-43372455D01*
X84856206Y-43487664D01*
X84856202Y-43487671D01*
X84805908Y-43622517D01*
X84799879Y-43678604D01*
X84799501Y-43682123D01*
X84799500Y-43682135D01*
X84799500Y-45377870D01*
X84799501Y-45377876D01*
X84805908Y-45437483D01*
X84856202Y-45572328D01*
X84856206Y-45572335D01*
X84942452Y-45687544D01*
X84942455Y-45687547D01*
X85057664Y-45773793D01*
X85057671Y-45773797D01*
X85102618Y-45790561D01*
X85192517Y-45824091D01*
X85227596Y-45827862D01*
X85292144Y-45854599D01*
X85331993Y-45911991D01*
X85334488Y-45981816D01*
X85298836Y-46041905D01*
X85285464Y-46052725D01*
X85260858Y-46069954D01*
X85099954Y-46230858D01*
X84969432Y-46417265D01*
X84969431Y-46417267D01*
X84873261Y-46623502D01*
X84873258Y-46623511D01*
X84814366Y-46843302D01*
X84814364Y-46843313D01*
X84794532Y-47069998D01*
X81000000Y-47069998D01*
X81000000Y-38755305D01*
X120420000Y-38755305D01*
X120420000Y-39120000D01*
X121670000Y-39120000D01*
X121670000Y-39620000D01*
X120420000Y-39620000D01*
X120420000Y-39984694D01*
X120420001Y-39984710D01*
X120449942Y-40212137D01*
X120509318Y-40433730D01*
X120597102Y-40645659D01*
X120597106Y-40645668D01*
X120711809Y-40844338D01*
X120851455Y-41026329D01*
X120851461Y-41026336D01*
X121013663Y-41188538D01*
X121013670Y-41188544D01*
X121195661Y-41328190D01*
X121394331Y-41442893D01*
X121394340Y-41442897D01*
X121606269Y-41530681D01*
X121827859Y-41590056D01*
X121827864Y-41590057D01*
X121919999Y-41602186D01*
X121920000Y-41602186D01*
X121920000Y-40303012D01*
X121977007Y-40335925D01*
X122104174Y-40370000D01*
X122235826Y-40370000D01*
X122362993Y-40335925D01*
X122420000Y-40303012D01*
X122420000Y-41602186D01*
X122512135Y-41590057D01*
X122512140Y-41590056D01*
X122733730Y-41530681D01*
X122945659Y-41442897D01*
X122945668Y-41442893D01*
X123144338Y-41328190D01*
X123326329Y-41188544D01*
X123326336Y-41188538D01*
X123488538Y-41026336D01*
X123488544Y-41026329D01*
X123628190Y-40844338D01*
X123742893Y-40645668D01*
X123742897Y-40645659D01*
X123830681Y-40433730D01*
X123890057Y-40212137D01*
X123919998Y-39984710D01*
X123920000Y-39984694D01*
X123920000Y-39620000D01*
X122670000Y-39620000D01*
X122670000Y-39120000D01*
X123920000Y-39120000D01*
X123920000Y-38755305D01*
X123919998Y-38755289D01*
X123890057Y-38527862D01*
X123830681Y-38306269D01*
X123742897Y-38094340D01*
X123742893Y-38094331D01*
X123628190Y-37895661D01*
X123488544Y-37713670D01*
X123488538Y-37713663D01*
X123326336Y-37551461D01*
X123326329Y-37551455D01*
X123144338Y-37411809D01*
X122945668Y-37297106D01*
X122945659Y-37297102D01*
X122733730Y-37209318D01*
X122512137Y-37149942D01*
X122420000Y-37137811D01*
X122420000Y-38436988D01*
X122362993Y-38404075D01*
X122235826Y-38370000D01*
X122104174Y-38370000D01*
X121977007Y-38404075D01*
X121920000Y-38436988D01*
X121920000Y-37137811D01*
X121919999Y-37137811D01*
X121827862Y-37149942D01*
X121606269Y-37209318D01*
X121394340Y-37297102D01*
X121394331Y-37297106D01*
X121195661Y-37411809D01*
X121013670Y-37551455D01*
X121013663Y-37551461D01*
X120851461Y-37713663D01*
X120851455Y-37713670D01*
X120711809Y-37895661D01*
X120597106Y-38094331D01*
X120597102Y-38094340D01*
X120509318Y-38306269D01*
X120449942Y-38527862D01*
X120420001Y-38755289D01*
X120420000Y-38755305D01*
X81000000Y-38755305D01*
X81000000Y-34000000D01*
X99894592Y-34000000D01*
X99914201Y-34286680D01*
X99914201Y-34286684D01*
X99914202Y-34286686D01*
X99918408Y-34306927D01*
X99972666Y-34568034D01*
X99972667Y-34568037D01*
X100068894Y-34838793D01*
X100068893Y-34838793D01*
X100201098Y-35093935D01*
X100366812Y-35328700D01*
X100451923Y-35419831D01*
X100562947Y-35538708D01*
X100785853Y-35720055D01*
X100990685Y-35844617D01*
X101031382Y-35869365D01*
X101218237Y-35950526D01*
X101294942Y-35983844D01*
X101571642Y-36061371D01*
X101821920Y-36095771D01*
X101856321Y-36100500D01*
X101856322Y-36100500D01*
X102143679Y-36100500D01*
X102174370Y-36096281D01*
X102428358Y-36061371D01*
X102705058Y-35983844D01*
X102818015Y-35934779D01*
X102968617Y-35869365D01*
X102968620Y-35869363D01*
X102968625Y-35869361D01*
X103214147Y-35720055D01*
X103437053Y-35538708D01*
X103633189Y-35328698D01*
X103798901Y-35093936D01*
X103931104Y-34838797D01*
X104027334Y-34568032D01*
X104031502Y-34547973D01*
X109519500Y-34547973D01*
X109519500Y-35792027D01*
X109557679Y-36033076D01*
X109633096Y-36265185D01*
X109723872Y-36443344D01*
X109743896Y-36482642D01*
X109887339Y-36680076D01*
X109887343Y-36680081D01*
X110059918Y-36852656D01*
X110059923Y-36852660D01*
X110232136Y-36977779D01*
X110257361Y-36996106D01*
X110474815Y-37106904D01*
X110706924Y-37182321D01*
X110947973Y-37220500D01*
X110947974Y-37220500D01*
X111192026Y-37220500D01*
X111192027Y-37220500D01*
X111433076Y-37182321D01*
X111665185Y-37106904D01*
X111882639Y-36996106D01*
X112080083Y-36852655D01*
X112252655Y-36680083D01*
X112396106Y-36482639D01*
X112506904Y-36265185D01*
X112582321Y-36033076D01*
X112620500Y-35792027D01*
X112620500Y-34755258D01*
X116419500Y-34755258D01*
X116419500Y-34984741D01*
X116433877Y-35093936D01*
X116449452Y-35212238D01*
X116449453Y-35212240D01*
X116508842Y-35433887D01*
X116596650Y-35645876D01*
X116596657Y-35645890D01*
X116711392Y-35844617D01*
X116851081Y-36026661D01*
X116851089Y-36026670D01*
X117013330Y-36188911D01*
X117013338Y-36188918D01*
X117195382Y-36328607D01*
X117195385Y-36328608D01*
X117195388Y-36328611D01*
X117394112Y-36443344D01*
X117394117Y-36443346D01*
X117394123Y-36443349D01*
X117485480Y-36481190D01*
X117606113Y-36531158D01*
X117827762Y-36590548D01*
X118055266Y-36620500D01*
X118055273Y-36620500D01*
X119284727Y-36620500D01*
X119284734Y-36620500D01*
X119512238Y-36590548D01*
X119733887Y-36531158D01*
X119945888Y-36443344D01*
X120144612Y-36328611D01*
X120326661Y-36188919D01*
X120326665Y-36188914D01*
X120326670Y-36188911D01*
X120488911Y-36026670D01*
X120488914Y-36026665D01*
X120488919Y-36026661D01*
X120628611Y-35844612D01*
X120743344Y-35645888D01*
X120831158Y-35433887D01*
X120890548Y-35212238D01*
X120920500Y-34984734D01*
X120920500Y-34755266D01*
X120890548Y-34527762D01*
X120831158Y-34306113D01*
X120743344Y-34094112D01*
X120628611Y-33895388D01*
X120628608Y-33895385D01*
X120628607Y-33895382D01*
X120488918Y-33713338D01*
X120488911Y-33713330D01*
X120326670Y-33551089D01*
X120326661Y-33551081D01*
X120144617Y-33411392D01*
X119945890Y-33296657D01*
X119945876Y-33296650D01*
X119733887Y-33208842D01*
X119512238Y-33149452D01*
X119474215Y-33144446D01*
X119284741Y-33119500D01*
X119284734Y-33119500D01*
X118055266Y-33119500D01*
X118055258Y-33119500D01*
X117838715Y-33148009D01*
X117827762Y-33149452D01*
X117783895Y-33161206D01*
X117606112Y-33208842D01*
X117394123Y-33296650D01*
X117394109Y-33296657D01*
X117195382Y-33411392D01*
X117013338Y-33551081D01*
X116851081Y-33713338D01*
X116711392Y-33895382D01*
X116596657Y-34094109D01*
X116596650Y-34094123D01*
X116508842Y-34306112D01*
X116449453Y-34527759D01*
X116449451Y-34527770D01*
X116419500Y-34755258D01*
X112620500Y-34755258D01*
X112620500Y-34547973D01*
X112582321Y-34306924D01*
X112506904Y-34074815D01*
X112396106Y-33857361D01*
X112352954Y-33797967D01*
X112252660Y-33659923D01*
X112252656Y-33659918D01*
X112080081Y-33487343D01*
X112080076Y-33487339D01*
X111882642Y-33343896D01*
X111882641Y-33343895D01*
X111882639Y-33343894D01*
X111665185Y-33233096D01*
X111433076Y-33157679D01*
X111433074Y-33157678D01*
X111433072Y-33157678D01*
X111264769Y-33131021D01*
X111192027Y-33119500D01*
X110947973Y-33119500D01*
X110892093Y-33128350D01*
X110706927Y-33157678D01*
X110474812Y-33233097D01*
X110257357Y-33343896D01*
X110059923Y-33487339D01*
X110059918Y-33487343D01*
X109887343Y-33659918D01*
X109887339Y-33659923D01*
X109743896Y-33857357D01*
X109633097Y-34074812D01*
X109557678Y-34306927D01*
X109543383Y-34397185D01*
X109519500Y-34547973D01*
X104031502Y-34547973D01*
X104085798Y-34286686D01*
X104105408Y-34000000D01*
X104085798Y-33713314D01*
X104027334Y-33431968D01*
X103996032Y-33343894D01*
X103931105Y-33161206D01*
X103931106Y-33161206D01*
X103798901Y-32906064D01*
X103633187Y-32671299D01*
X103554554Y-32587105D01*
X103437053Y-32461292D01*
X103214147Y-32279945D01*
X103214146Y-32279944D01*
X102968617Y-32130634D01*
X102705063Y-32016158D01*
X102705061Y-32016157D01*
X102705058Y-32016156D01*
X102575578Y-31979877D01*
X102428364Y-31938630D01*
X102428359Y-31938629D01*
X102428358Y-31938629D01*
X102286018Y-31919064D01*
X102143679Y-31899500D01*
X102143678Y-31899500D01*
X101856322Y-31899500D01*
X101856321Y-31899500D01*
X101571642Y-31938629D01*
X101571635Y-31938630D01*
X101363861Y-31996845D01*
X101294942Y-32016156D01*
X101294939Y-32016156D01*
X101294936Y-32016158D01*
X101294935Y-32016158D01*
X101031382Y-32130634D01*
X100785853Y-32279944D01*
X100562950Y-32461289D01*
X100366812Y-32671299D01*
X100201098Y-32906064D01*
X100068894Y-33161206D01*
X99972667Y-33431962D01*
X99972666Y-33431965D01*
X99914201Y-33713319D01*
X99894592Y-34000000D01*
X81000000Y-34000000D01*
X81000000Y-31124000D01*
X81019685Y-31056961D01*
X81072489Y-31011206D01*
X81124000Y-31000000D01*
X128876000Y-31000000D01*
X128943039Y-31019685D01*
G37*
G04 #@! TD.AperFunction*
M02*
