G04 #@! TF.GenerationSoftware,KiCad,Pcbnew,8.0.8*
G04 #@! TF.CreationDate,2025-01-26T13:14:25+09:00*
G04 #@! TF.ProjectId,SyncBoard,53796e63-426f-4617-9264-2e6b69636164,rev?*
G04 #@! TF.SameCoordinates,Original*
G04 #@! TF.FileFunction,Paste,Top*
G04 #@! TF.FilePolarity,Positive*
%FSLAX46Y46*%
G04 Gerber Fmt 4.6, Leading zero omitted, Abs format (unit mm)*
G04 Created by KiCad (PCBNEW 8.0.8) date 2025-01-26 13:14:25*
%MOMM*%
%LPD*%
G01*
G04 APERTURE LIST*
G04 Aperture macros list*
%AMRoundRect*
0 Rectangle with rounded corners*
0 $1 Rounding radius*
0 $2 $3 $4 $5 $6 $7 $8 $9 X,Y pos of 4 corners*
0 Add a 4 corners polygon primitive as box body*
4,1,4,$2,$3,$4,$5,$6,$7,$8,$9,$2,$3,0*
0 Add four circle primitives for the rounded corners*
1,1,$1+$1,$2,$3*
1,1,$1+$1,$4,$5*
1,1,$1+$1,$6,$7*
1,1,$1+$1,$8,$9*
0 Add four rect primitives between the rounded corners*
20,1,$1+$1,$2,$3,$4,$5,0*
20,1,$1+$1,$4,$5,$6,$7,0*
20,1,$1+$1,$6,$7,$8,$9,0*
20,1,$1+$1,$8,$9,$2,$3,0*%
G04 Aperture macros list end*
%ADD10R,0.700000X1.775000*%
%ADD11RoundRect,0.250000X-0.475000X0.337500X-0.475000X-0.337500X0.475000X-0.337500X0.475000X0.337500X0*%
G04 APERTURE END LIST*
D10*
X121765000Y-75387000D03*
X120495000Y-75387000D03*
X119225000Y-75387000D03*
X117955000Y-75387000D03*
X116685000Y-75387000D03*
X115415000Y-75387000D03*
X114145000Y-75387000D03*
X112875000Y-75387000D03*
X111605000Y-75387000D03*
X110335000Y-75387000D03*
X110335000Y-82463000D03*
X111605000Y-82463000D03*
X112875000Y-82463000D03*
X114145000Y-82463000D03*
X115415000Y-82463000D03*
X116685000Y-82463000D03*
X117955000Y-82463000D03*
X119225000Y-82463000D03*
X120495000Y-82463000D03*
X121765000Y-82463000D03*
X121765000Y-53975000D03*
X120495000Y-53975000D03*
X119225000Y-53975000D03*
X117955000Y-53975000D03*
X116685000Y-53975000D03*
X115415000Y-53975000D03*
X114145000Y-53975000D03*
X112875000Y-53975000D03*
X111605000Y-53975000D03*
X110335000Y-53975000D03*
X110335000Y-61051000D03*
X111605000Y-61051000D03*
X112875000Y-61051000D03*
X114145000Y-61051000D03*
X115415000Y-61051000D03*
X116685000Y-61051000D03*
X117955000Y-61051000D03*
X119225000Y-61051000D03*
X120495000Y-61051000D03*
X121765000Y-61051000D03*
D11*
X124940000Y-79962500D03*
X124940000Y-77887500D03*
X125575000Y-59325500D03*
X125575000Y-57250500D03*
M02*
