M48
; DRILL file {KiCad 8.0.8} date 2025-01-26T13:14:29+0900
; FORMAT={-:-/ absolute / metric / decimal}
; #@! TF.CreationDate,2025-01-26T13:14:29+09:00
; #@! TF.GenerationSoftware,Kicad,Pcbnew,8.0.8
; #@! TF.FileFunction,Plated,1,2,PTH
FMAT,2
METRIC
; #@! TA.AperFunction,Plated,PTH,ViaDrill
T1C0.300
; #@! TA.AperFunction,Plated,PTH,ComponentDrill
T2C0.800
; #@! TA.AperFunction,Plated,PTH,ComponentDrill
T3C0.900
; #@! TA.AperFunction,Plated,PTH,ComponentDrill
T4C1.000
%
G90
G05
T1
X95.25Y-88.265
X98.425Y-62.23
X99.06Y-74.93
X106.045Y-85.09
X106.68Y-76.835
X110.49Y-79.375
X112.0Y-80.0
X113.03Y-58.42
X116.812Y-58.118
X117.475Y-77.47
X117.475Y-88.265
X118.11Y-84.455
X120.676Y-79.984
X120.75Y-78.25
T2
X86.1Y-44.53
X86.1Y-47.07
X86.1Y-49.61
X86.1Y-52.15
X86.1Y-54.69
X86.1Y-57.23
X86.1Y-59.77
X86.1Y-62.31
X86.1Y-64.85
X86.1Y-67.39
X86.1Y-69.93
X86.1Y-72.47
X86.1Y-75.01
X86.1Y-77.55
X86.1Y-80.09
X86.1Y-82.63
X86.1Y-85.17
X86.1Y-87.71
X86.1Y-90.25
X86.1Y-92.79
X103.9Y-44.53
X103.9Y-47.07
X103.9Y-49.61
X103.9Y-52.15
X103.9Y-54.69
X103.9Y-57.23
X103.9Y-59.77
X103.9Y-62.31
X103.9Y-64.85
X103.9Y-67.39
X103.9Y-69.93
X103.9Y-72.47
X103.9Y-75.01
X103.9Y-77.55
X103.9Y-80.09
X103.9Y-82.63
X103.9Y-85.17
X103.9Y-87.71
X103.9Y-90.25
X103.9Y-92.79
T3
X88.0Y-103.0
X90.5Y-103.0
X93.0Y-103.0
T4
X111.125Y-48.615
X111.125Y-65.925
X111.125Y-70.925
X111.125Y-86.36
X113.665Y-48.615
X113.665Y-65.925
X113.665Y-70.925
X113.665Y-86.36
X116.205Y-48.615
X116.205Y-65.925
X116.205Y-70.925
X116.205Y-86.36
X118.745Y-48.615
X118.745Y-65.925
X118.745Y-70.925
X118.745Y-86.36
X121.285Y-48.615
X121.285Y-65.925
X121.285Y-70.925
X121.285Y-86.36
X123.825Y-48.615
X123.825Y-65.925
X123.825Y-70.925
X123.825Y-86.36
T4
X110.185Y-93.725G85X110.185Y-94.725
G05
X111.07Y-34.67G85X111.07Y-35.67
G05
X113.485Y-103.425G85X112.485Y-103.425
G05
X114.37Y-44.37G85X113.37Y-44.37
G05
X115.185Y-100.925G85X114.185Y-100.925
G05
X116.07Y-41.87G85X115.07Y-41.87
G05
X118.285Y-93.925G85X117.285Y-93.925
G05
X119.17Y-34.87G85X118.17Y-34.87
G05
X121.285Y-98.925G85X121.285Y-97.925
G05
X122.17Y-39.87G85X122.17Y-38.87
G05
M30
