%TF.GenerationSoftware,KiCad,Pcbnew,9.0.3*%
%TF.CreationDate,2026-07-20T09:03:51+09:00*%
%TF.ProjectId,mainBorad_R1,6d61696e-426f-4726-9164-5f52312e6b69,rev?*%
%TF.SameCoordinates,Original*%
%TF.FileFunction,Soldermask,Top*%
%TF.FilePolarity,Negative*%
%FSLAX46Y46*%
G04 Gerber Fmt 4.6, Leading zero omitted, Abs format (unit mm)*
G04 Created by KiCad (PCBNEW 9.0.3) date 2026-07-20 09:03:51*
%MOMM*%
%LPD*%
G01*
G04 APERTURE LIST*
G04 Aperture macros list*
%AMFreePoly0*
4,1,23,0.500000,-0.750000,0.000000,-0.750000,0.000000,-0.745722,-0.065263,-0.745722,-0.191342,-0.711940,-0.304381,-0.646677,-0.396677,-0.554381,-0.461940,-0.441342,-0.495722,-0.315263,-0.495722,-0.250000,-0.500000,-0.250000,-0.500000,0.250000,-0.495722,0.250000,-0.495722,0.315263,-0.461940,0.441342,-0.396677,0.554381,-0.304381,0.646677,-0.191342,0.711940,-0.065263,0.745722,0.000000,0.745722,
0.000000,0.750000,0.500000,0.750000,0.500000,-0.750000,0.500000,-0.750000,$1*%
%AMFreePoly1*
4,1,23,0.000000,0.745722,0.065263,0.745722,0.191342,0.711940,0.304381,0.646677,0.396677,0.554381,0.461940,0.441342,0.495722,0.315263,0.495722,0.250000,0.500000,0.250000,0.500000,-0.250000,0.495722,-0.250000,0.495722,-0.315263,0.461940,-0.441342,0.396677,-0.554381,0.304381,-0.646677,0.191342,-0.711940,0.065263,-0.745722,0.000000,-0.745722,0.000000,-0.750000,-0.500000,-0.750000,
-0.500000,0.750000,0.000000,0.750000,0.000000,0.745722,0.000000,0.745722,$1*%
G04 Aperture macros list end*
%ADD10R,1.700000X1.700000*%
%ADD11C,1.700000*%
%ADD12R,1.800000X1.000000*%
%ADD13R,2.250000X2.250000*%
%ADD14C,2.250000*%
%ADD15C,1.635000*%
%ADD16FreePoly0,180.000000*%
%ADD17FreePoly1,180.000000*%
%ADD18C,2.450000*%
%ADD19C,2.300000*%
%ADD20C,1.725000*%
%ADD21R,1.600000X1.600000*%
%ADD22O,1.600000X1.600000*%
G04 APERTURE END LIST*
%TO.C,JP2*%
G36*
X131468000Y-136132000D02*
G01*
X131168000Y-136132000D01*
X131168000Y-134632000D01*
X131468000Y-134632000D01*
X131468000Y-136132000D01*
G37*
%TD*%
D10*
%TO.C,DgPw1*%
X123586000Y-147502000D03*
D11*
X126126000Y-147502000D03*
X128666000Y-147502000D03*
%TD*%
D10*
%TO.C,AnPw1*%
X113678000Y-147502000D03*
D11*
X111138000Y-147502000D03*
X108598000Y-147502000D03*
%TD*%
D12*
%TO.C,S1*%
X139804000Y-144799000D03*
X148004000Y-144799000D03*
X139804000Y-140299000D03*
X148004000Y-140299000D03*
%TD*%
D10*
%TO.C,J2*%
X208801000Y-147571000D03*
D11*
X211341000Y-147571000D03*
X213881000Y-147571000D03*
X216421000Y-147571000D03*
X218961000Y-147571000D03*
X221501000Y-147571000D03*
X224041000Y-147571000D03*
X226581000Y-147571000D03*
%TD*%
D13*
%TO.C,DgJ5*%
X157406000Y-113968000D03*
D14*
X164906000Y-113968000D03*
X172406000Y-113968000D03*
X159906000Y-116468000D03*
X169906000Y-116468000D03*
X159906000Y-104068000D03*
X169906000Y-104068000D03*
%TD*%
D15*
%TO.C,PwS1*%
X139827000Y-109347000D03*
X142367000Y-109347000D03*
X144907000Y-109347000D03*
X144907000Y-104267000D03*
X139827000Y-104267000D03*
%TD*%
D10*
%TO.C,DgJ9*%
X231788000Y-147698000D03*
D11*
X234328000Y-147698000D03*
X236868000Y-147698000D03*
X239408000Y-147698000D03*
X241948000Y-147698000D03*
%TD*%
D10*
%TO.C,J3*%
X167653000Y-147444000D03*
D11*
X170193000Y-147444000D03*
X172733000Y-147444000D03*
X175273000Y-147444000D03*
X177813000Y-147444000D03*
%TD*%
D10*
%TO.C,J4*%
X183528000Y-147571000D03*
D11*
X186068000Y-147571000D03*
X188608000Y-147571000D03*
%TD*%
D13*
%TO.C,DgJ4*%
X181122000Y-114095000D03*
D14*
X188622000Y-114095000D03*
X196122000Y-114095000D03*
X183622000Y-116595000D03*
X193622000Y-116595000D03*
X183622000Y-104195000D03*
X193622000Y-104195000D03*
%TD*%
D11*
%TO.C,U2*%
X108839000Y-130382000D03*
X111379000Y-130382000D03*
X113919000Y-130382000D03*
D10*
X116459000Y-130382000D03*
D11*
X123444000Y-130382000D03*
X125984000Y-130382000D03*
D10*
X128524000Y-130382000D03*
X108839000Y-104855000D03*
D11*
X108839000Y-102315000D03*
D10*
X128524000Y-104855000D03*
D11*
X128524000Y-102315000D03*
%TD*%
D13*
%TO.C,DgJ6*%
X205252000Y-113841000D03*
D14*
X212752000Y-113841000D03*
X220252000Y-113841000D03*
X207752000Y-116341000D03*
X217752000Y-116341000D03*
X207752000Y-103941000D03*
X217752000Y-103941000D03*
%TD*%
D16*
%TO.C,JP2*%
X131968000Y-135382000D03*
D17*
X130668000Y-135382000D03*
%TD*%
D18*
%TO.C,DgJ7*%
X229759000Y-114394000D03*
X229209000Y-108894000D03*
X234709000Y-108894000D03*
D19*
X234159000Y-114394000D03*
%TD*%
D10*
%TO.C,J1*%
X249047000Y-123317000D03*
D11*
X249047000Y-125857000D03*
X249047000Y-128397000D03*
X249047000Y-130937000D03*
X249047000Y-133477000D03*
X249047000Y-136017000D03*
X249047000Y-138557000D03*
X249047000Y-141097000D03*
%TD*%
D18*
%TO.C,DgJ8*%
X240596000Y-114355000D03*
X240046000Y-108855000D03*
X245546000Y-108855000D03*
D19*
X244996000Y-114355000D03*
%TD*%
D20*
%TO.C,PS1*%
X140729000Y-133046000D03*
X143269000Y-133046000D03*
X145809000Y-133046000D03*
%TD*%
D21*
%TO.C,DgU1*%
X154572000Y-141680000D03*
D22*
X157112000Y-141680000D03*
X159652000Y-141680000D03*
X162192000Y-141680000D03*
X164732000Y-141680000D03*
X167272000Y-141680000D03*
X169812000Y-141680000D03*
X172352000Y-141680000D03*
X174892000Y-141680000D03*
X177432000Y-141680000D03*
X179972000Y-141680000D03*
X182512000Y-141680000D03*
X185052000Y-141680000D03*
X187592000Y-141680000D03*
X190132000Y-141680000D03*
X192672000Y-141680000D03*
X195212000Y-141680000D03*
X197752000Y-141680000D03*
X200292000Y-141680000D03*
X202832000Y-141680000D03*
X202832000Y-123880000D03*
X200292000Y-123880000D03*
X197752000Y-123880000D03*
X195212000Y-123880000D03*
X192672000Y-123880000D03*
X190132000Y-123880000D03*
X187592000Y-123880000D03*
X185052000Y-123880000D03*
X182512000Y-123880000D03*
X179972000Y-123880000D03*
X177432000Y-123880000D03*
X174892000Y-123880000D03*
X172352000Y-123880000D03*
X169812000Y-123880000D03*
X167272000Y-123880000D03*
X164732000Y-123880000D03*
X162192000Y-123880000D03*
X159652000Y-123880000D03*
X157112000Y-123880000D03*
X154572000Y-123880000D03*
%TD*%
D10*
%TO.C,DgJ3*%
X193434000Y-147444000D03*
D11*
X195974000Y-147444000D03*
X198514000Y-147444000D03*
X201054000Y-147444000D03*
X203594000Y-147444000D03*
%TD*%
D10*
%TO.C,DgJ2*%
X154953000Y-147502000D03*
D11*
X157493000Y-147502000D03*
X160033000Y-147502000D03*
X162573000Y-147502000D03*
%TD*%
M02*
