M48
; DRILL file {KiCad 9.0.3} date 2026-07-20T09:03:54+0900
; FORMAT={-:-/ absolute / metric / decimal}
; #@! TF.CreationDate,2026-07-20T09:03:54+09:00
; #@! TF.GenerationSoftware,Kicad,Pcbnew,9.0.3
; #@! TF.FileFunction,Plated,1,2,PTH
FMAT,2
METRIC
; #@! TA.AperFunction,Plated,PTH,ViaDrill
T1C0.300
; #@! TA.AperFunction,Plated,PTH,ComponentDrill
T2C0.800
; #@! TA.AperFunction,Plated,PTH,ComponentDrill
T3C1.000
; #@! TA.AperFunction,Plated,PTH,ComponentDrill
T4C1.090
; #@! TA.AperFunction,Plated,PTH,ComponentDrill
T5C1.150
; #@! TA.AperFunction,Plated,PTH,ComponentDrill
T6C1.500
; #@! TA.AperFunction,Plated,PTH,ComponentDrill
T7C1.530
; #@! TA.AperFunction,Plated,PTH,ComponentDrill
T8C1.640
%
G90
G05
T1
X114.681Y-144.907
X143.174Y-142.718
X162.306Y-105.029
X163.552Y-130.905
X164.719Y-105.029
X167.259Y-135.89
X176.002Y-149.443
X178.132Y-136.811
X178.987Y-143.753
X181.242Y-126.619
X182.403Y-133.07
X183.388Y-109.593
X190.848Y-136.772
X196.595Y-128.251
X211.252Y-131.453
X211.815Y-123.18
X212.979Y-130.048
X213.02Y-144.231
X213.868Y-145.415
X216.811Y-126.0
X216.911Y-109.366
X217.178Y-145.401
X217.575Y-134.648
X217.608Y-132.97
X217.839Y-133.825
X218.107Y-123.651
X219.122Y-135.092
X221.747Y-142.444
X223.753Y-143.882
X234.823Y-143.764
X235.888Y-136.758
X236.347Y-128.651
X236.386Y-135.962
X236.473Y-137.673
X237.711Y-132.918
X238.286Y-140.856
X239.001Y-134.457
X240.842Y-140.653
X241.419Y-139.764
X242.875Y-111.905
T2
X154.572Y-123.88
X154.572Y-141.68
X157.112Y-123.88
X157.112Y-141.68
X159.652Y-123.88
X159.652Y-141.68
X162.192Y-123.88
X162.192Y-141.68
X164.732Y-123.88
X164.732Y-141.68
X167.272Y-123.88
X167.272Y-141.68
X169.812Y-123.88
X169.812Y-141.68
X172.352Y-123.88
X172.352Y-141.68
X174.892Y-123.88
X174.892Y-141.68
X177.432Y-123.88
X177.432Y-141.68
X179.972Y-123.88
X179.972Y-141.68
X182.512Y-123.88
X182.512Y-141.68
X185.052Y-123.88
X185.052Y-141.68
X187.592Y-123.88
X187.592Y-141.68
X190.132Y-123.88
X190.132Y-141.68
X192.672Y-123.88
X192.672Y-141.68
X195.212Y-123.88
X195.212Y-141.68
X197.752Y-123.88
X197.752Y-141.68
X200.292Y-123.88
X200.292Y-141.68
X202.832Y-123.88
X202.832Y-141.68
T3
X108.598Y-147.502
X108.839Y-102.315
X108.839Y-104.855
X108.839Y-130.382
X111.138Y-147.502
X111.379Y-130.382
X113.678Y-147.502
X113.919Y-130.382
X116.459Y-130.382
X123.444Y-130.382
X123.586Y-147.502
X125.984Y-130.382
X126.126Y-147.502
X128.524Y-102.315
X128.524Y-104.855
X128.524Y-130.382
X128.666Y-147.502
X154.953Y-147.502
X157.493Y-147.502
X160.033Y-147.502
X162.573Y-147.502
X167.653Y-147.444
X170.193Y-147.444
X172.733Y-147.444
X175.273Y-147.444
X177.813Y-147.444
X183.528Y-147.571
X186.068Y-147.571
X188.608Y-147.571
X193.434Y-147.444
X195.974Y-147.444
X198.514Y-147.444
X201.054Y-147.444
X203.594Y-147.444
X208.801Y-147.571
X211.341Y-147.571
X213.881Y-147.571
X216.421Y-147.571
X218.961Y-147.571
X221.501Y-147.571
X224.041Y-147.571
X226.581Y-147.571
X231.788Y-147.698
X234.328Y-147.698
X236.868Y-147.698
X239.408Y-147.698
X241.948Y-147.698
X249.047Y-123.317
X249.047Y-125.857
X249.047Y-128.397
X249.047Y-130.937
X249.047Y-133.477
X249.047Y-136.017
X249.047Y-138.557
X249.047Y-141.097
T4
X139.827Y-104.267
X139.827Y-109.347
X142.367Y-109.347
X144.907Y-104.267
X144.907Y-109.347
T5
X140.729Y-133.046
X143.269Y-133.046
X145.809Y-133.046
T6
X157.406Y-113.968
X159.906Y-104.068
X159.906Y-116.468
X164.906Y-113.968
X169.906Y-104.068
X169.906Y-116.468
X172.406Y-113.968
X181.122Y-114.095
X183.622Y-104.195
X183.622Y-116.595
X188.622Y-114.095
X193.622Y-104.195
X193.622Y-116.595
X196.122Y-114.095
X205.252Y-113.841
X207.752Y-103.941
X207.752Y-116.341
X212.752Y-113.841
X217.752Y-103.941
X217.752Y-116.341
X220.252Y-113.841
T7
X234.159Y-114.394
X244.996Y-114.355
T8
X229.209Y-108.894
X229.759Y-114.394
X234.709Y-108.894
X240.046Y-108.855
X240.596Y-114.355
X245.546Y-108.855
M30
