G04 #@! TF.GenerationSoftware,KiCad,Pcbnew,8.0.2*
G04 #@! TF.CreationDate,2024-10-15T19:34:27+09:00*
G04 #@! TF.ProjectId,mainBorad,6d61696e-426f-4726-9164-2e6b69636164,rev?*
G04 #@! TF.SameCoordinates,Original*
G04 #@! TF.FileFunction,Legend,Bot*
G04 #@! TF.FilePolarity,Positive*
%FSLAX46Y46*%
G04 Gerber Fmt 4.6, Leading zero omitted, Abs format (unit mm)*
G04 Created by KiCad (PCBNEW 8.0.2) date 2024-10-15 19:34:27*
%MOMM*%
%LPD*%
G01*
G04 APERTURE LIST*
G04 Aperture macros list*
%AMRoundRect*
0 Rectangle with rounded corners*
0 $1 Rounding radius*
0 $2 $3 $4 $5 $6 $7 $8 $9 X,Y pos of 4 corners*
0 Add a 4 corners polygon primitive as box body*
4,1,4,$2,$3,$4,$5,$6,$7,$8,$9,$2,$3,0*
0 Add four circle primitives for the rounded corners*
1,1,$1+$1,$2,$3*
1,1,$1+$1,$4,$5*
1,1,$1+$1,$6,$7*
1,1,$1+$1,$8,$9*
0 Add four rect primitives between the rounded corners*
20,1,$1+$1,$2,$3,$4,$5,0*
20,1,$1+$1,$4,$5,$6,$7,0*
20,1,$1+$1,$6,$7,$8,$9,0*
20,1,$1+$1,$8,$9,$2,$3,0*%
G04 Aperture macros list end*
%ADD10C,0.254000*%
%ADD11C,0.150000*%
%ADD12C,0.200000*%
%ADD13C,0.120000*%
%ADD14C,1.600000*%
%ADD15O,1.600000X1.600000*%
%ADD16R,1.600000X1.600000*%
%ADD17R,1.800000X1.100000*%
%ADD18RoundRect,0.275000X-0.625000X0.275000X-0.625000X-0.275000X0.625000X-0.275000X0.625000X0.275000X0*%
%ADD19C,1.635000*%
%ADD20C,2.450000*%
%ADD21C,2.300000*%
%ADD22RoundRect,0.275000X0.625000X-0.275000X0.625000X0.275000X-0.625000X0.275000X-0.625000X-0.275000X0*%
%ADD23R,1.100000X1.800000*%
%ADD24RoundRect,0.275000X-0.275000X-0.625000X0.275000X-0.625000X0.275000X0.625000X-0.275000X0.625000X0*%
%ADD25R,1.800000X1.800000*%
%ADD26O,1.800000X1.800000*%
%ADD27R,1.700000X1.700000*%
%ADD28R,1.200000X1.200000*%
%ADD29C,1.200000*%
%ADD30O,1.700000X1.700000*%
%ADD31R,1.217000X1.217000*%
%ADD32C,1.217000*%
%ADD33R,1.305000X1.305000*%
%ADD34C,1.305000*%
%ADD35R,2.250000X2.250000*%
%ADD36C,2.250000*%
%ADD37C,1.316000*%
%ADD38R,3.500000X3.500000*%
%ADD39RoundRect,0.750000X-1.000000X0.750000X-1.000000X-0.750000X1.000000X-0.750000X1.000000X0.750000X0*%
%ADD40RoundRect,0.875000X-0.875000X0.875000X-0.875000X-0.875000X0.875000X-0.875000X0.875000X0.875000X0*%
%ADD41R,2.200000X2.200000*%
%ADD42O,2.200000X2.200000*%
%ADD43RoundRect,0.275000X0.275000X0.625000X-0.275000X0.625000X-0.275000X-0.625000X0.275000X-0.625000X0*%
%ADD44C,1.575000*%
%ADD45O,3.500000X3.500000*%
%ADD46R,2.000000X1.905000*%
%ADD47O,2.000000X1.905000*%
%ADD48R,2.000000X2.000000*%
%ADD49C,2.000000*%
%ADD50R,0.650000X1.551000*%
%ADD51R,0.650000X1.525000*%
%ADD52RoundRect,0.250000X0.475000X-0.337500X0.475000X0.337500X-0.475000X0.337500X-0.475000X-0.337500X0*%
%ADD53RoundRect,0.250000X0.350000X0.450000X-0.350000X0.450000X-0.350000X-0.450000X0.350000X-0.450000X0*%
%ADD54C,0.700000*%
%ADD55C,0.600000*%
G04 APERTURE END LIST*
D10*
X66484318Y-54350713D02*
X65214318Y-54350713D01*
X65214318Y-54350713D02*
X65214318Y-54653094D01*
X65214318Y-54653094D02*
X65274794Y-54834523D01*
X65274794Y-54834523D02*
X65395746Y-54955475D01*
X65395746Y-54955475D02*
X65516699Y-55015952D01*
X65516699Y-55015952D02*
X65758603Y-55076428D01*
X65758603Y-55076428D02*
X65940032Y-55076428D01*
X65940032Y-55076428D02*
X66181937Y-55015952D01*
X66181937Y-55015952D02*
X66302889Y-54955475D01*
X66302889Y-54955475D02*
X66423842Y-54834523D01*
X66423842Y-54834523D02*
X66484318Y-54653094D01*
X66484318Y-54653094D02*
X66484318Y-54350713D01*
X65637651Y-56164999D02*
X66665746Y-56164999D01*
X66665746Y-56164999D02*
X66786699Y-56104523D01*
X66786699Y-56104523D02*
X66847175Y-56044047D01*
X66847175Y-56044047D02*
X66907651Y-55923094D01*
X66907651Y-55923094D02*
X66907651Y-55741666D01*
X66907651Y-55741666D02*
X66847175Y-55620713D01*
X66423842Y-56164999D02*
X66484318Y-56044047D01*
X66484318Y-56044047D02*
X66484318Y-55802142D01*
X66484318Y-55802142D02*
X66423842Y-55681190D01*
X66423842Y-55681190D02*
X66363365Y-55620713D01*
X66363365Y-55620713D02*
X66242413Y-55560237D01*
X66242413Y-55560237D02*
X65879556Y-55560237D01*
X65879556Y-55560237D02*
X65758603Y-55620713D01*
X65758603Y-55620713D02*
X65698127Y-55681190D01*
X65698127Y-55681190D02*
X65637651Y-55802142D01*
X65637651Y-55802142D02*
X65637651Y-56044047D01*
X65637651Y-56044047D02*
X65698127Y-56164999D01*
X66484318Y-56769761D02*
X65214318Y-56769761D01*
X66363365Y-58100238D02*
X66423842Y-58039762D01*
X66423842Y-58039762D02*
X66484318Y-57858333D01*
X66484318Y-57858333D02*
X66484318Y-57737381D01*
X66484318Y-57737381D02*
X66423842Y-57555952D01*
X66423842Y-57555952D02*
X66302889Y-57435000D01*
X66302889Y-57435000D02*
X66181937Y-57374523D01*
X66181937Y-57374523D02*
X65940032Y-57314047D01*
X65940032Y-57314047D02*
X65758603Y-57314047D01*
X65758603Y-57314047D02*
X65516699Y-57374523D01*
X65516699Y-57374523D02*
X65395746Y-57435000D01*
X65395746Y-57435000D02*
X65274794Y-57555952D01*
X65274794Y-57555952D02*
X65214318Y-57737381D01*
X65214318Y-57737381D02*
X65214318Y-57858333D01*
X65214318Y-57858333D02*
X65274794Y-58039762D01*
X65274794Y-58039762D02*
X65335270Y-58100238D01*
X66484318Y-59309762D02*
X66484318Y-58584047D01*
X66484318Y-58946904D02*
X65214318Y-58946904D01*
X65214318Y-58946904D02*
X65395746Y-58825952D01*
X65395746Y-58825952D02*
X65516699Y-58705000D01*
X65516699Y-58705000D02*
X65577175Y-58584047D01*
X101649318Y-55237713D02*
X100379318Y-55237713D01*
X100379318Y-55237713D02*
X100379318Y-55540094D01*
X100379318Y-55540094D02*
X100439794Y-55721523D01*
X100439794Y-55721523D02*
X100560746Y-55842475D01*
X100560746Y-55842475D02*
X100681699Y-55902952D01*
X100681699Y-55902952D02*
X100923603Y-55963428D01*
X100923603Y-55963428D02*
X101105032Y-55963428D01*
X101105032Y-55963428D02*
X101346937Y-55902952D01*
X101346937Y-55902952D02*
X101467889Y-55842475D01*
X101467889Y-55842475D02*
X101588842Y-55721523D01*
X101588842Y-55721523D02*
X101649318Y-55540094D01*
X101649318Y-55540094D02*
X101649318Y-55237713D01*
X100802651Y-57051999D02*
X101830746Y-57051999D01*
X101830746Y-57051999D02*
X101951699Y-56991523D01*
X101951699Y-56991523D02*
X102012175Y-56931047D01*
X102012175Y-56931047D02*
X102072651Y-56810094D01*
X102072651Y-56810094D02*
X102072651Y-56628666D01*
X102072651Y-56628666D02*
X102012175Y-56507713D01*
X101588842Y-57051999D02*
X101649318Y-56931047D01*
X101649318Y-56931047D02*
X101649318Y-56689142D01*
X101649318Y-56689142D02*
X101588842Y-56568190D01*
X101588842Y-56568190D02*
X101528365Y-56507713D01*
X101528365Y-56507713D02*
X101407413Y-56447237D01*
X101407413Y-56447237D02*
X101044556Y-56447237D01*
X101044556Y-56447237D02*
X100923603Y-56507713D01*
X100923603Y-56507713D02*
X100863127Y-56568190D01*
X100863127Y-56568190D02*
X100802651Y-56689142D01*
X100802651Y-56689142D02*
X100802651Y-56931047D01*
X100802651Y-56931047D02*
X100863127Y-57051999D01*
X101649318Y-57656761D02*
X100379318Y-57656761D01*
X101528365Y-58987238D02*
X101588842Y-58926762D01*
X101588842Y-58926762D02*
X101649318Y-58745333D01*
X101649318Y-58745333D02*
X101649318Y-58624381D01*
X101649318Y-58624381D02*
X101588842Y-58442952D01*
X101588842Y-58442952D02*
X101467889Y-58322000D01*
X101467889Y-58322000D02*
X101346937Y-58261523D01*
X101346937Y-58261523D02*
X101105032Y-58201047D01*
X101105032Y-58201047D02*
X100923603Y-58201047D01*
X100923603Y-58201047D02*
X100681699Y-58261523D01*
X100681699Y-58261523D02*
X100560746Y-58322000D01*
X100560746Y-58322000D02*
X100439794Y-58442952D01*
X100439794Y-58442952D02*
X100379318Y-58624381D01*
X100379318Y-58624381D02*
X100379318Y-58745333D01*
X100379318Y-58745333D02*
X100439794Y-58926762D01*
X100439794Y-58926762D02*
X100500270Y-58987238D01*
X100500270Y-59471047D02*
X100439794Y-59531523D01*
X100439794Y-59531523D02*
X100379318Y-59652476D01*
X100379318Y-59652476D02*
X100379318Y-59954857D01*
X100379318Y-59954857D02*
X100439794Y-60075809D01*
X100439794Y-60075809D02*
X100500270Y-60136285D01*
X100500270Y-60136285D02*
X100621222Y-60196762D01*
X100621222Y-60196762D02*
X100742175Y-60196762D01*
X100742175Y-60196762D02*
X100923603Y-60136285D01*
X100923603Y-60136285D02*
X101649318Y-59410571D01*
X101649318Y-59410571D02*
X101649318Y-60196762D01*
D11*
X86494819Y-54947024D02*
X85494819Y-54947024D01*
X85494819Y-54947024D02*
X85494819Y-55185119D01*
X85494819Y-55185119D02*
X85542438Y-55327976D01*
X85542438Y-55327976D02*
X85637676Y-55423214D01*
X85637676Y-55423214D02*
X85732914Y-55470833D01*
X85732914Y-55470833D02*
X85923390Y-55518452D01*
X85923390Y-55518452D02*
X86066247Y-55518452D01*
X86066247Y-55518452D02*
X86256723Y-55470833D01*
X86256723Y-55470833D02*
X86351961Y-55423214D01*
X86351961Y-55423214D02*
X86447200Y-55327976D01*
X86447200Y-55327976D02*
X86494819Y-55185119D01*
X86494819Y-55185119D02*
X86494819Y-54947024D01*
X85828152Y-56375595D02*
X86637676Y-56375595D01*
X86637676Y-56375595D02*
X86732914Y-56327976D01*
X86732914Y-56327976D02*
X86780533Y-56280357D01*
X86780533Y-56280357D02*
X86828152Y-56185119D01*
X86828152Y-56185119D02*
X86828152Y-56042262D01*
X86828152Y-56042262D02*
X86780533Y-55947024D01*
X86447200Y-56375595D02*
X86494819Y-56280357D01*
X86494819Y-56280357D02*
X86494819Y-56089881D01*
X86494819Y-56089881D02*
X86447200Y-55994643D01*
X86447200Y-55994643D02*
X86399580Y-55947024D01*
X86399580Y-55947024D02*
X86304342Y-55899405D01*
X86304342Y-55899405D02*
X86018628Y-55899405D01*
X86018628Y-55899405D02*
X85923390Y-55947024D01*
X85923390Y-55947024D02*
X85875771Y-55994643D01*
X85875771Y-55994643D02*
X85828152Y-56089881D01*
X85828152Y-56089881D02*
X85828152Y-56280357D01*
X85828152Y-56280357D02*
X85875771Y-56375595D01*
X86399580Y-57423214D02*
X86447200Y-57375595D01*
X86447200Y-57375595D02*
X86494819Y-57232738D01*
X86494819Y-57232738D02*
X86494819Y-57137500D01*
X86494819Y-57137500D02*
X86447200Y-56994643D01*
X86447200Y-56994643D02*
X86351961Y-56899405D01*
X86351961Y-56899405D02*
X86256723Y-56851786D01*
X86256723Y-56851786D02*
X86066247Y-56804167D01*
X86066247Y-56804167D02*
X85923390Y-56804167D01*
X85923390Y-56804167D02*
X85732914Y-56851786D01*
X85732914Y-56851786D02*
X85637676Y-56899405D01*
X85637676Y-56899405D02*
X85542438Y-56994643D01*
X85542438Y-56994643D02*
X85494819Y-57137500D01*
X85494819Y-57137500D02*
X85494819Y-57232738D01*
X85494819Y-57232738D02*
X85542438Y-57375595D01*
X85542438Y-57375595D02*
X85590057Y-57423214D01*
X85494819Y-57756548D02*
X85494819Y-58375595D01*
X85494819Y-58375595D02*
X85875771Y-58042262D01*
X85875771Y-58042262D02*
X85875771Y-58185119D01*
X85875771Y-58185119D02*
X85923390Y-58280357D01*
X85923390Y-58280357D02*
X85971009Y-58327976D01*
X85971009Y-58327976D02*
X86066247Y-58375595D01*
X86066247Y-58375595D02*
X86304342Y-58375595D01*
X86304342Y-58375595D02*
X86399580Y-58327976D01*
X86399580Y-58327976D02*
X86447200Y-58280357D01*
X86447200Y-58280357D02*
X86494819Y-58185119D01*
X86494819Y-58185119D02*
X86494819Y-57899405D01*
X86494819Y-57899405D02*
X86447200Y-57804167D01*
X86447200Y-57804167D02*
X86399580Y-57756548D01*
X80700475Y-59904819D02*
X80700475Y-58904819D01*
X80700475Y-58904819D02*
X80462380Y-58904819D01*
X80462380Y-58904819D02*
X80319523Y-58952438D01*
X80319523Y-58952438D02*
X80224285Y-59047676D01*
X80224285Y-59047676D02*
X80176666Y-59142914D01*
X80176666Y-59142914D02*
X80129047Y-59333390D01*
X80129047Y-59333390D02*
X80129047Y-59476247D01*
X80129047Y-59476247D02*
X80176666Y-59666723D01*
X80176666Y-59666723D02*
X80224285Y-59761961D01*
X80224285Y-59761961D02*
X80319523Y-59857200D01*
X80319523Y-59857200D02*
X80462380Y-59904819D01*
X80462380Y-59904819D02*
X80700475Y-59904819D01*
X79271904Y-59238152D02*
X79271904Y-60047676D01*
X79271904Y-60047676D02*
X79319523Y-60142914D01*
X79319523Y-60142914D02*
X79367142Y-60190533D01*
X79367142Y-60190533D02*
X79462380Y-60238152D01*
X79462380Y-60238152D02*
X79605237Y-60238152D01*
X79605237Y-60238152D02*
X79700475Y-60190533D01*
X79271904Y-59857200D02*
X79367142Y-59904819D01*
X79367142Y-59904819D02*
X79557618Y-59904819D01*
X79557618Y-59904819D02*
X79652856Y-59857200D01*
X79652856Y-59857200D02*
X79700475Y-59809580D01*
X79700475Y-59809580D02*
X79748094Y-59714342D01*
X79748094Y-59714342D02*
X79748094Y-59428628D01*
X79748094Y-59428628D02*
X79700475Y-59333390D01*
X79700475Y-59333390D02*
X79652856Y-59285771D01*
X79652856Y-59285771D02*
X79557618Y-59238152D01*
X79557618Y-59238152D02*
X79367142Y-59238152D01*
X79367142Y-59238152D02*
X79271904Y-59285771D01*
X78224285Y-59904819D02*
X78557618Y-59428628D01*
X78795713Y-59904819D02*
X78795713Y-58904819D01*
X78795713Y-58904819D02*
X78414761Y-58904819D01*
X78414761Y-58904819D02*
X78319523Y-58952438D01*
X78319523Y-58952438D02*
X78271904Y-59000057D01*
X78271904Y-59000057D02*
X78224285Y-59095295D01*
X78224285Y-59095295D02*
X78224285Y-59238152D01*
X78224285Y-59238152D02*
X78271904Y-59333390D01*
X78271904Y-59333390D02*
X78319523Y-59381009D01*
X78319523Y-59381009D02*
X78414761Y-59428628D01*
X78414761Y-59428628D02*
X78795713Y-59428628D01*
X77843332Y-59000057D02*
X77795713Y-58952438D01*
X77795713Y-58952438D02*
X77700475Y-58904819D01*
X77700475Y-58904819D02*
X77462380Y-58904819D01*
X77462380Y-58904819D02*
X77367142Y-58952438D01*
X77367142Y-58952438D02*
X77319523Y-59000057D01*
X77319523Y-59000057D02*
X77271904Y-59095295D01*
X77271904Y-59095295D02*
X77271904Y-59190533D01*
X77271904Y-59190533D02*
X77319523Y-59333390D01*
X77319523Y-59333390D02*
X77890951Y-59904819D01*
X77890951Y-59904819D02*
X77271904Y-59904819D01*
X81100475Y-57454819D02*
X81100475Y-56454819D01*
X81100475Y-56454819D02*
X80862380Y-56454819D01*
X80862380Y-56454819D02*
X80719523Y-56502438D01*
X80719523Y-56502438D02*
X80624285Y-56597676D01*
X80624285Y-56597676D02*
X80576666Y-56692914D01*
X80576666Y-56692914D02*
X80529047Y-56883390D01*
X80529047Y-56883390D02*
X80529047Y-57026247D01*
X80529047Y-57026247D02*
X80576666Y-57216723D01*
X80576666Y-57216723D02*
X80624285Y-57311961D01*
X80624285Y-57311961D02*
X80719523Y-57407200D01*
X80719523Y-57407200D02*
X80862380Y-57454819D01*
X80862380Y-57454819D02*
X81100475Y-57454819D01*
X79671904Y-56788152D02*
X79671904Y-57597676D01*
X79671904Y-57597676D02*
X79719523Y-57692914D01*
X79719523Y-57692914D02*
X79767142Y-57740533D01*
X79767142Y-57740533D02*
X79862380Y-57788152D01*
X79862380Y-57788152D02*
X80005237Y-57788152D01*
X80005237Y-57788152D02*
X80100475Y-57740533D01*
X79671904Y-57407200D02*
X79767142Y-57454819D01*
X79767142Y-57454819D02*
X79957618Y-57454819D01*
X79957618Y-57454819D02*
X80052856Y-57407200D01*
X80052856Y-57407200D02*
X80100475Y-57359580D01*
X80100475Y-57359580D02*
X80148094Y-57264342D01*
X80148094Y-57264342D02*
X80148094Y-56978628D01*
X80148094Y-56978628D02*
X80100475Y-56883390D01*
X80100475Y-56883390D02*
X80052856Y-56835771D01*
X80052856Y-56835771D02*
X79957618Y-56788152D01*
X79957618Y-56788152D02*
X79767142Y-56788152D01*
X79767142Y-56788152D02*
X79671904Y-56835771D01*
X78624285Y-57454819D02*
X78957618Y-56978628D01*
X79195713Y-57454819D02*
X79195713Y-56454819D01*
X79195713Y-56454819D02*
X78814761Y-56454819D01*
X78814761Y-56454819D02*
X78719523Y-56502438D01*
X78719523Y-56502438D02*
X78671904Y-56550057D01*
X78671904Y-56550057D02*
X78624285Y-56645295D01*
X78624285Y-56645295D02*
X78624285Y-56788152D01*
X78624285Y-56788152D02*
X78671904Y-56883390D01*
X78671904Y-56883390D02*
X78719523Y-56931009D01*
X78719523Y-56931009D02*
X78814761Y-56978628D01*
X78814761Y-56978628D02*
X79195713Y-56978628D01*
X77671904Y-57454819D02*
X78243332Y-57454819D01*
X77957618Y-57454819D02*
X77957618Y-56454819D01*
X77957618Y-56454819D02*
X78052856Y-56597676D01*
X78052856Y-56597676D02*
X78148094Y-56692914D01*
X78148094Y-56692914D02*
X78243332Y-56740533D01*
D12*
X67225000Y-54776000D02*
X67225000Y-53225000D01*
X67361000Y-55126000D02*
X72249000Y-55126000D01*
X67361000Y-58324000D02*
X67361000Y-55126000D01*
X72249000Y-55126000D02*
X72249000Y-58324000D01*
X72249000Y-58324000D02*
X67361000Y-58324000D01*
X89725000Y-55050000D02*
X89725000Y-53525000D01*
X89885000Y-55400000D02*
X98535000Y-55400000D01*
X89885000Y-58600000D02*
X89885000Y-55400000D01*
X98535000Y-55400000D02*
X98535000Y-58600000D01*
X98535000Y-58600000D02*
X89885000Y-58600000D01*
D13*
X87305000Y-56638748D02*
X87305000Y-57161252D01*
X88775000Y-56638748D02*
X88775000Y-57161252D01*
X74882936Y-58665000D02*
X75337064Y-58665000D01*
X74882936Y-60135000D02*
X75337064Y-60135000D01*
X74882936Y-56265000D02*
X75337064Y-56265000D01*
X74882936Y-57735000D02*
X75337064Y-57735000D01*
%LPC*%
D14*
X101000000Y-139555000D03*
D15*
X101000000Y-142095000D03*
D16*
X126400000Y-123500000D03*
D14*
X126400000Y-125500000D03*
D17*
X119030000Y-150190000D03*
D18*
X121100000Y-151460000D03*
X119030000Y-152730000D03*
D19*
X130460000Y-41970000D03*
X133000000Y-41970000D03*
X135540000Y-41970000D03*
X135540000Y-36890000D03*
X130460000Y-36890000D03*
D14*
X86885000Y-125600000D03*
D15*
X84345000Y-125600000D03*
D14*
X124430000Y-141430000D03*
X124430000Y-146430000D03*
D20*
X67000000Y-35000000D03*
X66450000Y-29500000D03*
X71950000Y-29500000D03*
D21*
X71400000Y-35000000D03*
D14*
X98955000Y-132500000D03*
D15*
X101495000Y-132500000D03*
D14*
X114900000Y-144640000D03*
D15*
X114900000Y-142100000D03*
D14*
X72660000Y-138400000D03*
D15*
X75200000Y-138400000D03*
D16*
X84540000Y-140100000D03*
D14*
X86540000Y-140100000D03*
X124430000Y-154430000D03*
X124430000Y-149430000D03*
D17*
X86710000Y-131770000D03*
D22*
X84640000Y-130500000D03*
X86710000Y-129230000D03*
D14*
X142340000Y-113215000D03*
D15*
X142340000Y-110675000D03*
D14*
X155560000Y-142100000D03*
D15*
X158100000Y-142100000D03*
D14*
X133340000Y-104775000D03*
D15*
X130800000Y-104775000D03*
D23*
X73675000Y-109970000D03*
D24*
X74945000Y-107900000D03*
X76215000Y-109970000D03*
D14*
X118200000Y-129060000D03*
D15*
X118200000Y-131600000D03*
D25*
X43900000Y-99340000D03*
D26*
X43900000Y-96800000D03*
D25*
X104855000Y-107515000D03*
D26*
X107395000Y-107515000D03*
D16*
X144680000Y-131000000D03*
D15*
X144680000Y-133540000D03*
X144680000Y-136080000D03*
X152300000Y-136080000D03*
X152300000Y-133540000D03*
X152300000Y-131000000D03*
D14*
X79905000Y-98800000D03*
D15*
X82445000Y-98800000D03*
D14*
X82045000Y-108200000D03*
D15*
X79505000Y-108200000D03*
D27*
X156625000Y-95885000D03*
D28*
X50200000Y-103527400D03*
D29*
X50200000Y-105527400D03*
D27*
X31975000Y-109475000D03*
D30*
X31975000Y-106935000D03*
D14*
X43645000Y-157600000D03*
D15*
X46185000Y-157600000D03*
D14*
X47900000Y-97100000D03*
D15*
X47900000Y-99640000D03*
D14*
X108956000Y-64000000D03*
X108956000Y-59000000D03*
X150300000Y-154800000D03*
X155300000Y-154800000D03*
D31*
X149065000Y-103575000D03*
D32*
X156685000Y-106115000D03*
X161765000Y-103575000D03*
D14*
X25700000Y-138000000D03*
D15*
X25700000Y-135460000D03*
D14*
X85400000Y-108200000D03*
D15*
X87940000Y-108200000D03*
D14*
X92255000Y-125800000D03*
D15*
X94795000Y-125800000D03*
D16*
X40500000Y-161200000D03*
D15*
X40500000Y-158660000D03*
X40500000Y-156120000D03*
X40500000Y-153580000D03*
X32880000Y-153580000D03*
X32880000Y-156120000D03*
X32880000Y-158660000D03*
X32880000Y-161200000D03*
D14*
X74800000Y-142900000D03*
D15*
X72260000Y-142900000D03*
D16*
X103495000Y-29780100D03*
D14*
X103495000Y-27280100D03*
D31*
X160500000Y-51900000D03*
D32*
X155400000Y-49310000D03*
D23*
X53030000Y-138570000D03*
D24*
X54300000Y-136500000D03*
X55570000Y-138570000D03*
D14*
X154255000Y-73660000D03*
X149255000Y-73660000D03*
X117180000Y-42500000D03*
X117180000Y-37500000D03*
D20*
X76000000Y-35000000D03*
X75450000Y-29500000D03*
X80950000Y-29500000D03*
D21*
X80400000Y-35000000D03*
D16*
X72700000Y-162400000D03*
D14*
X70700000Y-162400000D03*
X40500000Y-132500000D03*
D15*
X40500000Y-129960000D03*
D23*
X104500000Y-136400000D03*
D24*
X105770000Y-134330000D03*
X107040000Y-136400000D03*
D14*
X118700000Y-67200000D03*
D15*
X121240000Y-67200000D03*
D14*
X72800000Y-154740000D03*
D15*
X72800000Y-152200000D03*
D14*
X44700000Y-105600000D03*
D15*
X44700000Y-103060000D03*
D14*
X72830000Y-149010000D03*
D15*
X72830000Y-146470000D03*
D16*
X94345000Y-98544900D03*
D14*
X94345000Y-100544900D03*
D33*
X108680000Y-31420000D03*
D34*
X108680000Y-33960000D03*
X108680000Y-36500000D03*
D28*
X50390000Y-161027400D03*
D29*
X50390000Y-163027400D03*
D31*
X112400000Y-151300000D03*
D32*
X109860000Y-158920000D03*
X112400000Y-164000000D03*
D25*
X94345000Y-136100000D03*
D26*
X91805000Y-136100000D03*
D14*
X92155000Y-132600000D03*
D15*
X94695000Y-132600000D03*
D14*
X62600000Y-137200000D03*
D15*
X60060000Y-137200000D03*
D14*
X77800000Y-163545000D03*
D15*
X77800000Y-161005000D03*
D27*
X161075000Y-44800000D03*
D30*
X158535000Y-44800000D03*
D23*
X110210000Y-93965000D03*
D24*
X111480000Y-91895000D03*
X112750000Y-93965000D03*
D35*
X33300000Y-34700000D03*
D36*
X40800000Y-34700000D03*
X48300000Y-34700000D03*
X35800000Y-37200000D03*
X45800000Y-37200000D03*
X35800000Y-24800000D03*
X45800000Y-24800000D03*
D16*
X98100000Y-153700000D03*
D15*
X98100000Y-156240000D03*
X98100000Y-158780000D03*
X105720000Y-158780000D03*
X105720000Y-156240000D03*
X105720000Y-153700000D03*
D14*
X150000000Y-139600000D03*
D15*
X147460000Y-139600000D03*
D16*
X119730000Y-114205000D03*
D15*
X119730000Y-111665000D03*
X119730000Y-109125000D03*
X119730000Y-106585000D03*
X119730000Y-104045000D03*
X119730000Y-101505000D03*
X119730000Y-98965000D03*
X112110000Y-98965000D03*
X112110000Y-101505000D03*
X112110000Y-104045000D03*
X112110000Y-106585000D03*
X112110000Y-109125000D03*
X112110000Y-111665000D03*
X112110000Y-114205000D03*
D14*
X118100000Y-136545000D03*
D15*
X118100000Y-134005000D03*
D14*
X51950000Y-97100000D03*
D15*
X51950000Y-99640000D03*
D27*
X128100000Y-57880000D03*
D30*
X128100000Y-60420000D03*
X128100000Y-62960000D03*
X128100000Y-65500000D03*
X128100000Y-68040000D03*
D14*
X162100000Y-145600000D03*
X157100000Y-145600000D03*
D27*
X137300000Y-158125000D03*
D14*
X79845000Y-103600000D03*
D15*
X82385000Y-103600000D03*
D14*
X159860000Y-149000000D03*
D15*
X162400000Y-149000000D03*
D28*
X89672600Y-164700000D03*
D29*
X87672600Y-164700000D03*
D14*
X121900000Y-59140000D03*
D15*
X121900000Y-56600000D03*
D14*
X148355000Y-147600000D03*
D15*
X150895000Y-147600000D03*
D23*
X44230000Y-111570000D03*
D24*
X45500000Y-109500000D03*
X46770000Y-111570000D03*
D25*
X48100000Y-133200000D03*
D26*
X45560000Y-133200000D03*
D14*
X86840000Y-135300000D03*
D15*
X84300000Y-135300000D03*
D14*
X82800000Y-158140000D03*
D15*
X82800000Y-155600000D03*
D14*
X70140000Y-129130000D03*
D15*
X67600000Y-129130000D03*
D37*
X160420900Y-80280000D03*
X159150900Y-79010000D03*
X160420900Y-77740000D03*
D14*
X55345000Y-151900000D03*
X50345000Y-151900000D03*
D28*
X114000000Y-128810000D03*
D29*
X114000000Y-130810000D03*
D23*
X137500000Y-138400000D03*
D24*
X138770000Y-136330000D03*
X140040000Y-138400000D03*
D14*
X95100000Y-147900000D03*
X90100000Y-147900000D03*
X148945000Y-81640000D03*
D15*
X148945000Y-79100000D03*
D38*
X152000000Y-34800000D03*
D39*
X152000000Y-28800000D03*
D40*
X147300000Y-31800000D03*
D14*
X147145000Y-67310000D03*
X142145000Y-67310000D03*
D41*
X154245000Y-82040000D03*
D42*
X154245000Y-78230000D03*
D27*
X88105000Y-70733000D03*
D30*
X90645000Y-70733000D03*
X93185000Y-70733000D03*
X95725000Y-70733000D03*
D14*
X105400000Y-41275000D03*
D15*
X97780000Y-41275000D03*
D23*
X57605000Y-104345000D03*
D43*
X56335000Y-106415000D03*
X55065000Y-104345000D03*
D25*
X138500000Y-143460000D03*
D26*
X138500000Y-146000000D03*
D14*
X155155000Y-122800000D03*
D15*
X157695000Y-122800000D03*
D14*
X124430000Y-162530000D03*
X124430000Y-157530000D03*
D25*
X104810000Y-100665000D03*
D26*
X107350000Y-100665000D03*
D14*
X136600000Y-104775000D03*
D15*
X139140000Y-104775000D03*
D14*
X147100000Y-160700000D03*
D15*
X144560000Y-160700000D03*
D14*
X76345000Y-98800000D03*
D15*
X73805000Y-98800000D03*
D27*
X59300000Y-158800000D03*
D30*
X56760000Y-158800000D03*
D31*
X116480000Y-32700000D03*
D32*
X119070000Y-27600000D03*
D14*
X32460000Y-148200000D03*
D15*
X35000000Y-148200000D03*
D14*
X26860000Y-148200000D03*
D15*
X29400000Y-148200000D03*
D23*
X137530000Y-131770000D03*
D24*
X138800000Y-129700000D03*
X140070000Y-131770000D03*
D17*
X118930000Y-142630000D03*
D18*
X121000000Y-143900000D03*
X118930000Y-145170000D03*
D16*
X145340100Y-73660000D03*
D14*
X142840100Y-73660000D03*
X151775000Y-122800000D03*
D15*
X149235000Y-122800000D03*
D17*
X129410000Y-142590000D03*
D18*
X131480000Y-143860000D03*
X129410000Y-145130000D03*
D16*
X155080000Y-131060000D03*
D15*
X155080000Y-133600000D03*
X155080000Y-136140000D03*
X155080000Y-138680000D03*
X162700000Y-138680000D03*
X162700000Y-136140000D03*
X162700000Y-133600000D03*
X162700000Y-131060000D03*
D14*
X98955000Y-135900000D03*
D15*
X101495000Y-135900000D03*
D14*
X95100000Y-144500000D03*
X90100000Y-144500000D03*
D44*
X120881000Y-48950000D03*
X127381000Y-48950000D03*
X120881000Y-53450000D03*
X127381000Y-53450000D03*
D28*
X89600000Y-159600000D03*
D29*
X87600000Y-159600000D03*
D17*
X118930000Y-158790000D03*
D18*
X121000000Y-160060000D03*
X118930000Y-161330000D03*
D14*
X55140000Y-133100000D03*
D15*
X52600000Y-133100000D03*
D14*
X112800000Y-67200000D03*
D15*
X115340000Y-67200000D03*
D14*
X143400000Y-145200000D03*
D15*
X143400000Y-142660000D03*
D20*
X85000000Y-35000000D03*
X84450000Y-29500000D03*
X89950000Y-29500000D03*
D21*
X89400000Y-35000000D03*
D27*
X137150000Y-72390000D03*
D30*
X137150000Y-69850000D03*
X137150000Y-67310000D03*
D14*
X162775000Y-122800000D03*
D15*
X160235000Y-122800000D03*
D16*
X152390000Y-86400000D03*
D14*
X152390000Y-88900000D03*
D23*
X85235000Y-104270000D03*
D24*
X86505000Y-102200000D03*
X87775000Y-104270000D03*
D23*
X104500000Y-131100000D03*
D24*
X105770000Y-129030000D03*
X107040000Y-131100000D03*
D14*
X53050000Y-129500000D03*
D15*
X55590000Y-129500000D03*
D20*
X58000000Y-35000000D03*
X57450000Y-29500000D03*
X62950000Y-29500000D03*
D21*
X62400000Y-35000000D03*
D23*
X104500000Y-141600000D03*
D24*
X105770000Y-139530000D03*
X107040000Y-141600000D03*
D27*
X54880000Y-71000000D03*
D30*
X57420000Y-71000000D03*
X59960000Y-71000000D03*
X62500000Y-71000000D03*
D14*
X61400000Y-104110000D03*
X61400000Y-109110000D03*
X55345000Y-148600000D03*
X50345000Y-148600000D03*
X133240000Y-95675000D03*
D15*
X130700000Y-95675000D03*
D14*
X149845000Y-127000000D03*
D15*
X147305000Y-127000000D03*
D16*
X138840000Y-108375000D03*
D15*
X136300000Y-108375000D03*
X133760000Y-108375000D03*
X131220000Y-108375000D03*
X131220000Y-115995000D03*
X133760000Y-115995000D03*
X136300000Y-115995000D03*
X138840000Y-115995000D03*
D14*
X143400000Y-150640000D03*
D15*
X143400000Y-148100000D03*
D14*
X82800000Y-163540000D03*
D15*
X82800000Y-161000000D03*
D27*
X161075000Y-41200000D03*
D30*
X158535000Y-41200000D03*
D14*
X77800000Y-158040000D03*
D15*
X77800000Y-155500000D03*
D14*
X104670000Y-91965000D03*
D15*
X107210000Y-91965000D03*
D14*
X87585000Y-98800000D03*
D15*
X85045000Y-98800000D03*
D14*
X49150000Y-157600000D03*
D15*
X51690000Y-157600000D03*
D14*
X39500000Y-142400000D03*
D15*
X42040000Y-142400000D03*
D25*
X70140000Y-125600000D03*
D26*
X67600000Y-125600000D03*
D14*
X94100000Y-159040000D03*
D15*
X94100000Y-156500000D03*
D14*
X60555000Y-133000000D03*
D15*
X63095000Y-133000000D03*
D27*
X32175000Y-120075000D03*
D30*
X32175000Y-117535000D03*
D14*
X99725000Y-36195000D03*
X104725000Y-36195000D03*
D28*
X34372600Y-142400000D03*
D29*
X32372600Y-142400000D03*
D27*
X150440000Y-41200000D03*
D30*
X147900000Y-41200000D03*
D41*
X161280000Y-90170000D03*
D42*
X157470000Y-90170000D03*
D44*
X109525000Y-48950000D03*
X116025000Y-48950000D03*
X109525000Y-53450000D03*
X116025000Y-53450000D03*
D23*
X144630000Y-156670000D03*
D24*
X145900000Y-154600000D03*
X147170000Y-156670000D03*
D14*
X101100000Y-129200000D03*
D15*
X98560000Y-129200000D03*
D17*
X131340000Y-98975000D03*
D18*
X133410000Y-100245000D03*
X131340000Y-101515000D03*
D14*
X60050000Y-97100000D03*
D15*
X60050000Y-99640000D03*
D23*
X37530000Y-111570000D03*
D24*
X38800000Y-109500000D03*
X40070000Y-111570000D03*
D41*
X154930000Y-55880000D03*
D42*
X160010000Y-55880000D03*
D27*
X42100000Y-65300000D03*
D30*
X44640000Y-65300000D03*
X47180000Y-65300000D03*
D14*
X47940000Y-129700000D03*
D15*
X45400000Y-129700000D03*
D17*
X138410000Y-101445000D03*
D22*
X136340000Y-100175000D03*
X138410000Y-98905000D03*
D16*
X36400000Y-137800000D03*
D15*
X36400000Y-135260000D03*
X36400000Y-132720000D03*
X36400000Y-130180000D03*
X28780000Y-130180000D03*
X28780000Y-132720000D03*
X28780000Y-135260000D03*
X28780000Y-137800000D03*
D45*
X166805000Y-64770000D03*
D46*
X150145000Y-62230000D03*
D47*
X150145000Y-64770000D03*
X150145000Y-67310000D03*
D14*
X45870000Y-125890000D03*
D15*
X48410000Y-125890000D03*
D14*
X92250000Y-129200000D03*
D15*
X94790000Y-129200000D03*
D14*
X38600000Y-97200000D03*
D15*
X38600000Y-99740000D03*
D14*
X91760000Y-152100000D03*
D15*
X94300000Y-152100000D03*
D14*
X67700000Y-154840000D03*
D15*
X67700000Y-152300000D03*
D28*
X75745000Y-102727400D03*
D29*
X75745000Y-104727400D03*
D16*
X60700000Y-127600000D03*
D14*
X60700000Y-125600000D03*
D17*
X37760000Y-103330000D03*
D18*
X39830000Y-104600000D03*
X37760000Y-105870000D03*
D14*
X118110000Y-92065000D03*
D15*
X115570000Y-92065000D03*
D27*
X76605000Y-70733000D03*
D30*
X79145000Y-70733000D03*
X81685000Y-70733000D03*
X84225000Y-70733000D03*
D14*
X39540000Y-137880000D03*
D15*
X42080000Y-137880000D03*
D16*
X52040000Y-109719900D03*
D14*
X52040000Y-111719900D03*
X106855000Y-110815000D03*
D15*
X104315000Y-110815000D03*
D25*
X124195000Y-109675000D03*
D26*
X126735000Y-109675000D03*
D23*
X137330000Y-124470000D03*
D24*
X138600000Y-122400000D03*
X139870000Y-124470000D03*
D16*
X40800000Y-53175000D03*
D15*
X40800000Y-55715000D03*
X40800000Y-58255000D03*
X48420000Y-58255000D03*
X48420000Y-55715000D03*
X48420000Y-53175000D03*
D16*
X54860000Y-65850000D03*
D15*
X57400000Y-65850000D03*
X59940000Y-65850000D03*
X62480000Y-65850000D03*
X65020000Y-65850000D03*
X67560000Y-65850000D03*
X70100000Y-65850000D03*
X72640000Y-65850000D03*
X75180000Y-65850000D03*
X77720000Y-65850000D03*
X80260000Y-65850000D03*
X82800000Y-65850000D03*
X85340000Y-65850000D03*
X87880000Y-65850000D03*
X90420000Y-65850000D03*
X92960000Y-65850000D03*
X95500000Y-65850000D03*
X98040000Y-65850000D03*
X100580000Y-65850000D03*
X103120000Y-65850000D03*
X103120000Y-48050000D03*
X100580000Y-48050000D03*
X98040000Y-48050000D03*
X95500000Y-48050000D03*
X92960000Y-48050000D03*
X90420000Y-48050000D03*
X87880000Y-48050000D03*
X85340000Y-48050000D03*
X82800000Y-48050000D03*
X80260000Y-48050000D03*
X77720000Y-48050000D03*
X75180000Y-48050000D03*
X72640000Y-48050000D03*
X70100000Y-48050000D03*
X67560000Y-48050000D03*
X65020000Y-48050000D03*
X62480000Y-48050000D03*
X59940000Y-48050000D03*
X57400000Y-48050000D03*
X54860000Y-48050000D03*
D14*
X121500000Y-131150000D03*
D15*
X121500000Y-128610000D03*
D23*
X67960000Y-134700000D03*
D24*
X69230000Y-132630000D03*
X70500000Y-134700000D03*
D16*
X152900000Y-158600000D03*
D14*
X152900000Y-160600000D03*
X144155000Y-122800000D03*
D15*
X146695000Y-122800000D03*
D27*
X150475000Y-44800000D03*
D30*
X147935000Y-44800000D03*
D27*
X32075000Y-98625000D03*
D30*
X32075000Y-96085000D03*
X32075000Y-93545000D03*
D14*
X45100000Y-148500000D03*
D15*
X47640000Y-148500000D03*
D14*
X79885000Y-129300000D03*
D15*
X77345000Y-129300000D03*
D48*
X147137700Y-53975000D03*
D49*
X142137700Y-53975000D03*
D17*
X129230000Y-158830000D03*
D18*
X131300000Y-160100000D03*
X129230000Y-161370000D03*
D17*
X68000000Y-148840000D03*
D22*
X65930000Y-147570000D03*
X68000000Y-146300000D03*
D25*
X124240000Y-113875000D03*
D26*
X126780000Y-113875000D03*
D14*
X106750000Y-95165000D03*
D15*
X104210000Y-95165000D03*
D31*
X149145000Y-110870000D03*
D32*
X156765000Y-113410000D03*
X161845000Y-110870000D03*
D25*
X55200000Y-125900000D03*
D26*
X52660000Y-125900000D03*
D14*
X45105000Y-151900000D03*
D15*
X47645000Y-151900000D03*
D14*
X43650000Y-161200000D03*
D15*
X46190000Y-161200000D03*
D25*
X104810000Y-104115000D03*
D26*
X107350000Y-104115000D03*
D23*
X153800000Y-151000000D03*
D24*
X155070000Y-148930000D03*
X156340000Y-151000000D03*
D14*
X101100000Y-125800000D03*
D15*
X98560000Y-125800000D03*
D14*
X56000000Y-97100000D03*
D15*
X56000000Y-99640000D03*
D17*
X62270000Y-154975000D03*
D22*
X60200000Y-153705000D03*
X62270000Y-152435000D03*
D16*
X104200000Y-148900000D03*
D14*
X102200000Y-148900000D03*
X68100000Y-143000000D03*
X68100000Y-138000000D03*
X136440000Y-95675000D03*
D15*
X138980000Y-95675000D03*
D16*
X66600000Y-162300000D03*
D14*
X64600000Y-162300000D03*
D16*
X77484900Y-134500000D03*
D14*
X79484900Y-134500000D03*
D16*
X131125000Y-130305000D03*
D15*
X128585000Y-130305000D03*
X126045000Y-130305000D03*
X126045000Y-137925000D03*
X128585000Y-137925000D03*
X131125000Y-137925000D03*
D14*
X122030000Y-165730000D03*
X127030000Y-165730000D03*
X49300000Y-121800000D03*
X44300000Y-121800000D03*
D16*
X77400000Y-146475000D03*
D15*
X77400000Y-149015000D03*
X77400000Y-151555000D03*
X85020000Y-151555000D03*
X85020000Y-149015000D03*
X85020000Y-146475000D03*
D14*
X131300000Y-123355000D03*
D15*
X131300000Y-125895000D03*
D14*
X159785000Y-85725000D03*
D15*
X157245000Y-85725000D03*
D14*
X148360000Y-150900000D03*
D15*
X150900000Y-150900000D03*
D14*
X114200000Y-134455000D03*
D15*
X114200000Y-136995000D03*
D31*
X141740000Y-85090000D03*
D32*
X141740000Y-82550000D03*
X141740000Y-80010000D03*
D14*
X77800000Y-125600000D03*
D15*
X80340000Y-125600000D03*
D14*
X104860000Y-125800000D03*
D15*
X107400000Y-125800000D03*
D27*
X63490000Y-41912000D03*
D30*
X66030000Y-41912000D03*
X68570000Y-41912000D03*
X71110000Y-41912000D03*
X73650000Y-41912000D03*
X76190000Y-41912000D03*
D14*
X161240000Y-127000000D03*
X156240000Y-127000000D03*
X60400000Y-149045000D03*
D15*
X60400000Y-146505000D03*
D14*
X124540000Y-103875000D03*
X124540000Y-98875000D03*
D28*
X28172600Y-156000000D03*
D29*
X26172600Y-156000000D03*
D14*
X147045000Y-62810000D03*
X142045000Y-62810000D03*
D27*
X36800000Y-80500000D03*
D30*
X36800000Y-83040000D03*
X39340000Y-80500000D03*
X39340000Y-83040000D03*
X41880000Y-80500000D03*
X41880000Y-83040000D03*
X44420000Y-80500000D03*
X44420000Y-83040000D03*
X46960000Y-80500000D03*
X46960000Y-83040000D03*
X49500000Y-80500000D03*
X49500000Y-83040000D03*
X52040000Y-80500000D03*
X52040000Y-83040000D03*
X54580000Y-80500000D03*
X54580000Y-83040000D03*
X57120000Y-80500000D03*
X57120000Y-83040000D03*
X59660000Y-80500000D03*
X59660000Y-83040000D03*
X62200000Y-80500000D03*
X62200000Y-83040000D03*
X64740000Y-80500000D03*
X64740000Y-83040000D03*
X67280000Y-80500000D03*
X67280000Y-83040000D03*
X69820000Y-80500000D03*
X69820000Y-83040000D03*
X72360000Y-80500000D03*
X72360000Y-83040000D03*
X74900000Y-80500000D03*
X74900000Y-83040000D03*
X77440000Y-80500000D03*
X77440000Y-83040000D03*
X79980000Y-80500000D03*
X79980000Y-83040000D03*
X82520000Y-80500000D03*
X82520000Y-83040000D03*
X85060000Y-80500000D03*
X85060000Y-83040000D03*
D17*
X129260000Y-150160000D03*
D18*
X131330000Y-151430000D03*
X129260000Y-152700000D03*
D14*
X38255000Y-148200000D03*
D15*
X40795000Y-148200000D03*
D50*
X67900000Y-54000000D03*
X69170000Y-54000000D03*
X70440000Y-54000000D03*
X71710000Y-54000000D03*
X71710000Y-59450000D03*
X70440000Y-59450000D03*
X69170000Y-59450000D03*
X67900000Y-59450000D03*
D51*
X90400000Y-54288000D03*
X91670000Y-54288000D03*
X92940000Y-54288000D03*
X94210000Y-54288000D03*
X95480000Y-54288000D03*
X96750000Y-54288000D03*
X98020000Y-54288000D03*
X98020000Y-59712000D03*
X96750000Y-59712000D03*
X95480000Y-59712000D03*
X94210000Y-59712000D03*
X92940000Y-59712000D03*
X91670000Y-59712000D03*
X90400000Y-59712000D03*
D52*
X88040000Y-57937500D03*
X88040000Y-55862500D03*
D53*
X76110000Y-59400000D03*
X74110000Y-59400000D03*
X76110000Y-57000000D03*
X74110000Y-57000000D03*
D54*
X50823600Y-77061200D03*
X62200000Y-77000000D03*
D55*
X95228500Y-58349000D03*
X84200000Y-43998400D03*
X106100000Y-55800000D03*
X47100000Y-47300000D03*
X86200000Y-55800000D03*
X35500000Y-55800000D03*
X89100000Y-52400000D03*
X85340000Y-42400000D03*
X77600000Y-45700000D03*
X88000000Y-54200000D03*
X102000000Y-45700000D03*
X71700000Y-56700000D03*
X58200000Y-38000000D03*
X83500000Y-37400000D03*
X72700000Y-63900000D03*
X35500000Y-53800000D03*
X44400000Y-86400000D03*
X106500000Y-52000000D03*
X53200000Y-46600000D03*
X67200000Y-63900000D03*
X86400000Y-49700000D03*
X73100000Y-54000000D03*
X39057500Y-54040800D03*
X43200000Y-67900000D03*
X38000000Y-67900000D03*
X92900000Y-57600000D03*
X100700000Y-49800000D03*
X100700000Y-51900000D03*
X103211400Y-126261700D03*
X82900000Y-110800000D03*
X80800000Y-110800000D03*
D54*
X127800000Y-106400000D03*
X50500000Y-93200000D03*
X128900000Y-103500000D03*
X99500000Y-102000000D03*
X110900000Y-130900000D03*
X54800000Y-119100000D03*
X60700000Y-120700000D03*
X114600000Y-96400000D03*
X118400000Y-120200000D03*
X110500000Y-96400000D03*
X112500000Y-124700000D03*
X53500000Y-93200000D03*
X94200000Y-111300000D03*
X73700000Y-129100000D03*
X85500000Y-116100000D03*
X85500000Y-118500000D03*
X94200000Y-105100000D03*
X104700000Y-97400000D03*
X62700000Y-147900000D03*
X87700000Y-86400000D03*
D55*
X70700000Y-167400000D03*
D54*
X45900000Y-95000000D03*
X50600000Y-86200000D03*
D55*
X60869100Y-84565400D03*
X63744000Y-92054800D03*
X66000000Y-84200000D03*
X64700000Y-85500000D03*
X97200000Y-78400000D03*
%LPD*%
M02*
