M48
; DRILL file {KiCad 8.0.2} date 2024-10-15T19:34:49+0900
; FORMAT={-:-/ absolute / metric / decimal}
; #@! TF.CreationDate,2024-10-15T19:34:49+09:00
; #@! TF.GenerationSoftware,Kicad,Pcbnew,8.0.2
; #@! TF.FileFunction,MixedPlating,1,2
FMAT,2
METRIC
; #@! TA.AperFunction,Plated,PTH,ViaDrill
T1C0.300
; #@! TA.AperFunction,Plated,PTH,ComponentDrill
T2C0.600
; #@! TA.AperFunction,Plated,PTH,ComponentDrill
T3C0.710
; #@! TA.AperFunction,Plated,PTH,ComponentDrill
T4C0.750
; #@! TA.AperFunction,Plated,PTH,ComponentDrill
T5C0.800
; #@! TA.AperFunction,Plated,PTH,ComponentDrill
T6C0.810
; #@! TA.AperFunction,Plated,PTH,ComponentDrill
T7C0.870
; #@! TA.AperFunction,Plated,PTH,ComponentDrill
T8C0.900
; #@! TA.AperFunction,Plated,PTH,ComponentDrill
T9C1.000
; #@! TA.AperFunction,Plated,PTH,ComponentDrill
T10C1.050
; #@! TA.AperFunction,Plated,PTH,ComponentDrill
T11C1.090
; #@! TA.AperFunction,Plated,PTH,ComponentDrill
T12C1.100
; #@! TA.AperFunction,Plated,PTH,ComponentDrill
T13C1.500
; #@! TA.AperFunction,Plated,PTH,ComponentDrill
T14C1.530
; #@! TA.AperFunction,Plated,PTH,ComponentDrill
T15C1.640
; #@! TA.AperFunction,NonPlated,NPTH,ComponentDrill
T16C3.500
%
G90
G05
T1
X35.5Y-53.8
X35.5Y-55.8
X38.0Y-67.9
X39.057Y-54.041
X43.2Y-67.9
X44.4Y-86.4
X45.9Y-95.0
X47.1Y-47.3
X50.5Y-93.2
X50.6Y-86.2
X50.824Y-77.061
X53.2Y-46.6
X53.5Y-93.2
X54.8Y-119.1
X58.2Y-38.0
X60.7Y-120.7
X60.869Y-84.565
X62.2Y-77.0
X62.7Y-147.9
X63.744Y-92.055
X64.7Y-85.5
X66.0Y-84.2
X67.2Y-63.9
X70.7Y-167.4
X71.7Y-56.7
X72.7Y-63.9
X73.1Y-54.0
X73.7Y-129.1
X77.6Y-45.7
X80.8Y-110.8
X82.9Y-110.8
X83.5Y-37.4
X84.2Y-43.998
X85.34Y-42.4
X85.5Y-116.1
X85.5Y-118.5
X86.2Y-55.8
X86.4Y-49.7
X87.7Y-86.4
X88.0Y-54.2
X89.1Y-52.4
X92.9Y-57.6
X94.2Y-105.1
X94.2Y-111.3
X95.228Y-58.349
X97.2Y-78.4
X99.5Y-102.0
X100.7Y-49.8
X100.7Y-51.9
X102.0Y-45.7
X103.211Y-126.262
X104.7Y-97.4
X106.1Y-55.8
X106.5Y-52.0
X110.5Y-96.4
X110.9Y-130.9
X112.5Y-124.7
X114.6Y-96.4
X118.4Y-120.2
X127.8Y-106.4
X128.9Y-103.5
T2
X26.173Y-156.0
X28.173Y-156.0
X32.373Y-142.4
X34.373Y-142.4
X50.2Y-103.527
X50.2Y-105.527
X50.39Y-161.027
X50.39Y-163.027
X75.745Y-102.727
X75.745Y-104.727
X87.6Y-159.6
X87.673Y-164.7
X89.6Y-159.6
X89.673Y-164.7
X114.0Y-128.81
X114.0Y-130.81
T3
X109.86Y-158.92
X112.4Y-151.3
X112.4Y-164.0
X116.48Y-32.7
X119.07Y-27.6
X141.74Y-80.01
X141.74Y-82.55
X141.74Y-85.09
X149.065Y-103.575
X149.145Y-110.87
X155.4Y-49.31
X156.685Y-106.115
X156.765Y-113.41
X160.5Y-51.9
X161.765Y-103.575
X161.845Y-110.87
T4
X37.53Y-111.17
X38.16Y-103.33
X38.16Y-105.87
X38.8Y-109.9
X39.43Y-104.6
X40.07Y-111.17
X44.23Y-111.17
X45.5Y-109.9
X46.77Y-111.17
X53.03Y-138.17
X54.3Y-136.9
X55.065Y-104.745
X55.57Y-138.17
X56.335Y-106.015
X57.605Y-104.745
X60.6Y-153.705
X61.87Y-152.435
X61.87Y-154.975
X66.33Y-147.57
X67.6Y-146.3
X67.6Y-148.84
X67.96Y-134.3
X69.23Y-133.03
X70.5Y-134.3
X73.675Y-109.57
X74.945Y-108.3
X76.215Y-109.57
X85.04Y-130.5
X85.235Y-103.87
X86.31Y-129.23
X86.31Y-131.77
X86.505Y-102.6
X87.775Y-103.87
X104.5Y-130.7
X104.5Y-136.0
X104.5Y-141.2
X105.77Y-129.43
X105.77Y-134.73
X105.77Y-139.93
X107.04Y-130.7
X107.04Y-136.0
X107.04Y-141.2
X110.21Y-93.565
X111.48Y-92.295
X112.75Y-93.565
X119.33Y-142.63
X119.33Y-145.17
X119.33Y-158.79
X119.33Y-161.33
X119.43Y-150.19
X119.43Y-152.73
X120.6Y-143.9
X120.6Y-160.06
X120.7Y-151.46
X129.63Y-158.83
X129.63Y-161.37
X129.66Y-150.16
X129.66Y-152.7
X129.81Y-142.59
X129.81Y-145.13
X130.9Y-160.1
X130.93Y-151.43
X131.08Y-143.86
X131.74Y-98.975
X131.74Y-101.515
X133.01Y-100.245
X136.74Y-100.175
X137.33Y-124.07
X137.5Y-138.0
X137.53Y-131.37
X138.01Y-98.905
X138.01Y-101.445
X138.6Y-122.8
X138.77Y-136.73
X138.8Y-130.1
X139.87Y-124.07
X140.04Y-138.0
X140.07Y-131.37
X144.63Y-156.27
X145.9Y-155.0
X147.17Y-156.27
X153.8Y-150.6
X155.07Y-149.33
X156.34Y-150.6
T5
X25.7Y-135.46
X25.7Y-138.0
X26.86Y-148.2
X28.78Y-130.18
X28.78Y-132.72
X28.78Y-135.26
X28.78Y-137.8
X29.4Y-148.2
X32.46Y-148.2
X32.88Y-153.58
X32.88Y-156.12
X32.88Y-158.66
X32.88Y-161.2
X35.0Y-148.2
X36.4Y-130.18
X36.4Y-132.72
X36.4Y-135.26
X36.4Y-137.8
X38.255Y-148.2
X38.6Y-97.2
X38.6Y-99.74
X39.5Y-142.4
X39.54Y-137.88
X40.5Y-129.96
X40.5Y-132.5
X40.5Y-153.58
X40.5Y-156.12
X40.5Y-158.66
X40.5Y-161.2
X40.795Y-148.2
X40.8Y-53.175
X40.8Y-55.715
X40.8Y-58.255
X42.04Y-142.4
X42.08Y-137.88
X43.645Y-157.6
X43.65Y-161.2
X44.3Y-121.8
X44.7Y-103.06
X44.7Y-105.6
X45.1Y-148.5
X45.105Y-151.9
X45.4Y-129.7
X45.87Y-125.89
X46.185Y-157.6
X46.19Y-161.2
X47.64Y-148.5
X47.645Y-151.9
X47.9Y-97.1
X47.9Y-99.64
X47.94Y-129.7
X48.41Y-125.89
X48.42Y-53.175
X48.42Y-55.715
X48.42Y-58.255
X49.15Y-157.6
X49.3Y-121.8
X50.345Y-148.6
X50.345Y-151.9
X51.69Y-157.6
X51.95Y-97.1
X51.95Y-99.64
X52.04Y-109.72
X52.04Y-111.72
X52.6Y-133.1
X53.05Y-129.5
X54.86Y-48.05
X54.86Y-65.85
X55.14Y-133.1
X55.345Y-148.6
X55.345Y-151.9
X55.59Y-129.5
X56.0Y-97.1
X56.0Y-99.64
X57.4Y-48.05
X57.4Y-65.85
X59.94Y-48.05
X59.94Y-65.85
X60.05Y-97.1
X60.05Y-99.64
X60.06Y-137.2
X60.4Y-146.505
X60.4Y-149.045
X60.555Y-133.0
X60.7Y-125.6
X60.7Y-127.6
X61.4Y-104.11
X61.4Y-109.11
X62.48Y-48.05
X62.48Y-65.85
X62.6Y-137.2
X63.095Y-133.0
X64.6Y-162.3
X65.02Y-48.05
X65.02Y-65.85
X66.6Y-162.3
X67.56Y-48.05
X67.56Y-65.85
X67.6Y-129.13
X67.7Y-152.3
X67.7Y-154.84
X68.1Y-138.0
X68.1Y-143.0
X70.1Y-48.05
X70.1Y-65.85
X70.14Y-129.13
X70.7Y-162.4
X72.26Y-142.9
X72.64Y-48.05
X72.64Y-65.85
X72.66Y-138.4
X72.7Y-162.4
X72.8Y-152.2
X72.8Y-154.74
X72.83Y-146.47
X72.83Y-149.01
X73.805Y-98.8
X74.8Y-142.9
X75.18Y-48.05
X75.18Y-65.85
X75.2Y-138.4
X76.345Y-98.8
X77.345Y-129.3
X77.4Y-146.475
X77.4Y-149.015
X77.4Y-151.555
X77.485Y-134.5
X77.72Y-48.05
X77.72Y-65.85
X77.8Y-125.6
X77.8Y-155.5
X77.8Y-158.04
X77.8Y-161.005
X77.8Y-163.545
X79.485Y-134.5
X79.505Y-108.2
X79.845Y-103.6
X79.885Y-129.3
X79.905Y-98.8
X80.26Y-48.05
X80.26Y-65.85
X80.34Y-125.6
X82.045Y-108.2
X82.385Y-103.6
X82.445Y-98.8
X82.8Y-48.05
X82.8Y-65.85
X82.8Y-155.6
X82.8Y-158.14
X82.8Y-161.0
X82.8Y-163.54
X84.3Y-135.3
X84.345Y-125.6
X84.54Y-140.1
X85.02Y-146.475
X85.02Y-149.015
X85.02Y-151.555
X85.045Y-98.8
X85.34Y-48.05
X85.34Y-65.85
X85.4Y-108.2
X86.54Y-140.1
X86.84Y-135.3
X86.885Y-125.6
X87.585Y-98.8
X87.88Y-48.05
X87.88Y-65.85
X87.94Y-108.2
X90.1Y-144.5
X90.1Y-147.9
X90.42Y-48.05
X90.42Y-65.85
X91.76Y-152.1
X92.155Y-132.6
X92.25Y-129.2
X92.255Y-125.8
X92.96Y-48.05
X92.96Y-65.85
X94.1Y-156.5
X94.1Y-159.04
X94.3Y-152.1
X94.345Y-98.545
X94.345Y-100.545
X94.695Y-132.6
X94.79Y-129.2
X94.795Y-125.8
X95.1Y-144.5
X95.1Y-147.9
X95.5Y-48.05
X95.5Y-65.85
X97.78Y-41.275
X98.04Y-48.05
X98.04Y-65.85
X98.1Y-153.7
X98.1Y-156.24
X98.1Y-158.78
X98.56Y-125.8
X98.56Y-129.2
X98.955Y-132.5
X98.955Y-135.9
X99.725Y-36.195
X100.58Y-48.05
X100.58Y-65.85
X101.0Y-139.555
X101.0Y-142.095
X101.1Y-125.8
X101.1Y-129.2
X101.495Y-132.5
X101.495Y-135.9
X102.2Y-148.9
X103.12Y-48.05
X103.12Y-65.85
X103.495Y-27.28
X103.495Y-29.78
X104.2Y-148.9
X104.21Y-95.165
X104.315Y-110.815
X104.67Y-91.965
X104.725Y-36.195
X104.86Y-125.8
X105.4Y-41.275
X105.72Y-153.7
X105.72Y-156.24
X105.72Y-158.78
X106.75Y-95.165
X106.855Y-110.815
X107.21Y-91.965
X107.4Y-125.8
X108.956Y-59.0
X108.956Y-64.0
X112.11Y-98.965
X112.11Y-101.505
X112.11Y-104.045
X112.11Y-106.585
X112.11Y-109.125
X112.11Y-111.665
X112.11Y-114.205
X112.8Y-67.2
X114.2Y-134.455
X114.2Y-136.995
X114.9Y-142.1
X114.9Y-144.64
X115.34Y-67.2
X115.57Y-92.065
X117.18Y-37.5
X117.18Y-42.5
X118.1Y-134.005
X118.1Y-136.545
X118.11Y-92.065
X118.2Y-129.06
X118.2Y-131.6
X118.7Y-67.2
X119.73Y-98.965
X119.73Y-101.505
X119.73Y-104.045
X119.73Y-106.585
X119.73Y-109.125
X119.73Y-111.665
X119.73Y-114.205
X121.24Y-67.2
X121.5Y-128.61
X121.5Y-131.15
X121.9Y-56.6
X121.9Y-59.14
X122.03Y-165.73
X124.43Y-141.43
X124.43Y-146.43
X124.43Y-149.43
X124.43Y-154.43
X124.43Y-157.53
X124.43Y-162.53
X124.54Y-98.875
X124.54Y-103.875
X126.045Y-130.305
X126.045Y-137.925
X126.4Y-123.5
X126.4Y-125.5
X127.03Y-165.73
X128.585Y-130.305
X128.585Y-137.925
X130.7Y-95.675
X130.8Y-104.775
X131.125Y-130.305
X131.125Y-137.925
X131.22Y-108.375
X131.22Y-115.995
X131.3Y-123.355
X131.3Y-125.895
X133.24Y-95.675
X133.34Y-104.775
X133.76Y-108.375
X133.76Y-115.995
X136.3Y-108.375
X136.3Y-115.995
X136.44Y-95.675
X136.6Y-104.775
X138.84Y-108.375
X138.84Y-115.995
X138.98Y-95.675
X139.14Y-104.775
X142.045Y-62.81
X142.145Y-67.31
X142.34Y-110.675
X142.34Y-113.215
X142.84Y-73.66
X143.4Y-142.66
X143.4Y-145.2
X143.4Y-148.1
X143.4Y-150.64
X144.155Y-122.8
X144.56Y-160.7
X144.68Y-131.0
X144.68Y-133.54
X144.68Y-136.08
X145.34Y-73.66
X146.695Y-122.8
X147.045Y-62.81
X147.1Y-160.7
X147.145Y-67.31
X147.305Y-127.0
X147.46Y-139.6
X148.355Y-147.6
X148.36Y-150.9
X148.945Y-79.1
X148.945Y-81.64
X149.235Y-122.8
X149.255Y-73.66
X149.845Y-127.0
X150.0Y-139.6
X150.3Y-154.8
X150.895Y-147.6
X150.9Y-150.9
X151.775Y-122.8
X152.3Y-131.0
X152.3Y-133.54
X152.3Y-136.08
X152.39Y-86.4
X152.39Y-88.9
X152.9Y-158.6
X152.9Y-160.6
X154.255Y-73.66
X155.08Y-131.06
X155.08Y-133.6
X155.08Y-136.14
X155.08Y-138.68
X155.155Y-122.8
X155.3Y-154.8
X155.56Y-142.1
X156.24Y-127.0
X157.1Y-145.6
X157.245Y-85.725
X157.695Y-122.8
X158.1Y-142.1
X159.785Y-85.725
X159.86Y-149.0
X160.235Y-122.8
X161.24Y-127.0
X162.1Y-145.6
X162.4Y-149.0
X162.7Y-131.06
X162.7Y-133.6
X162.7Y-136.14
X162.7Y-138.68
X162.775Y-122.8
T6
X159.151Y-79.01
X160.421Y-77.74
X160.421Y-80.28
T7
X108.68Y-31.42
X108.68Y-33.96
X108.68Y-36.5
T8
X43.9Y-96.8
X43.9Y-99.34
X45.56Y-133.2
X48.1Y-133.2
X52.66Y-125.9
X55.2Y-125.9
X67.6Y-125.6
X70.14Y-125.6
X91.805Y-136.1
X94.345Y-136.1
X104.81Y-100.665
X104.81Y-104.115
X104.855Y-107.515
X107.35Y-100.665
X107.35Y-104.115
X107.395Y-107.515
X124.195Y-109.675
X124.24Y-113.875
X126.735Y-109.675
X126.78Y-113.875
X138.5Y-143.46
X138.5Y-146.0
T9
X31.975Y-106.935
X31.975Y-109.475
X32.075Y-93.545
X32.075Y-96.085
X32.075Y-98.625
X32.175Y-117.535
X32.175Y-120.075
X36.8Y-80.5
X36.8Y-83.04
X39.34Y-80.5
X39.34Y-83.04
X41.88Y-80.5
X41.88Y-83.04
X42.1Y-65.3
X44.42Y-80.5
X44.42Y-83.04
X44.64Y-65.3
X46.96Y-80.5
X46.96Y-83.04
X47.18Y-65.3
X49.5Y-80.5
X49.5Y-83.04
X52.04Y-80.5
X52.04Y-83.04
X54.58Y-80.5
X54.58Y-83.04
X54.88Y-71.0
X56.76Y-158.8
X57.12Y-80.5
X57.12Y-83.04
X57.42Y-71.0
X59.3Y-158.8
X59.66Y-80.5
X59.66Y-83.04
X59.96Y-71.0
X62.2Y-80.5
X62.2Y-83.04
X62.5Y-71.0
X63.49Y-41.912
X64.74Y-80.5
X64.74Y-83.04
X66.03Y-41.912
X67.28Y-80.5
X67.28Y-83.04
X68.57Y-41.912
X69.82Y-80.5
X69.82Y-83.04
X71.11Y-41.912
X72.36Y-80.5
X72.36Y-83.04
X73.65Y-41.912
X74.9Y-80.5
X74.9Y-83.04
X76.19Y-41.912
X76.605Y-70.733
X77.44Y-80.5
X77.44Y-83.04
X79.145Y-70.733
X79.98Y-80.5
X79.98Y-83.04
X81.685Y-70.733
X82.52Y-80.5
X82.52Y-83.04
X84.225Y-70.733
X85.06Y-80.5
X85.06Y-83.04
X88.105Y-70.733
X90.645Y-70.733
X93.185Y-70.733
X95.725Y-70.733
X128.1Y-57.88
X128.1Y-60.42
X128.1Y-62.96
X128.1Y-65.5
X128.1Y-68.04
X137.15Y-67.31
X137.15Y-69.85
X137.15Y-72.39
X137.3Y-158.125
X142.138Y-53.975
X147.138Y-53.975
X147.9Y-41.2
X147.935Y-44.8
X150.44Y-41.2
X150.475Y-44.8
X156.625Y-95.885
X158.535Y-41.2
X158.535Y-44.8
X161.075Y-41.2
X161.075Y-44.8
T10
X109.525Y-48.95
X109.525Y-53.45
X116.025Y-48.95
X116.025Y-53.45
X120.881Y-48.95
X120.881Y-53.45
X127.381Y-48.95
X127.381Y-53.45
T11
X130.46Y-36.89
X130.46Y-41.97
X133.0Y-41.97
X135.54Y-36.89
X135.54Y-41.97
T12
X150.145Y-62.23
X150.145Y-64.77
X150.145Y-67.31
X154.245Y-78.23
X154.245Y-82.04
X154.93Y-55.88
X157.47Y-90.17
X160.01Y-55.88
X161.28Y-90.17
T13
X33.3Y-34.7
X35.8Y-24.8
X35.8Y-37.2
X40.8Y-34.7
X45.8Y-24.8
X45.8Y-37.2
X48.3Y-34.7
T14
X62.4Y-35.0
X71.4Y-35.0
X80.4Y-35.0
X89.4Y-35.0
T15
X57.45Y-29.5
X58.0Y-35.0
X62.95Y-29.5
X66.45Y-29.5
X67.0Y-35.0
X71.95Y-29.5
X75.45Y-29.5
X76.0Y-35.0
X80.95Y-29.5
X84.45Y-29.5
X85.0Y-35.0
X89.95Y-29.5
T16
X166.805Y-64.77
T9
X147.3Y-30.8G85X147.3Y-32.8
G05
X153.0Y-28.8G85X151.0Y-28.8
G05
X153.0Y-34.8G85X151.0Y-34.8
G05
M30
