G04 #@! TF.GenerationSoftware,KiCad,Pcbnew,8.0.2*
G04 #@! TF.CreationDate,2024-10-15T19:34:27+09:00*
G04 #@! TF.ProjectId,mainBorad,6d61696e-426f-4726-9164-2e6b69636164,rev?*
G04 #@! TF.SameCoordinates,Original*
G04 #@! TF.FileFunction,Paste,Top*
G04 #@! TF.FilePolarity,Positive*
%FSLAX46Y46*%
G04 Gerber Fmt 4.6, Leading zero omitted, Abs format (unit mm)*
G04 Created by KiCad (PCBNEW 8.0.2) date 2024-10-15 19:34:27*
%MOMM*%
%LPD*%
G01*
G04 APERTURE LIST*
G04 Aperture macros list*
%AMRoundRect*
0 Rectangle with rounded corners*
0 $1 Rounding radius*
0 $2 $3 $4 $5 $6 $7 $8 $9 X,Y pos of 4 corners*
0 Add a 4 corners polygon primitive as box body*
4,1,4,$2,$3,$4,$5,$6,$7,$8,$9,$2,$3,0*
0 Add four circle primitives for the rounded corners*
1,1,$1+$1,$2,$3*
1,1,$1+$1,$4,$5*
1,1,$1+$1,$6,$7*
1,1,$1+$1,$8,$9*
0 Add four rect primitives between the rounded corners*
20,1,$1+$1,$2,$3,$4,$5,0*
20,1,$1+$1,$4,$5,$6,$7,0*
20,1,$1+$1,$6,$7,$8,$9,0*
20,1,$1+$1,$8,$9,$2,$3,0*%
G04 Aperture macros list end*
%ADD10RoundRect,0.225000X-0.375000X0.225000X-0.375000X-0.225000X0.375000X-0.225000X0.375000X0.225000X0*%
%ADD11RoundRect,0.150000X0.150000X-0.825000X0.150000X0.825000X-0.150000X0.825000X-0.150000X-0.825000X0*%
%ADD12RoundRect,0.250000X0.337500X0.475000X-0.337500X0.475000X-0.337500X-0.475000X0.337500X-0.475000X0*%
%ADD13RoundRect,0.250000X-0.475000X0.337500X-0.475000X-0.337500X0.475000X-0.337500X0.475000X0.337500X0*%
%ADD14R,1.475000X0.450000*%
%ADD15RoundRect,0.250000X-0.450000X0.350000X-0.450000X-0.350000X0.450000X-0.350000X0.450000X0.350000X0*%
%ADD16R,1.650000X0.700000*%
%ADD17RoundRect,0.250000X-0.350000X-0.450000X0.350000X-0.450000X0.350000X0.450000X-0.350000X0.450000X0*%
G04 APERTURE END LIST*
D10*
X37005000Y-43087500D03*
X37005000Y-46387500D03*
D11*
X113556000Y-63320000D03*
X114826000Y-63320000D03*
X116096000Y-63320000D03*
X117366000Y-63320000D03*
X117366000Y-58370000D03*
X116096000Y-58370000D03*
X114826000Y-58370000D03*
X113556000Y-58370000D03*
D12*
X32275500Y-51275000D03*
X30200500Y-51275000D03*
D13*
X53405000Y-43100000D03*
X53405000Y-45175000D03*
D14*
X28062000Y-53075000D03*
X28062000Y-53725000D03*
X28062000Y-54375000D03*
X28062000Y-55025000D03*
X28062000Y-55675000D03*
X28062000Y-56325000D03*
X28062000Y-56975000D03*
X28062000Y-57625000D03*
X28062000Y-58275000D03*
X28062000Y-58925000D03*
X33938000Y-58925000D03*
X33938000Y-58275000D03*
X33938000Y-57625000D03*
X33938000Y-56975000D03*
X33938000Y-56325000D03*
X33938000Y-55675000D03*
X33938000Y-55025000D03*
X33938000Y-54375000D03*
X33938000Y-53725000D03*
X33938000Y-53075000D03*
D15*
X49805000Y-43037500D03*
X49805000Y-45037500D03*
D16*
X40555000Y-43167500D03*
X40555000Y-44437500D03*
X40555000Y-45707500D03*
X47055000Y-45707500D03*
X47055000Y-44437500D03*
X47055000Y-43167500D03*
D17*
X32005000Y-43037500D03*
X34005000Y-43037500D03*
M02*
