M48
; DRILL file {KiCad 9.0.3} date 2026-04-16T23:32:19+0900
; FORMAT={-:-/ absolute / metric / decimal}
; #@! TF.CreationDate,2026-04-16T23:32:19+09:00
; #@! TF.GenerationSoftware,Kicad,Pcbnew,9.0.3
; #@! TF.FileFunction,Plated,1,2,PTH
FMAT,2
METRIC
; #@! TA.AperFunction,Plated,PTH,ViaDrill
T1C0.300
; #@! TA.AperFunction,Plated,PTH,ComponentDrill
T2C0.690
; #@! TA.AperFunction,Plated,PTH,ComponentDrill
T3C0.700
; #@! TA.AperFunction,Plated,PTH,ComponentDrill
T4C0.750
; #@! TA.AperFunction,Plated,PTH,ComponentDrill
T5C0.800
; #@! TA.AperFunction,Plated,PTH,ComponentDrill
T6C1.000
%
G90
G05
T1
X115.0Y-35.0
X115.0Y-40.0
X115.0Y-45.0
X115.0Y-50.0
X115.0Y-55.0
X115.0Y-60.0
X115.0Y-65.0
X115.0Y-70.0
X115.0Y-75.0
X115.0Y-80.0
X115.0Y-85.0
X115.0Y-90.0
X115.0Y-95.0
X115.0Y-100.0
X115.0Y-105.0
X115.0Y-110.0
X115.0Y-115.0
X115.0Y-120.0
X120.0Y-30.0
X120.0Y-35.0
X120.0Y-40.0
X120.0Y-65.0
X120.0Y-70.0
X120.0Y-75.0
X120.0Y-80.0
X120.0Y-95.0
X120.0Y-100.0
X120.0Y-105.0
X120.0Y-110.0
X120.0Y-115.0
X120.0Y-120.0
X120.0Y-125.0
X125.0Y-30.0
X125.0Y-35.0
X125.0Y-40.0
X125.0Y-90.0
X125.0Y-95.0
X125.0Y-115.0
X125.0Y-120.0
X125.0Y-125.0
X130.0Y-30.0
X130.0Y-35.0
X130.0Y-50.0
X130.0Y-55.0
X130.0Y-60.0
X130.0Y-65.0
X130.0Y-90.0
X130.0Y-95.0
X130.0Y-120.0
X130.0Y-125.0
X135.0Y-30.0
X135.0Y-35.0
X135.0Y-40.0
X135.0Y-50.0
X135.0Y-55.0
X135.0Y-60.0
X135.0Y-65.0
X135.0Y-95.0
X135.0Y-100.0
X135.0Y-120.0
X135.0Y-125.0
X140.0Y-30.0
X140.0Y-35.0
X140.0Y-60.0
X140.0Y-65.0
X140.0Y-95.0
X140.0Y-100.0
X140.0Y-120.0
X140.0Y-125.0
X145.0Y-30.0
X145.0Y-35.0
X145.0Y-55.0
X145.0Y-60.0
X145.0Y-65.0
X145.0Y-90.0
X145.0Y-95.0
X145.0Y-100.0
X150.0Y-30.0
X150.0Y-35.0
X150.0Y-40.0
X150.0Y-60.0
X150.0Y-65.0
X150.0Y-70.0
X155.0Y-30.0
X155.0Y-35.0
X155.0Y-40.0
X155.0Y-55.0
X155.0Y-60.0
X155.0Y-65.0
X155.0Y-70.0
X155.0Y-80.0
X155.0Y-90.0
X155.0Y-95.0
X155.0Y-100.0
X160.0Y-30.0
X160.0Y-35.0
X160.0Y-40.0
X160.0Y-45.0
X160.0Y-50.0
X160.0Y-55.0
X160.0Y-60.0
X160.0Y-65.0
X160.0Y-70.0
X160.0Y-80.0
X160.0Y-85.0
X160.0Y-90.0
X160.0Y-95.0
X160.0Y-100.0
X160.0Y-105.0
X160.0Y-110.0
X160.0Y-115.0
X164.474Y-97.155
X165.0Y-30.0
X165.0Y-35.0
X165.0Y-40.0
X165.0Y-45.0
X165.0Y-50.0
X165.0Y-55.0
X165.0Y-60.0
X165.0Y-65.0
X165.0Y-100.0
X165.0Y-105.0
X165.0Y-110.0
X165.0Y-115.0
X165.0Y-120.0
X170.0Y-30.0
X170.0Y-35.0
X170.0Y-40.0
X170.0Y-45.0
X170.0Y-50.0
X170.0Y-55.0
X170.0Y-60.0
X170.0Y-70.0
X170.0Y-75.0
X170.0Y-100.0
X170.0Y-105.0
X170.0Y-110.0
X170.0Y-115.0
X170.0Y-120.0
X175.0Y-30.0
X175.0Y-35.0
X175.0Y-40.0
X175.0Y-45.0
X175.0Y-55.0
X175.0Y-70.0
X175.0Y-75.0
X175.0Y-100.0
X175.0Y-115.0
X180.0Y-30.0
X180.0Y-35.0
X180.0Y-40.0
X180.0Y-70.0
X180.0Y-75.0
X180.0Y-95.0
X180.0Y-100.0
X185.0Y-30.0
X185.0Y-35.0
X185.0Y-40.0
X185.0Y-75.0
X185.0Y-95.0
X185.0Y-100.0
X190.0Y-30.0
X190.0Y-35.0
X190.0Y-75.0
X190.0Y-95.0
X190.0Y-100.0
X190.0Y-105.0
X190.0Y-115.0
X190.0Y-120.0
X190.0Y-125.0
X195.0Y-30.0
X195.0Y-35.0
X195.0Y-65.0
X195.0Y-70.0
X195.0Y-75.0
X195.0Y-95.0
X195.0Y-100.0
X195.0Y-105.0
X195.0Y-110.0
X195.0Y-125.0
X200.0Y-30.0
X200.0Y-35.0
X200.0Y-70.0
X200.0Y-75.0
X200.0Y-95.0
X200.0Y-100.0
X200.0Y-110.0
X200.0Y-125.0
X205.0Y-30.0
X205.0Y-35.0
X205.0Y-40.0
X205.0Y-45.0
X205.0Y-50.0
X205.0Y-55.0
X205.0Y-60.0
X205.0Y-65.0
X205.0Y-70.0
X205.0Y-75.0
X205.0Y-95.0
X205.0Y-100.0
X205.0Y-110.0
X205.0Y-115.0
X205.0Y-120.0
X205.0Y-125.0
X210.0Y-35.0
X210.0Y-40.0
X210.0Y-45.0
X210.0Y-50.0
X210.0Y-55.0
X210.0Y-60.0
X210.0Y-65.0
X210.0Y-70.0
X210.0Y-75.0
X210.0Y-80.0
X210.0Y-85.0
X210.0Y-90.0
X210.0Y-95.0
X210.0Y-100.0
X210.0Y-105.0
X210.0Y-110.0
X210.0Y-115.0
X210.0Y-120.0
T2
X137.287Y-54.991
X139.827Y-52.451
X142.367Y-54.991
X146.812Y-102.134
X148.463Y-85.116
X149.352Y-99.594
X151.003Y-82.576
X151.892Y-102.134
X153.543Y-85.116
X166.751Y-109.982
X169.291Y-107.442
X171.831Y-109.982
X177.531Y-66.869
X180.071Y-64.329
X182.611Y-66.869
X189.977Y-84.193
X191.414Y-38.989
X192.517Y-81.653
X193.954Y-36.449
X195.058Y-84.193
X196.494Y-38.989
T3
X122.814Y-43.854
X122.814Y-46.395
X122.936Y-67.945
X122.936Y-70.485
X125.476Y-68.022
X125.476Y-70.562
X126.111Y-54.041
X126.111Y-56.581
X126.624Y-34.611
X126.624Y-37.151
X127.635Y-102.83
X127.635Y-105.37
X130.785Y-102.83
X130.785Y-105.37
X130.81Y-81.788
X130.81Y-84.328
X130.937Y-73.66
X130.937Y-76.2
X133.101Y-43.931
X133.101Y-46.471
X136.475Y-114.768
X139.015Y-114.768
X141.936Y-75.311
X141.986Y-72.644
X144.476Y-75.311
X144.526Y-72.644
X144.703Y-77.978
X145.415Y-84.251
X145.415Y-86.791
X145.923Y-38.558
X145.923Y-41.098
X147.13Y-111.449
X147.243Y-77.978
X148.844Y-43.738
X148.844Y-46.278
X149.671Y-111.449
X149.783Y-77.978
X152.323Y-77.978
X155.716Y-102.051
X155.716Y-104.591
X156.337Y-51.258
X156.337Y-53.798
X174.611Y-64.329
X174.611Y-66.869
X175.641Y-109.194
X175.641Y-111.734
X176.022Y-47.802
X176.022Y-50.342
X176.861Y-93.193
X179.401Y-93.193
X179.882Y-54.102
X182.422Y-54.102
X183.084Y-82.398
X184.735Y-119.05
X184.735Y-121.59
X184.835Y-102.59
X185.624Y-82.398
X185.801Y-46.151
X185.801Y-48.691
X185.801Y-51.231
X185.801Y-53.771
X187.275Y-119.05
X187.275Y-121.59
X187.375Y-102.59
X188.722Y-46.101
X188.722Y-48.641
X188.722Y-51.054
X188.722Y-53.594
X189.865Y-59.817
X189.865Y-62.484
X189.992Y-64.897
X189.992Y-89.46
X189.992Y-92.0
X192.405Y-59.817
X192.405Y-62.484
X192.532Y-64.897
X197.993Y-57.023
X199.136Y-105.892
X199.136Y-108.432
X200.533Y-57.023
T4
X118.496Y-43.677
X118.496Y-46.218
X119.766Y-44.947
X126.746Y-47.498
X126.751Y-41.392
X128.016Y-48.768
X128.021Y-42.661
X129.286Y-47.498
X129.291Y-41.392
X136.398Y-66.675
X136.398Y-69.215
X137.668Y-67.945
X174.625Y-58.293
X174.625Y-60.833
X175.895Y-59.563
X179.959Y-59.563
X181.229Y-58.293
X181.229Y-60.833
X184.277Y-88.138
X185.547Y-86.868
X185.547Y-89.408
T5
X125.222Y-74.168
X125.222Y-76.668
X125.603Y-79.542
X125.603Y-84.542
X126.492Y-108.799
X126.492Y-113.799
X128.905Y-86.868
X128.905Y-91.868
X129.413Y-52.099
X129.413Y-57.099
X129.672Y-32.288
X129.672Y-37.288
X130.048Y-67.985
X130.048Y-70.485
X130.429Y-108.291
X130.429Y-115.911
X134.366Y-77.978
X134.366Y-81.788
X134.366Y-84.328
X134.366Y-86.868
X134.366Y-89.408
X134.66Y-74.93
X134.747Y-103.211
X134.747Y-105.751
X134.747Y-108.291
X134.747Y-110.831
X136.438Y-117.943
X137.16Y-41.148
X137.16Y-48.768
X139.66Y-74.93
X139.954Y-41.148
X139.954Y-48.768
X141.438Y-117.943
X141.986Y-77.978
X141.986Y-81.788
X141.986Y-84.328
X141.986Y-86.868
X141.986Y-89.408
X142.026Y-69.215
X142.367Y-103.211
X142.367Y-105.751
X142.367Y-108.291
X142.367Y-110.831
X142.748Y-41.148
X142.748Y-48.768
X144.78Y-117.181
X144.78Y-124.801
X145.923Y-43.728
X145.923Y-48.728
X146.739Y-108.528
X147.026Y-69.215
X148.082Y-117.054
X148.082Y-124.674
X149.352Y-48.681
X149.352Y-53.681
X150.622Y-91.186
X150.622Y-93.686
X151.739Y-108.528
X152.654Y-116.332
X152.654Y-121.332
X153.035Y-48.681
X153.035Y-53.681
X155.589Y-107.298
X155.589Y-112.298
X175.935Y-102.463
X178.568Y-120.369
X178.943Y-86.208
X178.943Y-88.708
X179.07Y-79.796
X179.07Y-82.296
X179.197Y-106.604
X179.197Y-114.224
X179.451Y-46.228
X179.451Y-51.228
X180.935Y-102.463
X181.068Y-120.369
X182.753Y-46.141
X182.753Y-51.141
X183.896Y-106.731
X183.896Y-114.351
X186.563Y-37.886
X186.563Y-40.386
X186.69Y-59.897
X186.69Y-64.897
X187.198Y-109.311
X187.198Y-114.311
X188.722Y-67.945
X188.722Y-70.445
X192.47Y-107.67
X192.532Y-46.228
X192.532Y-48.768
X192.532Y-51.308
X192.532Y-53.848
X193.421Y-113.589
X193.421Y-116.129
X193.421Y-118.669
X193.421Y-121.209
X193.842Y-91.161
X194.818Y-59.817
X194.97Y-107.67
X198.842Y-91.161
X199.517Y-82.438
X199.517Y-84.938
X200.152Y-46.228
X200.152Y-48.768
X200.152Y-51.308
X200.152Y-53.848
X200.406Y-62.93
X200.406Y-65.43
X201.041Y-113.589
X201.041Y-116.129
X201.041Y-118.669
X201.041Y-121.209
X202.438Y-59.817
X204.724Y-80.787
X204.724Y-85.787
T6
X120.142Y-54.483
X120.142Y-57.023
X121.539Y-81.656
X121.539Y-84.196
X121.539Y-90.043
X121.539Y-92.583
X122.301Y-104.476
X122.301Y-107.016
X155.271Y-42.286
X155.271Y-44.826
X158.369Y-117.308
X158.369Y-119.848
X162.746Y-78.635
X165.286Y-78.635
X167.826Y-78.635
X172.212Y-47.874
X172.212Y-50.414
X172.974Y-88.743
X172.974Y-91.283
X172.98Y-119.348
X172.98Y-121.888
X200.812Y-38.349
X200.812Y-40.889
X203.835Y-89.129
X203.835Y-91.669
X204.089Y-105.257
X204.089Y-107.797
M30
