G04 DesignSpark PCB Gerber Version 9.0 Build 5138 *
%FSLAX35Y35*%
%MOIN*%
%ADD13R,0.04563X0.04563*%
%ADD21R,0.06000X0.06000*%
%ADD23R,0.06791X0.06791*%
%ADD11C,0.01000*%
%ADD10C,0.01200*%
%ADD12C,0.04000*%
%ADD14C,0.04563*%
%ADD17C,0.05634*%
%ADD15C,0.05906*%
%ADD16C,0.06496*%
%ADD24C,0.06791*%
%ADD70C,0.12457*%
X0Y0D02*
D02*
D10*
X2800Y390998D02*
Y2958D01*
X588202*
Y390998*
X2800*
X5604Y255596D02*
X15596D01*
Y245604*
X5604*
Y255596*
X5604Y60600D02*
G75*
G02X15596I4996D01*
G01*
G75*
G02X5604I-4996*
G01*
Y70600D02*
G75*
G02X15596I4996D01*
G01*
G75*
G02X5604I-4996*
G01*
Y80600D02*
G75*
G02X15596I4996D01*
G01*
G75*
G02X5604I-4996*
G01*
Y90600D02*
G75*
G02X15596I4996D01*
G01*
G75*
G02X5604I-4996*
G01*
Y100600D02*
G75*
G02X15596I4996D01*
G01*
G75*
G02X5604I-4996*
G01*
Y110600D02*
G75*
G02X15596I4996D01*
G01*
G75*
G02X5604I-4996*
G01*
Y120600D02*
G75*
G02X15596I4996D01*
G01*
G75*
G02X5604I-4996*
G01*
Y130600D02*
G75*
G02X15596I4996D01*
G01*
G75*
G02X5604I-4996*
G01*
Y140600D02*
G75*
G02X15596I4996D01*
G01*
G75*
G02X5604I-4996*
G01*
Y150600D02*
G75*
G02X15596I4996D01*
G01*
G75*
G02X5604I-4996*
G01*
Y160600D02*
G75*
G02X15596I4996D01*
G01*
G75*
G02X5604I-4996*
G01*
Y170600D02*
G75*
G02X15596I4996D01*
G01*
G75*
G02X5604I-4996*
G01*
Y180600D02*
G75*
G02X15596I4996D01*
G01*
G75*
G02X5604I-4996*
G01*
Y190600D02*
G75*
G02X15596I4996D01*
G01*
G75*
G02X5604I-4996*
G01*
Y200600D02*
G75*
G02X15596I4996D01*
G01*
G75*
G02X5604I-4996*
G01*
Y210600D02*
G75*
G02X15596I4996D01*
G01*
G75*
G02X5604I-4996*
G01*
Y220600D02*
G75*
G02X15596I4996D01*
G01*
G75*
G02X5604I-4996*
G01*
Y230600D02*
G75*
G02X15596I4996D01*
G01*
G75*
G02X5604I-4996*
G01*
Y240600D02*
G75*
G02X15596I4996D01*
G01*
G75*
G02X5604I-4996*
G01*
X15604Y60600D02*
G75*
G02X25596I4996D01*
G01*
G75*
G02X15604I-4996*
G01*
Y70600D02*
G75*
G02X25596I4996D01*
G01*
G75*
G02X15604I-4996*
G01*
Y80600D02*
G75*
G02X25596I4996D01*
G01*
G75*
G02X15604I-4996*
G01*
Y90600D02*
G75*
G02X25596I4996D01*
G01*
G75*
G02X15604I-4996*
G01*
Y100600D02*
G75*
G02X25596I4996D01*
G01*
G75*
G02X15604I-4996*
G01*
Y110600D02*
G75*
G02X25596I4996D01*
G01*
G75*
G02X15604I-4996*
G01*
Y120600D02*
G75*
G02X25596I4996D01*
G01*
G75*
G02X15604I-4996*
G01*
Y130600D02*
G75*
G02X25596I4996D01*
G01*
G75*
G02X15604I-4996*
G01*
Y140600D02*
G75*
G02X25596I4996D01*
G01*
G75*
G02X15604I-4996*
G01*
Y150600D02*
G75*
G02X25596I4996D01*
G01*
G75*
G02X15604I-4996*
G01*
Y160600D02*
G75*
G02X25596I4996D01*
G01*
G75*
G02X15604I-4996*
G01*
Y170600D02*
G75*
G02X25596I4996D01*
G01*
G75*
G02X15604I-4996*
G01*
Y180600D02*
G75*
G02X25596I4996D01*
G01*
G75*
G02X15604I-4996*
G01*
Y190600D02*
G75*
G02X25596I4996D01*
G01*
G75*
G02X15604I-4996*
G01*
Y200600D02*
G75*
G02X25596I4996D01*
G01*
G75*
G02X15604I-4996*
G01*
Y210600D02*
G75*
G02X25596I4996D01*
G01*
G75*
G02X15604I-4996*
G01*
Y220600D02*
G75*
G02X25596I4996D01*
G01*
G75*
G02X15604I-4996*
G01*
Y230600D02*
G75*
G02X25596I4996D01*
G01*
G75*
G02X15604I-4996*
G01*
Y240600D02*
G75*
G02X25596I4996D01*
G01*
G75*
G02X15604I-4996*
G01*
Y250600D02*
G75*
G02X25596I4996D01*
G01*
G75*
G02X15604I-4996*
G01*
X555200Y78524D02*
G75*
G02X556700Y75600I-2100J-2924D01*
G01*
G75*
G02X549500I-3600*
G01*
G75*
G02X551000Y78524I3600*
G01*
Y82230*
X548683Y84548*
G75*
G02X545200Y85967I-583J3552*
G01*
Y75600*
G75*
G02X544585Y74115I-2100*
G01*
X534664Y64194*
G75*
G02X533176Y63579I-1485J1485*
G01*
X502470*
G75*
G02X493730I-4370J2100*
G01*
X462470*
G75*
G02X460200Y61309I-4370J2100*
G01*
Y26024*
G75*
G02X461700Y23100I-2100J-2924*
G01*
G75*
G02X454500I-3600*
G01*
G75*
G02X456000Y26024I3600*
G01*
Y61309*
G75*
G02X454157Y68500I2100J4370*
G01*
X448524*
G75*
G02X442000Y70600I-2924J2100*
G01*
G75*
G02X448524Y72700I3600*
G01*
X454157*
G75*
G02X456000Y79891I3943J2821*
G01*
Y97676*
G75*
G02X454500Y100600I2100J2924*
G01*
G75*
G02X461700I3600*
G01*
G75*
G02X460200Y97676I-3600*
G01*
Y79891*
G75*
G02X462043Y72700I-2100J-4370*
G01*
X482230*
X483500Y73970*
Y102676*
G75*
G02X482000Y105600I2100J2924*
G01*
G75*
G02X489200I3600*
G01*
G75*
G02X487700Y102676I-3600*
G01*
Y73100*
G75*
G02X487085Y71615I-2100*
G01*
X484585Y69115*
G75*
G02X483098Y68500I-1485J1485*
G01*
X462043*
G75*
G02X462470Y67779I-3943J-2822*
G01*
X493730*
G75*
G02X502470I4370J-2100*
G01*
X532309*
X541000Y76470*
Y159730*
X526615Y174115*
G75*
G02X526000Y175600I1485J1485*
G01*
Y218809*
G75*
G02X523267Y222797I2100J4370*
G01*
X506996Y206527*
G75*
G02X510200Y200176I1104J-3427*
G01*
Y163100*
G75*
G02X509585Y161615I-2100*
G01*
X497006Y149036*
G75*
G02X495519Y148421I-1485J1485*
G01*
X462470*
G75*
G02X453252Y150521I-4370J2100*
G01*
G75*
G02X462470Y152621I4848*
G01*
X494652*
X506000Y163970*
Y200176*
G75*
G02X504673Y204204I2100J2924*
G01*
X504585Y204115*
G75*
G02X503098Y203500I-1485J1485*
G01*
X496828*
G75*
G02X496794Y197676I-2133J-2900*
G01*
Y195643*
G75*
G02X505743Y194458I4396J-1184*
G01*
G75*
G02X503291Y190419I-4553*
G01*
Y180781*
G75*
G02X501191Y172189I-2100J-4039*
G01*
G75*
G02X496794Y175557J4553*
G01*
Y166024*
G75*
G02X498294Y163100I-2100J-2924*
G01*
G75*
G02X491770Y161000I-3600*
G01*
X423102*
G75*
G02X421615Y161615I-3J2100*
G01*
X421183Y162048*
G75*
G02X419496Y162173I-583J3553*
G01*
X430017Y151652*
G75*
G02X434200Y148100I583J-3552*
G01*
G75*
G02X427000I-3600*
G01*
G75*
G02X427048Y148683I3600J-1*
G01*
X414115Y161615*
G75*
G02X413500Y163100I1485J1485*
G01*
Y190967*
G75*
G02X407676Y191000I-2900J2133*
G01*
X398524*
G75*
G02X394115Y189821I-2924J2100*
G01*
G75*
G02X392700Y187676I-3515J779*
G01*
Y185233*
G75*
G02X398524Y185200I2900J-2133*
G01*
X405176*
G75*
G02X411700Y183100I2924J-2100*
G01*
G75*
G02X405176Y181000I-3600*
G01*
X398524*
G75*
G02X392700Y180967I-2924J2100*
G01*
Y167733*
G75*
G02X398524Y167700I2900J-2133*
G01*
X405176*
G75*
G02X411700Y165600I2924J-2100*
G01*
G75*
G02X405176Y163500I-3600*
G01*
X398524*
G75*
G02X392700Y163467I-2924J2100*
G01*
Y138970*
X393970Y137700*
X405176*
G75*
G02X411700Y135600I2924J-2100*
G01*
G75*
G02X405176Y133500I-3600*
G01*
X393102*
G75*
G02X391615Y134115I-3J2100*
G01*
X389115Y136615*
G75*
G02X388500Y138100I1485J1485*
G01*
Y187676*
G75*
G02X387700Y188467I2100J2924*
G01*
Y107733*
G75*
G02X393524Y107700I2900J-2133*
G01*
X397676*
G75*
G02X402405Y108715I2924J-2100*
G01*
G75*
G02X405600Y116511I3195J3244*
G01*
G75*
G02X407700Y107919J-4553*
G01*
Y98281*
G75*
G02X405600Y89689I-2100J-4039*
G01*
G75*
G02X403500Y98281J4553*
G01*
Y103467*
G75*
G02X397676Y103500I-2900J2133*
G01*
X393524*
G75*
G02X387700Y103467I-2924J2100*
G01*
Y95233*
G75*
G02X394200Y93100I2900J-2133*
G01*
G75*
G02X392700Y90176I-3600*
G01*
Y78970*
X393970Y77700*
X402230*
X411000Y86470*
Y102676*
G75*
G02X409500Y105600I2100J2924*
G01*
G75*
G02X416700I3600*
G01*
G75*
G02X415200Y102676I-3600*
G01*
Y85600*
G75*
G02X414585Y84115I-2100*
G01*
X404585Y74115*
G75*
G02X403098Y73500I-1485J1485*
G01*
X402733*
G75*
G02X404200Y70600I-2133J-2900*
G01*
G75*
G02X397676Y68500I-3600*
G01*
X388524*
G75*
G02X382700Y68467I-2924J2100*
G01*
Y45233*
G75*
G02X387511Y46151I2900J-2133*
G01*
X415277Y73917*
G75*
G02X417752Y79891I4575J1605*
G01*
Y124852*
G75*
G02X418367Y126337I2100*
G01*
X427048Y135017*
G75*
G02X427000Y135600I3553J584*
G01*
G75*
G02X428578Y138579I3600*
G01*
X422470*
G75*
G02X413252Y140679I-4370J2100*
G01*
G75*
G02X422470Y142779I4848*
G01*
X453730*
G75*
G02X462948Y140679I4370J-2100*
G01*
G75*
G02X453730Y138579I-4848*
G01*
X432622*
G75*
G02X430017Y132048I-2022J-2979*
G01*
X421952Y123982*
Y79891*
G75*
G02X418247Y70946I-2100J-4370*
G01*
X388916Y41615*
G75*
G02X388850Y41553I-1481J1491*
G01*
G75*
G02X382700Y40967I-3250J1547*
G01*
Y40679*
G75*
G02X382085Y39194I-2100*
G01*
X380532Y37641*
G75*
G02X378291Y32230I-4341J-1371*
G01*
Y22592*
G75*
G02X379270Y15200I-2100J-4039*
G01*
X402225*
G75*
G02X403205Y22592I3080J3353*
G01*
Y32230*
G75*
G02X405305Y40822I2100J4039*
G01*
G75*
G02X407405Y32230J-4553*
G01*
Y22592*
G75*
G02X408385Y15200I-2100J-4039*
G01*
X427815*
G75*
G02X428795Y22592I3080J3353*
G01*
Y32230*
G75*
G02X432267Y40611I2100J4039*
G01*
X436000Y44344*
Y79730*
X429706Y86024*
G75*
G02X429091Y87509I1485J1485*
G01*
Y90202*
G75*
G02Y98281I2100J4039*
G01*
Y107919*
G75*
G02X431191Y116511I2100J4039*
G01*
G75*
G02X433291Y107919J-4553*
G01*
Y98281*
G75*
G02Y90202I-2100J-4039*
G01*
Y88379*
X439585Y82085*
G75*
G02X440200Y80600I-1485J-1485*
G01*
Y43474*
G75*
G02X439585Y41989I-2100*
G01*
X435237Y37641*
G75*
G02X432995Y32230I-4341J-1371*
G01*
Y22592*
G75*
G02X433975Y15200I-2100J-4039*
G01*
X440473*
G75*
G02X441453Y22592I3080J3353*
G01*
Y32230*
G75*
G02X443553Y40822I2100J4039*
G01*
G75*
G02X445653Y32230J-4553*
G01*
Y22592*
G75*
G02X446633Y15200I-2100J-4039*
G01*
X466063*
G75*
G02X467043Y22592I3080J3353*
G01*
Y32230*
G75*
G02X469143Y40822I2100J4039*
G01*
G75*
G02X471243Y32230J-4553*
G01*
Y22592*
G75*
G02X472195Y21931I-2099J-4039*
G01*
G75*
G02X472000Y23100I3405J1169*
G01*
G75*
G02X479200I3600*
G01*
G75*
G02X477700Y20176I-3600*
G01*
Y18100*
G75*
G02X477085Y16615I-2100*
G01*
X472085Y11615*
G75*
G02X470598Y11000I-1485J1485*
G01*
X295602*
G75*
G02X294115Y11615I-3J2100*
G01*
X291615Y14115*
G75*
G02X291117Y14908I1485J1485*
G01*
X286910Y19115*
G75*
G02X286295Y20600I1485J1485*
G01*
Y33942*
G75*
G02X279726Y34345I-3195J1658*
G01*
G75*
G02X277700Y32230I-4126J1925*
G01*
Y22592*
G75*
G02X273997Y14291I-2100J-4039*
G01*
G75*
G02X267676Y11000I-3397J-1191*
G01*
X110602*
G75*
G02X109115Y11615I-3J2100*
G01*
X106183Y14548*
G75*
G02X102000Y18100I-583J3552*
G01*
G75*
G02X108445Y20306I3600*
G01*
G75*
G02X110547Y22592I4202J-1753*
G01*
Y32230*
G75*
G02X112647Y40822I2100J4039*
G01*
G75*
G02X114747Y32230J-4553*
G01*
Y22592*
G75*
G02X115727Y15200I-2100J-4039*
G01*
X121477*
G75*
G02X122457Y22592I3080J3353*
G01*
Y32230*
G75*
G02X124557Y40822I2100J4039*
G01*
G75*
G02X126657Y32230J-4553*
G01*
Y22592*
G75*
G02X127637Y15200I-2100J-4039*
G01*
X147067*
G75*
G02X148047Y22592I3080J3353*
G01*
Y32230*
G75*
G02X150147Y40822I2100J4039*
G01*
G75*
G02X152247Y32230J-4553*
G01*
Y22592*
G75*
G02X153227Y15200I-2100J-4039*
G01*
X158977*
G75*
G02X159957Y22592I3080J3353*
G01*
Y32230*
G75*
G02X162057Y40822I2100J4039*
G01*
G75*
G02X164157Y32230J-4553*
G01*
Y22592*
G75*
G02X165137Y15200I-2100J-4039*
G01*
X184567*
G75*
G02X185547Y22592I3080J3353*
G01*
Y32230*
G75*
G02X187647Y40822I2100J4039*
G01*
G75*
G02X189747Y32230J-4553*
G01*
Y22592*
G75*
G02X190727Y15200I-2100J-4039*
G01*
X197225*
G75*
G02X198205Y22592I3080J3353*
G01*
Y32230*
G75*
G02X200305Y40822I2100J4039*
G01*
G75*
G02X202405Y32230J-4553*
G01*
Y22592*
G75*
G02X203385Y15200I-2100J-4039*
G01*
X222815*
G75*
G02X223795Y22592I3080J3353*
G01*
Y32230*
G75*
G02X225895Y40822I2100J4039*
G01*
G75*
G02X227995Y32230J-4553*
G01*
Y22592*
G75*
G02X228975Y15200I-2100J-4039*
G01*
X233977*
G75*
G02X234957Y22592I3080J3353*
G01*
Y32230*
G75*
G02X237057Y40822I2100J4039*
G01*
G75*
G02X239157Y32230J-4553*
G01*
Y22592*
G75*
G02X240137Y15200I-2100J-4039*
G01*
X259567*
G75*
G02X260547Y22592I3080J3353*
G01*
Y32230*
G75*
G02X262647Y40822I2100J4039*
G01*
G75*
G02X264747Y32230J-4553*
G01*
Y22592*
G75*
G02X265727Y15200I-2100J-4039*
G01*
X267676*
G75*
G02X271493Y16587I2924J-2100*
G01*
G75*
G02X273500Y22592I4107J1965*
G01*
Y32230*
G75*
G02X274954Y40776I2100J4039*
G01*
X271527Y44204*
G75*
G02X265176Y41000I-3427J-1104*
G01*
X168102*
G75*
G02X166615Y41615I-3J2100*
G01*
X159730Y48500*
X156024*
G75*
G02X149500Y50600I-2924J2100*
G01*
G75*
G02X156024Y52700I3600*
G01*
X160598*
G75*
G02X162085Y52085I3J-2100*
G01*
X168970Y45200*
X265176*
G75*
G02X265967Y46000I2924J-2100*
G01*
X265602*
G75*
G02X264115Y46615I-3J2100*
G01*
X261615Y49115*
G75*
G02X261000Y50600I1485J1485*
G01*
Y68904*
X256641Y73262*
G75*
G02X247504Y75521I-4289J2259*
G01*
G75*
G02X248527Y78500I4848J0*
G01*
X243970*
X242085Y76615*
G75*
G02X240598Y76000I-1485J1485*
G01*
X236024*
G75*
G02X230120Y80120I-2924J2100*
G01*
G75*
G02X226051Y86060I-2020J2979*
G01*
G75*
G02X226615Y87085I2049J-459*
G01*
X229115Y89585*
G75*
G02X230602Y90200I1485J-1485*
G01*
X248800*
G75*
G02X248795Y98281I2096J4042*
G01*
Y107919*
G75*
G02X250895Y116511I2100J4039*
G01*
G75*
G02X252995Y107919J-4553*
G01*
Y98281*
G75*
G02X252991Y90200I-2100J-4039*
G01*
X261274*
G75*
G02X261269Y98281I2096J4042*
G01*
Y107919*
G75*
G02X263369Y116511I2100J4039*
G01*
G75*
G02X265469Y107919J-4553*
G01*
Y98281*
G75*
G02X265465Y90200I-2100J-4039*
G01*
X286864*
G75*
G02X286860Y98281I2096J4042*
G01*
Y107919*
G75*
G02X288960Y116511I2100J4039*
G01*
G75*
G02X291060Y107919J-4553*
G01*
Y98281*
G75*
G02X291056Y90200I-2100J-4039*
G01*
X298098*
G75*
G02X299585Y89585I3J-2100*
G01*
X305017Y84152*
G75*
G02X309200Y80600I583J-3552*
G01*
G75*
G02X302000I-3600*
G01*
G75*
G02X302048Y81183I3600J-1*
G01*
X297230Y86000*
X242733*
G75*
G02X243524Y85200I-2133J-2900*
G01*
X265598*
G75*
G02X267085Y84585I3J-2100*
G01*
X274585Y77085*
G75*
G02X275149Y76060I-1486J-1485*
G01*
G75*
G02X276700Y73100I-2049J-2960*
G01*
G75*
G02X269500I-3600*
G01*
G75*
G02X270330Y75400I3600*
G01*
X264730Y81000*
X258170*
X274585Y64585*
G75*
G02X275200Y63100I-1485J-1485*
G01*
Y58524*
G75*
G02X276700Y55600I-2100J-2924*
G01*
G75*
G02X269500I-3600*
G01*
G75*
G02X271000Y58524I3600*
G01*
Y62230*
X265200Y68030*
Y51470*
X266470Y50200*
X270598*
G75*
G02X272085Y49585I3J-2100*
G01*
X282517Y39152*
G75*
G02X286295Y37258I583J-3552*
G01*
Y54435*
X279115Y61615*
G75*
G02X278500Y63100I1485J1485*
G01*
Y73021*
G75*
G02X279115Y74506I2100*
G01*
X281615Y77006*
G75*
G02X283102Y77621I1485J-1485*
G01*
X284026*
G75*
G02X293243Y75521I4370J-2100*
G01*
G75*
G02X284026Y73421I-4848*
G01*
X283970*
X282700Y72152*
Y63970*
X287250Y59419*
G75*
G02X288256Y60833I3350J-1319*
G01*
G75*
G02X283547Y65679I139J4846*
G01*
G75*
G02X293243I4848*
G01*
G75*
G02X291112Y61663I-4848*
G01*
G75*
G02X294200Y58100I-512J-3563*
G01*
G75*
G02X294178Y57700I-3600J1*
G01*
X327230*
X329548Y60017*
G75*
G02X329500Y60600I3553J584*
G01*
G75*
G02X331078Y63579I3600*
G01*
X330265*
G75*
G02X321047Y65679I-4370J2100*
G01*
G75*
G02X330265Y67779I4848*
G01*
X335176*
G75*
G02X341700Y65679I2924J-2100*
G01*
G75*
G02X335965Y62781I-3600*
G01*
G75*
G02X332517Y57048I-2865J-2181*
G01*
X329585Y54115*
G75*
G02X328098Y53500I-1485J1485*
G01*
X293102*
G75*
G02X291615Y54115I-3J2100*
G01*
X291183Y54548*
G75*
G02X290495Y54502I-583J3553*
G01*
Y38085*
G75*
G02X293683Y39152I2605J-2485*
G01*
X299115Y44585*
G75*
G02X300602Y45200I1485J-1485*
G01*
X305967*
G75*
G02X304500Y48100I2133J2900*
G01*
G75*
G02X311700I3600*
G01*
G75*
G02X311678Y47700I-3600J1*
G01*
X339730*
X349204Y57173*
G75*
G02X346000Y63524I-1104J3427*
G01*
Y80176*
G75*
G02X344500Y83100I2100J2924*
G01*
G75*
G02X351000Y85233I3600*
G01*
Y87676*
G75*
G02X350967Y93500I2100J2924*
G01*
X347733*
G75*
G02X345017Y87048I-2133J-2900*
G01*
X344152Y86183*
G75*
G02X344200Y85600I-3553J-584*
G01*
G75*
G02X337000I-3600*
G01*
G75*
G02X341183Y89152I3600*
G01*
X342048Y90017*
G75*
G02X342000Y90600I3553J584*
G01*
G75*
G02X343467Y93500I3600*
G01*
X330952*
G75*
G02X321907Y94242I-4492J742*
G01*
G75*
G02X324360Y98281I4553*
G01*
Y107919*
G75*
G02X326460Y116511I2100J4039*
G01*
G75*
G02X328560Y107919J-4553*
G01*
Y98281*
G75*
G02X329421Y97700I-2100J-4039*
G01*
X376956*
G75*
G02X378443Y97085I3J-2100*
G01*
X382085Y93443*
G75*
G02X382700Y91958I-1485J-1485*
G01*
Y85233*
G75*
G02X383500Y86024I2900J-2133*
G01*
Y100967*
G75*
G02X377676Y101000I-2900J2133*
G01*
X365602*
G75*
G02X364115Y101615I-3J2100*
G01*
X351615Y114115*
G75*
G02X351000Y115600I1485J1485*
G01*
Y137676*
G75*
G02X354204Y144027I2100J2924*
G01*
X351615Y146615*
G75*
G02X351000Y148100I1485J1485*
G01*
Y162022*
G75*
G02X347700Y163467I-400J3578*
G01*
Y118524*
G75*
G02X349200Y115600I-2100J-2924*
G01*
G75*
G02X342000I-3600*
G01*
G75*
G02X343500Y118524I3600*
G01*
Y125967*
G75*
G02X337676Y126000I-2900J2133*
G01*
X335602*
G75*
G02X334115Y126615I-3J2100*
G01*
X331615Y129115*
G75*
G02X331000Y130600I1485J1485*
G01*
Y177676*
G75*
G02X330676Y177939I2102J2924*
G01*
G75*
G02X326335Y172013I-4341J-1373*
G01*
G75*
G02Y181119J4553*
G01*
G75*
G02X329606Y179732J-4553*
G01*
G75*
G02X330967Y183500I3494J868*
G01*
X286024*
G75*
G02X280200Y183467I-2924J2100*
G01*
Y173909*
G75*
G02X279585Y172424I-2100*
G01*
X247085Y139924*
G75*
G02X245598Y139309I-1485J1485*
G01*
X241722*
G75*
G02X233474Y138500I-4370J2100*
G01*
X223970*
X222700Y137230*
Y115692*
G75*
G02X229857Y111958I2605J-3734*
G01*
G75*
G02X227405Y107919I-4553*
G01*
Y98281*
G75*
G02X225305Y89689I-2100J-4039*
G01*
G75*
G02X222700Y90508I0J4553*
G01*
Y70220*
X250654*
G75*
G02X257200Y65679I1698J-4541*
G01*
G75*
G02X247504I-4848*
G01*
G75*
G02X247513Y65980I4849J-1*
G01*
X230259*
G75*
G02X230200Y60176I-2159J-2880*
G01*
Y53524*
G75*
G02X231700Y50600I-2100J-2924*
G01*
G75*
G02X224500I-3600*
G01*
G75*
G02X226000Y53524I3600*
G01*
Y60176*
G75*
G02X225941Y65980I2100J2924*
G01*
X218687*
G75*
G02X218696Y65679I-4839J-302*
G01*
G75*
G02X209000I-4848*
G01*
G75*
G02X209273Y67283I4848J0*
G01*
X205557Y71000*
X183970*
X180195Y67225*
G75*
G02X171230Y63579I-4595J-1546*
G01*
X155122*
G75*
G02X156700Y60600I-2022J-2979*
G01*
G75*
G02X150176Y58500I-3600*
G01*
X116024*
G75*
G02X109500Y60600I-2924J2100*
G01*
G75*
G02X111078Y63579I3600*
G01*
X104222*
G75*
G02X103624Y62633I-4370J2100*
G01*
G75*
G02X104585Y62085I-524J-2033*
G01*
X116470Y50200*
X123098*
G75*
G02X124585Y49585I3J-2100*
G01*
X135017Y39152*
G75*
G02X139200Y35600I583J-3552*
G01*
G75*
G02X132000I-3600*
G01*
G75*
G02X132048Y36183I3600J-1*
G01*
X122230Y46000*
X115602*
G75*
G02X114115Y46615I-3J2100*
G01*
X102230Y58500*
X95602*
G75*
G02X94115Y59115I-3J2100*
G01*
X91615Y61615*
G75*
G02X91000Y63100I1485J1485*
G01*
Y147676*
G75*
G02X90967Y153500I2100J2924*
G01*
X85602*
G75*
G02X84115Y154115I-3J2100*
G01*
X76615Y161615*
G75*
G02X76000Y163100I1485J1485*
G01*
Y229730*
X74809Y230921*
X62470*
G75*
G02X53252Y233021I-4370J2100*
G01*
G75*
G02X55893Y237337I4848*
G01*
X51615Y241615*
G75*
G02X51000Y243100I1485J1485*
G01*
Y248467*
G75*
G02X45120Y252620I-2900J2133*
G01*
G75*
G02X42517Y252048I-2020J2980*
G01*
X35200Y244730*
Y61470*
X41470Y55200*
X64730*
X68514Y58983*
G75*
G02X68795Y66903I2381J3880*
G01*
Y76541*
G75*
G02X70895Y85133I2100J4039*
G01*
G75*
G02X72995Y76541J-4553*
G01*
Y66903*
G75*
G02Y58824I-2100J-4039*
G01*
Y58395*
G75*
G02X72380Y56910I-2100*
G01*
X67085Y51615*
G75*
G02X65598Y51000I-1485J1485*
G01*
X40602*
G75*
G02X39115Y51615I-3J2100*
G01*
X31615Y59115*
G75*
G02X31000Y60600I1485J1485*
G01*
Y245600*
G75*
G02X31615Y247085I2100*
G01*
X39548Y255017*
G75*
G02X39500Y255600I3553J584*
G01*
G75*
G02X46000Y257733I3600*
G01*
Y262676*
G75*
G02X44500Y265600I2100J2924*
G01*
G75*
G02X50600Y268191I3600*
G01*
G75*
G02X55600I2500J-2591*
G01*
G75*
G02X61700Y265600I2500J-2591*
G01*
G75*
G02X60200Y262676I-3600*
G01*
Y246470*
X63970Y242700*
X118098*
G75*
G02X119585Y242085I3J-2100*
G01*
X127085Y234585*
G75*
G02X127700Y233100I-1485J-1485*
G01*
Y218524*
G75*
G02X128500Y217733I-2100J-2924*
G01*
Y238100*
G75*
G02X129115Y239585I2100*
G01*
X156000Y266470*
Y277151*
G75*
G02X155781Y284796I2100J3886*
G01*
Y299210*
G75*
G02X154000Y302474I2100J3264*
G01*
G75*
G02X161763I3881*
G01*
G75*
G02X159981Y299210I-3881*
G01*
Y285033*
G75*
G02X160200Y277151I-1881J-3996*
G01*
Y265600*
G75*
G02X159585Y264115I-2100*
G01*
X132700Y237230*
Y215623*
X149524Y198800*
G75*
G02X154741Y196895I1371J-4341*
G01*
G75*
G02X156000Y198524I3359J-1295*
G01*
Y227230*
X152309Y230921*
X142470*
G75*
G02X133252Y233021I-4370J2100*
G01*
G75*
G02X142470Y235121I4848*
G01*
X153176*
G75*
G02X154664Y234506I3J-2100*
G01*
X159585Y229585*
G75*
G02X160200Y228100I-1485J-1485*
G01*
Y198524*
G75*
G02X161500Y196783I-2100J-2924*
G01*
G75*
G02X169857Y194283I3805J-2500*
G01*
G75*
G02X167405Y190243I-4553*
G01*
Y180606*
G75*
G02X167709Y172700I-2100J-4039*
G01*
X184059*
X186554Y175195*
G75*
G02X188795Y180606I4341J1371*
G01*
Y190243*
G75*
G02X190895Y198835I2100J4039*
G01*
G75*
G02X192995Y190243J-4553*
G01*
Y180606*
G75*
G02X189524Y172225I-2100J-4039*
G01*
X186414Y169115*
G75*
G02X184927Y168500I-1485J1485*
G01*
X155602*
G75*
G02X154115Y169115I-3J2100*
G01*
X151039Y172191*
G75*
G02X150895Y172189I-147J4555*
G01*
G75*
G02X148795Y180781J4553*
G01*
Y190419*
G75*
G02X146554Y195830I2100J4039*
G01*
X129115Y213269*
G75*
G02X128724Y213811I1486J1485*
G01*
G75*
G02X122000Y215600I-3124J1789*
G01*
G75*
G02X123500Y218524I3600*
G01*
Y232230*
X117230Y238500*
X78170*
X82085Y234585*
G75*
G02X82700Y233100I-1485J-1485*
G01*
Y221470*
X86470Y217700*
X101475*
G75*
G02X107999Y215600I2924J-2100*
G01*
G75*
G02X101475Y213500I-3600*
G01*
X85602*
G75*
G02X84115Y214115I-3J2100*
G01*
X80200Y218030*
Y163970*
X86470Y157700*
X90967*
G75*
G02X91000Y163524I2133J2900*
G01*
Y183100*
G75*
G02X91615Y184585I2100*
G01*
X94115Y187085*
G75*
G02X95602Y187700I1485J-1485*
G01*
X100176*
G75*
G02X106700Y185600I2924J-2100*
G01*
G75*
G02X101080Y182620I-3600*
G01*
G75*
G02X100200Y177676I-2980J-2020*
G01*
Y166024*
G75*
G02X101527Y161996I-2100J-2924*
G01*
X104115Y164585*
G75*
G02X105602Y165200I1485J-1485*
G01*
X149730*
X151615Y167085*
G75*
G02X153102Y167700I1485J-1485*
G01*
X160598*
G75*
G02X162085Y167085I3J-2100*
G01*
X166470Y162700*
X218467*
G75*
G02X217000Y165600I2133J2900*
G01*
G75*
G02X217048Y166183I3600J-1*
G01*
X209207Y174024*
G75*
G02X200877Y176566I-3777J2543*
G01*
G75*
G02X203330Y180606I4553*
G01*
Y190243*
G75*
G02X205430Y198835I2100J4039*
G01*
G75*
G02X209983Y194283J-4553*
G01*
G75*
G02X209981Y194146I-4549J-2*
G01*
G75*
G02X212700Y187676I619J-3546*
G01*
Y176470*
X220017Y169152*
G75*
G02X222733Y162700I583J-3552*
G01*
X249730*
X252048Y165017*
G75*
G02X252000Y165600I3553J584*
G01*
G75*
G02X259200I3600*
G01*
G75*
G02X255017Y162048I-3600*
G01*
X254419Y161450*
G75*
G02X256700Y158100I-1319J-3350*
G01*
G75*
G02X250176Y156000I-3600*
G01*
X238328*
G75*
G02X242200Y151251I-976J-4749*
G01*
G75*
G02X232504I-4848*
G01*
G75*
G02X236376Y156000I4848*
G01*
X160828*
G75*
G02X164222Y153351I-976J-4749*
G01*
X195176*
G75*
G02X201696Y151415I2924J-2100*
G01*
G75*
G02X206700Y148100I1404J-3315*
G01*
G75*
G02X202517Y144548I-3600*
G01*
X202085Y144115*
G75*
G02X200598Y143500I-1485J1485*
G01*
X173524*
G75*
G02X172733Y142700I-2924J2100*
G01*
X232679*
G75*
G02X241722Y143509I4673J-1291*
G01*
X244730*
X276000Y174778*
Y205967*
G75*
G02X269500Y208100I-2900J2133*
G01*
G75*
G02X271000Y211024I3600*
G01*
Y225176*
G75*
G02X270200Y225967I2100J2924*
G01*
Y218100*
G75*
G02X269585Y216615I-2100*
G01*
X260200Y207230*
Y181024*
G75*
G02X261700Y178100I-2100J-2924*
G01*
G75*
G02X254500I-3600*
G01*
G75*
G02X256000Y181024I3600*
G01*
Y208100*
G75*
G02X256615Y209585I2100*
G01*
X266000Y218970*
Y230600*
G75*
G02X266615Y232085I2100*
G01*
X271615Y237085*
G75*
G02X273102Y237700I1485J-1485*
G01*
X295519*
G75*
G02X296334Y237536I2J-2100*
G01*
G75*
G02X302675Y231417I1766J-4515*
G01*
X313891Y220200*
X330176*
G75*
G02X336700Y218100I2924J-2100*
G01*
G75*
G02X330176Y216000I-3600*
G01*
X313024*
G75*
G02X311536Y216615I-3J2100*
G01*
X299705Y228446*
G75*
G02X293276Y233500I-1604J4575*
G01*
X287733*
G75*
G02X287700Y227676I-2133J-2900*
G01*
Y221024*
G75*
G02X289027Y216996I-2100J-2924*
G01*
X289115Y217085*
G75*
G02X290602Y217700I1485J-1485*
G01*
X302676*
G75*
G02X309200Y215600I2924J-2100*
G01*
G75*
G02X302676Y213500I-3600*
G01*
X291470*
X286652Y208683*
G75*
G02X286700Y208100I-3553J-584*
G01*
G75*
G02X280200Y205967I-3600*
G01*
Y187733*
G75*
G02X286024Y187700I2900J-2133*
G01*
X364730*
X369115Y192085*
G75*
G02X370602Y192700I1485J-1485*
G01*
X377676*
G75*
G02X383500Y192733I2924J-2100*
G01*
Y193100*
G75*
G02X384115Y194585I2100*
G01*
X386704Y197173*
G75*
G02X382676Y198500I-1104J3427*
G01*
X358524*
G75*
G02X355578Y197000I-2924J2100*
G01*
G75*
G02X351925Y189730I-3653J-2717*
G01*
G75*
G02Y198835J4553*
G01*
G75*
G02X352481Y198801I-1J-4552*
G01*
G75*
G02X353467Y203500I3119J1799*
G01*
X353102*
G75*
G02X351615Y204115I-3J2100*
G01*
X344115Y211615*
G75*
G02X343500Y213100I1485J1485*
G01*
Y219294*
G75*
G02X335752Y223179I-2900J3885*
G01*
G75*
G02X343500Y227064I4848*
G01*
Y227152*
X342205Y228446*
G75*
G02X338937Y228467I-1605J4575*
G01*
X337085Y226615*
G75*
G02X335598Y226000I-1485J1485*
G01*
X323024*
G75*
G02X321536Y226615I-3J2100*
G01*
X316615Y231536*
G75*
G02X316315Y231915I1485J1483*
G01*
X309115Y239115*
G75*
G02X308955Y239294I1485J1483*
G01*
G75*
G02X302676Y238500I-3355J1306*
G01*
X266423*
X262550Y234626*
G75*
G02X253605Y230921I-4575J-1605*
G01*
X241470*
X240200Y229652*
Y181024*
G75*
G02X241547Y179137I-2100J-2924*
G01*
G75*
G02X243205Y180606I3757J-2571*
G01*
Y190243*
G75*
G02X245305Y198835I2100J4039*
G01*
G75*
G02X247405Y190243J-4553*
G01*
Y180606*
G75*
G02X245305Y172013I-2100J-4039*
G01*
G75*
G02X240826Y175748J4553*
G01*
G75*
G02X235477Y175634I-2726J2352*
G01*
G75*
G02X226468Y176566I-4456J932*
G01*
G75*
G02X228920Y180606I4553*
G01*
Y190243*
G75*
G02X231020Y198835I2100J4039*
G01*
G75*
G02X233120Y190243J-4553*
G01*
Y180606*
G75*
G02X234692Y179259I-2100J-4040*
G01*
G75*
G02X236000Y181024I3409J-1159*
G01*
Y230521*
G75*
G02X236615Y232006I2100*
G01*
X239115Y234506*
G75*
G02X240602Y235121I1485J-1485*
G01*
X253605*
G75*
G02X259580Y237596I4370J-2100*
G01*
X264069Y242085*
G75*
G02X265556Y242700I1485J-1485*
G01*
X302676*
G75*
G02X308500Y242733I2924J-2100*
G01*
Y245967*
G75*
G02X302676Y246000I-2900J2133*
G01*
X243524*
G75*
G02X237139Y249090I-2924J2100*
G01*
X222675Y234626*
G75*
G02X216495Y228446I-4575J-1605*
G01*
X212700Y224652*
Y218970*
X219585Y212085*
G75*
G02X220200Y210600I-1485J-1485*
G01*
Y181024*
G75*
G02X221700Y178100I-2100J-2924*
G01*
G75*
G02X214500I-3600*
G01*
G75*
G02X216000Y181024I3600*
G01*
Y209730*
X209115Y216615*
G75*
G02X208500Y218100I1485J1485*
G01*
Y225521*
G75*
G02X209115Y227006I2100*
G01*
X213525Y231417*
G75*
G02X219705Y237596I4575J1605*
G01*
X226823Y244714*
G75*
G02X223300Y245330I-1223J3385*
G01*
X209585Y231615*
G75*
G02X208098Y231000I-1485J1485*
G01*
X200233*
G75*
G02X200200Y225176I-2133J-2900*
G01*
Y218524*
G75*
G02X201700Y215600I-2100J-2924*
G01*
G75*
G02X194500I-3600*
G01*
G75*
G02X196000Y218524I3600*
G01*
Y225176*
G75*
G02X195967Y231000I2100J2924*
G01*
X190233*
G75*
G02X190200Y225176I-2133J-2900*
G01*
Y221024*
G75*
G02X191700Y218100I-2100J-2924*
G01*
G75*
G02X184500I-3600*
G01*
G75*
G02X186000Y221024I3600*
G01*
Y225176*
G75*
G02X185967Y231000I2100J2924*
G01*
X182507*
G75*
G02X173252Y233021I-4407J2021*
G01*
G75*
G02X182431Y235200I4848*
G01*
X207230*
X221615Y249585*
G75*
G02X222640Y250149I1485J-1485*
G01*
G75*
G02X228986Y246877I2960J-2048*
G01*
X236694Y254585*
G75*
G02X238181Y255200I1485J-1485*
G01*
X293467*
G75*
G02X292000Y258100I2133J2900*
G01*
G75*
G02X292048Y258683I3600J-1*
G01*
X289115Y261615*
G75*
G02X288500Y263100I1485J1485*
G01*
Y265967*
G75*
G02X282676Y266000I-2900J2133*
G01*
X243102*
G75*
G02X241615Y266615I-3J2100*
G01*
X198683Y309548*
G75*
G02X194673Y314204I-583J3553*
G01*
X189585Y309115*
G75*
G02X188098Y308500I-1485J1485*
G01*
X78524*
G75*
G02X72620Y312620I-2924J2100*
G01*
G75*
G02X68467Y318500I-2020J2980*
G01*
X61470*
X60200Y317230*
Y278524*
G75*
G02X61700Y275600I-2100J-2924*
G01*
G75*
G02X55600Y273009I-3600*
G01*
G75*
G02X50600I-2500J2591*
G01*
G75*
G02X44500Y275600I-2500J2591*
G01*
G75*
G02X46000Y278524I3600*
G01*
Y307676*
G75*
G02X50120Y313580I2100J2924*
G01*
G75*
G02X56000Y317733I2980J2020*
G01*
Y318100*
G75*
G02X56615Y319585I2100*
G01*
X59115Y322085*
G75*
G02X60602Y322700I1485J-1485*
G01*
X120967*
G75*
G02X121000Y328524I2133J2900*
G01*
Y331415*
G75*
G02X114000Y333726I-3119J2311*
G01*
G75*
G02X121000Y336037I3881*
G01*
Y338100*
G75*
G02X121615Y339585I2100*
G01*
X124115Y342085*
G75*
G02X125602Y342700I1485J-1485*
G01*
X200176*
G75*
G02X206700Y340600I2924J-2100*
G01*
G75*
G02X201761Y337258I-3600*
G01*
Y329844*
X199981*
Y320381*
G75*
G02X199367Y318896I-2100*
G01*
X196996Y316527*
G75*
G02X201700Y313100I1104J-3427*
G01*
G75*
G02X201652Y312517I-3600J1*
G01*
X243970Y270200*
X282676*
G75*
G02X288500Y270233I2924J-2100*
G01*
Y300491*
G75*
G02X281281Y302474I-3337J1983*
G01*
G75*
G02X288500Y304457I3881*
G01*
Y313100*
G75*
G02X289115Y314585I2100*
G01*
X298500Y323970*
Y331743*
G75*
G02X291281Y333726I-3337J1983*
G01*
G75*
G02X298503Y335704I3881*
G01*
G75*
G02X299115Y337085I2097J-104*
G01*
X301615Y339585*
G75*
G02X303102Y340200I1485J-1485*
G01*
X310598*
G75*
G02X312085Y339585I3J-2100*
G01*
X314187Y337483*
G75*
G02X319044Y333726I976J-3757*
G01*
G75*
G02X311281I-3881*
G01*
G75*
G02X311339Y334391I3882J0*
G01*
X309730Y336000*
X308309*
G75*
G02X308956Y332903I-3145J-2274*
G01*
X312085Y329774*
G75*
G02X312700Y328289I-1485J-1485*
G01*
Y305474*
G75*
G02X318500Y304457I2463J-3000*
G01*
Y329163*
G75*
G02X319115Y330648I2100*
G01*
X321370Y332903*
G75*
G02X321281Y333726I3793J823*
G01*
G75*
G02X329044I3881*
G01*
G75*
G02X324340Y329933I-3881*
G01*
X322700Y328293*
Y305474*
G75*
G02X328500Y304457I2463J-3000*
G01*
Y329163*
G75*
G02X329115Y330648I2100*
G01*
X331370Y332903*
G75*
G02X331281Y333726I3793J823*
G01*
G75*
G02X339044I3881*
G01*
G75*
G02X334340Y329933I-3881*
G01*
X332700Y328293*
Y305474*
G75*
G02X339044Y302474I2463J-3000*
G01*
G75*
G02X332700Y299474I-3881*
G01*
Y270233*
G75*
G02X338524Y270200I2900J-2133*
G01*
X357676*
G75*
G02X364200Y268100I2924J-2100*
G01*
G75*
G02X362733Y265200I-3600*
G01*
X390176*
G75*
G02X396700Y263100I2924J-2100*
G01*
G75*
G02X395233Y260200I-3600*
G01*
X400598*
G75*
G02X402085Y259585I3J-2100*
G01*
X418398Y243272*
G75*
G02X419013Y241787I-1485J-1485*
G01*
Y237391*
G75*
G02X421761Y233021I-2100J-4370*
G01*
G75*
G02X412065I-4848*
G01*
G75*
G02X414813Y237391I4848*
G01*
Y240918*
X399730Y256000*
X397700*
Y221024*
G75*
G02X399200Y218100I-2100J-2924*
G01*
G75*
G02X392000I-3600*
G01*
G75*
G02X393500Y221024I3600*
G01*
Y228030*
X392085Y226615*
G75*
G02X390845Y226014I-1485J1485*
G01*
G75*
G02X391761Y223179I-3932J-2835*
G01*
G75*
G02X382065I-4848*
G01*
G75*
G02X382970Y226000I4848*
G01*
X378970*
X375200Y222230*
Y221024*
G75*
G02X376700Y218100I-2100J-2924*
G01*
G75*
G02X370600Y215509I-3600*
G01*
G75*
G02X365600I-2500J2591*
G01*
G75*
G02X359500Y218100I-2500J2591*
G01*
G75*
G02X361000Y221024I3600*
G01*
Y228100*
G75*
G02X361615Y229585I2100*
G01*
X374548Y242517*
G75*
G02X374500Y243100I3553J584*
G01*
G75*
G02X375967Y246000I3600*
G01*
X368524*
G75*
G02X362676I-2924J2100*
G01*
X333524*
G75*
G02X327000Y248100I-2924J2100*
G01*
G75*
G02X333524Y250200I3600*
G01*
X362676*
G75*
G02X368524I2924J-2100*
G01*
X380176*
G75*
G02X384585Y251379I2924J-2100*
G01*
G75*
G02X391700Y250600I3515J-779*
G01*
G75*
G02X391652Y250017I-3600J1*
G01*
X393500Y248170*
Y256000*
X333524*
G75*
G02X327000Y258100I-2924J2100*
G01*
G75*
G02X328500Y261024I3600*
G01*
Y300491*
G75*
G02X322700Y299474I-3337J1983*
G01*
Y246470*
X326470Y242700*
X327676*
G75*
G02X333524I2924J-2100*
G01*
X362676*
G75*
G02X369200Y240600I2924J-2100*
G01*
G75*
G02X362676Y238500I-3600*
G01*
X333524*
G75*
G02X327676I-2924J2100*
G01*
X325602*
G75*
G02X324115Y239115I-3J2100*
G01*
X319115Y244115*
G75*
G02X318500Y245600I1485J1485*
G01*
Y300491*
G75*
G02X312700Y299474I-3337J1983*
G01*
Y241470*
X319585Y234585*
G75*
G02X319885Y234206I-1485J-1483*
G01*
X323891Y230200*
X334730*
X336005Y231475*
G75*
G02X335752Y233021I4594J1546*
G01*
G75*
G02X345448I4848*
G01*
G75*
G02X345175Y231417I-4848J0*
G01*
X347085Y229506*
G75*
G02X347700Y228021I-1485J-1485*
G01*
Y220233*
G75*
G02X354200Y218100I2900J-2133*
G01*
G75*
G02X354152Y217517I-3600J1*
G01*
X358970Y212700*
X425967*
G75*
G02X426000Y218524I2133J2900*
G01*
Y225521*
G75*
G02X426615Y227006I2100*
G01*
X434115Y234506*
G75*
G02X435602Y235121I1485J-1485*
G01*
X441843*
X408464Y268500*
X376024*
G75*
G02X369500Y270600I-2924J2100*
G01*
G75*
G02X376024Y272700I3600*
G01*
X390967*
G75*
G02X389500Y275600I2133J2900*
G01*
G75*
G02X389548Y276183I3600J-1*
G01*
X369115Y296615*
G75*
G02X368500Y298100I1485J1485*
G01*
Y300491*
G75*
G02X361281Y302474I-3337J1983*
G01*
G75*
G02X368500Y304457I3881*
G01*
Y327419*
X365986Y329933*
G75*
G02X361281Y333726I-823J3793*
G01*
G75*
G02X369044I3881*
G01*
G75*
G02X368956Y332903I-3881J0*
G01*
X371281Y330578*
Y337608*
X379045*
Y329844*
X372015*
X372085Y329774*
G75*
G02X372700Y328289I-1485J-1485*
G01*
Y305474*
G75*
G02X379044Y302474I2463J-3000*
G01*
G75*
G02X372700Y299474I-3881*
G01*
Y298970*
X392517Y279152*
G75*
G02X395233Y272700I583J-3552*
G01*
X409331*
G75*
G02X410819Y272085I3J-2100*
G01*
X445308Y237596*
G75*
G02X451761Y233021I1605J-4575*
G01*
G75*
G02X442543Y230921I-4848*
G01*
X436470*
X430200Y224652*
Y218524*
G75*
G02X430233Y212700I-2100J-2924*
G01*
X459730*
X481536Y234506*
G75*
G02X483024Y235121I1485J-1485*
G01*
X484026*
G75*
G02X492726Y235200I4370J-2100*
G01*
X505598*
G75*
G02X507085Y234585I3J-2100*
G01*
X509585Y232085*
G75*
G02X510200Y230600I-1485J-1485*
G01*
Y221024*
G75*
G02X511527Y216996I-2100J-2924*
G01*
X524409Y229878*
G75*
G02X523252Y233021I3692J3143*
G01*
G75*
G02X532948I4848*
G01*
G75*
G02X528678Y228208I-4848*
G01*
X528481Y228012*
G75*
G02X530200Y218809I-381J-4833*
G01*
Y176470*
X544585Y162085*
G75*
G02X545200Y160600I-1485J-1485*
G01*
Y90233*
G75*
G02X551700Y88100I2900J-2133*
G01*
G75*
G02X551652Y87517I-3600J1*
G01*
X554585Y84585*
G75*
G02X555200Y83100I-1485J-1485*
G01*
Y78524*
X162000Y233100D02*
G75*
G02X169200I3600D01*
G01*
G75*
G02X167700Y230176I-3600*
G01*
Y218524*
G75*
G02X169200Y215600I-2100J-2924*
G01*
G75*
G02X162000I-3600*
G01*
G75*
G02X163500Y218524I3600*
G01*
Y230176*
G75*
G02X162000Y233100I2100J2924*
G01*
X133252Y223179D02*
G75*
G02X142948I4848D01*
G01*
G75*
G02X133252I-4848*
G01*
X93252D02*
G75*
G02X102948I4848D01*
G01*
G75*
G02X93252I-4848*
G01*
X121952Y197538D02*
G75*
G02X129857Y194458I3353J-3080D01*
G01*
G75*
G02X127405Y190419I-4553*
G01*
Y180781*
G75*
G02X125305Y172189I-2100J-4039*
G01*
G75*
G02X121952Y173662J4553*
G01*
Y173524*
G75*
G02X123452Y170600I-2100J-2924*
G01*
G75*
G02X116252I-3600*
G01*
G75*
G02X117752Y173524I3600*
G01*
Y229730*
X116561Y230921*
X102470*
G75*
G02X93252Y233021I-4370J2100*
G01*
G75*
G02X102470Y235121I4848*
G01*
X117428*
G75*
G02X118916Y234506I3J-2100*
G01*
X121337Y232085*
G75*
G02X121952Y230600I-1485J-1485*
G01*
Y197538*
X106343Y194458D02*
G75*
G02X115448I4553D01*
G01*
G75*
G02X112995Y190419I-4553*
G01*
Y180781*
G75*
G02X110895Y172189I-2100J-4039*
G01*
G75*
G02X108795Y180781J4553*
G01*
Y190419*
G75*
G02X106343Y194458I2100J4039*
G01*
X80752D02*
G75*
G02X89857I4553D01*
G01*
G75*
G02X87405Y190419I-4553*
G01*
Y180781*
G75*
G02X85305Y172189I-2100J-4039*
G01*
G75*
G02X83205Y180781J4553*
G01*
Y190419*
G75*
G02X80752Y194458I2100J4039*
G01*
X266343Y194283D02*
G75*
G02X275448I4553D01*
G01*
G75*
G02X272995Y190243I-4553*
G01*
Y180606*
G75*
G02X270895Y172013I-2100J-4039*
G01*
G75*
G02X268795Y180606J4553*
G01*
Y190243*
G75*
G02X266343Y194283I2100J4039*
G01*
X321782D02*
G75*
G02X330887I4553D01*
G01*
G75*
G02X321782I-4553*
G01*
X293252Y223179D02*
G75*
G02X302948I4848D01*
G01*
G75*
G02X293252I-4848*
G01*
X306343Y194242D02*
G75*
G02X315448I4553D01*
G01*
G75*
G02X306343I-4553*
G01*
X280752D02*
G75*
G02X289857I4553D01*
G01*
G75*
G02X280752I-4553*
G01*
X253127Y223179D02*
G75*
G02X262823I4848D01*
G01*
G75*
G02X253127I-4848*
G01*
X227000Y235600D02*
G75*
G02X234200I3600D01*
G01*
G75*
G02X232700Y232676I-3600*
G01*
Y218524*
G75*
G02X234200Y215600I-2100J-2924*
G01*
G75*
G02X227000I-3600*
G01*
G75*
G02X228500Y218524I3600*
G01*
Y232676*
G75*
G02X227000Y235600I2100J2924*
G01*
X213252Y223179D02*
G75*
G02X222948I4848D01*
G01*
G75*
G02X213252I-4848*
G01*
X202517Y171652D02*
G75*
G02X206700Y168100I583J-3552D01*
G01*
G75*
G02X199500I-3600*
G01*
G75*
G02X199548Y168683I3600J-1*
G01*
X196615Y171615*
G75*
G02X196000Y173100I1485J1485*
G01*
Y197676*
G75*
G02X194500Y200600I2100J2924*
G01*
G75*
G02X201700I3600*
G01*
G75*
G02X200200Y197676I-3600*
G01*
Y173970*
X202517Y171652*
X203683Y281037D02*
G75*
G02X212517I4417D01*
G01*
G75*
G02X203683I-4417*
G01*
X200200Y284923D02*
G75*
G02X198100Y276620I-2100J-3886D01*
G01*
G75*
G02X196000Y284923J4417*
G01*
Y299079*
G75*
G02X194000Y302474I1881J3395*
G01*
G75*
G02X201763I3881*
G01*
G75*
G02X200200Y299361I-3881*
G01*
Y284923*
X84000Y302474D02*
G75*
G02X91763I3881D01*
G01*
G75*
G02X84000I-3881*
G01*
X94000D02*
G75*
G02X101763I3881D01*
G01*
G75*
G02X94000I-3881*
G01*
X104000D02*
G75*
G02X111763I3881D01*
G01*
G75*
G02X104000I-3881*
G01*
X114000D02*
G75*
G02X121763I3881D01*
G01*
G75*
G02X114000I-3881*
G01*
X129981Y285033D02*
G75*
G02X128100Y276620I-1881J-3996D01*
G01*
G75*
G02X125781Y284796J4417*
G01*
Y299210*
G75*
G02X124000Y302474I2100J3264*
G01*
G75*
G02X131763I3881*
G01*
G75*
G02X129981Y299210I-3881*
G01*
Y285033*
X140200Y284923D02*
G75*
G02X138100Y276620I-2100J-3886D01*
G01*
G75*
G02X136000Y284923J4417*
G01*
Y299079*
G75*
G02X134000Y302474I1881J3395*
G01*
G75*
G02X141763I3881*
G01*
G75*
G02X140200Y299361I-3881*
G01*
Y284923*
X149981Y285033D02*
G75*
G02X148100Y276620I-1881J-3996D01*
G01*
G75*
G02X145781Y284796J4417*
G01*
Y299210*
G75*
G02X144000Y302474I2100J3264*
G01*
G75*
G02X151763I3881*
G01*
G75*
G02X149981Y299210I-3881*
G01*
Y285033*
X170200Y284923D02*
G75*
G02X168100Y276620I-2100J-3886D01*
G01*
G75*
G02X166000Y284923J4417*
G01*
Y299079*
G75*
G02X164000Y302474I1881J3395*
G01*
G75*
G02X171763I3881*
G01*
G75*
G02X170200Y299361I-3881*
G01*
Y284923*
X196080Y246080D02*
G75*
G02X201700Y243100I2020J-2980D01*
G01*
G75*
G02X195176Y241000I-3600*
G01*
X176024*
G75*
G02X170120Y245120I-2924J2100*
G01*
G75*
G02X164500Y248100I-2020J2980*
G01*
G75*
G02X171024Y250200I3600*
G01*
X190176*
G75*
G02X196080Y246080I2924J-2100*
G01*
X173252Y223179D02*
G75*
G02X182948I4848D01*
G01*
G75*
G02X173252I-4848*
G01*
X180200Y284923D02*
G75*
G02X178100Y276620I-2100J-3886D01*
G01*
G75*
G02X176000Y284923J4417*
G01*
Y299079*
G75*
G02X174000Y302474I1881J3395*
G01*
G75*
G02X181763I3881*
G01*
G75*
G02X180200Y299361I-3881*
G01*
Y284923*
X190200D02*
G75*
G02X188100Y276620I-2100J-3886D01*
G01*
G75*
G02X186000Y284923J4417*
G01*
Y299079*
G75*
G02X184000Y302474I1881J3395*
G01*
G75*
G02X191763I3881*
G01*
G75*
G02X190200Y299361I-3881*
G01*
Y284923*
X74000Y302474D02*
G75*
G02X81763I3881D01*
G01*
G75*
G02X74000I-3881*
G01*
X64000D02*
G75*
G02X71763I3881D01*
G01*
G75*
G02X64000I-3881*
G01*
X204500Y330600D02*
G75*
G02X211700I3600D01*
G01*
G75*
G02X204500I-3600*
G01*
X412065Y223179D02*
G75*
G02X421761I4848D01*
G01*
G75*
G02X412065I-4848*
G01*
X399500Y245600D02*
G75*
G02X406700I3600D01*
G01*
G75*
G02X405200Y242676I-3600*
G01*
Y221024*
G75*
G02X406700Y218100I-2100J-2924*
G01*
G75*
G02X399500I-3600*
G01*
G75*
G02X401000Y221024I3600*
G01*
Y242676*
G75*
G02X399500Y245600I2100J2924*
G01*
X442065Y223179D02*
G75*
G02X451761I4848D01*
G01*
G75*
G02X442065I-4848*
G01*
X560628Y91022D02*
G75*
G02X561243Y89537I-1485J-1485D01*
G01*
Y43100*
G75*
G02X560628Y41615I-2100*
G01*
X558332Y39319*
G75*
G02X556539Y32919I-3893J-2360*
G01*
Y23281*
G75*
G02X554439Y14689I-2100J-4039*
G01*
G75*
G02X552339Y23281J4553*
G01*
Y32919*
G75*
G02X554439Y41511I2100J4039*
G01*
G75*
G02X554582Y41509I-3J-4557*
G01*
X557043Y43970*
Y88667*
X555810Y89900*
G75*
G02X552339Y98281I-1371J4341*
G01*
Y107919*
G75*
G02X554439Y116511I2100J4039*
G01*
G75*
G02X556539Y107919J-4553*
G01*
Y98281*
G75*
G02X558780Y92870I-2100J-4039*
G01*
X560628Y91022*
X504591Y36269D02*
G75*
G02X513696I4553D01*
G01*
G75*
G02X511243Y32230I-4553*
G01*
Y22592*
G75*
G02X509143Y14000I-2100J-4039*
G01*
G75*
G02X507043Y22592J4553*
G01*
Y32230*
G75*
G02X504591Y36269I2100J4039*
G01*
X524295Y36958D02*
G75*
G02X533401I4553D01*
G01*
G75*
G02X530948Y32919I-4553*
G01*
Y23281*
G75*
G02X528848Y14689I-2100J-4039*
G01*
G75*
G02X526748Y23281J4553*
G01*
Y32919*
G75*
G02X524295Y36958I2100J4039*
G01*
X479000Y36269D02*
G75*
G02X488106I4553D01*
G01*
G75*
G02X485653Y32230I-4553*
G01*
Y22592*
G75*
G02X483553Y14000I-2100J-4039*
G01*
G75*
G02X481453Y22592J4553*
G01*
Y32230*
G75*
G02X479000Y36269I2100J4039*
G01*
X524295Y111958D02*
G75*
G02X533401I4553D01*
G01*
G75*
G02X530948Y107919I-4553*
G01*
Y98281*
G75*
G02X528848Y89689I-2100J-4039*
G01*
G75*
G02X526748Y98281J4553*
G01*
Y107919*
G75*
G02X524295Y111958I2100J4039*
G01*
X510752Y194458D02*
G75*
G02X519857I4553D01*
G01*
G75*
G02X517405Y190419I-4553*
G01*
Y180781*
G75*
G02X515305Y172189I-2100J-4039*
G01*
G75*
G02X513205Y180781J4553*
G01*
Y190419*
G75*
G02X510752Y194458I2100J4039*
G01*
X466638Y111958D02*
G75*
G02X475743I4553D01*
G01*
G75*
G02X473291Y107919I-4553*
G01*
Y98281*
G75*
G02X471191Y89689I-2100J-4039*
G01*
G75*
G02X467700Y91319J4553*
G01*
Y83524*
G75*
G02X469200Y80600I-2100J-2924*
G01*
G75*
G02X462000I-3600*
G01*
G75*
G02X463500Y83524I3600*
G01*
Y104730*
X438683Y129548*
G75*
G02X434500Y133100I-583J3552*
G01*
G75*
G02X441700I3600*
G01*
G75*
G02X441652Y132517I-3600J1*
G01*
X467085Y107085*
G75*
G02X467700Y105600I-1485J-1485*
G01*
Y97165*
G75*
G02X469091Y98281I3491J-2923*
G01*
Y107919*
G75*
G02X466638Y111958I2100J4039*
G01*
X441047D02*
G75*
G02X450153I4553D01*
G01*
G75*
G02X447700Y107919I-4553*
G01*
Y98281*
G75*
G02X445600Y89689I-2100J-4039*
G01*
G75*
G02X443500Y98281J4553*
G01*
Y107919*
G75*
G02X441047Y111958I2100J4039*
G01*
X493252Y75521D02*
G75*
G02X502948I4848D01*
G01*
G75*
G02X493252I-4848*
G01*
X413252Y150521D02*
G75*
G02X422948I4848D01*
G01*
G75*
G02X413252I-4848*
G01*
X415004Y65679D02*
G75*
G02X424700I4848D01*
G01*
G75*
G02X415004I-4848*
G01*
X313730Y142779D02*
G75*
G02X322948Y140679I4370J-2100D01*
G01*
G75*
G02X316495Y136104I-4848*
G01*
X315200Y134809*
Y68603*
G75*
G02X316700Y65679I-2100J-2924*
G01*
G75*
G02X309500I-3600*
G01*
G75*
G02X311000Y68603I3600*
G01*
Y135679*
G75*
G02X311615Y137164I2100*
G01*
X313030Y138579*
X287622*
G75*
G02X289200Y135600I-2022J-2979*
G01*
G75*
G02X282676Y133500I-3600*
G01*
X261470*
X256174Y128204*
G75*
G02X256700Y126330I-3074J-1874*
G01*
G75*
G02X249500I-3600*
G01*
G75*
G02X251659Y129629I3600*
G01*
X259115Y137085*
G75*
G02X260602Y137700I1485J-1485*
G01*
X271775*
G75*
G02X271657Y143500I3825J2979*
G01*
X268102*
G75*
G02X266615Y144115I-3J2100*
G01*
X263750Y146980*
G75*
G02X259500Y150521I-650J3541*
G01*
G75*
G02X266700I3600*
G01*
G75*
G02X266663Y150007I-3601J0*
G01*
X268970Y147700*
X271657*
G75*
G02X270752Y150521I3943J2821*
G01*
G75*
G02X280448I4848*
G01*
G75*
G02X279543Y147700I-4848*
G01*
X294809*
X297048Y149939*
G75*
G02X297000Y150521I3553J584*
G01*
G75*
G02X297354Y152078I3600*
G01*
G75*
G02X296000Y158524I746J3522*
G01*
Y162676*
G75*
G02Y168524I2100J2924*
G01*
Y175176*
G75*
G02X294500Y178100I2100J2924*
G01*
G75*
G02X301700I3600*
G01*
G75*
G02X300200Y175176I-3600*
G01*
Y168524*
G75*
G02Y162676I-2100J-2924*
G01*
Y158524*
G75*
G02X301346Y154043I-2100J-2924*
G01*
G75*
G02X300017Y146969I-746J-3522*
G01*
X297164Y144115*
G75*
G02X295676Y143500I-1485J1485*
G01*
X279543*
G75*
G02X279970Y142779I-3943J-2822*
G01*
X313730*
X321047Y75521D02*
G75*
G02X330743I4848D01*
G01*
G75*
G02X321047I-4848*
G01*
X292000Y128100D02*
G75*
G02X299200I3600D01*
G01*
G75*
G02X295017Y124548I-3600*
G01*
X287085Y116615*
G75*
G02X285598Y116000I-1485J1485*
G01*
X278970*
X275200Y112230*
Y98524*
G75*
G02X276700Y95600I-2100J-2924*
G01*
G75*
G02X269500I-3600*
G01*
G75*
G02X271000Y98524I3600*
G01*
Y113100*
G75*
G02X271615Y114585I2100*
G01*
X276615Y119585*
G75*
G02X278102Y120200I1485J-1485*
G01*
X284730*
X292048Y127517*
G75*
G02X292000Y128100I3553J584*
G01*
X296317Y111958D02*
G75*
G02X305422I4553D01*
G01*
G75*
G02X302969Y107919I-4553*
G01*
Y98281*
G75*
G02X300869Y89689I-2100J-4039*
G01*
G75*
G02X298769Y98281J4553*
G01*
Y107919*
G75*
G02X296317Y111958I2100J4039*
G01*
X306343Y176525D02*
G75*
G02X315448I4553D01*
G01*
G75*
G02X306343I-4553*
G01*
X313252Y150521D02*
G75*
G02X322948I4848D01*
G01*
G75*
G02X313252I-4848*
G01*
X280752Y176525D02*
G75*
G02X289857I4553D01*
G01*
G75*
G02X280752I-4553*
G01*
X189500Y65600D02*
G75*
G02X196700I3600D01*
G01*
G75*
G02X195200Y62676I-3600*
G01*
Y53524*
G75*
G02X196700Y50600I-2100J-2924*
G01*
G75*
G02X189500I-3600*
G01*
G75*
G02X191000Y53524I3600*
G01*
Y62676*
G75*
G02X189500Y65600I2100J2924*
G01*
X66343Y194458D02*
G75*
G02X75448I4553D01*
G01*
G75*
G02X72995Y190419I-4553*
G01*
Y180781*
G75*
G02X70895Y172189I-2100J-4039*
G01*
G75*
G02X68795Y180781J4553*
G01*
Y190419*
G75*
G02X66343Y194458I2100J4039*
G01*
X53252Y115679D02*
G75*
G02X62948I4848D01*
G01*
G75*
G02X53252I-4848*
G01*
Y125521D02*
G75*
G02X62948I4848D01*
G01*
G75*
G02X53252I-4848*
G01*
Y223179D02*
G75*
G02X62948I4848D01*
G01*
G75*
G02X53252I-4848*
G01*
X75200Y133524D02*
G75*
G02X76700Y130600I-2100J-2924D01*
G01*
G75*
G02X69500I-3600*
G01*
G75*
G02X71000Y133524I3600*
G01*
Y136030*
X64982Y142048*
G75*
G02X60799Y145600I-583J3552*
G01*
G75*
G02X67999I3600*
G01*
G75*
G02X67952Y145017I-3600J1*
G01*
X74585Y138384*
G75*
G02X75200Y136899I-1485J-1485*
G01*
Y133524*
X97700Y36024D02*
G75*
G02X99200Y33100I-2100J-2924D01*
G01*
G75*
G02X92000I-3600*
G01*
G75*
G02X93500Y36024I3600*
G01*
Y39730*
X79115Y54115*
G75*
G02X78500Y55600I1485J1485*
G01*
Y87230*
X73683Y92048*
G75*
G02X69500Y95600I-583J3552*
G01*
G75*
G02X76700I3600*
G01*
G75*
G02X76652Y95017I-3600J1*
G01*
X82085Y89585*
G75*
G02X82700Y88100I-1485J-1485*
G01*
Y56470*
X97085Y42085*
G75*
G02X97700Y40600I-1485J-1485*
G01*
Y36024*
X94500Y23100D02*
G75*
G02X101700I3600D01*
G01*
G75*
G02X100200Y20176I-3600*
G01*
Y13100*
G75*
G02X99585Y11615I-2100*
G01*
X97085Y9115*
G75*
G02X95598Y8500I-1485J1485*
G01*
X80602*
G75*
G02X79115Y9115I-3J2100*
G01*
X76615Y11615*
G75*
G02X76000Y13100I1485J1485*
G01*
Y32676*
G75*
G02X74500Y35600I2100J2924*
G01*
G75*
G02X81700I3600*
G01*
G75*
G02X80200Y32676I-3600*
G01*
Y13970*
X81470Y12700*
X94730*
X96000Y13970*
Y20176*
G75*
G02X94500Y23100I2100J2924*
G01*
X82504Y36269D02*
G75*
G02X91609I4553D01*
G01*
G75*
G02X89157Y32230I-4553*
G01*
Y22592*
G75*
G02X87057Y14000I-2100J-4039*
G01*
G75*
G02X84957Y22592J4553*
G01*
Y32230*
G75*
G02X82504Y36269I2100J4039*
G01*
X40752Y80580D02*
G75*
G02X49857I4553D01*
G01*
G75*
G02X47405Y76541I-4553*
G01*
Y66903*
G75*
G02X45305Y58311I-2100J-4039*
G01*
G75*
G02X43205Y66903J4553*
G01*
Y76541*
G75*
G02X40752Y80580I2100J4039*
G01*
Y194458D02*
G75*
G02X49857I4553D01*
G01*
G75*
G02X47405Y190419I-4553*
G01*
Y180781*
G75*
G02X45305Y172189I-2100J-4039*
G01*
G75*
G02X43205Y180781J4553*
G01*
Y190419*
G75*
G02X40752Y194458I2100J4039*
G01*
X64000Y333726D02*
G75*
G02X71763I3881D01*
G01*
G75*
G02X64000I-3881*
G01*
X277700Y371024D02*
G75*
G02X279200Y368100I-2100J-2924D01*
G01*
G75*
G02X272000I-3600*
G01*
G75*
G02X273500Y371024I3600*
G01*
Y382230*
X269730Y386000*
X228970*
X228168Y385198*
X230198*
Y376002*
X227700*
Y368970*
X256648Y340022*
G75*
G02X257263Y338537I-1485J-1485*
G01*
Y336990*
G75*
G02X259044Y333726I-2100J-3264*
G01*
G75*
G02X251281I-3881*
G01*
G75*
G02X253063Y336990I3881*
G01*
Y337667*
X227700Y363030*
Y358100*
G75*
G02X227085Y356615I-2100*
G01*
X224585Y354115*
G75*
G02X223098Y353500I-1485J1485*
G01*
X217733*
G75*
G02X219200Y350600I-2133J-2900*
G01*
G75*
G02X212000I-3600*
G01*
G75*
G02X213467Y353500I3600*
G01*
X83751*
X79981Y349730*
Y336990*
G75*
G02X81763Y333726I-2100J-3264*
G01*
G75*
G02X74000I-3881*
G01*
G75*
G02X75781Y336990I3881*
G01*
Y350600*
G75*
G02X76396Y352085I2100*
G01*
X81396Y357085*
G75*
G02X82884Y357700I1485J-1485*
G01*
X85967*
G75*
G02X84500Y360600I2133J2900*
G01*
G75*
G02X91024Y362700I3600*
G01*
X192022*
G75*
G02X192000Y363100I3578J401*
G01*
G75*
G02X199200I3600*
G01*
G75*
G02X195017Y359548I-3600*
G01*
X194585Y359115*
G75*
G02X193098Y358500I-1485J1485*
G01*
X91024*
G75*
G02X90233Y357700I-2924J2100*
G01*
X222230*
X223500Y358970*
Y376002*
X221002*
Y385198*
X223500*
Y385600*
G75*
G02X224115Y387085I2100*
G01*
X226615Y389585*
G75*
G02X228102Y390200I1485J-1485*
G01*
X270598*
G75*
G02X272085Y389585I3J-2100*
G01*
X277085Y384585*
G75*
G02X277700Y383100I-1485J-1485*
G01*
Y371024*
X267263Y336990D02*
G75*
G02X269044Y333726I-2100J-3264D01*
G01*
G75*
G02X261281I-3881*
G01*
G75*
G02X262926Y336898I3881*
G01*
X233209Y366615*
G75*
G02X232594Y368100I1485J1485*
G01*
Y376002*
X231002*
Y385198*
X240198*
Y376002*
X236794*
Y368970*
X266648Y339117*
G75*
G02X267263Y337631I-1485J-1485*
G01*
Y336990*
X261281Y302474D02*
G75*
G02X269044I3881D01*
G01*
G75*
G02X261281I-3881*
G01*
X241002Y385198D02*
X250198D01*
Y376002*
X241002*
Y385198*
X270017Y364152D02*
G75*
G02X274200Y360600I583J-3552D01*
G01*
G75*
G02X267000I-3600*
G01*
G75*
G02X267048Y361183I3600J-1*
G01*
X254115Y374115*
G75*
G02X253500Y375600I1485J1485*
G01*
Y376002*
X251002*
Y385198*
X260198*
Y376002*
X258168*
X270017Y364152*
X271281Y302474D02*
G75*
G02X279044I3881D01*
G01*
G75*
G02X271281I-3881*
G01*
Y333726D02*
G75*
G02X279044I3881D01*
G01*
G75*
G02X271281I-3881*
G01*
X241899Y304574D02*
G75*
G02X249044Y302474I3264J-2100D01*
G01*
G75*
G02X247263Y299210I-3881*
G01*
Y286024*
G75*
G02X248763Y283100I-2100J-2924*
G01*
G75*
G02X241563I-3600*
G01*
G75*
G02X241976Y284773I3600J0*
G01*
G75*
G02X237000Y288100I-1376J3327*
G01*
G75*
G02X243063Y290726I3600*
G01*
Y299210*
G75*
G02X241899Y300374I2100J3264*
G01*
X238728*
G75*
G02X237241Y300989I-3J2100*
G01*
X234115Y304115*
G75*
G02X233500Y305600I1485J1485*
G01*
Y335176*
G75*
G02X232000Y338100I2100J2924*
G01*
G75*
G02X239200I3600*
G01*
G75*
G02X237700Y335176I-3600*
G01*
Y306470*
X239596Y304574*
X241899*
X241281Y333726D02*
G75*
G02X249044I3881D01*
G01*
G75*
G02X241281I-3881*
G01*
X251281Y302474D02*
G75*
G02X259044I3881D01*
G01*
G75*
G02X251281I-3881*
G01*
X251563Y288100D02*
G75*
G02X258763I3600D01*
G01*
G75*
G02X251563I-3600*
G01*
X219500Y305600D02*
G75*
G02X226700I3600D01*
G01*
G75*
G02X219500I-3600*
G01*
X84000Y333726D02*
G75*
G02X91763I3881D01*
G01*
G75*
G02X84000I-3881*
G01*
X94000D02*
G75*
G02X101763I3881D01*
G01*
G75*
G02X94000I-3881*
G01*
X104000D02*
G75*
G02X111763I3881D01*
G01*
G75*
G02X104000I-3881*
G01*
X211002Y385198D02*
X220198D01*
Y376002*
X211002*
Y385198*
X281281Y333726D02*
G75*
G02X289044I3881D01*
G01*
G75*
G02X281281I-3881*
G01*
X341281Y302474D02*
G75*
G02X349044I3881D01*
G01*
G75*
G02X341281I-3881*
G01*
Y333726D02*
G75*
G02X349044I3881D01*
G01*
G75*
G02X341281I-3881*
G01*
X351281Y302474D02*
G75*
G02X359044I3881D01*
G01*
G75*
G02X351281I-3881*
G01*
Y333726D02*
G75*
G02X359044I3881D01*
G01*
G75*
G02X351281I-3881*
G01*
X401571Y325876D02*
G75*
G02X417228I7828D01*
G01*
G75*
G02X401571I-7828*
G01*
X413705Y296348D02*
G75*
G02X422810I4553D01*
G01*
G75*
G02X413705I-4553*
G01*
X423547D02*
G75*
G02X432653I4553D01*
G01*
G75*
G02X423547I-4553*
G01*
X433390D02*
G75*
G02X442495I4553D01*
G01*
G75*
G02X433390I-4553*
G01*
X438972Y325876D02*
G75*
G02X454629I7828D01*
G01*
G75*
G02X438972I-7828*
G01*
X516002Y375198D02*
X525198D01*
Y366002*
X516002*
Y375198*
X572700Y255596D02*
X575596D01*
Y245604*
X568566*
X568880Y245290*
G75*
G02X575596Y240600I1720J-4690*
G01*
G75*
G02X567435Y236735I-4996*
G01*
X568880Y235290*
G75*
G02X575596Y230600I1720J-4690*
G01*
G75*
G02X565604I-4996*
G01*
G75*
G02X565910Y232320I4996*
G01*
X534115Y264115*
G75*
G02X533500Y265600I1485J1485*
G01*
Y340176*
G75*
G02X532676Y341000I2100J2924*
G01*
X526024*
G75*
G02X519500Y343100I-2924J2100*
G01*
G75*
G02X526024Y345200I3600*
G01*
X532676*
G75*
G02X539200Y343100I2924J-2100*
G01*
G75*
G02X537700Y340176I-3600*
G01*
Y266470*
X566735Y237435*
G75*
G02X565910Y242320I3866J3165*
G01*
X561615Y246615*
G75*
G02X561000Y248100I1485J1485*
G01*
Y342230*
X554730Y348500*
X538524*
G75*
G02X532676I-2924J2100*
G01*
X526024*
G75*
G02X519500Y350600I-2924J2100*
G01*
G75*
G02X526024Y352700I3600*
G01*
X532676*
G75*
G02X538524I2924J-2100*
G01*
X555598*
G75*
G02X557085Y352085I3J-2100*
G01*
X564585Y344585*
G75*
G02X565200Y343100I-1485J-1485*
G01*
Y248970*
X565604Y248566*
Y255596*
X568500*
Y354730*
X564730Y358500*
X533102*
G75*
G02X531615Y359115I-3J2100*
G01*
X529115Y361615*
G75*
G02X528500Y363100I1485J1485*
G01*
Y366002*
X526002*
Y375198*
X535198*
Y366002*
X532700*
Y363970*
X533970Y362700*
X565598*
G75*
G02X567085Y362085I3J-2100*
G01*
X572085Y357085*
G75*
G02X572700Y355600I-1485J-1485*
G01*
Y255596*
X536343Y194458D02*
G75*
G02X545448I4553D01*
G01*
G75*
G02X542995Y190419I-4553*
G01*
Y180781*
G75*
G02X540895Y172189I-2100J-4039*
G01*
G75*
G02X538795Y180781J4553*
G01*
Y190419*
G75*
G02X536343Y194458I2100J4039*
G01*
X565604Y60600D02*
G75*
G02X575596I4996D01*
G01*
G75*
G02X565604I-4996*
G01*
Y70600D02*
G75*
G02X575596I4996D01*
G01*
G75*
G02X565604I-4996*
G01*
Y80600D02*
G75*
G02X575596I4996D01*
G01*
G75*
G02X565604I-4996*
G01*
Y90600D02*
G75*
G02X575596I4996D01*
G01*
G75*
G02X565604I-4996*
G01*
Y100600D02*
G75*
G02X575596I4996D01*
G01*
G75*
G02X565604I-4996*
G01*
Y110600D02*
G75*
G02X575596I4996D01*
G01*
G75*
G02X565604I-4996*
G01*
Y120600D02*
G75*
G02X575596I4996D01*
G01*
G75*
G02X565604I-4996*
G01*
Y130600D02*
G75*
G02X575596I4996D01*
G01*
G75*
G02X565604I-4996*
G01*
Y140600D02*
G75*
G02X575596I4996D01*
G01*
G75*
G02X565604I-4996*
G01*
Y150600D02*
G75*
G02X575596I4996D01*
G01*
G75*
G02X565604I-4996*
G01*
Y160600D02*
G75*
G02X575596I4996D01*
G01*
G75*
G02X565604I-4996*
G01*
Y170600D02*
G75*
G02X575596I4996D01*
G01*
G75*
G02X565604I-4996*
G01*
Y180600D02*
G75*
G02X575596I4996D01*
G01*
G75*
G02X565604I-4996*
G01*
Y190600D02*
G75*
G02X575596I4996D01*
G01*
G75*
G02X565604I-4996*
G01*
Y200600D02*
G75*
G02X575596I4996D01*
G01*
G75*
G02X565604I-4996*
G01*
Y210600D02*
G75*
G02X575596I4996D01*
G01*
G75*
G02X565604I-4996*
G01*
Y220600D02*
G75*
G02X575596I4996D01*
G01*
G75*
G02X565604I-4996*
G01*
X517000Y380600D02*
G75*
G02X524200I3600D01*
G01*
G75*
G02X517000I-3600*
G01*
X536002Y375198D02*
X545198D01*
Y366002*
X536002*
Y375198*
X546002D02*
X555198D01*
Y366002*
X546002*
Y375198*
X575604Y60600D02*
G75*
G02X585596I4996D01*
G01*
G75*
G02X575604I-4996*
G01*
Y70600D02*
G75*
G02X585596I4996D01*
G01*
G75*
G02X575604I-4996*
G01*
Y80600D02*
G75*
G02X585596I4996D01*
G01*
G75*
G02X575604I-4996*
G01*
Y90600D02*
G75*
G02X585596I4996D01*
G01*
G75*
G02X575604I-4996*
G01*
Y100600D02*
G75*
G02X585596I4996D01*
G01*
G75*
G02X575604I-4996*
G01*
Y110600D02*
G75*
G02X585596I4996D01*
G01*
G75*
G02X575604I-4996*
G01*
Y120600D02*
G75*
G02X585596I4996D01*
G01*
G75*
G02X575604I-4996*
G01*
Y130600D02*
G75*
G02X585596I4996D01*
G01*
G75*
G02X575604I-4996*
G01*
Y140600D02*
G75*
G02X585596I4996D01*
G01*
G75*
G02X575604I-4996*
G01*
Y150600D02*
G75*
G02X585596I4996D01*
G01*
G75*
G02X575604I-4996*
G01*
Y160600D02*
G75*
G02X585596I4996D01*
G01*
G75*
G02X575604I-4996*
G01*
Y170600D02*
G75*
G02X585596I4996D01*
G01*
G75*
G02X575604I-4996*
G01*
Y180600D02*
G75*
G02X585596I4996D01*
G01*
G75*
G02X575604I-4996*
G01*
Y190600D02*
G75*
G02X585596I4996D01*
G01*
G75*
G02X575604I-4996*
G01*
Y200600D02*
G75*
G02X585596I4996D01*
G01*
G75*
G02X575604I-4996*
G01*
Y210600D02*
G75*
G02X585596I4996D01*
G01*
G75*
G02X575604I-4996*
G01*
Y220600D02*
G75*
G02X585596I4996D01*
G01*
G75*
G02X575604I-4996*
G01*
Y230600D02*
G75*
G02X585596I4996D01*
G01*
G75*
G02X575604I-4996*
G01*
Y240600D02*
G75*
G02X585596I4996D01*
G01*
G75*
G02X575604I-4996*
G01*
Y250600D02*
G75*
G02X585596I4996D01*
G01*
G75*
G02X575604I-4996*
G01*
X577000Y380600D02*
G75*
G02X584200I3600D01*
G01*
G75*
G02X577000I-3600*
G01*
X3400Y27411D02*
G36*
Y3558D01*
X587602*
Y27411*
X556539*
Y23281*
G75*
G02X558991Y19242I-2100J-4039*
G01*
G75*
G02X554439Y14689I-4553*
G01*
G75*
G02X549886Y19242J4553*
G01*
G75*
G02X552339Y23281I4553*
G01*
Y27411*
X530948*
Y23281*
G75*
G02X533401Y19242I-2100J-4039*
G01*
G75*
G02X528848Y14689I-4553*
G01*
G75*
G02X524295Y19242J4553*
G01*
G75*
G02X526748Y23281I4553*
G01*
Y27411*
X511243*
Y22592*
G75*
G02X513696Y18553I-2100J-4039*
G01*
G75*
G02X509143Y14000I-4553*
G01*
G75*
G02X504591Y18553J4553*
G01*
G75*
G02X507043Y22592I4553*
G01*
Y27411*
X485653*
Y22592*
G75*
G02X488106Y18553I-2100J-4039*
G01*
G75*
G02X483553Y14000I-4553*
G01*
G75*
G02X479000Y18553J4553*
G01*
G75*
G02X481453Y22592I4553*
G01*
Y27411*
X471243*
Y22592*
G75*
G02X472195Y21931I-2105J-4048*
G01*
G75*
G02X472000Y23100I3415J1170*
G01*
G75*
G02X479200I3600*
G01*
Y23100*
G75*
G02X477700Y20176I-3599*
G01*
Y18100*
G75*
G02X477085Y16615I-2102J0*
G01*
X472085Y11615*
G75*
G02X470598Y11000I-1485J1486*
G01*
X295602*
G75*
G02X294115Y11615I-2J2101*
G01*
X291615Y14115*
G75*
G02X291117Y14908I1481J1482*
G01*
X286910Y19115*
G75*
G02X286295Y20600I1487J1485*
G01*
Y27411*
X277700*
Y22592*
G75*
G02X280152Y18553I-2100J-4039*
G01*
G75*
G02X273997Y14291I-4553*
G01*
G75*
G02X274200Y13100I-3397J-1191*
G01*
G75*
G02X267676Y11000I-3600*
G01*
X110602*
G75*
G02X109115Y11615I-2J2101*
G01*
X106183Y14548*
G75*
G02X102000Y18100I-582J3553*
G01*
Y18100*
G75*
G02X108445Y20306I3600*
G01*
G75*
G02X110547Y22592I4203J-1754*
G01*
Y27411*
X89157*
Y22592*
G75*
G02X91609Y18553I-2100J-4039*
G01*
G75*
G02X87057Y14000I-4553*
G01*
G75*
G02X82504Y18553J4553*
G01*
G75*
G02X84957Y22592I4553*
G01*
Y27411*
X80200*
Y13970*
X81470Y12700*
X94730*
X96000Y13970*
Y20176*
G75*
G02X94500Y23100I2099J2924*
G01*
Y23100*
G75*
G02X101700I3600*
G01*
Y23100*
G75*
G02X100200Y20176I-3599*
G01*
Y13100*
G75*
G02X99585Y11615I-2102J0*
G01*
X97085Y9115*
G75*
G02X95598Y8500I-1485J1486*
G01*
X80602*
G75*
G02X79115Y9115I-2J2101*
G01*
X76615Y11615*
G75*
G02X76000Y13100I1487J1485*
G01*
Y27411*
X3400*
G37*
X114747D02*
G36*
Y22592D01*
G75*
G02X117200Y18553I-2100J-4039*
G01*
G75*
G02X115727Y15200I-4553*
G01*
X121477*
G75*
G02X120004Y18553I3080J3353*
G01*
G75*
G02X122457Y22592I4552*
G01*
Y27411*
X114747*
G37*
X126657D02*
G36*
Y22592D01*
G75*
G02X129109Y18553I-2100J-4039*
G01*
G75*
G02X127637Y15200I-4553*
G01*
X147067*
G75*
G02X145594Y18553I3080J3353*
G01*
G75*
G02X148047Y22592I4552*
G01*
Y27411*
X126657*
G37*
X152247D02*
G36*
Y22592D01*
G75*
G02X154700Y18553I-2100J-4039*
G01*
G75*
G02X153227Y15200I-4553*
G01*
X158977*
G75*
G02X157504Y18553I3080J3353*
G01*
G75*
G02X159957Y22592I4552*
G01*
Y27411*
X152247*
G37*
X164157D02*
G36*
Y22592D01*
G75*
G02X166609Y18553I-2100J-4039*
G01*
G75*
G02X165137Y15200I-4553*
G01*
X184567*
G75*
G02X183094Y18553I3080J3353*
G01*
G75*
G02X185547Y22592I4552*
G01*
Y27411*
X164157*
G37*
X189747D02*
G36*
Y22592D01*
G75*
G02X192200Y18553I-2100J-4039*
G01*
G75*
G02X190727Y15200I-4553*
G01*
X197225*
G75*
G02X195752Y18553I3080J3353*
G01*
G75*
G02X198205Y22592I4552*
G01*
Y27411*
X189747*
G37*
X202405D02*
G36*
Y22592D01*
G75*
G02X204857Y18553I-2100J-4039*
G01*
G75*
G02X203385Y15200I-4553*
G01*
X222815*
G75*
G02X221343Y18553I3080J3353*
G01*
G75*
G02X223795Y22592I4552*
G01*
Y27411*
X202405*
G37*
X227995D02*
G36*
Y22592D01*
G75*
G02X230448Y18553I-2100J-4039*
G01*
G75*
G02X228975Y15200I-4553*
G01*
X233977*
G75*
G02X232504Y18553I3080J3353*
G01*
G75*
G02X234957Y22592I4552*
G01*
Y27411*
X227995*
G37*
X239157D02*
G36*
Y22592D01*
G75*
G02X241609Y18553I-2100J-4039*
G01*
G75*
G02X240137Y15200I-4553*
G01*
X259567*
G75*
G02X258094Y18553I3080J3353*
G01*
G75*
G02X260547Y22592I4552*
G01*
Y27411*
X239157*
G37*
X264747D02*
G36*
Y22592D01*
G75*
G02X267200Y18553I-2100J-4039*
G01*
G75*
G02X265727Y15200I-4553*
G01*
X267676*
G75*
G02X271493Y16587I2924J-2100*
G01*
G75*
G02X271047Y18553I4106J1965*
G01*
G75*
G02X273500Y22592I4552*
G01*
Y27411*
X264747*
G37*
X378291D02*
G36*
Y22592D01*
G75*
G02X380743Y18553I-2100J-4039*
G01*
G75*
G02X379270Y15200I-4553*
G01*
X402225*
G75*
G02X400752Y18553I3080J3353*
G01*
G75*
G02X403205Y22592I4552*
G01*
Y27411*
X378291*
G37*
X407405D02*
G36*
Y22592D01*
G75*
G02X409857Y18553I-2100J-4039*
G01*
G75*
G02X408385Y15200I-4553*
G01*
X427815*
G75*
G02X426343Y18553I3080J3353*
G01*
G75*
G02X428795Y22592I4552*
G01*
Y27411*
X407405*
G37*
X432995D02*
G36*
Y22592D01*
G75*
G02X435448Y18553I-2100J-4039*
G01*
G75*
G02X433975Y15200I-4553*
G01*
X440473*
G75*
G02X439000Y18553I3080J3353*
G01*
G75*
G02X441453Y22592I4552*
G01*
Y27411*
X432995*
G37*
X445653D02*
G36*
Y22592D01*
G75*
G02X448105Y18553I-2100J-4039*
G01*
G75*
G02X446633Y15200I-4553*
G01*
X466063*
G75*
G02X464591Y18553I3080J3353*
G01*
G75*
G02X467043Y22592I4552*
G01*
Y27411*
X460200*
Y26024*
G75*
G02X461700Y23100I-2099J-2924*
G01*
Y23100*
G75*
G02X454500I-3600*
G01*
Y23100*
G75*
G02X456000Y26024I3599*
G01*
Y27411*
X445653*
G37*
X3400Y60600D02*
G36*
Y27411D01*
X76000*
Y32676*
G75*
G02X74500Y35600I2099J2924*
G01*
Y35600*
G75*
G02X81700I3600*
G01*
Y35600*
G75*
G02X80200Y32676I-3599*
G01*
Y27411*
X84957*
Y32230*
G75*
G02X82504Y36269I2100J4040*
G01*
G75*
G02X91609I4553*
G01*
G75*
G02X89157Y32230I-4551J-1*
G01*
Y27411*
X110547*
Y32230*
G75*
G02X108094Y36269I2100J4039*
G01*
G75*
G02X112647Y40822I4553*
G01*
G75*
G02X117200Y36269J-4553*
G01*
G75*
G02X114747Y32230I-4553*
G01*
Y27411*
X122457*
Y32230*
G75*
G02X120004Y36269I2100J4039*
G01*
G75*
G02X124557Y40822I4553*
G01*
G75*
G02X129109Y36269J-4553*
G01*
G75*
G02X126657Y32230I-4553*
G01*
Y27411*
X148047*
Y32230*
G75*
G02X145594Y36269I2100J4039*
G01*
G75*
G02X150147Y40822I4553*
G01*
G75*
G02X154700Y36269J-4553*
G01*
G75*
G02X152247Y32230I-4553*
G01*
Y27411*
X159957*
Y32230*
G75*
G02X157504Y36269I2100J4039*
G01*
G75*
G02X162057Y40822I4553*
G01*
G75*
G02X166609Y36269J-4553*
G01*
G75*
G02X164157Y32230I-4553*
G01*
Y27411*
X185547*
Y32230*
G75*
G02X183094Y36269I2100J4039*
G01*
G75*
G02X187647Y40822I4553*
G01*
G75*
G02X192200Y36269J-4553*
G01*
G75*
G02X189747Y32230I-4553*
G01*
Y27411*
X198205*
Y32230*
G75*
G02X195752Y36269I2100J4039*
G01*
G75*
G02X200305Y40822I4553*
G01*
G75*
G02X204857Y36269J-4553*
G01*
G75*
G02X202405Y32230I-4553*
G01*
Y27411*
X223795*
Y32230*
G75*
G02X221343Y36269I2100J4039*
G01*
G75*
G02X225895Y40822I4553*
G01*
G75*
G02X230448Y36269J-4553*
G01*
G75*
G02X227995Y32230I-4553*
G01*
Y27411*
X234957*
Y32230*
G75*
G02X232504Y36269I2100J4039*
G01*
G75*
G02X237057Y40822I4553*
G01*
G75*
G02X241609Y36269J-4553*
G01*
G75*
G02X239157Y32230I-4553*
G01*
Y27411*
X260547*
Y32230*
G75*
G02X258094Y36269I2100J4039*
G01*
G75*
G02X262647Y40822I4553*
G01*
G75*
G02X267200Y36269J-4553*
G01*
G75*
G02X264747Y32230I-4553*
G01*
Y27411*
X273500*
Y32230*
G75*
G02X271047Y36269I2100J4039*
G01*
G75*
G02X274954Y40776I4553*
G01*
X271527Y44204*
G75*
G02X271700Y43100I-3427J-1104*
G01*
G75*
G02X265176Y41000I-3600*
G01*
X168102*
G75*
G02X166615Y41615I-2J2101*
G01*
X159730Y48500*
X156024*
G75*
G02X149500Y50600I-2924J2100*
G01*
G75*
G02X156024Y52700I3600*
G01*
X160598*
G75*
G02X162085Y52085I2J-2101*
G01*
X168970Y45200*
X265176*
G75*
G02X265967Y46000I2930J-2105*
G01*
X265602*
G75*
G02X264115Y46615I-2J2101*
G01*
X261615Y49115*
G75*
G02X261000Y50600I1487J1485*
G01*
Y60600*
X230690*
G75*
G02X230200Y60176I-2591J2500*
G01*
Y53524*
G75*
G02X231700Y50600I-2099J-2924*
G01*
Y50600*
G75*
G02X224500I-3600*
G01*
Y50600*
G75*
G02X226000Y53524I3599*
G01*
Y60176*
G75*
G02X225510Y60600I2101J2924*
G01*
X195200*
Y53524*
G75*
G02X196700Y50600I-2099J-2924*
G01*
Y50600*
G75*
G02X189500I-3600*
G01*
Y50600*
G75*
G02X191000Y53524I3599*
G01*
Y60600*
X156700*
G75*
G02X150176Y58500I-3600*
G01*
X116024*
G75*
G02X109500Y60600I-2924J2100*
G01*
X106070*
X116470Y50200*
X123098*
G75*
G02X124585Y49585I2J-2101*
G01*
X135017Y39152*
G75*
G02X139200Y35600I582J-3553*
G01*
G75*
G02X132000I-3600*
G01*
G75*
G02Y35602I3383J1*
G01*
G75*
G02X132048Y36183I3557*
G01*
X122230Y46000*
X115602*
G75*
G02X114115Y46615I-2J2101*
G01*
X102230Y58500*
X95602*
G75*
G02X94115Y59115I-2J2101*
G01*
X92630Y60600*
X82700*
Y56470*
X97085Y42085*
G75*
G02X97700Y40600I-1487J-1485*
G01*
Y36024*
G75*
G02X99200Y33100I-2099J-2924*
G01*
Y33100*
G75*
G02X92000I-3600*
G01*
Y33100*
G75*
G02X93500Y36024I3599*
G01*
Y39730*
X79115Y54115*
G75*
G02X78500Y55600I1487J1485*
G01*
Y60600*
X74845*
G75*
G02X72995Y58824I-3950J2264*
G01*
Y58395*
G75*
G02X72380Y56910I-2102J0*
G01*
X67085Y51615*
G75*
G02X65598Y51000I-1485J1486*
G01*
X40602*
G75*
G02X39115Y51615I-2J2101*
G01*
X31615Y59115*
G75*
G02X31000Y60600I1487J1485*
G01*
X25596*
G75*
G02X15604I-4996*
G01*
X15596*
G75*
G02X5604I-4996*
G01*
X3400*
G37*
X41355D02*
G36*
X36070D01*
X41470Y55200*
X64730*
X68514Y58983*
G75*
G02X66945Y60600I2381J3881*
G01*
X49255*
G75*
G02X45305Y58311I-3950J2264*
G01*
G75*
G02X41355Y60600J4553*
G01*
G37*
X265200D02*
G36*
Y51470D01*
X266470Y50200*
X270598*
G75*
G02X272085Y49585I2J-2101*
G01*
X282517Y39152*
G75*
G02X286295Y37258I583J-3552*
G01*
Y54435*
X280130Y60600*
X275200*
Y58524*
G75*
G02X276700Y55600I-2099J-2924*
G01*
Y55600*
G75*
G02X269500I-3600*
G01*
Y55600*
G75*
G02X271000Y58524I3599*
G01*
Y60600*
X265200*
G37*
X277700Y32230D02*
G36*
Y27411D01*
X286295*
Y33942*
G75*
G02X279726Y34345I-3195J1659*
G01*
G75*
G02X277700Y32230I-4126J1924*
G01*
G37*
X286070Y60600D02*
G36*
X287250Y59419D01*
G75*
G02X288009Y60600I3351J-1320*
G01*
X286070*
G37*
X290495Y54502D02*
G36*
Y38085D01*
G75*
G02X293683Y39152I2605J-2486*
G01*
X299115Y44585*
G75*
G02X300602Y45200I1485J-1486*
G01*
X305967*
G75*
G02X304500Y48100I2135J2901*
G01*
G75*
G02X311700I3600*
G01*
G75*
G02Y48096I-3698J-2*
G01*
G75*
G02X311678Y47700I-3508*
G01*
X339730*
X349204Y57173*
G75*
G02X344500Y60600I-1104J3427*
G01*
X336700*
G75*
G02X332517Y57048I-3600*
G01*
X329585Y54115*
G75*
G02X328098Y53500I-1485J1486*
G01*
X293102*
G75*
G02X291615Y54115I-2J2101*
G01*
X291183Y54548*
G75*
G02X290495Y54502I-585J3583*
G01*
G37*
X293190Y60600D02*
G36*
G75*
G02X294200Y58100I-2591J-2500D01*
G01*
G75*
G02Y58096I-3698J-2*
G01*
G75*
G02X294178Y57700I-3508*
G01*
X327230*
X329548Y60017*
G75*
G02X329500Y60598I3510J580*
G01*
G75*
G02Y60600I3383J1*
G01*
X293190*
G37*
X378291Y32230D02*
G36*
Y27411D01*
X403205*
Y32230*
G75*
G02X400752Y36269I2100J4039*
G01*
G75*
G02X405305Y40822I4553*
G01*
G75*
G02X409857Y36269J-4553*
G01*
G75*
G02X407405Y32230I-4553*
G01*
Y27411*
X428795*
Y32230*
G75*
G02X426343Y36269I2100J4039*
G01*
G75*
G02X432267Y40611I4553*
G01*
X436000Y44344*
Y60600*
X407901*
X388916Y41615*
G75*
G02X388850Y41553I-1293J1293*
G01*
G75*
G02X382700Y40967I-3250J1547*
G01*
Y40679*
G75*
G02X382085Y39194I-2102J0*
G01*
X380532Y37641*
G75*
G02X380743Y36269I-4341J-1371*
G01*
G75*
G02X378291Y32230I-4552*
G01*
G37*
X382700Y60600D02*
G36*
Y45233D01*
G75*
G02X387511Y46151I2900J-2133*
G01*
X401961Y60600*
X382700*
G37*
X432995Y32230D02*
G36*
Y27411D01*
X441453*
Y32230*
G75*
G02X439000Y36269I2100J4039*
G01*
G75*
G02X443553Y40822I4553*
G01*
G75*
G02X448106Y36269J-4553*
G01*
G75*
G02X445653Y32230I-4553*
G01*
Y27411*
X456000*
Y60600*
X440200*
Y43474*
G75*
G02X439585Y41989I-2102J0*
G01*
X435237Y37641*
G75*
G02X435448Y36269I-4341J-1371*
G01*
G75*
G02X432995Y32230I-4552*
G01*
G37*
X460200Y60600D02*
G36*
Y27411D01*
X467043*
Y32230*
G75*
G02X464591Y36269I2100J4039*
G01*
G75*
G02X469143Y40822I4553*
G01*
G75*
G02X473696Y36269J-4553*
G01*
G75*
G02X471243Y32230I-4553*
G01*
Y27411*
X481453*
Y32230*
G75*
G02X479000Y36269I2100J4040*
G01*
G75*
G02X488106I4553*
G01*
G75*
G02X485653Y32230I-4551J-1*
G01*
Y27411*
X507043*
Y32230*
G75*
G02X504591Y36269I2100J4040*
G01*
G75*
G02X513696I4553*
G01*
G75*
G02X511243Y32230I-4553J0*
G01*
Y27411*
X526748*
Y32919*
G75*
G02X524295Y36958I2100J4040*
G01*
G75*
G02X533401I4553*
G01*
G75*
G02Y36957I-5013J0*
G01*
G75*
G02X530948Y32919I-4551*
G01*
Y27411*
X552339*
Y32919*
G75*
G02X549886Y36958I2100J4039*
G01*
G75*
G02X554439Y41511I4553*
G01*
G75*
G02X554582Y41509I-37J-6614*
G01*
X557043Y43970*
Y60600*
X460200*
G37*
X556539Y32919D02*
G36*
Y27411D01*
X587602*
Y60600*
X585596*
G75*
G02X575604I-4996*
G01*
X575596*
G75*
G02X565604I-4996*
G01*
X561243*
Y43100*
G75*
G02X560628Y41615I-2102J0*
G01*
X558332Y39319*
G75*
G02X558991Y36958I-3894J-2360*
G01*
G75*
G02X556539Y32919I-4553*
G01*
G37*
X3400Y65679D02*
G36*
Y60600D01*
X5604*
G75*
G02X15596I4996*
G01*
X15604*
G75*
G02X25596I4996*
G01*
X31000*
Y65679*
X21459*
G75*
G02X19741I-859J4922*
G01*
X11459*
G75*
G02X9741I-859J4922*
G01*
X3400*
G37*
X35200D02*
G36*
Y61470D01*
X36070Y60600*
X41355*
G75*
G02X40752Y62864I3950J2264*
G01*
G75*
G02X41727Y65679I4553J0*
G01*
X35200*
G37*
X49857Y62864D02*
G36*
G75*
G02X49255Y60600I-4553D01*
G01*
X66945*
G75*
G02X66343Y62864I3950J2263*
G01*
G75*
G02X67317Y65679I4552J0*
G01*
X48883*
G75*
G02X49857Y62864I-3578J-2815*
G01*
G37*
X75448D02*
G36*
G75*
G02X74845Y60600I-4553D01*
G01*
X78500*
Y65679*
X74474*
G75*
G02X75448Y62864I-3578J-2815*
G01*
G37*
X82700Y65679D02*
G36*
Y60600D01*
X92630*
X91615Y61615*
G75*
G02X91000Y63100I1487J1485*
G01*
Y65679*
X82700*
G37*
X104222Y63579D02*
G36*
G75*
G02X103624Y62633I-4378J2105D01*
G01*
G75*
G02X104585Y62085I-525J-2036*
G01*
X106070Y60600*
X109500*
G75*
G02X111078Y63579I3600*
G01*
X104222*
G37*
X156700Y60600D02*
G36*
X191000D01*
Y62676*
G75*
G02X189500Y65600I2099J2924*
G01*
Y65600*
G75*
G02X189501Y65679I3601J4*
G01*
X180448*
G75*
G02X171230Y63579I-4848*
G01*
X155122*
G75*
G02X156700Y60600I-2022J-2979*
G01*
G37*
X195200Y62676D02*
G36*
Y60600D01*
X225510*
G75*
G02X224500Y63100I2591J2500*
G01*
G75*
G02X225588Y65679I3600*
G01*
X218696*
G75*
G02X209000I-4848*
G01*
X196699*
G75*
G02X196700Y65600I-3600J-75*
G01*
Y65600*
G75*
G02X195200Y62676I-3599*
G01*
G37*
X231700Y63100D02*
G36*
G75*
G02X230690Y60600I-3600D01*
G01*
X261000*
Y65679*
X257200*
G75*
G02X247504I-4848*
G01*
X230612*
G75*
G02X231700Y63100I-2512J-2579*
G01*
G37*
X265200Y65679D02*
G36*
Y60600D01*
X271000*
Y62230*
X267552Y65679*
X265200*
G37*
X273491D02*
G36*
X274585Y64585D01*
G75*
G02X275200Y63100I-1487J-1485*
G01*
Y60600*
X280130*
X279115Y61615*
G75*
G02X278500Y63100I1487J1485*
G01*
Y65679*
X273491*
G37*
X282700D02*
G36*
Y63970D01*
X286070Y60600*
X288009*
G75*
G02X288256Y60833I2592J-2502*
G01*
G75*
G02X283547Y65679I139J4846*
G01*
X282700*
G37*
X291112Y61663D02*
G36*
G75*
G02X293190Y60600I-512J-3564D01*
G01*
X329500*
G75*
G02X331078Y63579I3600*
G01*
X330265*
G75*
G02X321047Y65679I-4370J2100*
G01*
X316700*
G75*
G02X309500I-3600*
G01*
X293243*
Y65678*
G75*
G02X291112Y61663I-4847*
G01*
G37*
X336700Y60600D02*
G36*
X344500D01*
G75*
G02X346000Y63524I3600*
G01*
Y65679*
X341700*
G75*
G02X335965Y62781I-3600*
G01*
G75*
G02X336700Y60600I-2865J-2181*
G01*
G37*
X382700Y65679D02*
G36*
Y60600D01*
X401961*
X407039Y65679*
X382700*
G37*
X412980D02*
G36*
X407901Y60600D01*
X436000*
Y65679*
X424700*
G75*
G02X415004I-4848*
G01*
X412980*
G37*
X440200D02*
G36*
Y60600D01*
X456000*
Y61309*
G75*
G02X453252Y65679I2100J4370*
G01*
X440200*
G37*
X460200Y61309D02*
G36*
Y60600D01*
X557043*
Y65679*
X536149*
X534664Y64194*
G75*
G02X533176Y63579I-1485J1486*
G01*
X502470*
G75*
G02X493730I-4370J2100*
G01*
X462470*
G75*
G02X460200Y61309I-4373J2103*
G01*
G37*
X561243Y65679D02*
G36*
Y60600D01*
X565604*
G75*
G02X575596I4996*
G01*
X575604*
G75*
G02X585596I4996*
G01*
X587602*
Y65679*
X581459*
G75*
G02X579741I-859J4922*
G01*
X571459*
G75*
G02X569741I-859J4922*
G01*
X561243*
G37*
X3400Y70600D02*
G36*
Y65679D01*
X9741*
G75*
G02X5604Y70600I859J4921*
G01*
X3400*
G37*
X15596D02*
G36*
G75*
G02X11459Y65679I-4996D01*
G01*
X19741*
G75*
G02X15604Y70600I859J4921*
G01*
X15596*
G37*
X25596D02*
G36*
G75*
G02X21459Y65679I-4996D01*
G01*
X31000*
Y70600*
X25596*
G37*
X35200D02*
G36*
Y65679D01*
X41727*
G75*
G02X43205Y66903I3578J-2815*
G01*
Y70600*
X35200*
G37*
X47405D02*
G36*
Y66903D01*
G75*
G02X48883Y65679I-2100J-4039*
G01*
X67317*
G75*
G02X68795Y66903I3578J-2815*
G01*
Y70600*
X47405*
G37*
X72995D02*
G36*
Y66903D01*
G75*
G02X74474Y65679I-2100J-4040*
G01*
X78500*
Y70600*
X72995*
G37*
X82700D02*
G36*
Y65679D01*
X91000*
Y70600*
X82700*
G37*
X180195Y67225D02*
G36*
G75*
G02X180448Y65679I-4595J-1546D01*
G01*
X189501*
G75*
G02X196699I3599J-79*
G01*
X209000*
G75*
G02X209273Y67283I4857J-2*
G01*
X205957Y70600*
X183570*
X180195Y67225*
G37*
X218687Y65980D02*
G36*
G75*
G02X218696Y65679I-4812J-302D01*
G01*
X225588*
G75*
G02X225941Y65980I2512J-2579*
G01*
X218687*
G37*
X222700Y70600D02*
G36*
Y70220D01*
X250654*
G75*
G02X257200Y65679I1698J-4541*
G01*
X261000*
Y68904*
X259304Y70600*
X222700*
G37*
X230259Y65980D02*
G36*
G75*
G02X230612Y65679I-2160J-2880D01*
G01*
X247504*
G75*
G02X247513Y65980I4822*
G01*
X230259*
G37*
X265200Y68030D02*
G36*
Y65679D01*
X267552*
X265200Y68030*
G37*
X270509Y70600D02*
G36*
X268570D01*
X273491Y65679*
X278500*
Y70600*
X275691*
G75*
G02X270509I-2591J2500*
G01*
G37*
X282700D02*
G36*
Y65679D01*
X283547*
G75*
G02X293243I4848*
G01*
X309500*
Y65679*
G75*
G02X311000Y68603I3599*
G01*
Y70600*
X282700*
G37*
X315200D02*
G36*
Y68603D01*
G75*
G02X316700Y65679I-2099J-2924*
G01*
Y65679*
X321047*
G75*
G02X330265Y67779I4848J0*
G01*
X335176*
G75*
G02X341700Y65679I2924J-2100*
G01*
X346000*
Y70600*
X315200*
G37*
X382700Y68467D02*
G36*
Y65679D01*
X407039*
X411961Y70600*
X404200*
G75*
G02X397676Y68500I-3600*
G01*
X388524*
G75*
G02X382700Y68467I-2924J2100*
G01*
G37*
X412980Y65679D02*
G36*
X415004D01*
G75*
G02X424700I4848*
G01*
X436000*
Y70600*
X417901*
X412980Y65679*
G37*
X440200Y70600D02*
G36*
Y65679D01*
X453252*
G75*
G02X454157Y68500I4848*
G01*
X448524*
G75*
G02X442000Y70600I-2924J2100*
G01*
X440200*
G37*
X462043Y68500D02*
G36*
G75*
G02X462470Y67779I-3979J-2844D01*
G01*
X493730*
G75*
G02X502470I4370J-2100*
G01*
X532309*
X535130Y70600*
X486070*
X484585Y69115*
G75*
G02X483098Y68500I-1485J1486*
G01*
X462043*
G37*
X541070Y70600D02*
G36*
X536149Y65679D01*
X557043*
Y70600*
X541070*
G37*
X561243D02*
G36*
Y65679D01*
X569741*
G75*
G02X565604Y70600I859J4921*
G01*
X561243*
G37*
X575596D02*
G36*
G75*
G02X571459Y65679I-4996D01*
G01*
X579741*
G75*
G02X575604Y70600I859J4921*
G01*
X575596*
G37*
X585596D02*
G36*
G75*
G02X581459Y65679I-4996D01*
G01*
X587602*
Y70600*
X585596*
G37*
X3400Y75521D02*
G36*
Y70600D01*
X5604*
G75*
G02X9741Y75521I4996*
G01*
X3400*
G37*
X11459D02*
G36*
G75*
G02X15596Y70600I-859J-4921D01*
G01*
X15604*
G75*
G02X19741Y75521I4996*
G01*
X11459*
G37*
X21459D02*
G36*
G75*
G02X25596Y70600I-859J-4921D01*
G01*
X31000*
Y75521*
X21459*
G37*
X35200D02*
G36*
Y70600D01*
X43205*
Y75521*
X35200*
G37*
X47405D02*
G36*
Y70600D01*
X68795*
Y75521*
X47405*
G37*
X72995D02*
G36*
Y70600D01*
X78500*
Y75521*
X72995*
G37*
X82700D02*
G36*
Y70600D01*
X91000*
Y75521*
X82700*
G37*
X183970Y71000D02*
G36*
X183570Y70600D01*
X205957*
X205557Y71000*
X183970*
G37*
X222700Y75521D02*
G36*
Y70600D01*
X259304*
X256641Y73262*
G75*
G02X247504Y75521I-4289J2259*
G01*
X235612*
G75*
G02X230588I-2512J2579*
G01*
X222700*
G37*
X263648D02*
G36*
X268570Y70600D01*
X270509*
G75*
G02X269500Y73100I2591J2500*
G01*
G75*
G02Y73101I3759J0*
G01*
G75*
G02X270330Y75400I3598*
G01*
X270209Y75521*
X263648*
G37*
X276700Y73100D02*
G36*
G75*
G02X275691Y70600I-3600J0D01*
G01*
X278500*
Y73021*
G75*
G02X279115Y74506I2102J0*
G01*
X280130Y75521*
X275764*
G75*
G02X276700Y73100I-2664J-2422*
G01*
G37*
X282700Y72152D02*
G36*
Y70600D01*
X311000*
Y75521*
X293243*
G75*
G02X284026Y73421I-4848J0*
G01*
X283970*
X282700Y72152*
G37*
X315200Y75521D02*
G36*
Y70600D01*
X346000*
Y75521*
X330743*
G75*
G02X321047I-4848*
G01*
X315200*
G37*
X403098Y73500D02*
G36*
X402733D01*
G75*
G02X404200Y70600I-2135J-2901*
G01*
X411961*
X415277Y73917*
G75*
G02X415004Y75521I4574J1604*
G01*
X405991*
X404585Y74115*
G75*
G02X403098Y73500I-1485J1486*
G01*
G37*
X418247Y70946D02*
G36*
X417901Y70600D01*
X436000*
Y75521*
X424700*
G75*
G02X418247Y70946I-4848*
G01*
G37*
X440200Y75521D02*
G36*
Y70600D01*
X442000*
G75*
G02X448524Y72700I3600*
G01*
X454157*
G75*
G02X453252Y75521I3942J2821*
G01*
X440200*
G37*
X462948D02*
G36*
G75*
G02X462043Y72700I-4848D01*
G01*
X482230*
X483500Y73970*
Y75521*
X462948*
G37*
X487085Y71615D02*
G36*
X486070Y70600D01*
X535130*
X540052Y75521*
X502948*
G75*
G02X493252I-4848*
G01*
X487700*
Y73100*
G75*
G02X487085Y71615I-2102J0*
G01*
G37*
X544585Y74115D02*
G36*
X541070Y70600D01*
X557043*
Y75521*
X556699*
G75*
G02X549501I-3599J79*
G01*
X545198*
G75*
G02X544585Y74115I-2100J79*
G01*
G37*
X561243Y75521D02*
G36*
Y70600D01*
X565604*
G75*
G02X569741Y75521I4996*
G01*
X561243*
G37*
X571459D02*
G36*
G75*
G02X575596Y70600I-859J-4921D01*
G01*
X575604*
G75*
G02X579741Y75521I4996*
G01*
X571459*
G37*
X581459D02*
G36*
G75*
G02X585596Y70600I-859J-4921D01*
G01*
X587602*
Y75521*
X581459*
G37*
X3400Y80600D02*
G36*
Y75521D01*
X9741*
G75*
G02X11459I859J-4922*
G01*
X19741*
G75*
G02X21459I859J-4922*
G01*
X31000*
Y80600*
X25596*
G75*
G02X15604I-4996*
G01*
X15596*
G75*
G02X5604I-4996*
G01*
X3400*
G37*
X35200D02*
G36*
Y75521D01*
X43205*
Y76541*
G75*
G02X40752Y80580I2100J4040*
G01*
G75*
G02Y80600I4566J10*
G01*
X35200*
G37*
X47405Y76541D02*
G36*
Y75521D01*
X68795*
Y76541*
G75*
G02X66343Y80580I2100J4039*
G01*
G75*
G02Y80600I4566J10*
G01*
X49857*
G75*
G02Y80580I-4566J-10*
G01*
G75*
G02X47405Y76541I-4551J-1*
G01*
G37*
X72995D02*
G36*
Y75521D01*
X78500*
Y80600*
X75448*
G75*
G02Y80580I-4566J-10*
G01*
G75*
G02X72995Y76541I-4553*
G01*
G37*
X82700Y80600D02*
G36*
Y75521D01*
X91000*
Y80600*
X82700*
G37*
X222700D02*
G36*
Y75521D01*
X230588*
G75*
G02X229500Y78100I2512J2579*
G01*
G75*
G02X230120Y80120I3600*
G01*
G75*
G02X225509Y80600I-2020J2980*
G01*
X222700*
G37*
X236024Y76000D02*
G36*
G75*
G02X235612Y75521I-2924J2101D01*
G01*
X247504*
G75*
G02X248527Y78500I4848J0*
G01*
X243970*
X242085Y76615*
G75*
G02X240598Y76000I-1485J1486*
G01*
X236024*
G37*
X258570Y80600D02*
G36*
X263648Y75521D01*
X270209*
X265130Y80600*
X258570*
G37*
X271070D02*
G36*
X274585Y77085D01*
G75*
G02X275149Y76060I-1484J-1484*
G01*
G75*
G02X275764Y75521I-2049J-2960*
G01*
X280130*
X281615Y77006*
G75*
G02X283102Y77621I1485J-1486*
G01*
X284026*
G75*
G02X293243Y75521I4370J-2100*
G01*
X311000*
Y80600*
X309200*
G75*
G02X302000I-3600*
G01*
X271070*
G37*
X315200D02*
G36*
Y75521D01*
X321047*
G75*
G02X330743I4848*
G01*
X346000*
Y80176*
G75*
G02X345509Y80600I2099J2924*
G01*
X315200*
G37*
X392700D02*
G36*
Y78970D01*
X393970Y77700*
X402230*
X405130Y80600*
X392700*
G37*
X411070D02*
G36*
X405991Y75521D01*
X415004*
Y75522*
G75*
G02X417752Y79891I4848*
G01*
Y80600*
X411070*
G37*
X421952D02*
G36*
Y79891D01*
G75*
G02X424700Y75521I-2100J-4370*
G01*
X436000*
Y79730*
X435130Y80600*
X421952*
G37*
X440200D02*
G36*
Y75521D01*
X453252*
G75*
G02X456000Y79891I4848*
G01*
Y80600*
X440200*
G37*
X460200D02*
G36*
Y79891D01*
G75*
G02X462948Y75521I-2100J-4370*
G01*
X483500*
Y80600*
X469200*
G75*
G02X462000I-3600*
G01*
X460200*
G37*
X487700D02*
G36*
Y75521D01*
X493252*
G75*
G02X502948I4848*
G01*
X540052*
X541000Y76470*
Y80600*
X487700*
G37*
X545200Y75600D02*
G36*
G75*
G02X545198Y75521I-2102J3D01*
G01*
X549501*
G75*
G02X549500Y75600I3600J75*
G01*
Y75600*
G75*
G02X551000Y78524I3599*
G01*
Y80600*
X545200*
Y75600*
G37*
X555200Y80600D02*
G36*
Y78524D01*
G75*
G02X556700Y75600I-2099J-2924*
G01*
Y75600*
G75*
G02X556699Y75521I-3601J-4*
G01*
X557043*
Y80600*
X555200*
G37*
X561243D02*
G36*
Y75521D01*
X569741*
G75*
G02X571459I859J-4922*
G01*
X579741*
G75*
G02X581459I859J-4922*
G01*
X587602*
Y80600*
X585596*
G75*
G02X575604I-4996*
G01*
X575596*
G75*
G02X565604I-4996*
G01*
X561243*
G37*
X3400Y90600D02*
G36*
Y80600D01*
X5604*
G75*
G02X15596I4996*
G01*
X15604*
G75*
G02X25596I4996*
G01*
X31000*
Y90600*
X25596*
G75*
G02X15604I-4996*
G01*
X15596*
G75*
G02X5604I-4996*
G01*
X3400*
G37*
X35200D02*
G36*
Y80600D01*
X40752*
G75*
G02X49857I4553J-20*
G01*
X66343*
G75*
G02X70895Y85133I4553J-20*
G01*
G75*
G02X75448Y80600J-4553*
G01*
X78500*
Y87230*
X75130Y90600*
X35200*
G37*
X81070D02*
G36*
X82085Y89585D01*
G75*
G02X82700Y88100I-1487J-1485*
G01*
Y80600*
X91000*
Y90600*
X81070*
G37*
X222700Y90508D02*
G36*
Y80600D01*
X225509*
G75*
G02X224500Y83100I2591J2500*
G01*
G75*
G02X226051Y86060I3600*
G01*
G75*
G02X226615Y87085I2048J-459*
G01*
X229115Y89585*
G75*
G02X230602Y90200I1485J-1486*
G01*
X248800*
G75*
G02X248163Y90600I2096J4042*
G01*
X228037*
G75*
G02X225305Y89689I-2732J3642*
G01*
G75*
G02X222700Y90508I-1J4549*
G01*
G37*
X242733Y86000D02*
G36*
G75*
G02X243524Y85200I-2139J-2905D01*
G01*
X265598*
G75*
G02X267085Y84585I2J-2101*
G01*
X271070Y80600*
X302000*
G75*
G02Y80602I3383J1*
G01*
G75*
G02X302048Y81183I3557*
G01*
X297230Y86000*
X242733*
G37*
X253628Y90600D02*
G36*
G75*
G02X252991Y90200I-2732J3642D01*
G01*
X261274*
G75*
G02X260637Y90600I2096J4042*
G01*
X253628*
G37*
X258170Y81000D02*
G36*
X258570Y80600D01*
X265130*
X264730Y81000*
X258170*
G37*
X266102Y90600D02*
G36*
G75*
G02X265465Y90200I-2732J3642D01*
G01*
X286864*
G75*
G02X286228Y90600I2096J4042*
G01*
X266102*
G37*
X291692D02*
G36*
G75*
G02X291056Y90200I-2732J3642D01*
G01*
X298098*
G75*
G02X299585Y89585I2J-2101*
G01*
X305017Y84152*
G75*
G02X309200Y80600I582J-3553*
G01*
X311000*
Y90600*
X303602*
G75*
G02X300869Y89689I-2732J3642*
G01*
G75*
G02X298137Y90600J4553*
G01*
X291692*
G37*
X315200D02*
G36*
Y80600D01*
X345509*
G75*
G02X344500Y83100I2590J2500*
G01*
Y83100*
G75*
G02X351000Y85233I3600*
G01*
Y87676*
G75*
G02X349500Y90600I2100J2924*
G01*
X349200*
G75*
G02X345017Y87048I-3600*
G01*
X344152Y86183*
G75*
G02X344200Y85602I-3510J-580*
G01*
G75*
G02Y85600I-3383J-1*
G01*
G75*
G02X337000I-3600*
G01*
G75*
G02X341183Y89152I3600J0*
G01*
X342048Y90017*
G75*
G02X342000Y90598I3510J580*
G01*
G75*
G02Y90600I3383J1*
G01*
X329193*
G75*
G02X323727I-2733J3642*
G01*
X315200*
G37*
X382700D02*
G36*
Y85233D01*
G75*
G02X383500Y86024I2905J-2139*
G01*
Y90600*
X382700*
G37*
X392700Y90176D02*
G36*
Y80600D01*
X405130*
X411000Y86470*
Y90600*
X408332*
G75*
G02X405600Y89689I-2732J3642*
G01*
G75*
G02X402868Y90600J4553*
G01*
X393191*
G75*
G02X392700Y90176I-2590J2500*
G01*
G37*
X414585Y84115D02*
G36*
X411070Y80600D01*
X417752*
Y90600*
X415200*
Y85600*
G75*
G02X414585Y84115I-2102J0*
G01*
G37*
X421952Y90600D02*
G36*
Y80600D01*
X435130*
X429706Y86024*
G75*
G02X429091Y87509I1487J1485*
G01*
Y90202*
G75*
G02X428458Y90600I2100J4041*
G01*
X421952*
G37*
X433291Y90202D02*
G36*
Y88379D01*
X439585Y82085*
G75*
G02X440200Y80600I-1487J-1485*
G01*
X456000*
Y90600*
X448332*
G75*
G02X445600Y89689I-2732J3642*
G01*
G75*
G02X442868Y90600J4553*
G01*
X433923*
G75*
G02X433291Y90202I-2732J3643*
G01*
G37*
X460200Y90600D02*
G36*
Y80600D01*
X462000*
Y80600*
G75*
G02X463500Y83524I3599*
G01*
Y90600*
X460200*
G37*
X467700D02*
G36*
Y83524D01*
G75*
G02X469200Y80600I-2099J-2924*
G01*
Y80600*
X483500*
Y90600*
X473923*
G75*
G02X471191Y89689I-2732J3642*
G01*
G75*
G02X468458Y90600I0J4554*
G01*
X467700*
G37*
X487700D02*
G36*
Y80600D01*
X541000*
Y90600*
X531580*
G75*
G02X528848Y89689I-2732J3642*
G01*
G75*
G02X526116Y90600J4553*
G01*
X487700*
G37*
X545200Y85967D02*
G36*
Y80600D01*
X551000*
Y82230*
X548683Y84548*
G75*
G02X545200Y85967I-582J3554*
G01*
G37*
Y90600D02*
G36*
Y90233D01*
G75*
G02X545510Y90600I2900J-2135*
G01*
X545200*
G37*
X550690D02*
G36*
G75*
G02X551700Y88100I-2590J-2500D01*
G01*
G75*
G02Y88098I-3383J-1*
G01*
G75*
G02X551652Y87517I-3557*
G01*
X554585Y84585*
G75*
G02X555200Y83100I-1487J-1485*
G01*
Y80600*
X557043*
Y88667*
X555810Y89900*
G75*
G02X551706Y90600I-1371J4341*
G01*
X550690*
G37*
X561243Y89537D02*
G36*
Y80600D01*
X565604*
G75*
G02X575596I4996*
G01*
X575604*
G75*
G02X585596I4996*
G01*
X587602*
Y90600*
X585596*
G75*
G02X575604I-4996*
G01*
X575596*
G75*
G02X565604I-4996*
G01*
X560954*
G75*
G02X561243Y89537I-1813J-1063*
G01*
G37*
X3400Y100600D02*
G36*
Y90600D01*
X5604*
G75*
G02X15596I4996*
G01*
X15604*
G75*
G02X25596I4996*
G01*
X31000*
Y100600*
X25596*
G75*
G02X15604I-4996*
G01*
X15596*
G75*
G02X5604I-4996*
G01*
X3400*
G37*
X35200D02*
G36*
Y90600D01*
X75130*
X73683Y92048*
G75*
G02X69500Y95600I-582J3553*
G01*
G75*
G02X76700I3600*
G01*
G75*
G02Y95598I-3383J-1*
G01*
G75*
G02X76652Y95017I-3557*
G01*
X81070Y90600*
X91000*
Y100600*
X35200*
G37*
X227405D02*
G36*
Y98281D01*
G75*
G02X229857Y94242I-2100J-4039*
G01*
G75*
G02X228037Y90600I-4553*
G01*
X248163*
G75*
G02X246343Y94242I2732J3642*
G01*
G75*
G02X248795Y98281I4553*
G01*
Y100600*
X227405*
G37*
X252995D02*
G36*
Y98281D01*
G75*
G02X255448Y94242I-2100J-4039*
G01*
G75*
G02X253628Y90600I-4553*
G01*
X260637*
G75*
G02X258817Y94242I2732J3642*
G01*
G75*
G02X261269Y98281I4553*
G01*
Y100600*
X252995*
G37*
X265469D02*
G36*
Y98281D01*
G75*
G02X267922Y94242I-2100J-4039*
G01*
G75*
G02X266102Y90600I-4553*
G01*
X286228*
G75*
G02X284407Y94242I2732J3642*
G01*
G75*
G02X286860Y98281I4553*
G01*
Y100600*
X275200*
Y98524*
G75*
G02X276700Y95600I-2099J-2924*
G01*
Y95600*
G75*
G02X269500I-3600*
G01*
Y95600*
G75*
G02X271000Y98524I3599*
G01*
Y100600*
X265469*
G37*
X291060D02*
G36*
Y98281D01*
G75*
G02X293513Y94242I-2100J-4039*
G01*
G75*
G02X291692Y90600I-4553*
G01*
X298137*
G75*
G02X296317Y94242I2732J3642*
G01*
G75*
G02X298769Y98281I4553*
G01*
Y100600*
X291060*
G37*
X302969D02*
G36*
Y98281D01*
G75*
G02X305422Y94242I-2100J-4039*
G01*
G75*
G02X303602Y90600I-4553*
G01*
X311000*
Y100600*
X302969*
G37*
X315200D02*
G36*
Y90600D01*
X323727*
G75*
G02X321907Y94242I2733J3642*
G01*
G75*
G02Y94243I5013J0*
G01*
G75*
G02X324360Y98281I4551*
G01*
Y100600*
X315200*
G37*
X328560D02*
G36*
Y98281D01*
G75*
G02X329421Y97700I-2083J-4015*
G01*
X376956*
G75*
G02X378443Y97085I2J-2101*
G01*
X382085Y93443*
G75*
G02X382700Y91958I-1487J-1485*
G01*
Y90600*
X383500*
Y100600*
X383191*
G75*
G02X378009I-2591J2500*
G01*
X328560*
G37*
X330952Y93500D02*
G36*
G75*
G02X329193Y90600I-4492J742D01*
G01*
X342000*
Y90600*
G75*
G02X343467Y93500I3599*
G01*
X330952*
G37*
X349200Y90600D02*
G36*
X349500D01*
G75*
G02X350967Y93500I3600*
G01*
X347733*
G75*
G02X349200Y90600I-2133J-2900*
G01*
G37*
X387700Y100600D02*
G36*
Y95233D01*
G75*
G02X394200Y93100I2900J-2133*
G01*
Y93100*
G75*
G02X393191Y90600I-3599*
G01*
X402868*
G75*
G02X401047Y94242I2732J3642*
G01*
G75*
G02X403500Y98281I4553*
G01*
Y100600*
X387700*
G37*
X407700D02*
G36*
Y98281D01*
G75*
G02X410153Y94242I-2100J-4039*
G01*
G75*
G02X408332Y90600I-4553*
G01*
X411000*
Y100600*
X407700*
G37*
X415200D02*
G36*
Y90600D01*
X417752*
Y100600*
X415200*
G37*
X421952D02*
G36*
Y90600D01*
X428458*
G75*
G02X426638Y94242I2732J3642*
G01*
G75*
G02X429091Y98281I4552*
G01*
Y100600*
X421952*
G37*
X433291D02*
G36*
Y98281D01*
G75*
G02X435743Y94242I-2100J-4039*
G01*
G75*
G02X433923Y90600I-4552*
G01*
X442868*
G75*
G02X441047Y94242I2732J3642*
G01*
G75*
G02X443500Y98281I4553*
G01*
Y100600*
X433291*
G37*
X447700D02*
G36*
Y98281D01*
G75*
G02X450153Y94242I-2100J-4039*
G01*
G75*
G02X448332Y90600I-4553*
G01*
X456000*
Y97676*
G75*
G02X454500Y100600I2099J2924*
G01*
Y100600*
X447700*
G37*
X460200Y97676D02*
G36*
Y90600D01*
X463500*
Y100600*
X461700*
Y100600*
G75*
G02X460200Y97676I-3599*
G01*
G37*
X467700Y91319D02*
G36*
Y90600D01*
X468458*
G75*
G02X467700Y91319I2733J3642*
G01*
G37*
Y100600D02*
G36*
Y97165D01*
G75*
G02X469091Y98281I3489J-2920*
G01*
Y100600*
X467700*
G37*
X473291D02*
G36*
Y98281D01*
G75*
G02X475743Y94242I-2100J-4039*
G01*
G75*
G02X473923Y90600I-4553*
G01*
X483500*
Y100600*
X473291*
G37*
X487700D02*
G36*
Y90600D01*
X526116*
G75*
G02X524295Y94242I2732J3642*
G01*
G75*
G02X526748Y98281I4553*
G01*
Y100600*
X487700*
G37*
X530948D02*
G36*
Y98281D01*
G75*
G02X533401Y94242I-2100J-4039*
G01*
G75*
G02X531580Y90600I-4553*
G01*
X541000*
Y100600*
X530948*
G37*
X545200D02*
G36*
Y90600D01*
X545510*
G75*
G02X550690I2590J-2500*
G01*
X551706*
G75*
G02X549886Y94242I2732J3642*
G01*
G75*
G02X552339Y98281I4553*
G01*
Y100600*
X545200*
G37*
X556539D02*
G36*
Y98281D01*
G75*
G02X558991Y94242I-2099J-4039*
G01*
G75*
G02X558780Y92870I-4552J0*
G01*
X560628Y91022*
G75*
G02X560954Y90600I-1487J-1485*
G01*
X565604*
G75*
G02X575596I4996*
G01*
X575604*
G75*
G02X585596I4996*
G01*
X587602*
Y100600*
X585596*
G75*
G02X575604I-4996*
G01*
X575596*
G75*
G02X565604I-4996*
G01*
X556539*
G37*
X3400Y110600D02*
G36*
Y100600D01*
X5604*
G75*
G02X15596I4996*
G01*
X15604*
G75*
G02X25596I4996*
G01*
X31000*
Y110600*
X25596*
G75*
G02X15604I-4996*
G01*
X15596*
G75*
G02X5604I-4996*
G01*
X3400*
G37*
X35200D02*
G36*
Y100600D01*
X91000*
Y110600*
X35200*
G37*
X227405Y107919D02*
G36*
Y100600D01*
X248795*
Y107919*
G75*
G02X246550Y110600I2100J4039*
G01*
X229650*
G75*
G02X227405Y107919I-4346J1359*
G01*
G37*
X252995D02*
G36*
Y100600D01*
X261269*
Y107919*
G75*
G02X259024Y110600I2100J4039*
G01*
X255241*
G75*
G02X252995Y107919I-4345J1358*
G01*
G37*
X265469D02*
G36*
Y100600D01*
X271000*
Y110600*
X267715*
G75*
G02X265469Y107919I-4345J1358*
G01*
G37*
X275200Y110600D02*
G36*
Y100600D01*
X286860*
Y107919*
G75*
G02X284615Y110600I2100J4039*
G01*
X275200*
G37*
X291060Y107919D02*
G36*
Y100600D01*
X298769*
Y107919*
G75*
G02X296524Y110600I2100J4040*
G01*
X293305*
G75*
G02X291060Y107919I-4345J1358*
G01*
G37*
X302969D02*
G36*
Y100600D01*
X311000*
Y110600*
X305215*
G75*
G02X302969Y107919I-4346J1359*
G01*
G37*
X315200Y110600D02*
G36*
Y100600D01*
X324360*
Y107919*
G75*
G02X322115Y110600I2100J4039*
G01*
X315200*
G37*
X328560Y107919D02*
G36*
Y100600D01*
X378009*
G75*
G02X377676Y101000I2591J2499*
G01*
X365602*
G75*
G02X364115Y101615I-2J2101*
G01*
X355130Y110600*
X330805*
G75*
G02X328560Y107919I-4345J1358*
G01*
G37*
X383191Y100600D02*
G36*
X383500D01*
Y100967*
G75*
G02X383191Y100600I-2900J2132*
G01*
G37*
X387700Y103467D02*
G36*
Y100600D01*
X403500*
Y103467*
G75*
G02X397676Y103500I-2900J2133*
G01*
X393524*
G75*
G02X387700Y103467I-2924J2100*
G01*
G37*
Y110600D02*
G36*
Y107733D01*
G75*
G02X393524Y107700I2900J-2133*
G01*
X397676*
G75*
G02X402405Y108715I2924J-2101*
G01*
G75*
G02X401254Y110600I3195J3244*
G01*
X387700*
G37*
X407700Y107919D02*
G36*
Y100600D01*
X411000*
Y102676*
G75*
G02X409500Y105600I2099J2924*
G01*
Y105600*
G75*
G02X416700I3600*
G01*
Y105600*
G75*
G02X415200Y102676I-3599*
G01*
Y100600*
X417752*
Y110600*
X409945*
G75*
G02X407700Y107919I-4345J1358*
G01*
G37*
X421952Y110600D02*
G36*
Y100600D01*
X429091*
Y107919*
G75*
G02X426845Y110600I2100J4039*
G01*
X421952*
G37*
X433291Y107919D02*
G36*
Y100600D01*
X443500*
Y107919*
G75*
G02X441255Y110600I2100J4040*
G01*
X435536*
G75*
G02X433291Y107919I-4345J1358*
G01*
G37*
X447700D02*
G36*
Y100600D01*
X454500*
G75*
G02X461700I3600*
G01*
X463500*
Y104730*
X457630Y110600*
X449945*
G75*
G02X447700Y107919I-4346J1359*
G01*
G37*
X466845Y110600D02*
G36*
X463570D01*
X467085Y107085*
G75*
G02X467700Y105600I-1487J-1485*
G01*
Y100600*
X469091*
Y107919*
G75*
G02X466845Y110600I2100J4040*
G01*
G37*
X473291Y107919D02*
G36*
Y100600D01*
X483500*
Y102676*
G75*
G02X482000Y105600I2099J2924*
G01*
Y105600*
G75*
G02X489200I3600*
G01*
Y105600*
G75*
G02X487700Y102676I-3599*
G01*
Y100600*
X526748*
Y107919*
G75*
G02X524503Y110600I2100J4040*
G01*
X475536*
G75*
G02X473291Y107919I-4346J1359*
G01*
G37*
X530948D02*
G36*
Y100600D01*
X541000*
Y110600*
X533194*
G75*
G02X530948Y107919I-4344J1357*
G01*
G37*
X545200Y110600D02*
G36*
Y100600D01*
X552339*
Y107919*
G75*
G02X550093Y110600I2100J4039*
G01*
X545200*
G37*
X556539Y107919D02*
G36*
Y100600D01*
X565604*
G75*
G02X575596I4996*
G01*
X575604*
G75*
G02X585596I4996*
G01*
X587602*
Y110600*
X585596*
G75*
G02X575604I-4996*
G01*
X575596*
G75*
G02X565604I-4996*
G01*
X558784*
G75*
G02X556539Y107919I-4345J1358*
G01*
G37*
X3400Y115679D02*
G36*
Y110600D01*
X5604*
G75*
G02X15596I4996*
G01*
X15604*
G75*
G02X25596I4996*
G01*
X31000*
Y115679*
X21459*
G75*
G02X19741I-859J4922*
G01*
X11459*
G75*
G02X9741I-859J4922*
G01*
X3400*
G37*
X35200D02*
G36*
Y110600D01*
X91000*
Y115679*
X62948*
G75*
G02X53252I-4848*
G01*
X35200*
G37*
X229857Y111958D02*
G36*
G75*
G02X229650Y110600I-4553J0D01*
G01*
X246550*
G75*
G02X246343Y111958I4345J1359*
G01*
G75*
G02X248271Y115679I4553*
G01*
X227929*
G75*
G02X229857Y111959I-2624J-3720*
G01*
Y111958*
G37*
X255448D02*
G36*
G75*
G02X255241Y110600I-4553J0D01*
G01*
X259024*
G75*
G02X258817Y111958I4345J1359*
G01*
G75*
G02X260745Y115679I4553*
G01*
X253519*
G75*
G02X255448Y111958I-2624J-3720*
G01*
G37*
X267922D02*
G36*
G75*
G02X267715Y110600I-4553J0D01*
G01*
X271000*
Y113100*
G75*
G02X271615Y114585I2102J0*
G01*
X272709Y115679*
X265993*
G75*
G02X267922Y111958I-2624J-3720*
G01*
G37*
X275200Y112230D02*
G36*
Y110600D01*
X284615*
G75*
G02X284407Y111958I4345J1359*
G01*
G75*
G02X286336Y115679I4553*
G01*
X278648*
X275200Y112230*
G37*
X293513Y111958D02*
G36*
G75*
G02X293305Y110600I-4553J0D01*
G01*
X296524*
G75*
G02X296317Y111958I4346J1359*
G01*
G75*
G02X298245Y115679I4553*
G01*
X291584*
G75*
G02X293513Y111958I-2624J-3720*
G01*
G37*
X305422D02*
G36*
G75*
G02X305215Y110600I-4553J0D01*
G01*
X311000*
Y115679*
X303493*
G75*
G02X305422Y111958I-2624J-3720*
G01*
G37*
X315200Y115679D02*
G36*
Y110600D01*
X322115*
G75*
G02X321907Y111958I4345J1359*
G01*
G75*
G02X323836Y115679I4553*
G01*
X315200*
G37*
X331013Y111958D02*
G36*
G75*
G02X330805Y110600I-4553J0D01*
G01*
X355130*
X351615Y114115*
G75*
G02X351000Y115600I1487J1485*
G01*
Y115679*
X349199*
G75*
G02X349200Y115600I-3599J-75*
G01*
Y115600*
G75*
G02X342000I-3600*
G01*
Y115600*
G75*
G02X342001Y115679I3600J3*
G01*
X329084*
G75*
G02X331013Y111958I-2624J-3720*
G01*
G37*
X387700Y115679D02*
G36*
Y110600D01*
X401254*
G75*
G02X401047Y111958I4345J1359*
G01*
G75*
G02X402976Y115679I4553*
G01*
X387700*
G37*
X410153Y111958D02*
G36*
G75*
G02X409945Y110600I-4553J0D01*
G01*
X417752*
Y115679*
X408224*
G75*
G02X410153Y111958I-2624J-3720*
G01*
G37*
X421952Y115679D02*
G36*
Y110600D01*
X426845*
G75*
G02X426638Y111958I4345J1359*
G01*
G75*
G02X428567Y115679I4553*
G01*
X421952*
G37*
X435743Y111958D02*
G36*
G75*
G02X435536Y110600I-4553J0D01*
G01*
X441255*
G75*
G02X441047Y111958I4346J1359*
G01*
G75*
G02X442976Y115679I4553*
G01*
X433815*
G75*
G02X435743Y111958I-2624J-3720*
G01*
G37*
X450153D02*
G36*
G75*
G02X449945Y110600I-4553J0D01*
G01*
X457630*
X452552Y115679*
X448224*
G75*
G02X450153Y111958I-2624J-3720*
G01*
G37*
X458491Y115679D02*
G36*
X463570Y110600D01*
X466845*
G75*
G02X466638Y111958I4346J1359*
G01*
G75*
G02X468567Y115679I4553*
G01*
X458491*
G37*
X475743Y111958D02*
G36*
G75*
G02X475536Y110600I-4553J0D01*
G01*
X524503*
G75*
G02X524295Y111958I4346J1359*
G01*
G75*
G02X526224Y115679I4553*
G01*
X473815*
G75*
G02X475743Y111958I-2624J-3720*
G01*
G37*
X531472Y115679D02*
G36*
G75*
G02X533401Y111958I-2624J-3720D01*
G01*
G75*
G02Y111957I-5013J0*
G01*
G75*
G02X533194Y110600I-4551J0*
G01*
X541000*
Y115679*
X531472*
G37*
X545200D02*
G36*
Y110600D01*
X550093*
G75*
G02X549886Y111958I4345J1359*
G01*
G75*
G02X551815Y115679I4553*
G01*
X545200*
G37*
X558991Y111958D02*
G36*
G75*
G02X558784Y110600I-4553J0D01*
G01*
X565604*
G75*
G02X575596I4996*
G01*
X575604*
G75*
G02X585596I4996*
G01*
X587602*
Y115679*
X581459*
G75*
G02X579741I-859J4922*
G01*
X571459*
G75*
G02X569741I-859J4922*
G01*
X557063*
G75*
G02X558991Y111958I-2624J-3720*
G01*
G37*
X3400Y120600D02*
G36*
Y115679D01*
X9741*
G75*
G02X5604Y120600I859J4921*
G01*
X3400*
G37*
X15596D02*
G36*
G75*
G02X11459Y115679I-4996D01*
G01*
X19741*
G75*
G02X15604Y120600I859J4921*
G01*
X15596*
G37*
X25596D02*
G36*
G75*
G02X21459Y115679I-4996D01*
G01*
X31000*
Y120600*
X25596*
G37*
X35200D02*
G36*
Y115679D01*
X53252*
G75*
G02X62948I4848*
G01*
X91000*
Y120600*
X35200*
G37*
X222700D02*
G36*
Y115692D01*
G75*
G02X227929Y115679I2605J-3733*
G01*
X248271*
G75*
G02X250895Y116511I2624J-3720*
G01*
G75*
G02X253519Y115679J-4553*
G01*
X260745*
G75*
G02X263369Y116511I2624J-3720*
G01*
G75*
G02X265993Y115679J-4553*
G01*
X272709*
X276615Y119585*
G75*
G02X278102Y120200I1485J-1486*
G01*
X284730*
X285130Y120600*
X222700*
G37*
X278970Y116000D02*
G36*
X278648Y115679D01*
X286336*
G75*
G02X288960Y116511I2624J-3720*
G01*
G75*
G02X291584Y115679J-4553*
G01*
X298245*
G75*
G02X303493I2624J-3720*
G01*
X311000*
Y120600*
X291070*
X287085Y116615*
G75*
G02X285598Y116000I-1485J1486*
G01*
X278970*
G37*
X315200Y120600D02*
G36*
Y115679D01*
X323836*
G75*
G02X326460Y116511I2624J-3720*
G01*
G75*
G02X329084Y115679J-4553*
G01*
X342001*
G75*
G02X343500Y118524I3598J-78*
G01*
Y120600*
X315200*
G37*
X347700D02*
G36*
Y118524D01*
G75*
G02X349199Y115679I-2099J-2924*
G01*
X351000*
Y120600*
X347700*
G37*
X387700D02*
G36*
Y115679D01*
X402976*
G75*
G02X405600Y116511I2624J-3721*
G01*
G75*
G02X408224Y115679J-4553*
G01*
X417752*
Y120600*
X387700*
G37*
X421952D02*
G36*
Y115679D01*
X428567*
G75*
G02X431191Y116511I2624J-3720*
G01*
G75*
G02X433815Y115679J-4553*
G01*
X442976*
G75*
G02X448224I2624J-3720*
G01*
X452552*
X447630Y120600*
X421952*
G37*
X453570D02*
G36*
X458491Y115679D01*
X468567*
G75*
G02X473815I2624J-3720*
G01*
X526224*
G75*
G02X531472I2624J-3720*
G01*
X541000*
Y120600*
X453570*
G37*
X545200D02*
G36*
Y115679D01*
X551815*
G75*
G02X554439Y116511I2624J-3720*
G01*
G75*
G02X557063Y115679J-4553*
G01*
X569741*
G75*
G02X565604Y120600I859J4921*
G01*
X545200*
G37*
X575596D02*
G36*
G75*
G02X571459Y115679I-4996D01*
G01*
X579741*
G75*
G02X575604Y120600I859J4921*
G01*
X575596*
G37*
X585596D02*
G36*
G75*
G02X581459Y115679I-4996D01*
G01*
X587602*
Y120600*
X585596*
G37*
X3400Y125521D02*
G36*
Y120600D01*
X5604*
G75*
G02X9741Y125521I4996*
G01*
X3400*
G37*
X11459D02*
G36*
G75*
G02X15596Y120600I-859J-4921D01*
G01*
X15604*
G75*
G02X19741Y125521I4996*
G01*
X11459*
G37*
X21459D02*
G36*
G75*
G02X25596Y120600I-859J-4921D01*
G01*
X31000*
Y125521*
X21459*
G37*
X35200D02*
G36*
Y120600D01*
X91000*
Y125521*
X62948*
G75*
G02X53252I-4848*
G01*
X35200*
G37*
X222700D02*
G36*
Y120600D01*
X285130*
X290052Y125521*
X256608*
G75*
G02X249592I-3508J809*
G01*
X222700*
G37*
X295017Y124548D02*
G36*
X291070Y120600D01*
X311000*
Y125521*
X298112*
G75*
G02X295017Y124548I-2512J2580*
G01*
G37*
X315200Y125521D02*
G36*
Y120600D01*
X343500*
Y125521*
X343112*
G75*
G02X338088I-2512J2579*
G01*
X315200*
G37*
X347700D02*
G36*
Y120600D01*
X351000*
Y125521*
X347700*
G37*
X387700D02*
G36*
Y120600D01*
X417752*
Y124852*
G75*
G02X417861Y125521I2102*
G01*
X387700*
G37*
X421952Y123982D02*
G36*
Y120600D01*
X447630*
X442709Y125521*
X423491*
X421952Y123982*
G37*
X448648Y125521D02*
G36*
X453570Y120600D01*
X541000*
Y125521*
X448648*
G37*
X545200D02*
G36*
Y120600D01*
X565604*
G75*
G02X569741Y125521I4996*
G01*
X545200*
G37*
X571459D02*
G36*
G75*
G02X575596Y120600I-859J-4921D01*
G01*
X575604*
G75*
G02X579741Y125521I4996*
G01*
X571459*
G37*
X581459D02*
G36*
G75*
G02X585596Y120600I-859J-4921D01*
G01*
X587602*
Y125521*
X581459*
G37*
X3400Y130600D02*
G36*
Y125521D01*
X9741*
G75*
G02X11459I859J-4922*
G01*
X19741*
G75*
G02X21459I859J-4922*
G01*
X31000*
Y130600*
X25596*
G75*
G02X15604I-4996*
G01*
X15596*
G75*
G02X5604I-4996*
G01*
X3400*
G37*
X35200D02*
G36*
Y125521D01*
X53252*
G75*
G02X62948I4848*
G01*
X91000*
Y130600*
X76700*
G75*
G02X69500I-3600*
G01*
X35200*
G37*
X222700D02*
G36*
Y125521D01*
X249592*
G75*
G02X249500Y126330I3508J809*
G01*
G75*
G02X251659Y129629I3601J0*
G01*
X252630Y130600*
X222700*
G37*
X256700Y126330D02*
G36*
G75*
G02X256608Y125521I-3600J0D01*
G01*
X290052*
X292048Y127517*
G75*
G02X292000Y128098I3510J580*
G01*
G75*
G02Y128100I3383J1*
G01*
G75*
G02X293009Y130600I3600J0*
G01*
X258570*
X256174Y128204*
G75*
G02X256700Y126330I-3077J-1875*
G01*
G37*
X299200Y128100D02*
G36*
G75*
G02X298112Y125521I-3600J0D01*
G01*
X311000*
Y130600*
X298191*
G75*
G02X299200Y128100I-2591J-2500*
G01*
G37*
X315200Y130600D02*
G36*
Y125521D01*
X338088*
G75*
G02X337676Y126000I2512J2580*
G01*
X335602*
G75*
G02X334115Y126615I-2J2101*
G01*
X331615Y129115*
G75*
G02X331000Y130600I1487J1485*
G01*
X315200*
G37*
X343112Y125521D02*
G36*
X343500D01*
Y125967*
G75*
G02X343112Y125521I-2900J2132*
G01*
G37*
X347700Y130600D02*
G36*
Y125521D01*
X351000*
Y130600*
X347700*
G37*
X387700D02*
G36*
Y125521D01*
X417861*
G75*
G02X418367Y126337I1992J-670*
G01*
X422630Y130600*
X387700*
G37*
X428570D02*
G36*
X423491Y125521D01*
X442709*
X438683Y129548*
G75*
G02X435510Y130600I-583J3553*
G01*
X428570*
G37*
X443570D02*
G36*
X448648Y125521D01*
X541000*
Y130600*
X443570*
G37*
X545200D02*
G36*
Y125521D01*
X569741*
G75*
G02X571459I859J-4922*
G01*
X579741*
G75*
G02X581459I859J-4922*
G01*
X587602*
Y130600*
X585596*
G75*
G02X575604I-4996*
G01*
X575596*
G75*
G02X565604I-4996*
G01*
X545200*
G37*
X3400Y140600D02*
G36*
Y130600D01*
X5604*
G75*
G02X15596I4996*
G01*
X15604*
G75*
G02X25596I4996*
G01*
X31000*
Y140600*
X25596*
G75*
G02X15604I-4996*
G01*
X15596*
G75*
G02X5604I-4996*
G01*
X3400*
G37*
X35200D02*
G36*
Y130600D01*
X69500*
Y130600*
G75*
G02X71000Y133524I3599*
G01*
Y136030*
X66430Y140600*
X35200*
G37*
X72369D02*
G36*
X74585Y138384D01*
G75*
G02X75200Y136899I-1487J-1485*
G01*
Y133524*
G75*
G02X76700Y130600I-2099J-2924*
G01*
Y130600*
X91000*
Y140600*
X72369*
G37*
X222700Y137230D02*
G36*
Y130600D01*
X252630*
X259115Y137085*
G75*
G02X260602Y137700I1485J-1486*
G01*
X271775*
G75*
G02X270753Y140600I3825J2979*
G01*
X247761*
X247085Y139924*
G75*
G02X245598Y139309I-1485J1486*
G01*
X241722*
G75*
G02X233474Y138500I-4370J2100*
G01*
X223970*
X222700Y137230*
G37*
X261470Y133500D02*
G36*
X258570Y130600D01*
X293009*
G75*
G02X298191I2591J-2500*
G01*
X311000*
Y135679*
G75*
G02X311615Y137164I2102J0*
G01*
X313030Y138579*
X287622*
G75*
G02X289200Y135600I-2022J-2979*
G01*
G75*
G02X282676Y133500I-3600*
G01*
X261470*
G37*
X315200Y134809D02*
G36*
Y130600D01*
X331000*
Y140600*
X322947*
G75*
G02X316495Y136104I-4847J78*
G01*
X315200Y134809*
G37*
X347700Y140600D02*
G36*
Y130600D01*
X351000*
Y137676*
G75*
G02X349500Y140600I2100J2924*
G01*
X347700*
G37*
X387700D02*
G36*
Y130600D01*
X422630*
X427048Y135017*
G75*
G02X427000Y135598I3510J580*
G01*
G75*
G02Y135600I3383J1*
G01*
G75*
G02X428578Y138579I3600*
G01*
X422470*
G75*
G02X413253Y140600I-4370J2100*
G01*
X392700*
Y138970*
X393970Y137700*
X405176*
G75*
G02X411700Y135600I2924J-2100*
G01*
G75*
G02X405176Y133500I-3600*
G01*
X393102*
G75*
G02X391615Y134115I-2J2101*
G01*
X389115Y136615*
G75*
G02X388500Y138100I1487J1485*
G01*
Y140600*
X387700*
G37*
X430017Y132048D02*
G36*
X428570Y130600D01*
X435510*
G75*
G02X434500Y133100I2590J2500*
G01*
G75*
G02X441700I3600*
G01*
G75*
G02Y133098I-3383J-1*
G01*
G75*
G02X441652Y132517I-3557*
G01*
X443570Y130600*
X541000*
Y140600*
X462947*
G75*
G02X453730Y138579I-4847J79*
G01*
X432622*
G75*
G02X434200Y135600I-2022J-2979*
G01*
G75*
G02X430017Y132048I-3600*
G01*
G37*
X545200Y140600D02*
G36*
Y130600D01*
X565604*
G75*
G02X575596I4996*
G01*
X575604*
G75*
G02X585596I4996*
G01*
X587602*
Y140600*
X585596*
G75*
G02X575604I-4996*
G01*
X575596*
G75*
G02X565604I-4996*
G01*
X545200*
G37*
X3400Y150600D02*
G36*
Y140600D01*
X5604*
G75*
G02X15596I4996*
G01*
X15604*
G75*
G02X25596I4996*
G01*
X31000*
Y150600*
X25596*
G75*
G02X15604I-4996*
G01*
X15596*
G75*
G02X5604I-4996*
G01*
X3400*
G37*
X35200D02*
G36*
Y140600D01*
X66430*
X64982Y142048*
G75*
G02X60799Y145600I-582J3553*
G01*
G75*
G02X67999I3600*
G01*
G75*
G02Y145598I-3383J-1*
G01*
G75*
G02X67952Y145017I-3557*
G01*
X72369Y140600*
X91000*
Y147676*
G75*
G02X89500Y150600I2100J2924*
G01*
X35200*
G37*
X173524Y143500D02*
G36*
G75*
G02X172733Y142700I-2930J2105D01*
G01*
X232679*
G75*
G02X241722Y143509I4673J-1291*
G01*
X244730*
X251822Y150600*
X242156*
G75*
G02X232548I-4804J651*
G01*
X205691*
G75*
G02X206700Y148100I-2591J-2500*
G01*
G75*
G02X202517Y144548I-3600J0*
G01*
X202085Y144115*
G75*
G02X200598Y143500I-1485J1486*
G01*
X173524*
G37*
X257761Y150600D02*
G36*
X247761Y140600D01*
X270753*
G75*
G02X270752Y140679I4845J88*
G01*
G75*
G02X271657Y143500I4848J0*
G01*
X268102*
G75*
G02X266615Y144115I-2J2101*
G01*
X263750Y146980*
G75*
G02X259500Y150521I-650J3541*
G01*
Y150521*
G75*
G02X259501Y150600I3601J4*
G01*
X257761*
G37*
X266700Y150521D02*
G36*
G75*
G02X266663Y150007I-3671J6D01*
G01*
X268970Y147700*
X271657*
G75*
G02X270752Y150521I3942J2821*
G01*
G75*
G02X270753Y150600I4851J-9*
G01*
X266699*
G75*
G02X266700Y150521I-3600J-75*
G01*
G37*
X279543Y143500D02*
G36*
G75*
G02X279970Y142779I-3979J-2844D01*
G01*
X313730*
G75*
G02X322948Y140679I4370J-2100*
G01*
Y140678*
G75*
G02X322947Y140600I-4843J9*
G01*
X331000*
Y150600*
X322947*
G75*
G02X322948Y150521I-4850J-88*
G01*
G75*
G02X313252I-4848*
G01*
G75*
G02X313253Y150600I4851J-9*
G01*
X304199*
G75*
G02X304200Y150521I-3609J-76*
G01*
G75*
G02X300017Y146969I-3600*
G01*
X297164Y144115*
G75*
G02X295676Y143500I-1485J1486*
G01*
X279543*
G37*
X280447Y150600D02*
G36*
G75*
G02X280448Y150521I-4850J-88D01*
G01*
G75*
G02X279543Y147700I-4848*
G01*
X294809*
X297048Y149939*
G75*
G02X297000Y150519I3510J580*
G01*
G75*
G02Y150521I3383J1*
G01*
G75*
G02X297001Y150600I3609J3*
G01*
X280447*
G37*
X347700D02*
G36*
Y140600D01*
X349500*
G75*
G02X354204Y144027I3600*
G01*
X351615Y146615*
G75*
G02X351000Y148100I1487J1485*
G01*
Y150600*
X347700*
G37*
X387700D02*
G36*
Y140600D01*
X388500*
Y150600*
X387700*
G37*
X392700D02*
G36*
Y140600D01*
X413253*
G75*
G02X413252Y140679I4850J88*
G01*
G75*
G02X422470Y142779I4848J0*
G01*
X453730*
G75*
G02X462948Y140679I4370J-2100*
G01*
G75*
G02X462947Y140600I-4851J9*
G01*
X541000*
Y150600*
X498570*
X497006Y149036*
G75*
G02X495519Y148421I-1485J1486*
G01*
X462470*
G75*
G02X453252Y150521I-4370J2100*
G01*
G75*
G02X453253Y150600I4851J-9*
G01*
X433190*
G75*
G02X434200Y148100I-2590J-2500*
G01*
G75*
G02X427000I-3600*
G01*
G75*
G02Y148102I3383J1*
G01*
G75*
G02X427048Y148683I3557*
G01*
X425130Y150600*
X422947*
G75*
G02X422948Y150521I-4850J-88*
G01*
G75*
G02X413252I-4848*
G01*
G75*
G02X413253Y150600I4851J-9*
G01*
X392700*
G37*
X545200D02*
G36*
Y140600D01*
X565604*
G75*
G02X575596I4996*
G01*
X575604*
G75*
G02X585596I4996*
G01*
X587602*
Y150600*
X585596*
G75*
G02X575604I-4996*
G01*
X575596*
G75*
G02X565604I-4996*
G01*
X545200*
G37*
X3400Y160600D02*
G36*
Y150600D01*
X5604*
G75*
G02X15596I4996*
G01*
X15604*
G75*
G02X25596I4996*
G01*
X31000*
Y160600*
X25596*
G75*
G02X15604I-4996*
G01*
X15596*
G75*
G02X5604I-4996*
G01*
X3400*
G37*
X35200D02*
G36*
Y150600D01*
X89500*
G75*
G02X90967Y153500I3600*
G01*
X85602*
G75*
G02X84115Y154115I-2J2101*
G01*
X77630Y160600*
X35200*
G37*
X83570D02*
G36*
X86470Y157700D01*
X90967*
G75*
G02X89500Y160600I2133J2900*
G01*
X83570*
G37*
X160828Y156000D02*
G36*
G75*
G02X164222Y153351I-977J-4751D01*
G01*
X195176*
G75*
G02X201696Y151415I2924J-2100*
G01*
G75*
G02X205691Y150600I1404J-3315*
G01*
X232548*
G75*
G02X232504Y151251I4804J652*
G01*
G75*
G02X236376Y156000I4848J0*
G01*
X160828*
G37*
X242200Y151251D02*
G36*
G75*
G02X242156Y150600I-4848J1D01*
G01*
X251822*
X261822Y160600*
X255690*
G75*
G02X256700Y158100I-2591J-2501*
G01*
G75*
G02X250176Y156000I-3600*
G01*
X238328*
G75*
G02X242200Y151251I-976J-4749*
G01*
G37*
X257761Y150600D02*
G36*
X259501D01*
G75*
G02X266699I3599J-79*
G01*
X270753*
G75*
G02X280447I4847J-79*
G01*
X297001*
G75*
G02X297354Y152078I3607J-81*
G01*
G75*
G02X294500Y155600I746J3522*
G01*
G75*
G02X296000Y158524I3600*
G01*
Y160600*
X267761*
X257761Y150600*
G37*
X300200Y160600D02*
G36*
Y158524D01*
G75*
G02X301700Y155600I-2100J-2924*
G01*
G75*
G02X301346Y154043I-3600*
G01*
G75*
G02X304199Y150600I-746J-3522*
G01*
X313253*
G75*
G02X322947I4847J-79*
G01*
X331000*
Y160600*
X300200*
G37*
X347700D02*
G36*
Y150600D01*
X351000*
Y160600*
X347700*
G37*
X387700D02*
G36*
Y150600D01*
X388500*
Y160600*
X387700*
G37*
X392700D02*
G36*
Y150600D01*
X413253*
G75*
G02X422947I4847J-79*
G01*
X425130*
X415130Y160600*
X392700*
G37*
X421070D02*
G36*
X430017Y151652D01*
G75*
G02X433190Y150600I583J-3553*
G01*
X453253*
G75*
G02X462470Y152621I4847J-79*
G01*
X494652*
X502630Y160600*
X497285*
G75*
G02X492104I-2590J2500*
G01*
X421070*
G37*
X508570D02*
G36*
X498570Y150600D01*
X541000*
Y159730*
X540130Y160600*
X508570*
G37*
X545200D02*
G36*
Y150600D01*
X565604*
G75*
G02X575596I4996*
G01*
X575604*
G75*
G02X585596I4996*
G01*
X587602*
Y160600*
X585596*
G75*
G02X575604I-4996*
G01*
X575596*
G75*
G02X565604I-4996*
G01*
X545200*
G37*
X3400Y170600D02*
G36*
Y160600D01*
X5604*
G75*
G02X15596I4996*
G01*
X15604*
G75*
G02X25596I4996*
G01*
X31000*
Y170600*
X25596*
G75*
G02X15604I-4996*
G01*
X15596*
G75*
G02X5604I-4996*
G01*
X3400*
G37*
X35200D02*
G36*
Y160600D01*
X77630*
X76615Y161615*
G75*
G02X76000Y163100I1487J1485*
G01*
Y170600*
X35200*
G37*
X80200D02*
G36*
Y163970D01*
X83570Y160600*
X89500*
G75*
G02X91000Y163524I3600*
G01*
Y170600*
X80200*
G37*
X100200D02*
G36*
Y166024D01*
G75*
G02X101700Y163100I-2100J-2924*
G01*
G75*
G02X101527Y161996I-3600J0*
G01*
X104115Y164585*
G75*
G02X105602Y165200I1485J-1486*
G01*
X149730*
X151615Y167085*
G75*
G02X153102Y167700I1485J-1486*
G01*
X160598*
G75*
G02X162085Y167085I2J-2101*
G01*
X166470Y162700*
X218467*
G75*
G02X217000Y165600I2135J2901*
G01*
G75*
G02Y165602I3383J1*
G01*
G75*
G02X217048Y166183I3557*
G01*
X212630Y170600*
X205690*
G75*
G02X206700Y168100I-2590J-2500*
G01*
G75*
G02X199500I-3600*
G01*
G75*
G02Y168102I3383J1*
G01*
G75*
G02X199548Y168683I3557*
G01*
X197630Y170600*
X187899*
X186414Y169115*
G75*
G02X184927Y168500I-1485J1486*
G01*
X155602*
G75*
G02X154115Y169115I-2J2101*
G01*
X152630Y170600*
X123452*
G75*
G02X116252I-3600*
G01*
X100200*
G37*
X218570D02*
G36*
X220017Y169152D01*
G75*
G02X224200Y165600I583J-3552*
G01*
G75*
G02X222733Y162700I-3600*
G01*
X249730*
X252048Y165017*
G75*
G02X252000Y165598I3510J580*
G01*
G75*
G02Y165600I3383J1*
G01*
G75*
G02X259200I3600*
G01*
G75*
G02X255017Y162048I-3600J0*
G01*
X254419Y161450*
G75*
G02X255690Y160600I-1320J-3350*
G01*
X261822*
X271822Y170600*
X218570*
G37*
X277761D02*
G36*
X267761Y160600D01*
X296000*
Y162676*
G75*
G02X294500Y165600I2100J2924*
G01*
G75*
G02X296000Y168524I3600*
G01*
Y170600*
X277761*
G37*
X300200Y162676D02*
G36*
Y160600D01*
X331000*
Y170600*
X300200*
Y168524*
G75*
G02X301700Y165600I-2100J-2924*
G01*
G75*
G02X300200Y162676I-3600*
G01*
G37*
X347700Y163467D02*
G36*
Y160600D01*
X351000*
Y162022*
G75*
G02X347700Y163467I-400J3578*
G01*
G37*
X387700Y170600D02*
G36*
Y160600D01*
X388500*
Y170600*
X387700*
G37*
X392700Y163467D02*
G36*
Y160600D01*
X415130*
X414115Y161615*
G75*
G02X413500Y163100I1487J1485*
G01*
Y170600*
X392700*
Y167733*
G75*
G02X398524Y167700I2900J-2133*
G01*
X405176*
G75*
G02X411700Y165600I2924J-2100*
G01*
G75*
G02X405176Y163500I-3600*
G01*
X398524*
G75*
G02X392700Y163467I-2924J2100*
G01*
G37*
X419496Y162173D02*
G36*
X421070Y160600D01*
X492104*
G75*
G02X491770Y161000I2591J2502*
G01*
X423102*
G75*
G02X421615Y161615I-2J2101*
G01*
X421183Y162048*
G75*
G02X419496Y162173I-583J3546*
G01*
G37*
X496794Y170600D02*
G36*
Y166024D01*
G75*
G02X498294Y163100I-2099J-2924*
G01*
Y163100*
G75*
G02X497285Y160600I-3600J0*
G01*
X502630*
X506000Y163970*
Y170600*
X496794*
G37*
X509585Y161615D02*
G36*
X508570Y160600D01*
X540130*
X530130Y170600*
X510200*
Y163100*
G75*
G02X509585Y161615I-2102J0*
G01*
G37*
X536070Y170600D02*
G36*
X544585Y162085D01*
G75*
G02X545200Y160600I-1487J-1485*
G01*
X565604*
G75*
G02X575596I4996*
G01*
X575604*
G75*
G02X585596I4996*
G01*
X587602*
Y170600*
X585596*
G75*
G02X575604I-4996*
G01*
X575596*
G75*
G02X565604I-4996*
G01*
X536070*
G37*
X3400Y176525D02*
G36*
Y170600D01*
X5604*
G75*
G02X15596I4996*
G01*
X15604*
G75*
G02X25596I4996*
G01*
X31000*
Y176525*
X23490*
G75*
G02X17710I-2890J4075*
G01*
X13490*
G75*
G02X7710I-2890J4075*
G01*
X3400*
G37*
X35200D02*
G36*
Y170600D01*
X76000*
Y176525*
X75443*
G75*
G02X70895Y172189I-4548J217*
G01*
G75*
G02X66348Y176525J4553*
G01*
X49852*
G75*
G02X45305Y172189I-4548J217*
G01*
G75*
G02X40757Y176525J4553*
G01*
X35200*
G37*
X80200D02*
G36*
Y170600D01*
X91000*
Y176525*
X89852*
G75*
G02X85305Y172189I-4548J217*
G01*
G75*
G02X80757Y176525J4553*
G01*
X80200*
G37*
X100200D02*
G36*
Y170600D01*
X116252*
Y170600*
G75*
G02X117752Y173524I3599*
G01*
Y176525*
X115443*
G75*
G02X110895Y172189I-4548J217*
G01*
G75*
G02X106348Y176525J4553*
G01*
X100200*
G37*
X121952Y173662D02*
G36*
Y173524D01*
G75*
G02X123452Y170600I-2099J-2924*
G01*
Y170600*
X152630*
X151039Y172191*
G75*
G02X150895Y172189I-179J6507*
G01*
G75*
G02X146348Y176525J4553*
G01*
X129852*
G75*
G02X125305Y172189I-4548J217*
G01*
G75*
G02X121952Y173662I1J4554*
G01*
G37*
X169857Y176525D02*
G36*
G75*
G02X167709Y172700I-4553J41D01*
G01*
X184059*
X186554Y175195*
G75*
G02X186343Y176525I4341J1372*
G01*
X169857*
G37*
X189524Y172225D02*
G36*
X187899Y170600D01*
X197630*
X196615Y171615*
G75*
G02X196000Y173100I1487J1485*
G01*
Y176525*
X195448*
G75*
G02X189524Y172225I-4553J41*
G01*
G37*
X200200Y176525D02*
G36*
Y173970D01*
X202517Y171652*
G75*
G02X205690Y170600I583J-3553*
G01*
X212630*
X209207Y174024*
G75*
G02X200877Y176525I-3777J2543*
G01*
X200200*
G37*
X212700D02*
G36*
Y176470D01*
X218570Y170600*
X271822*
X276000Y174778*
Y176525*
X275448*
G75*
G02X270895Y172013I-4552J41*
G01*
G75*
G02X266343Y176525J4553*
G01*
X261337*
G75*
G02X254863I-3237J1575*
G01*
X249857*
G75*
G02X245305Y172013I-4552J41*
G01*
G75*
G02X240826Y175748I0J4553*
G01*
G75*
G02X235477Y175634I-2726J2352*
G01*
G75*
G02X226468Y176525I-4456J932*
G01*
X221337*
G75*
G02X214863I-3237J1575*
G01*
X212700*
G37*
X279585Y172424D02*
G36*
X277761Y170600D01*
X296000*
Y175176*
G75*
G02X294863Y176525I2099J2924*
G01*
X289857*
G75*
G02X280752I-4553*
G01*
X280200*
Y173909*
G75*
G02X279585Y172424I-2102J0*
G01*
G37*
X300200Y175176D02*
G36*
Y170600D01*
X331000*
Y176525*
X330887*
G75*
G02X326335Y172013I-4552J41*
G01*
G75*
G02X321782Y176525J4553*
G01*
X315448*
G75*
G02X306343I-4553*
G01*
X301337*
G75*
G02X300200Y175176I-3237J1574*
G01*
G37*
X387700Y176525D02*
G36*
Y170600D01*
X388500*
Y176525*
X387700*
G37*
X392700D02*
G36*
Y170600D01*
X413500*
Y176525*
X392700*
G37*
X496794Y175557D02*
G36*
Y170600D01*
X506000*
Y176525*
X505738*
G75*
G02X501191Y172189I-4548J217*
G01*
G75*
G02X496794Y175557I0J4552*
G01*
G37*
X510200Y176525D02*
G36*
Y170600D01*
X530130*
X526615Y174115*
G75*
G02X526000Y175600I1487J1485*
G01*
Y176525*
X519852*
G75*
G02X515305Y172189I-4548J217*
G01*
G75*
G02X510757Y176525J4553*
G01*
X510200*
G37*
X530200D02*
G36*
Y176470D01*
X536070Y170600*
X565604*
G75*
G02X575596I4996*
G01*
X575604*
G75*
G02X585596I4996*
G01*
X587602*
Y176525*
X583490*
G75*
G02X577710I-2890J4075*
G01*
X573490*
G75*
G02X567710I-2890J4075*
G01*
X545443*
G75*
G02X540895Y172189I-4548J217*
G01*
G75*
G02X536348Y176525J4553*
G01*
X530200*
G37*
X3400Y180600D02*
G36*
Y176525D01*
X7710*
G75*
G02X5604Y180600I2890J4075*
G01*
X3400*
G37*
X15596D02*
G36*
G75*
G02X13490Y176525I-4996D01*
G01*
X17710*
G75*
G02X15604Y180600I2890J4075*
G01*
X15596*
G37*
X25596D02*
G36*
G75*
G02X23490Y176525I-4996D01*
G01*
X31000*
Y180600*
X25596*
G37*
X35200D02*
G36*
Y176525D01*
X40757*
G75*
G02X40752Y176742I4550J216*
G01*
G75*
G02X42888Y180600I4553J0*
G01*
X35200*
G37*
X49857Y176742D02*
G36*
G75*
G02X49852Y176525I-4555J-1D01*
G01*
X66348*
G75*
G02X66343Y176742I4550J216*
G01*
G75*
G02X68479Y180600I4553J0*
G01*
X47721*
G75*
G02X49857Y176742I-2417J-3859*
G01*
G37*
X75448D02*
G36*
G75*
G02X75443Y176525I-4555J-1D01*
G01*
X76000*
Y180600*
X73312*
G75*
G02X75448Y176742I-2417J-3859*
G01*
G37*
X80200Y180600D02*
G36*
Y176525D01*
X80757*
G75*
G02X80752Y176742I4550J216*
G01*
G75*
G02X82888Y180600I4553J0*
G01*
X80200*
G37*
X89857Y176742D02*
G36*
G75*
G02X89852Y176525I-4555J-1D01*
G01*
X91000*
Y180600*
X87721*
G75*
G02X89857Y176742I-2417J-3859*
G01*
G37*
X100200Y177676D02*
G36*
Y176525D01*
X106348*
G75*
G02X106343Y176742I4550J216*
G01*
G75*
G02X108479Y180600I4553J0*
G01*
X101700*
G75*
G02X100200Y177676I-3600*
G01*
G37*
X115448Y176742D02*
G36*
G75*
G02X115443Y176525I-4555J-1D01*
G01*
X117752*
Y180600*
X113312*
G75*
G02X115448Y176742I-2417J-3859*
G01*
G37*
X129857D02*
G36*
G75*
G02X129852Y176525I-4555J-1D01*
G01*
X146348*
G75*
G02X146343Y176742I4550J216*
G01*
G75*
G02X148479Y180600I4553J0*
G01*
X127721*
G75*
G02X129857Y176742I-2417J-3859*
G01*
G37*
X169857Y176566D02*
G36*
G75*
G02X169857Y176525I-4564J23D01*
G01*
X186343*
G75*
G02Y176566I4546J20*
G01*
G75*
G02X188785Y180600I4552*
G01*
X167415*
G75*
G02X169857Y176566I-2111J-4034*
G01*
G37*
X195448D02*
G36*
G75*
G02Y176525I-4564J-20D01*
G01*
X196000*
Y180600*
X193006*
G75*
G02X195448Y176566I-2111J-4034*
G01*
G37*
X200200Y180600D02*
G36*
Y176525D01*
X200877*
G75*
G02Y176566I4555J20*
G01*
G75*
G02Y176567I5013J0*
G01*
G75*
G02X203319Y180600I4551*
G01*
X200200*
G37*
X212700D02*
G36*
Y176525D01*
X214863*
G75*
G02X214500Y178100I3237J1574*
G01*
Y178100*
G75*
G02X215509Y180600I3599*
G01*
X212700*
G37*
X221700Y178100D02*
G36*
G75*
G02X221337Y176525I-3600J0D01*
G01*
X226468*
G75*
G02Y176566I4538J20*
G01*
Y176566*
G75*
G02Y176567I5013J0*
G01*
G75*
G02X228910Y180600I4551*
G01*
X220691*
G75*
G02X221700Y178100I-2590J-2500*
G01*
Y178100*
G37*
X233131Y180600D02*
G36*
G75*
G02X234692Y179259I-2115J-4040D01*
G01*
G75*
G02X235509Y180600I3407J-1157*
G01*
X233131*
G37*
X240690D02*
G36*
G75*
G02X241547Y179137I-2591J-2500D01*
G01*
G75*
G02X243194Y180600I3758J-2572*
G01*
X240690*
G37*
X249857Y176566D02*
G36*
G75*
G02X249857Y176525I-4564J23D01*
G01*
X254863*
G75*
G02X254500Y178100I3237J1574*
G01*
Y178100*
G75*
G02X255509Y180600I3599*
G01*
X247415*
G75*
G02X249857Y176566I-2111J-4034*
G01*
G37*
X261700Y178100D02*
G36*
G75*
G02X261337Y176525I-3600J0D01*
G01*
X266343*
G75*
G02X266343Y176566I4564J64*
G01*
G75*
G02X268785Y180600I4553*
G01*
X260691*
G75*
G02X261700Y178100I-2590J-2500*
G01*
Y178100*
G37*
X275448Y176566D02*
G36*
G75*
G02X275448Y176525I-4564J23D01*
G01*
X276000*
Y180600*
X273006*
G75*
G02X275448Y176566I-2111J-4034*
G01*
G37*
X280200Y180600D02*
G36*
Y176525D01*
X280752*
G75*
G02X283274Y180600I4553*
G01*
X280200*
G37*
X287335D02*
G36*
G75*
G02X289857Y176525I-2031J-4075D01*
G01*
X294863*
G75*
G02X294500Y178100I3237J1574*
G01*
Y178100*
G75*
G02X295509Y180600I3600J0*
G01*
X287335*
G37*
X300691D02*
G36*
G75*
G02X301700Y178100I-2591J-2500D01*
G01*
Y178100*
G75*
G02X301337Y176525I-3599*
G01*
X306343*
G75*
G02X308865Y180600I4553*
G01*
X300691*
G37*
X312926D02*
G36*
G75*
G02X315448Y176525I-2031J-4075D01*
G01*
X321782*
G75*
G02Y176566I4555J20*
G01*
G75*
G02X324224Y180600I4553J0*
G01*
X312926*
G37*
X329500D02*
G36*
X328446D01*
G75*
G02X329606Y179732I-2111J-4034*
G01*
G75*
G02X329500Y180600I3494J869*
G01*
G37*
X330887Y176566D02*
G36*
G75*
G02Y176525I-4564J-20D01*
G01*
X331000*
Y177676*
G75*
G02X330676Y177939I2069J2883*
G01*
G75*
G02X330887Y176566I-4341J-1372*
G01*
G37*
X387700Y180600D02*
G36*
Y176525D01*
X388500*
Y180600*
X387700*
G37*
X392700D02*
G36*
Y176525D01*
X413500*
Y180600*
X410690*
G75*
G02X405510I-2590J2500*
G01*
X398191*
G75*
G02X393009I-2591J2500*
G01*
X392700*
G37*
X505743Y176742D02*
G36*
G75*
G02X505738Y176525I-4555J-1D01*
G01*
X506000*
Y180600*
X503607*
G75*
G02X505743Y176742I-2417J-3859*
G01*
G37*
X510200Y180600D02*
G36*
Y176525D01*
X510757*
G75*
G02X510752Y176742I4550J216*
G01*
G75*
G02X512888Y180600I4553J0*
G01*
X510200*
G37*
X519857Y176742D02*
G36*
G75*
G02X519852Y176525I-4555J-1D01*
G01*
X526000*
Y180600*
X517721*
G75*
G02X519857Y176742I-2417J-3859*
G01*
G37*
X530200Y180600D02*
G36*
Y176525D01*
X536348*
G75*
G02X536343Y176742I4550J216*
G01*
G75*
G02X538479Y180600I4553J0*
G01*
X530200*
G37*
X545448Y176742D02*
G36*
G75*
G02X545443Y176525I-4555J-1D01*
G01*
X567710*
G75*
G02X565604Y180600I2890J4075*
G01*
X543312*
G75*
G02X545448Y176742I-2417J-3859*
G01*
G37*
X575596Y180600D02*
G36*
G75*
G02X573490Y176525I-4996D01*
G01*
X577710*
G75*
G02X575604Y180600I2890J4075*
G01*
X575596*
G37*
X585596D02*
G36*
G75*
G02X583490Y176525I-4996D01*
G01*
X587602*
Y180600*
X585596*
G37*
X3400Y190600D02*
G36*
Y180600D01*
X5604*
G75*
G02X15596I4996*
G01*
X15604*
G75*
G02X25596I4996*
G01*
X31000*
Y190600*
X25596*
G75*
G02X15604I-4996*
G01*
X15596*
G75*
G02X5604I-4996*
G01*
X3400*
G37*
X35200D02*
G36*
Y180600D01*
X42888*
G75*
G02X43205Y180781I2417J-3857*
G01*
Y190419*
G75*
G02X42888Y190600I2101J4039*
G01*
X35200*
G37*
X47405Y190419D02*
G36*
Y180781D01*
G75*
G02X47721Y180600I-2100J-4038*
G01*
X68479*
G75*
G02X68795Y180781I2417J-3857*
G01*
Y190419*
G75*
G02X68479Y190600I2101J4039*
G01*
X47721*
G75*
G02X47405Y190419I-2417J3858*
G01*
G37*
X72995D02*
G36*
Y180781D01*
G75*
G02X73312Y180600I-2100J-4038*
G01*
X76000*
Y190600*
X73312*
G75*
G02X72995Y190419I-2417J3858*
G01*
G37*
X80200Y190600D02*
G36*
Y180600D01*
X82888*
G75*
G02X83205Y180781I2417J-3857*
G01*
Y190419*
G75*
G02X82888Y190600I2101J4039*
G01*
X80200*
G37*
X87405Y190419D02*
G36*
Y180781D01*
G75*
G02X87721Y180600I-2100J-4038*
G01*
X91000*
Y183100*
G75*
G02X91615Y184585I2102J0*
G01*
X94115Y187085*
G75*
G02X95602Y187700I1485J-1486*
G01*
X100176*
G75*
G02X106700Y185600I2924J-2100*
G01*
G75*
G02X101080Y182620I-3600*
G01*
G75*
G02X101700Y180600I-2979J-2020*
G01*
X108479*
G75*
G02X108795Y180781I2417J-3857*
G01*
Y190419*
G75*
G02X108479Y190600I2101J4039*
G01*
X87722*
G75*
G02X87405Y190419I-2415J3859*
G01*
G37*
X112995D02*
G36*
Y180781D01*
G75*
G02X113312Y180600I-2100J-4038*
G01*
X117752*
Y190600*
X113312*
G75*
G02X112995Y190419I-2415J3859*
G01*
G37*
X127405D02*
G36*
Y180781D01*
G75*
G02X127721Y180600I-2100J-4038*
G01*
X148479*
G75*
G02X148795Y180781I2417J-3857*
G01*
Y190419*
G75*
G02X148478Y190600I2099J4041*
G01*
X127722*
G75*
G02X127405Y190419I-2415J3859*
G01*
G37*
X167405Y190243D02*
G36*
Y180606D01*
G75*
G02X167415Y180600I-2114J-4090*
G01*
X188785*
G75*
G02X188795Y180606I2111J-4057*
G01*
Y190243*
G75*
G02X188219Y190600I2100J4040*
G01*
X167981*
G75*
G02X167405Y190243I-2675J3681*
G01*
G37*
X192995D02*
G36*
Y180606D01*
G75*
G02X193006Y180600I-2100J-4063*
G01*
X196000*
Y190600*
X193572*
G75*
G02X192995Y190243I-2677J3683*
G01*
G37*
X200200Y190600D02*
G36*
Y180600D01*
X203319*
G75*
G02X203330Y180606I2111J-4057*
G01*
Y190243*
G75*
G02X202753Y190600I2100J4040*
G01*
X200200*
G37*
X212700Y187676D02*
G36*
Y180600D01*
X215509*
G75*
G02X216000Y181024I2590J-2500*
G01*
Y190600*
X214200*
G75*
G02X212700Y187676I-3600*
G01*
G37*
X220200Y190600D02*
G36*
Y181024D01*
G75*
G02X220691Y180600I-2099J-2924*
G01*
X228910*
G75*
G02X228920Y180606I2111J-4057*
G01*
Y190243*
G75*
G02X228344Y190600I2100J4040*
G01*
X220200*
G37*
X233120Y190243D02*
G36*
Y180606D01*
G75*
G02X233131Y180600I-2114J-4090*
G01*
X235509*
G75*
G02X236000Y181024I2590J-2500*
G01*
Y190600*
X233697*
G75*
G02X233120Y190243I-2677J3683*
G01*
G37*
X240200Y190600D02*
G36*
Y181024D01*
G75*
G02X240690Y180600I-2101J-2924*
G01*
X243194*
G75*
G02X243205Y180606I2125J-4085*
G01*
Y190243*
G75*
G02X242628Y190600I2100J4040*
G01*
X240200*
G37*
X247405Y190243D02*
G36*
Y180606D01*
G75*
G02X247415Y180600I-2100J-4063*
G01*
X255509*
G75*
G02X256000Y181024I2590J-2500*
G01*
Y190600*
X247981*
G75*
G02X247405Y190243I-2677J3683*
G01*
G37*
X260200Y190600D02*
G36*
Y181024D01*
G75*
G02X260691Y180600I-2099J-2924*
G01*
X268785*
G75*
G02X268795Y180606I2111J-4057*
G01*
Y190243*
G75*
G02X268219Y190600I2100J4041*
G01*
X260200*
G37*
X272995Y190243D02*
G36*
Y180606D01*
G75*
G02X273006Y180600I-2100J-4063*
G01*
X276000*
Y190600*
X273572*
G75*
G02X272995Y190243I-2675J3681*
G01*
G37*
X280200Y183467D02*
G36*
Y180600D01*
X283274*
G75*
G02X287335I2031J-4075*
G01*
X295509*
G75*
G02X300691I2591J-2500*
G01*
X308865*
G75*
G02X312926I2031J-4075*
G01*
X324224*
G75*
G02X326335Y181119I2111J-4033*
G01*
G75*
G02X328446Y180600J-4554*
G01*
X329500*
G75*
G02X330967Y183500I3600*
G01*
X286024*
G75*
G02X280200Y183467I-2924J2100*
G01*
G37*
Y190600D02*
G36*
Y187733D01*
G75*
G02X286024Y187700I2900J-2133*
G01*
X364730*
X367630Y190600*
X354602*
G75*
G02X351925Y189730I-2677J3682*
G01*
G75*
G02X349248Y190600J4553*
G01*
X329011*
G75*
G02X323658I-2677J3683*
G01*
X313628*
G75*
G02X308163I-2732J3642*
G01*
X288037*
G75*
G02X282572I-2732J3642*
G01*
X280200*
G37*
X387700Y188467D02*
G36*
Y180600D01*
X388500*
Y187676*
G75*
G02X387700Y188467I2105J2930*
G01*
G37*
X392700Y180967D02*
G36*
Y180600D01*
X393009*
G75*
G02X392700Y180967I2591J2499*
G01*
G37*
Y187676D02*
G36*
Y185233D01*
G75*
G02X398524Y185200I2900J-2133*
G01*
X405176*
G75*
G02X411700Y183100I2924J-2100*
G01*
G75*
G02X410690Y180600I-3600J0*
G01*
X413500*
Y190600*
X413191*
G75*
G02X408009I-2591J2500*
G01*
X398190*
G75*
G02X394115Y189821I-2590J2501*
G01*
G75*
G02X392700Y187676I-3516J780*
G01*
G37*
X398524Y181000D02*
G36*
G75*
G02X398191Y180600I-2924J2099D01*
G01*
X405510*
G75*
G02X405176Y181000I2591J2502*
G01*
X398524*
G37*
X503291Y190419D02*
G36*
Y180781D01*
G75*
G02X503607Y180600I-2100J-4038*
G01*
X506000*
Y190600*
X503607*
G75*
G02X503291Y190419I-2415J3859*
G01*
G37*
X510200Y190600D02*
G36*
Y180600D01*
X512888*
G75*
G02X513205Y180781I2417J-3857*
G01*
Y190419*
G75*
G02X512888Y190600I2101J4039*
G01*
X510200*
G37*
X517405Y190419D02*
G36*
Y180781D01*
G75*
G02X517721Y180600I-2100J-4038*
G01*
X526000*
Y190600*
X517722*
G75*
G02X517405Y190419I-2415J3859*
G01*
G37*
X530200Y190600D02*
G36*
Y180600D01*
X538479*
G75*
G02X538795Y180781I2417J-3857*
G01*
Y190419*
G75*
G02X538479Y190600I2101J4039*
G01*
X530200*
G37*
X542995Y190419D02*
G36*
Y180781D01*
G75*
G02X543312Y180600I-2100J-4038*
G01*
X565604*
G75*
G02X575596I4996*
G01*
X575604*
G75*
G02X585596I4996*
G01*
X587602*
Y190600*
X585596*
G75*
G02X575604I-4996*
G01*
X575596*
G75*
G02X565604I-4996*
G01*
X543312*
G75*
G02X542995Y190419I-2415J3859*
G01*
G37*
X3400Y200600D02*
G36*
Y190600D01*
X5604*
G75*
G02X15596I4996*
G01*
X15604*
G75*
G02X25596I4996*
G01*
X31000*
Y200600*
X25596*
G75*
G02X15604I-4996*
G01*
X15596*
G75*
G02X5604I-4996*
G01*
X3400*
G37*
X35200D02*
G36*
Y190600D01*
X42888*
G75*
G02X40752Y194458I2417J3859*
G01*
G75*
G02X49857I4553*
G01*
G75*
G02X47721Y190600I-4553J0*
G01*
X68479*
G75*
G02X66343Y194458I2417J3859*
G01*
G75*
G02X75448I4553*
G01*
G75*
G02X73312Y190600I-4553J0*
G01*
X76000*
Y200600*
X35200*
G37*
X80200D02*
G36*
Y190600D01*
X82888*
G75*
G02X80752Y194458I2417J3859*
G01*
G75*
G02X89857I4553*
G01*
G75*
G02Y194457I-5013J0*
G01*
G75*
G02X87722Y190600I-4551*
G01*
X108479*
G75*
G02X106343Y194458I2417J3859*
G01*
G75*
G02X115448I4553*
G01*
G75*
G02Y194457I-5013J0*
G01*
G75*
G02X113312Y190600I-4551*
G01*
X117752*
Y200600*
X80200*
G37*
X121952D02*
G36*
Y197538D01*
G75*
G02X129857Y194458I3353J-3080*
G01*
G75*
G02Y194457I-5013J0*
G01*
G75*
G02X127722Y190600I-4551*
G01*
X148478*
G75*
G02X146343Y194458I2416J3857*
G01*
G75*
G02X146554Y195830I4552J0*
G01*
X141783Y200600*
X121952*
G37*
X147724D02*
G36*
X149524Y198800D01*
G75*
G02X154741Y196895I1372J-4341*
G01*
G75*
G02X156000Y198524I3362J-1297*
G01*
Y200600*
X147724*
G37*
X160200D02*
G36*
Y198524D01*
G75*
G02X161500Y196783I-2098J-2922*
G01*
G75*
G02X169857Y194283I3805J-2500*
G01*
G75*
G02Y194282I-5013J0*
G01*
G75*
G02X167981Y190600I-4551*
G01*
X188219*
G75*
G02X186343Y194283I2677J3683*
G01*
G75*
G02X190895Y198835I4553*
G01*
G75*
G02X195448Y194283J-4553*
G01*
G75*
G02X193572Y190600I-4553*
G01*
X196000*
Y197676*
G75*
G02X194500Y200600I2099J2924*
G01*
Y200600*
X160200*
G37*
X200200Y197676D02*
G36*
Y190600D01*
X202753*
G75*
G02X200877Y194283I2677J3683*
G01*
G75*
G02X205430Y198835I4553*
G01*
G75*
G02X209983Y194283J-4553*
G01*
G75*
G02Y194271I-3965J-6*
G01*
G75*
G02X209981Y194146I-3928J0*
G01*
G75*
G02X214200Y190600I619J-3546*
G01*
X216000*
Y200600*
X201700*
Y200600*
G75*
G02X200200Y197676I-3599*
G01*
G37*
X220200Y200600D02*
G36*
Y190600D01*
X228344*
G75*
G02X226468Y194283I2677J3683*
G01*
G75*
G02X231020Y198835I4553*
G01*
G75*
G02X235573Y194283J-4553*
G01*
G75*
G02X233697Y190600I-4553*
G01*
X236000*
Y200600*
X220200*
G37*
X240200D02*
G36*
Y190600D01*
X242628*
G75*
G02X240752Y194283I2677J3683*
G01*
G75*
G02X245305Y198835I4553*
G01*
G75*
G02X249857Y194283J-4553*
G01*
G75*
G02X247981Y190600I-4553*
G01*
X256000*
Y200600*
X240200*
G37*
X260200D02*
G36*
Y190600D01*
X268219*
G75*
G02X266343Y194283I2677J3683*
G01*
G75*
G02X275448I4553*
G01*
G75*
G02Y194282I-5013J0*
G01*
G75*
G02X273572Y190600I-4551*
G01*
X276000*
Y200600*
X260200*
G37*
X280200D02*
G36*
Y190600D01*
X282572*
G75*
G02X280752Y194242I2732J3642*
G01*
G75*
G02X289857I4553*
G01*
G75*
G02X288037Y190600I-4553*
G01*
X308163*
G75*
G02X306343Y194242I2732J3642*
G01*
G75*
G02X315448I4553*
G01*
G75*
G02X313628Y190600I-4553*
G01*
X323658*
G75*
G02X321782Y194283I2677J3683*
G01*
G75*
G02X330887I4553*
G01*
G75*
G02X329011Y190600I-4553*
G01*
X349248*
G75*
G02X347372Y194283I2677J3683*
G01*
G75*
G02X351925Y198835I4553*
G01*
G75*
G02X352481Y198801I-3J-4581*
G01*
G75*
G02X352000Y200600I3118J1799*
G01*
X280200*
G37*
X356478Y194283D02*
G36*
G75*
G02X354602Y190600I-4553D01*
G01*
X367630*
X369115Y192085*
G75*
G02X370602Y192700I1485J-1486*
G01*
X377676*
G75*
G02X383500Y192733I2924J-2100*
G01*
Y193100*
G75*
G02X384115Y194585I2102J0*
G01*
X386704Y197173*
G75*
G02X382676Y198500I-1104J3427*
G01*
X358524*
G75*
G02X355578Y197000I-2924J2099*
G01*
G75*
G02X356478Y194283I-3652J-2717*
G01*
G37*
X398524Y191000D02*
G36*
G75*
G02X398190Y190600I-2924J2102D01*
G01*
X408009*
G75*
G02X407676Y191000I2591J2499*
G01*
X398524*
G37*
X413191Y190600D02*
G36*
X413500D01*
Y190967*
G75*
G02X413191Y190600I-2900J2132*
G01*
G37*
X496794Y197676D02*
G36*
Y195643D01*
G75*
G02X505743Y194458I4396J-1184*
G01*
G75*
G02Y194457I-5013J0*
G01*
G75*
G02X503607Y190600I-4551*
G01*
X506000*
Y200176*
G75*
G02X505509Y200600I2100J2925*
G01*
X498294*
G75*
G02X496794Y197676I-3600*
G01*
G37*
X510200Y200176D02*
G36*
Y190600D01*
X512888*
G75*
G02X510752Y194458I2417J3859*
G01*
G75*
G02X519857I4553*
G01*
G75*
G02Y194457I-5013J0*
G01*
G75*
G02X517722Y190600I-4551*
G01*
X526000*
Y200600*
X510690*
G75*
G02X510200Y200176I-2591J2499*
G01*
G37*
X530200Y200600D02*
G36*
Y190600D01*
X538479*
G75*
G02X536343Y194458I2417J3859*
G01*
G75*
G02X545448I4553*
G01*
G75*
G02Y194457I-5013J0*
G01*
G75*
G02X543312Y190600I-4551*
G01*
X565604*
G75*
G02X575596I4996*
G01*
X575604*
G75*
G02X585596I4996*
G01*
X587602*
Y200600*
X585596*
G75*
G02X575604I-4996*
G01*
X575596*
G75*
G02X565604I-4996*
G01*
X530200*
G37*
X3400Y210600D02*
G36*
Y200600D01*
X5604*
G75*
G02X15596I4996*
G01*
X15604*
G75*
G02X25596I4996*
G01*
X31000*
Y210600*
X25596*
G75*
G02X15604I-4996*
G01*
X15596*
G75*
G02X5604I-4996*
G01*
X3400*
G37*
X35200D02*
G36*
Y200600D01*
X76000*
Y210600*
X35200*
G37*
X80200D02*
G36*
Y200600D01*
X117752*
Y210600*
X80200*
G37*
X121952D02*
G36*
Y200600D01*
X141783*
X131783Y210600*
X121952*
G37*
X137723D02*
G36*
X147724Y200600D01*
X156000*
Y210600*
X137723*
G37*
X160200D02*
G36*
Y200600D01*
X194500*
G75*
G02X201700I3600*
G01*
X216000*
Y209730*
X215130Y210600*
X160200*
G37*
X220200D02*
G36*
Y200600D01*
X236000*
Y210600*
X220200*
G37*
X240200D02*
G36*
Y200600D01*
X256000*
Y208100*
G75*
G02X256615Y209585I2102J0*
G01*
X257630Y210600*
X240200*
G37*
X260200Y207230D02*
G36*
Y200600D01*
X276000*
Y205967*
G75*
G02X269500Y208100I-2900J2133*
G01*
Y208100*
G75*
G02X270509Y210600I3599*
G01*
X263570*
X260200Y207230*
G37*
X280200Y205967D02*
G36*
Y200600D01*
X352000*
G75*
G02X353467Y203500I3600*
G01*
X353102*
G75*
G02X351615Y204115I-2J2101*
G01*
X345130Y210600*
X288570*
X286652Y208683*
G75*
G02X286700Y208102I-3510J-580*
G01*
G75*
G02Y208100I-3383J-1*
G01*
G75*
G02X280200Y205967I-3600*
G01*
G37*
X498294Y200600D02*
G36*
X505509D01*
G75*
G02X504500Y203100I2591J2500*
G01*
G75*
G02X504673Y204204I3600J0*
G01*
X504585Y204115*
G75*
G02X503098Y203500I-1485J1486*
G01*
X496828*
G75*
G02X498294Y200600I-2133J-2900*
G01*
G37*
X511070Y210600D02*
G36*
X506996Y206527D01*
G75*
G02X511700Y203100I1104J-3427*
G01*
G75*
G02X510690Y200600I-3600J0*
G01*
X526000*
Y210600*
X511070*
G37*
X530200D02*
G36*
Y200600D01*
X565604*
G75*
G02X575596I4996*
G01*
X575604*
G75*
G02X585596I4996*
G01*
X587602*
Y210600*
X585596*
G75*
G02X575604I-4996*
G01*
X575596*
G75*
G02X565604I-4996*
G01*
X530200*
G37*
X3400Y220600D02*
G36*
Y210600D01*
X5604*
G75*
G02X15596I4996*
G01*
X15604*
G75*
G02X25596I4996*
G01*
X31000*
Y220600*
X25596*
G75*
G02X15604I-4996*
G01*
X15596*
G75*
G02X5604I-4996*
G01*
X3400*
G37*
X35200D02*
G36*
Y210600D01*
X76000*
Y220600*
X62205*
G75*
G02X53995I-4105J2579*
G01*
X35200*
G37*
X80200Y218030D02*
G36*
Y210600D01*
X117752*
Y220600*
X102205*
G75*
G02X93995I-4105J2579*
G01*
X83570*
X86470Y217700*
X101475*
G75*
G02X107999Y215600I2924J-2100*
G01*
G75*
G02X101475Y213500I-3600*
G01*
X85602*
G75*
G02X84115Y214115I-2J2101*
G01*
X80200Y218030*
G37*
X121952Y220600D02*
G36*
Y210600D01*
X131783*
X129115Y213269*
G75*
G02X128724Y213811I1493J1490*
G01*
G75*
G02X122000Y215600I-3124J1789*
G01*
Y215600*
G75*
G02X123500Y218524I3599*
G01*
Y220600*
X121952*
G37*
X127700D02*
G36*
Y218524D01*
G75*
G02X128500Y217733I-2105J-2930*
G01*
Y220600*
X127700*
G37*
X132700D02*
G36*
Y215623D01*
X137723Y210600*
X156000*
Y220600*
X142205*
G75*
G02X133995I-4105J2579*
G01*
X132700*
G37*
X160200D02*
G36*
Y210600D01*
X215130*
X209115Y216615*
G75*
G02X208500Y218100I1487J1485*
G01*
Y220600*
X200200*
Y218524*
G75*
G02X201700Y215600I-2099J-2924*
G01*
Y215600*
G75*
G02X194500I-3600*
G01*
Y215600*
G75*
G02X196000Y218524I3599*
G01*
Y220600*
X190691*
G75*
G02X191700Y218100I-2590J-2500*
G01*
Y218100*
G75*
G02X184500I-3600*
G01*
Y218100*
G75*
G02X185509Y220600I3599*
G01*
X182205*
G75*
G02X173995I-4105J2579*
G01*
X167700*
Y218524*
G75*
G02X169200Y215600I-2099J-2924*
G01*
Y215600*
G75*
G02X162000I-3600*
G01*
Y215600*
G75*
G02X163500Y218524I3599*
G01*
Y220600*
X160200*
G37*
X212700D02*
G36*
Y218970D01*
X219585Y212085*
G75*
G02X220200Y210600I-1487J-1485*
G01*
X236000*
Y220600*
X232700*
Y218524*
G75*
G02X234200Y215600I-2099J-2924*
G01*
Y215600*
G75*
G02X227000I-3600*
G01*
Y215600*
G75*
G02X228500Y218524I3599*
G01*
Y220600*
X222205*
G75*
G02X213995I-4105J2579*
G01*
X212700*
G37*
X240200D02*
G36*
Y210600D01*
X257630*
X266000Y218970*
Y220600*
X262080*
G75*
G02X253870I-4105J2579*
G01*
X240200*
G37*
X269585Y216615D02*
G36*
X263570Y210600D01*
X270509*
G75*
G02X271000Y211024I2590J-2500*
G01*
Y220600*
X270200*
Y218100*
G75*
G02X269585Y216615I-2102J0*
G01*
G37*
X289027Y216996D02*
G36*
X289115Y217085D01*
G75*
G02X290602Y217700I1485J-1486*
G01*
X302676*
G75*
G02X309200Y215600I2924J-2100*
G01*
G75*
G02X302676Y213500I-3600*
G01*
X291470*
X288570Y210600*
X345130*
X344115Y211615*
G75*
G02X343500Y213100I1487J1485*
G01*
Y219294*
G75*
G02X336495Y220600I-2900J3885*
G01*
X335690*
G75*
G02X336700Y218100I-2590J-2500*
G01*
G75*
G02X330176Y216000I-3600*
G01*
X313024*
G75*
G02X311536Y216615I-2J2101*
G01*
X307551Y220600*
X302205*
G75*
G02X293995I-4105J2579*
G01*
X288191*
G75*
G02X289200Y218100I-2591J-2500*
G01*
G75*
G02X289027Y216996I-3600J0*
G01*
G37*
X313491Y220600D02*
G36*
X313891Y220200D01*
X330176*
G75*
G02X330510Y220600I2924J-2102*
G01*
X313491*
G37*
X347700D02*
G36*
Y220233D01*
G75*
G02X348010Y220600I2900J-2135*
G01*
X347700*
G37*
X353190D02*
G36*
G75*
G02X354200Y218100I-2590J-2500D01*
G01*
G75*
G02Y218098I-3383J-1*
G01*
G75*
G02X354152Y217517I-3557*
G01*
X358970Y212700*
X425967*
G75*
G02X424500Y215600I2133J2900*
G01*
G75*
G02X426000Y218524I3600*
G01*
Y220600*
X421018*
G75*
G02X412807I-4105J2579*
G01*
X405691*
G75*
G02X406700Y218100I-2590J-2500*
G01*
Y218100*
G75*
G02X399500I-3600*
G01*
Y218100*
G75*
G02X400509Y220600I3599*
G01*
X398191*
G75*
G02X399200Y218100I-2590J-2500*
G01*
Y218100*
G75*
G02X392000I-3600*
G01*
Y218100*
G75*
G02X393009Y220600I3599*
G01*
X391018*
G75*
G02X382807I-4105J2579*
G01*
X375691*
G75*
G02X376700Y218100I-2590J-2500*
G01*
Y218100*
G75*
G02X370600Y215509I-3600*
G01*
G75*
G02X365600I-2500J2591*
G01*
G75*
G02X359500Y218100I-2500J2591*
G01*
Y218100*
G75*
G02X360509Y220600I3599*
G01*
X353190*
G37*
X430200D02*
G36*
Y218524D01*
G75*
G02X431700Y215600I-2100J-2924*
G01*
G75*
G02X430233Y212700I-3600*
G01*
X459730*
X467630Y220600*
X451018*
G75*
G02X442807I-4105J2579*
G01*
X430200*
G37*
X511700Y218100D02*
G36*
G75*
G02X511527Y216996I-3600J0D01*
G01*
X515130Y220600*
X510691*
G75*
G02X511700Y218100I-2591J-2500*
G01*
G37*
X521070Y220600D02*
G36*
X511070Y210600D01*
X526000*
Y218809*
G75*
G02X523994Y220600I2100J4370*
G01*
X521070*
G37*
X530200Y218809D02*
G36*
Y210600D01*
X565604*
G75*
G02X575596I4996*
G01*
X575604*
G75*
G02X585596I4996*
G01*
X587602*
Y220600*
X585596*
G75*
G02X575604I-4996*
G01*
X575596*
G75*
G02X565604I-4996*
G01*
X532206*
G75*
G02X530200Y218809I-4106J2579*
G01*
G37*
X3400Y230600D02*
G36*
Y220600D01*
X5604*
G75*
G02X15596I4996*
G01*
X15604*
G75*
G02X25596I4996*
G01*
X31000*
Y230600*
X25596*
G75*
G02X15604I-4996*
G01*
X15596*
G75*
G02X5604I-4996*
G01*
X3400*
G37*
X35200D02*
G36*
Y220600D01*
X53995*
G75*
G02X53252Y223179I4106J2579*
G01*
G75*
G02X62948I4848*
G01*
G75*
G02X62205Y220600I-4848J0*
G01*
X76000*
Y229730*
X75130Y230600*
X62300*
G75*
G02X53900I-4200J2422*
G01*
X35200*
G37*
X82700D02*
G36*
Y221470D01*
X83570Y220600*
X93995*
G75*
G02X93252Y223179I4106J2579*
G01*
G75*
G02X102948I4848*
G01*
G75*
G02X102205Y220600I-4848J0*
G01*
X117752*
Y229730*
X116882Y230600*
X102300*
G75*
G02X93900I-4200J2422*
G01*
X82700*
G37*
X121952D02*
G36*
Y220600D01*
X123500*
Y230600*
X121952*
G37*
X127700D02*
G36*
Y220600D01*
X128500*
Y230600*
X127700*
G37*
X132700D02*
G36*
Y220600D01*
X133995*
G75*
G02X133252Y223179I4106J2579*
G01*
G75*
G02X142948I4848*
G01*
G75*
G02X142205Y220600I-4848J0*
G01*
X156000*
Y227230*
X152630Y230600*
X142300*
G75*
G02X133900I-4200J2422*
G01*
X132700*
G37*
X158570D02*
G36*
X159585Y229585D01*
G75*
G02X160200Y228100I-1487J-1485*
G01*
Y220600*
X163500*
Y230176*
G75*
G02X163009Y230600I2099J2924*
G01*
X158570*
G37*
X167700Y230176D02*
G36*
Y220600D01*
X173995*
G75*
G02X173252Y223179I4106J2579*
G01*
G75*
G02X182948I4848*
G01*
G75*
G02X182205Y220600I-4848J0*
G01*
X185509*
G75*
G02X186000Y221024I2590J-2500*
G01*
Y225176*
G75*
G02X184500Y228100I2100J2924*
G01*
G75*
G02X185509Y230600I3600J0*
G01*
X182300*
G75*
G02X173900I-4200J2421*
G01*
X168191*
G75*
G02X167700Y230176I-2590J2500*
G01*
G37*
X190200Y225176D02*
G36*
Y221024D01*
G75*
G02X190691Y220600I-2099J-2924*
G01*
X196000*
Y225176*
G75*
G02X194500Y228100I2100J2924*
G01*
G75*
G02X195509Y230600I3600J0*
G01*
X190691*
G75*
G02X191700Y228100I-2591J-2500*
G01*
G75*
G02X190200Y225176I-3600*
G01*
G37*
X200200D02*
G36*
Y220600D01*
X208500*
Y225521*
G75*
G02X209115Y227006I2102J0*
G01*
X212709Y230600*
X200691*
G75*
G02X201700Y228100I-2591J-2500*
G01*
G75*
G02X200200Y225176I-3600*
G01*
G37*
X212700Y224652D02*
G36*
Y220600D01*
X213995*
G75*
G02X213252Y223179I4106J2579*
G01*
G75*
G02X222948I4848*
G01*
G75*
G02X222205Y220600I-4848J0*
G01*
X228500*
Y230600*
X222300*
G75*
G02X216495Y228446I-4200J2422*
G01*
X212700Y224652*
G37*
X232700Y230600D02*
G36*
Y220600D01*
X236000*
Y230521*
G75*
G02X236002Y230600I2102J-3*
G01*
X232700*
G37*
X240200Y229652D02*
G36*
Y220600D01*
X253870*
G75*
G02X253127Y223179I4106J2579*
G01*
G75*
G02X262823I4848*
G01*
G75*
G02X262080Y220600I-4848J0*
G01*
X266000*
Y230600*
X262175*
G75*
G02X253775I-4200J2421*
G01*
X241148*
X240200Y229652*
G37*
X270200Y225967D02*
G36*
Y220600D01*
X271000*
Y225176*
G75*
G02X270200Y225967I2105J2930*
G01*
G37*
X287700Y227676D02*
G36*
Y221024D01*
G75*
G02X288191Y220600I-2100J-2925*
G01*
X293995*
G75*
G02X293252Y223179I4106J2579*
G01*
G75*
G02X302948I4848*
G01*
G75*
G02X302205Y220600I-4848J0*
G01*
X307551*
X299705Y228446*
G75*
G02X293900Y230600I-1604J4576*
G01*
X289200*
G75*
G02X287700Y227676I-3600*
G01*
G37*
X303491Y230600D02*
G36*
X313491Y220600D01*
X330510*
G75*
G02X335690I2590J-2500*
G01*
X336495*
G75*
G02X335752Y223179I4106J2579*
G01*
Y223179*
G75*
G02X343500Y227064I4848*
G01*
Y227152*
X342205Y228446*
G75*
G02X338937Y228467I-1605J4574*
G01*
X337085Y226615*
G75*
G02X335598Y226000I-1485J1486*
G01*
X323024*
G75*
G02X321536Y226615I-2J2101*
G01*
X317551Y230600*
X303491*
G37*
X323491D02*
G36*
X323891Y230200D01*
X334730*
X335130Y230600*
X323491*
G37*
X345991D02*
G36*
X347085Y229506D01*
G75*
G02X347700Y228021I-1487J-1485*
G01*
Y220600*
X348010*
G75*
G02X353190I2590J-2500*
G01*
X360509*
G75*
G02X361000Y221024I2590J-2500*
G01*
Y228100*
G75*
G02X361615Y229585I2102J0*
G01*
X362630Y230600*
X345991*
G37*
X375200Y222230D02*
G36*
Y221024D01*
G75*
G02X375691Y220600I-2099J-2924*
G01*
X382807*
G75*
G02X382065Y223179I4106J2579*
G01*
G75*
G02X382970Y226000I4848*
G01*
X378970*
X375200Y222230*
G37*
X391761Y223179D02*
G36*
G75*
G02X391018Y220600I-4848J0D01*
G01*
X393009*
G75*
G02X393500Y221024I2590J-2500*
G01*
Y228030*
X392085Y226615*
G75*
G02X390845Y226014I-1484J1483*
G01*
G75*
G02X391761Y223179I-3933J-2836*
G01*
G37*
X397700Y230600D02*
G36*
Y221024D01*
G75*
G02X398191Y220600I-2099J-2924*
G01*
X400509*
G75*
G02X401000Y221024I2590J-2500*
G01*
Y230600*
X397700*
G37*
X405200D02*
G36*
Y221024D01*
G75*
G02X405691Y220600I-2099J-2924*
G01*
X412807*
G75*
G02X412065Y223179I4106J2579*
G01*
G75*
G02X421761I4848*
G01*
G75*
G02X421018Y220600I-4848J0*
G01*
X426000*
Y225521*
G75*
G02X426615Y227006I2102J0*
G01*
X430209Y230600*
X421113*
G75*
G02X412713I-4200J2421*
G01*
X405200*
G37*
X430200Y224652D02*
G36*
Y220600D01*
X442807*
G75*
G02X442065Y223179I4106J2579*
G01*
G75*
G02X451761I4848*
G01*
G75*
G02X451018Y220600I-4848J0*
G01*
X467630*
X477630Y230600*
X451113*
G75*
G02X442713I-4200J2422*
G01*
X436148*
X430200Y224652*
G37*
X510200Y230600D02*
G36*
Y221024D01*
G75*
G02X510691Y220600I-2100J-2925*
G01*
X515130*
X524409Y229878*
G75*
G02X523900Y230600I3693J3143*
G01*
X510200*
G37*
X523267Y222797D02*
G36*
X521070Y220600D01*
X523994*
G75*
G02X523267Y222797I4106J2578*
G01*
G37*
X528678Y228208D02*
G36*
X528481Y228012D01*
G75*
G02X532948Y223179I-381J-4833*
G01*
G75*
G02X532206Y220600I-4848J0*
G01*
X565604*
G75*
G02X575596I4996*
G01*
X575604*
G75*
G02X585596I4996*
G01*
X587602*
Y230600*
X585596*
G75*
G02X575604I-4996*
G01*
X575596*
G75*
G02X565604I-4996*
G01*
X532300*
G75*
G02X528678Y228208I-4200J2422*
G01*
G37*
X3400Y240600D02*
G36*
Y230600D01*
X5604*
G75*
G02X15596I4996*
G01*
X15604*
G75*
G02X25596I4996*
G01*
X31000*
Y240600*
X25596*
G75*
G02X15604I-4996*
G01*
X15596*
G75*
G02X5604I-4996*
G01*
X3400*
G37*
X35200D02*
G36*
Y230600D01*
X53900*
G75*
G02X53252Y233021I4200J2422*
G01*
G75*
G02X55893Y237337I4848J0*
G01*
X52630Y240600*
X35200*
G37*
X62470Y230921D02*
G36*
G75*
G02X62300Y230600I-4370J2103D01*
G01*
X75130*
X74809Y230921*
X62470*
G37*
X78170Y238500D02*
G36*
X82085Y234585D01*
G75*
G02X82700Y233100I-1487J-1485*
G01*
Y230600*
X93900*
G75*
G02X93252Y233021I4200J2422*
G01*
G75*
G02X102470Y235121I4848J0*
G01*
X117428*
G75*
G02X118916Y234506I2J-2101*
G01*
X121337Y232085*
G75*
G02X121952Y230600I-1487J-1485*
G01*
X123500*
Y232230*
X117230Y238500*
X78170*
G37*
X102470Y230921D02*
G36*
G75*
G02X102300Y230600I-4370J2103D01*
G01*
X116882*
X116561Y230921*
X102470*
G37*
X121070Y240600D02*
G36*
X127085Y234585D01*
G75*
G02X127700Y233100I-1487J-1485*
G01*
Y230600*
X128500*
Y238100*
G75*
G02X129115Y239585I2102J0*
G01*
X130130Y240600*
X121070*
G37*
X132700Y237230D02*
G36*
Y230600D01*
X133900*
G75*
G02X133252Y233021I4200J2422*
G01*
G75*
G02X142470Y235121I4848J0*
G01*
X153176*
G75*
G02X154664Y234506I2J-2101*
G01*
X158570Y230600*
X163009*
G75*
G02X162000Y233100I2590J2500*
G01*
Y233100*
G75*
G02X169200I3600*
G01*
Y233100*
G75*
G02X168191Y230600I-3599*
G01*
X173900*
G75*
G02X173252Y233021I4201J2421*
G01*
G75*
G02X182431Y235200I4848*
G01*
X207230*
X212630Y240600*
X200690*
G75*
G02X195510I-2590J2500*
G01*
X175690*
G75*
G02X170510I-2590J2500*
G01*
X136070*
X132700Y237230*
G37*
X142470Y230921D02*
G36*
G75*
G02X142300Y230600I-4370J2103D01*
G01*
X152630*
X152309Y230921*
X142470*
G37*
X182507Y231000D02*
G36*
G75*
G02X182300Y230600I-4407J2020D01*
G01*
X185509*
G75*
G02X185967Y231000I2591J-2501*
G01*
X182507*
G37*
X190233D02*
G36*
G75*
G02X190691Y230600I-2133J-2901D01*
G01*
X195509*
G75*
G02X195967Y231000I2591J-2501*
G01*
X190233*
G37*
X200233D02*
G36*
G75*
G02X200691Y230600I-2133J-2901D01*
G01*
X212709*
X213525Y231417*
G75*
G02X213252Y233021I4575J1605*
G01*
G75*
G02X219705Y237596I4848*
G01*
X222709Y240600*
X218570*
X209585Y231615*
G75*
G02X208098Y231000I-1485J1486*
G01*
X200233*
G37*
X222948Y233022D02*
G36*
G75*
G02X222300Y230600I-4848D01*
G01*
X228500*
Y232676*
G75*
G02X227000Y235600I2099J2924*
G01*
Y235600*
G75*
G02X234200I3600*
G01*
Y235600*
G75*
G02X232700Y232676I-3599*
G01*
Y230600*
X236002*
G75*
G02X236615Y232006I2100J-79*
G01*
X239115Y234506*
G75*
G02X240602Y235121I1485J-1486*
G01*
X253605*
G75*
G02X259580Y237596I4369J-2100*
G01*
X262583Y240600*
X228649*
X222675Y234626*
G75*
G02X222948Y233022I-4575J-1605*
G01*
G37*
X241470Y230921D02*
G36*
X241148Y230600D01*
X253775*
G75*
G02X253605Y230921I4201J2424*
G01*
X241470*
G37*
X262823Y233021D02*
G36*
G75*
G02X262175Y230600I-4848J0D01*
G01*
X266000*
G75*
G02X266615Y232085I2102J0*
G01*
X271615Y237085*
G75*
G02X273102Y237700I1485J-1486*
G01*
X295519*
G75*
G02X296334Y237536I4J-2093*
G01*
G75*
G02X302948Y233021I1766J-4515*
G01*
G75*
G02X302675Y231417I-4848*
G01*
X303491Y230600*
X317551*
X316615Y231536*
G75*
G02X316315Y231915I1465J1467*
G01*
X309115Y239115*
G75*
G02X308955Y239294I1405J1412*
G01*
G75*
G02X302676Y238500I-3355J1306*
G01*
X266423*
X262550Y234626*
G75*
G02X262823Y233021I-4575J-1605*
G01*
G37*
X289200Y230600D02*
G36*
X293900D01*
G75*
G02X293252Y233022I4200J2422*
G01*
G75*
G02X293276Y233500I4850J0*
G01*
X287733*
G75*
G02X289200Y230600I-2133J-2900*
G01*
G37*
X313570Y240600D02*
G36*
X319585Y234585D01*
G75*
G02X319885Y234206I-1465J-1467*
G01*
X323491Y230600*
X335130*
X336005Y231475*
G75*
G02X335752Y233021I4598J1547*
G01*
G75*
G02X345448I4848*
G01*
G75*
G02X345175Y231417I-4857J2*
G01*
X345991Y230600*
X362630*
X372630Y240600*
X369200*
G75*
G02X362676Y238500I-3600*
G01*
X333524*
G75*
G02X327676I-2924J2100*
G01*
X325602*
G75*
G02X324115Y239115I-2J2101*
G01*
X322630Y240600*
X313570*
G37*
X397700D02*
G36*
Y230600D01*
X401000*
Y240600*
X397700*
G37*
X405200D02*
G36*
Y230600D01*
X412713*
G75*
G02X412065Y233021I4200J2422*
G01*
Y233022*
G75*
G02X414813Y237391I4848*
G01*
Y240600*
X405200*
G37*
X419013D02*
G36*
Y237391D01*
G75*
G02X421761Y233022I-2100J-4369*
G01*
Y233021*
G75*
G02X421113Y230600I-4848J0*
G01*
X430209*
X434115Y234506*
G75*
G02X435602Y235121I1485J-1486*
G01*
X441843*
X436364Y240600*
X419013*
G37*
X436470Y230921D02*
G36*
X436148Y230600D01*
X442713*
G75*
G02X442543Y230921I4201J2424*
G01*
X436470*
G37*
X442304Y240600D02*
G36*
X445308Y237596D01*
G75*
G02X451761Y233022I1605J-4574*
G01*
Y233021*
G75*
G02X451113Y230600I-4848J0*
G01*
X477630*
X481536Y234506*
G75*
G02X483024Y235121I1485J-1486*
G01*
X484026*
G75*
G02X492726Y235200I4370J-2100*
G01*
X505598*
G75*
G02X507085Y234585I2J-2101*
G01*
X509585Y232085*
G75*
G02X510200Y230600I-1487J-1485*
G01*
X523900*
G75*
G02X523252Y233021I4202J2422*
G01*
G75*
G02X532948I4848*
G01*
G75*
G02X532300Y230600I-4848J0*
G01*
X565604*
G75*
G02Y230602I4904J1*
G01*
G75*
G02X565910Y232320I4986*
G01*
X557630Y240600*
X442304*
G37*
X565604D02*
G36*
X563570D01*
X566735Y237435*
G75*
G02X565604Y240600I3866J3165*
G01*
G37*
X567435Y236735D02*
G36*
X568880Y235290D01*
G75*
G02X575596Y230600I1720J-4691*
G01*
X575604*
G75*
G02X585596I4996*
G01*
X587602*
Y240600*
X585596*
G75*
G02X575604I-4996*
G01*
X575596*
Y240600*
G75*
G02X567435Y236735I-4996*
G01*
G37*
X3400Y250600D02*
G36*
Y240600D01*
X5604*
G75*
G02X15596I4996*
G01*
X15604*
G75*
G02X25596I4996*
G01*
X31000*
Y245600*
G75*
G02X31615Y247085I2102J0*
G01*
X35130Y250600*
X25596*
G75*
G02X15604I-4996*
G01*
X15596*
Y245604*
X5604*
Y250600*
X3400*
G37*
X35200Y244730D02*
G36*
Y240600D01*
X52630*
X51615Y241615*
G75*
G02X51000Y243100I1487J1485*
G01*
Y248467*
G75*
G02X44500Y250600I-2900J2133*
G01*
X41070*
X35200Y244730*
G37*
X60200Y250600D02*
G36*
Y246470D01*
X63970Y242700*
X118098*
G75*
G02X119585Y242085I2J-2101*
G01*
X121070Y240600*
X130130*
X140130Y250600*
X60200*
G37*
X146070D02*
G36*
X136070Y240600D01*
X170510*
G75*
G02X169500Y243100I2590J2500*
G01*
G75*
G02X170120Y245120I3600*
G01*
G75*
G02X164500Y248100I-2020J2980*
G01*
G75*
G02X165510Y250600I3600J0*
G01*
X146070*
G37*
X170690D02*
G36*
G75*
G02X171024Y250200I-2591J-2502D01*
G01*
X190176*
G75*
G02X190510Y250600I2924J-2101*
G01*
X170690*
G37*
X176024Y241000D02*
G36*
G75*
G02X175690Y240600I-2924J2101D01*
G01*
X195510*
G75*
G02X195176Y241000I2591J2502*
G01*
X176024*
G37*
X196700Y248100D02*
G36*
G75*
G02X196080Y246080I-3600D01*
G01*
G75*
G02X201700Y243100I2020J-2980*
G01*
G75*
G02X200690Y240600I-3600J0*
G01*
X212630*
X221615Y249585*
G75*
G02X222640Y250149I1484J-1484*
G01*
G75*
G02X223010Y250600I2960J-2048*
G01*
X195690*
G75*
G02X196700Y248100I-2590J-2500*
G01*
G37*
X218570Y240600D02*
G36*
X222709D01*
X226823Y244714*
G75*
G02X223300Y245330I-1223J3385*
G01*
X218570Y240600*
G37*
X229200Y248100D02*
G36*
G75*
G02X228986Y246877I-3600D01*
G01*
X232709Y250600*
X228191*
G75*
G02X229200Y248100I-2591J-2499*
G01*
G37*
X237000Y248099D02*
G36*
G75*
G02X237139Y249090I3600J0D01*
G01*
X228649Y240600*
X262583*
X264069Y242085*
G75*
G02X265556Y242700I1485J-1486*
G01*
X302676*
G75*
G02X308500Y242733I2924J-2100*
G01*
Y245967*
G75*
G02X302676Y246000I-2900J2133*
G01*
X243524*
G75*
G02X237000Y248099I-2924J2099*
G01*
G37*
X312700Y250600D02*
G36*
Y241470D01*
X313570Y240600*
X322630*
X319115Y244115*
G75*
G02X318500Y245600I1487J1485*
G01*
Y250600*
X312700*
G37*
X322700D02*
G36*
Y246470D01*
X326470Y242700*
X327676*
G75*
G02X333524I2924J-2100*
G01*
X362676*
G75*
G02X369200Y240600I2924J-2100*
G01*
X372630*
X374548Y242517*
G75*
G02X374500Y243098I3510J580*
G01*
G75*
G02Y243100I3383J1*
G01*
Y243100*
G75*
G02X375967Y246000I3599*
G01*
X368524*
G75*
G02X362676I-2924J2100*
G01*
X333524*
G75*
G02X327000Y248100I-2924J2100*
G01*
G75*
G02X328010Y250600I3600J0*
G01*
X322700*
G37*
X333190D02*
G36*
G75*
G02X333524Y250200I-2591J-2502D01*
G01*
X362676*
G75*
G02X363010Y250600I2924J-2102*
G01*
X333190*
G37*
X368190D02*
G36*
G75*
G02X368524Y250200I-2591J-2502D01*
G01*
X380176*
G75*
G02X380510Y250600I2924J-2102*
G01*
X368190*
G37*
X391700Y250598D02*
G36*
G75*
G02X391652Y250017I-3557D01*
G01*
X393500Y248170*
Y250600*
X391700*
G75*
G02Y250598I-3383J-1*
G01*
G37*
X397700Y250600D02*
G36*
Y240600D01*
X401000*
Y242676*
G75*
G02X399500Y245600I2099J2924*
G01*
Y245600*
G75*
G02X406700I3600*
G01*
Y245600*
G75*
G02X405200Y242676I-3599*
G01*
Y240600*
X414813*
Y240918*
X405130Y250600*
X397700*
G37*
X411070D02*
G36*
X418398Y243272D01*
G75*
G02X419013Y241787I-1487J-1485*
G01*
Y240600*
X436364*
X426364Y250600*
X411070*
G37*
X432304D02*
G36*
X442304Y240600D01*
X557630*
X547630Y250600*
X432304*
G37*
X561000Y248100D02*
G36*
Y250600D01*
X553570*
X563570Y240600*
X565604*
G75*
G02X565910Y242320I4996*
G01*
X561615Y246615*
G75*
G02X561000Y248100I1487J1485*
G01*
G37*
X565200Y250600D02*
G36*
Y248970D01*
X565604Y248566*
Y250600*
X565200*
G37*
X568566Y245604D02*
G36*
X568880Y245290D01*
G75*
G02X575596Y240600I1720J-4691*
G01*
X575604*
G75*
G02X585596I4996*
G01*
X587602*
Y250600*
X585596*
G75*
G02X575604I-4996*
G01*
X575596*
Y245604*
X568566*
G37*
X3400Y281037D02*
G36*
Y250600D01*
X5604*
Y255596*
X15596*
Y250600*
X15604*
G75*
G02X25596I4996*
G01*
X35130*
X39548Y255017*
G75*
G02X39500Y255598I3510J580*
G01*
G75*
G02Y255600I3383J1*
G01*
G75*
G02X46000Y257733I3600*
G01*
Y262676*
G75*
G02X44500Y265600I2099J2924*
G01*
Y265600*
G75*
G02X50600Y268191I3600*
G01*
G75*
G02X55600I2500J-2591*
G01*
G75*
G02X61700Y265600I2500J-2591*
G01*
Y265600*
G75*
G02X60200Y262676I-3599*
G01*
Y250600*
X140130*
X156000Y266470*
Y277151*
G75*
G02X153683Y281037I2100J3886*
G01*
X152517*
G75*
G02X148100Y276620I-4417*
G01*
G75*
G02X143683Y281037J4417*
G01*
X142517*
G75*
G02X138100Y276620I-4417*
G01*
G75*
G02X133683Y281037J4417*
G01*
X132517*
G75*
G02X128100Y276620I-4417*
G01*
G75*
G02X123683Y281037J4417*
G01*
X60200*
Y278524*
G75*
G02X61700Y275600I-2099J-2924*
G01*
Y275600*
G75*
G02X55600Y273009I-3600*
G01*
G75*
G02X50600I-2500J2591*
G01*
G75*
G02X44500Y275600I-2500J2591*
G01*
Y275600*
G75*
G02X46000Y278524I3599*
G01*
Y281037*
X3400*
G37*
X42517Y252048D02*
G36*
X41070Y250600D01*
X44500*
G75*
G02X45120Y252620I3600*
G01*
G75*
G02X42517Y252048I-2020J2979*
G01*
G37*
X159585Y264115D02*
G36*
X146070Y250600D01*
X165510*
G75*
G02X170690I2590J-2500*
G01*
X190510*
G75*
G02X195690I2590J-2500*
G01*
X223010*
G75*
G02X228191I2591J-2500*
G01*
X232709*
X236694Y254585*
G75*
G02X238181Y255200I1485J-1486*
G01*
X293467*
G75*
G02X292000Y258100I2135J2901*
G01*
G75*
G02Y258102I3383J1*
G01*
G75*
G02X292048Y258683I3557*
G01*
X289115Y261615*
G75*
G02X288500Y263100I1487J1485*
G01*
Y265967*
G75*
G02X282676Y266000I-2900J2133*
G01*
X243102*
G75*
G02X241615Y266615I-2J2101*
G01*
X227193Y281037*
X212517*
G75*
G02X203683I-4417*
G01*
X202517*
G75*
G02X198100Y276620I-4417*
G01*
G75*
G02X193683Y281037J4417*
G01*
X192517*
G75*
G02X188100Y276620I-4417*
G01*
G75*
G02X183683Y281037J4417*
G01*
X182517*
G75*
G02X178100Y276620I-4417*
G01*
G75*
G02X173683Y281037J4417*
G01*
X172517*
G75*
G02X168100Y276620I-4417*
G01*
G75*
G02X163683Y281037J4417*
G01*
X162517*
G75*
G02X160200Y277151I-4417*
G01*
Y265600*
G75*
G02X159585Y264115I-2102J0*
G01*
G37*
X242213Y281037D02*
G36*
X233133D01*
X243970Y270200*
X282676*
G75*
G02X288500Y270233I2924J-2100*
G01*
Y281037*
X248113*
G75*
G02X242213I-2950J2063*
G01*
G37*
X312700D02*
G36*
Y250600D01*
X318500*
Y281037*
X312700*
G37*
X322700D02*
G36*
Y250600D01*
X328010*
G75*
G02X333190I2590J-2500*
G01*
X363010*
G75*
G02X368190I2590J-2500*
G01*
X380510*
G75*
G02X384585Y251379I2590J-2501*
G01*
G75*
G02X391700Y250600I3515J-780*
G01*
X393500*
Y256000*
X333524*
G75*
G02X327000Y258100I-2924J2100*
G01*
Y258100*
G75*
G02X328500Y261024I3599*
G01*
Y281037*
X322700*
G37*
X332700D02*
G36*
Y270233D01*
G75*
G02X338524Y270200I2900J-2133*
G01*
X357676*
G75*
G02X364200Y268100I2924J-2100*
G01*
Y268100*
G75*
G02X362733Y265200I-3599*
G01*
X390176*
G75*
G02X396700Y263100I2924J-2100*
G01*
Y263100*
G75*
G02X395233Y260200I-3599*
G01*
X400598*
G75*
G02X402085Y259585I2J-2101*
G01*
X411070Y250600*
X426364*
X408464Y268500*
X376024*
G75*
G02X369500Y270600I-2924J2100*
G01*
G75*
G02X376024Y272700I3600*
G01*
X390967*
G75*
G02X389500Y275600I2135J2901*
G01*
G75*
G02Y275602I3383J1*
G01*
G75*
G02X389548Y276183I3557*
G01*
X384693Y281037*
X332700*
G37*
X390633D02*
G36*
X392517Y279152D01*
G75*
G02X396700Y275600I583J-3552*
G01*
G75*
G02X395233Y272700I-3600*
G01*
X409331*
G75*
G02X410819Y272085I2J-2101*
G01*
X432304Y250600*
X547630*
X534115Y264115*
G75*
G02X533500Y265600I1487J1485*
G01*
Y281037*
X390633*
G37*
X397700Y256000D02*
G36*
Y250600D01*
X405130*
X399730Y256000*
X397700*
G37*
X537700Y281037D02*
G36*
Y266470D01*
X553570Y250600*
X561000*
Y281037*
X537700*
G37*
X565200D02*
G36*
Y250600D01*
X565604*
Y255596*
X568500*
Y281037*
X565200*
G37*
X572700D02*
G36*
Y255596D01*
X575596*
Y250600*
X575604*
G75*
G02X585596I4996*
G01*
X587602*
Y281037*
X572700*
G37*
X3400Y288100D02*
G36*
Y281037D01*
X46000*
Y288100*
X3400*
G37*
X60200D02*
G36*
Y281037D01*
X123683*
G75*
G02X125781Y284796I4417*
G01*
Y288100*
X60200*
G37*
X129981D02*
G36*
Y285033D01*
G75*
G02X132517Y281037I-1881J-3996*
G01*
X133683*
G75*
G02X136000Y284923I4417*
G01*
Y288100*
X129981*
G37*
X140200D02*
G36*
Y284923D01*
G75*
G02X142517Y281037I-2100J-3886*
G01*
X143683*
G75*
G02X145781Y284796I4417*
G01*
Y288100*
X140200*
G37*
X149981D02*
G36*
Y285033D01*
G75*
G02X152517Y281037I-1881J-3996*
G01*
X153683*
G75*
G02X155781Y284796I4417J0*
G01*
Y288100*
X149981*
G37*
X159981D02*
G36*
Y285033D01*
G75*
G02X162517Y281037I-1881J-3996*
G01*
X163683*
G75*
G02X166000Y284923I4417*
G01*
Y288100*
X159981*
G37*
X170200D02*
G36*
Y284923D01*
G75*
G02X172517Y281037I-2100J-3886*
G01*
X173683*
G75*
G02X176000Y284923I4417*
G01*
Y288100*
X170200*
G37*
X180200D02*
G36*
Y284923D01*
G75*
G02X182517Y281037I-2100J-3886*
G01*
X183683*
G75*
G02X186000Y284923I4417*
G01*
Y288100*
X180200*
G37*
X190200D02*
G36*
Y284923D01*
G75*
G02X192517Y281037I-2100J-3886*
G01*
X193683*
G75*
G02X196000Y284923I4417*
G01*
Y288100*
X190200*
G37*
X200200D02*
G36*
Y284923D01*
G75*
G02X202517Y281037I-2100J-3886*
G01*
X203683*
G75*
G02X212517I4417*
G01*
X227193*
X220130Y288100*
X200200*
G37*
X226070D02*
G36*
X233133Y281037D01*
X242213*
G75*
G02X241563Y283100I2950J2063*
G01*
G75*
G02X241976Y284773I3600*
G01*
G75*
G02X237000Y288100I-1375J3327*
G01*
X226070*
G37*
X247263D02*
G36*
Y286024D01*
G75*
G02X248763Y283100I-2099J-2924*
G01*
Y283100*
G75*
G02X248113Y281037I-3600*
G01*
X288500*
Y288100*
X258763*
G75*
G02X251563I-3600*
G01*
X247263*
G37*
X312700D02*
G36*
Y281037D01*
X318500*
Y288100*
X312700*
G37*
X322700D02*
G36*
Y281037D01*
X328500*
Y288100*
X322700*
G37*
X332700D02*
G36*
Y281037D01*
X384693*
X377630Y288100*
X332700*
G37*
X383570D02*
G36*
X390633Y281037D01*
X533500*
Y288100*
X383570*
G37*
X537700D02*
G36*
Y281037D01*
X561000*
Y288100*
X537700*
G37*
X565200D02*
G36*
Y281037D01*
X568500*
Y288100*
X565200*
G37*
X572700D02*
G36*
Y281037D01*
X587602*
Y288100*
X572700*
G37*
X3400Y296348D02*
G36*
Y288100D01*
X46000*
Y296348*
X3400*
G37*
X60200D02*
G36*
Y288100D01*
X125781*
Y296348*
X60200*
G37*
X129981D02*
G36*
Y288100D01*
X136000*
Y296348*
X129981*
G37*
X140200D02*
G36*
Y288100D01*
X145781*
Y296348*
X140200*
G37*
X149981D02*
G36*
Y288100D01*
X155781*
Y296348*
X149981*
G37*
X159981D02*
G36*
Y288100D01*
X166000*
Y296348*
X159981*
G37*
X170200D02*
G36*
Y288100D01*
X176000*
Y296348*
X170200*
G37*
X180200D02*
G36*
Y288100D01*
X186000*
Y296348*
X180200*
G37*
X190200D02*
G36*
Y288100D01*
X196000*
Y296348*
X190200*
G37*
X200200D02*
G36*
Y288100D01*
X220130*
X211882Y296348*
X200200*
G37*
X217822D02*
G36*
X226070Y288100D01*
X237000*
G75*
G02X243063Y290726I3600*
G01*
Y296348*
X217822*
G37*
X247263D02*
G36*
Y288100D01*
X251563*
G75*
G02X258763I3600*
G01*
X288500*
Y296348*
X247263*
G37*
X312700D02*
G36*
Y288100D01*
X318500*
Y296348*
X312700*
G37*
X322700D02*
G36*
Y288100D01*
X328500*
Y296348*
X322700*
G37*
X332700D02*
G36*
Y288100D01*
X377630*
X369382Y296348*
X332700*
G37*
X375322D02*
G36*
X383570Y288100D01*
X533500*
Y296348*
X442495*
G75*
G02X433390I-4553*
G01*
X432653*
G75*
G02X423547I-4553*
G01*
X422810*
G75*
G02X413705I-4553*
G01*
X375322*
G37*
X537700D02*
G36*
Y288100D01*
X561000*
Y296348*
X537700*
G37*
X565200D02*
G36*
Y288100D01*
X568500*
Y296348*
X565200*
G37*
X572700D02*
G36*
Y288100D01*
X587602*
Y296348*
X572700*
G37*
X3400Y302474D02*
G36*
Y296348D01*
X46000*
Y302474*
X3400*
G37*
X60200D02*
G36*
Y296348D01*
X125781*
Y299210*
G75*
G02X124000Y302474I2100J3264*
G01*
X121763*
G75*
G02X114000I-3881*
G01*
X111763*
G75*
G02X104000I-3881*
G01*
X101763*
G75*
G02X94000I-3881*
G01*
X91763*
G75*
G02X84000I-3881*
G01*
X81763*
G75*
G02X74000I-3881*
G01*
X71763*
G75*
G02X64000I-3881*
G01*
X60200*
G37*
X129981Y299210D02*
G36*
Y296348D01*
X136000*
Y299079*
G75*
G02X134000Y302474I1881J3394*
G01*
Y302474*
X131763*
G75*
G02X129981Y299210I-3881*
G01*
G37*
X140200Y299361D02*
G36*
Y296348D01*
X145781*
Y299210*
G75*
G02X144000Y302474I2100J3264*
G01*
X141763*
Y302474*
G75*
G02X140200Y299361I-3881*
G01*
G37*
X149981Y299210D02*
G36*
Y296348D01*
X155781*
Y299210*
G75*
G02X154000Y302474I2100J3264*
G01*
X151763*
G75*
G02X149981Y299210I-3881*
G01*
G37*
X159981D02*
G36*
Y296348D01*
X166000*
Y299079*
G75*
G02X164000Y302474I1881J3394*
G01*
Y302474*
X161763*
G75*
G02X159981Y299210I-3881*
G01*
G37*
X170200Y299361D02*
G36*
Y296348D01*
X176000*
Y299079*
G75*
G02X174000Y302474I1881J3394*
G01*
Y302474*
X171763*
Y302474*
G75*
G02X170200Y299361I-3881*
G01*
G37*
X180200D02*
G36*
Y296348D01*
X186000*
Y299079*
G75*
G02X184000Y302474I1881J3394*
G01*
Y302474*
X181763*
Y302474*
G75*
G02X180200Y299361I-3881*
G01*
G37*
X190200D02*
G36*
Y296348D01*
X196000*
Y299079*
G75*
G02X194000Y302474I1881J3394*
G01*
Y302474*
X191763*
Y302474*
G75*
G02X190200Y299361I-3881*
G01*
G37*
X200200D02*
G36*
Y296348D01*
X211882*
X205756Y302474*
X201763*
Y302474*
G75*
G02X200200Y299361I-3881*
G01*
G37*
X211696Y302474D02*
G36*
X217822Y296348D01*
X243063*
Y299210*
G75*
G02X241899Y300374I2102J3266*
G01*
X238728*
G75*
G02X237241Y300989I-2J2101*
G01*
X235756Y302474*
X224885*
G75*
G02X221315I-1785J3126*
G01*
X211696*
G37*
X247263Y299210D02*
G36*
Y296348D01*
X288500*
Y300491*
G75*
G02X281281Y302474I-3337J1983*
G01*
X279044*
G75*
G02X271281I-3881*
G01*
X269044*
G75*
G02X261281I-3881*
G01*
X259044*
G75*
G02X251281I-3881*
G01*
X249044*
G75*
G02X247263Y299210I-3881*
G01*
G37*
X312700Y299474D02*
G36*
Y296348D01*
X318500*
Y300491*
G75*
G02X312700Y299474I-3337J1983*
G01*
G37*
X322700D02*
G36*
Y296348D01*
X328500*
Y300491*
G75*
G02X322700Y299474I-3337J1983*
G01*
G37*
X332700D02*
G36*
Y296348D01*
X369382*
X369115Y296615*
G75*
G02X368500Y298100I1487J1485*
G01*
Y300491*
G75*
G02X361281Y302474I-3337J1983*
G01*
X359044*
G75*
G02X351281I-3881*
G01*
X349044*
G75*
G02X341281I-3881*
G01*
X339044*
G75*
G02X332700Y299474I-3881*
G01*
G37*
X372700D02*
G36*
Y298970D01*
X375322Y296348*
X413705*
G75*
G02X422810I4553*
G01*
X423547*
G75*
G02X432653I4553*
G01*
X433390*
G75*
G02X442495I4553*
G01*
X533500*
Y302474*
X379044*
G75*
G02X372700Y299474I-3881*
G01*
G37*
X537700Y302474D02*
G36*
Y296348D01*
X561000*
Y302474*
X537700*
G37*
X565200D02*
G36*
Y296348D01*
X568500*
Y302474*
X565200*
G37*
X572700D02*
G36*
Y296348D01*
X587602*
Y302474*
X572700*
G37*
X3400Y305600D02*
G36*
Y302474D01*
X46000*
Y305600*
X3400*
G37*
X60200D02*
G36*
Y302474D01*
X64000*
G75*
G02X65581Y305600I3881*
G01*
X60200*
G37*
X70182D02*
G36*
G75*
G02X71763Y302474I-2301J-3126D01*
G01*
X74000*
G75*
G02X75581Y305600I3881*
G01*
X70182*
G37*
X80182D02*
G36*
G75*
G02X81763Y302474I-2301J-3126D01*
G01*
X84000*
G75*
G02X85581Y305600I3881*
G01*
X80182*
G37*
X90182D02*
G36*
G75*
G02X91763Y302474I-2301J-3126D01*
G01*
X94000*
G75*
G02X95581Y305600I3881*
G01*
X90182*
G37*
X100182D02*
G36*
G75*
G02X101763Y302474I-2301J-3126D01*
G01*
X104000*
G75*
G02X105581Y305600I3881*
G01*
X100182*
G37*
X110182D02*
G36*
G75*
G02X111763Y302474I-2301J-3126D01*
G01*
X114000*
G75*
G02X115581Y305600I3881*
G01*
X110182*
G37*
X120182D02*
G36*
G75*
G02X121763Y302474I-2301J-3126D01*
G01*
X124000*
G75*
G02X125581Y305600I3881*
G01*
X120182*
G37*
X130182D02*
G36*
G75*
G02X131763Y302474I-2301J-3126D01*
G01*
X134000*
G75*
G02X135581Y305600I3881*
G01*
X130182*
G37*
X140182D02*
G36*
G75*
G02X141763Y302474I-2301J-3126D01*
G01*
X144000*
G75*
G02X145581Y305600I3881*
G01*
X140182*
G37*
X150182D02*
G36*
G75*
G02X151763Y302474I-2301J-3126D01*
G01*
X154000*
G75*
G02X155581Y305600I3881*
G01*
X150182*
G37*
X160182D02*
G36*
G75*
G02X161763Y302474I-2301J-3126D01*
G01*
X164000*
G75*
G02X165581Y305600I3881*
G01*
X160182*
G37*
X170182D02*
G36*
G75*
G02X171763Y302474I-2301J-3126D01*
G01*
X174000*
G75*
G02X175581Y305600I3881*
G01*
X170182*
G37*
X180182D02*
G36*
G75*
G02X181763Y302474I-2301J-3126D01*
G01*
X184000*
G75*
G02X185581Y305600I3881*
G01*
X180182*
G37*
X190182D02*
G36*
G75*
G02X191763Y302474I-2301J-3126D01*
G01*
X194000*
G75*
G02X195581Y305600I3881*
G01*
X190182*
G37*
X200182D02*
G36*
G75*
G02X201763Y302474I-2301J-3126D01*
G01*
X205756*
X202630Y305600*
X200182*
G37*
X208570D02*
G36*
X211696Y302474D01*
X221315*
G75*
G02X219500Y305600I1785J3126*
G01*
X208570*
G37*
X226700D02*
G36*
G75*
G02X224885Y302474I-3600D01*
G01*
X235756*
X234115Y304115*
G75*
G02X233500Y305600I1487J1485*
G01*
X226700*
G37*
X238570D02*
G36*
X239596Y304574D01*
X241899*
G75*
G02X242862Y305600I3264J-2100*
G01*
X238570*
G37*
X249044Y302474D02*
G36*
X251281D01*
G75*
G02X252862Y305600I3881*
G01*
X247464*
G75*
G02X249044Y302474I-2301J-3126*
G01*
G37*
X257464Y305600D02*
G36*
G75*
G02X259044Y302474I-2301J-3126D01*
G01*
X261281*
G75*
G02X262862Y305600I3881*
G01*
X257464*
G37*
X267464D02*
G36*
G75*
G02X269044Y302474I-2301J-3126D01*
G01*
X271281*
G75*
G02X272862Y305600I3881*
G01*
X267464*
G37*
X277464D02*
G36*
G75*
G02X279044Y302474I-2301J-3126D01*
G01*
X281281*
G75*
G02X282862Y305600I3881*
G01*
X277464*
G37*
X287464D02*
G36*
G75*
G02X288500Y304457I-2301J-3126D01*
G01*
Y305600*
X287464*
G37*
X312700D02*
G36*
Y305474D01*
G75*
G02X312862Y305600I2463J-2997*
G01*
X312700*
G37*
X317464D02*
G36*
G75*
G02X318500Y304457I-2301J-3126D01*
G01*
Y305600*
X317464*
G37*
X322700D02*
G36*
Y305474D01*
G75*
G02X322862Y305600I2463J-2997*
G01*
X322700*
G37*
X327464D02*
G36*
G75*
G02X328500Y304457I-2301J-3126D01*
G01*
Y305600*
X327464*
G37*
X332700D02*
G36*
Y305474D01*
G75*
G02X332862Y305600I2463J-2997*
G01*
X332700*
G37*
X337464D02*
G36*
G75*
G02X339044Y302474I-2301J-3126D01*
G01*
X341281*
G75*
G02X342862Y305600I3881*
G01*
X337464*
G37*
X347464D02*
G36*
G75*
G02X349044Y302474I-2301J-3126D01*
G01*
X351281*
G75*
G02X352862Y305600I3881*
G01*
X347464*
G37*
X357464D02*
G36*
G75*
G02X359044Y302474I-2301J-3126D01*
G01*
X361281*
G75*
G02X362862Y305600I3881*
G01*
X357464*
G37*
X367464D02*
G36*
G75*
G02X368500Y304457I-2301J-3126D01*
G01*
Y305600*
X367464*
G37*
X372700D02*
G36*
Y305474D01*
G75*
G02X372862Y305600I2463J-2997*
G01*
X372700*
G37*
X377464D02*
G36*
G75*
G02X379044Y302474I-2301J-3126D01*
G01*
X533500*
Y305600*
X377464*
G37*
X537700D02*
G36*
Y302474D01*
X561000*
Y305600*
X537700*
G37*
X565200D02*
G36*
Y302474D01*
X568500*
Y305600*
X565200*
G37*
X572700D02*
G36*
Y302474D01*
X587602*
Y305600*
X572700*
G37*
X3400Y330600D02*
G36*
Y305600D01*
X46000*
Y307676*
G75*
G02X44500Y310600I2100J2924*
G01*
G75*
G02X50120Y313580I3600*
G01*
G75*
G02X49500Y315600I2980J2020*
G01*
G75*
G02X56000Y317733I3600*
G01*
Y318100*
G75*
G02X56615Y319585I2102J0*
G01*
X59115Y322085*
G75*
G02X60602Y322700I1485J-1486*
G01*
X120967*
G75*
G02X119500Y325600I2133J2900*
G01*
G75*
G02X121000Y328524I3600*
G01*
Y330600*
X120182*
G75*
G02X115581I-2301J3126*
G01*
X110182*
G75*
G02X105581I-2301J3126*
G01*
X100182*
G75*
G02X95581I-2301J3126*
G01*
X90182*
G75*
G02X85581I-2301J3126*
G01*
X80182*
G75*
G02X75581I-2301J3126*
G01*
X70182*
G75*
G02X65581I-2301J3126*
G01*
X3400*
G37*
X60200Y317230D02*
G36*
Y305600D01*
X65581*
G75*
G02X70182I2301J-3126*
G01*
X75581*
G75*
G02X80182I2301J-3126*
G01*
X85581*
G75*
G02X90182I2301J-3126*
G01*
X95581*
G75*
G02X100182I2301J-3126*
G01*
X105581*
G75*
G02X110182I2301J-3126*
G01*
X115581*
G75*
G02X120182I2301J-3126*
G01*
X125581*
G75*
G02X130182I2301J-3126*
G01*
X135581*
G75*
G02X140182I2301J-3126*
G01*
X145581*
G75*
G02X150182I2301J-3126*
G01*
X155581*
G75*
G02X160182I2301J-3126*
G01*
X165581*
G75*
G02X170182I2301J-3126*
G01*
X175581*
G75*
G02X180182I2301J-3126*
G01*
X185581*
G75*
G02X190182I2301J-3126*
G01*
X195581*
G75*
G02X200182I2301J-3126*
G01*
X202630*
X198683Y309548*
G75*
G02X194500Y313100I-583J3553*
G01*
G75*
G02X194673Y314204I3600*
G01*
X189585Y309115*
G75*
G02X188098Y308500I-1485J1486*
G01*
X78524*
G75*
G02X72000Y310600I-2924J2100*
G01*
G75*
G02X72620Y312620I3600*
G01*
G75*
G02X67000Y315600I-2020J2980*
G01*
G75*
G02X68467Y318500I3600*
G01*
X61470*
X60200Y317230*
G37*
X199367Y318896D02*
G36*
X196996Y316527D01*
G75*
G02X201700Y313100I1104J-3427*
G01*
G75*
G02Y313098I-3383J-1*
G01*
G75*
G02X201652Y312517I-3557*
G01*
X208570Y305600*
X219500*
G75*
G02X226700I3600*
G01*
X233500*
Y330600*
X211700*
G75*
G02X204500I-3600*
G01*
X201761*
Y329844*
X199981*
Y320381*
G75*
G02X199367Y318896I-2102J0*
G01*
G37*
X237700Y330600D02*
G36*
Y306470D01*
X238570Y305600*
X242862*
G75*
G02X247464I2301J-3126*
G01*
X252862*
G75*
G02X257464I2301J-3126*
G01*
X262862*
G75*
G02X267464I2301J-3126*
G01*
X272862*
G75*
G02X277464I2301J-3126*
G01*
X282862*
G75*
G02X287464I2301J-3126*
G01*
X288500*
Y313100*
G75*
G02X289115Y314585I2102J0*
G01*
X298500Y323970*
Y330600*
X297464*
G75*
G02X292862I-2301J3126*
G01*
X287464*
G75*
G02X282862I-2301J3126*
G01*
X277464*
G75*
G02X272862I-2301J3126*
G01*
X267464*
G75*
G02X262862I-2301J3126*
G01*
X257464*
G75*
G02X252862I-2301J3126*
G01*
X247464*
G75*
G02X242862I-2301J3126*
G01*
X237700*
G37*
X311259D02*
G36*
X312085Y329774D01*
G75*
G02X312700Y328289I-1487J-1485*
G01*
Y305600*
X312862*
G75*
G02X317464I2301J-3126*
G01*
X318500*
Y329163*
G75*
G02X319069Y330600I2102J0*
G01*
X317464*
G75*
G02X312862I-2301J3126*
G01*
X311259*
G37*
X322700Y328293D02*
G36*
Y305600D01*
X322862*
G75*
G02X327464I2301J-3126*
G01*
X328500*
Y329163*
G75*
G02X329069Y330600I2102J0*
G01*
X327464*
G75*
G02X324340Y329933I-2301J3126*
G01*
X322700Y328293*
G37*
X332700D02*
G36*
Y305600D01*
X332862*
G75*
G02X337464I2301J-3126*
G01*
X342862*
G75*
G02X347464I2301J-3126*
G01*
X352862*
G75*
G02X357464I2301J-3126*
G01*
X362862*
G75*
G02X367464I2301J-3126*
G01*
X368500*
Y327419*
X365986Y329933*
G75*
G02X362862Y330600I-823J3794*
G01*
X357464*
G75*
G02X352862I-2301J3126*
G01*
X347464*
G75*
G02X342862I-2301J3126*
G01*
X337464*
G75*
G02X334340Y329933I-2301J3126*
G01*
X332700Y328293*
G37*
X371259Y330600D02*
G36*
X371281Y330578D01*
Y330600*
X371259*
G37*
X372015Y329844D02*
G36*
X372085Y329774D01*
G75*
G02X372700Y328289I-1487J-1485*
G01*
Y305600*
X372862*
G75*
G02X377464I2301J-3126*
G01*
X533500*
Y330600*
X453043*
G75*
G02X454629Y325876I-6242J-4724*
G01*
G75*
G02X438972I-7828*
G01*
G75*
G02X440559Y330600I7828*
G01*
X415641*
G75*
G02X417228Y325876I-6242J-4724*
G01*
G75*
G02X401571I-7828*
G01*
G75*
G02X403157Y330600I7828*
G01*
X379045*
Y329844*
X372015*
G37*
X537700Y330600D02*
G36*
Y305600D01*
X561000*
Y330600*
X537700*
G37*
X565200D02*
G36*
Y305600D01*
X568500*
Y330600*
X565200*
G37*
X572700D02*
G36*
Y305600D01*
X587602*
Y330600*
X572700*
G37*
X3400Y370600D02*
G36*
Y330600D01*
X65581*
G75*
G02X64000Y333726I2301J3126*
G01*
G75*
G02X71763I3881*
G01*
G75*
G02X70182Y330600I-3881*
G01*
X75581*
G75*
G02X74000Y333726I2301J3126*
G01*
G75*
G02X75781Y336990I3881*
G01*
Y350600*
G75*
G02X76396Y352085I2102J0*
G01*
X81396Y357085*
G75*
G02X82884Y357700I1485J-1486*
G01*
X85967*
G75*
G02X84500Y360600I2135J2901*
G01*
G75*
G02X91024Y362700I3600*
G01*
X192022*
G75*
G02X192000Y363096I3485J396*
G01*
G75*
G02Y363100I3698J2*
G01*
G75*
G02X199200I3600*
G01*
G75*
G02X195017Y359548I-3600J0*
G01*
X194585Y359115*
G75*
G02X193098Y358500I-1485J1486*
G01*
X91024*
G75*
G02X90233Y357700I-2930J2105*
G01*
X222230*
X223500Y358970*
Y370600*
X3400*
G37*
X79981Y349730D02*
G36*
Y336990D01*
G75*
G02X81763Y333726I-2100J-3264*
G01*
G75*
G02X80182Y330600I-3881*
G01*
X85581*
G75*
G02X84000Y333726I2301J3126*
G01*
G75*
G02X91763I3881*
G01*
G75*
G02X90182Y330600I-3881*
G01*
X95581*
G75*
G02X94000Y333726I2301J3126*
G01*
G75*
G02X101763I3881*
G01*
G75*
G02X100182Y330600I-3881*
G01*
X105581*
G75*
G02X104000Y333726I2301J3126*
G01*
G75*
G02X111763I3881*
G01*
G75*
G02X110182Y330600I-3881*
G01*
X115581*
G75*
G02X114000Y333726I2301J3126*
G01*
G75*
G02X121000Y336037I3881*
G01*
Y338100*
G75*
G02X121615Y339585I2102J0*
G01*
X124115Y342085*
G75*
G02X125602Y342700I1485J-1486*
G01*
X200176*
G75*
G02X206700Y340600I2924J-2100*
G01*
G75*
G02X201761Y337258I-3600J0*
G01*
Y330600*
X204500*
G75*
G02X211700I3600*
G01*
X233500*
Y335176*
G75*
G02X232000Y338100I2099J2924*
G01*
Y338100*
G75*
G02X239200I3600*
G01*
Y338100*
G75*
G02X237700Y335176I-3599*
G01*
Y330600*
X242862*
G75*
G02X241281Y333726I2301J3126*
G01*
G75*
G02X249044I3881*
G01*
G75*
G02X247464Y330600I-3881*
G01*
X252862*
G75*
G02X251281Y333726I2301J3126*
G01*
G75*
G02X253063Y336990I3881*
G01*
Y337667*
X227700Y363030*
Y358100*
G75*
G02X227085Y356615I-2102J0*
G01*
X224585Y354115*
G75*
G02X223098Y353500I-1485J1486*
G01*
X217733*
G75*
G02X219200Y350600I-2135J-2901*
G01*
G75*
G02X212000I-3600*
G01*
Y350600*
G75*
G02X213467Y353500I3599*
G01*
X83751*
X79981Y349730*
G37*
X120182Y330600D02*
G36*
X121000D01*
Y331415*
G75*
G02X120182Y330600I-3119J2311*
G01*
G37*
X227700Y370600D02*
G36*
Y368970D01*
X256648Y340022*
G75*
G02X257263Y338537I-1487J-1485*
G01*
Y336990*
G75*
G02X259044Y333726I-2100J-3264*
G01*
G75*
G02X257464Y330600I-3881*
G01*
X262862*
G75*
G02X261281Y333726I2301J3126*
G01*
G75*
G02X262926Y336898I3883J-1*
G01*
X233209Y366615*
G75*
G02X232594Y368100I1487J1485*
G01*
Y370600*
X227700*
G37*
X236794D02*
G36*
Y368970D01*
X266648Y339117*
G75*
G02X267263Y337631I-1487J-1485*
G01*
Y336990*
G75*
G02X269044Y333726I-2100J-3264*
G01*
G75*
G02X267464Y330600I-3881*
G01*
X272862*
G75*
G02X271281Y333726I2301J3126*
G01*
G75*
G02X279044I3881*
G01*
G75*
G02X277464Y330600I-3881*
G01*
X282862*
G75*
G02X281281Y333726I2301J3126*
G01*
G75*
G02X289044I3881*
G01*
G75*
G02X287464Y330600I-3881*
G01*
X292862*
G75*
G02X291281Y333726I2301J3126*
G01*
G75*
G02X298503Y335704I3881*
G01*
G75*
G02X299115Y337085I2096J-104*
G01*
X301615Y339585*
G75*
G02X303102Y340200I1485J-1486*
G01*
X310598*
G75*
G02X312085Y339585I2J-2101*
G01*
X314187Y337483*
G75*
G02X319044Y333726I976J-3757*
G01*
G75*
G02X317464Y330600I-3881*
G01*
X319069*
G75*
G02X319115Y330648I1533J-1437*
G01*
X321370Y332903*
G75*
G02X321281Y333725I3791J822*
G01*
G75*
G02Y333726I4101J0*
G01*
G75*
G02X329044I3881*
G01*
G75*
G02X327464Y330600I-3882J0*
G01*
X329069*
G75*
G02X329115Y330648I1533J-1437*
G01*
X331370Y332903*
G75*
G02X331281Y333725I3791J822*
G01*
G75*
G02Y333726I4101J0*
G01*
G75*
G02X339044I3881*
G01*
G75*
G02X337464Y330600I-3882J0*
G01*
X342862*
G75*
G02X341281Y333726I2301J3126*
G01*
G75*
G02X349044I3881*
G01*
G75*
G02X347464Y330600I-3881*
G01*
X352862*
G75*
G02X351281Y333726I2301J3126*
G01*
G75*
G02X359044I3881*
G01*
G75*
G02X357464Y330600I-3881*
G01*
X362862*
G75*
G02X361281Y333726I2301J3126*
G01*
G75*
G02X369044I3881*
G01*
G75*
G02Y333725I-4101J0*
G01*
G75*
G02X368956Y332903I-3879*
G01*
X371259Y330600*
X371281*
Y337608*
X379045*
Y330600*
X403157*
G75*
G02X415641I6242J-4724*
G01*
X440559*
G75*
G02X453043I6242J-4724*
G01*
X533500*
Y340176*
G75*
G02X532676Y341000I2093J2917*
G01*
X526024*
G75*
G02X519500Y343100I-2924J2100*
G01*
G75*
G02X526024Y345200I3600*
G01*
X532676*
G75*
G02X539200Y343100I2924J-2100*
G01*
Y343100*
G75*
G02X537700Y340176I-3599*
G01*
Y330600*
X561000*
Y342230*
X554730Y348500*
X538524*
G75*
G02X532676I-2924J2100*
G01*
X526024*
G75*
G02X519500Y350600I-2924J2100*
G01*
G75*
G02X526024Y352700I3600*
G01*
X532676*
G75*
G02X538524I2924J-2100*
G01*
X555598*
G75*
G02X557085Y352085I2J-2101*
G01*
X564585Y344585*
G75*
G02X565200Y343100I-1487J-1485*
G01*
Y330600*
X568500*
Y354730*
X564730Y358500*
X533102*
G75*
G02X531615Y359115I-2J2101*
G01*
X529115Y361615*
G75*
G02X528500Y363100I1487J1485*
G01*
Y366002*
X526002*
Y370600*
X525198*
Y366002*
X516002*
Y370600*
X278191*
G75*
G02X279200Y368100I-2590J-2500*
G01*
Y368100*
G75*
G02X272000I-3600*
G01*
Y368100*
G75*
G02X273009Y370600I3599*
G01*
X263570*
X270017Y364152*
G75*
G02X274200Y360600I582J-3553*
G01*
G75*
G02X267000I-3600*
G01*
G75*
G02Y360602I3383J1*
G01*
G75*
G02X267048Y361183I3557*
G01*
X257630Y370600*
X236794*
G37*
X297464Y330600D02*
G36*
X298500D01*
Y331743*
G75*
G02X297464Y330600I-3337J1982*
G01*
G37*
X309045Y333726D02*
G36*
G75*
G02X308956Y332903I-3880J1D01*
G01*
X311259Y330600*
X312862*
G75*
G02X311281Y333726I2301J3126*
G01*
G75*
G02X311339Y334391I3927J-4*
G01*
X309730Y336000*
X308309*
G75*
G02X309045Y333726I-3143J-2274*
G01*
G37*
X532700Y366002D02*
G36*
Y363970D01*
X533970Y362700*
X565598*
G75*
G02X567085Y362085I2J-2101*
G01*
X572085Y357085*
G75*
G02X572700Y355600I-1487J-1485*
G01*
Y330600*
X587602*
Y370600*
X555198*
Y366002*
X546002*
Y370600*
X545198*
Y366002*
X536002*
Y370600*
X535198*
Y366002*
X532700*
G37*
X3400Y380600D02*
G36*
Y370600D01*
X223500*
Y376002*
X221002*
Y380600*
X220198*
Y376002*
X211002*
Y380600*
X3400*
G37*
X227700Y376002D02*
G36*
Y370600D01*
X232594*
Y376002*
X231002*
Y380600*
X230198*
Y376002*
X227700*
G37*
X236794D02*
G36*
Y370600D01*
X257630*
X254115Y374115*
G75*
G02X253500Y375600I1487J1485*
G01*
Y376002*
X251002*
Y380600*
X250198*
Y376002*
X241002*
Y380600*
X240198*
Y376002*
X236794*
G37*
X260198D02*
G36*
X258168D01*
X263570Y370600*
X273009*
G75*
G02X273500Y371024I2590J-2500*
G01*
Y380600*
X260198*
Y376002*
G37*
X277700Y380600D02*
G36*
Y371024D01*
G75*
G02X278191Y370600I-2099J-2924*
G01*
X516002*
Y375198*
X525198*
Y370600*
X526002*
Y375198*
X535198*
Y370600*
X536002*
Y375198*
X545198*
Y370600*
X546002*
Y375198*
X555198*
Y370600*
X587602*
Y380600*
X584200*
G75*
G02X577000I-3600*
G01*
X524200*
G75*
G02X517000I-3600*
G01*
X277700*
G37*
X3400Y390398D02*
G36*
Y380600D01*
X211002*
Y385198*
X220198*
Y380600*
X221002*
Y385198*
X223500*
Y385600*
G75*
G02X224115Y387085I2102J0*
G01*
X226615Y389585*
G75*
G02X228102Y390200I1485J-1486*
G01*
X270598*
G75*
G02X272085Y389585I2J-2101*
G01*
X277085Y384585*
G75*
G02X277700Y383100I-1487J-1485*
G01*
Y380600*
X517000*
G75*
G02X524200I3600*
G01*
X577000*
G75*
G02X584200I3600*
G01*
X587602*
Y390398*
X3400*
G37*
X228970Y386000D02*
G36*
X228168Y385198D01*
X230198*
Y380600*
X231002*
Y385198*
X240198*
Y380600*
X241002*
Y385198*
X250198*
Y380600*
X251002*
Y385198*
X260198*
Y380600*
X273500*
Y382230*
X269730Y386000*
X228970*
G37*
D02*
D11*
X7704Y60600D02*
X5604D01*
X7704Y70600D02*
X5604D01*
X7704Y80600D02*
X5604D01*
X7704Y90600D02*
X5604D01*
X7704Y100600D02*
X5604D01*
X7704Y110600D02*
X5604D01*
X7704Y120600D02*
X5604D01*
X7704Y130600D02*
X5604D01*
X7704Y140600D02*
X5604D01*
X7704Y150600D02*
X5604D01*
X7704Y160600D02*
X5604D01*
X7704Y170600D02*
X5604D01*
X7704Y180600D02*
X5604D01*
X7704Y190600D02*
X5604D01*
X7704Y200600D02*
X5604D01*
X7704Y210600D02*
X5604D01*
X7704Y220600D02*
X5604D01*
X7704Y230600D02*
X5604D01*
X7704Y240600D02*
X5604D01*
X7704Y250600D02*
X5604D01*
X10600Y57704D02*
Y55604D01*
Y63496D02*
Y65596D01*
Y67704D02*
Y65604D01*
Y70600D02*
Y80600D01*
Y70600D02*
Y60600D01*
Y73496D02*
Y75596D01*
Y77704D02*
Y75604D01*
Y83496D02*
Y85596D01*
Y87704D02*
Y85604D01*
Y90600D02*
Y80600D01*
Y93496D02*
Y95596D01*
Y97704D02*
Y95604D01*
Y100600D02*
Y90600D01*
Y103496D02*
Y105596D01*
Y107704D02*
Y105604D01*
Y110600D02*
Y100600D01*
Y113496D02*
Y115596D01*
Y117704D02*
Y115604D01*
Y120600D02*
Y110600D01*
Y123496D02*
Y125596D01*
Y127704D02*
Y125604D01*
Y130600D02*
Y120600D01*
Y133496D02*
Y135596D01*
Y137704D02*
Y135604D01*
Y140600D02*
Y130600D01*
Y143496D02*
Y145596D01*
Y147704D02*
Y145604D01*
Y150600D02*
Y140600D01*
Y153496D02*
Y155596D01*
Y157704D02*
Y155604D01*
Y160600D02*
Y150600D01*
Y163496D02*
Y165596D01*
Y167704D02*
Y165604D01*
Y170600D02*
Y160600D01*
Y173496D02*
Y175596D01*
Y177704D02*
Y175604D01*
Y180600D02*
Y170600D01*
Y183496D02*
Y185596D01*
Y187704D02*
Y185604D01*
Y190600D02*
Y180600D01*
Y193496D02*
Y195596D01*
Y197704D02*
Y195604D01*
Y200600D02*
Y190600D01*
Y203496D02*
Y205596D01*
Y207704D02*
Y205604D01*
Y210600D02*
Y200600D01*
Y213496D02*
Y215596D01*
Y217704D02*
Y215604D01*
Y220600D02*
Y210600D01*
Y223496D02*
Y225596D01*
Y227704D02*
Y225604D01*
Y230600D02*
Y220600D01*
Y233496D02*
Y235596D01*
Y237704D02*
Y235604D01*
Y240600D02*
Y250600D01*
Y240600D02*
Y230600D01*
Y243496D02*
Y245596D01*
Y247704D02*
Y245604D01*
Y253496D02*
Y255596D01*
X13496Y60600D02*
X15596D01*
X13496Y70600D02*
X15596D01*
X13496Y80600D02*
X15596D01*
X13496Y90600D02*
X15596D01*
X13496Y100600D02*
X15596D01*
X13496Y110600D02*
X15596D01*
X13496Y120600D02*
X15596D01*
X13496Y130600D02*
X15596D01*
X13496Y140600D02*
X15596D01*
X13496Y150600D02*
X15596D01*
X13496Y160600D02*
X15596D01*
X13496Y170600D02*
X15596D01*
X13496Y180600D02*
X15596D01*
X13496Y190600D02*
X15596D01*
X13496Y200600D02*
X15596D01*
X13496Y210600D02*
X15596D01*
X13496Y220600D02*
X15596D01*
X13496Y230600D02*
X15596D01*
X13496Y240600D02*
X15596D01*
X13496Y250600D02*
X15596D01*
X45305Y62864D02*
Y80580D01*
Y194458D02*
Y176742D01*
X48100Y250600D02*
Y265600D01*
Y275600D02*
Y310600D01*
X53100Y275600D02*
Y315600D01*
X58100Y233021D02*
X75679D01*
X78100Y230600*
Y163100*
X85600Y155600*
X99852*
X100226Y155226*
X66100Y302474D02*
X64000D01*
X67881Y300693D02*
Y298593D01*
Y302474D02*
X77881D01*
X67881Y304256D02*
Y306356D01*
X69663Y302474D02*
X71763D01*
X70895Y62864D02*
Y58395D01*
X65600Y53100*
X40600*
X33100Y60600*
Y245600*
X43100Y255600*
X70895Y62864D02*
Y80580D01*
Y194458D02*
Y176742D01*
X73100Y130600D02*
Y136899D01*
X64399Y145600*
X76100Y302474D02*
X74000D01*
X77881Y300693D02*
Y298593D01*
Y302474D02*
X87881D01*
X77881Y304256D02*
Y306356D01*
Y333726D02*
Y350600D01*
X82881Y355600*
X198100*
X223100*
X225600Y358100*
Y380600*
X78100Y35600D02*
Y13100D01*
X80600Y10600*
X95600*
X98100Y13100*
Y23100*
X79663Y302474D02*
X81763D01*
X85305Y194458D02*
Y176742D01*
X86100Y302474D02*
X84000D01*
X87057Y18553D02*
Y36269D01*
X87881Y300693D02*
Y298593D01*
Y304256D02*
Y306356D01*
X89663Y302474D02*
X91763D01*
X93100Y150600D02*
Y63100D01*
X95600Y60600*
X103100*
X115600Y48100*
X123100*
X135600Y35600*
X95600Y33100D02*
Y40600D01*
X80600Y55600*
Y88100*
X73100Y95600*
X98100Y180600D02*
Y163100D01*
X99852Y75521D02*
Y154852D01*
X100226Y155226*
Y157726*
X105600Y163100*
X150600*
X153100Y165600*
X160600*
X165600Y160600*
X250600*
X255600Y165600*
X103100Y185600D02*
X95600D01*
X93100Y183100*
Y160600*
X104399Y215600D02*
X85600D01*
X80600Y220600*
Y233100*
X75600Y238100*
X58100*
X53100Y243100*
Y265600*
X105600Y18100D02*
X110600Y13100D01*
X270600*
X105600Y143100D02*
Y125600D01*
X120600Y110600*
X126899*
X106100Y333726D02*
X104000D01*
X107881Y331944D02*
Y329844D01*
Y335507D02*
Y337607D01*
X108369Y111958D02*
Y94242D01*
X109663Y333726D02*
X111763D01*
X110895Y194458D02*
Y176742D01*
X112647Y18553D02*
Y36269D01*
X113100Y60600D02*
X153100D01*
X119852Y170600D02*
Y230600D01*
X117431Y233021*
X98100*
X124557Y18553D02*
Y36269D01*
X125305Y194458D02*
Y176742D01*
X125600Y215600D02*
Y233100D01*
X118100Y240600*
X63100*
X58100Y245600*
Y265600*
X126899Y110600D02*
Y70600D01*
X127881Y302474D02*
Y281256D01*
X128100Y281037*
X133960Y94242D02*
Y111958D01*
X138100Y65679D02*
X99852D01*
X138100Y75521D02*
Y85600D01*
X140600Y88100*
Y135600*
X138100Y233021D02*
X153179D01*
X158100Y228100*
Y195600*
X138100Y281037D02*
Y302256D01*
X137881Y302474*
X140600Y148100D02*
Y158100D01*
X143100Y160600*
X158100*
X145869Y94242D02*
Y111958D01*
X147881Y302474D02*
Y281256D01*
X148100Y281037*
X150147Y18553D02*
Y36269D01*
X150895Y176742D02*
Y175305D01*
X155600Y170600*
X184929*
X190895Y176566*
X150895Y194458D02*
Y176742D01*
X153100Y50600D02*
X160600D01*
X168100Y43100*
X268100*
X157881Y302474D02*
Y281256D01*
X158100Y281037*
Y265600*
X130600Y238100*
Y214754*
X150895Y194458*
X159852Y141409D02*
X140600D01*
Y143179*
X119852*
X159852Y151251D02*
X198100D01*
X160600Y118100D02*
Y85600D01*
X165600Y80600*
X185600*
X162057Y18553D02*
Y36269D01*
X165305Y176566D02*
Y194283D01*
X165600Y215600D02*
Y233100D01*
X168100Y281037D02*
Y302256D01*
X167881Y302474*
X170600Y145600D02*
X200600D01*
X203100Y148100*
X171460Y94242D02*
Y111958D01*
X175600Y65679D02*
X175679D01*
X183100Y73100*
X206427*
X213848Y65679*
X175600D02*
X138100D01*
X175600Y75521D02*
X188021D01*
X208100Y95600*
Y135600*
X177881Y333726D02*
X178726D01*
X165600Y320600*
X60600*
X58100Y318100*
Y313100*
Y275600*
X178100Y281037D02*
Y302256D01*
X177881Y302474*
X180600Y135600D02*
X145600D01*
X187647Y18553D02*
Y36269D01*
X187881Y333726D02*
Y327881D01*
X175600Y315600*
X70600*
X188100Y218100D02*
Y228100D01*
Y281037D02*
Y302256D01*
X187881Y302474*
X190895Y194283D02*
Y176566D01*
X193100Y50600D02*
Y65600D01*
Y88100D02*
Y103100D01*
X195600Y105600*
X193100Y248100D02*
X168100D01*
X195600Y363100D02*
X193100Y360600D01*
X88100*
X197881Y333726D02*
Y320381D01*
X188100Y310600*
X75600*
X198100Y200600D02*
Y173100D01*
X203100Y168100*
X198100Y215600D02*
Y228100D01*
Y243100D02*
X173100D01*
X198100Y281037D02*
Y302256D01*
X197881Y302474*
X200305Y18553D02*
Y36269D01*
X203100Y95600D02*
Y126330D01*
Y340600D02*
X125600D01*
X123100Y338100*
Y325600*
X205430Y176566D02*
Y194283D01*
X206600Y330600D02*
X204500D01*
X208100Y329100D02*
Y327000D01*
Y330600D02*
Y343100D01*
X215600Y350600*
X208100Y332100D02*
Y334200D01*
X209600Y330600D02*
X211700D01*
X210600Y190600D02*
Y175600D01*
X220600Y165600*
X213100Y135600D02*
Y75521D01*
X213848*
X213100Y380600D02*
X211002D01*
X214100Y350600D02*
X212000D01*
X215600Y349100D02*
Y347000D01*
Y378100D02*
Y376002D01*
Y383100D02*
Y385198D01*
X217100Y350600D02*
X219200D01*
X218100Y178100D02*
Y210600D01*
X210600Y218100*
Y225521*
X218100Y233021*
Y380600D02*
X220198D01*
X221600Y305600D02*
X219500D01*
X223100Y140600D02*
X236543D01*
X237352Y141409*
X223100Y140600D02*
X160600D01*
X159852Y141409*
X223100Y140600D02*
X220600Y138100D01*
Y68100*
X252352*
Y65679*
X223100Y304100D02*
Y302000D01*
Y305600D02*
X240600Y288100D01*
X223100Y307100D02*
Y309200D01*
X224600Y305600D02*
X226700D01*
X225305Y111958D02*
Y94242D01*
X225600Y248100D02*
X223100D01*
X208100Y233100*
X178179*
X178100Y233021*
X225895Y18553D02*
Y36269D01*
X228100Y50600D02*
Y63100D01*
Y83100D02*
Y85600D01*
X230600Y88100*
X298100*
X305600Y80600*
X230600Y215600D02*
Y235600D01*
X231020Y194283D02*
Y176566D01*
X237057Y18553D02*
Y36269D01*
X237352Y141409D02*
X245600D01*
X278100Y173909*
Y228100*
X238100Y178100D02*
Y230521D01*
X240600Y233021*
X257975*
X239100Y288100D02*
X237000D01*
X240600Y83100D02*
X265600D01*
X273100Y75600*
Y73100*
X240600Y286600D02*
Y284500D01*
Y289600D02*
Y291700D01*
X245163Y283100D02*
Y302474D01*
X238726*
X235600Y305600*
Y338100*
X245305Y176566D02*
Y194283D01*
X250895Y94242D02*
Y111958D01*
X252352Y65679D02*
Y68100D01*
X213100*
Y65600*
X213848Y65679*
X253100Y126330D02*
Y128100D01*
X260600Y135600*
X285600*
X253100Y158100D02*
X160600D01*
X158100Y160600*
X253381Y302474D02*
X251281D01*
X253663Y288100D02*
X251563D01*
X255163Y286600D02*
Y284500D01*
Y288100D02*
Y302474D01*
Y289600D02*
Y291700D01*
Y300693D02*
Y298593D01*
Y304256D02*
Y306356D01*
Y333726D02*
Y338537D01*
X225600Y368100*
Y380600*
X256663Y288100D02*
X258763D01*
X256944Y302474D02*
X259044D01*
X258100Y178100D02*
Y208100D01*
X268100Y218100*
Y230600*
X273100Y235600*
X295521*
X298100Y233021*
X262647Y18553D02*
Y36269D01*
X263100Y150521D02*
X263179D01*
X268100Y145600*
X295679*
X300600Y150521*
X263369Y94242D02*
Y111958D01*
X263381Y302474D02*
X261281D01*
X265163Y300693D02*
Y298593D01*
Y302474D02*
Y313726D01*
X285163Y333726*
X265163Y302474D02*
X255163D01*
X265163Y304256D02*
Y306356D01*
Y333726D02*
Y337631D01*
X234694Y368100*
Y379694*
X235600Y380600*
X266944Y302474D02*
X269044D01*
X270600Y360600D02*
X255600Y375600D01*
Y380600*
X270895Y194283D02*
Y176566D01*
X273100Y55600D02*
Y63100D01*
X255600Y80600*
X243100*
X240600Y78100*
X233100*
X273100Y95600D02*
Y113100D01*
X278100Y118100*
X285600*
X295600Y128100*
X273100Y208100D02*
Y228100D01*
X275600Y18553D02*
Y36269D01*
Y140679D02*
X318100D01*
X275600Y368100D02*
Y383100D01*
X270600Y388100*
X228100*
X225600Y385600*
Y380600*
X283100Y35600D02*
X270600Y48100D01*
X265600*
X263100Y50600*
Y69773*
X257352Y75521*
X252352*
X283100Y185600D02*
X345600D01*
X283381Y333726D02*
X281281D01*
X285163Y331944D02*
Y329844D01*
Y335507D02*
Y337607D01*
X285600Y218100D02*
Y230600D01*
Y268100D02*
X243100D01*
X198100Y313100*
X286944Y333726D02*
X289044D01*
X288960Y94242D02*
Y111958D01*
X290600Y58100D02*
X293100Y55600D01*
X328100*
X333100Y60600*
X293100Y35600D02*
X300600Y43100D01*
X375600*
X298100Y155600D02*
Y165600D01*
Y178100*
X300869Y111958D02*
Y94242D01*
X301191Y18553D02*
Y36269D01*
X305163Y333726D02*
X310600Y328289D01*
Y240600*
X318100Y233100*
Y233021*
X323021Y228100*
X335600*
X340521Y233021*
X340600*
X305600Y215600D02*
X290600D01*
X283100Y208100*
X305600Y240600D02*
X265554D01*
X257975Y233021*
X305600Y248100D02*
X240600D01*
X305600Y253100D02*
X238179D01*
X218100Y233021*
X313100Y18553D02*
Y36269D01*
Y65679D02*
Y135679D01*
X318100Y140679*
X315163Y333726D02*
X314974D01*
X310600Y338100*
X303100*
X300600Y335600*
Y323100*
X290600Y313100*
Y263100*
X295600Y258100*
X326460Y94242D02*
Y95600D01*
X376958*
X380600Y91958*
Y40679*
X376191Y36269*
X326460Y94242D02*
Y111958D01*
X330600Y240600D02*
X325600D01*
X320600Y245600*
Y329163*
X325163Y333726*
X330600Y258100D02*
Y329163D01*
X335163Y333726*
X333100Y218100D02*
X313021D01*
X298100Y233021*
X335600Y263100D02*
X393100D01*
X335600Y268100D02*
X360600D01*
X338100Y65679D02*
X325895D01*
X338691Y18553D02*
Y36269D01*
X340600Y85600D02*
X345600Y90600D01*
X340600Y128100D02*
X335600D01*
X333100Y130600*
Y180600*
X345600Y115600D02*
Y165600D01*
Y185600*
X365600*
X348100Y83100D02*
Y60600D01*
X350600Y18553D02*
Y36269D01*
X353100Y58100D02*
X340600Y45600D01*
X310600*
X308100Y48100*
X353100Y58100D02*
X368100D01*
X353100D02*
Y90600D01*
X355600Y200600D02*
X385600D01*
X358100Y150600D02*
X363100Y155600D01*
Y165600*
Y218100D02*
Y228100D01*
X378100Y243100*
X365600Y240600D02*
X330600D01*
X365600Y248100D02*
X330600D01*
X366643Y75521D02*
X368021D01*
X375600Y83100*
X368100Y155600D02*
Y165600D01*
Y218100D02*
Y228021D01*
X373100Y233021*
Y218100D02*
Y223100D01*
X378100Y228100*
X390600*
X393100Y230600*
Y245600*
X388100Y250600*
X373100Y270600D02*
X409334D01*
X446913Y233021*
X376191Y18553D02*
Y36269D01*
X380600Y103100D02*
X365600D01*
X353100Y115600*
Y140600*
X380600Y155600D02*
Y150600D01*
X370600Y140600*
X360600*
X353100Y148100*
Y163100*
X350600Y165600*
X380600Y183100D02*
Y163100D01*
X363100Y145600*
X380600Y190600D02*
X370600D01*
X365600Y185600*
X383100Y248100D02*
X365600D01*
X385600Y43100D02*
X387431D01*
X419852Y75521*
X385600Y83100D02*
Y193100D01*
X393100Y200600*
X395600*
X390600Y190600D02*
Y180600D01*
Y138100*
X393100Y135600*
X408100*
X393100Y275600D02*
X370600Y298100D01*
Y328289*
X365163Y333726*
X395600Y193100D02*
X410600D01*
X395600Y218100D02*
Y258100D01*
X330600*
X400600Y70600D02*
X385600D01*
X400600Y105600D02*
X390600D01*
X403100Y245600D02*
Y218100D01*
X405305Y18553D02*
Y36269D01*
X405600Y94242D02*
Y111958D01*
X408100Y165600D02*
X395600D01*
X408100Y183100D02*
X395600D01*
X413100Y105600D02*
Y85600D01*
X403100Y75600*
X393100*
X390600Y78100*
Y93100*
X415600Y205600D02*
X353100D01*
X345600Y213100*
Y228021*
X340600Y233021*
X416913D02*
Y241787D01*
X400600Y258100*
X395600*
X418100Y140679D02*
X458100D01*
X419852Y75521D02*
Y124852D01*
X430600Y135600*
X423100Y190600D02*
X425600D01*
X433100Y183100*
X428100Y215600D02*
Y225521D01*
X435600Y233021*
X446913*
X430600Y148100D02*
X415600Y163100D01*
Y205600*
X430895Y18553D02*
Y36269D01*
X431191Y94242D02*
Y87509D01*
X438100Y80600*
Y43474*
X430895Y36269*
X431191Y111958D02*
Y94242D01*
X435490Y296348D02*
X433390D01*
X436617Y194458D02*
Y176742D01*
X437943Y293895D02*
Y291795D01*
Y296348D02*
Y345757D01*
X430600Y353100*
X315600*
X303100Y340600*
X292037*
X285163Y333726*
X437943Y298801D02*
Y300901D01*
X438100Y168100D02*
X423100Y183100D01*
X440395Y296348D02*
X442495D01*
X443553Y18553D02*
Y36269D01*
X445600Y94242D02*
Y111958D01*
X450600Y200600D02*
X480600D01*
X488100Y193100*
X458100Y23100D02*
Y65679D01*
Y75521D02*
Y100600D01*
Y150521D02*
X495521D01*
X508100Y163100*
Y203100*
X462208Y194458D02*
Y176742D01*
X465600Y80600D02*
Y105600D01*
X438100Y133100*
X469143Y18553D02*
Y36269D01*
X471191Y94242D02*
Y111958D01*
X475600Y23100D02*
Y18100D01*
X470600Y13100*
X295600*
X293100Y15600*
Y15895*
X288395Y20600*
Y55305*
X280600Y63100*
Y73021*
X283100Y75521*
X288395*
X475600Y194458D02*
Y176742D01*
X483553Y18553D02*
Y36269D01*
X485600Y105600D02*
Y73100D01*
X483100Y70600*
X445600*
X488395Y233021D02*
X483021D01*
X460600Y210600*
X390600*
X358100*
X350600Y218100*
X494694Y163100D02*
X423100D01*
X420600Y165600*
X494694Y163100D02*
Y200600D01*
X498100Y65679D02*
X533179D01*
X543100Y75600*
Y160600*
X528100Y175600*
Y223179*
X498100Y65679D02*
X458100D01*
X501191Y194458D02*
Y176742D01*
X508100Y218100D02*
Y230600D01*
X505600Y233100*
X488474*
X488395Y233021*
X509143Y18553D02*
Y36269D01*
X515305Y194458D02*
Y176742D01*
X518100Y370600D02*
X516002D01*
X519100Y380600D02*
X517000D01*
X520600Y368100D02*
Y366002D01*
Y370600D02*
Y380600D01*
Y370600D02*
X515600Y365600D01*
Y300600*
X511348Y296348*
X437943*
X520600Y373100D02*
Y375198D01*
Y379100D02*
Y377000D01*
Y382100D02*
Y384200D01*
X522100Y380600D02*
X524200D01*
X523100Y343100D02*
X535600D01*
X523100Y370600D02*
X525198D01*
X528100Y233021D02*
Y230600D01*
X503100Y205600*
X415600*
X528848Y19242D02*
Y36958D01*
Y94242D02*
Y111958D01*
X530600Y370600D02*
Y363100D01*
X533100Y360600*
X565600*
X570600Y355600*
Y250600*
X535600Y343100D02*
Y265600D01*
X570600Y230600*
X535600Y350600D02*
X523100D01*
X540895Y194458D02*
Y176742D01*
X553100Y75600D02*
Y83100D01*
X548100Y88100*
X554439Y36958D02*
Y38395D01*
X559143Y43100*
Y89537*
X554439Y94242*
Y36958D02*
Y19242D01*
Y94242D02*
Y111958D01*
X570600Y240600D02*
X563100Y248100D01*
Y343100*
X555600Y350600*
X535600*
X577704Y60600D02*
X575604D01*
X577704Y70600D02*
X575604D01*
X577704Y80600D02*
X575604D01*
X577704Y90600D02*
X575604D01*
X577704Y100600D02*
X575604D01*
X577704Y110600D02*
X575604D01*
X577704Y120600D02*
X575604D01*
X577704Y130600D02*
X575604D01*
X577704Y140600D02*
X575604D01*
X577704Y150600D02*
X575604D01*
X577704Y160600D02*
X575604D01*
X577704Y170600D02*
X575604D01*
X577704Y180600D02*
X575604D01*
X577704Y190600D02*
X575604D01*
X577704Y200600D02*
X575604D01*
X577704Y210600D02*
X575604D01*
X577704Y220600D02*
X575604D01*
X577704Y230600D02*
X575604D01*
X577704Y240600D02*
X575604D01*
X577704Y250600D02*
X575604D01*
X579100Y380600D02*
X577000D01*
X580600Y57704D02*
Y55604D01*
Y63496D02*
Y65596D01*
Y67704D02*
Y65604D01*
Y70600D02*
Y60600D01*
Y73496D02*
Y75596D01*
Y77704D02*
Y75604D01*
Y80600D02*
Y70600D01*
Y83496D02*
Y85596D01*
Y87704D02*
Y85604D01*
Y90600D02*
Y80600D01*
Y93496D02*
Y95596D01*
Y97704D02*
Y95604D01*
Y100600D02*
Y90600D01*
Y103496D02*
Y105596D01*
Y107704D02*
Y105604D01*
Y110600D02*
Y100600D01*
Y113496D02*
Y115596D01*
Y117704D02*
Y115604D01*
Y120600D02*
Y110600D01*
Y123496D02*
Y125596D01*
Y127704D02*
Y125604D01*
Y130600D02*
Y120600D01*
Y133496D02*
Y135596D01*
Y137704D02*
Y135604D01*
Y140600D02*
Y130600D01*
Y143496D02*
Y145596D01*
Y147704D02*
Y145604D01*
Y150600D02*
Y140600D01*
Y153496D02*
Y155596D01*
Y157704D02*
Y155604D01*
Y160600D02*
Y150600D01*
Y163496D02*
Y165596D01*
Y167704D02*
Y165604D01*
Y170600D02*
Y160600D01*
Y173496D02*
Y175596D01*
Y177704D02*
Y175604D01*
Y180600D02*
Y170600D01*
Y183496D02*
Y185596D01*
Y187704D02*
Y185604D01*
Y190600D02*
Y180600D01*
Y193496D02*
Y195596D01*
Y197704D02*
Y195604D01*
Y200600D02*
Y190600D01*
Y203496D02*
Y205596D01*
Y207704D02*
Y205604D01*
Y210600D02*
Y200600D01*
Y213496D02*
Y215596D01*
Y217704D02*
Y215604D01*
Y220600D02*
Y210600D01*
Y223496D02*
Y225596D01*
Y227704D02*
Y225604D01*
Y230600D02*
Y220600D01*
Y233496D02*
Y235596D01*
Y237704D02*
Y235604D01*
Y240600D02*
Y230600D01*
Y243496D02*
Y245596D01*
Y247704D02*
Y245604D01*
Y250600D02*
Y240600D01*
Y253496D02*
Y255596D01*
Y379100D02*
Y377000D01*
Y380600D02*
Y250600D01*
Y382100D02*
Y384200D01*
X582100Y380600D02*
X584200D01*
X583496Y60600D02*
X585596D01*
X583496Y70600D02*
X585596D01*
X583496Y80600D02*
X585596D01*
X583496Y90600D02*
X585596D01*
X583496Y100600D02*
X585596D01*
X583496Y110600D02*
X585596D01*
X583496Y120600D02*
X585596D01*
X583496Y130600D02*
X585596D01*
X583496Y140600D02*
X585596D01*
X583496Y150600D02*
X585596D01*
X583496Y160600D02*
X585596D01*
X583496Y170600D02*
X585596D01*
X583496Y180600D02*
X585596D01*
X583496Y190600D02*
X585596D01*
X583496Y200600D02*
X585596D01*
X583496Y210600D02*
X585596D01*
X583496Y220600D02*
X585596D01*
X583496Y230600D02*
X585596D01*
X583496Y240600D02*
X585596D01*
X583496Y250600D02*
X585596D01*
D02*
D12*
X43100Y255600D03*
X48100Y250600D03*
Y265600D03*
Y275600D03*
Y310600D03*
X53100Y265600D03*
Y275600D03*
Y315600D03*
X58100Y265600D03*
Y275600D03*
X64399Y145600D03*
X70600Y315600D03*
X73100Y95600D03*
Y130600D03*
X75600Y310600D03*
X78100Y35600D03*
X88100Y360600D03*
X93100Y150600D03*
Y160600D03*
X95600Y33100D03*
X98100Y23100D03*
Y163100D03*
Y180600D03*
X103100Y185600D03*
X104399Y215600D03*
X105600Y18100D03*
Y143100D03*
X113100Y60600D03*
X119852Y170600D03*
X123100Y325600D03*
X125600Y215600D03*
X126899Y70600D03*
Y110600D03*
X135600Y35600D03*
X140600Y135600D03*
Y148100D03*
X145600Y135600D03*
X153100Y50600D03*
Y60600D03*
X158100Y160600D03*
Y195600D03*
X160600Y118100D03*
X165600Y215600D03*
Y233100D03*
X168100Y248100D03*
X170600Y145600D03*
X173100Y243100D03*
X180600Y135600D03*
X185600Y80600D03*
X188100Y218100D03*
Y228100D03*
X193100Y50600D03*
Y65600D03*
Y88100D03*
Y248100D03*
X195600Y105600D03*
Y363100D03*
X198100Y151251D03*
Y200600D03*
Y215600D03*
Y228100D03*
Y243100D03*
Y313100D03*
X203100Y95600D03*
Y126330D03*
Y148100D03*
Y168100D03*
Y340600D03*
X208100Y135600D03*
Y330600D03*
X210600Y190600D03*
X213100Y135600D03*
X215600Y350600D03*
X218100Y178100D03*
X220600Y165600D03*
X223100Y305600D03*
X225600Y248100D03*
X228100Y50600D03*
Y63100D03*
Y83100D03*
X230600Y215600D03*
Y235600D03*
X233100Y78100D03*
X235600Y338100D03*
X238100Y178100D03*
X240600Y83100D03*
Y248100D03*
Y288100D03*
X245163Y283100D03*
X253100Y126330D03*
Y158100D03*
X255163Y288100D03*
X255600Y165600D03*
X258100Y178100D03*
X263100Y150521D03*
X268100Y43100D03*
X270600Y13100D03*
Y360600D03*
X273100Y55600D03*
Y73100D03*
Y95600D03*
Y208100D03*
Y228100D03*
X275600Y368100D03*
X278100Y228100D03*
X283100Y35600D03*
Y185600D03*
Y208100D03*
X285600Y135600D03*
Y218100D03*
Y230600D03*
Y268100D03*
X290600Y58100D03*
X293100Y35600D03*
X295600Y128100D03*
Y258100D03*
X298100Y155600D03*
Y165600D03*
Y178100D03*
X300600Y150521D03*
X305600Y80600D03*
Y215600D03*
Y240600D03*
Y248100D03*
Y253100D03*
X308100Y48100D03*
X313100Y65679D03*
X330600Y240600D03*
Y248100D03*
Y258100D03*
X333100Y60600D03*
Y180600D03*
Y218100D03*
X335600Y263100D03*
Y268100D03*
X338100Y65679D03*
X340600Y85600D03*
Y128100D03*
X345600Y90600D03*
Y115600D03*
X348100Y60600D03*
Y83100D03*
X350600Y165600D03*
Y218100D03*
X353100Y90600D03*
Y140600D03*
X355600Y200600D03*
X358100Y150600D03*
X360600Y268100D03*
X363100Y145600D03*
Y165600D03*
Y218100D03*
X365600Y240600D03*
Y248100D03*
X368100Y58100D03*
Y155600D03*
Y165600D03*
Y218100D03*
X373100D03*
Y233021D03*
Y270600D03*
X375600Y43100D03*
Y83100D03*
X378100Y243100D03*
X380600Y103100D03*
Y155600D03*
Y183100D03*
Y190600D03*
X383100Y248100D03*
X385600Y43100D03*
Y70600D03*
Y83100D03*
Y200600D03*
X388100Y250600D03*
X390600Y93100D03*
Y105600D03*
Y190600D03*
X393100Y263100D03*
Y275600D03*
X395600Y165600D03*
Y183100D03*
Y193100D03*
Y200600D03*
Y218100D03*
X400600Y70600D03*
Y105600D03*
X403100Y218100D03*
Y245600D03*
X408100Y135600D03*
Y165600D03*
Y183100D03*
X410600Y193100D03*
X413100Y105600D03*
X420600Y165600D03*
X423100Y183100D03*
Y190600D03*
X428100Y215600D03*
X430600Y135600D03*
Y148100D03*
X433100Y183100D03*
X438100Y133100D03*
Y168100D03*
X445600Y70600D03*
X450600Y200600D03*
X458100Y23100D03*
Y100600D03*
X465600Y80600D03*
X475600Y23100D03*
X485600Y105600D03*
X488100Y193100D03*
X494694Y163100D03*
Y200600D03*
X508100Y203100D03*
Y218100D03*
X520600Y380600D03*
X523100Y343100D03*
Y350600D03*
X535600Y343100D03*
Y350600D03*
X548100Y88100D03*
X553100Y75600D03*
X580600Y380600D03*
D02*
D13*
X197881Y333726D03*
X375163D03*
D02*
D14*
X67881Y302474D03*
Y333726D03*
X77881Y302474D03*
Y333726D03*
X87881Y302474D03*
Y333726D03*
X97881Y302474D03*
Y333726D03*
X107881Y302474D03*
Y333726D03*
X117881Y302474D03*
Y333726D03*
X127881Y302474D03*
Y333726D03*
X137881Y302474D03*
Y333726D03*
X147881Y302474D03*
Y333726D03*
X157881Y302474D03*
Y333726D03*
X167881Y302474D03*
Y333726D03*
X177881Y302474D03*
Y333726D03*
X187881Y302474D03*
Y333726D03*
X197881Y302474D03*
X245163D03*
Y333726D03*
X255163Y302474D03*
Y333726D03*
X265163Y302474D03*
Y333726D03*
X275163Y302474D03*
Y333726D03*
X285163Y302474D03*
Y333726D03*
X295163Y302474D03*
Y333726D03*
X305163Y302474D03*
Y333726D03*
X315163Y302474D03*
Y333726D03*
X325163Y302474D03*
Y333726D03*
X335163Y302474D03*
Y333726D03*
X345163Y302474D03*
Y333726D03*
X355163Y302474D03*
Y333726D03*
X365163Y302474D03*
Y333726D03*
X375163Y302474D03*
D02*
D15*
X45305Y62864D03*
Y80580D03*
Y176742D03*
Y194458D03*
X70895Y62864D03*
Y80580D03*
Y176742D03*
Y194458D03*
X85305Y176742D03*
Y194458D03*
X87057Y18553D03*
Y36269D03*
X108369Y94242D03*
Y111958D03*
X110895Y176742D03*
Y194458D03*
X112647Y18553D03*
Y36269D03*
X124557Y18553D03*
Y36269D03*
X125305Y176742D03*
Y194458D03*
X133960Y94242D03*
Y111958D03*
X145869Y94242D03*
Y111958D03*
X150147Y18553D03*
Y36269D03*
X150895Y176742D03*
Y194458D03*
X162057Y18553D03*
Y36269D03*
X165305Y176566D03*
Y194283D03*
X171460Y94242D03*
Y111958D03*
X187647Y18553D03*
Y36269D03*
X190895Y176566D03*
Y194283D03*
X200305Y18553D03*
Y36269D03*
X205430Y176566D03*
Y194283D03*
X225305Y94242D03*
Y111958D03*
X225895Y18553D03*
Y36269D03*
X231020Y176566D03*
Y194283D03*
X237057Y18553D03*
Y36269D03*
X245305Y176566D03*
Y194283D03*
X250895Y94242D03*
Y111958D03*
X262647Y18553D03*
Y36269D03*
X263369Y94242D03*
Y111958D03*
X270895Y176566D03*
Y194283D03*
X275600Y18553D03*
Y36269D03*
X285305Y176525D03*
Y194242D03*
X288960Y94242D03*
Y111958D03*
X300869Y94242D03*
Y111958D03*
X301191Y18553D03*
Y36269D03*
X310895Y176525D03*
Y194242D03*
X313100Y18553D03*
Y36269D03*
X326335Y176566D03*
Y194283D03*
X326460Y94242D03*
Y111958D03*
X338691Y18553D03*
Y36269D03*
X350600Y18553D03*
Y36269D03*
X351925Y176566D03*
Y194283D03*
X376191Y18553D03*
Y36269D03*
X405305Y18553D03*
Y36269D03*
X405600Y94242D03*
Y111958D03*
X418257Y296348D03*
X428100D03*
X430895Y18553D03*
Y36269D03*
X431191Y94242D03*
Y111958D03*
X436617Y176742D03*
Y194458D03*
X437943Y296348D03*
X443553Y18553D03*
Y36269D03*
X445600Y94242D03*
Y111958D03*
X462208Y176742D03*
Y194458D03*
X469143Y18553D03*
Y36269D03*
X471191Y94242D03*
Y111958D03*
X475600Y176742D03*
Y194458D03*
X483553Y18553D03*
Y36269D03*
X501191Y176742D03*
Y194458D03*
X509143Y18553D03*
Y36269D03*
X515305Y176742D03*
Y194458D03*
X528848Y19242D03*
Y36958D03*
Y94242D03*
Y111958D03*
X540895Y176742D03*
Y194458D03*
X554439Y19242D03*
Y36958D03*
Y94242D03*
Y111958D03*
D02*
D16*
X58100Y115679D03*
Y125521D03*
Y223179D03*
Y233021D03*
X98100Y223179D03*
Y233021D03*
X99852Y65679D03*
Y75521D03*
X119852Y143179D03*
Y153021D03*
X138100Y65679D03*
Y75521D03*
Y223179D03*
Y233021D03*
X159852Y141409D03*
Y151251D03*
X175600Y65679D03*
Y75521D03*
X178100Y223179D03*
Y233021D03*
X213848Y65679D03*
Y75521D03*
X218100Y223179D03*
Y233021D03*
X237352Y141409D03*
Y151251D03*
X252352Y65679D03*
Y75521D03*
X257975Y223179D03*
Y233021D03*
X275600Y140679D03*
Y150521D03*
X288395Y65679D03*
Y75521D03*
X298100Y223179D03*
Y233021D03*
X318100Y140679D03*
Y150521D03*
X325895Y65679D03*
Y75521D03*
X340600Y223179D03*
Y233021D03*
X366643Y65679D03*
Y75521D03*
X386913Y223179D03*
Y233021D03*
X416913Y223179D03*
Y233021D03*
X418100Y140679D03*
Y150521D03*
X419852Y65679D03*
Y75521D03*
X446913Y223179D03*
Y233021D03*
X458100Y65679D03*
Y75521D03*
Y140679D03*
Y150521D03*
X488395Y223179D03*
Y233021D03*
X498100Y65679D03*
Y75521D03*
X528100Y223179D03*
Y233021D03*
D02*
D17*
X128100Y281037D03*
X138100D03*
X148100D03*
X158100D03*
X168100D03*
X178100D03*
X188100D03*
X198100D03*
X208100D03*
D02*
D70*
X409399Y325876D03*
X446801D03*
D02*
D21*
X215600Y380600D03*
X225600D03*
X235600D03*
X245600D03*
X255600D03*
X520600Y370600D03*
X530600D03*
X540600D03*
X550600D03*
D02*
D23*
X10600Y250600D03*
X570600D03*
D02*
D24*
X10600Y60600D03*
Y70600D03*
Y80600D03*
Y90600D03*
Y100600D03*
Y110600D03*
Y120600D03*
Y130600D03*
Y140600D03*
Y150600D03*
Y160600D03*
Y170600D03*
Y180600D03*
Y190600D03*
Y200600D03*
Y210600D03*
Y220600D03*
Y230600D03*
Y240600D03*
X20600Y60600D03*
Y70600D03*
Y80600D03*
Y90600D03*
Y100600D03*
Y110600D03*
Y120600D03*
Y130600D03*
Y140600D03*
Y150600D03*
Y160600D03*
Y170600D03*
Y180600D03*
Y190600D03*
Y200600D03*
Y210600D03*
Y220600D03*
Y230600D03*
Y240600D03*
Y250600D03*
X570600Y60600D03*
Y70600D03*
Y80600D03*
Y90600D03*
Y100600D03*
Y110600D03*
Y120600D03*
Y130600D03*
Y140600D03*
Y150600D03*
Y160600D03*
Y170600D03*
Y180600D03*
Y190600D03*
Y200600D03*
Y210600D03*
Y220600D03*
Y230600D03*
Y240600D03*
X580600Y60600D03*
Y70600D03*
Y80600D03*
Y90600D03*
Y100600D03*
Y110600D03*
Y120600D03*
Y130600D03*
Y140600D03*
Y150600D03*
Y160600D03*
Y170600D03*
Y180600D03*
Y190600D03*
Y200600D03*
Y210600D03*
Y220600D03*
Y230600D03*
Y240600D03*
Y250600D03*
X0Y0D02*
M02*
