G04 DesignSpark PCB Gerber Version 9.0 Build 5138 *
%FSLAX35Y35*%
%MOIN*%
%ADD86C,0.00197*%
%ADD85C,0.00394*%
X0Y0D02*
D02*
D85*
X220069Y289895D02*
X119163D01*
Y272179*
X220069*
Y289895*
X399234Y348907D02*
X456966D01*
Y287293*
X399234*
Y348907*
D02*
D86*
X4616Y257569D02*
X27175D01*
Y52450*
X4616*
Y257569*
X68139Y201604D02*
X48061D01*
Y214596*
X68139*
Y201604*
X69635Y89104D02*
X49557D01*
Y102096*
X69635*
Y89104*
X104970Y352273D02*
X121230D01*
Y343927*
X104970*
Y352273*
X108139Y201604D02*
X88061D01*
Y214596*
X108139*
Y201604*
X110639Y44104D02*
X90561D01*
Y57096*
X110639*
Y44104*
X130639Y119834D02*
X110561D01*
Y132826*
X130639*
Y119834*
X148139Y44104D02*
X128061D01*
Y57096*
X148139*
Y44104*
X148887Y202334D02*
X128809D01*
Y215326*
X148887*
Y202334*
X170639Y119834D02*
X150561D01*
Y132826*
X170639*
Y119834*
X183139Y44104D02*
X163061D01*
Y57096*
X183139*
Y44104*
X188887Y202334D02*
X168809D01*
Y215326*
X188887*
Y202334*
X203866Y338116D02*
Y298084D01*
X61897*
Y338116*
X203866*
X214143Y332628D02*
X232057D01*
Y323572*
X214143*
Y332628*
X214970Y319773D02*
X231230D01*
Y311427*
X214970*
Y319773*
X221387Y44104D02*
X201309D01*
Y57096*
X221387*
Y44104*
X228139Y201469D02*
X208061D01*
Y214461*
X228139*
Y201469*
X231643Y352628D02*
X249557D01*
Y343572*
X231643*
Y352628*
Y367628D02*
X249557D01*
Y358572*
X231643*
Y367628*
X248139Y119834D02*
X228061D01*
Y132826*
X248139*
Y119834*
X258139Y44104D02*
X238061D01*
Y57096*
X258139*
Y44104*
X268014Y201469D02*
X247935D01*
Y214461*
X268014*
Y201469*
X282252Y352273D02*
X298511D01*
Y343927*
X282252*
Y352273*
X285639Y119834D02*
X265561D01*
Y132826*
X285639*
Y119834*
X299183Y44104D02*
X279104D01*
Y57096*
X299183*
Y44104*
X307194Y290718D02*
Y272805D01*
X298139*
Y290718*
X307194*
X308014Y201469D02*
X287935D01*
Y214461*
X308014*
Y201469*
X319694Y290718D02*
Y272805D01*
X310639*
Y290718*
X319694*
X323139Y119834D02*
X303061D01*
Y132826*
X323139*
Y119834*
X332194Y290718D02*
Y272805D01*
X323139*
Y290718*
X332194*
X336683Y44104D02*
X316604D01*
Y57096*
X336683*
Y44104*
X344694Y290718D02*
Y272805D01*
X335639*
Y290718*
X344694*
X348139Y201469D02*
X328061D01*
Y214461*
X348139*
Y201469*
X374183Y44104D02*
X354104D01*
Y57096*
X374183*
Y44104*
X381147Y338116D02*
Y298084D01*
X239179*
Y338116*
X381147*
X428887Y44104D02*
X408809D01*
Y57096*
X428887*
Y44104*
X429183Y119793D02*
X409104D01*
Y132785*
X429183*
Y119793*
X459452Y201604D02*
X439373D01*
Y214596*
X459452*
Y201604*
X467135Y44104D02*
X447057D01*
Y57096*
X467135*
Y44104*
X469183Y119793D02*
X449104D01*
Y132785*
X469183*
Y119793*
X498435Y201604D02*
X478356D01*
Y214596*
X498435*
Y201604*
X507135Y44104D02*
X487057D01*
Y57096*
X507135*
Y44104*
X538139Y201604D02*
X518061D01*
Y214596*
X538139*
Y201604*
X550639Y119104D02*
X530561D01*
Y132096*
X550639*
Y119104*
X552431Y44793D02*
X532352D01*
Y57785*
X552431*
Y44793*
X564616Y257569D02*
X587175D01*
Y52450*
X564616*
Y257569*
X0Y0D02*
M02*
