G04 DesignSpark PCB Gerber Version 9.0 Build 5138 *
%FSLAX35Y35*%
%MOIN*%
%ADD25R,0.05563X0.05563*%
%ADD77R,0.07000X0.07000*%
%ADD78R,0.07791X0.07791*%
%ADD26C,0.05563*%
%ADD29C,0.06634*%
%ADD27C,0.06906*%
%ADD28C,0.07496*%
%ADD79C,0.07791*%
%ADD74C,0.13457*%
X0Y0D02*
D02*
D25*
X197881Y333726D03*
X375163D03*
D02*
D26*
X67881Y302474D03*
Y333726D03*
X77881Y302474D03*
Y333726D03*
X87881Y302474D03*
Y333726D03*
X97881Y302474D03*
Y333726D03*
X107881Y302474D03*
Y333726D03*
X117881Y302474D03*
Y333726D03*
X127881Y302474D03*
Y333726D03*
X137881Y302474D03*
Y333726D03*
X147881Y302474D03*
Y333726D03*
X157881Y302474D03*
Y333726D03*
X167881Y302474D03*
Y333726D03*
X177881Y302474D03*
Y333726D03*
X187881Y302474D03*
Y333726D03*
X197881Y302474D03*
X245163D03*
Y333726D03*
X255163Y302474D03*
Y333726D03*
X265163Y302474D03*
Y333726D03*
X275163Y302474D03*
Y333726D03*
X285163Y302474D03*
Y333726D03*
X295163Y302474D03*
Y333726D03*
X305163Y302474D03*
Y333726D03*
X315163Y302474D03*
Y333726D03*
X325163Y302474D03*
Y333726D03*
X335163Y302474D03*
Y333726D03*
X345163Y302474D03*
Y333726D03*
X355163Y302474D03*
Y333726D03*
X365163Y302474D03*
Y333726D03*
X375163Y302474D03*
D02*
D27*
X45305Y62864D03*
Y80580D03*
Y176742D03*
Y194458D03*
X70895Y62864D03*
Y80580D03*
Y176742D03*
Y194458D03*
X85305Y176742D03*
Y194458D03*
X87057Y18553D03*
Y36269D03*
X108369Y94242D03*
Y111958D03*
X110895Y176742D03*
Y194458D03*
X112647Y18553D03*
Y36269D03*
X124557Y18553D03*
Y36269D03*
X125305Y176742D03*
Y194458D03*
X133960Y94242D03*
Y111958D03*
X145869Y94242D03*
Y111958D03*
X150147Y18553D03*
Y36269D03*
X150895Y176742D03*
Y194458D03*
X162057Y18553D03*
Y36269D03*
X165305Y176566D03*
Y194283D03*
X171460Y94242D03*
Y111958D03*
X187647Y18553D03*
Y36269D03*
X190895Y176566D03*
Y194283D03*
X200305Y18553D03*
Y36269D03*
X205430Y176566D03*
Y194283D03*
X225305Y94242D03*
Y111958D03*
X225895Y18553D03*
Y36269D03*
X231020Y176566D03*
Y194283D03*
X237057Y18553D03*
Y36269D03*
X245305Y176566D03*
Y194283D03*
X250895Y94242D03*
Y111958D03*
X262647Y18553D03*
Y36269D03*
X263369Y94242D03*
Y111958D03*
X270895Y176566D03*
Y194283D03*
X275600Y18553D03*
Y36269D03*
X285305Y176525D03*
Y194242D03*
X288960Y94242D03*
Y111958D03*
X300869Y94242D03*
Y111958D03*
X301191Y18553D03*
Y36269D03*
X310895Y176525D03*
Y194242D03*
X313100Y18553D03*
Y36269D03*
X326335Y176566D03*
Y194283D03*
X326460Y94242D03*
Y111958D03*
X338691Y18553D03*
Y36269D03*
X350600Y18553D03*
Y36269D03*
X351925Y176566D03*
Y194283D03*
X376191Y18553D03*
Y36269D03*
X405305Y18553D03*
Y36269D03*
X405600Y94242D03*
Y111958D03*
X418257Y296348D03*
X428100D03*
X430895Y18553D03*
Y36269D03*
X431191Y94242D03*
Y111958D03*
X436617Y176742D03*
Y194458D03*
X437943Y296348D03*
X443553Y18553D03*
Y36269D03*
X445600Y94242D03*
Y111958D03*
X462208Y176742D03*
Y194458D03*
X469143Y18553D03*
Y36269D03*
X471191Y94242D03*
Y111958D03*
X475600Y176742D03*
Y194458D03*
X483553Y18553D03*
Y36269D03*
X501191Y176742D03*
Y194458D03*
X509143Y18553D03*
Y36269D03*
X515305Y176742D03*
Y194458D03*
X528848Y19242D03*
Y36958D03*
Y94242D03*
Y111958D03*
X540895Y176742D03*
Y194458D03*
X554439Y19242D03*
Y36958D03*
Y94242D03*
Y111958D03*
D02*
D28*
X58100Y115679D03*
Y125521D03*
Y223179D03*
Y233021D03*
X98100Y223179D03*
Y233021D03*
X99852Y65679D03*
Y75521D03*
X119852Y143179D03*
Y153021D03*
X138100Y65679D03*
Y75521D03*
Y223179D03*
Y233021D03*
X159852Y141409D03*
Y151251D03*
X175600Y65679D03*
Y75521D03*
X178100Y223179D03*
Y233021D03*
X213848Y65679D03*
Y75521D03*
X218100Y223179D03*
Y233021D03*
X237352Y141409D03*
Y151251D03*
X252352Y65679D03*
Y75521D03*
X257975Y223179D03*
Y233021D03*
X275600Y140679D03*
Y150521D03*
X288395Y65679D03*
Y75521D03*
X298100Y223179D03*
Y233021D03*
X318100Y140679D03*
Y150521D03*
X325895Y65679D03*
Y75521D03*
X340600Y223179D03*
Y233021D03*
X366643Y65679D03*
Y75521D03*
X386913Y223179D03*
Y233021D03*
X416913Y223179D03*
Y233021D03*
X418100Y140679D03*
Y150521D03*
X419852Y65679D03*
Y75521D03*
X446913Y223179D03*
Y233021D03*
X458100Y65679D03*
Y75521D03*
Y140679D03*
Y150521D03*
X488395Y223179D03*
Y233021D03*
X498100Y65679D03*
Y75521D03*
X528100Y223179D03*
Y233021D03*
D02*
D29*
X128100Y281037D03*
X138100D03*
X148100D03*
X158100D03*
X168100D03*
X178100D03*
X188100D03*
X198100D03*
X208100D03*
D02*
D74*
X409399Y325876D03*
X446801D03*
D02*
D77*
X215600Y380600D03*
X225600D03*
X235600D03*
X245600D03*
X255600D03*
X520600Y370600D03*
X530600D03*
X540600D03*
X550600D03*
D02*
D78*
X10600Y250600D03*
X570600D03*
D02*
D79*
X10600Y60600D03*
Y70600D03*
Y80600D03*
Y90600D03*
Y100600D03*
Y110600D03*
Y120600D03*
Y130600D03*
Y140600D03*
Y150600D03*
Y160600D03*
Y170600D03*
Y180600D03*
Y190600D03*
Y200600D03*
Y210600D03*
Y220600D03*
Y230600D03*
Y240600D03*
X20600Y60600D03*
Y70600D03*
Y80600D03*
Y90600D03*
Y100600D03*
Y110600D03*
Y120600D03*
Y130600D03*
Y140600D03*
Y150600D03*
Y160600D03*
Y170600D03*
Y180600D03*
Y190600D03*
Y200600D03*
Y210600D03*
Y220600D03*
Y230600D03*
Y240600D03*
Y250600D03*
X570600Y60600D03*
Y70600D03*
Y80600D03*
Y90600D03*
Y100600D03*
Y110600D03*
Y120600D03*
Y130600D03*
Y140600D03*
Y150600D03*
Y160600D03*
Y170600D03*
Y180600D03*
Y190600D03*
Y200600D03*
Y210600D03*
Y220600D03*
Y230600D03*
Y240600D03*
X580600Y60600D03*
Y70600D03*
Y80600D03*
Y90600D03*
Y100600D03*
Y110600D03*
Y120600D03*
Y130600D03*
Y140600D03*
Y150600D03*
Y160600D03*
Y170600D03*
Y180600D03*
Y190600D03*
Y200600D03*
Y210600D03*
Y220600D03*
Y230600D03*
Y240600D03*
Y250600D03*
X0Y0D02*
M02*
