G05
M48
INCH,TZ
FMAT,2
T1C000.02400
T2C000.02988
T3C000.03500
T4C000.03622
T5C000.03937
T6C000.04331
T7C000.04528
T8C000.08305
%
T001
X0.43100Y2.55600
X0.48100Y2.50600
X0.48100Y2.65600
X0.48100Y2.75600
X0.48100Y3.10600
X0.53100Y2.65600
X0.53100Y2.75600
X0.53100Y3.15600
X0.58100Y2.65600
X0.58100Y2.75600
X0.64399Y1.45600
X0.70600Y3.15600
X0.73100Y0.95600
X0.73100Y1.30600
X0.75600Y3.10600
X0.78100Y0.35600
X0.88100Y3.60600
X0.93100Y1.50600
X0.93100Y1.60600
X0.95600Y0.33100
X0.98100Y0.23100
X0.98100Y1.63100
X0.98100Y1.80600
X1.03100Y1.85600
X1.04399Y2.15600
X1.05600Y0.18100
X1.05600Y1.43100
X1.13100Y0.60600
X1.19852Y1.70600
X1.23100Y3.25600
X1.25600Y2.15600
X1.26899Y0.70600
X1.26899Y1.10600
X1.35600Y0.35600
X1.40600Y1.35600
X1.40600Y1.48100
X1.45600Y1.35600
X1.53100Y0.50600
X1.53100Y0.60600
X1.58100Y1.60600
X1.58100Y1.95600
X1.60600Y1.18100
X1.65600Y2.15600
X1.65600Y2.33100
X1.68100Y2.48100
X1.70600Y1.45600
X1.73100Y2.43100
X1.80600Y1.35600
X1.85600Y0.80600
X1.88100Y2.18100
X1.88100Y2.28100
X1.93100Y0.50600
X1.93100Y0.65600
X1.93100Y0.88100
X1.93100Y2.48100
X1.95600Y1.05600
X1.95600Y3.63100
X1.98100Y1.51251
X1.98100Y2.00600
X1.98100Y2.15600
X1.98100Y2.28100
X1.98100Y2.43100
X1.98100Y3.13100
X2.03100Y0.95600
X2.03100Y1.26330
X2.03100Y1.48100
X2.03100Y1.68100
X2.03100Y3.40600
X2.08100Y1.35600
X2.08100Y3.30600
X2.10600Y1.90600
X2.13100Y1.35600
X2.15600Y3.50600
X2.18100Y1.78100
X2.20600Y1.65600
X2.23100Y3.05600
X2.25600Y2.48100
X2.28100Y0.50600
X2.28100Y0.63100
X2.28100Y0.83100
X2.30600Y2.15600
X2.30600Y2.35600
X2.33100Y0.78100
X2.35600Y3.38100
X2.38100Y1.78100
X2.40600Y0.83100
X2.40600Y2.48100
X2.40600Y2.88100
X2.45163Y2.83100
X2.53100Y1.26330
X2.53100Y1.58100
X2.55163Y2.88100
X2.55600Y1.65600
X2.58100Y1.78100
X2.63100Y1.50521
X2.68100Y0.43100
X2.70600Y0.13100
X2.70600Y3.60600
X2.73100Y0.55600
X2.73100Y0.73100
X2.73100Y0.95600
X2.73100Y2.08100
X2.73100Y2.28100
X2.75600Y3.68100
X2.78100Y2.28100
X2.83100Y0.35600
X2.83100Y1.85600
X2.83100Y2.08100
X2.85600Y1.35600
X2.85600Y2.18100
X2.85600Y2.30600
X2.85600Y2.68100
X2.90600Y0.58100
X2.93100Y0.35600
X2.95600Y1.28100
X2.95600Y2.58100
X2.98100Y1.55600
X2.98100Y1.65600
X2.98100Y1.78100
X3.00600Y1.50521
X3.05600Y0.80600
X3.05600Y2.15600
X3.05600Y2.40600
X3.05600Y2.48100
X3.05600Y2.53100
X3.08100Y0.48100
X3.13100Y0.65679
X3.30600Y2.40600
X3.30600Y2.48100
X3.30600Y2.58100
X3.33100Y0.60600
X3.33100Y1.80600
X3.33100Y2.18100
X3.35600Y2.63100
X3.35600Y2.68100
X3.38100Y0.65679
X3.40600Y0.85600
X3.40600Y1.28100
X3.45600Y0.90600
X3.45600Y1.15600
X3.48100Y0.60600
X3.48100Y0.83100
X3.50600Y1.65600
X3.50600Y2.18100
X3.53100Y0.90600
X3.53100Y1.40600
X3.55600Y2.00600
X3.58100Y1.50600
X3.60600Y2.68100
X3.63100Y1.45600
X3.63100Y1.65600
X3.63100Y2.18100
X3.65600Y2.40600
X3.65600Y2.48100
X3.68100Y0.58100
X3.68100Y1.55600
X3.68100Y1.65600
X3.68100Y2.18100
X3.73100Y2.18100
X3.73100Y2.33021
X3.73100Y2.70600
X3.75600Y0.43100
X3.75600Y0.83100
X3.78100Y2.43100
X3.80600Y1.03100
X3.80600Y1.55600
X3.80600Y1.83100
X3.80600Y1.90600
X3.83100Y2.48100
X3.85600Y0.43100
X3.85600Y0.70600
X3.85600Y0.83100
X3.85600Y2.00600
X3.88100Y2.50600
X3.90600Y0.93100
X3.90600Y1.05600
X3.90600Y1.90600
X3.93100Y2.63100
X3.93100Y2.75600
X3.95600Y1.65600
X3.95600Y1.83100
X3.95600Y1.93100
X3.95600Y2.00600
X3.95600Y2.18100
X4.00600Y0.70600
X4.00600Y1.05600
X4.03100Y2.18100
X4.03100Y2.45600
X4.08100Y1.35600
X4.08100Y1.65600
X4.08100Y1.83100
X4.10600Y1.93100
X4.13100Y1.05600
X4.20600Y1.65600
X4.23100Y1.83100
X4.23100Y1.90600
X4.28100Y2.15600
X4.30600Y1.35600
X4.30600Y1.48100
X4.33100Y1.83100
X4.38100Y1.33100
X4.38100Y1.68100
X4.45600Y0.70600
X4.50600Y2.00600
X4.58100Y0.23100
X4.58100Y1.00600
X4.65600Y0.80600
X4.75600Y0.23100
X4.85600Y1.05600
X4.88100Y1.93100
X4.94694Y1.63100
X4.94694Y2.00600
X5.08100Y2.03100
X5.08100Y2.18100
X5.20600Y3.80600
X5.23100Y3.43100
X5.23100Y3.50600
X5.35600Y3.43100
X5.35600Y3.50600
X5.48100Y0.88100
X5.53100Y0.75600
X5.80600Y3.80600
T002
X0.67881Y3.02474
X0.67881Y3.33726
X0.77881Y3.02474
X0.77881Y3.33726
X0.87881Y3.02474
X0.87881Y3.33726
X0.97881Y3.02474
X0.97881Y3.33726
X1.07881Y3.02474
X1.07881Y3.33726
X1.17881Y3.02474
X1.17881Y3.33726
X1.27881Y3.02474
X1.27881Y3.33726
X1.37881Y3.02474
X1.37881Y3.33726
X1.47881Y3.02474
X1.47881Y3.33726
X1.57881Y3.02474
X1.57881Y3.33726
X1.67881Y3.02474
X1.67881Y3.33726
X1.77881Y3.02474
X1.77881Y3.33726
X1.87881Y3.02474
X1.87881Y3.33726
X1.97881Y3.02474
X1.97881Y3.33726
X2.45163Y3.02474
X2.45163Y3.33726
X2.55163Y3.02474
X2.55163Y3.33726
X2.65163Y3.02474
X2.65163Y3.33726
X2.75163Y3.02474
X2.75163Y3.33726
X2.85163Y3.02474
X2.85163Y3.33726
X2.95163Y3.02474
X2.95163Y3.33726
X3.05163Y3.02474
X3.05163Y3.33726
X3.15163Y3.02474
X3.15163Y3.33726
X3.25163Y3.02474
X3.25163Y3.33726
X3.35163Y3.02474
X3.35163Y3.33726
X3.45163Y3.02474
X3.45163Y3.33726
X3.55163Y3.02474
X3.55163Y3.33726
X3.65163Y3.02474
X3.65163Y3.33726
X3.75163Y3.02474
X3.75163Y3.33726
T003
X2.15600Y3.80600
X2.25600Y3.80600
X2.35600Y3.80600
X2.45600Y3.80600
X2.55600Y3.80600
X5.20600Y3.70600
X5.30600Y3.70600
X5.40600Y3.70600
X5.50600Y3.70600
T004
X1.28100Y2.81037
X1.38100Y2.81037
X1.48100Y2.81037
X1.58100Y2.81037
X1.68100Y2.81037
X1.78100Y2.81037
X1.88100Y2.81037
X1.98100Y2.81037
X2.08100Y2.81037
T005
X0.45305Y0.62864
X0.45305Y0.80580
X0.45305Y1.76742
X0.45305Y1.94458
X0.70895Y0.62864
X0.70895Y0.80580
X0.70895Y1.76742
X0.70895Y1.94458
X0.85305Y1.76742
X0.85305Y1.94458
X0.87057Y0.18553
X0.87057Y0.36269
X1.08369Y0.94242
X1.08369Y1.11958
X1.10895Y1.76742
X1.10895Y1.94458
X1.12647Y0.18553
X1.12647Y0.36269
X1.24557Y0.18553
X1.24557Y0.36269
X1.25305Y1.76742
X1.25305Y1.94458
X1.33960Y0.94242
X1.33960Y1.11958
X1.45869Y0.94242
X1.45869Y1.11958
X1.50147Y0.18553
X1.50147Y0.36269
X1.50895Y1.76742
X1.50895Y1.94458
X1.62057Y0.18553
X1.62057Y0.36269
X1.65305Y1.76566
X1.65305Y1.94283
X1.71460Y0.94242
X1.71460Y1.11958
X1.87647Y0.18553
X1.87647Y0.36269
X1.90895Y1.76566
X1.90895Y1.94283
X2.00305Y0.18553
X2.00305Y0.36269
X2.05430Y1.76566
X2.05430Y1.94283
X2.25305Y0.94242
X2.25305Y1.11958
X2.25895Y0.18553
X2.25895Y0.36269
X2.31020Y1.76566
X2.31020Y1.94283
X2.37057Y0.18553
X2.37057Y0.36269
X2.45305Y1.76566
X2.45305Y1.94283
X2.50895Y0.94242
X2.50895Y1.11958
X2.62647Y0.18553
X2.62647Y0.36269
X2.63369Y0.94242
X2.63369Y1.11958
X2.70895Y1.76566
X2.70895Y1.94283
X2.75600Y0.18553
X2.75600Y0.36269
X2.85305Y1.76525
X2.85305Y1.94242
X2.88960Y0.94242
X2.88960Y1.11958
X3.00869Y0.94242
X3.00869Y1.11958
X3.01191Y0.18553
X3.01191Y0.36269
X3.10895Y1.76525
X3.10895Y1.94242
X3.13100Y0.18553
X3.13100Y0.36269
X3.26335Y1.76566
X3.26335Y1.94283
X3.26460Y0.94242
X3.26460Y1.11958
X3.38691Y0.18553
X3.38691Y0.36269
X3.50600Y0.18553
X3.50600Y0.36269
X3.51925Y1.76566
X3.51925Y1.94283
X3.76191Y0.18553
X3.76191Y0.36269
X4.05305Y0.18553
X4.05305Y0.36269
X4.05600Y0.94242
X4.05600Y1.11958
X4.18257Y2.96348
X4.28100Y2.96348
X4.30895Y0.18553
X4.30895Y0.36269
X4.31191Y0.94242
X4.31191Y1.11958
X4.36617Y1.76742
X4.36617Y1.94458
X4.37943Y2.96348
X4.43553Y0.18553
X4.43553Y0.36269
X4.45600Y0.94242
X4.45600Y1.11958
X4.62208Y1.76742
X4.62208Y1.94458
X4.69143Y0.18553
X4.69143Y0.36269
X4.71191Y0.94242
X4.71191Y1.11958
X4.75600Y1.76742
X4.75600Y1.94458
X4.83553Y0.18553
X4.83553Y0.36269
X5.01191Y1.76742
X5.01191Y1.94458
X5.09143Y0.18553
X5.09143Y0.36269
X5.15305Y1.76742
X5.15305Y1.94458
X5.28848Y0.19242
X5.28848Y0.36958
X5.28848Y0.94242
X5.28848Y1.11958
X5.40895Y1.76742
X5.40895Y1.94458
X5.54439Y0.19242
X5.54439Y0.36958
X5.54439Y0.94242
X5.54439Y1.11958
T006
X0.58100Y1.15679
X0.58100Y1.25521
X0.58100Y2.23179
X0.58100Y2.33021
X0.98100Y2.23179
X0.98100Y2.33021
X0.99852Y0.65679
X0.99852Y0.75521
X1.19852Y1.43179
X1.19852Y1.53021
X1.38100Y0.65679
X1.38100Y0.75521
X1.38100Y2.23179
X1.38100Y2.33021
X1.59852Y1.41409
X1.59852Y1.51251
X1.75600Y0.65679
X1.75600Y0.75521
X1.78100Y2.23179
X1.78100Y2.33021
X2.13848Y0.65679
X2.13848Y0.75521
X2.18100Y2.23179
X2.18100Y2.33021
X2.37352Y1.41409
X2.37352Y1.51251
X2.52352Y0.65679
X2.52352Y0.75521
X2.57975Y2.23179
X2.57975Y2.33021
X2.75600Y1.40679
X2.75600Y1.50521
X2.88395Y0.65679
X2.88395Y0.75521
X2.98100Y2.23179
X2.98100Y2.33021
X3.18100Y1.40679
X3.18100Y1.50521
X3.25895Y0.65679
X3.25895Y0.75521
X3.40600Y2.23179
X3.40600Y2.33021
X3.66643Y0.65679
X3.66643Y0.75521
X3.86913Y2.23179
X3.86913Y2.33021
X4.16913Y2.23179
X4.16913Y2.33021
X4.18100Y1.40679
X4.18100Y1.50521
X4.19852Y0.65679
X4.19852Y0.75521
X4.46913Y2.23179
X4.46913Y2.33021
X4.58100Y0.65679
X4.58100Y0.75521
X4.58100Y1.40679
X4.58100Y1.50521
X4.88395Y2.23179
X4.88395Y2.33021
X4.98100Y0.65679
X4.98100Y0.75521
X5.28100Y2.23179
X5.28100Y2.33021
T007
X0.10600Y0.60600
X0.10600Y0.70600
X0.10600Y0.80600
X0.10600Y0.90600
X0.10600Y1.00600
X0.10600Y1.10600
X0.10600Y1.20600
X0.10600Y1.30600
X0.10600Y1.40600
X0.10600Y1.50600
X0.10600Y1.60600
X0.10600Y1.70600
X0.10600Y1.80600
X0.10600Y1.90600
X0.10600Y2.00600
X0.10600Y2.10600
X0.10600Y2.20600
X0.10600Y2.30600
X0.10600Y2.40600
X0.10600Y2.50600
X0.20600Y0.60600
X0.20600Y0.70600
X0.20600Y0.80600
X0.20600Y0.90600
X0.20600Y1.00600
X0.20600Y1.10600
X0.20600Y1.20600
X0.20600Y1.30600
X0.20600Y1.40600
X0.20600Y1.50600
X0.20600Y1.60600
X0.20600Y1.70600
X0.20600Y1.80600
X0.20600Y1.90600
X0.20600Y2.00600
X0.20600Y2.10600
X0.20600Y2.20600
X0.20600Y2.30600
X0.20600Y2.40600
X0.20600Y2.50600
X5.70600Y0.60600
X5.70600Y0.70600
X5.70600Y0.80600
X5.70600Y0.90600
X5.70600Y1.00600
X5.70600Y1.10600
X5.70600Y1.20600
X5.70600Y1.30600
X5.70600Y1.40600
X5.70600Y1.50600
X5.70600Y1.60600
X5.70600Y1.70600
X5.70600Y1.80600
X5.70600Y1.90600
X5.70600Y2.00600
X5.70600Y2.10600
X5.70600Y2.20600
X5.70600Y2.30600
X5.70600Y2.40600
X5.70600Y2.50600
X5.80600Y0.60600
X5.80600Y0.70600
X5.80600Y0.80600
X5.80600Y0.90600
X5.80600Y1.00600
X5.80600Y1.10600
X5.80600Y1.20600
X5.80600Y1.30600
X5.80600Y1.40600
X5.80600Y1.50600
X5.80600Y1.60600
X5.80600Y1.70600
X5.80600Y1.80600
X5.80600Y1.90600
X5.80600Y2.00600
X5.80600Y2.10600
X5.80600Y2.20600
X5.80600Y2.30600
X5.80600Y2.40600
X5.80600Y2.50600
T008
X4.09399Y3.25876
X4.46801Y3.25876
M30
