M48
; DRILL file {KiCad 8.0.2} date 2024-08-15T15:23:31+0900
; FORMAT={-:-/ absolute / metric / decimal}
; #@! TF.CreationDate,2024-08-15T15:23:31+09:00
; #@! TF.GenerationSoftware,Kicad,Pcbnew,8.0.2
; #@! TF.FileFunction,MixedPlating,1,2
FMAT,2
METRIC
; #@! TA.AperFunction,Plated,PTH,ViaDrill
T1C0.300
; #@! TA.AperFunction,Plated,PTH,ViaDrill
T2C0.500
; #@! TA.AperFunction,Plated,PTH,ComponentDrill
T3C0.600
; #@! TA.AperFunction,Plated,PTH,ComponentDrill
T4C0.710
; #@! TA.AperFunction,Plated,PTH,ComponentDrill
T5C0.750
; #@! TA.AperFunction,Plated,PTH,ComponentDrill
T6C0.800
; #@! TA.AperFunction,Plated,PTH,ComponentDrill
T7C0.900
; #@! TA.AperFunction,Plated,PTH,ComponentDrill
T8C1.000
; #@! TA.AperFunction,Plated,PTH,ComponentDrill
T9C1.090
; #@! TA.AperFunction,Plated,PTH,ComponentDrill
T10C2.900
; #@! TA.AperFunction,Plated,PTH,ComponentDrill
T11C2.970
%
G90
G05
T1
X70.681Y-66.542
X110.0Y-126.75
X132.763Y-127.948
X165.75Y-80.5
X217.0Y-83.0
T2
X126.665Y-61.335
X160.5Y-77.75
X164.0Y-77.75
T3
X88.98Y-84.25
X88.98Y-86.25
X151.545Y-129.952
X151.545Y-131.952
X155.92Y-80.25
X157.92Y-80.25
X161.92Y-80.25
X163.92Y-80.25
X184.8Y-81.327
X184.8Y-83.327
X188.83Y-124.425
X190.83Y-124.425
X214.157Y-73.37
X216.157Y-73.37
T4
X46.0Y-97.67
X46.0Y-100.21
X46.0Y-102.75
X58.4Y-102.54
X60.94Y-102.54
X63.48Y-102.54
X117.73Y-99.92
X117.73Y-102.46
X117.73Y-105.0
T5
X65.88Y-74.39
X65.9Y-79.25
X67.15Y-74.39
X67.17Y-79.25
X68.42Y-74.39
X68.44Y-79.25
X71.63Y-78.39
X72.15Y-86.08
X72.9Y-78.39
X73.42Y-86.08
X73.5Y-126.675
X74.17Y-78.39
X74.69Y-86.08
X74.77Y-126.675
X76.04Y-126.675
X77.94Y-90.54
X79.0Y-126.675
X79.21Y-90.54
X80.27Y-126.675
X80.48Y-90.54
X81.54Y-126.675
X95.73Y-101.25
X97.0Y-101.25
X98.27Y-101.25
X101.69Y-96.25
X101.69Y-101.25
X102.96Y-96.25
X102.96Y-101.25
X104.23Y-96.25
X104.23Y-101.25
X116.17Y-75.14
X116.21Y-84.89
X117.44Y-75.14
X117.48Y-84.89
X118.71Y-75.14
X118.75Y-84.89
X123.27Y-129.815
X123.96Y-75.14
X124.54Y-129.815
X124.69Y-84.89
X124.71Y-92.75
X125.23Y-75.14
X125.81Y-129.815
X125.96Y-84.89
X125.98Y-92.75
X126.5Y-75.14
X127.23Y-84.89
X127.25Y-92.75
X131.69Y-75.0
X131.94Y-84.75
X132.96Y-75.0
X133.21Y-84.75
X134.23Y-75.0
X134.48Y-84.75
X138.295Y-129.925
X138.295Y-131.195
X138.295Y-132.465
X141.23Y-100.25
X142.5Y-100.25
X143.77Y-100.25
X156.005Y-131.425
X157.275Y-131.425
X158.545Y-131.425
X163.26Y-99.415
X164.53Y-99.415
X165.8Y-99.415
X183.83Y-128.655
X183.83Y-129.925
X183.83Y-131.195
X195.96Y-100.37
X197.23Y-100.37
X198.5Y-100.37
X201.75Y-95.62
X203.02Y-95.62
X203.04Y-123.925
X203.04Y-125.195
X203.04Y-126.465
X204.29Y-95.62
X208.04Y-129.675
X208.04Y-130.945
X208.04Y-132.215
X208.65Y-123.905
X208.65Y-125.175
X208.65Y-126.445
T6
X43.5Y-74.21
X43.5Y-76.75
X47.15Y-79.28
X47.15Y-81.82
X47.25Y-73.75
X47.25Y-76.29
X50.65Y-73.78
X50.65Y-76.32
X50.65Y-79.735
X50.65Y-82.275
X52.85Y-87.35
X52.85Y-92.35
X52.9Y-95.28
X52.9Y-97.82
X52.9Y-101.485
X52.9Y-104.025
X53.22Y-123.815
X53.22Y-126.355
X55.1Y-74.005
X55.1Y-76.545
X55.1Y-79.085
X56.17Y-123.805
X56.17Y-126.345
X56.17Y-128.885
X56.17Y-131.425
X56.6Y-87.73
X56.6Y-90.27
X56.6Y-92.81
X56.6Y-95.35
X62.72Y-74.005
X62.72Y-76.545
X62.72Y-79.085
X63.79Y-123.805
X63.79Y-126.345
X63.79Y-128.885
X63.79Y-131.425
X64.22Y-87.73
X64.22Y-90.27
X64.22Y-92.81
X64.22Y-95.35
X67.75Y-126.675
X67.795Y-130.425
X68.65Y-84.53
X68.65Y-89.53
X68.73Y-96.04
X68.73Y-101.04
X70.29Y-126.675
X70.335Y-130.425
X71.9Y-91.28
X72.48Y-95.75
X72.48Y-98.29
X72.48Y-101.745
X72.48Y-104.285
X73.25Y-130.425
X74.44Y-91.28
X75.79Y-130.425
X77.42Y-77.64
X77.42Y-80.18
X77.98Y-103.29
X77.98Y-105.29
X78.0Y-94.71
X78.0Y-97.25
X78.75Y-130.425
X81.29Y-130.425
X81.5Y-95.21
X81.5Y-97.75
X87.69Y-80.0
X87.94Y-74.0
X90.23Y-80.0
X90.48Y-74.0
X93.735Y-80.0
X94.23Y-88.5
X94.23Y-95.0
X94.235Y-85.25
X94.235Y-91.75
X95.48Y-73.0
X95.48Y-75.0
X96.275Y-80.0
X96.77Y-88.5
X96.77Y-95.0
X96.775Y-85.25
X96.775Y-91.75
X101.21Y-122.175
X101.44Y-74.5
X101.68Y-81.725
X101.68Y-84.265
X101.68Y-86.805
X101.69Y-107.0
X103.75Y-122.175
X103.98Y-74.5
X104.23Y-107.0
X105.935Y-129.5
X107.19Y-98.5
X107.23Y-91.0
X107.235Y-102.25
X107.485Y-74.25
X107.69Y-94.75
X108.475Y-129.5
X109.3Y-81.725
X109.3Y-84.265
X109.3Y-86.805
X109.73Y-98.5
X109.77Y-91.0
X109.775Y-102.25
X110.025Y-74.25
X110.23Y-94.75
X113.79Y-126.96
X113.79Y-129.5
X115.21Y-80.03
X117.21Y-129.5
X117.48Y-92.5
X119.48Y-92.5
X119.75Y-129.5
X120.21Y-80.03
X123.21Y-80.03
X124.46Y-102.25
X124.46Y-104.79
X125.21Y-97.25
X127.54Y-117.925
X127.54Y-122.925
X127.75Y-97.25
X127.96Y-101.71
X127.96Y-104.25
X128.21Y-80.03
X131.0Y-129.675
X131.0Y-133.425
X131.21Y-79.89
X131.915Y-97.25
X133.13Y-115.555
X133.13Y-123.175
X133.21Y-91.5
X133.21Y-93.5
X133.54Y-129.675
X133.54Y-133.425
X134.455Y-97.25
X135.5Y-102.25
X135.5Y-104.25
X135.67Y-115.555
X135.67Y-123.175
X136.21Y-79.89
X138.21Y-115.555
X138.21Y-123.175
X139.46Y-76.64
X139.46Y-81.64
X140.75Y-115.555
X140.75Y-123.175
X140.77Y-104.75
X140.77Y-107.29
X141.46Y-86.39
X142.98Y-92.755
X142.98Y-95.295
X143.045Y-130.385
X143.045Y-132.925
X143.29Y-115.555
X143.29Y-123.175
X143.98Y-104.75
X143.98Y-107.29
X144.405Y-74.34
X144.405Y-81.96
X145.83Y-115.555
X145.83Y-123.175
X146.46Y-86.39
X146.79Y-129.925
X146.79Y-132.465
X146.945Y-74.34
X146.945Y-81.96
X147.23Y-92.755
X147.23Y-95.295
X147.23Y-99.0
X147.23Y-101.54
X148.37Y-115.555
X148.37Y-123.175
X149.485Y-74.34
X149.485Y-81.96
X149.96Y-86.39
X152.48Y-92.0
X152.48Y-94.54
X152.48Y-97.08
X153.03Y-101.275
X153.03Y-103.275
X154.96Y-86.39
X155.69Y-74.75
X158.23Y-74.75
X158.28Y-100.985
X158.28Y-103.525
X160.1Y-92.0
X160.1Y-94.54
X160.1Y-97.08
X161.44Y-74.64
X162.545Y-132.925
X162.755Y-128.925
X162.99Y-91.775
X162.99Y-95.025
X163.49Y-104.275
X163.49Y-106.815
X163.98Y-74.64
X165.085Y-132.925
X165.295Y-128.925
X165.53Y-91.775
X165.53Y-95.025
X167.69Y-80.5
X168.58Y-131.175
X168.73Y-74.5
X168.73Y-76.5
X169.53Y-99.525
X170.23Y-80.5
X171.53Y-99.525
X173.58Y-131.175
X177.08Y-131.175
X177.535Y-127.675
X177.54Y-124.175
X179.62Y-131.175
X180.075Y-127.675
X180.08Y-124.175
X181.67Y-88.5
X181.67Y-92.05
X183.285Y-124.175
X183.55Y-77.827
X185.825Y-124.175
X186.09Y-77.827
X186.67Y-88.5
X186.67Y-92.05
X186.75Y-103.62
X189.63Y-88.55
X189.63Y-92.05
X189.75Y-99.37
X189.76Y-82.55
X189.8Y-79.3
X189.955Y-95.62
X191.75Y-103.62
X192.17Y-88.55
X192.17Y-92.05
X192.29Y-99.37
X192.3Y-82.55
X192.34Y-79.3
X192.495Y-95.62
X193.75Y-124.425
X194.0Y-129.925
X195.25Y-77.5
X195.25Y-80.04
X195.25Y-82.58
X195.25Y-85.12
X195.705Y-95.62
X196.29Y-124.425
X196.54Y-129.925
X197.75Y-105.08
X197.75Y-107.62
X198.245Y-95.62
X201.71Y-90.37
X201.75Y-99.37
X201.75Y-101.91
X202.29Y-130.175
X202.29Y-132.175
X202.87Y-77.5
X202.87Y-80.04
X202.87Y-82.58
X202.87Y-85.12
X204.25Y-90.37
X205.25Y-99.33
X205.25Y-101.87
X207.73Y-74.09
X208.0Y-77.825
X208.0Y-80.365
X208.0Y-83.24
X208.0Y-85.78
X210.0Y-99.915
X210.0Y-101.915
X210.27Y-74.09
X211.63Y-77.87
X211.63Y-80.41
X211.63Y-82.95
X211.63Y-85.49
X215.25Y-93.87
X215.25Y-96.41
X215.25Y-99.825
X215.25Y-102.365
X219.0Y-99.62
X219.0Y-104.62
X219.25Y-77.87
X219.25Y-80.41
X219.25Y-82.95
X219.25Y-85.49
X220.34Y-73.12
X222.88Y-73.12
T7
X49.47Y-123.0
X49.47Y-125.54
X49.47Y-129.565
X49.47Y-132.105
X71.63Y-73.64
X74.17Y-73.64
X107.46Y-122.175
X110.0Y-122.175
X114.245Y-122.175
X116.785Y-122.175
X120.495Y-122.175
X123.035Y-122.175
X168.23Y-84.25
X170.77Y-84.25
X181.5Y-95.62
X181.545Y-99.37
X184.04Y-95.62
X184.085Y-99.37
X188.25Y-129.925
X190.79Y-129.925
X210.75Y-93.205
X210.75Y-95.745
T8
X45.47Y-124.25
X51.5Y-67.25
X69.415Y-65.025
X71.915Y-65.025
X74.415Y-65.025
X76.915Y-65.025
X88.67Y-130.925
X91.21Y-130.925
X93.665Y-65.025
X93.75Y-130.925
X96.165Y-65.025
X96.29Y-130.925
X98.665Y-65.025
X98.83Y-130.925
X101.165Y-65.025
X116.665Y-65.05
X118.665Y-65.05
X120.665Y-65.05
X122.665Y-65.05
X124.665Y-65.05
X126.665Y-65.05
X142.165Y-65.05
X144.665Y-65.05
X147.165Y-65.05
X149.665Y-65.05
X158.89Y-121.48
X161.43Y-121.48
X166.415Y-65.05
X166.415Y-121.48
X168.915Y-65.05
X168.955Y-121.48
X170.75Y-105.25
X170.75Y-107.79
X171.415Y-65.05
X171.495Y-121.48
X173.915Y-65.05
X190.665Y-64.98
X193.165Y-64.98
X195.665Y-64.98
X198.165Y-64.98
X213.92Y-131.0
X213.96Y-126.5
X214.915Y-65.025
X216.46Y-131.0
X216.5Y-126.5
X217.415Y-65.025
X219.0Y-131.0
X219.04Y-126.5
X219.915Y-65.025
X222.415Y-65.025
X222.995Y-80.01
X222.995Y-82.55
T9
X46.295Y-57.83
X48.835Y-57.83
X51.375Y-57.83
X53.915Y-57.83
X56.455Y-57.83
T10
X67.365Y-54.025
X78.965Y-54.025
X91.615Y-54.025
X103.215Y-54.025
X140.115Y-54.05
X151.715Y-54.05
X164.365Y-54.05
X175.965Y-54.05
X188.615Y-53.98
X200.215Y-53.98
X212.865Y-54.025
X224.465Y-54.025
T11
X115.865Y-54.05
X127.465Y-54.05
M30
