G04 #@! TF.GenerationSoftware,KiCad,Pcbnew,8.0.2*
G04 #@! TF.CreationDate,2024-08-15T15:23:23+09:00*
G04 #@! TF.ProjectId,analog_separate,616e616c-6f67-45f7-9365-706172617465,rev?*
G04 #@! TF.SameCoordinates,Original*
G04 #@! TF.FileFunction,Soldermask,Bot*
G04 #@! TF.FilePolarity,Negative*
%FSLAX46Y46*%
G04 Gerber Fmt 4.6, Leading zero omitted, Abs format (unit mm)*
G04 Created by KiCad (PCBNEW 8.0.2) date 2024-08-15 15:23:23*
%MOMM*%
%LPD*%
G01*
G04 APERTURE LIST*
%ADD10R,1.600000X1.600000*%
%ADD11C,1.600000*%
%ADD12R,1.200000X1.200000*%
%ADD13C,1.200000*%
%ADD14O,1.600000X1.600000*%
%ADD15R,1.050000X1.500000*%
%ADD16O,1.050000X1.500000*%
%ADD17R,1.800000X1.800000*%
%ADD18O,1.800000X1.800000*%
%ADD19R,1.700000X1.700000*%
%ADD20O,1.700000X1.700000*%
%ADD21C,1.635000*%
%ADD22R,1.217000X1.217000*%
%ADD23C,1.217000*%
%ADD24R,1.500000X1.500000*%
%ADD25C,1.500000*%
%ADD26C,4.350000*%
%ADD27R,1.500000X1.050000*%
%ADD28O,1.500000X1.050000*%
%ADD29C,4.455000*%
G04 APERTURE END LIST*
D10*
X77980000Y-103290000D03*
D11*
X77980000Y-105290000D03*
D12*
X88980000Y-84250000D03*
D13*
X88980000Y-86250000D03*
D11*
X220340000Y-73120000D03*
D14*
X222880000Y-73120000D03*
D11*
X196290000Y-124425000D03*
D14*
X193750000Y-124425000D03*
D11*
X50650000Y-76320000D03*
D14*
X50650000Y-73780000D03*
D11*
X70290000Y-126675000D03*
D14*
X67750000Y-126675000D03*
D15*
X141230000Y-100250000D03*
D16*
X142500000Y-100250000D03*
X143770000Y-100250000D03*
D15*
X125810000Y-129815000D03*
D16*
X124540000Y-129815000D03*
X123270000Y-129815000D03*
D10*
X152480000Y-92000000D03*
D14*
X152480000Y-94540000D03*
X152480000Y-97080000D03*
X160100000Y-97080000D03*
X160100000Y-94540000D03*
X160100000Y-92000000D03*
D11*
X183285000Y-124175000D03*
D14*
X185825000Y-124175000D03*
D17*
X114245000Y-122175000D03*
D18*
X116785000Y-122175000D03*
D10*
X101680000Y-81725000D03*
D14*
X101680000Y-84265000D03*
X101680000Y-86805000D03*
X109300000Y-86805000D03*
X109300000Y-84265000D03*
X109300000Y-81725000D03*
D15*
X65900000Y-79250000D03*
D16*
X67170000Y-79250000D03*
X68440000Y-79250000D03*
D11*
X77420000Y-77640000D03*
D14*
X77420000Y-80180000D03*
D11*
X189955000Y-95620000D03*
D14*
X192495000Y-95620000D03*
D11*
X149960000Y-86390000D03*
X154960000Y-86390000D03*
X72480000Y-101745000D03*
D14*
X72480000Y-104285000D03*
D15*
X131690000Y-75000000D03*
D16*
X132960000Y-75000000D03*
X134230000Y-75000000D03*
D10*
X95480000Y-73000000D03*
D11*
X95480000Y-75000000D03*
X94230000Y-95000000D03*
D14*
X96770000Y-95000000D03*
D19*
X213960000Y-126500000D03*
D20*
X216500000Y-126500000D03*
X219040000Y-126500000D03*
D11*
X107690000Y-94750000D03*
D14*
X110230000Y-94750000D03*
D11*
X109730000Y-98500000D03*
D14*
X107190000Y-98500000D03*
D15*
X65880000Y-74390000D03*
D16*
X67150000Y-74390000D03*
X68420000Y-74390000D03*
D11*
X179620000Y-131175000D03*
D14*
X177080000Y-131175000D03*
D11*
X68730000Y-101040000D03*
X68730000Y-96040000D03*
X143045000Y-130385000D03*
D14*
X143045000Y-132925000D03*
D11*
X47250000Y-76290000D03*
D14*
X47250000Y-73750000D03*
D11*
X109775000Y-102250000D03*
D14*
X107235000Y-102250000D03*
D11*
X103980000Y-74500000D03*
D14*
X101440000Y-74500000D03*
D11*
X140770000Y-104750000D03*
D14*
X140770000Y-107290000D03*
D11*
X205250000Y-101870000D03*
D14*
X205250000Y-99330000D03*
D21*
X53915000Y-57830000D03*
X51375000Y-57830000D03*
X48835000Y-57830000D03*
X56455000Y-57830000D03*
X46295000Y-57830000D03*
D19*
X51500000Y-67250000D03*
D11*
X177535000Y-127675000D03*
D14*
X180075000Y-127675000D03*
D11*
X125210000Y-97250000D03*
D14*
X127750000Y-97250000D03*
D11*
X124460000Y-102250000D03*
D14*
X124460000Y-104790000D03*
D12*
X151545000Y-129952400D03*
D13*
X151545000Y-131952400D03*
D19*
X222995000Y-80010000D03*
D20*
X222995000Y-82550000D03*
D12*
X161920000Y-80250000D03*
D13*
X163920000Y-80250000D03*
D11*
X177540000Y-124175000D03*
D14*
X180080000Y-124175000D03*
D11*
X87940000Y-74000000D03*
D14*
X90480000Y-74000000D03*
D11*
X105935000Y-129500000D03*
D14*
X108475000Y-129500000D03*
D10*
X117480000Y-92500000D03*
D11*
X119480000Y-92500000D03*
D15*
X124710000Y-92750000D03*
D16*
X125980000Y-92750000D03*
X127250000Y-92750000D03*
D10*
X55100000Y-74005000D03*
D14*
X55100000Y-76545000D03*
X55100000Y-79085000D03*
X62720000Y-79085000D03*
X62720000Y-76545000D03*
X62720000Y-74005000D03*
D15*
X79000000Y-126675000D03*
D16*
X80270000Y-126675000D03*
X81540000Y-126675000D03*
D11*
X181670000Y-88500000D03*
X186670000Y-88500000D03*
X43500000Y-74210000D03*
D14*
X43500000Y-76750000D03*
D11*
X74440000Y-91280000D03*
D14*
X71900000Y-91280000D03*
D11*
X103750000Y-122175000D03*
D14*
X101210000Y-122175000D03*
D11*
X215250000Y-93870000D03*
D14*
X215250000Y-96410000D03*
D15*
X198500000Y-100370000D03*
D16*
X197230000Y-100370000D03*
X195960000Y-100370000D03*
D11*
X50650000Y-79735000D03*
D14*
X50650000Y-82275000D03*
D17*
X107460000Y-122175000D03*
D18*
X110000000Y-122175000D03*
D22*
X117730000Y-105000000D03*
D23*
X117730000Y-102460000D03*
X117730000Y-99920000D03*
D24*
X69415000Y-65025000D03*
D25*
X71915000Y-65025000D03*
X74415000Y-65025000D03*
X76915000Y-65025000D03*
D26*
X67365000Y-54025000D03*
X78965000Y-54025000D03*
D15*
X73500000Y-126675000D03*
D16*
X74770000Y-126675000D03*
X76040000Y-126675000D03*
D11*
X70335000Y-130425000D03*
D14*
X67795000Y-130425000D03*
D11*
X146790000Y-132465000D03*
D14*
X146790000Y-129925000D03*
D11*
X81290000Y-130425000D03*
D14*
X78750000Y-130425000D03*
D11*
X72480000Y-98290000D03*
D14*
X72480000Y-95750000D03*
D15*
X116170000Y-75140000D03*
D16*
X117440000Y-75140000D03*
X118710000Y-75140000D03*
D10*
X202290000Y-130175000D03*
D11*
X202290000Y-132175000D03*
D19*
X158890000Y-121480000D03*
D20*
X161430000Y-121480000D03*
D11*
X173580000Y-131175000D03*
X168580000Y-131175000D03*
D27*
X208650000Y-126445000D03*
D28*
X208650000Y-125175000D03*
X208650000Y-123905000D03*
D11*
X219000000Y-104620000D03*
X219000000Y-99620000D03*
X94230000Y-88500000D03*
D14*
X96770000Y-88500000D03*
D11*
X94235000Y-91750000D03*
D14*
X96775000Y-91750000D03*
D24*
X118665000Y-65050000D03*
D25*
X116665000Y-65050000D03*
X126665000Y-65050000D03*
X120665000Y-65050000D03*
X122665000Y-65050000D03*
X124665000Y-65050000D03*
D29*
X115865000Y-54050000D03*
X127465000Y-54050000D03*
D11*
X81500000Y-95210000D03*
D14*
X81500000Y-97750000D03*
D10*
X149485000Y-74340000D03*
D14*
X146945000Y-74340000D03*
X144405000Y-74340000D03*
X144405000Y-81960000D03*
X146945000Y-81960000D03*
X149485000Y-81960000D03*
D11*
X47150000Y-81820000D03*
D14*
X47150000Y-79280000D03*
D11*
X192170000Y-92050000D03*
D14*
X189630000Y-92050000D03*
D17*
X49470000Y-129565000D03*
D18*
X49470000Y-132105000D03*
D17*
X210750000Y-93205000D03*
D18*
X210750000Y-95745000D03*
D10*
X56170000Y-123805000D03*
D14*
X56170000Y-126345000D03*
X56170000Y-128885000D03*
X56170000Y-131425000D03*
X63790000Y-131425000D03*
X63790000Y-128885000D03*
X63790000Y-126345000D03*
X63790000Y-123805000D03*
D24*
X93665000Y-65025000D03*
D25*
X96165000Y-65025000D03*
X98665000Y-65025000D03*
X101165000Y-65025000D03*
D26*
X91615000Y-54025000D03*
X103215000Y-54025000D03*
D10*
X168730000Y-74500000D03*
D11*
X168730000Y-76500000D03*
X127540000Y-122925000D03*
X127540000Y-117925000D03*
D15*
X74170000Y-78390000D03*
D16*
X72900000Y-78390000D03*
X71630000Y-78390000D03*
D11*
X181670000Y-92050000D03*
X186670000Y-92050000D03*
D27*
X138295000Y-132465000D03*
D28*
X138295000Y-131195000D03*
X138295000Y-129925000D03*
D12*
X214157400Y-73370000D03*
D13*
X216157400Y-73370000D03*
D11*
X131210000Y-79890000D03*
X136210000Y-79890000D03*
D24*
X166415000Y-65050000D03*
D25*
X168915000Y-65050000D03*
X171415000Y-65050000D03*
X173915000Y-65050000D03*
D26*
X164365000Y-54050000D03*
X175965000Y-54050000D03*
D11*
X110025000Y-74250000D03*
D14*
X107485000Y-74250000D03*
D11*
X162755000Y-128925000D03*
D14*
X165295000Y-128925000D03*
D11*
X195705000Y-95620000D03*
D14*
X198245000Y-95620000D03*
D12*
X188830000Y-124425000D03*
D13*
X190830000Y-124425000D03*
D15*
X80480000Y-90540000D03*
D16*
X79210000Y-90540000D03*
X77940000Y-90540000D03*
D17*
X49470000Y-123000000D03*
D18*
X49470000Y-125540000D03*
D10*
X133210000Y-93500000D03*
D11*
X133210000Y-91500000D03*
D17*
X184085000Y-99370000D03*
D18*
X181545000Y-99370000D03*
D11*
X53220000Y-126355000D03*
D14*
X53220000Y-123815000D03*
D11*
X96275000Y-80000000D03*
D14*
X93735000Y-80000000D03*
D10*
X133130000Y-123175000D03*
D14*
X135670000Y-123175000D03*
X138210000Y-123175000D03*
X140750000Y-123175000D03*
X143290000Y-123175000D03*
X145830000Y-123175000D03*
X148370000Y-123175000D03*
X148370000Y-115555000D03*
X145830000Y-115555000D03*
X143290000Y-115555000D03*
X140750000Y-115555000D03*
X138210000Y-115555000D03*
X135670000Y-115555000D03*
X133130000Y-115555000D03*
D15*
X165800000Y-99415000D03*
D16*
X164530000Y-99415000D03*
X163260000Y-99415000D03*
D11*
X109770000Y-91000000D03*
D14*
X107230000Y-91000000D03*
D12*
X155920000Y-80250000D03*
D13*
X157920000Y-80250000D03*
D15*
X131940000Y-84750000D03*
D16*
X133210000Y-84750000D03*
X134480000Y-84750000D03*
D22*
X58400000Y-102540000D03*
D23*
X60940000Y-102540000D03*
X63480000Y-102540000D03*
D11*
X52900000Y-101485000D03*
D14*
X52900000Y-104025000D03*
D11*
X192170000Y-88550000D03*
D14*
X189630000Y-88550000D03*
D11*
X210270000Y-74090000D03*
D14*
X207730000Y-74090000D03*
D10*
X169530000Y-99525000D03*
D11*
X171530000Y-99525000D03*
X147230000Y-95295000D03*
D14*
X147230000Y-92755000D03*
D15*
X123960000Y-75140000D03*
D16*
X125230000Y-75140000D03*
X126500000Y-75140000D03*
D19*
X213920000Y-131000000D03*
D20*
X216460000Y-131000000D03*
X219000000Y-131000000D03*
D11*
X186750000Y-103620000D03*
X191750000Y-103620000D03*
X139460000Y-76640000D03*
X139460000Y-81640000D03*
X131915000Y-97250000D03*
D14*
X134455000Y-97250000D03*
D17*
X74170000Y-73640000D03*
D18*
X71630000Y-73640000D03*
D11*
X165530000Y-95025000D03*
D14*
X162990000Y-95025000D03*
D24*
X214915000Y-65025000D03*
D25*
X217415000Y-65025000D03*
X219915000Y-65025000D03*
X222415000Y-65025000D03*
D26*
X212865000Y-54025000D03*
X224465000Y-54025000D03*
D11*
X208000000Y-83240000D03*
D14*
X208000000Y-85780000D03*
D11*
X143980000Y-104750000D03*
D14*
X143980000Y-107290000D03*
D11*
X196540000Y-129925000D03*
D14*
X194000000Y-129925000D03*
D10*
X56600000Y-87730000D03*
D14*
X56600000Y-90270000D03*
X56600000Y-92810000D03*
X56600000Y-95350000D03*
X64220000Y-95350000D03*
X64220000Y-92810000D03*
X64220000Y-90270000D03*
X64220000Y-87730000D03*
D11*
X192300000Y-82550000D03*
D14*
X189760000Y-82550000D03*
D11*
X131000000Y-129675000D03*
D14*
X133540000Y-129675000D03*
D11*
X215250000Y-99825000D03*
D14*
X215250000Y-102365000D03*
D27*
X208040000Y-129675000D03*
D28*
X208040000Y-130945000D03*
X208040000Y-132215000D03*
D10*
X195250000Y-77500000D03*
D14*
X195250000Y-80040000D03*
X195250000Y-82580000D03*
X195250000Y-85120000D03*
X202870000Y-85120000D03*
X202870000Y-82580000D03*
X202870000Y-80040000D03*
X202870000Y-77500000D03*
D27*
X183830000Y-128655000D03*
D28*
X183830000Y-129925000D03*
X183830000Y-131195000D03*
D11*
X165530000Y-91775000D03*
D14*
X162990000Y-91775000D03*
D11*
X170230000Y-80500000D03*
D14*
X167690000Y-80500000D03*
D15*
X72150000Y-86080000D03*
D16*
X73420000Y-86080000D03*
X74690000Y-86080000D03*
D19*
X45470000Y-124250000D03*
D11*
X117210000Y-129500000D03*
D14*
X119750000Y-129500000D03*
D19*
X170750000Y-105250000D03*
D20*
X170750000Y-107790000D03*
D10*
X153030000Y-101275000D03*
D11*
X153030000Y-103275000D03*
D12*
X184800000Y-81327400D03*
D13*
X184800000Y-83327400D03*
D24*
X190665000Y-64980000D03*
D25*
X193165000Y-64980000D03*
X195665000Y-64980000D03*
X198165000Y-64980000D03*
D26*
X188615000Y-53980000D03*
X200215000Y-53980000D03*
D11*
X208000000Y-77825000D03*
D14*
X208000000Y-80365000D03*
D11*
X131000000Y-133425000D03*
D14*
X133540000Y-133425000D03*
D11*
X115210000Y-80030000D03*
X120210000Y-80030000D03*
X158280000Y-103525000D03*
D14*
X158280000Y-100985000D03*
D11*
X113790000Y-129500000D03*
D14*
X113790000Y-126960000D03*
D15*
X98270000Y-101250000D03*
D16*
X97000000Y-101250000D03*
X95730000Y-101250000D03*
D10*
X210000000Y-99914900D03*
D11*
X210000000Y-101914900D03*
X201750000Y-101910000D03*
D14*
X201750000Y-99370000D03*
D11*
X142980000Y-95295000D03*
D14*
X142980000Y-92755000D03*
D11*
X75790000Y-130425000D03*
D14*
X73250000Y-130425000D03*
D11*
X192290000Y-99370000D03*
D14*
X189750000Y-99370000D03*
D11*
X127960000Y-104250000D03*
D14*
X127960000Y-101710000D03*
D11*
X163490000Y-104275000D03*
D14*
X163490000Y-106815000D03*
D11*
X201710000Y-90370000D03*
D14*
X204250000Y-90370000D03*
D11*
X104230000Y-107000000D03*
D14*
X101690000Y-107000000D03*
D11*
X141460000Y-86390000D03*
X146460000Y-86390000D03*
X78000000Y-97250000D03*
D14*
X78000000Y-94710000D03*
D11*
X197750000Y-105080000D03*
D14*
X197750000Y-107620000D03*
D11*
X123210000Y-80030000D03*
X128210000Y-80030000D03*
D19*
X166415000Y-121480000D03*
D20*
X168955000Y-121480000D03*
X171495000Y-121480000D03*
D15*
X158545000Y-131425000D03*
D16*
X157275000Y-131425000D03*
X156005000Y-131425000D03*
D17*
X184040000Y-95620000D03*
D18*
X181500000Y-95620000D03*
D27*
X203040000Y-126465000D03*
D28*
X203040000Y-125195000D03*
X203040000Y-123925000D03*
D11*
X163980000Y-74640000D03*
D14*
X161440000Y-74640000D03*
D15*
X104230000Y-101250000D03*
D16*
X102960000Y-101250000D03*
X101690000Y-101250000D03*
D15*
X201750000Y-95620000D03*
D16*
X203020000Y-95620000D03*
X204290000Y-95620000D03*
D11*
X186090000Y-77827400D03*
D14*
X183550000Y-77827400D03*
D15*
X101690000Y-96250000D03*
D16*
X102960000Y-96250000D03*
X104230000Y-96250000D03*
D11*
X52850000Y-92350000D03*
X52850000Y-87350000D03*
X90230000Y-80000000D03*
D14*
X87690000Y-80000000D03*
D17*
X120495000Y-122175000D03*
D18*
X123035000Y-122175000D03*
D11*
X192340000Y-79300000D03*
D14*
X189800000Y-79300000D03*
D15*
X124690000Y-84890000D03*
D16*
X125960000Y-84890000D03*
X127230000Y-84890000D03*
D24*
X142165000Y-65050000D03*
D25*
X144665000Y-65050000D03*
X147165000Y-65050000D03*
X149665000Y-65050000D03*
D26*
X140115000Y-54050000D03*
X151715000Y-54050000D03*
D17*
X190790000Y-129925000D03*
D18*
X188250000Y-129925000D03*
D15*
X116210000Y-84890000D03*
D16*
X117480000Y-84890000D03*
X118750000Y-84890000D03*
D10*
X135500000Y-102250000D03*
D11*
X135500000Y-104250000D03*
D19*
X88670000Y-130925000D03*
D20*
X91210000Y-130925000D03*
X93750000Y-130925000D03*
X96290000Y-130925000D03*
X98830000Y-130925000D03*
D11*
X94235000Y-85250000D03*
D14*
X96775000Y-85250000D03*
D17*
X168230000Y-84250000D03*
D18*
X170770000Y-84250000D03*
D11*
X158230000Y-74750000D03*
D14*
X155690000Y-74750000D03*
D11*
X147230000Y-99000000D03*
D14*
X147230000Y-101540000D03*
D11*
X165085000Y-132925000D03*
D14*
X162545000Y-132925000D03*
D22*
X46000000Y-97670000D03*
D23*
X46000000Y-100210000D03*
X46000000Y-102750000D03*
D10*
X211630000Y-77870000D03*
D14*
X211630000Y-80410000D03*
X211630000Y-82950000D03*
X211630000Y-85490000D03*
X219250000Y-85490000D03*
X219250000Y-82950000D03*
X219250000Y-80410000D03*
X219250000Y-77870000D03*
D11*
X52900000Y-97820000D03*
D14*
X52900000Y-95280000D03*
D11*
X68650000Y-89530000D03*
X68650000Y-84530000D03*
M02*
